<svg width="48" height="48" viewBox="0 0 48 48" fill="none" xmlns="http://www.w3.org/2000/svg">
<path d="M23.9998 47.9996C37.2545 47.9996 47.9996 37.2545 47.9996 23.9998C47.9996 10.7451 37.2545 0 23.9998 0C10.7451 0 0 10.7451 0 23.9998C0 37.2545 10.7451 47.9996 23.9998 47.9996Z" fill="#322C2B"/>
<path d="M20.6666 23.8857V27.9357C20.6666 31.9138 17.441 35.1525 13.4499 35.1525C9.45876 35.1525 6.23315 31.9203 6.23315 27.9357V23.7287C6.32475 19.8226 9.51111 16.6755 13.4499 16.6755C15.4454 16.6755 17.2513 17.4934 18.5598 18.7889C19.8618 20.0974 20.6666 21.8967 20.6666 23.8923V23.8857Z" fill="white"/>
<path d="M20.6664 23.8859V24.0691C14.1759 24.4944 10.0605 20.3397 10.0605 20.3397C8.45752 23.0354 7.4303 23.3559 6.2395 23.7223C6.3311 19.8163 9.51745 16.6692 13.4562 16.6692C15.4518 16.6692 17.2576 17.487 18.5662 18.7825C19.8682 20.0911 20.673 21.8904 20.673 23.8859H20.6664Z" fill="black"/>
<path fill-rule="evenodd" clip-rule="evenodd" d="M13.4498 36.8604C19.3711 36.8604 24.5006 41.3814 27 47.9701H1.55498C-0.25084 47.9701 -0.401325 48.3823 0.67824 46.1446C3.38042 40.5636 8.08471 36.8604 13.4433 36.8604H13.4498Z" fill="#B3B3B3"/>
<path fill-rule="evenodd" clip-rule="evenodd" d="M25 6C23.8954 6 23 6.89543 23 8V27C23 28.1046 23.8954 29 25 29H31.2628L34.8491 32.4428C35.2475 32.8253 35.8935 32.8253 36.2919 32.4428L39.8782 29H46C47.1046 29 48 28.1046 48 27V8C48 6.89543 47.1046 6 46 6H25Z" fill="black"/>
<path d="M34 11.5C34 10.6716 34.6716 10 35.5 10C36.3284 10 37 10.6716 37 11.5V19.5C37 20.3284 36.3284 21 35.5 21C34.6716 21 34 20.3284 34 19.5V11.5Z" fill="white"/>
<path d="M34 11.1786C34 10.5277 34.6716 10 35.5 10C36.3284 10 37 10.5277 37 11.1786V19.8214C37 20.4723 36.3284 21 35.5 21C34.6716 21 34 20.4723 34 19.8214V11.1786Z" fill="white"/>
<circle cx="35.5" cy="24.5" r="1.5" fill="white"/>
</svg>
