<svg width="48" height="48" viewBox="0 0 48 48" fill="none" xmlns="http://www.w3.org/2000/svg">
<path d="M24 48C37.2548 48 48 37.2548 48 24C48 10.7452 37.2548 0 24 0C10.7452 0 0 10.7452 0 24C0 37.2548 10.7452 48 24 48Z" fill="#940A0A"/>
<path d="M48 1H0V15.4153H48V1Z" fill="#E50B14"/>
<path d="M44.4914 15.344H3.50854V45.0566H44.4914V15.344Z" fill="#ED5758"/>
<path d="M13.4419 16.7104H5.68726V21.1187H13.4419V16.7104Z" fill="#E50B14"/>
<path d="M23.0628 16.7104H15.3081V21.1187H23.0628V16.7104Z" fill="#E50B14"/>
<path d="M32.6918 16.7104H24.9371V21.1187H32.6918V16.7104Z" fill="#E50B14"/>
<path d="M42.3208 16.7104H34.5662V21.1187H42.3208V16.7104Z" fill="#E50B14"/>
<path d="M13.4419 23.1698H5.68726V27.5781H13.4419V23.1698Z" fill="#E50B14"/>
<path d="M23.0628 23.1698H15.3081V27.5781H23.0628V23.1698Z" fill="#E50B14"/>
<path d="M32.6918 23.1698H24.9371V27.5781H32.6918V23.1698Z" fill="#E50B14"/>
<path d="M42.3208 23.1698H34.5662V27.5781H42.3208V23.1698Z" fill="#E50B14"/>
<path d="M32.909 28.8492H15.3002V29.7502H32.909V28.8492Z" fill="#E50B14"/>
<path d="M31.8471 29.7501H16.2815V36.8532H31.8471V29.7501Z" fill="#ED5758"/>
<path d="M2.29266 1H1.61694V15.4153H2.29266V1Z" fill="#E50B14"/>
<path d="M5.0357 1H4.35999V15.4153H5.0357V1Z" fill="#E50B14"/>
<path d="M7.77877 1H7.10303V15.4153H7.77877V1Z" fill="#E50B14"/>
<path d="M10.5298 1H9.85413V15.4153H10.5298V1Z" fill="#E50B14"/>
<path d="M13.273 1H12.5973V15.4153H13.273V1Z" fill="#E50B14"/>
<path d="M16.016 1H15.3403V15.4153H16.016V1Z" fill="#E50B14"/>
<path d="M18.7592 1H18.0835V15.4153H18.7592V1Z" fill="#E50B14"/>
<path d="M21.5023 1H20.8265V15.4153H21.5023V1Z" fill="#E50B14"/>
<path d="M24.2453 1H23.5696V15.4153H24.2453V1Z" fill="#E50B14"/>
<path d="M26.9885 1H26.3127V15.4153H26.9885V1Z" fill="#E50B14"/>
<path d="M29.7315 1H29.0558V15.4153H29.7315V1Z" fill="#E50B14"/>
<path d="M32.4747 1H31.799V15.4153H32.4747V1Z" fill="#E50B14"/>
<path d="M35.2258 1H34.55V15.4153H35.2258V1Z" fill="#E50B14"/>
<path d="M37.9688 1H37.2931V15.4153H37.9688V1Z" fill="#E50B14"/>
<path d="M40.7119 1H40.0361V15.4153H40.7119V1Z" fill="#E50B14"/>
<path d="M43.4549 1H42.7792V15.4153H43.4549V1Z" fill="#E50B14"/>
<path d="M46.1981 1H45.5223V15.4153H46.1981V1Z" fill="#E50B14"/>
<path d="M35.8268 4.44287H10.6805V11.2805H35.8268V4.44287Z" fill="#921E17"/>
<path fill-rule="evenodd" clip-rule="evenodd" d="M15.2819 7.85368C15.6037 7.85368 15.9174 7.84565 16.2392 7.84565C16.3598 7.84565 16.4805 7.84564 16.5931 7.8376C16.7057 7.8376 16.8183 7.8376 16.931 7.8376C17.0919 7.84564 17.2769 7.82956 17.4056 7.89391C17.478 7.92609 17.5021 7.98239 17.5182 8.06284C17.5182 8.07088 17.5182 8.07087 17.5182 8.07892C17.5182 8.19153 17.4458 8.32829 17.3975 8.43286C17.3251 8.5857 17.1964 8.72247 17.0677 8.85118C16.8505 9.06033 16.4161 9.30969 15.9656 9.43839C15.9013 9.45448 15.8289 9.47862 15.7645 9.49471C15.7163 9.5108 15.7324 9.53494 15.7645 9.52689C15.8369 9.51885 15.9174 9.50275 15.9818 9.48666C16.5127 9.35795 16.8746 9.14076 17.124 8.93966C17.2769 8.81899 17.4297 8.64202 17.5343 8.46505C17.6067 8.34438 17.671 8.14329 17.6871 8.07089C17.7032 7.97436 17.7112 7.92607 17.7032 7.77323C17.6871 7.51581 17.6067 7.31472 17.4619 7.08144C17.4538 7.06535 17.4377 7.04926 17.4297 7.03317C17.4217 7.02513 17.4217 7.01708 17.4217 7.00099C17.4378 6.99295 17.4539 7.00903 17.4699 7.02512C17.5906 7.16187 17.663 7.2745 17.7273 7.41125C17.8158 7.59627 17.84 7.73303 17.848 7.89391C17.848 7.92609 17.8882 7.94217 17.8882 7.88586C17.8963 7.70889 17.8561 7.52388 17.7837 7.36299C17.7032 7.16993 17.6067 7.07339 17.4941 6.92859C17.3573 6.7838 17.1884 6.65509 17.0275 6.55051C16.7701 6.38963 16.5046 6.27702 16.2231 6.20462C16.1104 6.17244 15.9818 6.14831 15.8611 6.13222C15.8209 6.12418 15.7806 6.13222 15.7485 6.13222C15.7243 6.13222 15.6922 6.16439 15.7485 6.17243C15.8209 6.18852 15.8933 6.20462 15.9737 6.22875C16.2552 6.30919 16.5288 6.41376 16.7781 6.57465C16.9873 6.70335 17.0838 6.77576 17.3332 7.08144C17.3573 7.12166 17.4297 7.22623 17.4619 7.30667C17.486 7.36298 17.5182 7.45951 17.5262 7.52386C17.5182 7.58821 17.5021 7.6365 17.4538 7.66868C17.3412 7.73303 17.2447 7.74105 17.0919 7.7491C16.9873 7.75714 16.8827 7.75715 16.7701 7.75715C16.6092 7.75715 16.4563 7.7652 16.2955 7.7652C15.9576 7.77325 15.6198 7.77324 15.2819 7.78128C15.2497 7.78128 15.2095 7.78128 15.1693 7.78128C14.8234 7.78128 14.4775 7.78933 14.1316 7.78933C13.9707 7.78933 13.8178 7.78933 13.657 7.78933C13.5524 7.78933 13.4478 7.78933 13.3352 7.78933C13.1823 7.78129 13.0858 7.78129 12.9732 7.71694C12.9169 7.68476 12.9008 7.64452 12.8928 7.57212C12.8928 7.50777 12.9249 7.41125 12.9491 7.35494C12.9812 7.2745 13.0456 7.16991 13.0778 7.12165C13.3191 6.81597 13.4156 6.74358 13.6167 6.60683C13.8581 6.44594 14.1396 6.33332 14.4131 6.24483C14.4855 6.2207 14.5579 6.20462 14.6384 6.18049C14.6947 6.1644 14.6625 6.14025 14.6384 6.14025C14.5981 6.14025 14.5579 6.14026 14.5257 6.1483C14.4051 6.16439 14.2844 6.18853 14.1637 6.22875C13.8822 6.30919 13.6167 6.42182 13.3593 6.59075C13.1904 6.70337 13.0295 6.84011 12.8928 6.97686C12.7801 7.12165 12.6917 7.22624 12.6112 7.41931C12.5388 7.58019 12.5066 7.77325 12.5147 7.94218C12.5147 7.99044 12.5549 7.97434 12.5549 7.9502C12.5629 7.78932 12.5871 7.65259 12.6675 7.46757C12.7319 7.32277 12.7962 7.21014 12.9169 7.07339C12.9249 7.06534 12.9491 7.04121 12.9571 7.04925C12.9652 7.06534 12.9571 7.07339 12.9491 7.08144C12.941 7.09753 12.9249 7.11361 12.9169 7.1297C12.7721 7.36298 12.6917 7.57215 12.6836 7.82152C12.6836 7.97436 12.6917 8.02262 12.7077 8.11915C12.7158 8.19155 12.7882 8.39265 12.8606 8.51331C12.9652 8.69028 13.126 8.8592 13.2789 8.97987C13.5363 9.18097 13.8983 9.3821 14.4292 9.50276C14.4936 9.51885 14.574 9.53493 14.6464 9.54297C14.6786 9.54297 14.6947 9.51883 14.6464 9.51079C14.5821 9.4947 14.5016 9.47059 14.4453 9.4545C13.9868 9.34188 13.5524 9.10054 13.3352 8.89139C13.2065 8.77073 13.0778 8.63397 12.9973 8.48113C12.941 8.37655 12.8767 8.24785 12.8686 8.13523C12.8686 8.12719 12.8686 8.1272 12.8686 8.11915C12.8847 8.03871 12.9089 7.99043 12.9732 7.9502C13.1019 7.88585 13.2869 7.89391 13.4478 7.88586C13.5604 7.88586 13.673 7.87781 13.7857 7.87781C13.9063 7.87781 14.027 7.87781 14.1396 7.87781C14.4694 7.87781 14.7912 7.86978 15.121 7.86978C15.2095 7.85369 15.2417 7.85368 15.2819 7.85368ZM15.2739 7.74107C15.2336 7.74107 15.2014 7.74107 15.1612 7.74107C14.9279 7.74107 14.6947 7.7491 14.4694 7.7491C14.3085 7.7491 14.1396 7.74912 13.9787 7.74107C13.8339 7.74107 13.6891 7.73301 13.5443 7.72497C13.4076 7.71692 13.2145 7.69279 13.1823 7.6767C13.1582 7.66061 13.1663 7.6365 13.1823 7.62041C13.2145 7.59628 13.2467 7.57214 13.2869 7.5641C13.303 7.55605 13.3271 7.56408 13.3352 7.57212C13.3593 7.59626 13.3754 7.60432 13.4156 7.61236C13.5524 7.64454 13.6489 7.66061 13.8259 7.6767C13.9627 7.68475 14.0914 7.69281 14.2281 7.69281C14.5338 7.70085 14.7188 7.70085 15.1532 7.69281C15.1934 7.69281 15.2256 7.69281 15.2658 7.69281C15.6841 7.69281 15.8691 7.68475 16.1748 7.6767C16.3035 7.66866 16.4403 7.66062 16.577 7.65257C16.754 7.63648 16.8505 7.62041 16.9873 7.58823C17.0195 7.58018 17.0356 7.57213 17.0677 7.54799C17.0838 7.53995 17.0999 7.53192 17.116 7.53996C17.1562 7.55605 17.1884 7.57215 17.2206 7.59628C17.2367 7.61237 17.2447 7.63648 17.2286 7.65257C17.1964 7.6767 17.0114 7.70084 16.8666 7.70889C16.7218 7.71693 16.577 7.72497 16.4322 7.73302C16.2713 7.74106 16.1104 7.74105 15.9415 7.7491C15.7324 7.73301 15.4991 7.73303 15.2739 7.74107ZM15.2739 7.61236C15.7404 7.60432 16.2311 7.61235 16.6896 7.55604C16.9229 7.53191 16.9873 7.41125 16.9953 7.33081C17.0275 7.06535 16.6333 6.7275 16.4242 6.61488C16.1426 6.47009 15.8932 6.34942 15.5634 6.26093C15.5232 6.25289 15.491 6.2046 15.491 6.16438C15.491 6.1322 15.5393 6.092 15.5795 6.07591C15.6841 6.05177 15.7887 6.05981 15.9013 6.06785C16.0783 6.09199 16.2392 6.12417 16.4161 6.17243C16.6414 6.23679 16.8907 6.34942 17.0999 6.48617C17.3814 6.6551 17.6228 6.87228 17.7998 7.15383C17.9204 7.34689 18.0169 7.60432 18.0169 7.81347C18.0169 8.07893 17.9204 8.33634 17.7756 8.56963C17.6388 8.78682 17.4458 8.9638 17.2367 9.12468C17.0436 9.26948 16.8264 9.37404 16.6092 9.46253C16.4161 9.54297 16.215 9.5832 16.0139 9.62342C15.8852 9.64755 15.7565 9.65561 15.6278 9.63147C15.5956 9.62343 15.5393 9.5832 15.5313 9.55103C15.5313 9.5108 15.5554 9.47059 15.5956 9.4545C15.7082 9.42232 15.8852 9.36601 16.0139 9.30166C16.1829 9.22926 16.3518 9.14882 16.5046 9.05229C16.6575 8.94771 16.8023 8.83508 16.8988 8.69029C16.9551 8.60984 17.0114 8.50528 17.0114 8.42484C17.0114 8.37657 17.0114 8.31222 16.9873 8.27199C16.8827 8.11111 16.6092 8.11914 16.4 8.1111C16.207 8.10306 16.03 8.10305 15.837 8.10305C15.6439 8.10305 15.4267 8.10305 15.2336 8.10305C15.0406 8.11109 14.8153 8.11111 14.6303 8.11915C14.4373 8.1272 14.2603 8.12719 14.0672 8.14328C13.8581 8.15133 13.5846 8.15132 13.488 8.31221C13.4639 8.35243 13.4639 8.41678 13.472 8.46505C13.48 8.54549 13.5363 8.65005 13.5926 8.7305C13.6972 8.87529 13.842 8.98791 13.9948 9.08445C14.1477 9.18098 14.3166 9.25339 14.4855 9.32579C14.6142 9.3821 14.7992 9.4384 14.9119 9.47058C14.9521 9.47862 14.9762 9.52688 14.9762 9.56711C14.9762 9.59928 14.9199 9.63951 14.8877 9.64755C14.759 9.67168 14.6303 9.66363 14.5016 9.6395C14.3005 9.60732 14.0914 9.56711 13.8983 9.49471C13.6731 9.41427 13.4559 9.30165 13.2628 9.16489C13.0456 9.01205 12.8525 8.83509 12.7077 8.62594C12.5549 8.4007 12.4503 8.14327 12.4503 7.87781C12.4503 7.66061 12.5388 7.41125 12.6595 7.21015C12.8284 6.9286 13.0697 6.71141 13.3432 6.53443C13.5524 6.39768 13.8018 6.27702 14.027 6.21267C14.1959 6.15636 14.3648 6.12417 14.5338 6.10004C14.6464 6.08395 14.751 6.07591 14.8556 6.10004C14.8877 6.10808 14.944 6.14831 14.944 6.18049C14.944 6.22071 14.9199 6.26897 14.8716 6.27701C14.5418 6.3655 14.2925 6.48616 14.019 6.64704C13.8178 6.75966 13.4237 7.10556 13.4639 7.37102C13.4719 7.45146 13.5443 7.57215 13.7696 7.59628C14.2281 7.6365 14.7268 7.62846 15.1934 7.62041C15.2015 7.62041 15.2336 7.61236 15.2739 7.61236Z" fill="white"/>
<path fill-rule="evenodd" clip-rule="evenodd" d="M21.4115 7.00911V6.808C21.4115 6.77582 21.4678 6.74363 21.5 6.74363H21.9344L22.3688 6.7356C22.409 6.7356 22.4573 6.76777 22.4653 6.79995V7.80548L22.4814 8.81101C22.4814 8.84319 22.4251 8.87538 22.3929 8.87538H21.9585L21.5241 8.8834C21.4839 8.8834 21.4356 8.85124 21.4276 8.81906V8.55359C21.4196 8.48923 21.4115 8.41685 21.4115 8.34445C21.4035 8.25597 21.3391 8.18357 21.2345 8.16748C21.0576 8.16748 20.8726 8.16748 20.6875 8.16748C20.5025 8.16748 20.3175 8.17551 20.1405 8.17551C20.0359 8.19159 19.9635 8.264 19.9635 8.36053C19.9635 8.41684 19.9555 8.47315 19.9555 8.52945L19.9635 8.84319C19.9635 8.87537 19.9072 8.90754 19.8751 8.90754H19.4407L19.0063 8.91559C18.9661 8.91559 18.9178 8.88342 18.9098 8.85124L18.9017 7.84571L18.8856 6.84018C18.8856 6.80801 18.9419 6.77582 18.9741 6.77582H19.4085L19.8429 6.76776C19.8831 6.76776 19.9314 6.79995 19.9394 6.83213V7.21826C19.9555 7.36306 20.1003 7.44349 20.2451 7.43545H20.4543L20.9128 7.4274H21.1219C21.2828 7.43544 21.4356 7.33088 21.4276 7.16195C21.4115 7.08151 21.4115 7.04128 21.4115 7.00911ZM31.6921 6.49426H32.0299H32.2551H32.593C32.7619 6.49426 33.2124 6.52644 33.4216 6.57471C33.7836 6.67124 34.0732 6.85625 34.0812 7.57219V7.6285V7.82158V8.03072C34.0892 8.56164 33.8077 8.7547 33.4457 8.83514C33.2366 8.88341 32.5528 8.93167 32.4884 8.93167H32.2713H32.046H31.8288C31.7644 8.93167 31.0807 8.89951 30.8716 8.85124C30.5096 8.7708 30.228 8.58577 30.22 8.05485V7.84571V7.65264V7.59634C30.2119 6.88041 30.5015 6.68735 30.8635 6.59081C31.0727 6.5345 31.5151 6.49426 31.6921 6.49426ZM32.0299 7.09758H31.9254C31.8449 7.09758 31.5955 7.10563 31.499 7.12976C31.3381 7.17803 31.2496 7.24239 31.2496 7.56416V7.62048V7.65264V7.74916V7.80548V7.81353V7.82158C31.2577 8.10313 31.3462 8.16747 31.499 8.20769C31.5955 8.23182 31.8449 8.23182 31.9254 8.23182H32.0299H32.1023H32.1828H32.2551H32.3597C32.4402 8.23182 32.6895 8.2238 32.7861 8.19966C32.9389 8.1514 33.0274 8.09507 33.0354 7.80548C33.0354 7.79743 33.0354 7.7894 33.0354 7.7894V7.73308V7.63656V7.60437V7.54806C33.0354 7.22629 32.947 7.16193 32.7861 7.12171C32.6895 7.09758 32.4402 7.09758 32.3597 7.09758H32.2551H32.1828H32.1023H32.0299ZM25.6026 7.77329L25.5865 6.76776C25.5865 6.73559 25.6428 6.70342 25.675 6.70342H26.1174L26.5598 6.69537C26.6644 6.69537 26.8494 6.77582 27.0747 6.8804C27.2919 6.97693 27.5332 7.0976 27.6941 7.19413C28.1043 7.45155 28.225 7.47567 28.2813 7.18608L28.2733 6.7356C28.2733 6.70343 28.3296 6.67124 28.3617 6.67124H28.7961L29.2305 6.66321C29.2708 6.66321 29.319 6.69538 29.3271 6.72755L29.3351 7.73308L29.3512 8.73861C29.3512 8.77079 29.2949 8.80298 29.2627 8.80298H28.8042L28.3457 8.81101C28.3054 8.81101 28.2572 8.77884 28.2491 8.74667V8.69035C28.2491 8.48924 27.871 8.27204 27.5573 8.07898C27.0747 7.78134 26.7046 7.58829 26.6805 8.01464C26.6805 8.00659 26.6805 7.99855 26.6805 7.9905L26.6885 8.75469C26.6885 8.78687 26.6322 8.81906 26.6 8.81906H26.1576L25.7152 8.82711C25.675 8.82711 25.6267 8.79492 25.6186 8.76274L25.6026 7.77329ZM28.233 8.67427C28.233 8.68231 28.233 8.69036 28.233 8.6984V8.67427ZM23.495 7.7894L23.4789 6.78387C23.4789 6.75169 23.5352 6.7195 23.5674 6.7195H24.034L24.5005 6.71147C24.5407 6.71147 24.589 6.74364 24.597 6.77582V7.78135L24.6131 8.78688C24.6131 8.81905 24.5568 8.85124 24.5246 8.85124H24.0581L23.5915 8.85927C23.5513 8.85927 23.503 8.82711 23.495 8.79493V7.7894Z" fill="white"/>
<path fill-rule="evenodd" clip-rule="evenodd" d="M31.1849 34.1356C33.5034 34.1672 34.8418 34.1988 35.1895 34.2305C35.2317 36.1906 35.2422 37.1707 35.2422 37.1707C32.6076 37.2972 31.3641 37.3709 31.5011 37.3604C31.0584 35.5794 30.9425 34.515 31.1849 34.1356Z" fill="#E9EAEA"/>
<path fill-rule="evenodd" clip-rule="evenodd" d="M16.3264 34.1356C14.0079 34.1672 12.6695 34.1988 12.3217 34.2305C12.2796 36.1906 12.269 37.1707 12.269 37.1707C14.9037 37.2972 16.1472 37.3709 16.0102 37.3604C16.4528 35.5794 16.5582 34.515 16.3264 34.1356Z" fill="#E9EAEA"/>
<path fill-rule="evenodd" clip-rule="evenodd" d="M23.6782 45.6462C33.6601 45.6462 41.7987 45.3493 41.7987 44.9751C41.7987 44.6008 33.6601 44.304 23.6782 44.304C13.6964 44.304 5.55774 44.6008 5.55774 44.9751C5.55774 45.3493 13.6964 45.6462 23.6782 45.6462Z" fill="black" stroke="black" stroke-width="0.5669" stroke-miterlimit="22.9256"/>
<path fill-rule="evenodd" clip-rule="evenodd" d="M35.0349 34.0604C34.9717 29.9399 34.9401 27.8638 34.9401 27.8427C34.9296 27.1366 34.919 26.7783 34.919 26.7783C34.919 26.6097 34.919 26.5254 34.919 26.5254C34.9717 26.2725 35.0139 26.009 35.0244 25.7139C35.0666 24.9235 35.0033 24.4809 34.8242 24.3861C34.5923 20.2339 34.2656 17.673 33.8336 16.6929C32.864 16.2082 32.2423 15.9552 31.9683 15.9552C31.5889 15.6707 31.2622 15.5337 30.9987 15.5232C26.0772 15.4072 23.6112 15.344 23.6112 15.344C23.6112 15.344 21.1452 15.4072 16.2237 15.5232C15.9602 15.5232 15.6335 15.6707 15.2542 15.9552C14.9801 15.9552 14.3584 16.1976 13.3888 16.6929C12.9568 17.673 12.6301 20.2339 12.3982 24.3861C12.2191 24.4809 12.1558 24.9235 12.198 25.7139C12.2085 26.009 12.2401 26.2725 12.3034 26.5254C12.3034 26.5254 12.3034 26.6097 12.3034 26.7783C12.3034 26.7783 12.2928 27.1261 12.2823 27.8427C12.2823 27.8638 12.2507 29.9399 12.1874 34.0604H35.0349Z" fill="#E9EAEA"/>
<path d="M15.3702 40.1938H12.5564V44.3039H15.3702V40.1938Z" fill="#393A39"/>
<path fill-rule="evenodd" clip-rule="evenodd" d="M12.2717 39.9723C12.2823 40.4465 12.2822 40.9102 12.2822 41.3844C14.4953 41.395 15.6019 41.4055 15.6019 41.4055C15.6019 40.573 15.6019 40.162 15.6019 40.162L12.2717 39.9723Z" fill="black"/>
<path d="M34.6766 40.1938H31.8628V44.3039H34.6766V40.1938Z" fill="#393A39"/>
<path fill-rule="evenodd" clip-rule="evenodd" d="M34.9612 39.9723C34.9506 40.4465 34.9506 40.9102 34.9506 41.3844C32.7375 41.395 31.631 41.4055 31.631 41.4055C31.631 40.573 31.631 40.162 31.631 40.162L34.9612 39.9723Z" fill="black"/>
<path fill-rule="evenodd" clip-rule="evenodd" d="M12.198 34.0603H35.0349C35.0349 33.86 35.0244 33.6598 35.0244 33.4596C34.7926 33.4596 34.5713 33.4701 34.3605 33.4701C33.7598 33.4807 33.254 33.4912 32.8535 33.5017C32.0315 33.5123 31.6205 33.5228 31.6205 33.5228C31.6416 30.9093 31.6521 29.592 31.6521 29.592C31.6416 29.1072 31.4729 28.8648 31.1146 28.8542C29.2177 28.8964 27.2786 28.928 25.3395 28.9386C25.466 29.1283 25.5714 29.3285 25.6557 29.5392C26.9519 29.5182 28.8699 29.4866 31.3992 29.4444C31.4203 30.3929 31.1884 30.8566 30.7142 30.8355C29.8816 30.8671 29.4601 30.8882 29.4601 30.8882C29.4496 30.6142 29.2599 30.4877 28.9016 30.4877C27.4683 30.5088 26.3302 30.5299 25.4765 30.551C25.3395 30.7723 25.1604 30.9725 24.9391 31.1516C24.4964 31.1833 24.0433 31.1938 23.6007 31.2043C23.1475 31.2043 22.6944 31.1833 22.2518 31.1516C22.0304 30.9725 21.8618 30.7723 21.7143 30.551C20.8607 30.5404 19.7225 30.5194 18.2893 30.4877C17.9309 30.4772 17.7518 30.6142 17.7307 30.8882C17.7307 30.8882 17.3092 30.8671 16.4766 30.8355C16.0024 30.8566 15.7811 30.3929 15.7916 29.4444C18.3209 29.4866 20.2283 29.5182 21.5351 29.5392C21.63 29.3285 21.7354 29.1283 21.8513 28.9386C19.9122 28.928 17.9731 28.8964 16.0762 28.8542C15.7284 28.8648 15.5492 29.1177 15.5387 29.592C15.5387 29.592 15.5492 30.8987 15.5703 33.5228C15.5703 33.5228 15.1593 33.5123 14.3373 33.5017C13.9369 33.4912 13.431 33.4807 12.8303 33.4701C12.6195 33.4701 12.3982 33.4596 12.1664 33.4596C12.198 33.6598 12.198 33.86 12.198 34.0603Z" fill="#6A6C6C"/>
<path fill-rule="evenodd" clip-rule="evenodd" d="M31.7153 35.2825C31.7153 35.2825 31.7153 34.998 31.7259 34.4395C33.0853 34.3868 34.1919 34.2603 35.035 34.0601H12.198C13.0516 34.2708 14.1581 34.3973 15.5071 34.4395C15.5071 34.998 15.5176 35.2825 15.5176 35.2825C15.6652 35.5249 15.7179 35.8411 15.6757 36.2415C17.0352 36.2942 18.3209 36.3048 19.5222 36.2837C22.2096 36.368 25.0023 36.368 27.7001 36.2837C28.9015 36.3048 30.1872 36.2942 31.5467 36.2415C31.5151 35.8411 31.5783 35.5249 31.7153 35.2825Z" fill="#6A6C6C"/>
<path fill-rule="evenodd" clip-rule="evenodd" d="M30.6298 40.4255C32.864 40.5415 34.3078 40.3939 34.9612 39.9618C35.0244 39.73 35.0455 39.4981 35.0138 39.2768C35.6356 39.0028 35.3933 36.6 35.3933 36.0099C32.5479 36.2312 29.987 36.326 27.7001 36.2734C25.0128 36.3577 22.2201 36.3577 19.5222 36.2734C17.2354 36.3155 14.6745 36.2312 11.8291 36.0099C11.8291 36.6 11.5867 39.0028 12.2085 39.2768C12.1769 39.4981 12.1874 39.73 12.2612 39.9618C12.9146 40.3834 14.3583 40.5415 16.5925 40.4255C21.1241 40.6047 26.1088 40.6047 30.6298 40.4255Z" fill="#788482"/>
<path fill-rule="evenodd" clip-rule="evenodd" d="M23.6217 24.976C21.219 24.9971 17.9099 24.9127 13.7155 24.7336C13.4521 24.7125 13.3045 24.5334 13.2729 24.1751C12.9357 21.7617 13.157 19.3062 13.8947 16.9878C14.0317 16.8508 14.2424 16.7876 14.5164 16.777C20.5866 16.7033 23.6217 16.6716 23.6217 16.6716C23.6217 16.6716 26.6568 16.7033 32.727 16.777C33.001 16.7876 33.2118 16.8613 33.3488 16.9878C34.0865 19.3062 34.3078 21.7617 33.9706 24.1751C33.939 24.5334 33.7914 24.7125 33.5279 24.7336C29.3231 24.9127 26.0245 24.9971 23.6217 24.976Z" fill="#2B253B"/>
<path fill-rule="evenodd" clip-rule="evenodd" d="M14.3689 33.5016C14.3583 33.0063 13.7155 31.8997 12.4509 30.1714C12.3244 31.6784 12.3771 32.7006 12.6089 33.2486C12.7354 33.3646 12.8197 33.4383 12.8619 33.4699L14.3689 33.5016Z" fill="#FEC900"/>
<path fill-rule="evenodd" clip-rule="evenodd" d="M16.7822 40.4362C17.1511 41.4162 18.3103 41.8483 20.2494 41.7219C22.4308 41.7219 23.5479 41.7219 23.6112 41.7219C23.6744 41.7219 24.7915 41.7219 26.973 41.7219C28.912 41.8378 30.0713 41.4162 30.4401 40.4362H16.7822Z" fill="#393A39"/>
<path fill-rule="evenodd" clip-rule="evenodd" d="M20.1019 40.4993H23.4321H23.6112H27.3103V41.9114H23.6112H23.4321H20.1019V40.4993Z" fill="black"/>
<path fill-rule="evenodd" clip-rule="evenodd" d="M15.1488 30.0766C15.1488 30.0766 15.1593 31.1094 15.1699 33.1855C15.1699 33.1855 15.0329 33.059 14.7694 32.7955C14.7694 32.7955 14.7272 31.4571 14.6535 28.7698C14.6535 27.6844 13.7577 27.3893 12.9568 26.8834C13.6629 27.0942 14.3057 27.3576 14.8853 27.6633C15.1066 28.0005 15.2015 28.3904 15.1804 28.7909L15.1488 30.0766Z" fill="#D4D5D5"/>
<path d="M11.1653 18.1681H9.58447V22.0989H11.1653V18.1681Z" fill="#010101"/>
<path d="M11.1653 22.3521H9.58447V23.6588H11.1653V22.3521Z" fill="#010101"/>
<path fill-rule="evenodd" clip-rule="evenodd" d="M12.9567 17.968C12.8619 17.8099 12.7038 17.6834 12.493 17.5886C12.2717 17.4832 11.9872 17.4094 11.65 17.3673C11.4603 17.3568 11.2706 17.3567 11.0914 17.3567C10.9122 17.3567 10.7331 17.3673 10.554 17.3778C10.4907 17.42 10.4696 17.4832 10.4696 17.5675L10.3221 23.9433C10.3432 24.0066 10.3959 24.0487 10.4802 24.0909C10.575 24.1436 10.712 24.1752 10.8912 24.1963L12.9251 24.1857V24.4281L10.8701 24.4492C10.6593 24.4281 10.4907 24.3754 10.3643 24.3122C10.2273 24.2384 10.1324 24.133 10.0903 24.0065L10.0797 23.9855L10.2273 17.5781C10.2167 17.3778 10.301 17.2303 10.4591 17.146L10.4802 17.1354H10.5012C10.6909 17.1249 10.8807 17.1144 11.0809 17.1144C11.2706 17.1144 11.4708 17.1144 11.6605 17.1249H11.671C12.0399 17.1776 12.3455 17.2514 12.5879 17.3673C12.8408 17.4832 13.0305 17.6413 13.1464 17.8415L12.9567 17.968Z" fill="#010101"/>
<path fill-rule="evenodd" clip-rule="evenodd" d="M23.6218 38.054C23.6218 38.054 25.993 38.0224 30.7248 37.9697C32.5901 37.9908 33.4226 37.5482 33.2224 36.6418C29.829 36.7999 26.6147 36.8737 23.6113 36.8737C20.6078 36.8737 17.4041 36.7999 14.0107 36.6418C13.8105 37.5482 14.643 37.9908 16.5083 37.9697C21.2506 38.0224 23.6218 38.054 23.6218 38.054Z" fill="#2B253B"/>
<path fill-rule="evenodd" clip-rule="evenodd" d="M23.6217 30.6035C23.6217 30.6035 25.3922 30.5719 28.9226 30.5086C29.2809 30.4981 29.46 30.6351 29.4811 30.9091C29.4811 30.9091 29.9027 30.888 30.7352 30.8564C31.2094 30.8775 31.4307 30.4138 31.4202 29.4653C26.2247 29.5496 23.6323 29.5918 23.6323 29.5918C23.6323 29.5918 21.0292 29.5496 15.8337 29.4653C15.8232 30.4138 16.0445 30.8775 16.5188 30.8564C17.3513 30.888 17.7728 30.9091 17.7728 30.9091C17.7834 30.6351 17.9731 30.5086 18.3314 30.5086C21.8513 30.5719 23.6217 30.6035 23.6217 30.6035Z" fill="#E9EAEA"/>
<path fill-rule="evenodd" clip-rule="evenodd" d="M32.864 33.5016C32.8746 33.0063 33.5174 31.8997 34.782 30.1714C34.9085 31.6784 34.8558 32.7006 34.624 33.2486C34.4975 33.3646 34.4132 33.4383 34.371 33.4699L32.864 33.5016Z" fill="#FEC900"/>
<path fill-rule="evenodd" clip-rule="evenodd" d="M32.0842 30.0766C32.0842 30.0766 32.0736 31.1094 32.0631 33.1855C32.0631 33.1855 32.2001 33.059 32.4636 32.7955C32.4636 32.7955 32.5057 31.4571 32.5795 28.7698C32.5795 27.6844 33.4752 27.3893 34.2762 26.8834C33.5701 27.0942 32.9272 27.3576 32.3476 27.6633C32.1263 28.0005 32.0315 28.3904 32.0525 28.7909L32.0842 30.0766Z" fill="#D4D5D5"/>
<path d="M37.6485 18.1681H36.0677V22.0989H37.6485V18.1681Z" fill="#010101"/>
<path d="M37.6485 22.3521H36.0677V23.6588H37.6485V22.3521Z" fill="#010101"/>
<path fill-rule="evenodd" clip-rule="evenodd" d="M34.2761 17.968C34.371 17.8099 34.529 17.6834 34.7398 17.5886C34.9611 17.4832 35.2457 17.4094 35.5829 17.3673C35.7726 17.3568 35.9623 17.3567 36.1414 17.3567C36.3206 17.3567 36.4998 17.3673 36.6789 17.3778C36.7422 17.42 36.7632 17.4832 36.7632 17.5675L36.9107 23.9433C36.8897 24.0066 36.837 24.0487 36.7527 24.0909C36.6578 24.1436 36.5208 24.1752 36.3417 24.1963L34.3078 24.1857V24.4281L36.3627 24.4492C36.5735 24.4281 36.7421 24.3754 36.8686 24.3122C37.0056 24.2384 37.1004 24.133 37.1426 24.0065L37.1531 23.9855L37.0056 17.5781C37.0162 17.3778 36.9318 17.2303 36.7738 17.146L36.7527 17.1354H36.7316C36.5419 17.1249 36.3522 17.1144 36.152 17.1144C35.9623 17.1144 35.7621 17.1144 35.5724 17.1249H35.5618C35.193 17.1776 34.8874 17.2514 34.645 17.3673C34.392 17.4832 34.2023 17.6413 34.0864 17.8415L34.2761 17.968Z" fill="#010101"/>
<path fill-rule="evenodd" clip-rule="evenodd" d="M23.6217 33.1224C23.6217 33.1224 25.3922 33.0907 28.9226 33.0275C29.2809 33.0169 29.46 33.154 29.4811 33.4174C29.4811 33.4174 29.9027 33.3963 30.7352 33.3647C31.2094 33.3858 31.4307 32.9221 31.4202 31.9736C26.2247 32.0579 23.6323 32.1001 23.6323 32.1001C23.6323 32.1001 21.0292 32.0579 15.8337 31.9736C15.8232 32.9221 16.0445 33.3858 16.5188 33.3647C17.3513 33.3963 17.7728 33.4174 17.7728 33.4174C17.7834 33.1434 17.9731 33.0169 18.3314 33.0275C21.8513 33.0907 23.6217 33.1224 23.6217 33.1224Z" fill="#E9EAEA"/>
<path fill-rule="evenodd" clip-rule="evenodd" d="M23.6217 35.5251C23.6217 35.5251 25.3922 35.4934 28.9226 35.4302C29.2809 35.4197 29.46 35.5461 29.4811 35.8201C29.4811 35.8201 29.9027 35.7991 30.7352 35.7674C31.2094 35.7885 31.4307 35.3248 31.4202 34.3763C26.2247 34.4607 23.6323 34.5028 23.6323 34.5028C23.6323 34.5028 21.0292 34.4607 15.8337 34.3763C15.8232 35.3248 16.0445 35.7885 16.5188 35.7674C17.3513 35.7991 17.7728 35.8201 17.7728 35.8201C17.7834 35.5461 17.9731 35.4197 18.3314 35.4302C21.8513 35.4934 23.6217 35.5251 23.6217 35.5251Z" fill="#E9EAEA"/>
<path fill-rule="evenodd" clip-rule="evenodd" d="M23.6218 31.2254C23.1686 31.2254 22.7155 31.2044 22.2729 31.1727C21.8408 30.8144 21.5668 30.3823 21.4403 29.866C21.6511 29.2126 21.9988 28.6751 22.4942 28.2536C22.4942 28.2536 22.8736 28.2536 23.6218 28.243C24.37 28.2536 24.7389 28.2536 24.7389 28.2536C25.2236 28.6751 25.582 29.2126 25.7927 29.866C25.6663 30.3823 25.3922 30.8144 24.9602 31.1727C24.5176 31.2044 24.0644 31.2149 23.6218 31.2254Z" fill="#2B253B"/>
<path fill-rule="evenodd" clip-rule="evenodd" d="M15.5387 38.4549C13.5364 38.613 11.8608 38.8026 12.2191 36.442C12.609 36.4842 12.9884 36.5474 13.3678 36.6106C16.2659 37.0216 16.0235 38.5076 15.5387 38.4549Z" fill="white"/>
<path fill-rule="evenodd" clip-rule="evenodd" d="M31.6942 38.4549C33.6965 38.613 35.3616 38.8026 35.0139 36.442C34.6239 36.4842 34.2445 36.5474 33.8652 36.6106C30.9671 37.0216 31.2095 38.5076 31.6942 38.4549Z" fill="white"/>
<path fill-rule="evenodd" clip-rule="evenodd" d="M23.6745 29.7393C23.8747 29.7393 24.0644 29.7393 24.2646 29.7393C24.3384 29.7393 24.4122 29.7393 24.486 29.7393C24.5597 29.7393 24.6229 29.7393 24.6967 29.7393C24.7916 29.7393 24.9075 29.7393 24.9918 29.7709C25.0339 29.792 25.055 29.8236 25.055 29.8763V29.8869C25.055 29.9606 25.0129 30.0344 24.9813 30.1082C24.9391 30.203 24.8548 30.2873 24.781 30.3611C24.644 30.4875 24.3806 30.6457 24.1066 30.7194C24.0644 30.73 24.0222 30.7405 23.9801 30.751C23.9485 30.7616 23.959 30.7721 23.9801 30.7721C24.0222 30.7721 24.0749 30.751 24.1171 30.751C24.4438 30.6667 24.6651 30.5403 24.8232 30.4138C24.918 30.34 25.0129 30.2346 25.0761 30.1187C25.1183 30.0449 25.1604 29.9185 25.171 29.8763C25.1815 29.8131 25.1815 29.792 25.1815 29.6972C25.171 29.5391 25.1288 29.4126 25.0339 29.2756C25.0234 29.2651 25.0234 29.2545 25.0129 29.244C25.0129 29.244 25.0023 29.2335 25.0129 29.2229C25.0234 29.2229 25.034 29.2335 25.0445 29.2335C25.1183 29.3178 25.1604 29.381 25.2026 29.4759C25.2553 29.5918 25.2658 29.6761 25.2763 29.7709C25.2763 29.792 25.2974 29.8025 25.2974 29.7709C25.2974 29.6655 25.2763 29.5496 25.2342 29.4548C25.1815 29.3389 25.1288 29.2756 25.055 29.1913C24.9707 29.107 24.8653 29.0227 24.7705 28.9595C24.6124 28.8541 24.4543 28.7908 24.2752 28.7487C24.2014 28.7276 24.1276 28.7171 24.0539 28.7066C24.0328 28.7066 24.0012 28.7066 23.9801 28.7066C23.959 28.7066 23.9485 28.7276 23.9801 28.7276C24.0222 28.7382 24.0749 28.7487 24.1171 28.7592C24.2857 28.8119 24.4649 28.8752 24.6124 28.97C24.7389 29.0543 24.8021 29.0965 24.9497 29.2756C24.9707 29.3072 25.0129 29.3599 25.0339 29.4126C25.0445 29.4442 25.0761 29.5075 25.0761 29.5496C25.0761 29.5918 25.0656 29.6234 25.0339 29.6339C24.9707 29.6761 24.9075 29.6761 24.8126 29.6866C24.7494 29.6866 24.6862 29.6866 24.6124 29.6972C24.5176 29.6972 24.4227 29.6972 24.3279 29.7077C24.1171 29.7077 23.9063 29.7182 23.7061 29.7182C23.685 29.7182 23.6639 29.7182 23.6429 29.7182C23.4321 29.7182 23.2213 29.7182 23 29.7182C22.9052 29.7182 22.8103 29.7182 22.7155 29.7182C22.6523 29.7182 22.589 29.7182 22.5153 29.7182C22.4204 29.7182 22.3572 29.7182 22.2939 29.6761C22.2623 29.655 22.2518 29.6339 22.2412 29.5918C22.2412 29.5496 22.2623 29.4969 22.2729 29.4548C22.2939 29.4021 22.3361 29.3389 22.3466 29.3178C22.4942 29.1281 22.5574 29.0859 22.6838 29.0016C22.8314 28.9068 23 28.833 23.1792 28.7803C23.2213 28.7698 23.274 28.7593 23.3162 28.7382C23.3478 28.7276 23.3372 28.7171 23.3162 28.7171C23.2951 28.7171 23.2635 28.7171 23.2424 28.7171C23.1686 28.7276 23.0949 28.7487 23.0211 28.7592C22.8419 28.8119 22.6839 28.8752 22.5258 28.9805C22.4204 29.0438 22.3256 29.1281 22.2412 29.2229C22.1675 29.3072 22.1148 29.3705 22.0726 29.4969C22.0305 29.6023 22.0094 29.7077 22.0199 29.8236C22.0199 29.8553 22.041 29.8447 22.041 29.8236C22.0515 29.7183 22.0621 29.6445 22.1148 29.5286C22.1569 29.4443 22.1991 29.3705 22.2729 29.2862C22.2834 29.2756 22.2939 29.2651 22.3045 29.2756C22.3045 29.2862 22.3045 29.2862 22.3045 29.2967C22.2939 29.3073 22.2939 29.3178 22.2834 29.3283C22.1991 29.4759 22.1464 29.6023 22.1359 29.7604C22.1359 29.8553 22.1464 29.8869 22.1464 29.9395C22.1569 29.9817 22.1991 30.1082 22.2412 30.1819C22.3045 30.2873 22.3993 30.3927 22.4942 30.4665C22.6522 30.5929 22.8736 30.7194 23.2003 30.7932C23.2424 30.8037 23.2951 30.8143 23.3373 30.8143C23.3583 30.8143 23.3689 30.8037 23.3373 30.7932C23.2951 30.7826 23.2529 30.7721 23.2108 30.7616C22.9262 30.6878 22.6628 30.5403 22.5258 30.4138C22.4415 30.34 22.3677 30.2557 22.315 30.1608C22.2834 30.0976 22.2412 30.0133 22.2307 29.9501V29.9395C22.2412 29.8869 22.2518 29.8552 22.2939 29.8342C22.3782 29.792 22.4836 29.8026 22.589 29.792C22.6628 29.792 22.726 29.792 22.7998 29.792C22.8736 29.792 22.9473 29.792 23.0211 29.792C23.2213 29.792 23.4216 29.792 23.6218 29.7815C23.6323 29.7393 23.6534 29.7393 23.6745 29.7393ZM23.6745 29.6656C23.6534 29.6656 23.6323 29.6656 23.6007 29.6656C23.4532 29.6656 23.3162 29.6656 23.1792 29.6656C23.0843 29.6656 22.9789 29.6656 22.8841 29.6656C22.7998 29.6656 22.7049 29.6656 22.6206 29.655C22.5363 29.655 22.4204 29.6339 22.3993 29.6234C22.3888 29.6129 22.3888 29.6023 22.3993 29.5918C22.4204 29.5813 22.4415 29.5602 22.4625 29.5602C22.4731 29.5602 22.4836 29.5602 22.4942 29.5602C22.5152 29.5707 22.5258 29.5812 22.5469 29.5812C22.6312 29.6023 22.6944 29.6129 22.7998 29.6234C22.8841 29.6339 22.9684 29.6339 23.0422 29.6339C23.2319 29.6339 23.3478 29.6339 23.6112 29.6339C23.6323 29.6339 23.6534 29.6339 23.685 29.6339C23.9485 29.6339 24.0539 29.6339 24.2436 29.6234C24.3279 29.6234 24.4122 29.6129 24.486 29.6129C24.5913 29.6023 24.6546 29.5918 24.7389 29.5707C24.7599 29.5602 24.7705 29.5602 24.781 29.5496C24.7916 29.5391 24.8021 29.5391 24.8126 29.5391C24.8337 29.5496 24.8548 29.5602 24.8759 29.5707C24.8864 29.5812 24.897 29.5918 24.8759 29.6023C24.8548 29.6128 24.7389 29.6339 24.6546 29.6339C24.5597 29.6445 24.4754 29.6445 24.3911 29.6445C24.2963 29.6445 24.1909 29.655 24.096 29.655C23.9485 29.6656 23.8115 29.6656 23.6745 29.6656ZM23.664 29.5918C23.9485 29.5918 24.2541 29.5918 24.5281 29.5602C24.6651 29.5391 24.7073 29.4653 24.7178 29.4232C24.7389 29.2651 24.4965 29.0543 24.37 28.9805C24.2014 28.8857 24.0433 28.8225 23.8431 28.7698C23.822 28.7592 23.801 28.7382 23.801 28.7066C23.801 28.6855 23.8326 28.6644 23.8536 28.6538C23.9169 28.6433 23.9801 28.6433 24.0539 28.6538C24.1593 28.6644 24.2646 28.6855 24.37 28.7171C24.507 28.7592 24.6651 28.8225 24.7915 28.9068C24.9602 29.0122 25.1077 29.1492 25.2236 29.3178C25.2974 29.4337 25.3606 29.5918 25.3606 29.7288C25.3606 29.8869 25.2974 30.0555 25.2131 30.1925C25.1288 30.3295 25.0129 30.4349 24.8759 30.5297C24.76 30.614 24.623 30.6878 24.486 30.7405C24.37 30.7826 24.2436 30.8143 24.1171 30.8353C24.0328 30.8459 23.959 30.8564 23.8747 30.8459C23.8536 30.8459 23.822 30.8142 23.822 30.7932C23.822 30.7721 23.8326 30.7405 23.8642 30.7299C23.9274 30.7089 24.0433 30.6772 24.1276 30.6351C24.233 30.5929 24.3384 30.5403 24.4227 30.477C24.5176 30.4138 24.6019 30.34 24.6651 30.2557C24.6967 30.203 24.7283 30.1398 24.7389 30.0871C24.7389 30.0555 24.7389 30.0239 24.7283 29.9923C24.6651 29.8974 24.4965 29.8974 24.37 29.8974C24.2541 29.8974 24.1382 29.8974 24.0223 29.8869C23.9063 29.8869 23.7693 29.8869 23.6534 29.8869C23.5375 29.8869 23.4005 29.8868 23.2845 29.8974C23.1686 29.8974 23.0527 29.9079 22.9368 29.9079C22.8103 29.9185 22.6417 29.9079 22.5785 30.0133C22.5679 30.0344 22.5679 30.0766 22.5679 30.1082C22.5679 30.1609 22.6101 30.2241 22.6417 30.2662C22.7049 30.3505 22.7998 30.4243 22.8841 30.4876C22.9789 30.5508 23.0843 30.5929 23.1897 30.6351C23.274 30.6667 23.3794 30.6983 23.4532 30.7194C23.4742 30.73 23.4953 30.751 23.4953 30.7721C23.4953 30.7932 23.4637 30.8142 23.4426 30.8248C23.3583 30.8353 23.2846 30.8353 23.2003 30.8248C23.0738 30.8037 22.9473 30.7826 22.8314 30.7299C22.6944 30.6772 22.5574 30.614 22.4415 30.5297C22.3045 30.4349 22.1885 30.3295 22.1042 30.1925C22.0094 30.0555 21.9462 29.8974 21.9462 29.7288C21.9462 29.5918 21.9989 29.4442 22.0726 29.3178C22.178 29.1492 22.3255 29.0122 22.4942 28.9068C22.6206 28.8225 22.7787 28.7487 22.9157 28.7066C23.0211 28.6749 23.1265 28.6539 23.2319 28.6328C23.2951 28.6222 23.3689 28.6222 23.4321 28.6328C23.4532 28.6328 23.4848 28.6644 23.4848 28.6855C23.4848 28.7065 23.4637 28.7382 23.4426 28.7487C23.2424 28.8014 23.0843 28.8752 22.9157 28.97C22.7892 29.0438 22.5469 29.2545 22.5679 29.4126C22.5785 29.4653 22.6101 29.5391 22.7576 29.5496C23.0422 29.5812 23.3478 29.5707 23.6323 29.5707C23.6218 29.5918 23.6429 29.5918 23.664 29.5918Z" fill="#D4D5D5"/>
</svg>
