<svg width="48" height="48" viewBox="0 0 48 48" fill="none" xmlns="http://www.w3.org/2000/svg">
<path d="M24 48C37.2548 48 48 37.2548 48 24C48 10.7452 37.2548 0 24 0C10.7452 0 0 10.7452 0 24C0 37.2548 10.7452 48 24 48Z" fill="#C9CACA"/>
<path fill-rule="evenodd" clip-rule="evenodd" d="M10.6077 8.39868H37.3921C40.1008 8.39868 42.3101 10.608 42.3101 13.3167V40.1011C42.3101 42.8098 40.1008 45.0191 37.3921 45.0191H10.6077C7.89903 45.0191 5.6897 42.8098 5.6897 40.1011V13.3167C5.6897 10.608 7.89903 8.39868 10.6077 8.39868Z" fill="#E6E6E6"/>
<path fill-rule="evenodd" clip-rule="evenodd" d="M27.9343 15.5859H41.1752H42.3101V10.8192C42.3101 9.6237 41.8864 8.53416 41.1752 7.68675C40.6607 7.06632 39.9949 6.56695 39.2383 6.2643C38.6632 6.03731 38.0428 5.90112 37.4072 5.90112H24.0151H10.6229C9.97218 5.90112 9.35175 6.02218 8.79185 6.2643C8.03523 6.56695 7.3694 7.06632 6.8549 7.68675C6.14368 8.53416 5.71997 9.63883 5.71997 10.8192V15.5859H6.8549H20.0958H24.0302H27.9646H27.9343Z" fill="black"/>
<path fill-rule="evenodd" clip-rule="evenodd" d="M33.0794 18.583H24.1513H23.7578H14.8146V31.5515H23.7578H24.1513H33.0794V18.583Z" fill="#FB0000"/>
<path fill-rule="evenodd" clip-rule="evenodd" d="M15.6772 26.1647C15.6318 25.4988 15.7226 24.2126 15.9344 22.3059C16.1009 22.3059 16.1917 22.3059 16.1917 22.3059C16.0101 25.06 15.9193 26.4371 15.9193 26.4371L15.6772 26.1647Z" fill="#404040"/>
<path fill-rule="evenodd" clip-rule="evenodd" d="M30.0831 41.3723V37.3623V37.0596C30.1134 37.0596 30.1285 37.0596 30.1588 37.0596C30.7489 37.0596 31.3391 37.0445 31.9293 37.0445C32.3378 36.7267 32.5951 36.2122 32.701 35.4858H32.7615C32.7918 35.5464 32.8372 35.5918 32.8977 35.6069V41.3572H30.0831V41.3723ZM17.8107 37.0747V37.3774V41.3875H14.9961V35.6372C15.0415 35.6069 15.0869 35.5615 15.1323 35.5161H15.1928C15.2987 36.2425 15.556 36.757 15.9646 37.0747C16.5547 37.0899 17.1449 37.0899 17.7351 37.0899C17.7653 37.0899 17.7805 37.0899 17.8107 37.0899V37.0747Z" fill="#404040"/>
<path fill-rule="evenodd" clip-rule="evenodd" d="M23.9093 38.8149C22.3052 38.8149 20.7163 38.7695 19.1274 38.6939C18.507 38.4669 18.0379 37.9826 17.826 37.3622V37.0596C19.8689 37.0747 21.9118 37.0747 23.9698 37.0444C26.0127 37.0747 28.0556 37.0747 30.1136 37.0596V37.3622C29.9017 37.9675 29.4326 38.4669 28.8122 38.6939C27.193 38.7695 25.5587 38.8149 23.9395 38.8149H23.9093Z" fill="#292827"/>
<path fill-rule="evenodd" clip-rule="evenodd" d="M28.1311 35.1224C25.3467 35.0921 22.5472 35.0921 19.7628 35.1224C19.6569 35.1072 19.3845 35.5764 18.976 36.4994C19.3694 36.0606 19.6872 35.8336 19.9142 35.8487C22.5926 35.8336 25.2862 35.8336 27.9646 35.8487C28.2067 35.8487 28.5094 36.0606 28.9028 36.4994C28.4942 35.5764 28.2219 35.1072 28.1159 35.1224H28.1311ZM32.6557 33.8815C32.7313 34.0631 32.7616 34.3658 32.7767 34.7592C32.7767 34.9862 32.7616 35.1829 32.7313 35.3796C32.7313 35.4099 32.7162 35.4402 32.7162 35.4704C32.6103 36.1968 32.353 36.7113 31.9444 37.0291C31.3543 37.0442 30.7641 37.0442 30.1739 37.0442C30.1437 37.0442 30.1285 37.0442 30.0983 37.0442C28.0554 37.0593 26.0125 37.0593 23.9545 37.0291C21.9116 37.0593 19.8688 37.0593 17.8108 37.0442C17.7805 37.0442 17.7654 37.0442 17.7351 37.0442C17.1449 37.0442 16.5548 37.0291 15.9646 37.0291C15.556 36.7113 15.2988 36.1968 15.1929 35.4704C15.1929 35.4402 15.1777 35.4099 15.1777 35.3796C15.1475 35.1829 15.1323 34.9862 15.1323 34.7592C15.1323 34.3506 15.1777 34.0631 15.2534 33.8815C15.3139 33.7151 15.4198 33.6394 15.5409 33.6394C16.4942 33.8059 17.3871 33.9572 18.2193 34.048C19.324 34.1842 20.3379 34.2598 21.2307 34.2598C22.7591 34.2598 23.6519 34.2598 23.9243 34.2598C23.9243 34.2598 24.8473 34.2598 26.7086 34.2598C27.6014 34.2598 28.6002 34.1842 29.72 34.048C30.5522 33.9421 31.4451 33.8059 32.3984 33.6394C32.5195 33.6394 32.6103 33.7151 32.6859 33.8815H32.6557ZM30.0831 35.7882C31.2635 35.7277 31.8536 35.6974 31.8536 35.6974C31.9293 35.652 32.005 35.5764 32.0655 35.4856C32.1109 35.4099 32.1714 35.304 32.2017 35.198C32.5195 34.4414 32.3833 34.1085 31.7931 34.1993C30.6128 34.3204 29.9167 34.4566 29.7048 34.5927C29.5232 34.6987 29.3871 34.8803 29.3719 35.0921C29.6897 35.5764 29.841 35.8033 29.841 35.8033C29.9167 35.8033 29.9924 35.7882 30.068 35.7882H30.0831ZM15.8284 35.4704C15.8889 35.5612 15.9646 35.6369 16.0403 35.6823C16.0403 35.6823 16.6304 35.7125 17.8108 35.7731C17.8864 35.7731 17.9621 35.7882 18.0377 35.7882C18.0377 35.7882 18.1891 35.5461 18.5069 35.077C18.4766 34.8651 18.3555 34.6835 18.1739 34.5776C17.9772 34.4263 17.2811 34.3052 16.0857 34.1842C15.4955 34.0934 15.3593 34.4263 15.6771 35.1829C15.7225 35.2888 15.7679 35.3948 15.8133 35.4704H15.8284Z" fill="#404040"/>
<path fill-rule="evenodd" clip-rule="evenodd" d="M30.0832 35.8039C30.0075 35.8039 29.9319 35.8191 29.8562 35.8191C29.8562 35.8191 29.7049 35.577 29.3871 35.1078C29.4173 34.896 29.5384 34.7144 29.72 34.6085C29.9167 34.4572 30.6128 34.3361 31.8083 34.215C32.3984 34.1242 32.5195 34.4572 32.2168 35.2138C32.1714 35.3197 32.1261 35.4256 32.0807 35.5013C32.0201 35.5921 31.9445 35.6677 31.8688 35.7131C31.8688 35.7131 31.2786 35.7434 30.0983 35.8039H30.0832Z" fill="#FEFEFE"/>
<path fill-rule="evenodd" clip-rule="evenodd" d="M15.8285 35.4859C15.7831 35.4102 15.7226 35.3043 15.6923 35.1984C15.3746 34.4418 15.5108 34.1089 16.1009 34.1997C17.2813 34.3207 17.9773 34.4569 18.1892 34.5931C18.3708 34.699 18.507 34.8806 18.5221 35.0925C18.2043 35.5767 18.053 35.8037 18.053 35.8037C17.9773 35.8037 17.9017 35.7886 17.826 35.7886C16.6457 35.728 16.0555 35.6978 16.0555 35.6978C15.9799 35.6524 15.9042 35.5767 15.8437 35.4859H15.8285Z" fill="#FEFEFE"/>
<path fill-rule="evenodd" clip-rule="evenodd" d="M18.9761 36.4996C19.3846 35.5765 19.657 35.1074 19.763 35.1226C22.5473 35.0923 25.3468 35.0923 28.1312 35.1226C28.2371 35.1074 28.5095 35.5765 28.9181 36.4996C28.5246 36.0608 28.2068 35.8338 27.9799 35.8489C25.3014 35.8338 22.6079 35.8338 19.9294 35.8489C19.6873 35.8489 19.3846 36.0608 18.9912 36.4996H18.9761Z" fill="#6D6E6E"/>
<path fill-rule="evenodd" clip-rule="evenodd" d="M22.9104 32.3987C22.638 32.202 22.4261 31.9296 22.3051 31.627C20.2319 31.6118 19.2029 31.5967 19.2029 31.5967C19.2029 31.8388 19.2332 32.0961 19.2786 32.3533L22.9255 32.3987H22.9104ZM17.5384 31.5513C17.4476 31.2184 17.3568 30.8552 17.2509 30.4618C18.416 30.6131 20.1714 30.6585 22.5169 30.6282C23.2584 29.7808 24.6355 29.7808 25.377 30.6282C27.7225 30.6736 29.4778 30.6131 30.643 30.4618C30.5371 30.8552 30.4463 31.2184 30.3555 31.5513C29.9167 33.231 29.6897 34.0633 29.6897 34.0633C28.585 34.1995 27.5712 34.2752 26.6783 34.2752C25.15 34.2752 24.2572 34.2752 23.9848 34.2752C23.9848 34.2752 23.0617 34.2752 21.2004 34.2752C20.3076 34.2752 19.3089 34.1995 18.1891 34.0633C18.1891 34.0633 17.9621 33.231 17.5232 31.5513H17.5384ZM28.3883 33.1554C26.6935 33.1705 25.2256 33.1705 23.9545 33.1554C22.6985 33.1705 21.2155 33.1705 19.5207 33.1554C19.4753 33.3067 19.5056 33.5337 19.5964 33.806C21.0794 33.8514 22.5321 33.8666 23.9545 33.8666C25.377 33.8817 26.8297 33.8514 28.3126 33.806C28.4034 33.5337 28.4186 33.3067 28.3883 33.1554ZM25.6039 31.627C25.4678 31.9296 25.2559 32.202 24.9986 32.3987L28.6456 32.3533C28.691 32.0961 28.7212 31.8388 28.7212 31.5967C28.7212 31.5967 27.6922 31.6118 25.6191 31.627H25.6039Z" fill="#6D6E6E"/>
<path fill-rule="evenodd" clip-rule="evenodd" d="M24.9988 32.3987C25.2712 32.202 25.483 31.9296 25.6041 31.6269C27.6772 31.6118 28.7062 31.5967 28.7062 31.5967C28.7062 31.8388 28.676 32.0961 28.6306 32.3533L24.9836 32.3987H24.9988Z" fill="#404040"/>
<path fill-rule="evenodd" clip-rule="evenodd" d="M22.3051 31.6269C22.4413 31.9296 22.6532 32.202 22.9104 32.3987L19.2635 32.3533C19.2181 32.0961 19.1879 31.8388 19.1879 31.5967C19.1879 31.5967 20.2169 31.6118 22.29 31.6269H22.3051Z" fill="#404040"/>
<path fill-rule="evenodd" clip-rule="evenodd" d="M19.5208 33.156C21.2156 33.1711 22.6834 33.1711 23.9546 33.156C25.2105 33.1711 26.6935 33.1711 28.3884 33.156C28.4337 33.3073 28.4035 33.5343 28.3127 33.8067C26.8297 33.8521 25.377 33.8672 23.9546 33.8672C22.5321 33.8824 21.0794 33.8521 19.5964 33.8067C19.5056 33.5343 19.4905 33.3073 19.5208 33.156Z" fill="#404040"/>
<path fill-rule="evenodd" clip-rule="evenodd" d="M16.7516 32.3837C17.0997 32.7922 17.2813 33.1403 17.2661 33.4429C16.3582 33.4581 15.7983 33.337 15.6016 33.0798C15.4805 32.6409 15.5713 32.2626 15.8437 31.96C16.4338 32.2323 16.7365 32.3837 16.7365 32.3837H16.7516Z" fill="#FEC900"/>
<path fill-rule="evenodd" clip-rule="evenodd" d="M30.6279 33.4429C30.6279 33.1554 30.7944 32.8074 31.1424 32.3837C31.1424 32.3837 31.4451 32.2475 32.0352 31.96C32.3076 32.2626 32.3984 32.6409 32.2774 33.0798C32.0806 33.337 31.5207 33.4429 30.6128 33.4429H30.6279Z" fill="#FEC900"/>
<path fill-rule="evenodd" clip-rule="evenodd" d="M30.3707 31.552C30.4615 31.2191 30.5523 30.8559 30.6582 30.4624C29.493 30.6138 27.7377 30.6592 25.3921 30.6289C24.6506 29.7815 23.2736 29.7815 22.5321 30.6289C20.1866 30.6743 18.4312 30.6138 17.266 30.4624C17.372 30.8559 17.4627 31.2191 17.5535 31.552C17.9924 33.2317 18.2194 34.0639 18.2194 34.0639C17.3871 33.958 16.4943 33.8218 15.5409 33.6554C15.4199 33.6554 15.3291 33.731 15.2534 33.8975C15.1778 32.8685 15.1172 32.2632 15.087 32.0816C15.0718 32.0816 15.0567 32.0665 15.0567 32.0665C15.0416 31.8546 15.1626 31.6428 15.3593 31.552C15.3745 31.552 15.3896 31.5368 15.4047 31.5368C15.3593 28.8735 15.3745 27.1182 15.435 26.2708C15.4804 25.499 15.5258 24.818 15.5712 24.2279H15.7679C15.6923 25.1056 15.6771 25.7563 15.7074 26.1497L15.9495 26.4221C15.9495 26.4221 16.0403 25.045 16.2219 22.2909C16.2219 22.2909 16.1311 22.2909 15.9646 22.2909C15.889 22.9568 15.8284 23.5621 15.7982 24.0766H15.5863C15.662 23.0022 15.7225 22.2455 15.783 21.837C15.9495 21.2468 16.2824 20.8988 16.7818 20.8231C21.4577 20.6869 26.4968 20.6869 31.1878 20.8231C31.6872 20.8988 32.0201 21.2468 32.1866 21.837C32.232 22.2455 32.3076 22.987 32.3833 24.0766H32.1714C32.1261 23.5621 32.0655 22.9719 32.005 22.2909C31.8385 22.2909 31.7477 22.2909 31.7477 22.2909C31.9293 25.045 32.0201 26.4221 32.0201 26.4221L32.2622 26.1497C32.2925 25.7411 32.2622 25.1056 32.2017 24.2279H32.3984C32.4438 24.818 32.4892 25.499 32.5346 26.2708C32.5952 27.1182 32.5952 28.8735 32.5649 31.5368C32.58 31.5368 32.5952 31.552 32.6103 31.552C32.807 31.6428 32.9281 31.8395 32.9129 32.0665C32.8978 32.0665 32.8827 32.0816 32.8827 32.0816C32.8524 32.2632 32.7919 32.8685 32.7162 33.8975C32.6557 33.731 32.5498 33.6554 32.4287 33.6554C31.4754 33.8218 30.5825 33.9732 29.7503 34.0639C29.7503 34.0639 29.9773 33.2317 30.4161 31.552H30.3707ZM17.2812 33.4284C17.2812 33.1409 17.1147 32.7928 16.7667 32.3691C16.7667 32.3691 16.464 32.2329 15.8738 31.9454C15.6015 32.2481 15.5107 32.6264 15.6317 33.0652C15.8284 33.3225 16.3883 33.4284 17.2963 33.4284H17.2812ZM31.1576 32.3691C30.8095 32.7777 30.6279 33.1257 30.6431 33.4284C31.551 33.4435 32.1109 33.3225 32.3076 33.0652C32.4287 32.6264 32.3379 32.2481 32.0655 31.9454C31.4754 32.2178 31.1727 32.3691 31.1727 32.3691H31.1576ZM16.3581 27.436C16.3278 28.0261 22.7591 27.9959 23.9545 28.0413C25.15 27.9959 31.5813 28.0412 31.551 27.436C31.551 27.436 31.4602 25.7411 31.2635 22.3515C31.2938 21.9278 31.1273 21.731 30.749 21.7462C26.5725 21.7159 24.3026 21.7159 23.9545 21.7462C23.6065 21.731 21.3518 21.731 17.1601 21.7462C16.7818 21.731 16.6153 21.9429 16.6456 22.3515C16.4489 25.7411 16.3581 27.436 16.3581 27.436Z" fill="#ED595B"/>
<path fill-rule="evenodd" clip-rule="evenodd" d="M32.6558 33.897C32.7314 32.868 32.7919 32.2627 32.8222 32.0812C32.8373 32.0812 32.8525 32.066 32.8525 32.066C33.1551 31.8996 33.3216 32.0812 33.3216 32.5957C33.367 34.4721 33.3064 35.4859 33.1551 35.6373C33.0492 35.6675 32.9584 35.6675 32.8827 35.6221C32.8373 35.5919 32.7919 35.5465 32.7465 35.5011C32.7314 35.4708 32.7163 35.4405 32.7012 35.4103C32.7314 35.2136 32.7465 35.0168 32.7465 34.7899C32.7465 34.3813 32.7012 34.0938 32.6255 33.9122L32.6558 33.897Z" fill="#292827"/>
<path fill-rule="evenodd" clip-rule="evenodd" d="M15.0718 32.0812C15.1021 32.2628 15.1626 32.8681 15.2383 33.8971C15.1626 34.0787 15.1324 34.3813 15.1172 34.7748C15.1172 35.0018 15.1324 35.1985 15.1626 35.3952C15.1475 35.4255 15.1324 35.4558 15.1172 35.486C15.087 35.5465 15.0416 35.5919 14.9811 35.6071C14.9054 35.6525 14.8146 35.6525 14.7087 35.6222C14.5573 35.486 14.4968 34.4721 14.5422 32.5806C14.5573 32.0661 14.7087 31.8996 15.0113 32.051C15.0264 32.051 15.0416 32.0661 15.0416 32.0661L15.0718 32.0812Z" fill="#292827"/>
<path d="M33.3367 24.0762H32.0656V24.2275H33.3367V24.0762Z" fill="#292827"/>
<path fill-rule="evenodd" clip-rule="evenodd" d="M33.8209 22.8959C33.3064 22.8505 33.0492 22.9111 33.0189 23.0321L32.9432 24.9842C33.0038 25.2869 33.1702 25.423 33.4275 25.3928C33.9722 25.423 34.2295 25.2869 34.2295 25.0145C34.2598 23.8039 34.2749 23.2137 34.2749 23.2137C34.1538 22.9716 34.0025 22.8657 33.8058 22.8959H33.8209Z" fill="#292827"/>
<path fill-rule="evenodd" clip-rule="evenodd" d="M14.0882 22.8959C14.6028 22.8505 14.86 22.9111 14.8903 23.0321L14.9659 24.9842C14.9054 25.2869 14.7389 25.423 14.4817 25.3928C13.9369 25.423 13.6797 25.2869 13.6797 25.0145C13.6494 23.8039 13.6343 23.2137 13.6343 23.2137C13.7553 22.9716 13.9067 22.8657 14.1034 22.8959H14.0882Z" fill="#6D7F99"/>
<path d="M15.8285 24.0762H14.5574V24.2275H15.8285V24.0762Z" fill="#292827"/>
<path fill-rule="evenodd" clip-rule="evenodd" d="M14.0882 22.8959C14.6028 22.8505 14.86 22.9111 14.8903 23.0321L14.9659 24.9842C14.9054 25.2869 14.7389 25.423 14.4817 25.3928C13.9369 25.423 13.6797 25.2869 13.6797 25.0145C13.6494 23.8039 13.6343 23.2137 13.6343 23.2137C13.7553 22.9716 13.9067 22.8657 14.1034 22.8959H14.0882Z" fill="#292827"/>
<path fill-rule="evenodd" clip-rule="evenodd" d="M31.9899 26.4217C31.9899 26.4217 31.8991 25.0446 31.7175 22.2905C31.7175 22.2905 31.8083 22.2905 31.9748 22.2905C32.0504 22.9564 32.111 23.5616 32.1412 24.0762H32.0656V24.2275H32.1564C32.232 25.1052 32.2472 25.7558 32.2169 26.1493L31.9748 26.4217H31.9899Z" fill="#353043"/>
<path fill-rule="evenodd" clip-rule="evenodd" d="M33.0795 22.9567V20.8835H33.5334V22.881C33.3216 22.881 33.1703 22.8962 33.0795 22.9567Z" fill="#940A0A"/>
<path fill-rule="evenodd" clip-rule="evenodd" d="M33.0795 25.3015C33.1703 25.3923 33.2762 25.4226 33.4275 25.4074C33.4578 25.4074 33.5032 25.4074 33.5334 25.4074V31.5512H33.0795V25.3015Z" fill="#940A0A"/>
<path fill-rule="evenodd" clip-rule="evenodd" d="M33.5334 20.8833H33.0795V20.0662H33.6848V20.8833H33.5334Z" fill="#940A0A"/>
<path fill-rule="evenodd" clip-rule="evenodd" d="M14.8146 20.0662V20.8833H14.3607H14.2094V20.0662H14.8146Z" fill="#940A0A"/>
<path fill-rule="evenodd" clip-rule="evenodd" d="M14.4665 25.4074C14.6178 25.4226 14.7238 25.3923 14.8146 25.3015V31.5512H14.3606V25.4074C14.3909 25.4074 14.4363 25.4074 14.4665 25.4074Z" fill="#940A0A"/>
<path fill-rule="evenodd" clip-rule="evenodd" d="M14.8146 22.9567C14.7389 22.9113 14.5876 22.881 14.3606 22.881V20.8835H14.8146V22.9567Z" fill="#940A0A"/>
<path fill-rule="evenodd" clip-rule="evenodd" d="M16.358 27.4508C16.358 27.4508 16.4488 25.7559 16.6455 22.3663C16.6153 21.9426 16.7817 21.7458 17.16 21.761C21.3366 21.7307 23.6064 21.7307 23.9545 21.761C24.3025 21.7458 26.5573 21.7458 30.7489 21.761C31.1272 21.7458 31.2937 21.9577 31.2634 22.3663C31.4602 25.7559 31.551 27.4508 31.551 27.4508C31.5812 28.0409 25.1499 28.0107 23.9545 28.0561C22.759 28.0107 16.3278 28.0561 16.358 27.4508Z" fill="#353043"/>
<path fill-rule="evenodd" clip-rule="evenodd" d="M23.879 31.2489C23.7277 31.2489 23.5764 31.2489 23.4099 31.2489C23.3494 31.2489 23.2889 31.2489 23.2435 31.2489C23.1829 31.2489 23.1375 31.2489 23.077 31.2489C23.0013 31.2489 22.9105 31.2489 22.85 31.2792C22.8197 31.2943 22.8046 31.3246 22.7895 31.3548C22.7895 31.4154 22.8197 31.4759 22.85 31.5213C22.8803 31.5969 22.9408 31.6575 23.0013 31.718C23.1073 31.8239 23.3191 31.945 23.531 32.0055C23.5612 32.0206 23.5915 32.0207 23.6218 32.0358C23.652 32.0358 23.6369 32.0509 23.6218 32.0509C23.5915 32.0509 23.5461 32.0358 23.5158 32.0358C23.2586 31.9753 23.0921 31.8693 22.9711 31.7785C22.8954 31.718 22.8197 31.6423 22.7744 31.5515C22.7441 31.491 22.7138 31.4002 22.6987 31.3548C22.6987 31.3094 22.6836 31.2792 22.6836 31.2186C22.6836 31.0976 22.729 30.9916 22.8046 30.8857C22.8046 30.8706 22.8197 30.8706 22.8197 30.8555V30.8403C22.8197 30.8403 22.8046 30.8403 22.8046 30.8555C22.7441 30.916 22.7138 30.9765 22.6836 31.037C22.6382 31.1278 22.623 31.1884 22.623 31.264C22.623 31.2792 22.6079 31.2792 22.6079 31.264C22.6079 31.1732 22.623 31.0976 22.6533 31.0068C22.6987 30.916 22.7441 30.8706 22.7895 30.7949C22.85 30.7193 22.9408 30.6587 23.0165 30.6133C23.1375 30.5377 23.2737 30.4771 23.4099 30.4469C23.4704 30.4317 23.531 30.4166 23.5764 30.4166C23.5915 30.4166 23.6218 30.4166 23.6369 30.4166C23.652 30.4166 23.6672 30.4317 23.6369 30.4317C23.6066 30.4469 23.5612 30.4469 23.531 30.462C23.3948 30.5074 23.2586 30.5528 23.1375 30.6285C23.0316 30.689 22.9862 30.7193 22.8651 30.8706C22.85 30.8857 22.8197 30.9462 22.8046 30.9765C22.7895 31.0068 22.7744 31.0522 22.7744 31.0824C22.7744 31.1127 22.7895 31.143 22.8046 31.1581C22.85 31.1884 22.9105 31.1884 22.9711 31.1884C23.0165 31.1884 23.077 31.1884 23.1224 31.1884C23.1981 31.1884 23.2737 31.1884 23.3494 31.1884C23.5158 31.1884 23.6823 31.1884 23.8336 31.1884C23.8488 31.1884 23.8639 31.1884 23.879 31.1884C24.0455 31.1884 24.2119 31.1884 24.3784 31.1884C24.4541 31.1884 24.5297 31.1884 24.6054 31.1884C24.6508 31.1884 24.7113 31.1884 24.7567 31.1884C24.8324 31.1884 24.8778 31.1884 24.9232 31.1581C24.9534 31.143 24.9534 31.1278 24.9534 31.0824C24.9534 31.0522 24.9383 31.0068 24.9232 30.9765C24.908 30.9311 24.8778 30.8857 24.8626 30.8706C24.7416 30.7193 24.6962 30.689 24.6054 30.6285C24.4843 30.5528 24.3481 30.4923 24.2271 30.462C24.1968 30.4469 24.1514 30.4469 24.1211 30.4317C24.0909 30.4317 24.106 30.4166 24.1211 30.4166C24.1363 30.4166 24.1665 30.4166 24.1817 30.4166C24.2422 30.4166 24.3027 30.4317 24.3481 30.4469C24.4843 30.4923 24.6054 30.5377 24.7416 30.6285C24.8172 30.6739 24.8929 30.7495 24.9686 30.8101C25.0291 30.8857 25.0593 30.9311 25.1047 31.0219C25.135 31.0976 25.1501 31.1884 25.1501 31.2792C25.1501 31.3094 25.135 31.2943 25.135 31.2792C25.135 31.2035 25.1199 31.1278 25.0745 31.0522C25.0442 30.9765 25.0139 30.9311 24.9534 30.8555L24.9383 30.8403V30.8555C24.9383 30.8706 24.9534 30.8706 24.9534 30.8857C25.0291 30.9916 25.0593 31.0976 25.0593 31.2186C25.0593 31.2943 25.0593 31.3094 25.0442 31.3548C25.0442 31.3851 24.9988 31.491 24.9686 31.5364C24.9232 31.6272 24.8475 31.7029 24.7718 31.7634C24.6508 31.8542 24.4692 31.9601 24.2119 32.0207C24.1817 32.0207 24.1363 32.0358 24.106 32.0358C24.0909 32.0358 24.0757 32.0207 24.106 32.0207C24.1363 32.0055 24.1817 32.0055 24.2119 31.9904C24.4389 31.9299 24.6356 31.8239 24.7567 31.718C24.8172 31.6575 24.8778 31.5969 24.9232 31.5213C24.9534 31.4759 24.9837 31.4002 24.9837 31.3548C24.9837 31.3094 24.9686 31.2943 24.9383 31.2792C24.8778 31.2489 24.787 31.2489 24.7113 31.2489C24.6508 31.2489 24.6054 31.2489 24.5448 31.2489C24.4843 31.2489 24.4238 31.2489 24.3784 31.2489C24.2271 31.2489 24.0606 31.2489 23.9093 31.2489C23.8941 31.2489 23.879 31.2489 23.8639 31.2489H23.879ZM23.879 31.1884C23.7731 31.1884 23.6672 31.1884 23.5461 31.1884C23.4704 31.1884 23.3948 31.1884 23.304 31.1884C23.2283 31.1884 23.1678 31.1884 23.0921 31.1732C23.0316 31.1732 22.9408 31.1581 22.9257 31.143C22.9105 31.1278 22.9257 31.1278 22.9257 31.1127C22.9408 31.0976 22.9559 31.0976 22.9711 31.0824C22.9711 31.0824 22.9862 31.0824 23.0013 31.0824C23.0165 31.0976 23.0165 31.0976 23.0316 31.0976C23.0921 31.1127 23.1375 31.1278 23.2283 31.1278C23.2889 31.1278 23.3645 31.143 23.425 31.143C23.5764 31.143 23.6672 31.1581 23.8639 31.1581C23.879 31.1581 23.8942 31.1581 23.9244 31.1581C24.1363 31.1581 24.2271 31.1581 24.3633 31.1581C24.4238 31.1581 24.4994 31.1581 24.56 31.143C24.6508 31.143 24.6962 31.1278 24.7567 31.1127C24.7718 31.1127 24.787 31.1127 24.787 31.0976C24.787 31.0976 24.8021 31.0976 24.8172 31.0976C24.8324 31.0976 24.8475 31.1127 24.8626 31.1278C24.8778 31.1278 24.8778 31.143 24.8626 31.1581C24.8475 31.1732 24.7567 31.1732 24.6962 31.1884C24.6205 31.1884 24.56 31.1884 24.4843 31.1884C24.4087 31.1884 24.333 31.1884 24.2422 31.1884C24.1363 31.1884 24.0152 31.1884 23.9093 31.1884C23.8941 31.1884 23.879 31.1884 23.8488 31.1884H23.879ZM23.879 31.1278C23.652 31.1278 23.425 31.1278 23.1981 31.0976C23.0921 31.0824 23.0619 31.0219 23.0467 30.9916C23.0316 30.8706 23.2283 30.7041 23.3191 30.6436C23.4553 30.5679 23.5764 30.5225 23.7277 30.4771C23.7428 30.4771 23.758 30.4469 23.758 30.4317C23.758 30.4166 23.7277 30.4015 23.7126 30.3863C23.6672 30.3712 23.6066 30.3712 23.5612 30.3863C23.4704 30.4015 23.3948 30.4166 23.3191 30.4317C23.2132 30.462 23.0921 30.5225 22.9862 30.5831C22.85 30.6587 22.729 30.7647 22.6533 30.9009C22.5928 30.9916 22.5474 31.1127 22.5474 31.2186C22.5474 31.3397 22.5928 31.4759 22.6684 31.5818C22.729 31.6877 22.8349 31.7785 22.9257 31.8542C23.0165 31.9299 23.1224 31.9753 23.2283 32.0207C23.3191 32.0509 23.425 32.0812 23.5158 32.0963C23.5764 32.1114 23.6369 32.1114 23.6974 32.0963C23.7126 32.0963 23.7428 32.0812 23.7428 32.0509C23.7428 32.0358 23.7277 32.0055 23.7126 32.0055C23.6672 31.9904 23.5764 31.9601 23.5158 31.9299C23.4402 31.8996 23.3494 31.8542 23.2737 31.8088C23.1981 31.7634 23.1375 31.7029 23.077 31.6272C23.0467 31.5969 23.0165 31.5364 23.0165 31.5061C23.0165 31.4759 23.0165 31.4456 23.0316 31.4305C23.077 31.3548 23.2132 31.3548 23.3191 31.3548C23.4099 31.3548 23.5007 31.3548 23.5915 31.3548C23.6823 31.3548 23.7882 31.3548 23.879 31.3548C23.9698 31.3548 24.0757 31.3548 24.1665 31.3548C24.2573 31.3548 24.3481 31.3548 24.4389 31.37C24.5448 31.37 24.6659 31.37 24.7264 31.4456C24.7416 31.4608 24.7416 31.491 24.7416 31.5213C24.7416 31.5667 24.7113 31.6121 24.681 31.6423C24.6356 31.718 24.56 31.7634 24.4843 31.8088C24.4087 31.8542 24.333 31.8845 24.2422 31.9299C24.1817 31.9601 24.0909 31.9904 24.0303 32.0055C24.0152 32.0055 24.0001 32.0358 24.0001 32.0509C24.0001 32.066 24.0303 32.0812 24.0455 32.0963C24.106 32.1114 24.1665 32.0963 24.2271 32.0963C24.333 32.0812 24.4238 32.066 24.5146 32.0207C24.6205 31.9753 24.7264 31.9299 24.8172 31.8693C24.9232 31.7937 25.0139 31.718 25.0896 31.6121C25.1653 31.5061 25.2107 31.3851 25.2107 31.2489C25.2107 31.143 25.1653 31.0219 25.1047 30.9311C25.0291 30.7949 24.908 30.689 24.7718 30.5982C24.6659 30.5377 24.5448 30.4771 24.4389 30.4469C24.3633 30.4166 24.2725 30.4015 24.1968 30.3863C24.1514 30.3712 24.0909 30.3712 24.0455 30.3863C24.0303 30.3863 24.0001 30.4166 24.0001 30.4317C24.0001 30.4469 24.0152 30.4771 24.0303 30.4771C24.1968 30.5225 24.3027 30.5831 24.4389 30.6587C24.5448 30.7193 24.7264 30.8857 24.7113 31.0068C24.7113 31.0522 24.681 31.0976 24.56 31.1127C24.333 31.1278 24.0909 31.1278 23.879 31.1278C23.8639 31.1278 23.8488 31.1278 23.8336 31.1278H23.879Z" fill="#D3D5D5"/>
<path d="M13.7856 3.94943C13.7856 3.41456 13.3554 2.98096 12.8247 2.98096C12.294 2.98096 11.8638 3.41456 11.8638 3.94943V9.3971C11.8638 9.93197 12.294 10.3656 12.8247 10.3656C13.3554 10.3656 13.7856 9.93197 13.7856 9.3971V3.94943Z" fill="white"/>
<path d="M19.3694 3.94943C19.3694 3.41456 18.9392 2.98096 18.4085 2.98096C17.8778 2.98096 17.4476 3.41456 17.4476 3.94943V9.3971C17.4476 9.93197 17.8778 10.3656 18.4085 10.3656C18.9392 10.3656 19.3694 9.93197 19.3694 9.3971V3.94943Z" fill="white"/>
<path d="M30.5523 3.94943C30.5523 3.41456 30.1221 2.98096 29.5914 2.98096C29.0607 2.98096 28.6305 3.41456 28.6305 3.94943V9.3971C28.6305 9.93197 29.0607 10.3656 29.5914 10.3656C30.1221 10.3656 30.5523 9.93197 30.5523 9.3971V3.94943Z" fill="white"/>
<path d="M36.1362 3.94943C36.1362 3.41456 35.706 2.98096 35.1753 2.98096C34.6446 2.98096 34.2144 3.41456 34.2144 3.94943V9.3971C34.2144 9.93197 34.6446 10.3656 35.1753 10.3656C35.706 10.3656 36.1362 9.93197 36.1362 9.3971V3.94943Z" fill="white"/>
</svg>
