<svg width="48" height="49" viewBox="0 0 48 49" fill="none" xmlns="http://www.w3.org/2000/svg">
<path d="M24 48C37.2548 48 48 37.2548 48 24C48 10.7452 37.2548 0 24 0C10.7452 0 0 10.7452 0 24C0 37.2548 10.7452 48 24 48Z" fill="#940A0A"/>
<path d="M23.039 48C33.8439 48 42.603 47.6722 42.603 47.2678C42.603 46.8634 33.8439 46.5356 23.039 46.5356C12.2342 46.5356 3.4751 46.8634 3.4751 47.2678C3.4751 47.6722 12.2342 48 23.039 48Z" fill="black" stroke="black" stroke-width="0.5669" stroke-miterlimit="22.9256"/>
<path fill-rule="evenodd" clip-rule="evenodd" d="M40.6541 15.7309C40.7402 14.3634 40.5572 11.6824 40.1265 7.70935C39.7712 7.70935 39.5881 7.70935 39.5881 7.70935C39.965 13.4267 40.1588 16.2908 40.1588 16.2908L40.6541 15.7309Z" fill="#393A39"/>
<path fill-rule="evenodd" clip-rule="evenodd" d="M10.7214 47.3218V39.0096V38.385C10.6675 38.385 10.6137 38.385 10.5599 38.385C9.3324 38.3743 8.09418 38.3635 6.86672 38.342C6.01612 37.6852 5.47776 36.6085 5.25165 35.1011H5.13319C5.05782 35.2195 4.97169 35.3057 4.86401 35.3703V47.3218H10.7214ZM36.2072 38.385V39.0096V47.3218H42.0645V35.3703C41.9569 35.3164 41.8707 35.2303 41.7954 35.1011H41.6769C41.4508 36.6085 40.9125 37.6852 40.0619 38.342C38.8344 38.3635 37.5962 38.3743 36.3687 38.385C36.3149 38.385 36.2611 38.385 36.2072 38.385Z" fill="#393A39"/>
<path fill-rule="evenodd" clip-rule="evenodd" d="M23.5666 42.0135C26.8829 42.0135 30.1992 41.9274 33.5047 41.7551C34.786 41.2921 35.7766 40.2693 36.2072 38.9987V38.3742C31.9542 38.4065 27.7119 38.3958 23.4589 38.3312C19.2059 38.385 14.9636 38.4065 10.7106 38.3742V38.9987C11.1413 40.2693 12.1318 41.2921 13.4131 41.7551C16.8048 41.9274 20.1857 42.0135 23.5666 42.0135Z" fill="black"/>
<path fill-rule="evenodd" clip-rule="evenodd" d="M14.7806 34.3689C20.5518 34.3043 26.3769 34.3043 32.1481 34.3689C32.3742 34.3474 32.9233 35.2949 33.7847 37.2222C32.9664 36.2963 32.3204 35.844 31.8251 35.8548C26.2584 35.8117 20.6703 35.8117 15.1037 35.8548C14.6084 35.844 13.9623 36.2963 13.144 37.2222C14.0054 35.2949 14.5545 34.3474 14.7806 34.3689ZM5.38092 31.8064C5.23018 32.194 5.14404 32.7969 5.14404 33.626C5.15481 34.089 5.18711 34.5197 5.24094 34.9181C5.25171 34.9827 5.26247 35.0473 5.26247 35.1011C5.48858 36.6085 6.02693 37.6852 6.87754 38.342C8.105 38.3635 9.34321 38.3743 10.5707 38.3851C10.6245 38.3851 10.6784 38.3851 10.7322 38.3851C14.9852 38.4174 19.2275 38.4066 23.4805 38.342C27.7228 38.3958 31.9758 38.4174 36.2288 38.3851C36.2827 38.3851 36.3365 38.3851 36.3903 38.3851C37.6178 38.3743 38.856 38.3635 40.0835 38.342C40.9341 37.6852 41.4724 36.6085 41.6985 35.1011C41.7093 35.0365 41.7201 34.9827 41.7201 34.9181C41.7739 34.5197 41.8062 34.089 41.817 33.626C41.8062 32.7969 41.7309 32.1832 41.5801 31.8064C41.4401 31.4618 41.2463 31.3003 40.9987 31.3111C39.0175 31.6664 37.1656 31.9571 35.4321 32.1617C33.1279 32.4416 31.0498 32.5924 29.1871 32.6031C26.0216 32.6031 24.1481 32.6031 23.5774 32.6031C23.5774 32.6031 21.6501 32.6031 17.7847 32.6031C15.922 32.5924 13.8439 32.4416 11.5397 32.1617C9.80623 31.9571 7.95426 31.6664 5.9731 31.3111C5.70392 31.3003 5.51013 31.4618 5.38092 31.8064ZM10.7214 35.7579C8.27728 35.6287 7.04982 35.5533 7.04982 35.5533C6.87754 35.4564 6.73759 35.3057 6.59762 35.1011C6.48994 34.9396 6.39302 34.735 6.30688 34.5089C5.65009 32.9261 5.93003 32.237 7.14672 32.4308C9.6124 32.6785 11.0552 32.9584 11.4751 33.2599C11.8628 33.4752 12.1212 33.8629 12.175 34.2936C11.5182 35.2842 11.1952 35.7902 11.1952 35.7902C11.0337 35.7794 10.8829 35.7687 10.7214 35.7579ZM40.3311 35.1011C40.2019 35.3057 40.0512 35.4564 39.8789 35.5533C39.8789 35.5533 38.6515 35.6179 36.2073 35.7579C36.0566 35.7687 35.8951 35.7795 35.7336 35.7795C35.7336 35.7795 35.4105 35.2841 34.7537 34.2828C34.8076 33.8413 35.066 33.4537 35.4536 33.2492C35.8735 32.9477 37.3163 32.6785 39.782 32.4201C40.9987 32.2155 41.2786 32.9154 40.6218 34.4982C40.5357 34.735 40.4388 34.9396 40.3311 35.1011Z" fill="#393A39"/>
<path fill-rule="evenodd" clip-rule="evenodd" d="M10.7214 35.7577C10.8721 35.7685 11.0336 35.7792 11.1951 35.7792C11.1951 35.7792 11.5181 35.2839 12.1749 34.2826C12.1211 33.8411 11.8627 33.4535 11.4751 33.249C11.0551 32.9475 9.61233 32.6783 7.14665 32.4199C5.92996 32.2153 5.65001 32.9152 6.30681 34.498C6.39295 34.7348 6.48987 34.9286 6.59755 35.0901C6.72675 35.2947 6.87747 35.4455 7.04975 35.5424C7.04975 35.5639 8.27721 35.6285 10.7214 35.7577Z" fill="white"/>
<path fill-rule="evenodd" clip-rule="evenodd" d="M40.3312 35.1008C40.4388 34.9393 40.5357 34.7347 40.6219 34.5086C41.2787 32.9259 40.9987 32.2368 39.782 32.4306C37.3164 32.6782 35.8736 32.9582 35.4536 33.2596C35.066 33.475 34.8076 33.8626 34.7538 34.2933C35.4106 35.2839 35.7336 35.7899 35.7336 35.7899C35.8951 35.7792 36.0566 35.7684 36.2074 35.7684C38.6515 35.6392 39.8789 35.5638 39.8789 35.5638C40.0512 35.4562 40.202 35.3054 40.3312 35.1008Z" fill="white"/>
<path fill-rule="evenodd" clip-rule="evenodd" d="M33.7847 37.2221C32.9233 35.2948 32.3742 34.3472 32.1481 34.3688C26.3769 34.3042 20.5518 34.3042 14.7806 34.3688C14.5545 34.3472 14.0054 35.2948 13.144 37.2221C13.9623 36.2961 14.6084 35.8439 15.1037 35.8546C20.6703 35.8116 26.2585 35.8116 31.8251 35.8546C32.3204 35.8439 32.9772 36.2961 33.7847 37.2221Z" fill="#6A6C6C"/>
<path fill-rule="evenodd" clip-rule="evenodd" d="M25.6339 28.6946C26.183 28.2854 26.6244 27.7363 26.8936 27.101C31.1897 27.0579 33.3432 27.0257 33.3432 27.0257C33.3324 27.5317 33.2785 28.0593 33.1816 28.5977L25.6339 28.6946ZM36.7886 26.9395C36.9717 26.2504 37.1655 25.4967 37.3809 24.6677C34.9582 24.9799 31.3189 25.0876 26.4414 25.0122C24.9017 23.2572 22.0376 23.2572 20.4872 25.0122C15.6096 25.0983 11.9703 24.9799 9.54773 24.6677C9.76307 25.4967 9.96764 26.2504 10.1399 26.9395C11.0551 30.4173 11.5074 32.1616 11.5074 32.1616C13.8115 32.4415 15.8896 32.5923 17.7523 32.603C20.9178 32.603 22.7913 32.603 23.362 32.603C23.362 32.603 25.2893 32.603 29.1547 32.603C31.0174 32.5923 33.0955 32.4415 35.3997 32.1616C35.4105 32.1616 35.8734 30.4281 36.7886 26.9395ZM14.2745 30.2773C17.7846 30.2989 20.8532 30.2989 23.4697 30.2773C26.0969 30.2989 29.1547 30.2989 32.6648 30.2773C32.7617 30.6003 32.7079 31.0526 32.5249 31.6232C29.4562 31.7201 26.4306 31.7525 23.4697 31.7417C20.5087 31.7632 17.4831 31.7201 14.4145 31.6232C14.2207 31.0526 14.1776 30.6111 14.2745 30.2773ZM20.0349 27.101C20.3041 27.7363 20.7456 28.2854 21.2947 28.6946L13.7361 28.6084C13.6392 28.0593 13.5854 27.5317 13.5746 27.0364C13.5854 27.0256 15.7388 27.0472 20.0349 27.101Z" fill="#6A6C6C"/>
<path fill-rule="evenodd" clip-rule="evenodd" d="M21.3056 28.6945C20.7457 28.2854 20.315 27.7362 20.0458 27.101C15.7497 27.0579 13.5963 27.0256 13.5963 27.0256C13.6071 27.5317 13.6501 28.0593 13.7578 28.5976L21.3056 28.6945Z" fill="#393A39"/>
<path fill-rule="evenodd" clip-rule="evenodd" d="M26.8937 27.101C26.6245 27.7362 26.183 28.2854 25.6339 28.6945L33.1924 28.6084C33.2894 28.0593 33.3432 27.5317 33.3539 27.0364C33.3432 27.0256 31.2005 27.0471 26.8937 27.101Z" fill="#393A39"/>
<path fill-rule="evenodd" clip-rule="evenodd" d="M32.6648 30.2772C29.1547 30.2988 26.0861 30.2988 23.4697 30.2772C20.8425 30.2988 17.7846 30.2988 14.2745 30.2772C14.1776 30.6002 14.2314 31.0525 14.4145 31.6231C17.4831 31.72 20.5087 31.7523 23.4697 31.7416C26.4306 31.7631 29.4562 31.72 32.5249 31.6231C32.7079 31.0525 32.7617 30.611 32.6648 30.2772Z" fill="#393A39"/>
<path fill-rule="evenodd" clip-rule="evenodd" d="M38.4146 28.6622C37.6932 29.5128 37.3271 30.2449 37.3379 30.8479C39.2329 30.8802 40.385 30.6326 40.7941 30.105C41.031 29.1898 40.8588 28.4253 40.2773 27.79C39.0391 28.3715 38.4146 28.6622 38.4146 28.6622Z" fill="#FEC900"/>
<path fill-rule="evenodd" clip-rule="evenodd" d="M9.59086 30.848C9.60163 30.245 9.23555 29.5129 8.51415 28.6623C8.51415 28.6623 7.88964 28.3716 6.65142 27.8009C6.06999 28.4362 5.90848 29.2006 6.14536 30.1158C6.55451 30.6327 7.70661 30.8803 9.59086 30.848Z" fill="#FEC900"/>
<path fill-rule="evenodd" clip-rule="evenodd" d="M10.1507 26.9395C9.96768 26.2504 9.77389 25.4967 9.55855 24.6676C11.9812 24.9799 15.6204 25.0876 20.498 25.0122C22.0377 23.2571 24.9017 23.2571 26.4522 25.0122C31.3297 25.0983 34.969 24.9799 37.3916 24.6676C37.1763 25.4967 36.9717 26.2504 36.7995 26.9395C35.8842 30.4173 35.432 32.1616 35.432 32.1616C37.1656 31.957 39.0175 31.6663 40.9986 31.311C41.2463 31.3002 41.4401 31.4617 41.5801 31.8063C41.7523 29.6636 41.8708 28.4146 41.9354 28.0485C41.9569 28.0377 41.9892 28.0162 42.0108 28.0055C42.0538 27.5532 41.8062 27.1333 41.397 26.9503C41.3647 26.9395 41.3217 26.918 41.2894 26.9072C41.3647 21.3836 41.354 17.7443 41.2355 15.9785C41.1278 14.3742 41.0417 12.953 40.9556 11.7363H40.5357C40.6756 13.5667 40.7295 14.891 40.6756 15.7309L40.1803 16.28C40.1803 16.28 39.9865 13.4159 39.6097 7.69858C39.6097 7.69858 39.7927 7.69858 40.148 7.69858C40.2988 9.08754 40.4172 10.3258 40.5034 11.4025H40.934C40.7725 9.16292 40.6433 7.61245 40.5357 6.76184C40.1911 5.53438 39.4912 4.82374 38.4468 4.66223C28.7241 4.38228 18.2692 4.38228 8.54643 4.66223C7.50201 4.8345 6.80215 5.53438 6.4576 6.76184C6.34993 7.61245 6.22072 9.16292 6.05922 11.4025H6.4899C6.57603 10.3258 6.69446 9.09831 6.8452 7.69858C7.20052 7.69858 7.38356 7.69858 7.38356 7.69858C7.00671 13.4159 6.8129 16.28 6.8129 16.28L6.31762 15.7309C6.26378 14.891 6.31762 13.5559 6.4576 11.7363H6.03766C5.95152 12.953 5.85464 14.3742 5.75774 15.9785C5.6393 17.7443 5.62851 21.3836 5.70388 26.9072C5.67158 26.918 5.62851 26.9287 5.5962 26.9503C5.18705 27.1333 4.93943 27.5532 4.9825 28.0055C5.00404 28.0162 5.03631 28.0377 5.05785 28.0485C5.12245 28.4146 5.24091 29.6744 5.41318 31.8063C5.55315 31.4617 5.74694 31.3002 5.99458 31.311C7.97574 31.6663 9.82771 31.957 11.5612 32.1616C11.5182 32.1616 11.0659 30.4281 10.1507 26.9395ZM37.3378 30.848C37.327 30.245 37.6931 29.5129 38.4145 28.6622C38.4145 28.6622 39.039 28.3715 40.2773 27.8009C40.8587 28.4362 41.0202 29.2006 40.7941 30.1158C40.3849 30.6326 39.2328 30.8803 37.3378 30.848ZM8.51413 28.6622C9.23553 29.5129 9.60161 30.245 9.59085 30.848C7.69582 30.8803 6.54371 30.6326 6.13456 30.105C5.89768 29.1898 6.06996 28.4254 6.64062 27.7901C7.90038 28.3715 8.51413 28.6622 8.51413 28.6622ZM39.2436 18.4011C39.2974 19.6394 25.9461 19.564 23.4697 19.6501C20.9933 19.564 7.64198 19.6394 7.69581 18.4011C7.69581 18.4011 7.9004 14.8803 8.30955 7.82778C8.24495 6.95564 8.60025 6.53574 9.37549 6.56804C18.0646 6.5142 22.7591 6.51419 23.4805 6.55726C24.1911 6.51419 28.8964 6.5142 37.5747 6.56804C38.3499 6.53574 38.7052 6.96641 38.6406 7.82778C39.039 14.8803 39.2436 18.4011 39.2436 18.4011Z" fill="#ED5758"/>
<path fill-rule="evenodd" clip-rule="evenodd" d="M5.38095 31.8063C5.20867 29.6636 5.09022 28.4146 5.02561 28.0485C5.00408 28.0378 4.9718 28.0163 4.95027 28.0055C4.31501 27.6717 3.98121 28.0378 3.95967 29.1037C3.87354 33.0122 3.99198 35.1118 4.30423 35.4133C4.53034 35.4779 4.71338 35.4671 4.87489 35.381C4.98256 35.3271 5.0687 35.241 5.14407 35.1118C5.17637 35.058 5.20867 34.9934 5.24097 34.9288C5.18713 34.5304 5.15484 34.0997 5.14407 33.6367C5.14407 32.7969 5.21944 32.1832 5.38095 31.8063Z" fill="black"/>
<path fill-rule="evenodd" clip-rule="evenodd" d="M41.9139 28.0485C41.8493 28.4145 41.7309 29.6743 41.5586 31.8062C41.7093 32.1938 41.7954 32.7968 41.7954 33.6259C41.7847 34.0889 41.7524 34.5195 41.6985 34.9179C41.7308 34.9825 41.7631 35.0471 41.7954 35.101C41.8708 35.2194 41.9569 35.3055 42.0646 35.3702C42.2261 35.4563 42.4092 35.4671 42.6353 35.4025C42.9476 35.1117 43.0552 33.0014 42.9798 29.0929C42.9583 28.0269 42.6353 27.6609 41.9893 27.9946C41.9677 28.0162 41.9354 28.0269 41.9139 28.0485Z" fill="black"/>
<path d="M6.60839 11.4026H3.97046V11.7256H6.60839V11.4026Z" fill="black"/>
<path fill-rule="evenodd" clip-rule="evenodd" d="M2.96904 8.96902C4.02422 8.88288 4.58411 8.99055 4.64871 9.2705L4.78869 13.3297C4.64872 13.965 4.31493 14.2449 3.77658 14.1803C2.65679 14.2342 2.0969 13.965 2.0969 13.3836C2.0323 10.8856 2 9.63661 2 9.63661C2.24764 9.14132 2.57065 8.91518 2.96904 8.96902Z" fill="black"/>
<path fill-rule="evenodd" clip-rule="evenodd" d="M43.9597 8.96902C42.9045 8.88288 42.3446 8.99055 42.28 9.2705L42.14 13.3297C42.28 13.965 42.6138 14.2449 43.1521 14.1803C44.2719 14.2342 44.8318 13.965 44.8318 13.3836C44.8964 10.8856 44.9287 9.63661 44.9287 9.63661C44.6811 9.14132 44.3581 8.91518 43.9597 8.96902Z" fill="#6B7D97"/>
<path d="M42.969 11.4026H40.3311V11.7256H42.969V11.4026Z" fill="black"/>
<path fill-rule="evenodd" clip-rule="evenodd" d="M43.9597 8.96902C42.9045 8.88288 42.3446 8.99055 42.28 9.2705L42.14 13.3297C42.28 13.965 42.6138 14.2449 43.1521 14.1803C44.2719 14.2342 44.8318 13.965 44.8318 13.3836C44.8964 10.8856 44.9287 9.63661 44.9287 9.63661C44.6811 9.14132 44.3581 8.91518 43.9597 8.96902Z" fill="black"/>
<path fill-rule="evenodd" clip-rule="evenodd" d="M6.78059 16.2908C6.78059 16.2908 6.9744 13.4267 7.35125 7.70935C7.35125 7.70935 7.1682 7.70935 6.81289 7.70935C6.66215 9.09831 6.54372 10.3365 6.45759 11.4133H6.60831V11.7363H6.42529C6.28531 13.5667 6.23147 14.891 6.28531 15.7309L6.78059 16.2908Z" fill="#2B253B"/>
<path fill-rule="evenodd" clip-rule="evenodd" d="M39.2437 18.4011C39.2437 18.4011 39.0391 14.8802 38.6299 7.8277C38.6946 6.95556 38.3392 6.53566 37.564 6.56796C28.8749 6.51413 24.1804 6.51412 23.4698 6.55719C22.7591 6.51412 18.0539 6.51413 9.36477 6.56796C8.58954 6.53566 8.23423 6.96633 8.29884 7.8277C7.88968 14.8694 7.6851 18.4011 7.6851 18.4011C7.63126 19.6393 20.9825 19.5639 23.459 19.6501C25.9462 19.5639 39.2975 19.6393 39.2437 18.4011Z" fill="#2B253B"/>
<path fill-rule="evenodd" clip-rule="evenodd" d="M23.6205 26.3151C23.9436 26.3151 24.2558 26.3151 24.5788 26.3043C24.6972 26.3043 24.8157 26.3043 24.9341 26.3043C25.0526 26.3043 25.1602 26.3043 25.2787 26.3043C25.4402 26.3151 25.6232 26.2935 25.7632 26.3581C25.8386 26.3904 25.8601 26.4443 25.8709 26.5196C25.8709 26.5304 25.8709 26.5304 25.8709 26.5304C25.8709 26.6488 25.7955 26.7781 25.7524 26.8857C25.677 27.0365 25.5586 27.1764 25.4294 27.3056C25.2141 27.521 24.7834 27.7686 24.3204 27.8871C24.2558 27.9086 24.1804 27.9301 24.1158 27.9517C24.062 27.9624 24.0835 27.9947 24.1158 27.984C24.1912 27.9732 24.2666 27.9625 24.3312 27.9409C24.8588 27.8117 25.2248 27.5964 25.4725 27.3918C25.6232 27.2733 25.7847 27.1011 25.8816 26.918C25.9462 26.7996 26.0216 26.595 26.0324 26.5196C26.0431 26.4227 26.0539 26.3796 26.0539 26.2289C26.0431 25.9705 25.957 25.7659 25.8063 25.5398C25.7955 25.5183 25.7847 25.5075 25.774 25.4968C25.774 25.486 25.7632 25.4752 25.774 25.4644C25.7847 25.4644 25.8062 25.4752 25.817 25.486C25.9462 25.6259 26.0108 25.7336 26.0754 25.8736C26.1616 26.0566 26.1831 26.1966 26.2046 26.3581C26.2046 26.3904 26.237 26.4012 26.2477 26.3474C26.2585 26.1751 26.2154 25.9921 26.14 25.8198C26.0539 25.626 25.9678 25.529 25.8493 25.3891C25.7093 25.2491 25.5478 25.1091 25.3756 25.0015C25.1171 24.84 24.848 24.7323 24.568 24.6461C24.4496 24.6138 24.3311 24.5923 24.2019 24.5708C24.1696 24.5708 24.1266 24.5708 24.0835 24.5708C24.0512 24.5708 24.0297 24.6031 24.0835 24.6138C24.1589 24.6354 24.2342 24.6462 24.3096 24.6677C24.5896 24.7431 24.8695 24.8507 25.1172 25.0122C25.3217 25.1415 25.4294 25.2061 25.6663 25.5183C25.6986 25.5614 25.7632 25.669 25.7955 25.7444C25.817 25.7982 25.8601 25.8951 25.8601 25.9597C25.8493 26.0243 25.8386 26.0674 25.7847 26.0997C25.677 26.1643 25.5802 26.1751 25.4294 26.1751C25.3217 26.1751 25.214 26.1859 25.1064 26.1859C24.9449 26.1859 24.7942 26.1966 24.6327 26.1966C24.2989 26.2074 23.9543 26.2074 23.6098 26.2074C23.5775 26.2074 23.5344 26.2074 23.5021 26.2074C23.1575 26.2074 22.8022 26.2074 22.4577 26.2074C22.2962 26.2074 22.1454 26.2074 21.9839 26.2074C21.8762 26.2074 21.7686 26.2074 21.6609 26.2074C21.5102 26.2074 21.4132 26.1966 21.3056 26.132C21.2517 26.0997 21.241 26.0566 21.2302 25.992C21.2302 25.9274 21.2625 25.8305 21.284 25.7767C21.3163 25.6906 21.3809 25.5937 21.4132 25.5398C21.6501 25.2276 21.7578 25.163 21.9516 25.023C22.1993 24.8615 22.4685 24.7431 22.7484 24.6677C22.8238 24.6462 22.8991 24.6246 22.9745 24.6031C23.0283 24.5923 22.996 24.56 22.9745 24.56C22.9422 24.56 22.8991 24.56 22.856 24.5708C22.7376 24.5816 22.6084 24.6138 22.5007 24.6461C22.2208 24.7323 21.9516 24.84 21.6932 25.0122C21.5317 25.1199 21.3594 25.2599 21.2302 25.3998C21.1118 25.5398 21.0256 25.6475 20.9503 25.8413C20.8857 26.0028 20.8426 26.1966 20.8534 26.3689C20.8534 26.4227 20.8857 26.4012 20.8964 26.3689C20.9072 26.2074 20.9287 26.0674 21.0149 25.8844C21.0795 25.7444 21.1441 25.6259 21.2625 25.486C21.2733 25.4752 21.2948 25.4537 21.3056 25.4644C21.3163 25.4752 21.3056 25.486 21.3056 25.4968C21.2948 25.5183 21.284 25.5291 21.2733 25.5506C21.1225 25.7875 21.0472 25.9921 21.0364 26.2505C21.0364 26.4012 21.0472 26.455 21.0579 26.5412C21.0687 26.6165 21.1441 26.8104 21.2194 26.9288C21.3271 27.1118 21.4886 27.2733 21.6394 27.3918C21.8978 27.5964 22.2639 27.8009 22.7914 27.9194C22.856 27.9301 22.9422 27.9517 23.0068 27.9624C23.0391 27.9624 23.0606 27.9409 23.0068 27.9301C22.9422 27.9194 22.8668 27.8871 22.8022 27.8763C22.35 27.7578 21.9085 27.521 21.6824 27.3164C21.5532 27.198 21.424 27.058 21.3486 26.9072C21.2948 26.7996 21.2194 26.6704 21.2194 26.5519V26.5412C21.2302 26.4658 21.2518 26.412 21.3271 26.3689C21.4563 26.3043 21.6501 26.3151 21.8009 26.3043C21.9193 26.3043 22.027 26.3043 22.1454 26.3043C22.2638 26.3043 22.3823 26.3043 22.5007 26.3043C22.8238 26.3043 23.1575 26.2935 23.4806 26.2935C23.5452 26.315 23.5775 26.3151 23.6205 26.3151ZM23.6205 26.1966C23.5882 26.1966 23.5452 26.1966 23.5129 26.1966C23.276 26.1966 23.0499 26.1966 22.8237 26.1966C22.6622 26.1966 22.5007 26.1966 22.3392 26.1966C22.1885 26.1966 22.0485 26.1859 21.8978 26.1859C21.7578 26.1751 21.5748 26.1535 21.5424 26.132C21.5209 26.1212 21.5317 26.089 21.5424 26.0782C21.5748 26.0567 21.6071 26.0351 21.6501 26.0136C21.6609 26.0028 21.6932 26.0136 21.704 26.0243C21.7363 26.0459 21.747 26.0567 21.7793 26.0567C21.9193 26.089 22.0162 26.1105 22.1885 26.1213C22.3177 26.132 22.4577 26.132 22.5869 26.1428C22.8883 26.1536 23.0822 26.1536 23.5129 26.1428C23.5452 26.1428 23.5882 26.1428 23.6313 26.1428C24.0512 26.1428 24.245 26.132 24.5465 26.1213C24.6757 26.1105 24.8157 26.1105 24.9449 26.0997C25.1279 26.0889 25.2248 26.0674 25.354 26.0351C25.3863 26.0243 25.4079 26.0243 25.4294 25.992C25.4402 25.9813 25.4617 25.9813 25.4832 25.9813C25.5155 25.9921 25.5586 26.0136 25.5909 26.0351C25.6124 26.0459 25.6232 26.0674 25.5909 26.089C25.5586 26.1105 25.3756 26.132 25.2356 26.1428C25.0849 26.1536 24.9449 26.1643 24.7942 26.1643C24.6326 26.1751 24.4711 26.1751 24.3096 26.1751C24.0727 26.1966 23.8466 26.1966 23.6205 26.1966ZM23.6098 26.0782C24.0727 26.0782 24.568 26.0782 25.0203 26.0243C25.2464 26.0028 25.311 25.8736 25.3217 25.7982C25.354 25.5398 24.9557 25.1953 24.7511 25.0768C24.4711 24.9261 24.2235 24.8077 23.8897 24.7215C23.8466 24.7107 23.8143 24.6569 23.8143 24.6246C23.8143 24.5923 23.8682 24.5493 23.9005 24.5385C24.0081 24.517 24.1158 24.517 24.2235 24.5385C24.3958 24.56 24.568 24.5923 24.7403 24.6461C24.9664 24.7107 25.2141 24.8292 25.4294 24.9584C25.7094 25.1307 25.957 25.346 26.1293 25.626C26.2585 25.8198 26.3446 26.0782 26.3554 26.2935C26.3554 26.5627 26.2585 26.8211 26.1077 27.0472C25.9678 27.2626 25.774 27.4456 25.5586 27.5964C25.3648 27.7363 25.1495 27.844 24.9234 27.9409C24.7295 28.0163 24.525 28.0701 24.3204 28.1024C24.1912 28.124 24.062 28.1347 23.9328 28.1132C23.9005 28.1024 23.8466 28.0701 23.8359 28.0378C23.8359 27.9947 23.8574 27.9517 23.9005 27.9409C24.0081 27.9086 24.1912 27.844 24.3204 27.7902C24.4819 27.7148 24.6542 27.6394 24.8049 27.5425C24.9556 27.4456 25.1064 27.3272 25.2033 27.1764C25.2571 27.1011 25.311 26.9934 25.3217 26.9072C25.3217 26.8534 25.3217 26.7996 25.3002 26.7565C25.2033 26.595 24.9234 26.6058 24.7188 26.595C24.525 26.5843 24.3419 26.5842 24.1589 26.5842C23.9651 26.5842 23.7497 26.5842 23.5559 26.5842C23.3621 26.5842 23.136 26.595 22.9529 26.595C22.7591 26.6058 22.5761 26.6058 22.3931 26.6165C22.1885 26.6273 21.9085 26.6273 21.8116 26.7888C21.7901 26.8319 21.7901 26.8965 21.7901 26.9395C21.8009 27.0149 21.8547 27.1226 21.9086 27.2087C22.0055 27.3487 22.1562 27.4672 22.3177 27.5641C22.4684 27.661 22.6407 27.7363 22.813 27.8117C22.9422 27.8655 23.1252 27.9194 23.2329 27.9517C23.2652 27.9624 23.2975 28.0055 23.2975 28.0486C23.2975 28.0809 23.2437 28.1239 23.2006 28.1239C23.0714 28.1455 22.9422 28.1347 22.813 28.1239C22.6084 28.0916 22.4038 28.0486 22.21 27.9732C21.9839 27.8871 21.7686 27.7794 21.5747 27.6502C21.3594 27.4994 21.1656 27.3272 21.0256 27.101C20.8749 26.8749 20.7672 26.6165 20.7672 26.3474C20.7672 26.132 20.8534 25.8736 20.9718 25.6798C21.1441 25.3999 21.381 25.1845 21.6609 25.0015C21.8762 24.8615 22.1239 24.743 22.3392 24.6784C22.5115 24.6246 22.673 24.5923 22.8453 24.56C22.953 24.5385 23.0606 24.5385 23.1683 24.56C23.2006 24.5708 23.2545 24.6138 23.2545 24.6461C23.2545 24.6892 23.2329 24.7323 23.1898 24.7431C22.856 24.8292 22.6084 24.9584 22.3285 25.1091C22.1239 25.2276 21.7363 25.5721 21.7686 25.8305C21.7794 25.9059 21.8439 26.0351 22.0808 26.0567C22.5438 26.0997 23.0391 26.089 23.5129 26.089C23.5344 26.0782 23.5775 26.0782 23.6098 26.0782Z" fill="#D4D5D5"/>
<path fill-rule="evenodd" clip-rule="evenodd" d="M23.5343 26.3151C23.8573 26.3151 24.1696 26.3151 24.4926 26.3043C24.6111 26.3043 24.7295 26.3043 24.8479 26.3043C24.9664 26.3043 25.074 26.3043 25.1925 26.3043C25.354 26.3151 25.537 26.2935 25.677 26.3581C25.7524 26.3904 25.7739 26.4443 25.7847 26.5196C25.7847 26.5304 25.7847 26.5304 25.7847 26.5304C25.7847 26.6488 25.7093 26.7781 25.6662 26.8857C25.5909 27.0365 25.4724 27.1764 25.3432 27.3056C25.1279 27.521 24.6972 27.7686 24.2342 27.8871C24.1696 27.9086 24.0942 27.9301 24.0296 27.9517C23.9758 27.9624 23.9973 27.9947 24.0296 27.984C24.105 27.9732 24.1804 27.9625 24.245 27.9409C24.7726 27.8117 25.1386 27.5964 25.3863 27.3918C25.537 27.2733 25.6985 27.1011 25.7954 26.918C25.86 26.7996 25.9354 26.595 25.9462 26.5196C25.957 26.4227 25.9677 26.3796 25.9677 26.2289C25.9569 25.9705 25.8708 25.7659 25.7201 25.5398C25.7093 25.5183 25.6985 25.5075 25.6878 25.4968C25.6878 25.486 25.677 25.4752 25.6878 25.4644C25.6985 25.4644 25.7201 25.4752 25.7308 25.486C25.8493 25.6259 25.9246 25.7336 25.9892 25.8736C26.0754 26.0566 26.0969 26.1966 26.1184 26.3581C26.1184 26.3904 26.1507 26.4012 26.1615 26.3474C26.1723 26.1751 26.1292 25.9921 26.0538 25.8198C25.9677 25.626 25.8816 25.529 25.7631 25.3891C25.6232 25.2491 25.4616 25.1091 25.2894 25.0015C25.031 24.84 24.7618 24.7323 24.4818 24.6461C24.3634 24.6138 24.245 24.5923 24.1158 24.5708C24.0835 24.5708 24.0404 24.5708 23.9973 24.5708C23.965 24.5708 23.9435 24.6031 23.9973 24.6138C24.0727 24.6354 24.1481 24.6462 24.2234 24.6677C24.5034 24.7431 24.7833 24.8507 25.031 25.0122C25.2355 25.1415 25.3432 25.2061 25.5801 25.5183C25.6124 25.5614 25.677 25.669 25.7093 25.7444C25.7308 25.7982 25.7739 25.8951 25.7739 25.9597C25.7631 26.0243 25.7524 26.0674 25.6985 26.0997C25.5909 26.1643 25.4939 26.1751 25.3432 26.1751C25.2355 26.1751 25.1279 26.1859 25.0202 26.1859C24.8587 26.1859 24.7079 26.1966 24.5464 26.1966C24.2127 26.2074 23.8681 26.2074 23.5236 26.2074C23.4913 26.2074 23.4482 26.2074 23.4159 26.2074C23.0713 26.2074 22.716 26.2074 22.3715 26.2074C22.21 26.2074 22.0592 26.2074 21.8977 26.2074C21.7901 26.2074 21.6824 26.2074 21.5747 26.2074C21.424 26.2074 21.3271 26.1966 21.2194 26.132C21.1656 26.0997 21.1548 26.0566 21.144 25.992C21.144 25.9274 21.1763 25.8305 21.1979 25.7767C21.2302 25.6906 21.2948 25.5937 21.3271 25.5398C21.5639 25.2276 21.6716 25.163 21.8654 25.023C22.1131 24.8615 22.3822 24.7431 22.6622 24.6677C22.7376 24.6462 22.8129 24.6246 22.8883 24.6031C22.9421 24.5923 22.9098 24.56 22.8883 24.56C22.856 24.56 22.8129 24.56 22.7699 24.5708C22.6514 24.5816 22.5222 24.6138 22.4145 24.6461C22.1346 24.7323 21.8654 24.84 21.607 25.0122C21.4455 25.1199 21.2732 25.2599 21.144 25.3998C21.0256 25.5398 20.9395 25.6475 20.8641 25.8413C20.7995 26.0028 20.7564 26.1966 20.7672 26.3689C20.7672 26.4227 20.7995 26.4012 20.8102 26.3689C20.821 26.2074 20.8425 26.0674 20.9287 25.8844C20.9933 25.7444 21.0579 25.6259 21.1763 25.486C21.1871 25.4752 21.2086 25.4537 21.2194 25.4644C21.2302 25.4752 21.2194 25.486 21.2194 25.4968C21.2086 25.5183 21.1979 25.5291 21.1871 25.5506C21.0363 25.7875 20.961 25.9921 20.9502 26.2505C20.9502 26.4012 20.961 26.455 20.9717 26.5412C20.9825 26.6165 21.0579 26.8104 21.1333 26.9288C21.2409 27.1118 21.4024 27.2733 21.5532 27.3918C21.8116 27.5964 22.1777 27.8009 22.7053 27.9194C22.7699 27.9301 22.856 27.9517 22.9206 27.9624C22.9529 27.9624 22.9744 27.9409 22.9206 27.9301C22.856 27.9194 22.7806 27.8871 22.716 27.8763C22.2638 27.7578 21.8224 27.521 21.5962 27.3164C21.467 27.198 21.3378 27.058 21.2625 26.9072C21.2086 26.7996 21.1333 26.6704 21.1333 26.5519V26.5412C21.144 26.4658 21.1655 26.412 21.2409 26.3689C21.3701 26.3043 21.5532 26.3151 21.7147 26.3043C21.8331 26.3043 21.9408 26.3043 22.0592 26.3043C22.1777 26.3043 22.2961 26.3043 22.4145 26.3043C22.7375 26.3043 23.0713 26.2935 23.3943 26.2935C23.4589 26.315 23.502 26.3151 23.5343 26.3151ZM23.5343 26.1966C23.502 26.1966 23.4589 26.1966 23.4266 26.1966C23.1898 26.1966 22.9637 26.1966 22.7376 26.1966C22.5761 26.1966 22.4145 26.1966 22.253 26.1966C22.1023 26.1966 21.9623 26.1859 21.8116 26.1859C21.6716 26.1751 21.4886 26.1535 21.4563 26.132C21.4347 26.1212 21.4455 26.089 21.4563 26.0782C21.4886 26.0567 21.5209 26.0351 21.5639 26.0136C21.5747 26.0028 21.607 26.0136 21.6178 26.0243C21.6501 26.0459 21.6608 26.0567 21.6931 26.0567C21.8331 26.089 21.93 26.1105 22.1023 26.1213C22.2315 26.132 22.3715 26.132 22.5007 26.1428C22.8022 26.1536 22.996 26.1536 23.4266 26.1428C23.4697 26.1428 23.502 26.1428 23.5451 26.1428C23.965 26.1428 24.1588 26.132 24.4603 26.1213C24.5895 26.1105 24.7295 26.1105 24.8587 26.0997C25.0417 26.0889 25.1386 26.0674 25.2679 26.0351C25.3002 26.0243 25.3217 26.0243 25.3432 25.992C25.354 25.9813 25.3755 25.9813 25.3971 25.9813C25.4294 25.9921 25.4724 26.0136 25.5047 26.0351C25.5263 26.0459 25.537 26.0674 25.5047 26.089C25.4724 26.1105 25.2894 26.132 25.1494 26.1428C24.9987 26.1536 24.8587 26.1643 24.7079 26.1643C24.5464 26.1751 24.3849 26.1751 24.2234 26.1751C23.9866 26.1966 23.7604 26.1966 23.5343 26.1966ZM23.5236 26.0782C23.9866 26.0782 24.4819 26.0782 24.9341 26.0243C25.1602 26.0028 25.2248 25.8736 25.2356 25.7982C25.2679 25.5398 24.8695 25.1953 24.6649 25.0768C24.3849 24.9261 24.1373 24.8077 23.8035 24.7215C23.7604 24.7107 23.7281 24.6569 23.7281 24.6246C23.7281 24.5923 23.782 24.5493 23.8143 24.5385C23.922 24.517 24.0296 24.517 24.1373 24.5385C24.3096 24.56 24.4818 24.5923 24.6541 24.6461C24.8802 24.7107 25.1279 24.8292 25.3432 24.9584C25.6231 25.1307 25.8708 25.346 26.0431 25.626C26.1723 25.8198 26.2584 26.0782 26.2692 26.2935C26.2692 26.5627 26.1723 26.8211 26.0215 27.0472C25.8816 27.2626 25.6878 27.4456 25.4724 27.5964C25.2786 27.7363 25.0633 27.844 24.8371 27.9409C24.6433 28.0163 24.4388 28.0701 24.2342 28.1024C24.105 28.124 23.9758 28.1347 23.8466 28.1132C23.8143 28.1024 23.7604 28.0701 23.7497 28.0378C23.7497 27.9947 23.7712 27.9517 23.8143 27.9409C23.922 27.9086 24.105 27.844 24.2342 27.7902C24.3957 27.7148 24.568 27.6394 24.7187 27.5425C24.8695 27.4456 25.0202 27.3272 25.1171 27.1764C25.1709 27.1011 25.2248 26.9934 25.2356 26.9072C25.2356 26.8534 25.2355 26.7996 25.214 26.7565C25.1171 26.595 24.8372 26.6058 24.6326 26.595C24.4388 26.5843 24.2557 26.5842 24.0727 26.5842C23.8789 26.5842 23.6528 26.5842 23.4697 26.5842C23.2759 26.5842 23.0498 26.595 22.8668 26.595C22.673 26.6058 22.4899 26.6058 22.3069 26.6165C22.1023 26.6273 21.8224 26.6273 21.7254 26.7888C21.7039 26.8319 21.7039 26.8965 21.7039 26.9395C21.7147 27.0149 21.7685 27.1226 21.8223 27.2087C21.9193 27.3487 22.07 27.4672 22.2315 27.5641C22.3822 27.661 22.5545 27.7363 22.7268 27.8117C22.856 27.8655 23.039 27.9194 23.1467 27.9517C23.179 27.9624 23.2113 28.0055 23.2113 28.0486C23.2113 28.0809 23.1575 28.1239 23.1144 28.1239C22.9852 28.1455 22.856 28.1347 22.7268 28.1239C22.5222 28.0916 22.3176 28.0486 22.1238 27.9732C21.8977 27.8871 21.6824 27.7794 21.4886 27.6502C21.2732 27.4994 21.0794 27.3272 20.9394 27.101C20.7887 26.8749 20.681 26.6165 20.681 26.3474C20.681 26.132 20.7672 25.8736 20.8856 25.6798C21.0579 25.3999 21.2947 25.1845 21.5747 25.0015C21.79 24.8615 22.0377 24.743 22.253 24.6784C22.4253 24.6246 22.5868 24.5923 22.7591 24.56C22.8668 24.5385 22.9744 24.5385 23.0821 24.56C23.1144 24.5708 23.1682 24.6138 23.1682 24.6461C23.1682 24.6892 23.1467 24.7323 23.1036 24.7431C22.7699 24.8292 22.5222 24.9584 22.2423 25.1091C22.0377 25.2276 21.6501 25.5721 21.6824 25.8305C21.6931 25.9059 21.7577 26.0351 21.9946 26.0567C22.4576 26.0997 22.9529 26.089 23.4266 26.089C23.4589 26.0782 23.4913 26.0782 23.5236 26.0782Z" fill="#D4D5D5"/>
<path fill-rule="evenodd" clip-rule="evenodd" d="M36.0135 34.821C36.3258 34.9179 38.3608 34.7241 42.1401 34.2503L42.0862 30.7402C39.5452 30.1911 37.6502 30.0942 36.4012 30.428L36.0135 34.821Z" fill="#E9EAEA"/>
<path fill-rule="evenodd" clip-rule="evenodd" d="M42.097 30.7401C41.9894 24.0214 41.9463 20.6406 41.9463 20.5975C41.9247 19.4454 41.9247 18.8747 41.9247 18.8747C41.9247 18.6056 41.914 18.4656 41.914 18.4656C42.0109 18.0564 42.0647 17.6257 42.0862 17.152C42.1616 15.8707 42.0432 15.1493 41.7525 14.9878C41.3864 8.21523 40.848 4.03757 40.1374 2.44403C38.5546 1.64726 37.5425 1.24889 37.101 1.24889C36.4766 0.785906 35.949 0.549035 35.5183 0.549035C27.486 0.355226 23.4806 0.258301 23.4806 0.258301V30.7401H42.097Z" fill="#E9EAEA"/>
<path d="M41.5156 40.7429H36.918V47.4401H41.5156V40.7429Z" fill="#393A39"/>
<path fill-rule="evenodd" clip-rule="evenodd" d="M41.9785 40.3768C41.9678 41.1413 41.957 41.9165 41.957 42.681C38.35 42.7025 36.5411 42.7133 36.5411 42.7133C36.5411 41.3566 36.5411 40.6783 36.5411 40.6783L41.9785 40.3768Z" fill="black"/>
<path fill-rule="evenodd" clip-rule="evenodd" d="M23.4698 30.7401H42.0971C42.0971 30.4064 42.0863 30.0833 42.0863 29.7603C41.7094 29.7711 41.3541 29.7711 41.0096 29.7819C40.0298 29.8034 39.2115 29.8142 38.5547 29.825C37.2195 29.8465 36.5519 29.868 36.5519 29.868C36.5842 25.5934 36.6058 23.4616 36.6058 23.4616C36.595 22.6756 36.3043 22.2771 35.7337 22.2556C32.6435 22.331 29.4779 22.3741 26.3124 22.3956C26.517 22.6971 26.6892 23.0201 26.8292 23.3754C28.9503 23.3431 32.062 23.2893 36.1859 23.2247C36.2074 24.7752 35.8413 25.5288 35.0768 25.4965C33.7094 25.5504 33.0311 25.5827 33.0311 25.5827C33.0096 25.1305 32.7081 24.9259 32.1267 24.9367C29.7902 24.9797 27.9275 25.012 26.5385 25.0336C26.3124 25.3996 26.0217 25.7226 25.6664 26.0241C24.9342 26.0672 24.202 26.0995 23.4806 26.0995V30.7401H23.4698Z" fill="#6A6C6C"/>
<path fill-rule="evenodd" clip-rule="evenodd" d="M36.6811 32.7323C36.6811 32.7323 36.6812 32.2801 36.6919 31.3649C38.91 31.2895 40.7081 31.0849 42.0971 30.7404H23.4698V34.455C25.7094 34.455 27.9382 34.4227 30.1347 34.3581C32.1051 34.4012 34.1939 34.3797 36.412 34.2935C36.3581 33.6475 36.4443 33.1307 36.6811 32.7323Z" fill="#6A6C6C"/>
<path fill-rule="evenodd" clip-rule="evenodd" d="M34.9153 41.1197C38.5654 41.3135 40.9127 41.0659 41.9786 40.366C42.0863 39.9784 42.1186 39.6123 42.0647 39.2463C43.0768 38.794 42.6892 34.8748 42.6892 33.9165C38.0486 34.2826 33.8709 34.4226 30.1347 34.358C27.9382 34.4226 25.7094 34.4549 23.4698 34.4549V41.3351C27.346 41.3351 31.2222 41.2597 34.9153 41.1197Z" fill="#788482"/>
<path fill-rule="evenodd" clip-rule="evenodd" d="M23.4698 15.9247V2.39038C23.4698 2.39038 28.4228 2.44422 38.3178 2.56266C38.77 2.57343 39.1038 2.69185 39.3299 2.91796C40.5358 6.69724 40.8911 10.7026 40.342 14.6326C40.2882 15.2141 40.0405 15.5155 39.6098 15.5371C32.7834 15.817 27.3999 15.9462 23.4698 15.9247Z" fill="#2B253B"/>
<path fill-rule="evenodd" clip-rule="evenodd" d="M23.4698 43.2301C23.5775 43.2301 25.3972 43.2301 28.9503 43.2301C32.1159 43.4239 34.0109 42.724 34.6139 41.1305H23.4698V43.2301Z" fill="#393A39"/>
<path d="M29.4995 41.2275H23.4698V43.5425H29.4995V41.2275Z" fill="black"/>
<path fill-rule="evenodd" clip-rule="evenodd" d="M23.4698 37.2435C23.4698 37.2435 27.3352 37.1897 35.0552 37.0928C38.0916 37.1359 39.4482 36.4145 39.1252 34.9286C33.5909 35.187 28.358 35.3054 23.459 35.3054L23.4698 37.2435Z" fill="#2B253B"/>
<path fill-rule="evenodd" clip-rule="evenodd" d="M23.4698 25.0876C23.4698 25.0876 26.3554 25.0337 32.1159 24.9368C32.6973 24.9153 32.9988 25.1306 33.0203 25.5829C33.0203 25.5829 33.6986 25.5505 35.0661 25.4967C35.8305 25.529 36.2074 24.7646 36.1751 23.2249C27.7014 23.3648 23.4698 23.4294 23.4698 23.4294V25.0876Z" fill="#E9EAEA"/>
<path fill-rule="evenodd" clip-rule="evenodd" d="M38.5546 29.8357C38.5653 29.0282 39.6098 27.2193 41.6878 24.4091C41.9032 26.864 41.817 28.5329 41.4294 29.4373C41.2248 29.6204 41.0848 29.7388 41.0095 29.7926L38.5546 29.8357Z" fill="#FEC900"/>
<path fill-rule="evenodd" clip-rule="evenodd" d="M37.2734 24.2369C37.2734 24.2369 37.2626 25.9274 37.2303 29.319C37.2303 29.319 37.4456 29.1037 37.8763 28.6837C37.8763 28.6837 37.9409 26.498 38.0701 22.1158C38.0701 20.3392 39.5237 19.8762 40.8373 19.0364C39.696 19.3809 38.6408 19.8116 37.6933 20.3069C37.3379 20.856 37.1764 21.4913 37.2087 22.1481L37.2734 24.2369Z" fill="#D4D5D5"/>
<path d="M46.3607 4.82361H43.7766V11.2408H46.3607V4.82361Z" fill="#010101"/>
<path d="M46.3607 11.6394H43.7766V13.7713H46.3607V11.6394Z" fill="#010101"/>
<path fill-rule="evenodd" clip-rule="evenodd" d="M40.8587 4.48981C41.0202 4.24216 41.2679 4.02683 41.6124 3.86532C41.9678 3.69305 42.4307 3.57462 42.9906 3.49925C43.3029 3.48848 43.6044 3.4777 43.9059 3.48847C44.1966 3.48847 44.4873 3.49926 44.7888 3.51002C44.8857 3.57463 44.9287 3.68228 44.9287 3.83302L45.1764 14.2341C45.1333 14.331 45.0472 14.4064 44.9287 14.4818C44.7672 14.5679 44.5411 14.6217 44.2612 14.6648L40.9449 14.6433V15.0309L44.3042 15.0524H44.315C44.6488 15.0094 44.9287 14.934 45.1333 14.8263C45.3594 14.7079 45.5102 14.5356 45.5855 14.331L45.5963 14.2987L45.3487 3.8438C45.3594 3.52079 45.241 3.28388 44.9718 3.14391L44.9395 3.12239H44.8964C44.5842 3.10085 44.2719 3.10086 43.9489 3.09009C43.6367 3.09009 43.3137 3.0901 43.0014 3.10087H42.9799C42.3769 3.17624 41.8709 3.3162 41.4725 3.49925C41.0633 3.69305 40.7511 3.95146 40.5573 4.2637L40.8587 4.48981Z" fill="#010101"/>
<path fill-rule="evenodd" clip-rule="evenodd" d="M23.4698 29.2114C23.4698 29.2114 26.3554 29.1575 32.1159 29.0606C32.6973 29.0391 32.9988 29.2544 33.0203 29.7066C33.0203 29.7066 33.6986 29.6744 35.0661 29.6205C35.8305 29.6528 36.2074 28.8883 36.1751 27.3486C27.7014 27.4886 23.4698 27.5532 23.4698 27.5532V29.2114Z" fill="#E9EAEA"/>
<path fill-rule="evenodd" clip-rule="evenodd" d="M23.4698 33.1198C23.4698 33.1198 26.3554 33.066 32.1159 32.9691C32.6973 32.9475 32.9988 33.1629 33.0203 33.6151C33.0203 33.6151 33.6986 33.5828 35.0661 33.5289C35.8305 33.5612 36.2074 32.7968 36.1751 31.2571C27.7014 31.3971 23.4698 31.4617 23.4698 31.4617V33.1198Z" fill="#E9EAEA"/>
<path fill-rule="evenodd" clip-rule="evenodd" d="M23.4698 26.0995V21.2435C24.6865 21.2543 25.3003 21.2543 25.3003 21.2543C26.097 21.9434 26.6677 22.8155 27.0123 23.8815C26.8077 24.7105 26.3555 25.4212 25.6664 26.0134C24.9342 26.0672 24.202 26.0995 23.4698 26.0995Z" fill="#2B253B"/>
<path fill-rule="evenodd" clip-rule="evenodd" d="M36.6488 37.9005C39.9113 38.1589 42.6354 38.4711 42.0647 34.6165C41.4402 34.6918 40.8049 34.778 40.1804 34.8856C35.4537 35.564 35.8628 37.9866 36.6488 37.9005Z" fill="white"/>
<path fill-rule="evenodd" clip-rule="evenodd" d="M23.5559 23.6877C23.8789 23.6877 24.1912 23.6877 24.5142 23.6769C24.6326 23.6769 24.7511 23.6769 24.8695 23.6769C24.988 23.6769 25.0956 23.6769 25.214 23.6769C25.3755 23.6877 25.5586 23.6662 25.6986 23.7308C25.7739 23.7631 25.7955 23.8169 25.8063 23.8923C25.8063 23.903 25.8063 23.9031 25.8063 23.9031C25.8063 24.0215 25.7309 24.1507 25.6878 24.2584C25.6124 24.4091 25.494 24.5491 25.3648 24.6783C25.1494 24.8936 24.708 25.1413 24.2558 25.2597C24.1912 25.2812 24.1158 25.3028 24.0512 25.3135C23.9974 25.3243 24.0189 25.3566 24.0512 25.3458C24.1266 25.3351 24.2019 25.3243 24.2665 25.3028C24.7941 25.1736 25.1602 24.9582 25.4079 24.7536C25.5586 24.6352 25.7201 24.4629 25.817 24.2799C25.8816 24.1614 25.957 23.9569 25.9678 23.8815C25.9785 23.7846 25.9893 23.7415 25.9893 23.5908C25.9785 23.3324 25.8924 23.1278 25.7417 22.9017C25.7309 22.8801 25.7201 22.8694 25.7094 22.8586C25.7094 22.8479 25.6986 22.8371 25.7094 22.8263C25.7201 22.8263 25.7416 22.8371 25.7524 22.8479C25.8816 22.9878 25.9462 23.0955 26.0108 23.2355C26.097 23.4185 26.1185 23.5585 26.14 23.72C26.14 23.7523 26.1723 23.7631 26.1831 23.7092C26.1938 23.5369 26.1508 23.3431 26.0754 23.1816C25.9893 22.9878 25.9031 22.8909 25.7847 22.751C25.6447 22.611 25.4832 22.471 25.3109 22.3633C25.0525 22.2018 24.7833 22.0942 24.5034 22.008C24.385 21.9757 24.2665 21.9542 24.1373 21.9326C24.105 21.9326 24.062 21.9326 24.0189 21.9326C23.9866 21.9326 23.9651 21.965 24.0189 21.9757C24.0943 21.9973 24.1696 22.008 24.245 22.0295C24.5249 22.1049 24.8049 22.2126 25.0525 22.3741C25.2571 22.5033 25.3648 22.5679 25.6017 22.8802C25.634 22.9232 25.6986 23.0309 25.7309 23.1063C25.7524 23.1601 25.7955 23.257 25.7955 23.3216C25.7847 23.3862 25.7739 23.4293 25.7201 23.4616C25.6124 23.5262 25.5155 23.5369 25.3648 23.5369C25.2571 23.5369 25.1494 23.5477 25.0418 23.5477C24.8803 23.5477 24.7295 23.5585 24.568 23.5585C24.2342 23.5693 23.8897 23.5692 23.5451 23.5692H23.459V23.5369H23.5451C23.7713 23.5369 23.9974 23.537 24.2235 23.5262C24.385 23.5262 24.5465 23.5154 24.708 23.5154C24.8587 23.5154 24.9987 23.5047 25.1494 23.4939C25.2894 23.4831 25.4725 23.4616 25.5048 23.44C25.5263 23.4185 25.5155 23.397 25.5048 23.3862C25.4725 23.3647 25.4402 23.3431 25.3971 23.3324C25.3863 23.3216 25.354 23.3324 25.3432 23.3431C25.3109 23.3647 25.3002 23.3755 25.2679 23.3862C25.1279 23.4185 25.031 23.4401 24.8587 23.4508C24.7295 23.4616 24.5896 23.4723 24.4604 23.4723C24.1589 23.4831 23.9758 23.4831 23.5451 23.4939H23.459V23.4185H23.5451C24.0081 23.4185 24.5034 23.4185 24.9556 23.3647C25.1817 23.3432 25.2463 23.2139 25.2571 23.1386C25.2894 22.8801 24.891 22.5356 24.6865 22.4172C24.4065 22.2664 24.1589 22.148 23.8251 22.0618C23.782 22.0511 23.7497 21.9972 23.7497 21.9649C23.7497 21.9326 23.8035 21.8896 23.8358 21.8788C23.9435 21.8573 24.0512 21.8573 24.1589 21.8788C24.3312 21.9004 24.5034 21.9326 24.6757 21.9865C24.9018 22.0511 25.1494 22.1695 25.3648 22.2987C25.6447 22.471 25.8924 22.6863 26.0647 22.9663C26.1939 23.1601 26.28 23.4185 26.2908 23.6339C26.2908 23.9031 26.1939 24.1614 26.0431 24.3876C25.9032 24.6029 25.7093 24.786 25.494 24.9367C25.3002 25.0767 25.0848 25.1843 24.8587 25.2812C24.6649 25.3566 24.4604 25.4104 24.2558 25.4427C24.1266 25.4643 23.9973 25.475 23.8681 25.4535C23.8358 25.4427 23.782 25.4105 23.7712 25.3781C23.7712 25.3351 23.7928 25.292 23.8358 25.2812C23.9435 25.2489 24.1266 25.1843 24.2558 25.1305C24.4173 25.0551 24.5895 24.9797 24.7403 24.8828C24.891 24.7859 25.0418 24.6675 25.1387 24.5168C25.1925 24.4414 25.2463 24.3337 25.2571 24.2476C25.2571 24.1937 25.2571 24.1399 25.2356 24.0969C25.1387 23.9353 24.8587 23.9461 24.6542 23.9354C24.4603 23.9246 24.2773 23.9246 24.0943 23.9246C23.9005 23.9246 23.6851 23.9246 23.4913 23.9246H23.459V23.6662L23.5559 23.6877Z" fill="#D4D5D5"/>
<path d="M24.3418 0H23.0067V45.4374H24.3418V0Z" fill="white"/>
</svg>
