<svg width="35" height="43" viewBox="0 0 35 43" fill="none" xmlns="http://www.w3.org/2000/svg">
<path d="M17.0195 40.0781V2.19604C34.588 2.19604 32.1175 20.3136 30.4704 25.8037C29.1528 30.1958 20.9541 37.15 17.0195 40.0781Z" fill="#BE071C"/>
<path d="M17.2364 41.1761L17.5686 3.29407C-0.266796 3.29407 2.24131 21.4116 3.91338 26.9017C5.25103 31.2939 13.2421 38.2481 17.2364 41.1761Z" fill="#DC0921"/>
<path d="M17.0195 0C7.63547 0 0.000187292 7.5861 0.000187292 16.8991C-0.0615076 30.522 15.1388 41.4266 15.7856 41.881C16.1558 42.1431 16.5876 42.2742 17.0195 42.2742C17.4513 42.2742 17.8832 42.1431 18.2534 41.881C18.9001 41.4266 34.1005 30.522 34.0388 16.9097C34.0388 7.5861 26.4035 0 17.0195 0ZM17.0195 37.4866C13.5922 34.7219 4.21033 26.2967 4.25501 16.9097C4.25501 9.91541 9.97987 4.22742 17.0195 4.22742C24.0591 4.22742 29.7839 9.91541 29.7839 16.9202C29.8286 26.2988 20.4489 34.724 17.0195 37.4866Z" fill="#DC0921"/>
<mask id="mask0" mask-type="alpha" maskUnits="userSpaceOnUse" x="0" y="0" width="35" height="43">
<path d="M17.0195 0C7.63547 0 0.000187292 7.5861 0.000187292 16.8991C-0.0615076 30.522 15.1388 41.4266 15.7856 41.881C16.1558 42.1431 16.5876 42.2742 17.0195 42.2742C17.4513 42.2742 17.8832 42.1431 18.2534 41.881C18.9001 41.4266 34.1005 30.522 34.0388 16.9097C34.0388 7.5861 26.4035 0 17.0195 0ZM17.0195 37.4866C13.5922 34.7219 4.21033 26.2967 4.25501 16.9097C4.25501 9.91541 9.97987 4.22742 17.0195 4.22742C24.0591 4.22742 29.7839 9.91541 29.7839 16.9202C29.8286 26.2988 20.4489 34.724 17.0195 37.4866Z" fill="#DC0921"/>
</mask>
<g mask="url(#mask0)">
<rect x="17.0195" y="-2.19604" width="19.2155" height="46.6663" fill="#BE071C"/>
</g>
<circle cx="17.0194" cy="15.9214" r="13.1764" fill="white"/>
<path fill-rule="evenodd" clip-rule="evenodd" d="M17.2932 15.6095C18.6095 15.5981 19.9289 15.5898 21.2447 15.5784C21.7352 15.5738 22.2257 15.5651 22.7162 15.5605C23.1888 15.5564 23.6528 15.561 24.1258 15.5564C24.789 15.5816 25.5534 15.5238 26.1002 15.7914C26.3965 15.9362 26.5014 16.1507 26.5582 16.4747C26.5586 16.4994 26.5614 16.5196 26.5655 16.5365C26.5527 17.0035 26.2655 17.5506 26.0567 17.9887C25.7562 18.6192 25.2364 19.1847 24.7079 19.6983C23.803 20.5777 22.0255 21.6014 20.1538 22.1087C19.9005 22.1774 19.5914 22.2832 19.3143 22.3534C19.1027 22.407 19.1778 22.5105 19.3157 22.4995C19.6152 22.4762 19.9514 22.3941 20.2179 22.3272C22.3919 21.781 23.8923 20.9099 24.9282 20.0686C25.5465 19.5664 26.1941 18.8547 26.6159 18.1124C26.9026 17.6079 27.1925 16.7886 27.23 16.4889C27.2795 16.0953 27.3308 15.8927 27.312 15.2695H27.307C27.2529 14.2142 26.9186 13.3743 26.298 12.4166C26.2536 12.3478 26.1932 12.2873 26.151 12.22C26.1309 12.1879 26.1075 12.1366 26.1313 12.083L26.1455 12.0738C26.1987 12.0532 26.2843 12.1224 26.3287 12.1719C26.8394 12.7369 27.1219 13.1969 27.3954 13.7752C27.7553 14.5373 27.8483 15.0894 27.9092 15.7649C27.9207 15.8895 28.059 15.9564 28.0686 15.7415C28.0997 15.0198 27.9376 14.255 27.6418 13.5823C27.2973 12.8001 26.9278 12.3716 26.4519 11.7938L26.4515 11.7943C26.4487 11.7915 26.4464 11.7883 26.4437 11.7856C25.8753 11.2013 25.1929 10.6464 24.5023 10.2097C23.4348 9.53473 22.3438 9.08932 21.1696 8.76764C20.691 8.63659 20.1881 8.53349 19.6844 8.47712C19.53 8.45971 19.3587 8.46521 19.2058 8.46154C19.0936 8.45879 18.9795 8.58068 19.2049 8.63246C19.514 8.70349 19.8144 8.77772 20.1245 8.8657C21.2804 9.19472 22.424 9.64058 23.4439 10.2904C24.2921 10.8311 24.7098 11.1083 25.7192 12.3662C25.835 12.5444 26.1121 12.9669 26.2623 13.3115C26.3654 13.547 26.5105 13.9264 26.5183 14.2064V14.2165C26.489 14.4933 26.4299 14.6811 26.2106 14.8113C25.7604 15.0784 25.3596 15.1018 24.7331 15.1307C24.2962 15.1508 23.8588 15.1605 23.4215 15.1692C22.7716 15.182 22.1368 15.1948 21.4806 15.2067C20.0846 15.2315 18.6814 15.2457 17.2841 15.2636C17.1348 15.2654 16.9855 15.2672 16.8362 15.2677C15.4096 15.2755 13.9761 15.2874 12.55 15.2874C11.8932 15.2874 11.2589 15.286 10.6086 15.2851C10.1712 15.2842 9.73384 15.2828 9.29647 15.2704C8.6695 15.253 8.26831 15.237 7.81354 14.9781C7.59187 14.8521 7.52959 14.6651 7.49524 14.3888V14.3787C7.49799 14.0987 7.63676 13.717 7.73522 13.4797C7.87948 13.1323 8.14832 12.7052 8.26098 12.5247C9.24747 11.249 9.65965 10.964 10.4982 10.4081C11.5062 9.74001 12.6416 9.27353 13.7911 8.9239C14.0998 8.82996 14.3988 8.75069 14.7061 8.6737C14.931 8.6178 14.8147 8.49866 14.7025 8.50324C14.5495 8.50966 14.3782 8.50737 14.2243 8.52753C13.7215 8.59306 13.2204 8.70532 12.7446 8.84463C11.5763 9.18738 10.4936 9.65249 9.43845 10.3467C8.7556 10.7958 8.08329 11.3631 7.52592 11.9574C7.52318 11.9602 7.52089 11.9634 7.51814 11.9661L7.51768 11.9657C7.05192 12.5517 6.69057 12.9871 6.36037 13.7757C6.07642 14.4534 5.92849 15.2209 5.97246 15.9422C5.98574 16.1571 6.12313 16.0875 6.13229 15.9628C6.1813 15.2865 6.26419 14.7325 6.61042 13.964C6.8733 13.3807 7.14763 12.9156 7.64775 12.3414C7.69126 12.2915 7.77552 12.2204 7.82911 12.2401L7.84376 12.2488C7.86849 12.3025 7.84605 12.3538 7.82636 12.3863C7.7856 12.4546 7.72652 12.516 7.68301 12.5856C7.07985 13.5548 6.7611 14.4003 6.72583 15.4565H6.72125C6.71347 16.0801 6.76843 16.2818 6.82522 16.6745C6.86827 16.9732 7.17282 17.7871 7.46868 18.2865C7.90376 19.0211 8.56416 19.7213 9.1916 20.212C10.2427 21.0341 11.7586 21.8782 13.9422 22.385C14.2097 22.4468 14.5472 22.5229 14.8472 22.5408C14.985 22.549 15.0583 22.4445 14.8458 22.3946C14.5674 22.3295 14.2564 22.2292 14.0022 22.165C12.1217 21.6921 10.3265 20.7005 9.40547 19.8377C8.86735 19.3336 8.33792 18.7778 8.02604 18.1527C7.80941 17.7188 7.51219 17.1767 7.49066 16.7102C7.49432 16.6933 7.49661 16.6731 7.49661 16.6483C7.54791 16.3235 7.64866 16.1072 7.94223 15.9569C8.48448 15.6796 9.2493 15.7232 9.912 15.6861C10.3846 15.6819 10.8486 15.6686 11.3212 15.6645C11.8117 15.6599 12.3022 15.6599 12.7927 15.6558C14.141 15.6434 15.4929 15.6274 16.8417 15.615C16.9919 15.6137 17.1426 15.6123 17.2928 15.6109L17.2932 15.6095ZM17.2781 15.127C18.2129 15.1151 19.1485 15.1142 20.0681 15.0949C20.7354 15.0812 21.4119 15.0651 22.0787 15.0413C22.68 15.0202 23.2754 14.9909 23.8808 14.9451C24.4519 14.902 25.2273 14.8012 25.3583 14.71C25.4544 14.6431 25.4183 14.5524 25.3386 14.4887C25.2145 14.3893 25.0537 14.3059 24.9044 14.2509C24.8403 14.2275 24.7464 14.2422 24.6942 14.2861C24.5811 14.381 24.5165 14.408 24.3768 14.4465C23.8199 14.6 23.4192 14.6642 22.6805 14.7279C22.1309 14.7751 21.5735 14.8122 21.0272 14.8337C19.7824 14.8828 19.018 14.8997 17.2768 14.9162C17.1215 14.9176 16.9658 14.919 16.8101 14.9203C15.0253 14.9359 14.2573 14.9327 12.9974 14.9061C12.4506 14.8942 11.8923 14.8672 11.3423 14.8301C10.6026 14.7801 10.201 14.7233 9.64133 14.5794C9.50119 14.5432 9.4357 14.5176 9.32075 14.425C9.26762 14.3824 9.17373 14.3691 9.11007 14.3938C8.96169 14.4511 8.80277 14.5377 8.68049 14.6394C8.60218 14.7045 8.56737 14.7957 8.66492 14.8612C8.79728 14.9497 9.57447 15.0367 10.1465 15.0693C10.7524 15.1041 11.3482 15.1224 11.95 15.133C12.6173 15.1444 13.2937 15.1485 13.961 15.1504C14.9017 15.1531 15.8584 15.1362 16.8142 15.1316C16.969 15.1307 17.1238 15.1293 17.2786 15.127H17.2781ZM17.258 14.6262C19.1728 14.6051 21.2035 14.617 23.0867 14.4039C24.0356 14.2967 24.3003 13.7922 24.337 13.4613C24.4565 12.3762 22.8293 10.9644 21.9788 10.5117C20.8284 9.89902 19.7915 9.41467 18.4245 9.06275C18.2486 9.01738 18.1341 8.81622 18.1327 8.65721C18.1314 8.5147 18.3461 8.3424 18.4845 8.30849C18.9099 8.20264 19.3597 8.22601 19.8094 8.28741C20.5289 8.38593 21.2172 8.51836 21.9225 8.72274C22.8527 8.99218 23.8703 9.46187 24.7583 10.0081C25.9115 10.717 26.9094 11.6156 27.6376 12.7492C28.151 13.5489 28.5398 14.5941 28.5485 15.4817C28.5595 16.5773 28.1469 17.6551 27.5483 18.5949C26.9736 19.4976 26.1808 20.2326 25.3083 20.8769C24.5174 21.4612 23.6189 21.9102 22.7061 22.2755C21.9129 22.5926 21.0771 22.7887 20.2344 22.9275C19.6981 23.016 19.176 23.0577 18.6393 22.9729C18.4987 22.9509 18.2655 22.79 18.2509 22.6485C18.2344 22.4908 18.3484 22.302 18.5 22.2557C18.9507 22.1187 19.6963 21.8763 20.2362 21.6371C20.9223 21.3329 21.6244 21.0171 22.2481 20.5988C22.8678 20.1832 23.4751 19.697 23.8836 19.1072C24.108 18.7833 24.3416 18.3379 24.3612 18.0075C24.3736 17.8008 24.3741 17.5511 24.2669 17.3788C23.8524 16.7116 22.7084 16.7519 21.8543 16.7175C21.0748 16.6859 20.3118 16.6878 19.5314 16.6717C18.7469 16.6557 17.8245 16.6593 17.029 16.6557C16.2339 16.674 15.3116 16.6868 14.5275 16.7171C13.7471 16.7473 12.9846 16.7592 12.2056 16.8046C11.3523 16.8546 10.2079 16.8344 9.80529 17.5089C9.70133 17.6835 9.70636 17.9332 9.72239 18.1394C9.74804 18.4694 9.98985 18.9102 10.2198 19.23C10.6388 19.812 11.2548 20.2876 11.8818 20.6918C12.5129 21.0987 13.2204 21.4016 13.912 21.6935C14.4561 21.9235 15.2062 22.1522 15.6592 22.281C15.8117 22.3245 15.9289 22.511 15.9152 22.6691C15.9028 22.8111 15.6729 22.9761 15.5328 23.0008C14.9974 23.0952 14.4748 23.0627 13.9372 22.9843C13.0917 22.8611 12.2532 22.6796 11.454 22.3772C10.5344 22.0289 9.62851 21.5959 8.82704 21.0263C7.94314 20.3981 7.1371 19.6773 6.54631 18.7851C5.93078 17.8562 5.49891 16.7858 5.49021 15.6902C5.48334 14.8026 5.85293 13.7505 6.35167 12.9417C7.05924 11.7947 8.04024 10.8787 9.1806 10.1488C10.0585 9.58696 11.0675 9.09849 11.9926 8.81255C12.6938 8.59581 13.3798 8.451 14.0975 8.33919C14.5458 8.26954 14.9951 8.23792 15.4229 8.33644C15.5616 8.36806 15.7792 8.53669 15.7805 8.6792C15.7819 8.83821 15.6711 9.04121 15.4961 9.08978C14.1355 9.46645 13.1078 9.96913 11.9688 10.6029C11.1266 11.0712 9.52546 12.5119 9.66423 13.5947C9.70636 13.9251 9.98024 14.4245 10.9315 14.5148C12.8357 14.6954 14.8852 14.644 16.8156 14.6312C16.9635 14.6303 17.1114 14.6289 17.2594 14.6271L17.258 14.6262Z" fill="#DC0921"/>
</svg>
