<svg width="48" height="49" viewBox="0 0 48 49" fill="none" xmlns="http://www.w3.org/2000/svg">
<path d="M24 49C37.2548 49 48 38.2548 48 25C48 11.7452 37.2548 1 24 1C10.7452 1 0 11.7452 0 25C0 38.2548 10.7452 49 24 49Z" fill="#940A0A"/>
<path d="M23.039 48C33.8439 48 42.603 47.6722 42.603 47.2678C42.603 46.8634 33.8439 46.5356 23.039 46.5356C12.2342 46.5356 3.4751 46.8634 3.4751 47.2678C3.4751 47.6722 12.2342 48 23.039 48Z" fill="black" stroke="black" stroke-width="0.5669" stroke-miterlimit="22.9256"/>
<path fill-rule="evenodd" clip-rule="evenodd" d="M4.49792 0H23.0498H23.8788H42.4307V26.9394H23.8788H23.0498H4.49792V0Z" fill="#E50B14"/>
<path fill-rule="evenodd" clip-rule="evenodd" d="M40.6433 15.7309C40.7295 14.3634 40.5464 11.6824 40.1158 7.70935C39.7604 7.70935 39.5774 7.70935 39.5774 7.70935C39.9542 13.4267 40.1481 16.2908 40.1481 16.2908L40.6433 15.7309Z" fill="#393A39"/>
<path fill-rule="evenodd" clip-rule="evenodd" d="M10.7214 47.3217V39.0094V38.3849C10.6675 38.3849 10.6137 38.3849 10.5599 38.3849C9.3324 38.3742 8.09418 38.3634 6.86672 38.3418C6.01612 37.685 5.47776 36.6084 5.25165 35.101H5.13319C5.05782 35.2194 4.97169 35.3055 4.86401 35.3701V47.3217H10.7214ZM36.2072 38.3849V39.0094V47.3217H42.0646V35.3701C41.9569 35.3163 41.8708 35.2302 41.7954 35.101H41.6769C41.4508 36.6084 40.9125 37.685 40.0619 38.3418C38.8344 38.3634 37.5962 38.3742 36.3687 38.3849C36.3149 38.3849 36.2611 38.3849 36.2072 38.3849Z" fill="#393A39"/>
<path fill-rule="evenodd" clip-rule="evenodd" d="M23.5558 42.0134C26.8721 42.0134 30.1884 41.9273 33.4939 41.755C34.7752 41.292 35.7658 40.2691 36.1965 38.9986V38.3741C31.9434 38.4064 27.7012 38.3957 23.4481 38.3311C19.1951 38.3849 14.9529 38.4064 10.6998 38.3741V38.9986C11.1305 40.2691 12.1211 41.292 13.4024 41.755C16.7941 41.9273 20.1749 42.0134 23.5558 42.0134Z" fill="black"/>
<path fill-rule="evenodd" clip-rule="evenodd" d="M14.7806 34.3688C20.5518 34.3042 26.3768 34.3042 32.148 34.3688C32.3741 34.3473 32.9232 35.2948 33.7846 37.2221C32.9663 36.2961 32.3203 35.8439 31.825 35.8547C26.2584 35.8116 20.6702 35.8116 15.1036 35.8547C14.6083 35.8439 13.9623 36.2961 13.144 37.2221C14.0053 35.2948 14.5437 34.3473 14.7806 34.3688ZM5.37006 31.8062C5.21932 32.1939 5.13318 32.7968 5.13318 33.6259C5.14395 34.0889 5.17628 34.5196 5.23011 34.9179C5.24088 34.9825 5.25163 35.0472 5.25163 35.101C5.47774 36.6084 6.0161 37.6851 6.86671 38.3419C8.09417 38.3634 9.33238 38.3742 10.5598 38.385C10.6137 38.385 10.6675 38.385 10.7213 38.385C14.9744 38.4173 19.2166 38.4065 23.4697 38.3419C27.7119 38.3957 31.965 38.4173 36.218 38.385C36.2718 38.385 36.3257 38.385 36.3795 38.385C37.607 38.3742 38.8452 38.3634 40.0726 38.3419C40.9232 37.6851 41.4616 36.6084 41.6877 35.101C41.6985 35.0364 41.7092 34.9825 41.7092 34.9179C41.7631 34.5196 41.7954 34.0889 41.8062 33.6259C41.7954 32.7968 41.72 32.1831 41.5693 31.8062C41.4293 31.4617 41.2355 31.3002 40.9879 31.3109C39.0067 31.6662 37.1547 31.957 35.4212 32.1615C33.117 32.4415 31.039 32.5922 29.1763 32.603C26.0107 32.603 24.1372 32.603 23.5666 32.603C23.5666 32.603 21.6393 32.603 17.7739 32.603C15.9111 32.5922 13.833 32.4415 11.5289 32.1615C9.79536 31.957 7.94343 31.6662 5.96227 31.3109C5.70386 31.3002 5.51003 31.4617 5.37006 31.8062ZM10.7213 35.7578C8.27719 35.6286 7.04973 35.5532 7.04973 35.5532C6.87746 35.4563 6.7375 35.3056 6.59753 35.101C6.48986 34.9395 6.39297 34.7349 6.30683 34.5088C5.65003 32.926 5.92998 32.2369 7.14667 32.4307C9.61235 32.6784 11.0551 32.9583 11.4751 33.2598C11.8627 33.4751 12.1211 33.8628 12.1749 34.2935C11.5181 35.284 11.1951 35.7901 11.1951 35.7901C11.0336 35.7793 10.8721 35.7685 10.7213 35.7578ZM40.3203 35.101C40.1911 35.3056 40.0403 35.4563 39.8681 35.5532C39.8681 35.5532 38.6406 35.6178 36.1965 35.7578C36.0457 35.7685 35.8842 35.7793 35.7227 35.7793C35.7227 35.7793 35.3997 35.284 34.7429 34.2827C34.7967 33.8412 35.0552 33.4536 35.4428 33.249C35.8627 32.9476 37.3055 32.6784 39.7712 32.4199C40.9878 32.2154 41.2678 32.9153 40.611 34.498C40.5249 34.7349 40.4387 34.9395 40.3203 35.101Z" fill="#393A39"/>
<path fill-rule="evenodd" clip-rule="evenodd" d="M10.7214 35.7578C10.8722 35.7686 11.0337 35.7794 11.1952 35.7794C11.1952 35.7794 11.5182 35.2841 12.175 34.2827C12.1212 33.8413 11.8628 33.4537 11.4752 33.2491C11.0552 32.9476 9.61245 32.6784 7.14677 32.42C5.93008 32.2154 5.65014 32.9153 6.30693 34.4981C6.39307 34.735 6.48996 34.9288 6.59763 35.0903C6.72684 35.2948 6.87756 35.4456 7.04984 35.5425C7.04984 35.564 8.26653 35.6286 10.7214 35.7578Z" fill="white"/>
<path fill-rule="evenodd" clip-rule="evenodd" d="M40.3203 35.101C40.428 34.9395 40.5249 34.7349 40.611 34.5088C41.2678 32.926 40.9879 32.2369 39.7712 32.4307C37.3055 32.6783 35.8627 32.9583 35.4428 33.2598C35.0552 33.4751 34.7968 33.8627 34.7429 34.2934C35.3997 35.284 35.7227 35.79 35.7227 35.79C35.8842 35.7793 36.0458 35.7685 36.1965 35.7685C38.6406 35.6393 39.8681 35.5639 39.8681 35.5639C40.0404 35.4563 40.1911 35.3055 40.3203 35.101Z" fill="white"/>
<path fill-rule="evenodd" clip-rule="evenodd" d="M33.7847 37.2221C32.9233 35.2948 32.3742 34.3472 32.1481 34.3688C26.3769 34.3042 20.5519 34.3042 14.7807 34.3688C14.5546 34.3472 14.0054 35.2948 13.144 37.2221C13.9623 36.2961 14.6084 35.8439 15.1037 35.8546C20.6703 35.8116 26.2585 35.8116 31.8251 35.8546C32.3096 35.8439 32.9664 36.2961 33.7847 37.2221Z" fill="#6A6C6C"/>
<path fill-rule="evenodd" clip-rule="evenodd" d="M25.6231 28.6946C26.1722 28.2854 26.6137 27.7363 26.8829 27.101C31.179 27.0579 33.3324 27.0257 33.3324 27.0257C33.3216 27.5317 33.2786 28.0593 33.1709 28.5977L25.6231 28.6946ZM36.7779 26.9395C36.9609 26.2504 37.1547 25.4967 37.3701 24.6677C34.9475 24.9799 31.3082 25.0876 26.4306 25.0122C24.8909 23.2572 22.0269 23.2572 20.4764 25.0122C15.5989 25.0983 11.9596 24.9799 9.53699 24.6677C9.75233 25.4967 9.95689 26.2504 10.1292 26.9395C11.0444 30.4173 11.4966 32.1616 11.4966 32.1616C13.8008 32.4415 15.8788 32.5923 17.7416 32.603C20.9071 32.603 22.7806 32.603 23.3512 32.603C23.3512 32.603 25.2786 32.603 29.144 32.603C31.0067 32.5923 33.0848 32.4415 35.3889 32.1616C35.4105 32.1616 35.8627 30.4281 36.7779 26.9395ZM14.2638 30.2773C17.7739 30.2989 20.8425 30.2989 23.4589 30.2773C26.0861 30.2989 29.144 30.2989 32.6541 30.2773C32.751 30.6003 32.6972 31.0526 32.5141 31.6232C29.4455 31.7201 26.4199 31.7525 23.4589 31.7417C20.498 31.7632 17.4724 31.7201 14.4037 31.6232C14.2207 31.0526 14.1669 30.6111 14.2638 30.2773ZM20.035 27.101C20.3042 27.7363 20.7456 28.2854 21.2947 28.6946L13.7362 28.6084C13.6393 28.0593 13.5854 27.5317 13.5747 27.0364C13.5854 27.0256 15.7281 27.0472 20.035 27.101Z" fill="#6A6C6C"/>
<path fill-rule="evenodd" clip-rule="evenodd" d="M21.2947 28.6944C20.7349 28.2853 20.3042 27.7361 20.035 27.1009C15.7389 27.0578 13.5854 27.0255 13.5854 27.0255C13.5962 27.5316 13.65 28.0592 13.747 28.5975L21.2947 28.6944Z" fill="#393A39"/>
<path fill-rule="evenodd" clip-rule="evenodd" d="M26.8937 27.1009C26.6245 27.7361 26.183 28.2853 25.6339 28.6944L33.1925 28.6083C33.2894 28.0592 33.3432 27.5316 33.354 27.0363C33.3432 27.0255 31.1898 27.047 26.8937 27.1009Z" fill="#393A39"/>
<path fill-rule="evenodd" clip-rule="evenodd" d="M32.6648 30.2772C29.1547 30.2988 26.0861 30.2988 23.4696 30.2772C20.8425 30.2988 17.7846 30.2988 14.2745 30.2772C14.1776 30.6002 14.2314 31.0525 14.4145 31.6231C17.4831 31.72 20.5087 31.7523 23.4696 31.7416C26.4306 31.7631 29.4562 31.72 32.5248 31.6231C32.7079 31.0525 32.7509 30.611 32.6648 30.2772Z" fill="#393A39"/>
<path fill-rule="evenodd" clip-rule="evenodd" d="M38.4146 28.6623C37.6932 29.5129 37.3271 30.2451 37.3379 30.848C39.2329 30.8803 40.385 30.6327 40.7942 30.1051C41.031 29.1899 40.8588 28.4254 40.2773 27.7902C39.0391 28.3716 38.4146 28.6623 38.4146 28.6623Z" fill="#FEC900"/>
<path fill-rule="evenodd" clip-rule="evenodd" d="M9.59086 30.848C9.60163 30.245 9.23555 29.5129 8.51415 28.6623C8.51415 28.6623 7.88964 28.3716 6.65142 27.8009C6.06999 28.4362 5.90848 29.2006 6.14536 30.1158C6.54374 30.6327 7.69584 30.8803 9.59086 30.848Z" fill="#FEC900"/>
<path fill-rule="evenodd" clip-rule="evenodd" d="M10.14 26.9394C9.95697 26.2503 9.76315 25.4966 9.5478 24.6675C11.9704 24.9798 15.6097 25.0874 20.4872 25.0121C22.027 23.257 24.891 23.257 26.4415 25.0121C31.319 25.0982 34.9583 24.9798 37.3809 24.6675C37.1656 25.4966 36.961 26.2503 36.7887 26.9394C35.8735 30.4172 35.4213 32.1615 35.4213 32.1615C37.1548 31.9569 39.0068 31.6662 40.9879 31.3108C41.2356 31.3001 41.4294 31.4616 41.5694 31.8062C41.7416 29.6635 41.8601 28.4145 41.9247 28.0484C41.9462 28.0376 41.9785 28.0161 42 28.0053C42.0431 27.5531 41.7955 27.1332 41.3863 26.9502C41.354 26.9394 41.3109 26.9178 41.2786 26.9071C41.354 21.3835 41.3433 17.7442 41.2248 15.9784C41.1171 14.3741 41.031 12.9528 40.9449 11.7361H40.525C40.6649 13.5666 40.7187 14.8909 40.6649 15.7308L40.1696 16.2799C40.1696 16.2799 39.9758 13.4158 39.599 7.69846C39.599 7.69846 39.782 7.69846 40.1373 7.69846C40.2881 9.08742 40.4065 10.3256 40.4927 11.4024H40.9233C40.7618 9.16279 40.6326 7.61232 40.525 6.76172C40.1804 5.53426 39.4805 4.82362 38.4361 4.66211C28.7134 4.38216 18.2584 4.38216 8.53569 4.66211C7.49127 4.83438 6.7914 5.53426 6.44685 6.76172C6.33918 7.61232 6.20998 9.16279 6.04847 11.4024H6.47915C6.56529 10.3256 6.68375 9.09819 6.83449 7.69846C7.18981 7.69846 7.37285 7.69846 7.37285 7.69846C6.996 13.4158 6.80219 16.2799 6.80219 16.2799L6.30691 15.7308C6.25307 14.8909 6.30688 13.5558 6.44685 11.7361H6.02695C5.94081 12.9528 5.8439 14.3741 5.747 15.9784C5.62856 17.7442 5.6178 21.3835 5.69317 26.9071C5.66087 26.9178 5.6178 26.9286 5.58549 26.9502C5.17634 27.1332 4.92869 27.5531 4.97176 28.0053C4.99329 28.0161 5.0256 28.0376 5.04714 28.0484C5.11174 28.4145 5.23016 29.6743 5.40244 31.8062C5.54241 31.4616 5.73623 31.3001 5.98387 31.3108C7.96503 31.6662 9.817 31.9569 11.5505 32.1615C11.5182 32.1615 11.0552 30.4279 10.14 26.9394ZM37.3378 30.8479C37.3271 30.2449 37.6932 29.5127 38.4146 28.6621C38.4146 28.6621 39.0391 28.3714 40.2773 27.8008C40.8587 28.436 41.0202 29.2005 40.7941 30.1157C40.3742 30.6325 39.2329 30.8802 37.3378 30.8479ZM8.51416 28.6621C9.23556 29.5127 9.60165 30.2449 9.59088 30.8479C7.69586 30.8802 6.54378 30.6325 6.13463 30.1049C5.89775 29.1897 6.07003 28.4253 6.64069 27.79C7.88968 28.3714 8.51416 28.6621 8.51416 28.6621ZM39.2329 18.401C39.2867 19.6392 25.9354 19.5639 23.459 19.65C20.9825 19.5639 7.63127 19.6392 7.6851 18.401C7.6851 18.401 7.88966 14.8801 8.29881 7.82766C8.23421 6.95552 8.58954 6.53562 9.36478 6.56792C18.0539 6.51408 22.7483 6.51407 23.4697 6.55714C24.1804 6.51407 28.8857 6.51408 37.564 6.56792C38.3392 6.53562 38.6945 6.96628 38.6299 7.82766C39.0391 14.8801 39.2329 18.401 39.2329 18.401Z" fill="#ED5758"/>
<path fill-rule="evenodd" clip-rule="evenodd" d="M5.37005 31.8062C5.19778 29.6635 5.07936 28.4145 5.01475 28.0484C4.99322 28.0377 4.96091 28.0161 4.93937 28.0054C4.30411 27.6716 3.97035 28.0377 3.94881 29.1036C3.86268 33.0121 3.98109 35.1117 4.29334 35.4132C4.51945 35.4778 4.70249 35.467 4.864 35.3809C4.97167 35.327 5.05781 35.2409 5.13318 35.1117C5.16548 35.0578 5.19781 34.9933 5.23011 34.9287C5.17627 34.5303 5.14394 34.0996 5.13318 33.6366C5.13318 32.7967 5.21931 32.183 5.37005 31.8062Z" fill="black"/>
<path fill-rule="evenodd" clip-rule="evenodd" d="M41.9031 28.0486C41.8385 28.4147 41.72 29.6744 41.5477 31.8063C41.6985 32.194 41.7846 32.7969 41.7846 33.626C41.7738 34.089 41.7415 34.5197 41.6877 34.918C41.72 34.9826 41.7523 35.0473 41.7846 35.1011C41.86 35.2195 41.9461 35.3057 42.0538 35.3703C42.2153 35.4564 42.3983 35.4672 42.6244 35.4026C42.9367 35.1119 43.0444 33.0015 42.969 29.093C42.9475 28.027 42.6244 27.661 41.9784 27.9948C41.9569 28.0163 41.9354 28.027 41.9031 28.0486Z" fill="black"/>
<path d="M6.59756 11.4023H3.95959V11.7253H6.59756V11.4023Z" fill="black"/>
<path fill-rule="evenodd" clip-rule="evenodd" d="M2.96904 8.96902C4.02422 8.88288 4.58411 8.99055 4.64871 9.2705L4.78869 13.3297C4.64872 13.965 4.31493 14.2449 3.77658 14.1803C2.65679 14.2342 2.0969 13.965 2.0969 13.3836C2.0323 10.8856 2 9.63661 2 9.63661C2.24764 9.14132 2.57065 8.91518 2.96904 8.96902Z" fill="black"/>
<path fill-rule="evenodd" clip-rule="evenodd" d="M43.9597 8.96902C42.9045 8.88288 42.3446 8.99055 42.28 9.2705L42.14 13.3297C42.28 13.965 42.6138 14.2449 43.1521 14.1803C44.2719 14.2342 44.8318 13.965 44.8318 13.3836C44.8964 10.8856 44.9287 9.63661 44.9287 9.63661C44.6811 9.14132 44.3581 8.91518 43.9597 8.96902Z" fill="#6B7D97"/>
<path d="M42.9582 11.4023H40.3203V11.7253H42.9582V11.4023Z" fill="black"/>
<path fill-rule="evenodd" clip-rule="evenodd" d="M43.9597 8.96902C42.9045 8.88288 42.3446 8.99055 42.28 9.2705L42.14 13.3297C42.28 13.965 42.6138 14.2449 43.1521 14.1803C44.2719 14.2342 44.8318 13.965 44.8318 13.3836C44.8964 10.8856 44.9287 9.63661 44.9287 9.63661C44.6811 9.14132 44.3581 8.91518 43.9597 8.96902Z" fill="black"/>
<path fill-rule="evenodd" clip-rule="evenodd" d="M6.78059 16.2908C6.78059 16.2908 6.97443 13.4267 7.35128 7.70935C7.35128 7.70935 7.16824 7.70935 6.81292 7.70935C6.66218 9.09831 6.54372 10.3365 6.45759 11.4133H6.60834V11.7363H6.42529C6.28531 13.5667 6.23147 14.891 6.28531 15.7309L6.78059 16.2908Z" fill="#2B253B"/>
<path fill-rule="evenodd" clip-rule="evenodd" d="M4.49802 9.0875V4.78064H3.56128V8.94753C4.0135 8.93676 4.32574 8.97983 4.49802 9.0875Z" fill="#921E17"/>
<path fill-rule="evenodd" clip-rule="evenodd" d="M4.49793 13.9542C4.32566 14.1373 4.0888 14.2126 3.77655 14.1803C3.70118 14.1803 3.62579 14.1911 3.55042 14.1911V26.9394H4.48719V13.9542H4.49793Z" fill="#921E17"/>
<path fill-rule="evenodd" clip-rule="evenodd" d="M3.56128 4.78058H4.49802V3.0686H3.24902V4.78058H3.56128Z" fill="#921E17"/>
<path fill-rule="evenodd" clip-rule="evenodd" d="M42.4307 3.0686V4.78058H43.3674H43.6797V3.0686H42.4307Z" fill="#921E17"/>
<path fill-rule="evenodd" clip-rule="evenodd" d="M43.1413 14.1803C42.8399 14.2126 42.603 14.1373 42.4199 13.9542V26.9394H43.3567V14.1911C43.2921 14.1911 43.2167 14.1911 43.1413 14.1803Z" fill="#921E17"/>
<path fill-rule="evenodd" clip-rule="evenodd" d="M42.4307 9.0875C42.6029 8.9906 42.9152 8.93676 43.3674 8.94753V4.78064H42.4307V9.0875Z" fill="#921E17"/>
<path fill-rule="evenodd" clip-rule="evenodd" d="M39.2328 18.4011C39.2328 18.4011 39.0282 14.8802 38.6191 7.8277C38.6837 6.95556 38.3283 6.53566 37.5531 6.56796C28.864 6.51413 24.1695 6.51412 23.4589 6.55719C22.7483 6.51412 18.043 6.51413 9.35391 6.56796C8.57867 6.53566 8.22337 6.96633 8.28797 7.8277C7.87882 14.8694 7.67423 18.4011 7.67423 18.4011C7.6204 19.6393 20.9717 19.5639 23.4481 19.6501C25.9353 19.5639 39.2866 19.6393 39.2328 18.4011Z" fill="#2B253B"/>
<path fill-rule="evenodd" clip-rule="evenodd" d="M23.6097 26.3151C23.9327 26.3151 24.245 26.3151 24.568 26.3043C24.6865 26.3043 24.8049 26.3043 24.9233 26.3043C25.0418 26.3043 25.1494 26.3043 25.2679 26.3043C25.4294 26.3151 25.6124 26.2935 25.7524 26.3581C25.8278 26.3904 25.8493 26.4443 25.8601 26.5196C25.8601 26.5304 25.8601 26.5304 25.8601 26.5304C25.8601 26.6488 25.7847 26.7781 25.7416 26.8857C25.6663 27.0365 25.5478 27.1764 25.4186 27.3056C25.2033 27.521 24.7618 27.7686 24.3096 27.8871C24.245 27.9086 24.1696 27.9301 24.105 27.9517C24.0512 27.9624 24.0727 27.9947 24.105 27.984C24.1804 27.9732 24.2558 27.9625 24.3204 27.9409C24.848 27.8117 25.214 27.5964 25.4617 27.3918C25.6124 27.2733 25.7739 27.1011 25.8708 26.918C25.9354 26.7996 26.0108 26.595 26.0216 26.5196C26.0324 26.4227 26.0431 26.3796 26.0431 26.2289C26.0323 25.9705 25.9462 25.7659 25.7955 25.5398C25.7847 25.5183 25.7739 25.5075 25.7632 25.4967C25.7632 25.486 25.7524 25.4752 25.7632 25.4644C25.7739 25.4644 25.7955 25.4752 25.8062 25.486C25.9354 25.6259 26 25.7336 26.0646 25.8736C26.1508 26.0566 26.1723 26.1966 26.1939 26.3581C26.1939 26.3904 26.2261 26.4012 26.2369 26.3474C26.2477 26.1751 26.2046 25.9921 26.1292 25.8198C26.0431 25.626 25.957 25.529 25.8385 25.3891C25.6986 25.2491 25.5371 25.1091 25.3648 25.0015C25.1064 24.84 24.8372 24.7323 24.5572 24.6461C24.4388 24.6138 24.3204 24.5923 24.1912 24.5708C24.1589 24.5708 24.1158 24.5708 24.0727 24.5708C24.0404 24.5708 24.0189 24.6031 24.0727 24.6138C24.1481 24.6354 24.2235 24.6462 24.2988 24.6677C24.5788 24.7431 24.8587 24.8507 25.1064 25.0122C25.311 25.1415 25.4186 25.2061 25.6555 25.5183C25.6878 25.5614 25.7524 25.669 25.7847 25.7444C25.8062 25.7982 25.8493 25.8951 25.8493 25.9597C25.8385 26.0243 25.8278 26.0674 25.7739 26.0997C25.6663 26.1643 25.5694 26.1751 25.4186 26.1751C25.311 26.1751 25.2033 26.1859 25.0956 26.1859C24.9341 26.1859 24.7833 26.1966 24.6218 26.1966C24.2881 26.2074 23.9435 26.2074 23.599 26.2074C23.5667 26.2074 23.5236 26.2074 23.4913 26.2074C23.1468 26.2074 22.7914 26.2074 22.4469 26.2074C22.2854 26.2074 22.1346 26.2074 21.9731 26.2074C21.8655 26.2074 21.7578 26.2074 21.6501 26.2074C21.4994 26.2074 21.4025 26.1966 21.2948 26.132C21.241 26.0997 21.2302 26.0566 21.2194 25.992C21.2194 25.9274 21.2517 25.8305 21.2733 25.7767C21.3056 25.6906 21.3702 25.5937 21.4025 25.5398C21.6393 25.2276 21.747 25.163 21.9408 25.023C22.1885 24.8615 22.4576 24.7431 22.7376 24.6677C22.813 24.6462 22.8884 24.6246 22.9637 24.6031C23.0176 24.5923 22.9853 24.56 22.9637 24.56C22.9314 24.56 22.8883 24.56 22.8453 24.5708C22.7268 24.5816 22.5976 24.6138 22.49 24.6461C22.21 24.7323 21.9408 24.84 21.6824 25.0122C21.5209 25.1199 21.3486 25.2599 21.2194 25.3998C21.101 25.5398 21.0149 25.6475 20.9395 25.8413C20.8749 26.0028 20.8318 26.1966 20.8426 26.3689C20.8426 26.4227 20.8749 26.4012 20.8856 26.3689C20.8964 26.2074 20.918 26.0674 21.0041 25.8844C21.0687 25.7444 21.1333 25.6259 21.2517 25.486C21.2625 25.4752 21.284 25.4537 21.2948 25.4644C21.3056 25.4752 21.2948 25.486 21.2948 25.4967C21.284 25.5183 21.2733 25.5291 21.2625 25.5506C21.1118 25.7875 21.0364 25.9921 21.0256 26.2505C21.0256 26.4012 21.0364 26.455 21.0471 26.5412C21.0579 26.6165 21.1333 26.8104 21.2087 26.9288C21.3163 27.1118 21.4778 27.2733 21.6286 27.3918C21.887 27.5964 22.2531 27.8009 22.7807 27.9194C22.8453 27.9301 22.9314 27.9517 22.996 27.9624C23.0283 27.9624 23.0499 27.9409 22.996 27.9301C22.9314 27.9194 22.856 27.8871 22.7914 27.8763C22.3392 27.7578 21.8978 27.521 21.6716 27.3164C21.5424 27.198 21.4132 27.058 21.3379 26.9072C21.284 26.7996 21.2087 26.6704 21.2087 26.5519V26.5412C21.2194 26.4658 21.2409 26.412 21.3163 26.3689C21.4455 26.3043 21.6393 26.3151 21.7901 26.3043C21.9085 26.3043 22.0162 26.3043 22.1346 26.3043C22.2531 26.3043 22.3715 26.3043 22.49 26.3043C22.813 26.3043 23.1467 26.2935 23.4697 26.2935C23.5451 26.315 23.5774 26.3151 23.6097 26.3151ZM23.6097 26.1966C23.5774 26.1966 23.5344 26.1966 23.5021 26.1966C23.2652 26.1966 23.0391 26.1966 22.813 26.1966C22.6515 26.1966 22.4899 26.1966 22.3284 26.1966C22.1777 26.1966 22.0377 26.1859 21.887 26.1859C21.747 26.1751 21.564 26.1535 21.5317 26.132C21.5101 26.1212 21.5209 26.089 21.5317 26.0782C21.564 26.0567 21.5963 26.0351 21.6393 26.0136C21.6501 26.0028 21.6824 26.0136 21.6932 26.0243C21.7255 26.0459 21.7362 26.0567 21.7686 26.0567C21.9085 26.089 22.0054 26.1105 22.1777 26.1213C22.3069 26.132 22.4469 26.132 22.5761 26.1428C22.8776 26.1536 23.0714 26.1536 23.5021 26.1428C23.5344 26.1428 23.5774 26.1428 23.6205 26.1428C24.0404 26.1428 24.2342 26.132 24.5357 26.1213C24.6649 26.1105 24.8049 26.1105 24.9341 26.0997C25.1171 26.0889 25.2141 26.0674 25.3433 26.0351C25.3756 26.0243 25.3971 26.0243 25.4186 25.992C25.4294 25.9813 25.4509 25.9813 25.4725 25.9813C25.5048 25.9921 25.5478 26.0136 25.5801 26.0351C25.6017 26.0459 25.6124 26.0674 25.5801 26.089C25.5478 26.1105 25.3648 26.132 25.2248 26.1428C25.0741 26.1536 24.9341 26.1643 24.7833 26.1643C24.6218 26.1751 24.4603 26.1751 24.2988 26.1751C24.062 26.1966 23.8358 26.1966 23.6097 26.1966ZM23.6097 26.0782C24.0727 26.0782 24.568 26.0782 25.0202 26.0243C25.2463 26.0028 25.3109 25.8736 25.3217 25.7982C25.354 25.5398 24.9556 25.1953 24.751 25.0768C24.4711 24.9261 24.2235 24.8077 23.8897 24.7215C23.8466 24.7107 23.8143 24.6569 23.8143 24.6246C23.8143 24.5923 23.8682 24.5493 23.9005 24.5385C24.0081 24.517 24.1158 24.517 24.2235 24.5385C24.3957 24.56 24.568 24.5923 24.7403 24.6461C24.9664 24.7107 25.214 24.8292 25.4294 24.9584C25.7093 25.1307 25.957 25.346 26.1292 25.626C26.2584 25.8198 26.3446 26.0782 26.3554 26.2935C26.3554 26.5627 26.2585 26.8211 26.1077 27.0472C25.9677 27.2626 25.7739 27.4456 25.5586 27.5964C25.3648 27.7363 25.1494 27.844 24.9233 27.9409C24.7295 28.0163 24.5249 28.0701 24.3204 28.1024C24.1912 28.124 24.062 28.1347 23.9328 28.1132C23.9005 28.1024 23.8466 28.0701 23.8359 28.0378C23.8359 27.9947 23.8574 27.9517 23.9005 27.9409C24.0081 27.9086 24.1912 27.844 24.3204 27.7902C24.4819 27.7148 24.6542 27.6394 24.8049 27.5425C24.9556 27.4456 25.1064 27.3272 25.2033 27.1764C25.2571 27.1011 25.3109 26.9934 25.3217 26.9072C25.3217 26.8534 25.3217 26.7996 25.3002 26.7565C25.2033 26.595 24.9233 26.6058 24.7187 26.595C24.5249 26.5843 24.3419 26.5842 24.1589 26.5842C23.9651 26.5842 23.7389 26.5842 23.5559 26.5842C23.3621 26.5842 23.136 26.595 22.9529 26.595C22.7591 26.6058 22.5761 26.6058 22.393 26.6165C22.1885 26.6273 21.9085 26.6273 21.8116 26.7888C21.7901 26.8319 21.7901 26.8965 21.7901 26.9395C21.8008 27.0149 21.8547 27.1226 21.9085 27.2087C22.0054 27.3487 22.1562 27.4672 22.3177 27.5641C22.4684 27.661 22.6407 27.7363 22.813 27.8117C22.9422 27.8655 23.1252 27.9194 23.2329 27.9517C23.2652 27.9624 23.2975 28.0055 23.2975 28.0486C23.2975 28.0809 23.2436 28.1239 23.2006 28.1239C23.0714 28.1455 22.9422 28.1347 22.813 28.1239C22.6084 28.0916 22.4038 28.0486 22.21 27.9732C21.9839 27.8871 21.7686 27.7794 21.5747 27.6502C21.3594 27.4994 21.1656 27.3272 21.0256 27.101C20.8749 26.8749 20.7672 26.6165 20.7672 26.3474C20.7672 26.132 20.8534 25.8736 20.9718 25.6798C21.1441 25.3999 21.3809 25.1845 21.6609 25.0015C21.8762 24.8615 22.1239 24.743 22.3392 24.6784C22.5115 24.6246 22.673 24.5923 22.8453 24.56C22.9529 24.5385 23.0606 24.5385 23.1683 24.56C23.2006 24.5708 23.2544 24.6138 23.2544 24.6461C23.2544 24.6892 23.2329 24.7323 23.1898 24.7431C22.856 24.8292 22.6084 24.9584 22.3284 25.1091C22.1239 25.2276 21.7362 25.5721 21.7686 25.8305C21.7793 25.9059 21.8439 26.0351 22.0808 26.0567C22.5438 26.0997 23.0391 26.089 23.5128 26.089C23.5344 26.0782 23.5667 26.0782 23.6097 26.0782Z" fill="#D4D5D5"/>
<path d="M23.039 48C33.8439 48 42.603 47.6722 42.603 47.2678C42.603 46.8634 33.8439 46.5356 23.039 46.5356C12.2342 46.5356 3.4751 46.8634 3.4751 47.2678C3.4751 47.6722 12.2342 48 23.039 48Z" fill="black" stroke="black" stroke-width="0.5669" stroke-miterlimit="22.9256"/>
</svg>
