<svg width="48" height="48" viewBox="0 0 48 48" fill="none" xmlns="http://www.w3.org/2000/svg">
<path d="M24 48C37.2548 48 48 37.2548 48 24C48 10.7452 37.2548 0 24 0C10.7452 0 0 10.7452 0 24C0 37.2548 10.7452 48 24 48Z" fill="#C80000"/>
<path fill-rule="evenodd" clip-rule="evenodd" d="M26.1417 35.1807C28.8346 35.2133 30.3821 35.2495 30.7953 35.2894C30.8388 37.5618 30.8642 38.6998 30.8642 38.6998C27.8089 38.8521 26.3628 38.9282 26.5259 38.9245C25.9968 36.8623 25.8699 35.6156 26.1454 35.1843L26.1417 35.1807Z" fill="#E8E9E9"/>
<path fill-rule="evenodd" clip-rule="evenodd" d="M8.95547 35.1807C6.26263 35.2133 4.71506 35.2495 4.30189 35.2894C4.2584 37.5618 4.23303 38.6998 4.23303 38.6998C7.2883 38.8521 8.73439 38.9282 8.5713 38.9245C9.10044 36.8623 9.22729 35.6156 8.95185 35.1843L8.95547 35.1807Z" fill="#E8E9E9"/>
<path fill-rule="evenodd" clip-rule="evenodd" d="M30.8063 36.0616C30.7338 31.2739 30.6976 28.871 30.6976 28.8457C30.6867 28.0266 30.6795 27.617 30.6795 27.617C30.6758 27.4213 30.6758 27.3271 30.6758 27.3271C30.7447 27.0408 30.7846 26.7255 30.7954 26.3884C30.8462 25.4751 30.7664 24.9604 30.5599 24.8481C30.2953 20.0314 29.9147 17.0523 29.4146 15.9179C28.2874 15.3525 27.5662 15.0661 27.2509 15.0661C26.8051 14.7363 26.4282 14.5696 26.1237 14.566C20.4082 14.4319 17.5523 14.363 17.5523 14.363C17.5523 14.363 14.6891 14.4319 8.97364 14.566C8.6692 14.5696 8.29227 14.7363 7.84648 15.0661C7.53117 15.0661 6.80994 15.3488 5.68279 15.9179C5.18264 17.0559 4.79846 20.0314 4.53751 24.8481C4.33093 24.9604 4.2512 25.4715 4.30194 26.3884C4.31281 26.7255 4.3563 27.0408 4.42154 27.3271C4.42154 27.3271 4.42154 27.425 4.41791 27.617C4.41791 27.617 4.41066 28.0266 4.39979 28.8457C4.40342 28.871 4.36717 31.2739 4.29106 36.0616H30.8099H30.8063Z" fill="#E8E9E9"/>
<path d="M7.96966 43.1831H4.70056V47.9527H7.96966V43.1831Z" fill="#404040"/>
<path fill-rule="evenodd" clip-rule="evenodd" d="M4.36719 42.9187C4.37806 43.466 4.38168 44.0132 4.38168 44.5605C6.9513 44.575 8.2343 44.5822 8.2343 44.5822C8.2343 43.6146 8.2343 43.1325 8.2343 43.1325L4.36719 42.9187Z" fill="#292827"/>
<path d="M30.3895 43.1831H27.1204V47.9527H30.3895V43.1831Z" fill="#404040"/>
<path fill-rule="evenodd" clip-rule="evenodd" d="M30.7229 42.9187C30.7121 43.466 30.7085 44.0132 30.7085 44.5605C28.1388 44.575 26.8558 44.5822 26.8558 44.5822C26.8558 43.6146 26.8558 43.1325 26.8558 43.1325L30.7229 42.9187Z" fill="#292827"/>
<path fill-rule="evenodd" clip-rule="evenodd" d="M4.28748 36.0614H30.8064C30.8027 35.8258 30.7991 35.5938 30.7955 35.3691C30.5273 35.3728 30.27 35.38 30.0308 35.3836C29.3349 35.3981 28.7514 35.409 28.2838 35.4162C27.3307 35.4344 26.8559 35.4416 26.8559 35.4416C26.8813 32.4045 26.8921 30.8823 26.8921 30.8823C26.8849 30.3241 26.6783 30.0378 26.2724 30.0233C24.0688 30.0777 21.8218 30.1103 19.5675 30.1212C19.7088 30.335 19.8356 30.567 19.9371 30.817C21.4448 30.7917 23.6665 30.7554 26.5986 30.7083C26.6167 31.8101 26.3521 32.3501 25.8085 32.3284C24.8372 32.3682 24.3515 32.3863 24.3515 32.3863C24.3334 32.0674 24.1196 31.9152 23.7064 31.9261C22.0465 31.9551 20.72 31.9804 19.7305 31.9986C19.5675 32.2559 19.3609 32.4915 19.1108 32.7017C18.5925 32.7343 18.0706 32.7524 17.5523 32.756C17.0305 32.7524 16.5049 32.7343 15.9867 32.7017C15.733 32.4915 15.5264 32.2559 15.3669 31.9986C14.3775 31.9804 13.051 31.9551 11.3911 31.9261C10.9779 31.9152 10.7641 32.0674 10.7459 32.3863C10.7459 32.3863 10.2603 32.3682 9.28899 32.3284C8.74172 32.3501 8.48077 31.8101 8.49889 30.7083C11.4309 30.7554 13.6526 30.7917 15.1603 30.817C15.2654 30.5706 15.3887 30.335 15.53 30.1212C13.2721 30.1103 11.025 30.0777 8.82508 30.0233C8.41916 30.0378 8.21257 30.3278 8.20532 30.8823C8.20532 30.8823 8.2162 32.4008 8.24157 35.4416C8.24157 35.4416 7.76679 35.4344 6.8136 35.4162C6.34607 35.409 5.76256 35.3981 5.0667 35.3836C4.82387 35.38 4.57017 35.3728 4.30197 35.3691C4.29835 35.5938 4.29472 35.8258 4.2911 36.0614H4.28748Z" fill="#6D6E6E"/>
<path fill-rule="evenodd" clip-rule="evenodd" d="M26.9501 37.4789C26.9501 37.4789 26.9537 37.1527 26.9573 36.5039C28.5339 36.4496 29.8169 36.301 30.8027 36.0618H4.28381C5.27324 36.301 6.55261 36.4496 8.12918 36.5039C8.1328 37.1563 8.13643 37.4789 8.13643 37.4789C8.30314 37.7579 8.36476 38.1276 8.32489 38.5879C9.90508 38.6459 11.3947 38.664 12.7973 38.635C15.9214 38.7292 19.1651 38.7292 22.2892 38.635C23.6882 38.664 25.1814 38.6459 26.7616 38.5879C26.7217 38.1276 26.7834 37.7616 26.9501 37.4789Z" fill="#6D6E6E"/>
<path fill-rule="evenodd" clip-rule="evenodd" d="M25.6925 43.4515C28.2875 43.5892 29.9619 43.4116 30.723 42.9187C30.8027 42.6433 30.8208 42.3787 30.781 42.1214C31.5022 41.7988 31.2231 39.0081 31.2231 38.3268C27.9214 38.5877 24.9423 38.6892 22.2893 38.6385C19.1651 38.7327 15.9214 38.7327 12.7973 38.6385C10.1407 38.6928 7.16514 38.5877 3.86342 38.3268C3.86342 39.0081 3.58798 41.7988 4.30921 42.1214C4.26934 42.3787 4.29109 42.6469 4.3672 42.9187C5.12467 43.4116 6.80272 43.5892 9.3977 43.4515C14.6529 43.6509 20.4409 43.6509 25.6925 43.4515Z" fill="#7C8785"/>
<path fill-rule="evenodd" clip-rule="evenodd" d="M17.5485 25.511C14.7542 25.5292 10.9161 25.4385 6.04868 25.2356C5.74424 25.2138 5.57027 25 5.53041 24.5868C5.14261 21.7889 5.38906 18.9366 6.25164 16.2474C6.41473 16.0915 6.65393 16.0082 6.97287 15.9973C14.0185 15.9176 17.5485 15.8777 17.5485 15.8777C17.5485 15.8777 21.0713 15.9176 28.1169 15.9973C28.4359 16.0082 28.6751 16.0915 28.8382 16.2474C29.7007 18.9366 29.9472 21.7889 29.5594 24.5868C29.5195 24.9964 29.3456 25.2138 29.0411 25.2356C24.1737 25.4385 20.3428 25.5328 17.5485 25.511Z" fill="#353043"/>
<path fill-rule="evenodd" clip-rule="evenodd" d="M6.80996 35.4124C6.79909 34.8398 6.05611 33.5531 4.58103 31.5453C4.42881 33.2922 4.49042 34.4846 4.76586 35.1225C4.91084 35.2529 5.01232 35.3399 5.06306 35.3762L6.80996 35.4088V35.4124Z" fill="#FEC900"/>
<path fill-rule="evenodd" clip-rule="evenodd" d="M9.61511 43.4585C10.0428 44.5965 11.3874 45.0967 13.6453 44.9553C16.1714 44.9553 17.4798 44.9553 17.5523 44.9553C17.6248 44.9553 18.9223 44.9553 21.452 44.9553C23.7099 45.0967 25.0509 44.5965 25.4822 43.4585H9.61874H9.61511Z" fill="#404040"/>
<path fill-rule="evenodd" clip-rule="evenodd" d="M13.4678 43.5273H17.3349H17.5415H21.8362V45.1764H17.5415H17.3349H13.4678V43.5273Z" fill="#292827"/>
<path fill-rule="evenodd" clip-rule="evenodd" d="M7.71604 31.426C7.71604 31.426 7.72691 32.6329 7.74503 35.0431C7.74503 35.0431 7.58919 34.8908 7.28112 34.59C7.28112 34.59 7.23401 33.0316 7.1434 29.9111C7.1434 28.6462 6.10686 28.3128 5.17542 27.7184C5.99088 27.9685 6.73748 28.2693 7.4116 28.6245C7.66167 29.0123 7.78127 29.4725 7.75228 29.9328L7.71604 31.426Z" fill="#D3D5D5"/>
<path d="M3.09138 17.6102H1.25024V22.1768H3.09138V17.6102Z" fill="black"/>
<path d="M3.09138 22.4636H1.25024V23.9786H3.09138V22.4636Z" fill="black"/>
<path d="M5.16809 17.3783C5.05574 17.2008 4.87815 17.0522 4.6317 16.9362C4.37437 16.8166 4.04819 16.7296 3.65314 16.6789C3.43206 16.6716 3.2146 16.668 2.99714 16.668C2.79056 16.668 2.58398 16.6752 2.37014 16.6861C2.30128 16.7332 2.26866 16.8057 2.27591 16.9108L2.10195 24.3188C2.13094 24.3877 2.19255 24.4457 2.27954 24.4928C2.39551 24.5544 2.55498 24.5943 2.75794 24.6197L5.12097 24.6015V24.8806L2.73257 24.8987H2.72895C2.48974 24.8697 2.29403 24.8154 2.14906 24.7393C1.98597 24.6523 1.87724 24.5363 1.83012 24.3877L1.82288 24.366L2.00047 16.9217C1.98959 16.6897 2.0802 16.523 2.26866 16.4252L2.29403 16.4107H2.32303C2.54411 16.3998 2.76881 16.3925 2.99714 16.3889C3.22185 16.3889 3.44655 16.3925 3.66764 16.3998H3.67851C4.1098 16.4542 4.46498 16.5484 4.74767 16.6825C5.04124 16.8202 5.2587 17.005 5.40004 17.2297L5.16446 17.3783H5.16809Z" fill="black"/>
<path fill-rule="evenodd" clip-rule="evenodd" d="M17.5486 40.69C17.5486 40.69 20.2994 40.6574 25.7975 40.5849C27.9575 40.6139 28.9252 40.0992 28.6969 39.0446C24.7537 39.2258 21.0315 39.3164 17.5413 39.3091C14.0548 39.3128 10.3363 39.2258 6.39305 39.0446C6.16472 40.0992 7.1324 40.6102 9.29247 40.5849C14.7905 40.6537 17.5486 40.69 17.5486 40.69Z" fill="#353043"/>
<path fill-rule="evenodd" clip-rule="evenodd" d="M17.5486 32.0382C17.5486 32.0382 19.5999 32.002 23.7026 31.9259C24.1122 31.915 24.3296 32.0672 24.3477 32.3862C24.3477 32.3862 24.8334 32.368 25.8047 32.3282C26.352 32.3499 26.6129 31.8099 26.5948 30.7081C20.564 30.806 17.5486 30.8567 17.5486 30.8567C17.5486 30.8567 14.5259 30.806 8.49513 30.7081C8.47701 31.8099 8.74159 32.3499 9.28523 32.3282C10.2565 32.368 10.7422 32.3862 10.7422 32.3862C10.7603 32.0672 10.9741 31.915 11.3873 31.9259C15.49 31.9984 17.5486 32.0382 17.5486 32.0382Z" fill="#E8E9E9"/>
<path fill-rule="evenodd" clip-rule="evenodd" d="M28.28 35.4124C28.2909 34.8398 29.0339 33.5531 30.509 31.5453C30.6612 33.2922 30.5996 34.4846 30.3241 35.1225C30.1792 35.2529 30.0777 35.3399 30.0269 35.3762L28.28 35.4088V35.4124Z" fill="#FEC900"/>
<path fill-rule="evenodd" clip-rule="evenodd" d="M27.3741 31.426C27.3741 31.426 27.3632 32.6329 27.3451 35.0431C27.3451 35.0431 27.501 34.8908 27.809 34.59C27.809 34.59 27.8562 33.0316 27.9468 29.9111C27.9468 28.6462 28.9833 28.3128 29.9147 27.7184C29.0993 27.9685 28.3527 28.2693 27.6786 28.6245C27.4285 29.0123 27.3089 29.4725 27.3379 29.9328L27.3741 31.426Z" fill="#D3D5D5"/>
<path d="M33.8433 17.6102H32.0022V22.1768H33.8433V17.6102Z" fill="black"/>
<path d="M33.8433 22.4636H32.0022V23.9786H33.8433V22.4636Z" fill="black"/>
<path d="M29.9256 17.3783C30.0379 17.2008 30.2155 17.0522 30.462 16.9362C30.7193 16.8166 31.0455 16.7296 31.4405 16.6789C31.6616 16.6716 31.8791 16.668 32.0965 16.668C32.3031 16.668 32.5097 16.6752 32.7235 16.6861C32.7924 16.7332 32.825 16.8057 32.8178 16.9108L32.9917 24.3188C32.9627 24.3877 32.9011 24.4457 32.8141 24.4928C32.6982 24.5544 32.5387 24.5943 32.3357 24.6197L29.9727 24.6015V24.8806L32.3611 24.8987H32.3647C32.6076 24.8697 32.7997 24.8154 32.9446 24.7393C33.1077 24.6523 33.2164 24.5363 33.2636 24.3877L33.2708 24.366L33.0932 16.9217C33.1041 16.6897 33.0135 16.523 32.825 16.4252L32.7997 16.4107H32.7707C32.5496 16.3998 32.3249 16.3925 32.1002 16.3889C31.8755 16.3889 31.6508 16.3925 31.4297 16.3998H31.4188C30.9875 16.4542 30.6323 16.5484 30.3496 16.6825C30.0561 16.8202 29.835 17.005 29.6973 17.2297L29.9328 17.3783H29.9256Z" fill="black"/>
<path fill-rule="evenodd" clip-rule="evenodd" d="M17.5486 34.9668C17.5486 34.9668 19.5999 34.9306 23.7026 34.8545C24.1122 34.8436 24.3296 34.9958 24.3477 35.3148C24.3477 35.3148 24.8334 35.2966 25.8047 35.2568C26.352 35.2785 26.6129 34.7385 26.5948 33.6367C20.564 33.7346 17.5486 33.7853 17.5486 33.7853C17.5486 33.7853 14.5259 33.7346 8.49513 33.6367C8.47701 34.7385 8.74159 35.2785 9.28523 35.2568C10.2565 35.2966 10.7422 35.3148 10.7422 35.3148C10.7603 34.9958 10.9741 34.8436 11.3873 34.8545C15.49 34.927 17.5486 34.9668 17.5486 34.9668Z" fill="#E8E9E9"/>
<path fill-rule="evenodd" clip-rule="evenodd" d="M17.5486 37.7541C17.5486 37.7541 19.5999 37.7178 23.7026 37.6417C24.1122 37.6308 24.3296 37.7831 24.3477 38.102C24.3477 38.102 24.8334 38.0839 25.8047 38.044C26.352 38.0658 26.6129 37.5257 26.5948 36.424C20.564 36.5218 17.5486 36.5725 17.5486 36.5725C17.5486 36.5725 14.5259 36.5218 8.49513 36.424C8.47701 37.5257 8.74159 38.0658 9.28523 38.044C10.2565 38.0839 10.7422 38.102 10.7422 38.102C10.7603 37.7831 10.9741 37.6308 11.3873 37.6417C15.49 37.7142 17.5486 37.7541 17.5486 37.7541Z" fill="#E8E9E9"/>
<path fill-rule="evenodd" clip-rule="evenodd" d="M17.5486 32.7602C17.0267 32.7566 16.5012 32.7385 15.9829 32.7059C15.4864 32.2891 15.1674 31.7853 15.0225 31.1909C15.2689 30.4298 15.6748 29.8064 16.2438 29.3171C16.2438 29.3171 16.686 29.3135 17.5522 29.3063C18.4184 29.3135 18.8533 29.3171 18.8533 29.3171C19.4223 29.8064 19.8283 30.4298 20.0747 31.1909C19.9297 31.7853 19.6108 32.2891 19.1143 32.7059C18.596 32.7385 18.0741 32.7566 17.5558 32.7602H17.5486Z" fill="#353043"/>
<path fill-rule="evenodd" clip-rule="evenodd" d="M8.16179 41.1574C5.83862 41.3422 3.89601 41.5633 4.30918 38.8197C4.75859 38.8741 5.20437 38.9393 5.64654 39.0118C9.00987 39.4902 8.72355 41.219 8.16179 41.1574Z" fill="#FEFEFE"/>
<path fill-rule="evenodd" clip-rule="evenodd" d="M26.9284 41.1574C29.2515 41.3422 31.1941 41.5633 30.781 38.8197C30.3316 38.8741 29.8858 38.9393 29.4436 39.0118C26.0803 39.4902 26.3666 41.219 26.9284 41.1574Z" fill="#FEFEFE"/>
<path fill-rule="evenodd" clip-rule="evenodd" d="M17.6138 31.0384C17.8421 31.0348 18.0704 31.0348 18.2987 31.0312C18.3821 31.0312 18.4691 31.0276 18.5524 31.0276C18.6358 31.0276 18.7155 31.0276 18.7953 31.0276C18.9112 31.0312 19.0417 31.0203 19.1359 31.0674C19.1867 31.0928 19.2048 31.1291 19.2157 31.187C19.2157 31.1907 19.2157 31.1943 19.2157 31.1979C19.2121 31.2777 19.1649 31.3719 19.1287 31.448C19.078 31.5567 18.9874 31.6546 18.8967 31.7416C18.7409 31.8938 18.4328 32.0714 18.1103 32.1584C18.0668 32.1692 18.0124 32.1873 17.9653 32.2018C17.9291 32.2127 17.9399 32.2272 17.9653 32.2272C18.016 32.2236 18.074 32.2091 18.1212 32.1982C18.4981 32.104 18.7554 31.9518 18.9366 31.8068C19.0453 31.7198 19.1541 31.5966 19.2302 31.4697C19.2809 31.3828 19.3317 31.2414 19.3353 31.1907C19.3425 31.1218 19.3534 31.0892 19.3498 30.9805C19.3389 30.7992 19.2809 30.6543 19.1758 30.4876C19.1686 30.4767 19.1577 30.4658 19.1504 30.4549C19.1468 30.4477 19.1432 30.4404 19.1468 30.4296H19.1504C19.1613 30.4259 19.1758 30.4368 19.1831 30.4477C19.27 30.5455 19.3208 30.6253 19.3679 30.7231C19.4295 30.8536 19.4476 30.9515 19.4585 31.0674C19.4621 31.0892 19.4839 31.1001 19.4875 31.0638C19.4911 30.9406 19.4658 30.8065 19.415 30.6905C19.357 30.5564 19.2918 30.4803 19.2084 30.3825C19.1106 30.281 18.991 30.1867 18.8714 30.1106C18.6865 29.9947 18.4981 29.9185 18.2951 29.8606C18.2118 29.8388 18.1248 29.8207 18.0378 29.8098C18.0124 29.8062 17.9798 29.8062 17.9544 29.8062C17.9363 29.8062 17.9146 29.8279 17.9544 29.8352C18.0088 29.8461 18.0595 29.8606 18.1139 29.8751C18.3132 29.933 18.5126 30.0092 18.6865 30.1215C18.8315 30.2157 18.904 30.2629 19.0816 30.4803C19.1033 30.5093 19.1504 30.5854 19.1758 30.6434C19.1939 30.6833 19.2193 30.7485 19.2193 30.7992C19.2157 30.8464 19.2048 30.879 19.1649 30.9007C19.0852 30.9478 19.0163 30.9515 18.9112 30.9551C18.8351 30.9587 18.759 30.9587 18.6829 30.9623C18.5706 30.966 18.4618 30.966 18.3459 30.9696C18.103 30.9732 17.8602 30.9768 17.621 30.9805C17.5956 30.9805 17.5703 30.9805 17.5449 30.9805C17.2984 30.9805 17.052 30.9841 16.8055 30.9841C16.6932 30.9841 16.5808 30.9841 16.4685 30.9841C16.3924 30.9841 16.3163 30.9841 16.2401 30.9805C16.1314 30.9768 16.0626 30.9732 15.9828 30.9297C15.943 30.908 15.9321 30.8754 15.9285 30.8282C15.9285 30.7811 15.9538 30.7123 15.9683 30.6724C15.9937 30.6108 16.0408 30.5383 16.0589 30.5093C16.2293 30.2882 16.3018 30.2411 16.4467 30.1432C16.6207 30.0273 16.8164 29.9475 17.0157 29.8859C17.0701 29.8678 17.1208 29.8569 17.1752 29.8424C17.2151 29.8316 17.1933 29.8134 17.1752 29.8134C17.1498 29.8134 17.1172 29.8134 17.0919 29.8171C17.0049 29.8279 16.9179 29.8461 16.8345 29.8714C16.6316 29.9294 16.4467 30.0128 16.2619 30.1324C16.1423 30.2085 16.0263 30.3063 15.9321 30.4114C15.8523 30.5129 15.7907 30.589 15.7327 30.7231C15.682 30.8391 15.6566 30.9732 15.6639 31.0964C15.6675 31.1327 15.6893 31.1218 15.6929 31.1001C15.7001 30.9841 15.7146 30.8862 15.7762 30.7558C15.8234 30.6543 15.8705 30.5745 15.9575 30.4767C15.9647 30.4694 15.9792 30.4549 15.9901 30.4586H15.9937C15.9973 30.4694 15.9937 30.4767 15.9901 30.4839C15.9828 30.4948 15.972 30.5057 15.9647 30.5165C15.8596 30.6833 15.8052 30.8319 15.798 31.0131C15.798 31.1218 15.8052 31.1544 15.8161 31.2233C15.8234 31.274 15.8777 31.4154 15.9285 31.5024C16.0046 31.6292 16.1169 31.7488 16.2257 31.8358C16.4069 31.9771 16.6678 32.1221 17.0484 32.2127C17.0955 32.2236 17.1535 32.2381 17.2042 32.2381C17.2296 32.2381 17.2405 32.22 17.2042 32.2127C17.1571 32.2018 17.1027 32.1837 17.0592 32.1728C16.7331 32.0895 16.425 31.9191 16.2655 31.7706C16.1713 31.6836 16.0807 31.5857 16.0263 31.4806C15.9901 31.4045 15.9357 31.3103 15.9321 31.2305C15.9321 31.2269 15.9321 31.2233 15.9321 31.2197C15.9393 31.1617 15.9575 31.1254 16.0082 31.1001C16.1024 31.0529 16.2329 31.0602 16.3489 31.0529C16.4322 31.0529 16.512 31.0493 16.5917 31.0493C16.6751 31.0493 16.762 31.0493 16.8454 31.0493C17.0774 31.0457 17.3129 31.0457 17.5449 31.0421C17.5703 31.0421 17.5956 31.0421 17.6246 31.0421L17.6138 31.0384ZM17.6101 30.9551C17.7732 30.9515 17.9327 30.9515 18.0922 30.9478C18.2081 30.9442 18.3241 30.9442 18.4401 30.937C18.5452 30.9333 18.6467 30.9297 18.7518 30.9188C18.8496 30.9116 18.9837 30.8935 19.0055 30.879C19.0236 30.8681 19.0163 30.8536 19.0019 30.8391C18.9801 30.821 18.9511 30.8065 18.9257 30.7992C18.9149 30.7956 18.8967 30.7992 18.8895 30.8065C18.8714 30.8246 18.8605 30.8282 18.8351 30.8355C18.7373 30.8609 18.6684 30.8717 18.5416 30.8826C18.4473 30.8899 18.3495 30.8971 18.2552 30.9007C18.0414 30.908 17.9073 30.9116 17.6065 30.9152C17.5811 30.9152 17.5521 30.9152 17.5268 30.9152C17.2187 30.9188 17.0846 30.9188 16.8671 30.9116C16.7729 30.908 16.6751 30.9043 16.5808 30.8971C16.454 30.8899 16.3851 30.879 16.2873 30.8536C16.2619 30.8464 16.251 30.8427 16.2329 30.8282C16.222 30.821 16.2075 30.8174 16.1967 30.821C16.1713 30.8319 16.1423 30.8464 16.1242 30.8645C16.1097 30.8754 16.106 30.8899 16.1205 30.9043C16.1423 30.9188 16.2764 30.9333 16.3779 30.9406C16.483 30.9478 16.5845 30.9515 16.6896 30.9515C16.8055 30.9551 16.9215 30.9551 17.0375 30.9551C17.2006 30.9551 17.3637 30.9515 17.5304 30.9515C17.5558 30.9515 17.5848 30.9515 17.6101 30.9515V30.9551ZM17.6065 30.8681C17.9363 30.8645 18.2879 30.8681 18.6141 30.8282C18.7771 30.8101 18.8243 30.7231 18.8315 30.6651C18.8533 30.4767 18.5706 30.2339 18.4256 30.1541C18.2263 30.049 18.0487 29.9657 17.8095 29.904C17.7805 29.8968 17.7587 29.8606 17.7587 29.8352C17.7587 29.8098 17.795 29.7808 17.8203 29.7736C17.8928 29.7555 17.9726 29.7591 18.0487 29.7699C18.1719 29.7881 18.2915 29.8098 18.4147 29.8461C18.5742 29.8932 18.7518 29.9729 18.904 30.0671C19.1033 30.1904 19.2773 30.3462 19.4005 30.5419C19.4911 30.6796 19.5564 30.8609 19.56 31.0131C19.56 31.2015 19.4911 31.39 19.386 31.5495C19.2882 31.7053 19.1504 31.8322 18.9982 31.9445C18.8605 32.046 18.7047 32.1221 18.5488 32.1873C18.4111 32.2417 18.2661 32.2743 18.1212 32.2997C18.0269 32.3142 17.9399 32.3214 17.8457 32.3069C17.8203 32.3033 17.7805 32.2743 17.7768 32.249C17.7732 32.22 17.795 32.191 17.8203 32.1801C17.9001 32.1547 18.0269 32.1149 18.1212 32.0714C18.2408 32.017 18.3604 31.9626 18.4691 31.8902C18.5778 31.8177 18.6829 31.7343 18.7518 31.6328C18.7916 31.5785 18.8315 31.4987 18.8351 31.4444C18.8388 31.4081 18.8388 31.3646 18.8206 31.3356C18.7482 31.2197 18.5524 31.2269 18.4038 31.2197C18.2697 31.216 18.1356 31.216 18.0015 31.2124C17.8675 31.2088 17.708 31.2088 17.5703 31.2088C17.4325 31.2124 17.2731 31.216 17.139 31.2197C17.0049 31.2233 16.8708 31.2269 16.7367 31.2342C16.5881 31.2414 16.3924 31.2378 16.3199 31.3574C16.3018 31.3864 16.3018 31.4299 16.3054 31.4661C16.309 31.5241 16.3525 31.6002 16.3924 31.6546C16.4649 31.7561 16.57 31.8358 16.6787 31.9083C16.7874 31.9771 16.9106 32.0315 17.0302 32.0822C17.1245 32.1221 17.2549 32.162 17.3311 32.1837C17.3564 32.191 17.3782 32.2236 17.3745 32.249C17.3709 32.2743 17.3311 32.3033 17.3093 32.3069C17.2151 32.3251 17.1281 32.3178 17.0339 32.3033C16.8889 32.2816 16.7439 32.249 16.6062 32.1982C16.4467 32.1366 16.2909 32.0641 16.1532 31.9663C16.0009 31.8575 15.8596 31.7343 15.7581 31.5785C15.653 31.419 15.5769 31.2342 15.5769 31.0421C15.5769 30.8899 15.6385 30.7086 15.7255 30.5673C15.8487 30.368 16.0191 30.2121 16.2148 30.0853C16.367 29.9874 16.541 29.904 16.7004 29.8533C16.82 29.8171 16.9396 29.7917 17.0629 29.7699C17.139 29.7591 17.2187 29.7518 17.2912 29.7699C17.3166 29.7772 17.3528 29.8062 17.3528 29.8279C17.3528 29.8569 17.3347 29.8896 17.3021 29.9004C17.0665 29.9657 16.8889 30.0526 16.6932 30.1614C16.5482 30.2411 16.2691 30.4912 16.2945 30.6796C16.3018 30.7376 16.3489 30.8246 16.512 30.8391C16.8418 30.8717 17.197 30.8609 17.5304 30.8609C17.5558 30.8609 17.5811 30.8609 17.6065 30.8609V30.8681Z" fill="#D3D5D5"/>
<path d="M41.4003 30.6615L47.123 36.3842C48.2248 37.4896 48.2248 39.28 47.123 40.3855C46.0212 41.4872 44.2344 41.4872 43.1218 40.3818L37.399 34.6591L41.4003 30.6615Z" fill="#666666"/>
<path d="M38.3812 29.7194L36.4603 31.6403L33.1151 28.2915L35.0324 26.3706L38.3812 29.7194Z" fill="black"/>
<path d="M41.6356 27.7843C42.0017 28.1504 42.1829 28.6288 42.1829 29.1072C42.1829 29.5892 41.9944 30.0676 41.6284 30.4337L37.1814 34.8879C36.4456 35.62 35.2641 35.62 34.5284 34.8915C34.1623 34.5218 33.9739 34.0434 33.9739 33.565C33.9739 33.0866 34.1623 32.6082 34.5284 32.2385L38.9863 27.7843C39.722 27.0522 40.9035 27.0522 41.6392 27.7843H41.6356Z" fill="black"/>
<path fill-rule="evenodd" clip-rule="evenodd" d="M24.3044 2.88538C32.4445 2.88538 39.048 9.48519 39.048 17.629C39.048 25.7691 32.4481 32.3725 24.3044 32.3725C16.1642 32.3725 9.56079 25.7727 9.56079 17.629C9.56079 9.48882 16.1606 2.88538 24.3044 2.88538ZM24.3044 5.63258C30.9296 5.63258 36.2971 11.0038 36.2971 17.6253C36.2971 24.2505 30.9259 29.6181 24.3044 29.6181C17.6792 29.6181 12.3116 24.2469 12.3116 17.6253C12.3116 11.0001 17.6828 5.63258 24.3044 5.63258Z" fill="black"/>
<path fill-rule="evenodd" clip-rule="evenodd" d="M35.2606 12.7392C33.3904 8.54951 29.1863 5.63196 24.3044 5.63196C24.2029 5.63196 24.1014 5.63196 23.9999 5.63558C19.0818 5.75881 14.8993 8.83945 13.1669 13.1668C12.9966 13.5909 12.8516 14.0258 12.7284 14.4752C13.359 14.4607 13.928 14.4462 14.4318 14.4353C16.5085 14.3846 17.5487 14.3629 17.5487 14.3629C17.5487 14.3629 19.6979 14.4136 23.9999 14.5151C24.6559 14.5296 25.3626 14.5477 26.1201 14.5658C26.4246 14.5694 26.8015 14.7362 27.2473 15.066C27.5626 15.066 28.2838 15.3487 29.411 15.9177C29.5378 16.204 29.6538 16.6063 29.7661 17.1209C29.9039 16.947 30.096 16.802 30.3424 16.686C30.6251 16.5519 30.9839 16.4577 31.4116 16.4033H31.4224C31.4841 16.3997 31.5457 16.3997 31.6109 16.3961C31.7704 16.3925 31.9335 16.3888 32.0966 16.3925C32.3249 16.3925 32.546 16.3997 32.7671 16.4142H32.796L32.8214 16.4287C33.0099 16.5266 33.1005 16.6933 33.0932 16.9252L33.1114 17.6175H33.8435V22.1841H33.2201L33.2273 22.4704H33.8435V23.9853H33.2636V24.0071L33.2708 24.3659L33.2636 24.3876C33.2128 24.5362 33.1077 24.6522 32.9446 24.7392C32.7997 24.8153 32.604 24.8696 32.3648 24.8986H32.3611L30.6142 24.8841C30.7846 25.0472 30.8462 25.551 30.7991 26.3882C30.7882 26.7253 30.7447 27.0406 30.6795 27.3269C30.6795 27.3269 30.6831 27.4248 30.6831 27.6169C30.6831 27.6169 30.6831 27.6748 30.6867 27.7872C32.2125 26.8268 33.51 25.5293 34.4705 24.0034C35.6302 22.1551 36.3044 19.9696 36.3044 17.6283C36.3044 15.8887 35.9347 14.236 35.2678 12.7428L35.2606 12.7392Z" fill="#B3B3B3"/>
<path fill-rule="evenodd" clip-rule="evenodd" d="M31.3066 16.6935C30.9695 16.7478 30.6868 16.8276 30.4585 16.9327C30.212 17.0486 30.0344 17.1972 29.9221 17.3748L29.8025 17.3023C29.8496 17.5343 29.8931 17.788 29.9366 18.0598C30.1613 19.4769 30.3534 21.4558 30.5056 24C30.5165 24.1957 30.5273 24.3987 30.5418 24.6016L32.3286 24.6161C32.5316 24.5908 32.6947 24.5473 32.807 24.4893C32.8976 24.4422 32.9556 24.3842 32.9846 24.3153L32.9774 24V23.9783H31.9952V22.4633H32.9411L32.9339 22.177H31.9952V17.6104H32.8251L32.807 16.9109C32.8106 16.8058 32.7816 16.7297 32.7128 16.6862C32.5026 16.6753 32.2924 16.6681 32.0858 16.6681C31.8683 16.6681 31.6509 16.6717 31.4334 16.679C31.3899 16.6862 31.3428 16.6898 31.3029 16.6971L31.3066 16.6935Z" fill="#B3B3B3"/>
</svg>
