<svg width="48" height="48" viewBox="0 0 48 48" fill="none" xmlns="http://www.w3.org/2000/svg">
<path d="M24 48C37.2548 48 48 37.2548 48 24C48 10.7452 37.2548 0 24 0C10.7452 0 0 10.7452 0 24C0 37.2548 10.7452 48 24 48Z" fill="#C9CACA"/>
<path fill-rule="evenodd" clip-rule="evenodd" d="M19.4079 12.2288C18.4362 12.2288 17.5653 12.8438 17.2423 13.7586C17.1363 14.0584 17.2939 14.3866 17.5911 14.4926C17.7875 14.5623 17.9917 14.5107 18.1442 14.384L20.5553 17.281V17.971C20.5553 18.2888 20.8111 18.5447 21.129 18.5447C21.4468 18.5447 21.7027 18.2888 21.7027 17.971V14.5262C21.7027 13.2599 20.6716 12.2288 19.4053 12.2288H19.4079Z" fill="black"/>
<path fill-rule="evenodd" clip-rule="evenodd" d="M17.6841 13.3787C16.6323 13.3787 15.6373 13.7818 14.8621 14.539L7.49951 22.576L8.34715 23.3513L8.54614 23.1342L20.5552 26.4266V26.5842C20.5552 26.9021 20.811 27.1579 21.1289 27.1579C21.4468 27.1579 21.7026 26.9021 21.7026 26.5842V17.3972C21.7026 15.1799 19.8988 13.3787 17.6841 13.3787Z" fill="#B3B3B3"/>
<path fill-rule="evenodd" clip-rule="evenodd" d="M28.5949 12.2288C29.5665 12.2288 30.4374 12.8438 30.7605 13.7586C30.8664 14.0584 30.7088 14.3866 30.4116 14.4926C30.2152 14.5623 30.011 14.5107 29.8586 14.384L27.4475 17.281V17.971C27.4475 18.2888 27.1916 18.5447 26.8738 18.5447C26.5559 18.5447 26.3 18.2888 26.3 17.971V14.5262C26.3 13.2599 27.3286 12.2288 28.5975 12.2288H28.5949Z" fill="black"/>
<path fill-rule="evenodd" clip-rule="evenodd" d="M30.316 13.3787C31.3678 13.3787 32.3627 13.7818 33.138 14.539L40.5006 22.576L39.6529 23.3513L39.4539 23.1342L27.4449 26.4266V26.5842C27.4449 26.9021 27.1891 27.1579 26.8712 27.1579C26.5533 27.1579 26.2975 26.9021 26.2975 26.5842V17.3972C26.2975 15.1799 28.1013 13.3787 30.316 13.3787Z" fill="#B3B3B3"/>
<path d="M13.6655 34.0479C17.1537 34.0479 19.9815 31.2201 19.9815 27.7319C19.9815 24.2438 17.1537 21.416 13.6655 21.416C10.1773 21.416 7.34961 24.2438 7.34961 27.7319C7.34961 31.2201 10.1773 34.0479 13.6655 34.0479Z" fill="white"/>
<path fill-rule="evenodd" clip-rule="evenodd" d="M13.6656 19.6948C9.2336 19.6948 5.62598 23.2999 5.62598 27.7319C5.62598 32.1639 9.23102 35.7715 13.6656 35.7715C18.0976 35.7715 21.7026 32.1665 21.7026 27.7319C21.7026 23.2999 18.0976 19.6948 13.6656 19.6948ZM13.6656 33.4741C10.4999 33.4741 7.92338 30.8976 7.92338 27.7319C7.92338 24.5661 10.4999 21.9896 13.6656 21.9896C16.8313 21.9896 19.4078 24.5661 19.4078 27.7319C19.4078 30.8976 16.8313 33.4741 13.6656 33.4741Z" fill="black"/>
<path fill-rule="evenodd" clip-rule="evenodd" d="M19.4078 20.2685H28.5949L28.6827 20.2659C27.5663 21.359 26.8712 22.8863 26.8712 24.5738V26.5844H21.1289V24.5738C21.1289 22.8863 20.4364 21.3616 19.3174 20.2659L19.4052 20.2685H19.4078Z" fill="black"/>
<path d="M34.3345 34.0479C37.8227 34.0479 40.6504 31.2201 40.6504 27.7319C40.6504 24.2438 37.8227 21.416 34.3345 21.416C30.8463 21.416 28.0186 24.2438 28.0186 27.7319C28.0186 31.2201 30.8463 34.0479 34.3345 34.0479Z" fill="white"/>
<path fill-rule="evenodd" clip-rule="evenodd" d="M34.3345 19.6948C29.9025 19.6948 26.2975 23.2999 26.2975 27.7319C26.2975 32.1639 29.9025 35.7715 34.3345 35.7715C38.7665 35.7715 42.3742 32.1665 42.3742 27.7319C42.3742 23.2999 38.7691 19.6948 34.3345 19.6948ZM34.3345 33.4741C31.1688 33.4741 28.5923 30.8976 28.5923 27.7319C28.5923 24.5661 31.1688 21.9896 34.3345 21.9896C37.5002 21.9896 40.0767 24.5661 40.0767 27.7319C40.0767 30.8976 37.5002 33.4741 34.3345 33.4741Z" fill="black"/>
<path d="M28.5949 19.1208H19.4078V20.2683H28.5949V19.1208Z" fill="#B3B3B3"/>
</svg>
