<svg width="48" height="48" viewBox="0 0 48 48" fill="none" xmlns="http://www.w3.org/2000/svg">
<path d="M24.1467 47.7067C37.3205 47.7067 48 37.0272 48 23.8533C48 10.6795 37.3205 0 24.1467 0C10.9728 0 0.293335 10.6795 0.293335 23.8533C0.293335 37.0272 10.9728 47.7067 24.1467 47.7067Z" fill="#C80000"/>
<path fill-rule="evenodd" clip-rule="evenodd" d="M41.3546 38.1005C43.3786 38.1253 44.5455 38.1518 44.8539 38.1817C44.887 39.8907 44.9036 40.746 44.9036 40.746C42.6044 40.8604 41.517 40.9168 41.6397 40.9135C41.2419 39.3619 41.1474 38.4254 41.3546 38.1005Z" fill="#E8E9E9"/>
<path fill-rule="evenodd" clip-rule="evenodd" d="M28.4267 38.1005C26.4027 38.1253 25.2357 38.1518 24.9274 38.1817C24.8943 39.8907 24.8777 40.746 24.8777 40.746C27.1768 40.8604 28.2642 40.9168 28.1416 40.9135C28.5394 39.3619 28.6355 38.4254 28.4267 38.1005Z" fill="#E8E9E9"/>
<path fill-rule="evenodd" clip-rule="evenodd" d="M44.862 38.7618C44.8056 35.1614 44.7791 33.3529 44.7808 33.3347C44.7708 32.7181 44.7675 32.4097 44.7675 32.4097C44.7659 32.2639 44.7642 32.1909 44.7642 32.1909C44.8156 31.9738 44.8454 31.7384 44.8554 31.4848C44.8935 30.7969 44.8338 30.4106 44.678 30.3261C44.4791 26.7025 44.1923 24.4631 43.816 23.6077C42.969 23.1817 42.4253 22.9679 42.1882 22.9679C41.8517 22.7209 41.5699 22.5949 41.3395 22.5916C37.0413 22.4888 34.8913 22.4391 34.8913 22.4391C34.8913 22.4391 32.7364 22.4905 28.4382 22.5916C28.2078 22.5949 27.926 22.7192 27.5895 22.9679C27.3524 22.9679 26.8104 23.1817 25.9617 23.6077C25.5854 24.4631 25.297 26.7025 25.0997 30.3261C24.9422 30.4106 24.8842 30.7952 24.9223 31.4848C24.9323 31.7384 24.9621 31.9738 25.0135 32.1909C25.0135 32.1909 25.0118 32.2639 25.0102 32.4097C25.0102 32.4097 25.0052 32.7181 24.9969 33.3347C24.9986 33.3529 24.9721 35.1631 24.9157 38.7618H44.8637H44.862Z" fill="#E8E9E9"/>
<path d="M27.6858 44.121H25.2258V47.7081H27.6858V44.121Z" fill="#404040"/>
<path fill-rule="evenodd" clip-rule="evenodd" d="M24.9755 43.9203C24.9838 44.3314 24.9871 44.7441 24.9871 45.1552C26.9199 45.1668 27.8863 45.1718 27.8863 45.1718C27.8863 44.4441 27.8863 44.0811 27.8863 44.0811L24.9771 43.9203H24.9755Z" fill="#292827"/>
<path d="M44.5505 44.121H42.0906V47.7081H44.5505V44.121Z" fill="#404040"/>
<path fill-rule="evenodd" clip-rule="evenodd" d="M44.8007 43.9203C44.7924 44.3314 44.7891 44.7441 44.7891 45.1552C42.8563 45.1668 41.8899 45.1718 41.8899 45.1718C41.8899 44.4441 41.8899 44.0811 41.8899 44.0811L44.8007 43.9203Z" fill="#292827"/>
<path fill-rule="evenodd" clip-rule="evenodd" d="M24.9141 38.762H44.8621C44.8588 38.583 44.8571 38.4106 44.8538 38.2399C44.6516 38.2432 44.4593 38.2481 44.2769 38.2515C43.7531 38.2614 43.3155 38.2697 42.9624 38.2763C42.2463 38.2896 41.8866 38.2962 41.8866 38.2962C41.9049 36.0103 41.9148 34.8666 41.9148 34.8666C41.9098 34.4472 41.754 34.2317 41.449 34.2201C39.7914 34.2599 38.1023 34.2847 36.4048 34.2947C36.5126 34.4571 36.6054 34.6312 36.6833 34.8185C37.8171 34.8003 39.488 34.7721 41.6944 34.7373C41.7076 35.5661 41.5104 35.9722 41.0993 35.9556C40.3682 35.9855 40.0036 36.0004 40.0036 36.0004C39.9903 35.7617 39.8295 35.6457 39.5195 35.6556C38.2697 35.6788 37.2734 35.6954 36.5292 35.7086C36.4082 35.9026 36.2523 36.0783 36.0634 36.2374C35.6722 36.2623 35.281 36.2772 34.8898 36.2789C34.4986 36.2756 34.1024 36.2623 33.7112 36.2374C33.5222 36.0783 33.3664 35.9026 33.2454 35.7086C32.5011 35.6954 31.5032 35.6772 30.255 35.6556C29.945 35.6457 29.7843 35.7617 29.771 36.0004C29.771 36.0004 29.4063 35.9855 28.6753 35.9556C28.2642 35.9722 28.067 35.5661 28.0802 34.7373C30.2865 34.7737 31.9574 34.8003 33.0912 34.8185C33.1691 34.6312 33.262 34.4571 33.3697 34.2947C31.6723 34.2847 29.9815 34.2599 28.3255 34.2201C28.0205 34.2317 27.8647 34.4488 27.8597 34.8666C27.8597 34.8666 27.8697 36.0103 27.8879 38.2962C27.8879 38.2962 27.5299 38.2896 26.8121 38.2763C26.4607 38.2697 26.0231 38.2614 25.4976 38.2515C25.3153 38.2481 25.123 38.2448 24.9208 38.2399C24.9174 38.4089 24.9158 38.583 24.9125 38.762H24.9141Z" fill="#6D6E6E"/>
<path fill-rule="evenodd" clip-rule="evenodd" d="M41.9629 39.8294C41.9629 39.8294 41.9645 39.584 41.9679 39.095C43.1531 39.0536 44.1178 38.9425 44.8604 38.7618H24.9125C25.6551 38.9425 26.6198 39.0536 27.805 39.095C27.8084 39.584 27.81 39.8294 27.81 39.8294C27.9343 40.0399 27.9824 40.3167 27.9526 40.6631C29.1411 40.7079 30.2633 40.7195 31.3159 40.698C33.6648 40.7692 36.1065 40.7692 38.4553 40.698C39.5079 40.7195 40.6301 40.7079 41.8187 40.6631C41.7888 40.3184 41.8352 40.0399 41.9612 39.8294H41.9629Z" fill="#6D6E6E"/>
<path fill-rule="evenodd" clip-rule="evenodd" d="M41.0163 44.3198C42.9673 44.4243 44.2288 44.29 44.8007 43.9187C44.8587 43.7131 44.8736 43.5126 44.8454 43.317C45.3875 43.075 45.1786 40.9747 45.1786 40.4625C42.6955 40.6581 40.4544 40.736 38.4569 40.6962C36.1081 40.7675 33.6664 40.7675 31.3175 40.6962C29.3201 40.736 27.0806 40.6581 24.5958 40.4625C24.5958 40.9747 24.3886 43.075 24.929 43.317C24.8991 43.5109 24.9141 43.7115 24.9737 43.9187C25.544 44.29 26.8054 44.4226 28.7565 44.3198C32.7083 44.4707 37.0629 44.4707 41.0147 44.3198H41.0163Z" fill="#7C8785"/>
<path fill-rule="evenodd" clip-rule="evenodd" d="M34.8897 30.8264C32.7878 30.8414 29.9002 30.7717 26.2385 30.6176C26.0098 30.6027 25.8788 30.4402 25.849 30.1302C25.5589 28.025 25.7429 25.8817 26.391 23.8578C26.512 23.7417 26.6944 23.6787 26.9331 23.6704C32.2342 23.6108 34.8881 23.5809 34.8881 23.5809C34.8881 23.5809 37.5386 23.6108 42.8381 23.6704C43.0784 23.6787 43.2591 23.7417 43.3801 23.8578C44.0283 25.8817 44.2139 28.025 43.9222 30.1302C43.8923 30.4402 43.7614 30.601 43.5326 30.6176C39.8709 30.7717 36.9883 30.8414 34.8864 30.8264H34.8897Z" fill="#353043"/>
<path fill-rule="evenodd" clip-rule="evenodd" d="M26.8122 38.276C26.8039 37.845 26.2453 36.877 25.1363 35.3685C25.022 36.6814 25.0684 37.5782 25.2756 38.0605C25.3866 38.1583 25.4596 38.223 25.4977 38.2528L26.8122 38.2777V38.276Z" fill="#FEC900"/>
<path fill-rule="evenodd" clip-rule="evenodd" d="M28.9223 44.326C29.2455 45.1814 30.255 45.5577 31.9525 45.4516C33.8538 45.4516 34.8367 45.4516 34.8898 45.4516C34.9445 45.4516 35.9208 45.4516 37.8221 45.4516C39.5196 45.556 40.5307 45.1814 40.8523 44.326H28.9207H28.9223Z" fill="#404040"/>
<path fill-rule="evenodd" clip-rule="evenodd" d="M31.8214 44.3795H34.7289H34.8847H38.1154V45.6194H34.8847H34.7289H31.8214V44.3795Z" fill="#292827"/>
<path fill-rule="evenodd" clip-rule="evenodd" d="M27.4951 35.2775C27.4951 35.2775 27.5017 36.1842 27.5166 37.9977C27.5166 37.9977 27.4006 37.8833 27.1685 37.6562C27.1685 37.6562 27.1337 36.4826 27.0641 34.1371C27.0641 33.1839 26.285 32.9353 25.5822 32.4894C26.1955 32.6767 26.7574 32.9038 27.2646 33.1707C27.4536 33.4624 27.5448 33.8072 27.5216 34.1553L27.4934 35.2792L27.4951 35.2775Z" fill="#D3D5D5"/>
<path d="M24.014 24.8824H22.6299V28.3187H24.014V24.8824Z" fill="black"/>
<path d="M24.014 28.5343H22.6299V29.6748H24.014V28.5343Z" fill="black"/>
<path d="M25.5773 24.7085C25.4927 24.5742 25.3585 24.4632 25.1728 24.3753C24.9805 24.2841 24.7352 24.2195 24.4368 24.1814C24.2711 24.1747 24.1069 24.1731 23.9445 24.1731C23.7903 24.1747 23.6329 24.1781 23.4737 24.1863C23.4223 24.2212 23.3975 24.2775 23.4008 24.3571L23.2698 29.9284C23.2914 29.9798 23.3361 30.0229 23.4041 30.0577C23.4903 30.1041 23.6097 30.1356 23.7638 30.1538L25.5425 30.1406L25.5441 30.3494L23.7472 30.3643H23.7439C23.5632 30.3428 23.4174 30.303 23.3063 30.245C23.1836 30.1803 23.1024 30.0908 23.066 29.9814L23.0593 29.9649L23.1919 24.3654C23.1853 24.1897 23.2516 24.0653 23.3942 23.9924L23.4141 23.9825L23.4373 23.9808C23.603 23.9725 23.7721 23.9675 23.9428 23.9659C24.1119 23.9642 24.281 23.9675 24.4484 23.9742L24.4567 23.9758C24.7799 24.0173 25.0485 24.0885 25.2607 24.1897C25.4828 24.2941 25.6469 24.4317 25.753 24.6008L25.5756 24.7118L25.5773 24.7085Z" fill="black"/>
<path fill-rule="evenodd" clip-rule="evenodd" d="M34.8897 42.2446C34.8897 42.2446 36.9584 42.2181 41.0942 42.1667C42.7204 42.1882 43.4464 41.802 43.2757 41.0096C40.3085 41.1472 37.5088 41.2135 34.8847 41.2102C32.2607 41.2135 29.4659 41.1472 26.4988 41.0096C26.3264 41.802 27.0541 42.1882 28.6802 42.1667C32.816 42.2181 34.8897 42.2446 34.8897 42.2446Z" fill="#353043"/>
<path fill-rule="evenodd" clip-rule="evenodd" d="M34.8897 35.7384C34.8897 35.7384 36.433 35.7102 39.5195 35.6555C39.8295 35.6456 39.9903 35.7616 40.0035 36.0003C40.0035 36.0003 40.3682 35.9854 41.0992 35.9555C41.5103 35.9721 41.7076 35.566 41.6943 34.7372C37.1574 34.8118 34.8897 34.8482 34.8897 34.8482C34.8897 34.8482 32.6155 34.8118 28.0785 34.7372C28.0652 35.566 28.2625 35.9721 28.6736 35.9555C29.4046 35.9854 29.7693 36.0003 29.7693 36.0003C29.7826 35.7616 29.9433 35.6456 30.2533 35.6555C33.3398 35.7102 34.8881 35.7384 34.8881 35.7384H34.8897Z" fill="#E8E9E9"/>
<path fill-rule="evenodd" clip-rule="evenodd" d="M42.964 38.276C42.9723 37.845 43.5309 36.877 44.6399 35.3685C44.7542 36.6814 44.7078 37.5782 44.5006 38.0605C44.3896 38.1583 44.3166 38.223 44.2785 38.2528L42.964 38.2777V38.276Z" fill="#FEC900"/>
<path fill-rule="evenodd" clip-rule="evenodd" d="M42.2811 35.2775C42.2811 35.2775 42.2745 36.1842 42.2596 37.9977C42.2596 37.9977 42.3756 37.8833 42.6077 37.6562C42.6077 37.6562 42.6425 36.4826 42.7121 34.1371C42.7121 33.1839 43.4912 32.9353 44.194 32.4894C43.5807 32.6767 43.0188 32.9038 42.5115 33.1707C42.3226 33.4624 42.2331 33.8072 42.2546 34.1553L42.2828 35.2792L42.2811 35.2775Z" fill="#D3D5D5"/>
<path d="M47.1463 24.8824H45.7622V28.3187H47.1463V24.8824Z" fill="black"/>
<path d="M47.1463 28.5343H45.7622V29.6748H47.1463V28.5343Z" fill="black"/>
<path d="M44.199 24.7085C44.2835 24.5742 44.4178 24.4632 44.6034 24.3753C44.7957 24.2841 45.0411 24.2195 45.3394 24.1814C45.5052 24.1747 45.6693 24.1731 45.8317 24.1731C45.9859 24.1747 46.1434 24.1781 46.3025 24.1863C46.3539 24.2212 46.3788 24.2775 46.3754 24.3571L46.5064 29.9284C46.4848 29.9798 46.4401 30.0229 46.3721 30.0577C46.2859 30.1041 46.1666 30.1356 46.0124 30.1538L44.2338 30.1406L44.2321 30.3494L46.029 30.3643H46.0323C46.213 30.3428 46.3589 30.303 46.4699 30.245C46.5926 30.1803 46.6738 30.0908 46.7103 29.9814L46.7153 29.9649L46.5826 24.3654C46.5893 24.1897 46.523 24.0653 46.3804 23.9924L46.3605 23.9825L46.3373 23.9808C46.1716 23.9725 46.0025 23.9675 45.8317 23.9659C45.6627 23.9642 45.4936 23.9675 45.3262 23.9742L45.3179 23.9758C44.9946 24.0173 44.7261 24.0885 44.5139 24.1897C44.2918 24.2941 44.1277 24.4317 44.0216 24.6008L44.199 24.7118V24.7085Z" fill="black"/>
<path fill-rule="evenodd" clip-rule="evenodd" d="M34.8897 37.9415C34.8897 37.9415 36.433 37.9133 39.5195 37.8586C39.8295 37.8487 39.9903 37.9647 40.0035 38.2034C40.0035 38.2034 40.3682 38.1885 41.0992 38.1587C41.5103 38.1752 41.7076 37.7691 41.6943 36.9403C37.1574 37.0149 34.8897 37.0514 34.8897 37.0514C34.8897 37.0514 32.6155 37.0149 28.0785 36.9403C28.0652 37.7691 28.2625 38.1752 28.6736 38.1587C29.4046 38.1885 29.7693 38.2034 29.7693 38.2034C29.7826 37.9647 29.9433 37.8487 30.2533 37.8586C33.3398 37.915 34.8881 37.9415 34.8881 37.9415H34.8897Z" fill="#E8E9E9"/>
<path fill-rule="evenodd" clip-rule="evenodd" d="M34.8897 40.0362C34.8897 40.0362 36.433 40.0081 39.5195 39.9534C39.8295 39.9451 39.9903 40.0595 40.0035 40.2982C40.0035 40.2982 40.3682 40.2832 41.0992 40.2534C41.5103 40.27 41.7076 39.8639 41.6943 39.035C37.1574 39.1096 34.8897 39.1461 34.8897 39.1461C34.8897 39.1461 32.6155 39.1096 28.0785 39.035C28.0652 39.8639 28.2625 40.27 28.6736 40.2534C29.4046 40.2832 29.7693 40.2982 29.7693 40.2982C29.7826 40.0595 29.9433 39.9434 30.2533 39.9534C33.3398 40.0097 34.8881 40.0362 34.8881 40.0362H34.8897Z" fill="#E8E9E9"/>
<path fill-rule="evenodd" clip-rule="evenodd" d="M34.8897 36.2785C34.4985 36.2752 34.1023 36.262 33.7111 36.2371C33.3382 35.9238 33.0961 35.5425 32.9884 35.0966C33.1724 34.5248 33.4791 34.0557 33.9067 33.6877C33.9067 33.6877 34.2383 33.686 34.8897 33.681C35.5412 33.686 35.8677 33.6877 35.8677 33.6877C36.2954 34.054 36.602 34.5248 36.786 35.0966C36.6766 35.5425 36.4363 35.9238 36.0633 36.2371C35.6721 36.262 35.2809 36.2769 34.8897 36.2785Z" fill="#353043"/>
<path fill-rule="evenodd" clip-rule="evenodd" d="M27.8299 42.5955C26.0844 42.7331 24.6224 42.9005 24.9307 40.8368C25.2672 40.8766 25.6037 40.9263 25.9369 40.981C28.4681 41.3407 28.251 42.6403 27.8283 42.5939L27.8299 42.5955Z" fill="#FEFEFE"/>
<path fill-rule="evenodd" clip-rule="evenodd" d="M41.9462 42.5955C43.6917 42.7331 45.1537 42.9005 44.8454 40.8368C44.5089 40.8766 44.1724 40.9263 43.8392 40.981C41.308 41.3407 41.5252 42.6403 41.9479 42.5939L41.9462 42.5955Z" fill="#FEFEFE"/>
<path fill-rule="evenodd" clip-rule="evenodd" d="M34.9378 34.9854C35.1085 34.9837 35.2809 34.9821 35.4517 34.9804C35.5146 34.9804 35.5793 34.9788 35.6423 34.9788C35.7036 34.9788 35.7633 34.9788 35.8263 34.9788C35.9125 34.9821 36.0119 34.9738 36.0832 35.0086C36.1213 35.0268 36.1346 35.055 36.1429 35.0981C36.1429 35.1014 36.1429 35.1047 36.1445 35.1064C36.1429 35.1661 36.1048 35.2373 36.0782 35.2954C36.0385 35.3766 35.9722 35.4512 35.9025 35.5175C35.7848 35.6319 35.5544 35.7645 35.3108 35.8308C35.2776 35.8391 35.2378 35.854 35.2014 35.8623C35.1732 35.8689 35.1831 35.8822 35.2014 35.8805C35.2411 35.8772 35.2842 35.8672 35.319 35.859C35.6025 35.7877 35.7964 35.675 35.9307 35.5656C36.0119 35.5009 36.0948 35.4081 36.1495 35.3103C36.186 35.244 36.2241 35.1379 36.2291 35.0998C36.2357 35.0484 36.2423 35.0218 36.239 34.9406C36.2324 34.803 36.1893 34.6936 36.1081 34.5693C36.1031 34.561 36.0948 34.5527 36.0882 34.5445C36.0865 34.5411 36.0832 34.5328 36.0865 34.5262L36.0882 34.5246C36.0948 34.5212 36.1064 34.5312 36.1114 34.5378C36.1777 34.6108 36.2142 34.6704 36.2506 34.7467C36.297 34.8461 36.3103 34.9174 36.3169 35.0053C36.3186 35.0218 36.3368 35.0301 36.3368 35.002C36.3418 34.9075 36.3203 34.8097 36.2821 34.7218C36.2374 34.6207 36.1893 34.5643 36.128 34.4898C36.128 34.4898 36.128 34.4881 36.1263 34.4881C36.0517 34.4118 35.9639 34.3406 35.8744 34.2825C35.7351 34.1947 35.5942 34.1367 35.4417 34.0952C35.3787 34.0787 35.3141 34.0654 35.2494 34.0571C35.2295 34.0555 35.2063 34.0554 35.1864 34.0554C35.1715 34.0554 35.1566 34.0704 35.1864 34.077C35.2262 34.0853 35.266 34.0952 35.3058 34.1068C35.4566 34.1499 35.6042 34.208 35.7368 34.2925C35.8478 34.3621 35.9009 34.3986 36.0335 34.5627C36.0484 34.5859 36.0849 34.6406 36.1048 34.6853C36.118 34.7168 36.1363 34.7649 36.1379 34.8014V34.803C36.1346 34.8395 36.1263 34.8627 36.0981 34.8809C36.0401 34.9158 35.9871 34.9191 35.9058 34.9224C35.8495 34.9257 35.7915 34.9257 35.7351 34.9274C35.6506 34.929 35.5677 34.9307 35.4832 34.9323C35.3025 34.9357 35.1185 34.9373 34.9378 34.939C34.9179 34.939 34.8997 34.939 34.8798 34.939C34.6941 34.9406 34.5085 34.9406 34.3228 34.9423C34.2366 34.9423 34.1554 34.9423 34.0708 34.9423C34.0145 34.9423 33.9565 34.9423 33.9001 34.9406C33.8189 34.939 33.7658 34.9357 33.7078 34.9025C33.6796 34.8859 33.6714 34.8627 33.6664 34.8262V34.8246C33.6664 34.7881 33.6846 34.7384 33.6979 34.7086C33.7161 34.6638 33.7509 34.6074 33.7658 34.5842C33.8935 34.4185 33.9482 34.382 34.0559 34.3091C34.1869 34.2229 34.3344 34.1615 34.4836 34.1168C34.5234 34.1052 34.5632 34.0936 34.6029 34.0836C34.6328 34.077 34.6179 34.0604 34.6029 34.0621C34.5831 34.0637 34.5615 34.0621 34.5416 34.0654C34.4753 34.0737 34.4107 34.0886 34.3493 34.1068C34.1968 34.1516 34.0559 34.2113 33.92 34.3024C33.8305 34.3605 33.7443 34.435 33.6714 34.5113C33.6714 34.5113 33.6714 34.513 33.6697 34.513C33.6084 34.5892 33.562 34.6456 33.5189 34.7483C33.4824 34.8362 33.4625 34.9357 33.4691 35.0301C33.4708 35.0583 33.489 35.0484 33.4907 35.0335C33.4973 34.9456 33.5073 34.8743 33.5537 34.7732C33.5885 34.697 33.6233 34.6373 33.6879 34.5627C33.6929 34.5561 33.7045 34.5478 33.7111 34.5494L33.7128 34.5511C33.7161 34.5577 33.7128 34.5643 33.7111 34.5693C33.7062 34.5776 33.6979 34.5859 33.6929 34.5958C33.615 34.7218 33.5736 34.8312 33.5686 34.9688C33.5669 35.05 33.5752 35.0766 33.5818 35.1263C33.5868 35.1644 33.6266 35.2705 33.6664 35.3351C33.7227 35.4313 33.8089 35.5208 33.8902 35.5854C34.0261 35.6932 34.2233 35.8026 34.5085 35.8672C34.5433 35.8755 34.5864 35.8855 34.6262 35.8871C34.6444 35.8888 34.6543 35.8739 34.6262 35.8689C34.5897 35.8606 34.5499 35.8474 34.5168 35.8391C34.2714 35.7777 34.0394 35.6484 33.9183 35.5357C33.8487 35.4694 33.7791 35.3981 33.7393 35.3169C33.7111 35.2605 33.673 35.1893 33.6697 35.1296C33.6697 35.1279 33.6697 35.1246 33.6697 35.1213C33.6763 35.0782 33.6896 35.0517 33.7277 35.0318C33.7973 34.9953 33.8985 35.002 33.9846 34.997C34.046 34.997 34.1057 34.9953 34.1686 34.9937C34.2316 34.9937 34.2963 34.9937 34.3593 34.992C34.535 34.9904 34.7107 34.9887 34.8864 34.987C34.9063 34.987 34.9262 34.987 34.9444 34.987L34.9378 34.9854ZM34.9361 34.9224C35.0571 34.9207 35.1798 34.9207 35.2992 34.9174C35.3854 34.9158 35.4732 34.9141 35.5611 34.9108C35.639 34.9075 35.7169 34.9042 35.7948 34.8992C35.8694 34.8942 35.9705 34.881 35.9871 34.8677C35.9987 34.8594 35.9954 34.8478 35.9838 34.8395C35.9672 34.8262 35.9473 34.8163 35.9274 34.808C35.9191 34.8047 35.9075 34.8064 35.9009 34.813C35.886 34.8246 35.8777 34.8279 35.8594 34.8345C35.7865 34.8544 35.7351 34.8627 35.639 34.871C35.5677 34.8776 35.4948 34.8826 35.4235 34.8843C35.261 34.8909 35.1616 34.8926 34.9361 34.8959C34.9162 34.8959 34.8963 34.8959 34.8748 34.8959C34.6427 34.8975 34.5433 34.8975 34.3792 34.8942C34.3079 34.8926 34.235 34.8892 34.1637 34.8843C34.0675 34.8776 34.0145 34.871 33.9432 34.8511C33.925 34.8461 33.9167 34.8428 33.9018 34.8312C33.8951 34.8262 33.8819 34.8246 33.8736 34.8262C33.8537 34.8345 33.8338 34.8445 33.8172 34.8577C33.8073 34.866 33.8023 34.8776 33.8156 34.8859C33.8321 34.8975 33.9333 34.9091 34.0079 34.9124C34.0874 34.9174 34.1637 34.9191 34.2432 34.9207C34.3294 34.9224 34.4173 34.9224 34.5051 34.9224C34.6278 34.9224 34.7521 34.9207 34.8765 34.9207C34.8963 34.9207 34.9162 34.9207 34.9361 34.9207V34.9224ZM34.9328 34.8577C35.1815 34.8544 35.4467 34.8561 35.6904 34.8296C35.813 34.8163 35.8478 34.75 35.8528 34.7069C35.8677 34.566 35.6572 34.382 35.5461 34.324C35.397 34.2444 35.261 34.1814 35.0837 34.135C35.0605 34.1284 35.0455 34.1035 35.0455 34.082C35.0455 34.0637 35.0737 34.0405 35.0919 34.0372C35.1467 34.024 35.2063 34.0256 35.2643 34.0339C35.3572 34.0472 35.4483 34.0637 35.5395 34.0903C35.6605 34.1251 35.7931 34.1864 35.9075 34.2577C36.0583 34.3505 36.1876 34.4665 36.2821 34.6141C36.3484 34.7185 36.3998 34.8544 36.3998 34.9688C36.4015 35.1114 36.3468 35.2506 36.2689 35.3733C36.1943 35.491 36.0915 35.5854 35.9771 35.67C35.8744 35.7462 35.7583 35.8043 35.639 35.8523C35.5362 35.8938 35.4268 35.9186 35.3174 35.9369C35.2478 35.9485 35.1798 35.9534 35.1102 35.9435C35.0919 35.9402 35.0621 35.9203 35.0605 35.9021C35.0588 35.8822 35.0737 35.8573 35.0919 35.8507C35.15 35.8324 35.2478 35.8009 35.3174 35.7711C35.4069 35.7313 35.4981 35.6899 35.5793 35.6368C35.6605 35.5821 35.7384 35.5191 35.7915 35.4429C35.8213 35.4014 35.8511 35.3434 35.8545 35.3003C35.8561 35.2738 35.8561 35.2407 35.8429 35.2191C35.7898 35.1329 35.6406 35.1379 35.5296 35.1329C35.4284 35.1279 35.329 35.1296 35.2279 35.1263C35.1251 35.1246 35.0058 35.1246 34.903 35.1246C34.8002 35.1263 34.6792 35.1279 34.5781 35.1329C34.477 35.1362 34.3775 35.1379 34.2764 35.1445C34.1653 35.1511 34.0161 35.1478 33.9648 35.2357C33.9515 35.2589 33.9515 35.2904 33.9532 35.3186C33.9565 35.3617 33.988 35.418 34.0178 35.4595C34.0725 35.5357 34.1521 35.597 34.2333 35.6501C34.3145 35.7031 34.4073 35.7429 34.4969 35.781C34.5681 35.8109 34.6659 35.8407 34.724 35.8573C34.7438 35.8623 34.7588 35.8871 34.7571 35.907C34.7554 35.9253 34.7256 35.9468 34.7074 35.9501C34.6378 35.9617 34.5698 35.9584 34.5002 35.9485C34.3908 35.9319 34.2814 35.9087 34.1769 35.8689C34.0576 35.8241 33.9399 35.7678 33.8355 35.6932C33.7211 35.612 33.6167 35.5175 33.5387 35.4014C33.4592 35.2804 33.4028 35.1412 33.4012 34.9986C33.3995 34.8826 33.4476 34.7467 33.5139 34.6406C33.6067 34.4914 33.7327 34.3721 33.8819 34.2776C33.9963 34.2046 34.1272 34.1416 34.2482 34.1035C34.3394 34.0753 34.4289 34.0571 34.5217 34.0422C34.5797 34.0339 34.6378 34.0289 34.6941 34.0422C34.7124 34.0472 34.7405 34.0687 34.7405 34.0869C34.7405 34.1085 34.7256 34.1334 34.7041 34.14C34.5267 34.1897 34.3941 34.2544 34.2449 34.3372C34.1355 34.3986 33.9266 34.5859 33.9449 34.7268C33.9498 34.7699 33.9863 34.8345 34.109 34.8461C34.356 34.8693 34.6228 34.8627 34.8748 34.8611C34.8947 34.8611 34.9129 34.8611 34.9328 34.8611V34.8577Z" fill="#D3D5D5"/>
<path d="M13.4865 6.75955L13.6041 6.38989L13.6937 6.56229L13.4865 6.75955Z" fill="white"/>
<path d="M27.5332 8.10432C28.43 9.83655 28.12 11.8754 26.9016 13.2546C26.6265 13.5778 26.2966 13.8663 25.922 14.0933C25.8059 14.1746 25.6882 14.2425 25.5623 14.3072C25.3053 14.4398 25.0484 14.5459 24.7832 14.6221C23.5681 14.9934 22.2818 14.836 21.2093 14.2392C20.4435 13.8198 19.7871 13.1667 19.3577 12.3363C18.9284 11.5058 18.7743 10.5941 18.8721 9.72549C19.003 8.50712 19.618 7.36502 20.6225 6.58759C20.8363 6.41519 21.0717 6.26435 21.3287 6.13174C21.4546 6.06709 21.5773 6.01073 21.7116 5.961C22.1144 5.78695 22.5404 5.68418 22.9631 5.64605C24.7931 5.44713 26.6364 6.37044 27.5332 8.10266V8.10432Z" fill="#999999"/>
<path d="M9.69865 23.6911L22.6348 16.9942L17.4464 6.97217L4.51025 13.669L9.69865 23.6911Z" fill="white"/>
<path d="M4.51036 13.6687L9.69875 23.6907L8.245 24.4433C5.47344 25.8788 2.06866 24.7997 0.633152 22.0298C-0.0846033 20.6424 -0.1708 19.0991 0.266815 17.7216C0.70443 16.3458 1.66752 15.139 3.05495 14.4213L4.5087 13.6687H4.51036Z" fill="black"/>
<path d="M19.2733 1.25122L28.3604 18.8039L27.0791 19.0575L13.4765 21.7362L8.2865 11.7142L18.3251 2.14966L19.2733 1.25122Z" fill="white"/>
<path d="M20.3873 0.674642L29.4744 18.2273C29.791 18.839 29.5523 19.5949 28.934 19.9148C28.3157 20.2347 27.5632 19.9944 27.2466 19.3827L18.1594 1.83001C17.8428 1.21669 18.0815 0.464123 18.6998 0.1442C19.3181 -0.175723 20.0723 0.0646333 20.3889 0.6763L20.3873 0.674642Z" fill="#1A1A1A"/>
<path d="M13.4765 21.7363L17.3554 29.2288C17.8925 30.2665 17.483 31.5528 16.4453 32.0899L16.4404 32.0932C15.3928 32.6286 14.1164 32.2225 13.5793 31.1848L9.70044 23.6923L13.4765 21.738V21.7363Z" fill="#B3B3B3"/>
<path d="M26.9001 13.254L24.9308 9.44976L27.5316 8.10376C28.4284 9.83599 28.1184 11.8749 26.9001 13.254Z" fill="#999999"/>
<path d="M9.69869 23.6907L13.4764 21.7363L10.8806 16.7236L7.10449 18.6796L9.69869 23.6907Z" fill="#B3B3B3"/>
<path d="M9.69877 23.691L8.24503 24.4435C5.47347 25.879 2.06869 24.7999 0.633179 22.03L7.10292 18.6799L9.69712 23.691H9.69877Z" fill="black"/>
<path d="M27.0791 19.0582L13.4766 21.7369L10.8807 16.7242L22.703 10.6042L27.0791 19.0582Z" fill="#B3B3B3"/>
<path d="M28.9339 19.9151C28.3156 20.2351 27.5631 19.9947 27.2465 19.383L22.7029 10.6059L24.9324 9.45215L29.476 18.2293C29.7926 18.841 29.5539 19.5969 28.9356 19.9168L28.9339 19.9151Z" fill="#1A1A1A"/>
<path d="M16.4453 32.0904L16.4403 32.0938L11.5851 22.7165L13.4748 21.7385L17.3536 29.231C17.8907 30.2687 17.4813 31.555 16.4436 32.0921L16.4453 32.0904Z" fill="#999999"/>
</svg>
