<svg width="48" height="48" viewBox="0 0 48 48" fill="none" xmlns="http://www.w3.org/2000/svg">
<path d="M24 48C37.2548 48 48 37.2548 48 24C48 10.7452 37.2548 0 24 0C10.7452 0 0 10.7452 0 24C0 37.2548 10.7452 48 24 48Z" fill="#C9CACA"/>
<path fill-rule="evenodd" clip-rule="evenodd" d="M26.1421 35.1812C28.8349 35.2138 30.3825 35.25 30.7957 35.2899C30.8392 37.5623 30.8645 38.7003 30.8645 38.7003C27.8093 38.8525 26.3632 38.9287 26.5263 38.925C25.9971 36.8628 25.8703 35.6161 26.1457 35.1848L26.1421 35.1812Z" fill="#E8E9E9"/>
<path fill-rule="evenodd" clip-rule="evenodd" d="M8.9556 35.1812C6.26275 35.2138 4.71518 35.25 4.30202 35.2899C4.25852 37.5623 4.23315 38.7003 4.23315 38.7003C7.28843 38.8525 8.73451 38.9287 8.57142 38.925C9.10057 36.8628 9.22742 35.6161 8.95197 35.1848L8.9556 35.1812Z" fill="#E8E9E9"/>
<path fill-rule="evenodd" clip-rule="evenodd" d="M30.8066 36.0614C30.7341 31.2737 30.6978 28.8708 30.6978 28.8454C30.687 28.0263 30.6797 27.6168 30.6797 27.6168C30.6761 27.4211 30.6761 27.3269 30.6761 27.3269C30.7449 27.0405 30.7848 26.7252 30.7957 26.3882C30.8464 25.4748 30.7667 24.9602 30.5601 24.8478C30.2955 20.0312 29.915 17.052 29.4148 15.9176C28.2877 15.3522 27.5665 15.0659 27.2511 15.0659C26.8054 14.7361 26.4284 14.5694 26.124 14.5658C20.4085 14.4317 17.5526 14.3628 17.5526 14.3628C17.5526 14.3628 14.6894 14.4317 8.97388 14.5658C8.66944 14.5694 8.29251 14.7361 7.84673 15.0659C7.53142 15.0659 6.81018 15.3486 5.68303 15.9176C5.18288 17.0556 4.79871 20.0312 4.53776 24.8478C4.33117 24.9602 4.25144 25.4712 4.30218 26.3882C4.31305 26.7252 4.35654 27.0405 4.42178 27.3269C4.42178 27.3269 4.42178 27.4247 4.41816 27.6168C4.41816 27.6168 4.41091 28.0263 4.40004 28.8454C4.40366 28.8708 4.36742 31.2737 4.29131 36.0614H30.8102H30.8066Z" fill="#E8E9E9"/>
<path d="M7.96991 43.1836H4.70081V47.9531H7.96991V43.1836Z" fill="#404040"/>
<path fill-rule="evenodd" clip-rule="evenodd" d="M4.36731 42.9185C4.37818 43.4657 4.38181 44.013 4.38181 44.5603C6.95142 44.5748 8.23442 44.582 8.23442 44.582C8.23442 43.6143 8.23442 43.1323 8.23442 43.1323L4.36731 42.9185Z" fill="#292827"/>
<path d="M30.3897 43.1836H27.1206V47.9531H30.3897V43.1836Z" fill="#404040"/>
<path fill-rule="evenodd" clip-rule="evenodd" d="M30.7232 42.9185C30.7123 43.4657 30.7087 44.013 30.7087 44.5603C28.1391 44.5748 26.8561 44.582 26.8561 44.582C26.8561 43.6143 26.8561 43.1323 26.8561 43.1323L30.7232 42.9185Z" fill="#292827"/>
<path fill-rule="evenodd" clip-rule="evenodd" d="M4.2876 36.0615H30.8065C30.8028 35.8259 30.7992 35.594 30.7956 35.3693C30.5274 35.3729 30.2701 35.3801 30.0309 35.3837C29.335 35.3982 28.7515 35.4091 28.284 35.4164C27.3308 35.4345 26.856 35.4417 26.856 35.4417C26.8814 32.4046 26.8922 30.8824 26.8922 30.8824C26.885 30.3243 26.6784 30.0379 26.2725 30.0234C24.0689 30.0778 21.8219 30.1104 19.5676 30.1213C19.7089 30.3351 19.8358 30.5671 19.9372 30.8172C21.445 30.7918 23.6666 30.7555 26.5987 30.7084C26.6168 31.8102 26.3522 32.3502 25.8086 32.3285C24.8373 32.3683 24.3516 32.3865 24.3516 32.3865C24.3335 32.0675 24.1197 31.9153 23.7065 31.9262C22.0466 31.9552 20.7201 31.9806 19.7307 31.9987C19.5676 32.256 19.361 32.4916 19.1109 32.7018C18.5926 32.7344 18.0707 32.7525 17.5525 32.7561C17.0306 32.7525 16.5051 32.7344 15.9868 32.7018C15.7331 32.4916 15.5265 32.256 15.367 31.9987C14.3776 31.9806 13.0511 31.9552 11.3912 31.9262C10.978 31.9153 10.7642 32.0675 10.7461 32.3865C10.7461 32.3865 10.2604 32.3683 9.28911 32.3285C8.74184 32.3502 8.48089 31.8102 8.49901 30.7084C11.4311 30.7555 13.6527 30.7918 15.1604 30.8172C15.2655 30.5707 15.3888 30.3351 15.5301 30.1213C13.2722 30.1104 11.0251 30.0778 8.8252 30.0234C8.41928 30.0379 8.2127 30.3279 8.20545 30.8824C8.20545 30.8824 8.21632 32.401 8.24169 35.4417C8.24169 35.4417 7.76691 35.4345 6.81372 35.4164C6.34619 35.4091 5.76268 35.3982 5.06682 35.3837C4.82399 35.3801 4.57029 35.3729 4.30209 35.3693C4.29847 35.594 4.29485 35.8259 4.29122 36.0615H4.2876Z" fill="#6D6E6E"/>
<path fill-rule="evenodd" clip-rule="evenodd" d="M26.9502 37.4786C26.9502 37.4786 26.9538 37.1524 26.9574 36.5037C28.534 36.4493 29.817 36.3007 30.8028 36.0615H4.28394C5.27336 36.3007 6.55274 36.4493 8.1293 36.5037C8.13292 37.1561 8.13655 37.4786 8.13655 37.4786C8.30327 37.7577 8.36488 38.1274 8.32501 38.5876C9.9052 38.6456 11.3948 38.6638 12.7974 38.6348C15.9215 38.729 19.1652 38.729 22.2894 38.6348C23.6883 38.6638 25.1816 38.6456 26.7617 38.5876C26.7219 38.1274 26.7835 37.7613 26.9502 37.4786Z" fill="#6D6E6E"/>
<path fill-rule="evenodd" clip-rule="evenodd" d="M25.6926 43.4516C28.2876 43.5894 29.962 43.4118 30.7231 42.9189C30.8028 42.6434 30.821 42.3789 30.7811 42.1215C31.5023 41.799 31.2233 39.0083 31.2233 38.3269C27.9215 38.5879 24.9424 38.6893 22.2894 38.6386C19.1653 38.7328 15.9215 38.7328 12.7974 38.6386C10.1408 38.693 7.16527 38.5879 3.86354 38.3269C3.86354 39.0083 3.5881 41.799 4.30933 42.1215C4.26946 42.3789 4.29121 42.6471 4.36732 42.9189C5.12479 43.4118 6.80284 43.5894 9.39783 43.4516C14.653 43.651 20.441 43.651 25.6926 43.4516Z" fill="#7C8785"/>
<path fill-rule="evenodd" clip-rule="evenodd" d="M17.5489 25.5108C14.7546 25.5289 10.9165 25.4383 6.04904 25.2353C5.7446 25.2136 5.57064 24.9998 5.53077 24.5866C5.14297 21.7886 5.38942 18.9363 6.252 16.2471C6.4151 16.0913 6.6543 16.0079 6.97324 15.997C14.0188 15.9173 17.5489 15.8774 17.5489 15.8774C17.5489 15.8774 21.0717 15.9173 28.1173 15.997C28.4362 16.0079 28.6754 16.0913 28.8385 16.2471C29.7011 18.9363 29.9476 21.7886 29.5598 24.5866C29.5199 24.9961 29.3459 25.2136 29.0415 25.2353C24.1741 25.4383 20.3432 25.5325 17.5489 25.5108Z" fill="#353043"/>
<path fill-rule="evenodd" clip-rule="evenodd" d="M6.81008 35.4133C6.79921 34.8406 6.05623 33.554 4.58115 31.5461C4.42893 33.293 4.49054 34.4854 4.76599 35.1233C4.91096 35.2538 5.01244 35.3408 5.06318 35.377L6.81008 35.4096V35.4133Z" fill="#FEC900"/>
<path fill-rule="evenodd" clip-rule="evenodd" d="M9.61523 43.459C10.0429 44.597 11.3875 45.0972 13.6454 44.9558C16.1716 44.9558 17.4799 44.9558 17.5524 44.9558C17.6249 44.9558 18.9224 44.9558 21.4521 44.9558C23.7101 45.0972 25.0511 44.597 25.4823 43.459H9.61886H9.61523Z" fill="#404040"/>
<path fill-rule="evenodd" clip-rule="evenodd" d="M13.4679 43.5278H17.335H17.5416H21.8364V45.1769H17.5416H17.335H13.4679V43.5278Z" fill="#292827"/>
<path fill-rule="evenodd" clip-rule="evenodd" d="M7.71616 31.4261C7.71616 31.4261 7.72703 32.633 7.74515 35.0432C7.74515 35.0432 7.58931 34.891 7.28125 34.5901C7.28125 34.5901 7.23413 33.0317 7.14352 29.9112C7.14352 28.6463 6.10698 28.3129 5.17554 27.7185C5.991 27.9686 6.7376 28.2694 7.41172 28.6246C7.6618 29.0124 7.7814 29.4727 7.7524 29.9329L7.71616 31.4261Z" fill="#D3D5D5"/>
<path d="M3.09162 17.6104H1.25049V22.1769H3.09162V17.6104Z" fill="black"/>
<path d="M3.09162 22.4634H1.25049V23.9783H3.09162V22.4634Z" fill="black"/>
<path d="M5.16821 17.3781C5.05586 17.2005 4.87827 17.0519 4.63182 16.9359C4.37449 16.8163 4.04831 16.7294 3.65326 16.6786C3.43218 16.6714 3.21472 16.6677 2.99727 16.6677C2.79068 16.6677 2.5841 16.675 2.37026 16.6859C2.3014 16.733 2.26878 16.8055 2.27603 16.9106L2.10207 24.3186C2.13106 24.3875 2.19267 24.4455 2.27966 24.4926C2.39563 24.5542 2.5551 24.594 2.75806 24.6194L5.1211 24.6013V24.8804L2.73269 24.8985H2.72907C2.48987 24.8695 2.29415 24.8151 2.14918 24.739C1.98609 24.652 1.87736 24.5361 1.83025 24.3875L1.823 24.3657L2.00059 16.9214C1.98972 16.6895 2.08032 16.5228 2.26878 16.4249L2.29415 16.4104H2.32315C2.54423 16.3995 2.76894 16.3923 2.99727 16.3887C3.22197 16.3887 3.44668 16.3923 3.66776 16.3995H3.67863C4.10992 16.4539 4.4651 16.5481 4.74779 16.6822C5.04136 16.82 5.25882 17.0048 5.40017 17.2295L5.16459 17.3781H5.16821Z" fill="black"/>
<path fill-rule="evenodd" clip-rule="evenodd" d="M17.549 40.6901C17.549 40.6901 20.2998 40.6575 25.7978 40.585C27.9579 40.614 28.9256 40.0993 28.6973 39.0447C24.754 39.2259 21.0319 39.3165 17.5417 39.3092C14.0551 39.3129 10.3366 39.2259 6.39341 39.0447C6.16508 40.0993 7.13277 40.6104 9.29284 40.585C14.7909 40.6539 17.549 40.6901 17.549 40.6901Z" fill="#353043"/>
<path fill-rule="evenodd" clip-rule="evenodd" d="M17.5488 32.0384C17.5488 32.0384 19.6002 32.0021 23.7029 31.926C24.1124 31.9151 24.3299 32.0674 24.348 32.3863C24.348 32.3863 24.8336 32.3682 25.805 32.3283C26.3522 32.3501 26.6132 31.81 26.595 30.7083C20.5642 30.8061 17.5488 30.8568 17.5488 30.8568C17.5488 30.8568 14.5262 30.8061 8.49538 30.7083C8.47726 31.81 8.74183 32.3501 9.28547 32.3283C10.2568 32.3682 10.7424 32.3863 10.7424 32.3863C10.7606 32.0674 10.9744 31.9151 11.3876 31.926C15.4902 31.9985 17.5488 32.0384 17.5488 32.0384Z" fill="#E8E9E9"/>
<path fill-rule="evenodd" clip-rule="evenodd" d="M28.2803 35.4133C28.2911 34.8406 29.0341 33.554 30.5092 31.5461C30.6614 33.293 30.5998 34.4854 30.3244 35.1233C30.1794 35.2538 30.0779 35.3408 30.0272 35.377L28.2803 35.4096V35.4133Z" fill="#FEC900"/>
<path fill-rule="evenodd" clip-rule="evenodd" d="M27.3742 31.4261C27.3742 31.4261 27.3634 32.633 27.3452 35.0432C27.3452 35.0432 27.5011 34.891 27.8092 34.5901C27.8092 34.5901 27.8563 33.0317 27.9469 29.9112C27.9469 28.6463 28.9834 28.3129 29.9149 27.7185C29.0994 27.9686 28.3528 28.2694 27.6787 28.6246C27.4286 29.0124 27.309 29.4727 27.338 29.9329L27.3742 31.4261Z" fill="#D3D5D5"/>
<path d="M33.8436 17.6104H32.0024V22.1769H33.8436V17.6104Z" fill="black"/>
<path d="M33.8436 22.4634H32.0024V23.9783H33.8436V22.4634Z" fill="black"/>
<path d="M29.9257 17.3781C30.0381 17.2005 30.2157 17.0519 30.4621 16.9359C30.7194 16.8163 31.0456 16.7294 31.4407 16.6786C31.6617 16.6714 31.8792 16.6677 32.0967 16.6677C32.3032 16.6677 32.5098 16.675 32.7237 16.6859C32.7925 16.733 32.8251 16.8055 32.8179 16.9106L32.9919 24.3186C32.9629 24.3875 32.9013 24.4455 32.8143 24.4926C32.6983 24.5542 32.5388 24.594 32.3359 24.6194L29.9728 24.6013V24.8804L32.3612 24.8985H32.3649C32.6077 24.8695 32.7998 24.8151 32.9447 24.739C33.1078 24.652 33.2166 24.5361 33.2637 24.3875L33.2709 24.3657L33.0933 16.9214C33.1042 16.6895 33.0136 16.5228 32.8251 16.4249L32.7998 16.4104H32.7708C32.5497 16.3995 32.325 16.3923 32.1003 16.3887C31.8756 16.3887 31.6509 16.3923 31.4298 16.3995H31.4189C30.9876 16.4539 30.6325 16.5481 30.3498 16.6822C30.0562 16.82 29.8351 17.0048 29.6974 17.2295L29.933 17.3781H29.9257Z" fill="black"/>
<path fill-rule="evenodd" clip-rule="evenodd" d="M17.5488 34.9666C17.5488 34.9666 19.6002 34.9303 23.7029 34.8542C24.1124 34.8434 24.3299 34.9956 24.348 35.3145C24.348 35.3145 24.8336 35.2964 25.805 35.2565C26.3522 35.2783 26.6132 34.7383 26.595 33.6365C20.5642 33.7343 17.5488 33.7851 17.5488 33.7851C17.5488 33.7851 14.5262 33.7343 8.49538 33.6365C8.47726 34.7383 8.74183 35.2783 9.28547 35.2565C10.2568 35.2964 10.7424 35.3145 10.7424 35.3145C10.7606 34.9956 10.9744 34.8434 11.3876 34.8542C15.4902 34.9267 17.5488 34.9666 17.5488 34.9666Z" fill="#E8E9E9"/>
<path fill-rule="evenodd" clip-rule="evenodd" d="M17.5488 37.7542C17.5488 37.7542 19.6002 37.7179 23.7029 37.6418C24.1124 37.631 24.3299 37.7832 24.348 38.1021C24.348 38.1021 24.8336 38.084 25.805 38.0441C26.3522 38.0659 26.6132 37.5259 26.595 36.4241C20.5642 36.5219 17.5488 36.5727 17.5488 36.5727C17.5488 36.5727 14.5262 36.5219 8.49538 36.4241C8.47726 37.5259 8.74183 38.0659 9.28547 38.0441C10.2568 38.084 10.7424 38.1021 10.7424 38.1021C10.7606 37.7832 10.9744 37.631 11.3876 37.6418C15.4902 37.7143 17.5488 37.7542 17.5488 37.7542Z" fill="#E8E9E9"/>
<path fill-rule="evenodd" clip-rule="evenodd" d="M17.5488 32.7596C17.0269 32.756 16.5014 32.7379 15.9831 32.7052C15.4866 32.2884 15.1677 31.7847 15.0227 31.1903C15.2692 30.4292 15.6751 29.8058 16.2441 29.3165C16.2441 29.3165 16.6863 29.3129 17.5525 29.3057C18.4187 29.3129 18.8536 29.3165 18.8536 29.3165C19.4226 29.8058 19.8285 30.4292 20.075 31.1903C19.93 31.7847 19.611 32.2884 19.1145 32.7052C18.5962 32.7379 18.0744 32.756 17.5561 32.7596H17.5488Z" fill="#353043"/>
<path fill-rule="evenodd" clip-rule="evenodd" d="M8.16203 41.1568C5.83887 41.3416 3.89625 41.5627 4.30942 38.8191C4.75883 38.8735 5.20462 38.9387 5.64678 39.0112C9.01012 39.4896 8.7238 41.2184 8.16203 41.1568Z" fill="#FEFEFE"/>
<path fill-rule="evenodd" clip-rule="evenodd" d="M26.9285 41.1568C29.2516 41.3416 31.1943 41.5627 30.7811 38.8191C30.3317 38.8735 29.8859 38.9387 29.4437 39.0112C26.0804 39.4896 26.3667 41.2184 26.9285 41.1568Z" fill="#FEFEFE"/>
<path fill-rule="evenodd" clip-rule="evenodd" d="M17.614 31.0378C17.8423 31.0342 18.0707 31.0342 18.299 31.0306C18.3823 31.0306 18.4693 31.027 18.5527 31.027C18.636 31.027 18.7158 31.027 18.7955 31.027C18.9115 31.0306 19.042 31.0197 19.1362 31.0668C19.1869 31.0922 19.2051 31.1284 19.2159 31.1864C19.2159 31.1901 19.2159 31.1937 19.2159 31.1973C19.2123 31.277 19.1652 31.3713 19.1289 31.4474C19.0782 31.5561 18.9876 31.654 18.897 31.7409C18.7411 31.8932 18.4331 32.0708 18.1105 32.1577C18.067 32.1686 18.0127 32.1867 17.9656 32.2012C17.9293 32.2121 17.9402 32.2266 17.9656 32.2266C18.0163 32.223 18.0743 32.2085 18.1214 32.1976C18.4983 32.1034 18.7556 31.9512 18.9369 31.8062C19.0456 31.7192 19.1543 31.596 19.2304 31.4691C19.2812 31.3821 19.3319 31.2408 19.3355 31.1901C19.3428 31.1212 19.3537 31.0886 19.35 30.9798C19.3392 30.7986 19.2812 30.6537 19.1761 30.4869C19.1688 30.4761 19.1579 30.4652 19.1507 30.4543C19.1471 30.4471 19.1434 30.4398 19.1471 30.429H19.1507C19.1616 30.4253 19.1761 30.4362 19.1833 30.4471C19.2703 30.5449 19.321 30.6247 19.3681 30.7225C19.4298 30.853 19.4479 30.9509 19.4588 31.0668C19.4624 31.0886 19.4841 31.0994 19.4878 31.0632C19.4914 30.94 19.466 30.8059 19.4153 30.6899C19.3573 30.5558 19.292 30.4797 19.2087 30.3818C19.1108 30.2804 18.9912 30.1861 18.8716 30.11C18.6868 29.994 18.4983 29.9179 18.2954 29.8599C18.212 29.8382 18.125 29.8201 18.038 29.8092C18.0127 29.8056 17.98 29.8056 17.9547 29.8056C17.9366 29.8056 17.9148 29.8273 17.9547 29.8346C18.009 29.8454 18.0598 29.8599 18.1141 29.8744C18.3135 29.9324 18.5128 30.0085 18.6868 30.1209C18.8318 30.2151 18.9042 30.2622 19.0818 30.4797C19.1036 30.5087 19.1507 30.5848 19.1761 30.6428C19.1942 30.6827 19.2196 30.7479 19.2196 30.7986C19.2159 30.8458 19.2051 30.8784 19.1652 30.9001C19.0855 30.9472 19.0166 30.9509 18.9115 30.9545C18.8354 30.9581 18.7593 30.9581 18.6832 30.9617C18.5708 30.9654 18.4621 30.9653 18.3461 30.969C18.1033 30.9726 17.8604 30.9762 17.6212 30.9798C17.5959 30.9798 17.5705 30.9798 17.5451 30.9798C17.2987 30.9798 17.0522 30.9835 16.8058 30.9835C16.6934 30.9835 16.5811 30.9835 16.4687 30.9835C16.3926 30.9835 16.3165 30.9835 16.2404 30.9798C16.1317 30.9762 16.0628 30.9726 15.9831 30.9291C15.9432 30.9074 15.9323 30.8747 15.9287 30.8276C15.9287 30.7805 15.9541 30.7117 15.9686 30.6718C15.9939 30.6102 16.0411 30.5377 16.0592 30.5087C16.2295 30.2876 16.302 30.2405 16.447 30.1426C16.6209 30.0267 16.8167 29.9469 17.016 29.8853C17.0704 29.8672 17.1211 29.8563 17.1755 29.8418C17.2153 29.831 17.1936 29.8128 17.1755 29.8128C17.1501 29.8128 17.1175 29.8128 17.0921 29.8165C17.0051 29.8273 16.9181 29.8454 16.8348 29.8708C16.6318 29.9288 16.447 30.0122 16.2621 30.1318C16.1425 30.2079 16.0266 30.3057 15.9323 30.4108C15.8526 30.5123 15.791 30.5884 15.733 30.7225C15.6823 30.8385 15.6569 30.9726 15.6641 31.0958C15.6678 31.1321 15.6895 31.1212 15.6931 31.0994C15.7004 30.9835 15.7149 30.8856 15.7765 30.7551C15.8236 30.6537 15.8707 30.5739 15.9577 30.4761C15.9649 30.4688 15.9794 30.4543 15.9903 30.458H15.9939C15.9976 30.4688 15.9939 30.4761 15.9903 30.4833C15.9831 30.4942 15.9722 30.5051 15.9649 30.5159C15.8598 30.6827 15.8055 30.8313 15.7982 31.0125C15.7982 31.1212 15.8055 31.1538 15.8164 31.2227C15.8236 31.2734 15.878 31.4148 15.9287 31.5017C16.0048 31.6286 16.1172 31.7482 16.2259 31.8352C16.4071 31.9765 16.6681 32.1215 17.0486 32.2121C17.0957 32.223 17.1537 32.2375 17.2045 32.2375C17.2298 32.2375 17.2407 32.2194 17.2045 32.2121C17.1573 32.2012 17.103 32.1831 17.0595 32.1722C16.7333 32.0889 16.4252 31.9185 16.2658 31.7699C16.1715 31.683 16.0809 31.5851 16.0266 31.48C15.9903 31.4039 15.936 31.3097 15.9323 31.2299C15.9323 31.2263 15.9323 31.2227 15.9323 31.2191C15.9396 31.1611 15.9577 31.1248 16.0084 31.0994C16.1027 31.0523 16.2331 31.0596 16.3491 31.0523C16.4325 31.0523 16.5122 31.0487 16.5919 31.0487C16.6753 31.0487 16.7623 31.0487 16.8456 31.0487C17.0776 31.0451 17.3132 31.0451 17.5451 31.0415C17.5705 31.0415 17.5959 31.0415 17.6249 31.0415L17.614 31.0378ZM17.6104 30.9545C17.7735 30.9509 17.9329 30.9509 18.0924 30.9472C18.2084 30.9436 18.3244 30.9436 18.4403 30.9364C18.5454 30.9327 18.6469 30.9291 18.752 30.9182C18.8499 30.911 18.984 30.8929 19.0057 30.8784C19.0238 30.8675 19.0166 30.853 19.0021 30.8385C18.9804 30.8204 18.9514 30.8059 18.926 30.7986C18.9151 30.795 18.897 30.7986 18.8897 30.8059C18.8716 30.824 18.8608 30.8276 18.8354 30.8349C18.7375 30.8602 18.6687 30.8711 18.5418 30.882C18.4476 30.8892 18.3497 30.8965 18.2555 30.9001C18.0417 30.9074 17.9076 30.911 17.6067 30.9146C17.5814 30.9146 17.5524 30.9146 17.527 30.9146C17.2189 30.9182 17.0849 30.9182 16.8674 30.911C16.7732 30.9074 16.6753 30.9037 16.5811 30.8965C16.4542 30.8892 16.3854 30.8784 16.2875 30.853C16.2621 30.8457 16.2513 30.8421 16.2331 30.8276C16.2223 30.8204 16.2078 30.8168 16.1969 30.8204C16.1715 30.8313 16.1425 30.8458 16.1244 30.8639C16.1099 30.8747 16.1063 30.8892 16.1208 30.9037C16.1425 30.9182 16.2766 30.9327 16.3781 30.94C16.4832 30.9472 16.5847 30.9509 16.6898 30.9509C16.8058 30.9545 16.9218 30.9545 17.0377 30.9545C17.2008 30.9545 17.3639 30.9509 17.5306 30.9509C17.556 30.9509 17.585 30.9509 17.6104 30.9509V30.9545ZM17.6067 30.8675C17.9366 30.8639 18.2881 30.8675 18.6143 30.8276C18.7774 30.8095 18.8245 30.7225 18.8318 30.6645C18.8535 30.4761 18.5708 30.2332 18.4258 30.1535C18.2265 30.0484 18.0489 29.9651 17.8097 29.9034C17.7807 29.8962 17.759 29.8599 17.759 29.8346C17.759 29.8092 17.7952 29.7802 17.8206 29.773C17.8931 29.7548 17.9728 29.7585 18.0489 29.7693C18.1721 29.7875 18.2917 29.8092 18.415 29.8454C18.5744 29.8926 18.752 29.9723 18.9042 30.0665C19.1036 30.1898 19.2775 30.3456 19.4008 30.5413C19.4914 30.679 19.5566 30.8602 19.5602 31.0125C19.5602 31.2009 19.4914 31.3894 19.3863 31.5489C19.2884 31.7047 19.1507 31.8316 18.9985 31.9439C18.8607 32.0454 18.7049 32.1215 18.5491 32.1867C18.4113 32.2411 18.2664 32.2737 18.1214 32.2991C18.0272 32.3136 17.9402 32.3208 17.846 32.3063C17.8206 32.3027 17.7807 32.2737 17.7771 32.2483C17.7735 32.2194 17.7952 32.1904 17.8206 32.1795C17.9003 32.1541 18.0272 32.1142 18.1214 32.0708C18.241 32.0164 18.3606 31.962 18.4693 31.8895C18.5781 31.8171 18.6832 31.7337 18.752 31.6322C18.7919 31.5779 18.8318 31.4981 18.8354 31.4438C18.839 31.4075 18.839 31.364 18.8209 31.335C18.7484 31.2191 18.5527 31.2263 18.4041 31.2191C18.27 31.2154 18.1359 31.2154 18.0018 31.2118C17.8677 31.2082 17.7082 31.2082 17.5705 31.2082C17.4328 31.2118 17.2733 31.2154 17.1392 31.2191C17.0051 31.2227 16.871 31.2263 16.7369 31.2335C16.5883 31.2408 16.3926 31.2372 16.3201 31.3568C16.302 31.3858 16.302 31.4293 16.3056 31.4655C16.3093 31.5235 16.3527 31.5996 16.3926 31.654C16.4651 31.7554 16.5702 31.8352 16.6789 31.9077C16.7877 31.9765 16.9109 32.0309 17.0305 32.0816C17.1247 32.1215 17.2552 32.1614 17.3313 32.1831C17.3567 32.1904 17.3784 32.223 17.3748 32.2483C17.3712 32.2737 17.3313 32.3027 17.3096 32.3063C17.2153 32.3245 17.1283 32.3172 17.0341 32.3027C16.8891 32.281 16.7442 32.2483 16.6064 32.1976C16.447 32.136 16.2911 32.0635 16.1534 31.9657C16.0012 31.8569 15.8598 31.7337 15.7584 31.5779C15.6533 31.4184 15.5771 31.2335 15.5771 31.0415C15.5771 30.8892 15.6388 30.708 15.7257 30.5667C15.849 30.3673 16.0193 30.2115 16.215 30.0847C16.3672 29.9868 16.5412 29.9034 16.7007 29.8527C16.8203 29.8165 16.9399 29.7911 17.0631 29.7693C17.1392 29.7585 17.2189 29.7512 17.2914 29.7693C17.3168 29.7766 17.353 29.8056 17.353 29.8273C17.353 29.8563 17.3349 29.8889 17.3023 29.8998C17.0667 29.965 16.8891 30.052 16.6934 30.1608C16.5485 30.2405 16.2694 30.4906 16.2948 30.679C16.302 30.737 16.3491 30.824 16.5122 30.8385C16.842 30.8711 17.1972 30.8602 17.5306 30.8602C17.556 30.8602 17.5814 30.8602 17.6067 30.8602V30.8675Z" fill="#D3D5D5"/>
<path d="M41.4001 30.6616L47.1229 36.3844C48.2247 37.4898 48.2247 39.2802 47.1229 40.3856C46.0211 41.4874 44.2343 41.4874 43.1217 40.3819L37.3989 34.6592L41.4001 30.6616Z" fill="#666666"/>
<path d="M38.3811 29.7192L36.4602 31.6401L33.115 28.2912L35.0322 26.3704L38.3811 29.7192Z" fill="black"/>
<path d="M41.6357 27.7837C42.0018 28.1498 42.183 28.6282 42.183 29.1066C42.183 29.5886 41.9945 30.067 41.6285 30.433L37.1815 34.8873C36.4458 35.6194 35.2642 35.6194 34.5285 34.8909C34.1625 34.5212 33.974 34.0428 33.974 33.5644C33.974 33.086 34.1625 32.6076 34.5285 32.2379L38.9864 27.7837C39.7221 27.0516 40.9036 27.0516 41.6394 27.7837H41.6357Z" fill="black"/>
<path fill-rule="evenodd" clip-rule="evenodd" d="M24.3044 2.88501C32.4445 2.88501 39.048 9.48483 39.048 17.6286C39.048 25.7687 32.4481 32.3722 24.3044 32.3722C16.1642 32.3722 9.56079 25.7724 9.56079 17.6286C9.56079 9.48845 16.1606 2.88501 24.3044 2.88501ZM24.3044 5.63222C30.9296 5.63222 36.2971 11.0034 36.2971 17.625C36.2971 24.2502 30.9259 29.6177 24.3044 29.6177C17.6792 29.6177 12.3116 24.2465 12.3116 17.625C12.3116 10.9998 17.6828 5.63222 24.3044 5.63222Z" fill="black"/>
<path fill-rule="evenodd" clip-rule="evenodd" d="M35.2607 12.7395C33.3906 8.54987 29.1864 5.63232 24.3045 5.63232C24.203 5.63232 24.1015 5.63232 24 5.63595C19.0819 5.75917 14.8995 8.83982 13.1671 13.1672C12.9967 13.5912 12.8517 14.0262 12.7285 14.4756C13.3591 14.4611 13.9282 14.4466 14.4319 14.4357C16.5086 14.385 17.5488 14.3632 17.5488 14.3632C17.5488 14.3632 19.698 14.414 24 14.5154C24.656 14.5299 25.3628 14.5481 26.1202 14.5662C26.4247 14.5698 26.8016 14.7365 27.2474 15.0663C27.5627 15.0663 28.2839 15.349 29.4111 15.918C29.5379 16.2044 29.6539 16.6067 29.7663 17.1213C29.904 16.9473 30.0961 16.8024 30.3425 16.6864C30.6252 16.5523 30.984 16.4581 31.4117 16.4037H31.4226C31.4842 16.4001 31.5458 16.4001 31.611 16.3964C31.7705 16.3928 31.9336 16.3892 32.0967 16.3928C32.325 16.3928 32.5461 16.4001 32.7672 16.4146H32.7962L32.8215 16.4291C33.01 16.5269 33.1006 16.6936 33.0934 16.9256L33.1115 17.6178H33.8436V22.1844H33.2202L33.2275 22.4707H33.8436V23.9857H33.2637V24.0074L33.271 24.3662L33.2637 24.388C33.213 24.5366 33.1079 24.6526 32.9448 24.7395C32.7998 24.8157 32.6041 24.87 32.3649 24.899H32.3613L30.6144 24.8845C30.7847 25.0476 30.8463 25.5514 30.7992 26.3886C30.7883 26.7257 30.7448 27.041 30.6796 27.3273C30.6796 27.3273 30.6832 27.4251 30.6832 27.6172C30.6832 27.6172 30.6832 27.6752 30.6868 27.7876C32.2127 26.8271 33.5102 25.5296 34.4706 24.0038C35.6304 22.1554 36.3045 19.97 36.3045 17.6287C36.3045 15.889 35.9348 14.2364 35.2679 12.7432L35.2607 12.7395Z" fill="#B3B3B3"/>
<path fill-rule="evenodd" clip-rule="evenodd" d="M31.3066 16.6938C30.9695 16.7482 30.6868 16.8279 30.4585 16.933C30.212 17.049 30.0344 17.1976 29.9221 17.3752L29.8025 17.3027C29.8496 17.5347 29.8931 17.7884 29.9366 18.0602C30.1613 19.4773 30.3534 21.4561 30.5056 24.0004C30.5165 24.1961 30.5273 24.399 30.5418 24.602L32.3286 24.6165C32.5316 24.5911 32.6947 24.5476 32.807 24.4897C32.8976 24.4425 32.9556 24.3846 32.9846 24.3157L32.9774 24.0004V23.9786H31.9952V22.4637H32.9411L32.9339 22.1774H31.9952V17.6108H32.8251L32.807 16.9113C32.8106 16.8062 32.7816 16.7301 32.7128 16.6866C32.5026 16.6757 32.2924 16.6685 32.0858 16.6685C31.8683 16.6685 31.6509 16.6721 31.4334 16.6793C31.3899 16.6866 31.3428 16.6902 31.3029 16.6975L31.3066 16.6938Z" fill="#B3B3B3"/>
</svg>
