<svg width="48" height="48" viewBox="0 0 48 48" fill="none" xmlns="http://www.w3.org/2000/svg">
<path d="M24 48C37.2548 48 48 37.2548 48 24C48 10.7452 37.2548 0 24 0C10.7452 0 0 10.7452 0 24C0 37.2548 10.7452 48 24 48Z" fill="#99B8D1"/>
<path d="M17.3837 44.3391H44.599V7.28467H17.3837V44.3391Z" fill="black"/>
<path d="M42.089 5.68066V36.1039L35.4578 42.7351H14.8811V5.68066H42.089Z" fill="white"/>
<path d="M35.4578 42.7352V36.104H42.0889L35.4578 42.7352Z" fill="#B3B3B3"/>
<path d="M5.23502 27.46L2.19046 30.5045C1.60383 31.0912 1.60383 32.0491 2.19046 32.6357C2.7771 33.2223 3.72759 33.2223 4.32165 32.6357L7.36621 29.5911L5.23502 27.46Z" fill="#666666"/>
<path d="M6.84631 26.9621L7.86364 27.9794L9.64582 26.2047L8.62849 25.1799L6.84631 26.9621Z" fill="black"/>
<path d="M5.1087 25.9307C4.91563 26.1237 4.81909 26.3836 4.81909 26.6361C4.81909 26.896 4.91563 27.1485 5.11612 27.3416L7.48493 29.7104C7.8785 30.1039 8.50226 30.1039 8.89582 29.7104C9.08889 29.5173 9.19285 29.2574 9.19285 29.0049C9.19285 28.7525 9.09632 28.4926 8.89582 28.2995L6.52701 25.9307C6.13345 25.5371 5.50969 25.5371 5.11612 25.9307H5.1087Z" fill="black"/>
<path fill-rule="evenodd" clip-rule="evenodd" d="M14.339 12.6753C10.0024 12.6753 6.48999 16.1877 6.48999 20.5243C6.48999 24.8609 10.0024 28.3733 14.339 28.3733C18.6756 28.3733 22.188 24.8609 22.188 20.5243C22.188 16.1877 18.6756 12.6753 14.339 12.6753ZM14.339 14.1382C10.8118 14.1382 7.95286 16.9971 7.95286 20.5243C7.95286 24.0515 10.8118 26.9104 14.339 26.9104C17.8662 26.9104 20.7251 24.0515 20.7251 20.5243C20.7251 16.9971 17.8662 14.1382 14.339 14.1382Z" fill="black"/>
<path fill-rule="evenodd" clip-rule="evenodd" d="M14.339 26.911C10.8118 26.911 7.95288 24.052 7.95288 20.5248C7.95288 16.9976 10.8118 14.1387 14.339 14.1387C17.8662 14.1387 20.7252 16.9976 20.7252 20.5248C20.7252 24.052 17.8662 26.911 14.339 26.911Z" fill="white" stroke="#292827" stroke-width="0.20066" stroke-miterlimit="22.9256"/>
<path d="M30.7873 14.0273H26.5769V18.2377H30.7873V14.0273Z" fill="#CCCCCC"/>
<path d="M24.0891 13.277C23.7698 12.9577 23.7698 12.4453 24.0891 12.126C24.4084 11.8067 24.9208 11.8067 25.2401 12.126L28.4629 15.3488L33.995 9.81663C34.3143 9.49732 34.8267 9.49732 35.146 9.81663C35.4653 10.1359 35.4653 10.6483 35.146 10.9676L29.0421 17.0716C28.7228 17.3909 28.2104 17.3909 27.8911 17.0716L24.0965 13.277H24.0891Z" fill="#FF0000"/>
<path d="M30.7873 23.1313H26.5769V27.3417H30.7873V23.1313Z" fill="#CCCCCC"/>
<path d="M24.0891 22.381C23.7698 22.0617 23.7698 21.5493 24.0891 21.23C24.4084 20.9107 24.9208 20.9107 25.2401 21.23L28.4629 24.4528L33.995 18.9206C34.3143 18.6013 34.8267 18.6013 35.146 18.9206C35.4653 19.2399 35.4653 19.7523 35.146 20.0716L29.0421 26.1756C28.7228 26.4949 28.2104 26.4949 27.8911 26.1756L24.0965 22.381H24.0891Z" fill="black"/>
<path d="M30.7873 32.2354H26.5769V36.4457H30.7873V32.2354Z" fill="#CCCCCC"/>
<path d="M24.0891 31.4924C23.7698 31.173 23.7698 30.6607 24.0891 30.3414C24.4084 30.0221 24.9208 30.0221 25.2401 30.3414L28.4629 33.5641L33.995 28.032C34.3143 27.7127 34.8267 27.7127 35.146 28.032C35.4653 28.3513 35.4653 28.8636 35.146 29.1829L29.0421 35.2869C28.7228 35.6062 28.2104 35.6062 27.8911 35.2869L24.0965 31.4924H24.0891Z" fill="black"/>
</svg>
