<svg width="48" height="48" viewBox="0 0 48 48" fill="none" xmlns="http://www.w3.org/2000/svg">
<path d="M23.9992 47.9983C37.2535 47.9983 47.9983 37.2535 47.9983 23.9992C47.9983 10.7448 37.2535 0 23.9992 0C10.7448 0 0 10.7448 0 23.9992C0 37.2535 10.7448 47.9983 23.9992 47.9983Z" fill="#99B8D1"/>
<path fill-rule="evenodd" clip-rule="evenodd" d="M41.9767 8.10079V34.017V39.8985C37.579 44.8662 31.1561 47.9996 24.0008 47.9996C16.8439 47.9996 10.421 44.8662 6.0249 39.8985V34.0186V8.10238V2.70325H41.9783V8.10238L41.9767 8.10079Z" fill="#E6E6E6"/>
<path fill-rule="evenodd" clip-rule="evenodd" d="M9.79834 7.7583H16.5365H16.8358H23.574V17.5392H16.8358H16.5365H9.79834V7.7583Z" fill="#FB0000"/>
<path fill-rule="evenodd" clip-rule="evenodd" d="M22.9261 13.4691C22.9563 12.9724 22.8927 12.0011 22.735 10.5538C22.6045 10.5538 22.5392 10.5538 22.5392 10.5538C22.6761 12.6316 22.7462 13.6698 22.7462 13.6698L22.9261 13.4691Z" fill="#404040"/>
<path fill-rule="evenodd" clip-rule="evenodd" d="M12.0592 24.9416V21.9212V21.6951C12.0401 21.6951 12.0194 21.6951 12.0003 21.6951C11.5529 21.6919 11.107 21.6872 10.6596 21.6808C10.3508 21.4435 10.1565 21.0519 10.0737 20.5042H10.0291C10.0021 20.5471 9.96863 20.5806 9.93201 20.6013V24.9416H12.0592ZM21.3146 21.6967V21.9228V24.9432H23.4418V20.6029C23.4052 20.5822 23.3717 20.5503 23.3447 20.5057H23.3001C23.2173 21.0519 23.023 21.4451 22.7142 21.6824C22.2667 21.6887 21.8209 21.6935 21.3735 21.6967C21.3544 21.6967 21.3337 21.6967 21.3146 21.6967Z" fill="#404040"/>
<path fill-rule="evenodd" clip-rule="evenodd" d="M16.7212 23.0131C17.9249 23.0115 19.1286 22.9812 20.3323 22.9207C20.7988 22.752 21.1586 22.3826 21.3146 21.9208V21.6947C19.7718 21.7059 18.229 21.7011 16.6861 21.6804C15.1433 21.7027 13.6005 21.7075 12.0576 21.6947V21.9208C12.2152 22.3826 12.5751 22.7536 13.04 22.9207C14.266 22.9828 15.492 23.0131 16.7196 23.0131H16.7212Z" fill="#292827"/>
<path fill-rule="evenodd" clip-rule="evenodd" d="M13.5321 20.2365C15.6275 20.2142 17.7451 20.2142 19.8404 20.2365C19.9232 20.2285 20.1206 20.574 20.4343 21.273C20.1381 20.9386 19.9009 20.7731 19.7226 20.7778C17.7021 20.7635 15.672 20.7635 13.6515 20.7778C13.4732 20.7731 13.236 20.9386 12.9398 21.273C13.2519 20.574 13.4493 20.2285 13.5337 20.2365H13.5321ZM10.1169 19.3066C10.0611 19.4452 10.0325 19.6665 10.0293 19.969C10.0325 20.1362 10.0436 20.2922 10.0627 20.4387C10.0659 20.461 10.0691 20.4833 10.0723 20.5056C10.1551 21.0517 10.3493 21.445 10.6582 21.6822C11.1056 21.6886 11.5514 21.6933 11.9988 21.6965C12.0179 21.6965 12.0386 21.6965 12.0578 21.6965C13.6006 21.7077 15.1434 21.7029 16.6863 21.6822C18.2291 21.7045 19.7719 21.7093 21.3148 21.6965C21.3339 21.6965 21.3546 21.6965 21.3737 21.6965C21.8211 21.6933 22.2669 21.6886 22.7143 21.6822C23.0232 21.445 23.2175 21.0533 23.3003 20.5056C23.3034 20.4833 23.3066 20.461 23.3098 20.4387C23.3289 20.2922 23.3401 20.1362 23.3432 19.969C23.3401 19.6665 23.3114 19.4452 23.2557 19.3066C23.2063 19.1825 23.1363 19.1235 23.0439 19.1283C22.3258 19.2589 21.6523 19.3624 21.0234 19.4388C20.1875 19.5407 19.4312 19.5932 18.7561 19.598C17.6066 19.598 16.9267 19.598 16.7197 19.598C16.7197 19.598 16.0175 19.598 14.6148 19.598C13.9397 19.5932 13.1834 19.5407 12.3475 19.4388C11.7202 19.3624 11.0467 19.2589 10.3286 19.1283C10.2363 19.1235 10.1662 19.1825 10.1169 19.3066ZM12.0593 20.7444C11.1709 20.695 10.7267 20.6712 10.7267 20.6712C10.6662 20.6345 10.612 20.5788 10.5627 20.5056C10.5229 20.4451 10.4878 20.3734 10.4576 20.289C10.2204 19.7142 10.3223 19.4627 10.7617 19.5359C11.6581 19.6267 12.1819 19.727 12.3348 19.8353C12.4749 19.9117 12.5704 20.0534 12.588 20.2126C12.3507 20.574 12.2313 20.754 12.2313 20.754C12.1708 20.7508 12.1135 20.7476 12.0578 20.7444H12.0593ZM22.8114 20.5056C22.7637 20.5788 22.7095 20.6345 22.649 20.6712C22.649 20.6712 22.2048 20.695 21.3164 20.7444C21.2606 20.7476 21.2017 20.7508 21.1428 20.754C21.1428 20.754 21.0234 20.574 20.7862 20.2126C20.8037 20.0534 20.8992 19.9133 21.0393 19.8353C21.1922 19.727 21.7176 19.6267 22.6124 19.5359C23.0535 19.4627 23.1554 19.7142 22.9165 20.289C22.8863 20.3734 22.8513 20.4451 22.8114 20.5056Z" fill="#404040"/>
<path fill-rule="evenodd" clip-rule="evenodd" d="M12.0592 20.7428C12.1149 20.746 12.1738 20.7492 12.2327 20.7524C12.2327 20.7524 12.3505 20.5725 12.5894 20.211C12.5719 20.0518 12.4763 19.9117 12.3362 19.8337C12.1834 19.7254 11.6579 19.6251 10.7631 19.5344C10.3221 19.4611 10.2218 19.7127 10.459 20.2875C10.4893 20.3719 10.5243 20.4435 10.5641 20.504C10.6119 20.5772 10.666 20.633 10.7281 20.6696C10.7281 20.6696 11.1723 20.6935 12.0608 20.7428H12.0592Z" fill="#FEFEFE"/>
<path fill-rule="evenodd" clip-rule="evenodd" d="M22.8114 20.504C22.8512 20.4435 22.8862 20.3719 22.9165 20.2875C23.1537 19.7127 23.0534 19.4611 22.6124 19.5344C21.716 19.6251 21.1921 19.7254 21.0393 19.8337C20.8992 19.9101 20.8036 20.0518 20.7861 20.211C21.0234 20.5725 21.1428 20.7524 21.1428 20.7524C21.2017 20.7492 21.2606 20.746 21.3163 20.7428C22.2048 20.6935 22.649 20.6696 22.649 20.6696C22.7095 20.633 22.7636 20.5772 22.8114 20.504Z" fill="#FEFEFE"/>
<path fill-rule="evenodd" clip-rule="evenodd" d="M20.4342 21.2732C20.1221 20.5742 19.9247 20.2287 19.8403 20.2367C17.745 20.2144 15.6273 20.2144 13.532 20.2367C13.4492 20.2287 13.2518 20.5742 12.9381 21.2732C13.2343 20.9388 13.4715 20.7733 13.6498 20.778C15.6703 20.7637 17.7004 20.7637 19.7209 20.778C19.8992 20.7733 20.1364 20.9388 20.4326 21.2732H20.4342Z" fill="#6D6E6E"/>
<path fill-rule="evenodd" clip-rule="evenodd" d="M17.4727 18.1742C17.6734 18.0261 17.8326 17.8255 17.9313 17.5962C19.4932 17.5787 20.2734 17.5708 20.2734 17.5708C20.2702 17.7539 20.2511 17.9449 20.2161 18.1439L17.4711 18.1742H17.4727ZM21.5233 17.5389C21.5886 17.2889 21.6618 17.0135 21.7398 16.7142C20.8609 16.8272 19.5362 16.8686 17.7673 16.8383C17.2068 16.1999 16.1671 16.1999 15.6067 16.8383C13.8362 16.8686 12.513 16.8272 11.6342 16.7142C11.7138 17.0135 11.7854 17.2889 11.8507 17.5389C12.1819 18.8031 12.3491 19.4352 12.3491 19.4352C13.185 19.5371 13.9412 19.5897 14.6163 19.5944C15.7675 19.5944 16.4458 19.5944 16.6528 19.5944C16.6528 19.5944 17.3549 19.5944 18.7576 19.5944C19.4327 19.5897 20.189 19.5371 21.0249 19.4352C21.0249 19.4352 21.1905 18.8031 21.5233 17.5389ZM13.3458 18.7522C14.6195 18.7585 15.7341 18.7585 16.6862 18.7522C17.6383 18.7585 18.7513 18.7585 20.0266 18.7522C20.0601 18.87 20.0425 19.034 19.9757 19.2426C18.8595 19.276 17.7625 19.2903 16.6862 19.284C15.6099 19.2903 14.5128 19.276 13.3967 19.2426C13.3283 19.034 13.3107 18.8716 13.3458 18.7522ZM15.4411 17.5962C15.5398 17.8255 15.699 18.0245 15.8996 18.1742L13.1547 18.1439C13.1197 17.9449 13.1006 17.7539 13.0974 17.5708C13.0974 17.5708 13.8776 17.5787 15.4395 17.5962H15.4411Z" fill="#6D6E6E"/>
<path fill-rule="evenodd" clip-rule="evenodd" d="M15.8996 18.1744C15.6989 18.0263 15.5397 17.8257 15.441 17.5964C13.8791 17.5789 13.0989 17.5709 13.0989 17.5709C13.1021 17.754 13.1212 17.9451 13.1562 18.1441L15.9011 18.1744H15.8996Z" fill="#404040"/>
<path fill-rule="evenodd" clip-rule="evenodd" d="M17.9328 17.5964C17.8341 17.8257 17.6749 18.0247 17.4742 18.1744L20.2192 18.1441C20.2542 17.9451 20.2733 17.754 20.2765 17.5709C20.2765 17.5709 19.4963 17.5789 17.9344 17.5964H17.9328Z" fill="#404040"/>
<path fill-rule="evenodd" clip-rule="evenodd" d="M20.0266 18.7523C18.7528 18.7587 17.6383 18.7587 16.6862 18.7523C15.734 18.7587 14.6195 18.7587 13.3457 18.7523C13.3123 18.8701 13.3298 19.0341 13.3967 19.2427C14.5128 19.2762 15.6098 19.2905 16.6862 19.2841C17.7625 19.2905 18.8579 19.2762 19.9756 19.2427C20.0441 19.0341 20.0616 18.8717 20.0266 18.7523Z" fill="#404040"/>
<path fill-rule="evenodd" clip-rule="evenodd" d="M22.1172 18.1644C21.8529 18.4748 21.7223 18.7392 21.7255 18.9589C22.4133 18.97 22.8305 18.8793 22.9786 18.6914C23.0646 18.3602 23.0025 18.08 22.7923 17.8507C22.3417 18.0609 22.1172 18.166 22.1172 18.166V18.1644Z" fill="#FEC900"/>
<path fill-rule="evenodd" clip-rule="evenodd" d="M11.6484 18.959C11.65 18.7393 11.5194 18.475 11.2567 18.1645C11.2567 18.1645 11.0322 18.0594 10.5816 17.8492C10.3715 18.0785 10.3094 18.3587 10.3954 18.6899C10.5434 18.8794 10.9606 18.9686 11.6484 18.9574V18.959Z" fill="#FEC900"/>
<path fill-rule="evenodd" clip-rule="evenodd" d="M11.8507 17.5393C11.7854 17.2893 11.7122 17.0138 11.6342 16.7145C12.5131 16.8276 13.8378 16.869 15.6067 16.8387C16.1672 16.2002 17.2069 16.2002 17.7673 16.8387C19.5378 16.869 20.861 16.8276 21.7399 16.7145C21.6618 17.0138 21.5886 17.2893 21.5233 17.5393C21.1921 18.8035 21.025 19.4356 21.025 19.4356C21.6523 19.3591 22.3258 19.2557 23.0455 19.1251C23.1362 19.1203 23.2079 19.1792 23.2572 19.3034C23.3193 18.5264 23.3623 18.0711 23.3862 17.9389C23.3957 17.9341 23.4053 17.9278 23.4148 17.923C23.4308 17.759 23.34 17.6046 23.1919 17.5393C23.1792 17.5329 23.1665 17.5281 23.1521 17.5249C23.1808 15.5188 23.176 14.1973 23.1346 13.5572C23.098 12.9729 23.063 12.4602 23.0311 12.0175H22.8767C22.9292 12.6815 22.9451 13.1655 22.9276 13.4696L22.7477 13.6702C22.7477 13.6702 22.6793 12.6321 22.5407 10.5543C22.5407 10.5543 22.606 10.5543 22.7366 10.5543C22.7923 11.0606 22.8353 11.508 22.8671 11.8981H23.0216C22.9627 11.0845 22.9149 10.5225 22.8751 10.2136C22.7493 9.76617 22.4977 9.51142 22.1172 9.44932C18.5857 9.34583 14.7899 9.34583 11.2584 9.44932C10.8779 9.51142 10.6247 9.76617 10.5005 10.2136C10.4623 10.5225 10.413 11.0845 10.3541 11.8981H10.5085C10.5403 11.508 10.5849 11.0606 10.6391 10.5543C10.7696 10.5543 10.8349 10.5543 10.8349 10.5543C10.698 12.6321 10.6279 13.6702 10.6279 13.6702L10.4464 13.4696C10.4289 13.1639 10.4448 12.6799 10.4974 12.0175H10.3445C10.3127 12.4602 10.2776 12.9744 10.241 13.5572C10.1996 14.1973 10.1932 15.5188 10.2235 17.5249C10.2092 17.5297 10.1964 17.5345 10.1837 17.5393C10.0356 17.6061 9.94487 17.759 9.96079 17.923C9.97034 17.9278 9.97989 17.9325 9.98945 17.9389C10.0133 18.0727 10.0563 18.528 10.1184 19.3034C10.1678 19.1792 10.2378 19.1203 10.3302 19.1251C11.0483 19.2557 11.7218 19.3591 12.3491 19.4356C12.3491 19.4356 12.1835 18.8035 11.8507 17.5393ZM21.7255 18.9579C21.7239 18.7382 21.8545 18.4739 22.1172 18.1634C22.1172 18.1634 22.3433 18.0583 22.7923 17.8482C23.0025 18.0774 23.0646 18.3577 22.9786 18.6888C22.8305 18.8783 22.4134 18.9675 21.7255 18.9563V18.9579ZM11.2584 18.1634C11.5227 18.4739 11.6533 18.7382 11.6501 18.9579C10.9623 18.9691 10.5451 18.8783 10.397 18.6904C10.3111 18.3593 10.3732 18.079 10.5833 17.8497C11.0339 18.0599 11.2584 18.165 11.2584 18.165V18.1634ZM22.4181 14.4377C22.4372 14.8867 17.589 14.8612 16.6894 14.8899C15.7898 14.8596 10.9416 14.8867 10.9607 14.4377C10.9607 14.4377 11.0339 13.1575 11.182 10.5989C11.1581 10.2836 11.2887 10.1292 11.5689 10.1403C14.723 10.1212 16.4299 10.1212 16.6894 10.1356C16.9489 10.1196 18.6558 10.1212 21.8099 10.1403C22.0901 10.1308 22.2191 10.2836 22.1968 10.5989C22.3449 13.1575 22.4181 14.4377 22.4181 14.4377Z" fill="#ED595B"/>
<path fill-rule="evenodd" clip-rule="evenodd" d="M10.1169 19.3053C10.0548 18.5283 10.0118 18.0729 9.98791 17.9407C9.97836 17.936 9.96881 17.9296 9.95926 17.9248C9.72839 17.8038 9.60897 17.936 9.60101 18.3229C9.57076 19.7431 9.61216 20.5058 9.7252 20.614C9.80481 20.6379 9.87487 20.6332 9.93219 20.6013C9.96881 20.5806 10.0022 20.5488 10.0293 20.5042C10.0421 20.4835 10.0532 20.4612 10.0643 20.4373C10.0452 20.2908 10.0341 20.1348 10.0309 19.9676C10.0341 19.6651 10.0627 19.4438 10.1185 19.3053H10.1169Z" fill="#292827"/>
<path fill-rule="evenodd" clip-rule="evenodd" d="M23.3862 17.9407C23.3623 18.0745 23.3193 18.5299 23.2572 19.3053C23.3129 19.4438 23.3416 19.6651 23.3448 19.9676C23.3416 20.1348 23.3304 20.2908 23.3113 20.4373C23.3225 20.4628 23.3336 20.4851 23.3464 20.5042C23.3734 20.5472 23.4069 20.5806 23.4435 20.6013C23.5008 20.6332 23.5693 20.6363 23.6505 20.614C23.7635 20.5074 23.8049 19.7431 23.7747 18.3229C23.7667 17.936 23.6473 17.8038 23.4164 17.9248C23.4069 17.9296 23.3973 17.9344 23.3878 17.9407H23.3862Z" fill="#292827"/>
<path d="M10.5626 11.8978H9.60571V12.0172H10.5626V11.8978Z" fill="#292827"/>
<path fill-rule="evenodd" clip-rule="evenodd" d="M9.24421 11.0124C9.62793 10.9821 9.83173 11.0187 9.85243 11.1206L9.90338 12.5966C9.85402 12.8259 9.73142 12.9294 9.53717 12.9071C9.13116 12.9262 8.92736 12.8306 8.92895 12.6173C8.90507 11.7097 8.89233 11.256 8.89233 11.256C8.9799 11.076 9.09773 10.9948 9.24262 11.014L9.24421 11.0124Z" fill="#292827"/>
<path fill-rule="evenodd" clip-rule="evenodd" d="M24.128 11.0124C23.7443 10.9821 23.5405 11.0187 23.5198 11.1206L23.4689 12.5966C23.5182 12.8259 23.6408 12.9294 23.8351 12.9071C24.2411 12.9262 24.4449 12.8306 24.4433 12.6173C24.4672 11.7097 24.4799 11.256 24.4799 11.256C24.3923 11.076 24.2745 10.9948 24.1296 11.014L24.128 11.0124Z" fill="#6D7F99"/>
<path d="M23.7683 11.8978H22.8114V12.0172H23.7683V11.8978Z" fill="#292827"/>
<path fill-rule="evenodd" clip-rule="evenodd" d="M24.128 11.0124C23.7443 10.9821 23.5405 11.0187 23.5198 11.1206L23.4689 12.5966C23.5182 12.8259 23.6408 12.9294 23.8351 12.9071C24.2411 12.9262 24.4449 12.8306 24.4433 12.6173C24.4672 11.7097 24.4799 11.256 24.4799 11.256C24.3923 11.076 24.2745 10.9948 24.1296 11.014L24.128 11.0124Z" fill="#292827"/>
<path fill-rule="evenodd" clip-rule="evenodd" d="M10.6278 13.6698C10.6278 13.6698 10.6962 12.6316 10.8348 10.5538C10.8348 10.5538 10.7695 10.5538 10.6389 10.5538C10.5848 11.0602 10.5402 11.5076 10.5084 11.8976H10.5641V12.0171H10.4988C10.4463 12.681 10.4304 13.165 10.4479 13.4691L10.6294 13.6698H10.6278Z" fill="#353043"/>
<path fill-rule="evenodd" clip-rule="evenodd" d="M9.79837 11.0539V9.49036H9.45764V11.0029C9.62323 11.0014 9.73628 11.0189 9.79837 11.0539Z" fill="#940A0A"/>
<path fill-rule="evenodd" clip-rule="evenodd" d="M9.79837 12.8251C9.73468 12.892 9.64871 12.919 9.53725 12.9063C9.51018 12.9079 9.48312 12.9079 9.45764 12.9079V17.538H9.79837V12.8235V12.8251Z" fill="#940A0A"/>
<path fill-rule="evenodd" clip-rule="evenodd" d="M9.45924 9.4907H9.79838V8.87292H9.3446V9.4907H9.45924Z" fill="#940A0A"/>
<path fill-rule="evenodd" clip-rule="evenodd" d="M23.574 8.87292V9.4907H23.9147H24.0277V8.87292H23.574Z" fill="#940A0A"/>
<path fill-rule="evenodd" clip-rule="evenodd" d="M23.8351 12.9076C23.7252 12.9204 23.6377 12.8933 23.574 12.8264V17.5409H23.9147V12.9108C23.8892 12.9108 23.8622 12.9092 23.8351 12.9092V12.9076Z" fill="#940A0A"/>
<path fill-rule="evenodd" clip-rule="evenodd" d="M23.574 11.0539C23.6361 11.0173 23.7491 11.0014 23.9147 11.0029V9.49036H23.574V11.0539Z" fill="#940A0A"/>
<path fill-rule="evenodd" clip-rule="evenodd" d="M22.4165 14.4391C22.4165 14.4391 22.3432 13.1589 22.1952 10.6003C22.219 10.285 22.0885 10.1306 21.8083 10.1417C18.6541 10.1226 16.9473 10.1226 16.6878 10.137C16.4282 10.121 14.7214 10.1226 11.5673 10.1417C11.2854 10.1322 11.1565 10.285 11.1804 10.6003C11.0323 13.1589 10.959 14.4391 10.959 14.4391C10.9399 14.8881 15.7882 14.8626 16.6878 14.8913C17.5874 14.861 22.4356 14.8881 22.4165 14.4391Z" fill="#353043"/>
<path fill-rule="evenodd" clip-rule="evenodd" d="M16.742 17.3131C16.8582 17.3115 16.9745 17.3115 17.0907 17.3099C17.1337 17.3099 17.1767 17.3083 17.2197 17.3083C17.2611 17.3083 17.3025 17.3083 17.3439 17.3083C17.4028 17.3099 17.4696 17.3052 17.5174 17.329C17.5429 17.3418 17.5524 17.3609 17.5572 17.3895C17.5572 17.3911 17.5572 17.3943 17.5572 17.3943C17.5556 17.4357 17.5301 17.4835 17.5126 17.5217C17.4856 17.5774 17.441 17.6268 17.3932 17.6729C17.3136 17.751 17.156 17.8401 16.992 17.8847C16.9697 17.8911 16.9426 17.9006 16.9171 17.907C16.898 17.9118 16.9044 17.9213 16.9171 17.9197C16.9442 17.9181 16.9729 17.9102 16.9968 17.9054C17.1878 17.8576 17.32 17.7796 17.4123 17.7064C17.4665 17.6618 17.5238 17.5997 17.5604 17.5344C17.5859 17.4898 17.6113 17.4182 17.6145 17.3911C17.6193 17.3561 17.6241 17.3386 17.6225 17.2845C17.6177 17.1921 17.5891 17.1173 17.5333 17.0329C17.5301 17.0265 17.5238 17.0217 17.5206 17.0154C17.519 17.0122 17.5174 17.0074 17.519 17.0026L17.5206 17.001C17.5254 16.9994 17.5333 17.0058 17.5365 17.009C17.5811 17.0584 17.6066 17.0998 17.6304 17.1507C17.6623 17.2176 17.6703 17.2669 17.6766 17.3258C17.6782 17.337 17.6894 17.3434 17.691 17.3243C17.6941 17.2606 17.6798 17.1937 17.6527 17.1332C17.6225 17.0647 17.5906 17.0265 17.5477 16.9756C17.4983 16.9246 17.4378 16.8753 17.3757 16.837C17.2818 16.7781 17.1846 16.7383 17.0811 16.7097C17.0397 16.6985 16.9952 16.689 16.9506 16.6842C16.9362 16.6826 16.9219 16.6826 16.9092 16.6826C16.8996 16.6826 16.8885 16.6937 16.9092 16.6969C16.9362 16.7033 16.9633 16.7097 16.9904 16.7176C17.0923 16.7463 17.1926 16.7861 17.2833 16.8434C17.3582 16.8912 17.3948 16.9151 17.484 17.0265C17.4935 17.0424 17.519 17.0791 17.5317 17.1093C17.5413 17.13 17.554 17.1634 17.554 17.1889V17.1905C17.5508 17.2144 17.5461 17.2319 17.527 17.2431C17.4871 17.2669 17.4521 17.2685 17.3964 17.2717C17.3582 17.2733 17.3184 17.2749 17.2802 17.2749C17.2228 17.2765 17.1671 17.2765 17.1082 17.2781C16.9856 17.2797 16.8614 17.2813 16.7388 17.2829C16.7261 17.2829 16.7117 17.2829 16.699 17.2829C16.5732 17.2829 16.4474 17.2845 16.3217 17.2845C16.2643 17.2845 16.207 17.2845 16.1497 17.2845C16.1115 17.2845 16.0733 17.2845 16.0335 17.2829C15.9777 17.2813 15.9427 17.2797 15.9029 17.2574C15.8838 17.2462 15.8774 17.2303 15.8743 17.2048V17.2033C15.8743 17.1794 15.887 17.1443 15.895 17.1236C15.9077 17.0934 15.9316 17.0552 15.9411 17.0393C16.0287 16.9262 16.0637 16.9023 16.1386 16.853C16.2277 16.7941 16.328 16.7527 16.4283 16.7224C16.4554 16.7144 16.4825 16.7065 16.5095 16.7001C16.5286 16.6953 16.5191 16.6842 16.5095 16.6858C16.4968 16.6858 16.4809 16.6858 16.4681 16.6874C16.4236 16.6937 16.379 16.7033 16.3376 16.716C16.2341 16.7463 16.1386 16.7877 16.0462 16.8482C15.9857 16.888 15.9268 16.9374 15.8774 16.9899C15.836 17.0408 15.8042 17.0791 15.7755 17.1491C15.7501 17.2096 15.7373 17.2765 15.7421 17.3402C15.7437 17.3593 15.7548 17.3529 15.7564 17.3418C15.7612 17.2813 15.7676 17.2335 15.7978 17.165C15.8217 17.1141 15.8456 17.0727 15.8886 17.0217C15.8918 17.017 15.8997 17.0106 15.9045 17.0122H15.9061C15.9077 17.017 15.9061 17.0217 15.9045 17.0249C15.9013 17.0313 15.895 17.0361 15.8918 17.0424C15.8392 17.1284 15.8106 17.2017 15.8074 17.2956C15.8074 17.3497 15.8122 17.3688 15.8169 17.4023C15.8201 17.4293 15.8472 17.501 15.8743 17.544C15.9125 17.6093 15.9714 17.6698 16.0255 17.7143C16.1179 17.786 16.2516 17.8608 16.4443 17.9054C16.4681 17.9102 16.4968 17.9181 16.5239 17.9197C16.5366 17.9197 16.543 17.9118 16.5239 17.907C16.5 17.9006 16.4713 17.8927 16.449 17.8863C16.2834 17.8449 16.1242 17.7573 16.043 17.6809C15.9953 17.6363 15.9491 17.587 15.922 17.5328C15.9029 17.4946 15.8774 17.4469 15.8743 17.4055C15.8743 17.4039 15.8743 17.4023 15.8743 17.4007C15.879 17.372 15.887 17.3529 15.9141 17.3402C15.9618 17.3163 16.0287 17.3195 16.0876 17.3163C16.129 17.3163 16.1704 17.3147 16.2118 17.3147C16.2548 17.3147 16.2978 17.3147 16.3424 17.3147C16.4618 17.3131 16.5796 17.3115 16.699 17.3115C16.7117 17.3115 16.7261 17.3115 16.7388 17.3115L16.742 17.3131ZM16.7404 17.2701C16.8232 17.2685 16.906 17.2685 16.9872 17.2669C17.0461 17.2653 17.105 17.2638 17.1639 17.2622C17.2165 17.2606 17.269 17.2574 17.3232 17.2542C17.3741 17.251 17.4426 17.2415 17.4537 17.2335C17.4617 17.2271 17.4585 17.2192 17.4521 17.2144C17.441 17.2064 17.4266 17.1985 17.4139 17.1937C17.4075 17.1921 17.3996 17.1921 17.3948 17.1969C17.3852 17.2048 17.3789 17.208 17.3661 17.2112C17.3168 17.2255 17.2818 17.2303 17.2165 17.2367C17.1687 17.2415 17.1194 17.2446 17.0716 17.2462C16.9617 17.251 16.8949 17.2526 16.7404 17.2542C16.7261 17.2542 16.7133 17.2542 16.699 17.2542C16.5414 17.2558 16.4745 17.2558 16.3631 17.2526C16.3153 17.251 16.2659 17.2494 16.2166 17.2462C16.1513 17.2415 16.1163 17.2367 16.0669 17.2239C16.0542 17.2208 16.0494 17.2192 16.0383 17.2096C16.0335 17.2064 16.0255 17.2048 16.0191 17.2064C16.0064 17.2112 15.9921 17.2192 15.9809 17.2287C15.9746 17.2351 15.9714 17.2431 15.9793 17.2478C15.9905 17.2558 16.0589 17.2638 16.1099 17.2669C16.164 17.2701 16.2166 17.2717 16.2691 17.2717C16.328 17.2733 16.3869 17.2733 16.4459 17.2733C16.5286 17.2733 16.613 17.2717 16.6974 17.2717C16.7118 17.2717 16.7245 17.2717 16.7388 17.2717L16.7404 17.2701ZM16.7388 17.2255C16.9076 17.2239 17.0875 17.2239 17.2531 17.2064C17.3375 17.1969 17.3598 17.1523 17.363 17.1236C17.3741 17.0281 17.2308 16.9039 17.1544 16.8641C17.0525 16.81 16.9617 16.767 16.8407 16.7367C16.8248 16.732 16.8152 16.7144 16.8152 16.7017C16.8152 16.689 16.8343 16.6746 16.8455 16.6715C16.8837 16.6619 16.9235 16.6635 16.9617 16.6699C17.0254 16.6778 17.0859 16.6906 17.148 16.7081C17.2308 16.732 17.32 16.7734 17.398 16.8211C17.4999 16.8832 17.5875 16.9628 17.6511 17.0631C17.6957 17.1332 17.7308 17.2255 17.7308 17.3036C17.7323 17.4007 17.6957 17.4946 17.6432 17.5774C17.5922 17.657 17.5222 17.7223 17.4458 17.778C17.3757 17.829 17.2961 17.8688 17.2165 17.9006C17.1464 17.9293 17.0732 17.9452 16.9983 17.958C16.9506 17.9659 16.9044 17.9691 16.8582 17.9627C16.8455 17.9611 16.8248 17.9468 16.8248 17.9341C16.8232 17.9197 16.8328 17.9038 16.8471 17.899C16.8869 17.8863 16.9522 17.8656 16.9999 17.8449C17.0604 17.8178 17.1225 17.7908 17.1767 17.7526C17.2308 17.7159 17.2849 17.6729 17.3216 17.6204C17.3407 17.5917 17.3614 17.5519 17.363 17.5233C17.3646 17.5058 17.3646 17.4835 17.355 17.4676C17.3184 17.4086 17.2181 17.4118 17.1416 17.4086C17.0732 17.4055 17.0063 17.4055 16.9362 17.4039C16.8662 17.4023 16.785 17.4023 16.7149 17.4023C16.6449 17.4039 16.5637 17.4055 16.4936 17.4071C16.4252 17.4102 16.3583 17.4102 16.2882 17.415C16.2134 17.4198 16.1115 17.4182 16.0765 17.4771C16.0669 17.493 16.0669 17.5137 16.0685 17.5328C16.0701 17.5615 16.0924 17.6013 16.1115 17.6284C16.1481 17.6793 16.2022 17.7223 16.258 17.7573C16.3137 17.7924 16.3758 17.8194 16.4363 17.8449C16.4841 17.8656 16.5509 17.8847 16.5907 17.8959C16.6051 17.9006 16.6146 17.9166 16.613 17.9293C16.6114 17.942 16.5907 17.9564 16.5796 17.958C16.5318 17.9659 16.4857 17.9627 16.4395 17.9564C16.3647 17.9452 16.2914 17.9293 16.2214 17.9022C16.1402 17.872 16.0605 17.8338 15.9889 17.7828C15.9109 17.7271 15.8392 17.6634 15.7883 17.5854C15.7341 17.5042 15.6959 17.4086 15.6943 17.3131C15.6943 17.2351 15.7262 17.1427 15.7708 17.0711C15.8329 16.9692 15.9204 16.8896 16.0207 16.8243C16.0988 16.7749 16.1863 16.732 16.2691 16.7065C16.3312 16.6874 16.3917 16.6746 16.4554 16.6651C16.4952 16.6587 16.535 16.6555 16.5716 16.6651C16.5844 16.6683 16.6035 16.6826 16.6035 16.6953C16.6035 16.7097 16.5939 16.7272 16.578 16.732C16.4586 16.7654 16.3678 16.81 16.2675 16.8657C16.1927 16.9071 16.0526 17.0345 16.0637 17.13C16.0669 17.1587 16.0924 17.2032 16.1752 17.2112C16.3424 17.2271 16.5239 17.2224 16.6942 17.2208C16.707 17.2208 16.7197 17.2208 16.734 17.2208L16.7388 17.2255Z" fill="#D3D5D5"/>
<path d="M38.6076 27.8984H9.3446V29.6912H38.6076V27.8984Z" fill="#B3B3B3"/>
<path d="M38.6076 31.3392H9.3446V33.132H38.6076V31.3392Z" fill="#B3B3B3"/>
<path d="M38.6076 34.78H9.3446V36.5728H38.6076V34.78Z" fill="#B3B3B3"/>
<path d="M38.6076 38.2223H9.3446V40.0151H38.6076V38.2223Z" fill="#B3B3B3"/>
<path d="M44.3474 7.54224H28.8171C28.2895 7.54224 27.8618 7.96995 27.8618 8.49755V24.0278C27.8618 24.5554 28.2895 24.9832 28.8171 24.9832H44.3474C44.875 24.9832 45.3027 24.5554 45.3027 24.0278V8.49755C45.3027 7.96995 44.875 7.54224 44.3474 7.54224Z" fill="black"/>
<path d="M39.0933 19.8455H33.3279C33.14 19.8455 32.9872 19.6927 32.9872 19.5048C32.9872 19.3169 33.14 19.1641 33.3279 19.1641H39.0933C39.4292 19.1641 39.7015 18.8918 39.7015 18.5559V18.5367C39.7015 18.2008 39.4276 17.9285 39.0933 17.9285H33.3279C33.14 17.9285 32.9872 17.7757 32.9872 17.5878C32.9872 17.3983 33.14 17.2471 33.3279 17.2471H39.0933C39.805 17.2471 40.3845 17.8266 40.3845 18.5383V18.5574C40.3845 19.2692 39.805 19.8487 39.0933 19.8487V19.8455Z" fill="white"/>
<path d="M39.6808 17.9192L39.6075 17.9081C39.4722 17.8667 39.3958 17.725 39.4372 17.5896L41.0007 12.4198H32.4697L33.4664 17.6167C33.4935 17.7552 33.4027 17.889 33.2642 17.916C33.1241 17.9415 32.9919 17.8524 32.9649 17.7138L31.8519 11.9087H41.6901L39.9275 17.7393C39.8941 17.8492 39.7922 17.9208 39.6823 17.9208L39.6808 17.9192Z" fill="white"/>
<path d="M41.343 12.4195C41.3144 12.4195 41.2857 12.4147 41.257 12.4051C41.1233 12.3574 41.0548 12.2109 41.1026 12.0787L41.7857 10.1633H43.4161C43.5578 10.1633 43.6724 10.278 43.6724 10.4197C43.6724 10.5614 43.5578 10.676 43.4161 10.676H42.1471L41.585 12.2523C41.5484 12.3574 41.4497 12.4227 41.3446 12.4227L41.343 12.4195Z" fill="white"/>
<path d="M38.0934 21.2081C38.0934 21.8465 38.6108 22.364 39.2493 22.364C39.8878 22.364 40.4053 21.8465 40.4053 21.2081C40.4053 20.5696 39.8878 20.0521 39.2493 20.0521C38.6108 20.0521 38.0934 20.5696 38.0934 21.2081Z" fill="white"/>
<path d="M32.6576 21.2081C32.6576 21.8465 33.1751 22.364 33.8135 22.364C34.452 22.364 34.9695 21.8465 34.9695 21.2081C34.9695 20.5696 34.452 20.0521 33.8135 20.0521C33.1751 20.0521 32.6576 20.5696 32.6576 21.2081Z" fill="white"/>
<path d="M38.5201 17.7801L38.4755 17.7769C38.3354 17.753 38.2431 17.6209 38.2669 17.4808L39.1634 12.3253C39.1872 12.1851 39.321 12.0928 39.4595 12.1167C39.598 12.1406 39.692 12.2727 39.6681 12.4128L38.7717 17.5684C38.7494 17.6925 38.6411 17.7801 38.5201 17.7801Z" fill="white"/>
<path d="M37.2591 17.6687H37.2416C37.1015 17.6592 36.9948 17.5382 37.0027 17.3965L37.3387 12.2967C37.3482 12.155 37.4708 12.0483 37.611 12.0578C37.7511 12.0674 37.8593 12.1884 37.8498 12.3301L37.5138 17.4299C37.5043 17.5653 37.3928 17.6687 37.2591 17.6687Z" fill="white"/>
<path d="M34.6255 17.7804C34.5013 17.7804 34.3931 17.6913 34.3724 17.5639L33.5604 12.4084C33.5381 12.2683 33.6336 12.1377 33.7737 12.1154C33.9138 12.0931 34.0444 12.1887 34.0667 12.3288L34.8787 17.4843C34.901 17.6228 34.8055 17.755 34.6653 17.7773L34.6255 17.7804Z" fill="white"/>
<path d="M35.9708 17.6692C35.8355 17.6692 35.7224 17.5625 35.7161 17.4272L35.4645 12.3273C35.4581 12.1856 35.5664 12.0662 35.7065 12.0599C35.845 12.0519 35.9676 12.1618 35.974 12.3035L36.2256 17.4017C36.2319 17.5434 36.1237 17.6628 35.982 17.6692H35.9692H35.9708Z" fill="white"/>
<path d="M40.7891 14.1945H32.7198C32.5781 14.1945 32.4635 14.0798 32.4635 13.9381C32.4635 13.7964 32.5781 13.6818 32.7198 13.6818H40.7891C40.9308 13.6818 41.0454 13.7964 41.0454 13.9381C41.0454 14.0798 40.9308 14.1945 40.7891 14.1945Z" fill="white"/>
<path d="M40.117 15.9873H33.0015C32.8598 15.9873 32.7451 15.8727 32.7451 15.731C32.7451 15.5892 32.8598 15.4746 33.0015 15.4746H40.117C40.2587 15.4746 40.3733 15.5892 40.3733 15.731C40.3733 15.8727 40.2587 15.9873 40.117 15.9873Z" fill="white"/>
</svg>
