<svg width="48" height="48" viewBox="0 0 48 48" fill="none" xmlns="http://www.w3.org/2000/svg">
<path d="M24 48C37.2548 48 48 37.2548 48 24C48 10.7452 37.2548 0 24 0C10.7452 0 0 10.7452 0 24C0 37.2548 10.7452 48 24 48Z" fill="#C80000"/>
<path fill-rule="evenodd" clip-rule="evenodd" d="M26.1397 35.1775C28.8299 35.2111 30.3804 35.2473 30.7913 35.286C30.8353 37.5576 30.8585 38.6947 30.8585 38.6947C27.8039 38.8471 26.3568 38.9221 26.5196 38.9169C25.9898 36.8547 25.8632 35.6091 26.1397 35.1775Z" fill="#E8E9E9"/>
<path fill-rule="evenodd" clip-rule="evenodd" d="M8.95701 35.1775C6.2668 35.2111 4.71625 35.2473 4.30535 35.286C4.26142 37.5576 4.23816 38.6947 4.23816 38.6947C7.29275 38.8471 8.73994 38.9221 8.57713 38.9169C9.1069 36.8547 9.23353 35.6091 8.95701 35.1775Z" fill="#E8E9E9"/>
<path fill-rule="evenodd" clip-rule="evenodd" d="M30.8043 36.0584C30.7294 31.2724 30.6958 28.8664 30.6984 28.8432C30.6854 28.024 30.6803 27.6131 30.6803 27.6131C30.6777 27.4192 30.6751 27.321 30.6751 27.321C30.7423 27.0342 30.7836 26.7215 30.794 26.3829C30.8457 25.4681 30.7656 24.9539 30.5588 24.8427C30.2952 20.0257 29.9128 17.0486 29.4114 15.9115C28.2847 15.3456 27.5637 15.0613 27.2484 15.0613C26.8013 14.7331 26.4266 14.5677 26.1216 14.5626C20.4079 14.4282 17.5497 14.3584 17.5497 14.3584C17.5497 14.3584 14.6863 14.4256 8.96993 14.5626C8.66498 14.5677 8.28768 14.7331 7.84319 15.0613C7.52791 15.0613 6.8069 15.3456 5.68017 15.9115C5.17882 17.0486 4.79635 20.0257 4.53276 24.8427C4.32343 24.9539 4.2459 25.4681 4.29759 26.3829C4.31051 26.7215 4.34927 27.0342 4.41647 27.321C4.41647 27.321 4.41388 27.4192 4.4113 27.6131C4.4113 27.6131 4.40613 28.024 4.39321 28.8432C4.39579 28.869 4.35961 31.2724 4.28725 36.0584H30.8043Z" fill="#E8E9E9"/>
<path d="M7.96977 43.1807H4.70068V47.9486H7.96977V43.1807Z" fill="#404040"/>
<path fill-rule="evenodd" clip-rule="evenodd" d="M4.36743 42.9141C4.37777 43.4619 4.38294 44.0098 4.38294 44.5551C6.95169 44.5706 8.23607 44.5783 8.23607 44.5783C8.23607 43.6118 8.23607 43.1286 8.23607 43.1286L4.36743 42.9141Z" fill="#292827"/>
<path d="M30.3882 43.1807H27.1191V47.9486H30.3882V43.1807Z" fill="#404040"/>
<path fill-rule="evenodd" clip-rule="evenodd" d="M30.7218 42.9141C30.7114 43.4619 30.7063 44.0098 30.7063 44.5551C28.1375 44.5706 26.8531 44.5783 26.8531 44.5783C26.8531 43.6118 26.8531 43.1286 26.8531 43.1286L30.7218 42.9141Z" fill="#292827"/>
<path fill-rule="evenodd" clip-rule="evenodd" d="M4.28471 36.0588H30.8018C30.7992 35.821 30.794 35.5911 30.7914 35.3662C30.5227 35.3714 30.2668 35.3766 30.0239 35.3817C29.3262 35.3946 28.7447 35.405 28.277 35.4153C27.3234 35.4334 26.8479 35.4412 26.8479 35.4412C26.8737 32.4021 26.884 30.8825 26.884 30.8825C26.8763 30.3269 26.6695 30.0401 26.2638 30.022C24.062 30.0762 21.8137 30.1098 19.5577 30.1202C19.6998 30.3347 19.8239 30.5673 19.9272 30.8153C21.4338 30.7895 23.6537 30.7533 26.5894 30.7068C26.6075 31.8077 26.3439 32.3478 25.7987 32.3271C24.827 32.3659 24.3411 32.3866 24.3411 32.3866C24.323 32.0687 24.1085 31.9162 23.6977 31.9292C22.036 31.9602 20.7103 31.9834 19.7231 32.0015C19.5628 32.2599 19.3561 32.4925 19.1028 32.7044C18.5834 32.738 18.064 32.7561 17.5445 32.7587C17.0251 32.7561 16.4979 32.7354 15.9785 32.7044C15.7252 32.4925 15.5185 32.2574 15.3583 32.0015C14.3685 31.9834 13.0428 31.9602 11.3837 31.9292C10.9728 31.9162 10.7583 32.0687 10.7402 32.3866C10.7402 32.3866 10.2543 32.3659 9.28266 32.3271C8.73738 32.3504 8.47379 31.8103 8.49188 30.7068C11.425 30.7559 13.6449 30.7921 15.1541 30.8153C15.2575 30.5673 15.3815 30.3347 15.5236 30.1202C13.2676 30.1073 11.0193 30.0737 8.8175 30.022C8.41177 30.0375 8.20503 30.3243 8.19728 30.8825C8.19728 30.8825 8.2102 32.4021 8.23346 35.4412C8.23346 35.4412 7.75795 35.4334 6.80436 35.4153C6.33661 35.4076 5.75515 35.3946 5.0574 35.3817C4.81707 35.3766 4.56123 35.3714 4.28988 35.3662C4.28729 35.5911 4.28213 35.8236 4.27954 36.0588H4.28471Z" fill="#6D6E6E"/>
<path fill-rule="evenodd" clip-rule="evenodd" d="M26.9512 37.477C26.9512 37.477 26.9538 37.1514 26.9589 36.5002C28.5353 36.4459 29.8171 36.296 30.8043 36.0557H4.28723C5.27442 36.296 6.55621 36.4433 8.13261 36.5002C8.13777 37.1514 8.14036 37.477 8.14036 37.477C8.30575 37.7561 8.37036 38.1257 8.32901 38.5831C9.90799 38.6425 11.3991 38.658 12.7998 38.6296C15.9241 38.7252 19.1674 38.7252 22.2918 38.6296C23.6924 38.658 25.1835 38.6425 26.7625 38.5831C26.7212 38.1231 26.7858 37.7561 26.9512 37.477Z" fill="#6D6E6E"/>
<path fill-rule="evenodd" clip-rule="evenodd" d="M25.6928 43.4471C28.2874 43.5866 29.9646 43.4083 30.7218 42.9147C30.7993 42.6408 30.82 42.3746 30.7812 42.1162C31.4997 41.7958 31.2257 39.0022 31.2257 38.3225C27.9256 38.5835 24.946 38.6869 22.2919 38.6326C19.1676 38.7282 15.9243 38.7282 12.8 38.6326C10.1459 38.6869 7.16629 38.5809 3.86619 38.3225C3.86619 39.0048 3.58967 41.7958 4.31068 42.1162C4.27192 42.3746 4.29259 42.6408 4.37012 42.9147C5.12989 43.4083 6.80449 43.5866 9.39908 43.4471C14.6529 43.6487 20.439 43.6487 25.6954 43.4471H25.6928Z" fill="#7C8785"/>
<path fill-rule="evenodd" clip-rule="evenodd" d="M17.547 25.5094C14.7534 25.53 10.9158 25.437 6.04708 25.2328C5.74214 25.2122 5.569 24.9951 5.53023 24.5868C5.14259 21.788 5.39068 18.9376 6.25124 16.2474C6.41405 16.0923 6.65439 16.0096 6.97225 15.9967C14.0195 15.9166 17.547 15.8752 17.547 15.8752C17.547 15.8752 21.0694 15.9166 28.1166 15.9967C28.4345 16.007 28.6748 16.0923 28.8376 16.2474C29.6982 18.9376 29.9463 21.788 29.5587 24.5868C29.5173 24.9977 29.3467 25.2122 29.0418 25.2328C24.1731 25.437 20.3432 25.53 17.5496 25.5094H17.547Z" fill="#353043"/>
<path fill-rule="evenodd" clip-rule="evenodd" d="M6.80941 35.4122C6.79907 34.8411 6.0548 33.5515 4.58178 31.5461C4.4293 33.2905 4.49133 34.4844 4.76784 35.1253C4.91515 35.2571 5.01335 35.3424 5.06503 35.3812L6.81199 35.4148L6.80941 35.4122Z" fill="#FEC900"/>
<path fill-rule="evenodd" clip-rule="evenodd" d="M9.6134 43.4546C10.0424 44.5917 11.3836 45.0904 13.6423 44.9509C16.1697 44.9509 17.4773 44.9509 17.5471 44.9509C17.6194 44.9509 18.9193 44.9509 21.4467 44.9509C23.7028 45.0904 25.0466 44.5917 25.4756 43.4546H9.61599H9.6134Z" fill="#404040"/>
<path fill-rule="evenodd" clip-rule="evenodd" d="M13.4692 43.5242H17.3327H17.542H21.8371V45.1729H17.542H17.3327H13.4692V43.5242Z" fill="#292827"/>
<path fill-rule="evenodd" clip-rule="evenodd" d="M7.71649 31.4273C7.71649 31.4273 7.72683 32.6315 7.74492 35.0426C7.74492 35.0426 7.58986 34.8902 7.28234 34.5904C7.28234 34.5904 7.23582 33.0321 7.14279 29.9129C7.14279 28.6466 6.1065 28.3158 5.17358 27.7214C5.99021 27.9695 6.73448 28.2719 7.41155 28.6285C7.66222 29.0161 7.78368 29.4761 7.75267 29.9361L7.71649 31.4298V31.4273Z" fill="#D3D5D5"/>
<path d="M3.08816 17.6096H1.24817V22.176H3.08816V17.6096Z" fill="black"/>
<path d="M3.08816 22.4626H1.24817V23.9796H3.08816V22.4626Z" fill="black"/>
<path d="M5.16597 17.3769C5.05485 17.1986 4.87395 17.0513 4.62844 16.935C4.3726 16.8135 4.04699 16.7283 3.64901 16.6766C3.42935 16.6688 3.21227 16.6637 2.99519 16.6662C2.78845 16.6688 2.58171 16.674 2.3698 16.6843C2.30003 16.7309 2.26902 16.8058 2.27419 16.9118L2.09846 24.3182C2.12688 24.3854 2.18632 24.4449 2.27677 24.4914C2.39048 24.5508 2.5507 24.5947 2.75486 24.618L5.11945 24.5999V24.879L2.7316 24.8971H2.72643C2.4861 24.8687 2.29228 24.8144 2.14497 24.7369C1.98216 24.649 1.87363 24.5327 1.82453 24.3854L1.81677 24.3622L1.9925 16.9195C1.98216 16.6869 2.07261 16.5215 2.26126 16.4233L2.28711 16.4104L2.31812 16.4078C2.54036 16.3949 2.76261 16.3897 2.99003 16.3871C3.21486 16.3846 3.43969 16.3897 3.66193 16.3975H3.67485C4.10384 16.4518 4.46047 16.5474 4.74474 16.6818C5.03934 16.8213 5.25642 17.0022 5.39855 17.2296L5.16339 17.3769H5.16597Z" fill="black"/>
<path fill-rule="evenodd" clip-rule="evenodd" d="M17.5472 40.6893C17.5472 40.6893 20.2969 40.6557 25.7962 40.586C27.9566 40.6144 28.9231 40.1001 28.6957 39.0483C24.7521 39.2292 21.0282 39.3197 17.5421 39.3145C14.0533 39.3197 10.3397 39.2292 6.39357 39.0483C6.16616 40.1027 7.13267 40.6144 9.29311 40.586C14.7924 40.6557 17.5472 40.6893 17.5472 40.6893Z" fill="#353043"/>
<path fill-rule="evenodd" clip-rule="evenodd" d="M17.5471 32.0373C17.5471 32.0373 19.599 32.0012 23.7028 31.9262C24.1137 31.9133 24.3281 32.0658 24.3462 32.3836C24.3462 32.3836 24.8321 32.3629 25.8038 32.3242C26.349 32.3474 26.6126 31.8073 26.5945 30.7039C20.5629 30.8021 17.5471 30.8512 17.5471 30.8512C17.5471 30.8512 14.5235 30.8021 8.4944 30.7039C8.47631 31.8047 8.73991 32.3449 9.28518 32.3242C10.2569 32.3629 10.7427 32.3836 10.7427 32.3836C10.7608 32.0658 10.9753 31.9133 11.3862 31.9262C15.49 32.0012 17.5471 32.0373 17.5471 32.0373Z" fill="#E8E9E9"/>
<path fill-rule="evenodd" clip-rule="evenodd" d="M28.2795 35.4122C28.2899 34.8411 29.0316 33.5515 30.5072 31.5461C30.6596 33.2905 30.5976 34.4844 30.3237 35.1253C30.1764 35.2571 30.0782 35.3424 30.0265 35.3812L28.2795 35.4148V35.4122Z" fill="#FEC900"/>
<path fill-rule="evenodd" clip-rule="evenodd" d="M27.3724 31.4273C27.3724 31.4273 27.362 32.6315 27.3439 35.0426C27.3439 35.0426 27.499 34.8902 27.8065 34.5904C27.8065 34.5904 27.853 33.0321 27.9461 29.9129C27.9461 28.6466 28.9824 28.3158 29.9153 27.7214C29.0986 27.9695 28.3544 28.2719 27.6773 28.6285C27.4266 29.0161 27.3052 29.4761 27.3362 29.9361L27.3724 31.4298V31.4273Z" fill="#D3D5D5"/>
<path d="M33.841 17.6096H32.001V22.176H33.841V17.6096Z" fill="black"/>
<path d="M33.841 22.4626H32.001V23.9796H33.841V22.4626Z" fill="black"/>
<path d="M29.9231 17.3769C30.0343 17.1986 30.2152 17.0513 30.4607 16.935C30.7165 16.8135 31.0421 16.7283 31.4401 16.6766C31.6598 16.6688 31.8768 16.6637 32.0939 16.6662C32.3007 16.6688 32.5074 16.674 32.7193 16.6843C32.7891 16.7309 32.8201 16.8058 32.8149 16.9118L32.9907 24.3182C32.9622 24.3854 32.9028 24.4449 32.8123 24.4914C32.6986 24.5508 32.5384 24.5947 32.3342 24.618L29.9697 24.5999V24.879L32.3575 24.8971H32.3627C32.603 24.8687 32.7968 24.8144 32.9441 24.7369C33.1069 24.649 33.2155 24.5327 33.2646 24.3854L33.2723 24.3622L33.0966 16.9195C33.1069 16.6869 33.0165 16.5215 32.8278 16.4233L32.802 16.4104L32.771 16.4078C32.5513 16.3949 32.3265 16.3897 32.0991 16.3871C31.8743 16.3846 31.6494 16.3897 31.4272 16.3975H31.4143C30.9853 16.4518 30.6286 16.5474 30.3444 16.6818C30.0498 16.8213 29.8327 17.0022 29.6906 17.2296L29.9257 17.3769H29.9231Z" fill="black"/>
<path fill-rule="evenodd" clip-rule="evenodd" d="M17.5471 34.9656C17.5471 34.9656 19.599 34.9294 23.7028 34.8544C24.1137 34.8415 24.3281 34.994 24.3462 35.3118C24.3462 35.3118 24.8321 35.2912 25.8038 35.2524C26.349 35.2757 26.6126 34.7356 26.5945 33.6321C20.5629 33.7303 17.5471 33.7794 17.5471 33.7794C17.5471 33.7794 14.5235 33.7303 8.4944 33.6321C8.47631 34.733 8.73991 35.2731 9.28518 35.2524C10.2569 35.2912 10.7427 35.3118 10.7427 35.3118C10.7608 34.994 10.9753 34.8415 11.3862 34.8544C15.49 34.9294 17.5471 34.9656 17.5471 34.9656Z" fill="#E8E9E9"/>
<path fill-rule="evenodd" clip-rule="evenodd" d="M17.5471 37.7535C17.5471 37.7535 19.599 37.7173 23.7028 37.6424C24.1137 37.6295 24.3281 37.7819 24.3462 38.1024C24.3462 38.1024 24.8321 38.0817 25.8038 38.0429C26.349 38.0662 26.6126 37.5261 26.5945 36.4226C20.5629 36.5208 17.5471 36.5699 17.5471 36.5699C17.5471 36.5699 14.5235 36.5208 8.4944 36.4226C8.47631 37.5235 8.73991 38.0636 9.28518 38.0429C10.2569 38.0817 10.7427 38.1024 10.7427 38.1024C10.7608 37.7845 10.9753 37.632 11.3862 37.6424C15.49 37.7173 17.5471 37.7535 17.5471 37.7535Z" fill="#E8E9E9"/>
<path fill-rule="evenodd" clip-rule="evenodd" d="M17.5472 32.7582C17.0277 32.7556 16.5006 32.735 15.9811 32.704C15.4849 32.2879 15.1645 31.7814 15.0198 31.187C15.2653 30.4272 15.671 29.8018 16.2395 29.316C16.2395 29.316 16.6789 29.3134 17.5472 29.3057C18.4129 29.3108 18.8471 29.316 18.8471 29.316C19.4156 29.8044 19.8213 30.4272 20.0668 31.187C19.9221 31.7814 19.6017 32.2853 19.1055 32.704C18.5861 32.7376 18.0666 32.7556 17.5472 32.7582Z" fill="#353043"/>
<path fill-rule="evenodd" clip-rule="evenodd" d="M8.16368 41.1545C5.84301 41.338 3.89965 41.5603 4.31055 38.8184C4.75763 38.8726 5.2047 38.9372 5.64919 39.0096C9.0139 39.4877 8.72705 41.2165 8.16368 41.1545Z" fill="#FEFEFE"/>
<path fill-rule="evenodd" clip-rule="evenodd" d="M26.928 41.1545C29.2487 41.338 31.192 41.5603 30.7811 38.8184C30.334 38.8726 29.887 38.9372 29.4425 39.0096C26.0778 39.4877 26.3646 41.2165 26.928 41.1545Z" fill="#FEFEFE"/>
<path fill-rule="evenodd" clip-rule="evenodd" d="M17.6117 31.0375C17.8391 31.0349 18.0666 31.0349 18.294 31.0323C18.3793 31.0323 18.4645 31.0297 18.5472 31.0297C18.6299 31.0297 18.71 31.0297 18.7902 31.0297C18.9039 31.0349 19.0382 31.0245 19.1313 31.0711C19.183 31.0969 19.2011 31.1331 19.2114 31.1899C19.2114 31.1951 19.2114 31.1977 19.214 31.2003C19.2114 31.2804 19.1623 31.376 19.1261 31.4509C19.0744 31.5595 18.984 31.6577 18.8935 31.7456C18.7359 31.898 18.4309 32.0738 18.1053 32.1616C18.0614 32.1745 18.0071 32.1926 17.9606 32.203C17.9244 32.2133 17.9373 32.2288 17.9606 32.2288C18.0123 32.2236 18.0717 32.2107 18.1157 32.2004C18.4904 32.1048 18.7514 31.9549 18.9297 31.8102C19.0357 31.7223 19.1494 31.6008 19.2217 31.4716C19.2708 31.3838 19.3225 31.2442 19.3277 31.1899C19.3354 31.1227 19.3458 31.0866 19.3406 30.978C19.3303 30.7945 19.2734 30.6498 19.1675 30.4844C19.1597 30.4715 19.1494 30.4612 19.1416 30.4508C19.139 30.4457 19.1339 30.4353 19.139 30.4276L19.1416 30.425C19.152 30.4224 19.1649 30.4328 19.1726 30.4431C19.2605 30.5413 19.3096 30.6214 19.3561 30.7196C19.4181 30.8514 19.4336 30.947 19.444 31.0633C19.4466 31.084 19.4698 31.0969 19.4724 31.0581C19.4776 30.9341 19.4491 30.8023 19.3975 30.686C19.338 30.5516 19.2734 30.4767 19.1907 30.3759C19.1907 30.3759 19.1907 30.3759 19.1881 30.3733C19.0899 30.2725 18.9711 30.1769 18.8522 30.102C18.6687 29.9857 18.48 29.9081 18.2759 29.8539C18.1932 29.8306 18.1053 29.8125 18.02 29.8048C17.9942 29.8022 17.9632 29.8022 17.9374 29.8022C17.9193 29.8022 17.8986 29.8229 17.9374 29.8306C17.9916 29.8435 18.0433 29.8565 18.0976 29.872C18.2966 29.9288 18.4955 30.0063 18.6713 30.1175C18.8186 30.2105 18.8909 30.2596 19.0641 30.4767C19.0848 30.5077 19.1313 30.5801 19.1571 30.6395C19.1752 30.6808 19.2011 30.7454 19.2011 30.7945V30.7971C19.1959 30.8436 19.1855 30.8772 19.1468 30.9005C19.0693 30.947 18.9995 30.9496 18.8909 30.9548C18.816 30.9574 18.7385 30.9599 18.6635 30.9625C18.5524 30.9651 18.4413 30.9677 18.3276 30.9703C18.0872 30.9754 17.8443 30.978 17.6014 30.9806C17.5756 30.9806 17.5497 30.9806 17.5239 30.9806C17.2784 30.9832 17.0303 30.9832 16.7822 30.9832C16.6685 30.9832 16.5599 30.9832 16.4462 30.9832C16.3713 30.9832 16.2938 30.9832 16.2188 30.9806C16.1103 30.978 16.0405 30.9754 15.963 30.9289C15.9242 30.9083 15.9139 30.8747 15.9087 30.8281V30.8256C15.9087 30.7765 15.932 30.7119 15.9501 30.6705C15.9759 30.6111 16.0224 30.5361 16.0405 30.5051C16.2111 30.2854 16.2834 30.2363 16.4281 30.1381C16.6013 30.0219 16.7977 29.9417 16.9967 29.8823C17.0509 29.8668 17.1026 29.8513 17.1543 29.8384C17.1931 29.828 17.1724 29.8074 17.1543 29.8099C17.1285 29.8099 17.0975 29.8099 17.0716 29.8151C16.9838 29.8255 16.8985 29.8461 16.8158 29.8694C16.6142 29.9288 16.4256 30.0089 16.2447 30.1278C16.1258 30.2053 16.0095 30.3035 15.9139 30.4069C15.9139 30.4069 15.9139 30.4069 15.9113 30.4095C15.8312 30.5103 15.7692 30.5852 15.7123 30.7222C15.6632 30.8385 15.6374 30.9729 15.6451 31.0969C15.6477 31.1331 15.671 31.1227 15.6735 31.0995C15.6813 30.9832 15.6968 30.8876 15.7562 30.7532C15.8028 30.6524 15.8493 30.5723 15.9346 30.4741C15.9423 30.4663 15.9578 30.4534 15.9656 30.456L15.9681 30.4586C15.9733 30.4689 15.9681 30.4767 15.9656 30.4819C15.9578 30.4948 15.9475 30.5051 15.9397 30.5154C15.8363 30.6834 15.7795 30.8281 15.7743 31.0116C15.7717 31.1202 15.7821 31.1538 15.7924 31.2209C15.8002 31.2726 15.8519 31.4122 15.9035 31.5C15.9785 31.6267 16.0922 31.7481 16.2007 31.8334C16.3816 31.9756 16.6452 32.1203 17.0225 32.2081C17.069 32.2185 17.1259 32.2314 17.1802 32.234C17.2034 32.2366 17.2163 32.2185 17.1802 32.2081C17.1311 32.1978 17.0794 32.1797 17.0354 32.1694C16.7098 32.0867 16.3997 31.9161 16.2395 31.7662C16.1465 31.6784 16.056 31.5827 16.0017 31.4742C15.963 31.3993 15.9139 31.3062 15.9087 31.2261C15.9087 31.2235 15.9087 31.2209 15.9087 31.2158C15.9165 31.1589 15.9346 31.1227 15.9862 31.0969C16.0793 31.0478 16.2111 31.0556 16.3274 31.0504C16.4101 31.0504 16.4902 31.0478 16.5703 31.0478C16.6556 31.0478 16.7408 31.0478 16.8235 31.0452C17.0561 31.0426 17.2913 31.0401 17.5239 31.0375C17.5497 31.0375 17.5756 31.0375 17.6014 31.0375H17.6117ZM17.6091 30.9548C17.772 30.9522 17.9322 30.9522 18.0924 30.9496C18.2087 30.947 18.325 30.9444 18.4387 30.9393C18.5421 30.9367 18.6454 30.9315 18.7514 30.9238C18.8496 30.916 18.984 30.8979 19.0072 30.8824C19.0227 30.8721 19.0176 30.8566 19.0046 30.8436C18.984 30.8256 18.9555 30.8126 18.9297 30.8023C18.9194 30.7971 18.9013 30.7997 18.8935 30.8075C18.8729 30.823 18.8625 30.8281 18.8393 30.8359C18.7436 30.8617 18.6739 30.8747 18.5447 30.885C18.449 30.8927 18.3534 30.9005 18.2578 30.9031C18.0433 30.9108 17.9115 30.9134 17.6091 30.9186C17.5833 30.9186 17.5549 30.9186 17.529 30.9186C17.2215 30.9212 17.0871 30.9212 16.8701 30.916C16.7744 30.9134 16.6788 30.9083 16.5832 30.9031C16.4566 30.8953 16.3868 30.885 16.2886 30.8592C16.2653 30.854 16.2524 30.8488 16.2343 30.8333C16.224 30.8256 16.2085 30.823 16.1981 30.8281C16.1723 30.8385 16.1439 30.854 16.1232 30.8695C16.1103 30.8798 16.1025 30.8953 16.1206 30.9083C16.1439 30.9238 16.2783 30.9393 16.3765 30.9444C16.4824 30.9496 16.5832 30.9548 16.6892 30.9548C16.8054 30.9574 16.9217 30.9574 17.038 30.9574C17.2008 30.9574 17.3662 30.9548 17.5316 30.9548C17.5575 30.9548 17.5859 30.9548 17.6117 30.9548H17.6091ZM17.6066 30.8669C17.9373 30.8643 18.2888 30.8643 18.6144 30.8281C18.7772 30.8101 18.8238 30.7222 18.8315 30.6653C18.8522 30.4767 18.5705 30.2338 18.4232 30.1562C18.2242 30.0503 18.0459 29.9676 17.8081 29.9056C17.7771 29.8978 17.759 29.8642 17.7565 29.8358C17.7565 29.8099 17.7926 29.7815 17.8159 29.7763C17.8908 29.7583 17.9684 29.7608 18.0459 29.7738C18.1699 29.7919 18.2888 29.8125 18.4103 29.8487C18.5705 29.8952 18.7462 29.9753 18.9013 30.071C19.1003 30.1924 19.2734 30.3475 19.4 30.5439C19.4879 30.6808 19.5551 30.8617 19.5577 31.0168C19.5603 31.2054 19.4879 31.3915 19.3845 31.5543C19.2863 31.7094 19.1468 31.8386 18.9969 31.9497C18.8599 32.0505 18.7049 32.128 18.5472 32.19C18.4103 32.2443 18.2656 32.2779 18.1208 32.3038C18.0278 32.3193 17.9374 32.327 17.8443 32.3115C17.8211 32.3089 17.7797 32.2805 17.7771 32.2547C17.7745 32.2262 17.7952 32.1952 17.8211 32.1875C17.8986 32.1642 18.0278 32.1229 18.1208 32.0815C18.2397 32.0298 18.3612 31.9756 18.4697 31.9032C18.5757 31.8308 18.6816 31.7481 18.7514 31.6448C18.7902 31.5879 18.8315 31.513 18.8341 31.4535C18.8367 31.4174 18.8367 31.3734 18.8186 31.345C18.7462 31.2287 18.5498 31.2365 18.4025 31.2313C18.2681 31.2261 18.1363 31.2261 18.002 31.2235C17.8676 31.2209 17.7074 31.2209 17.5704 31.2209C17.4334 31.2235 17.2732 31.2261 17.1388 31.2313C17.0044 31.2365 16.8726 31.239 16.7383 31.2468C16.591 31.2545 16.392 31.252 16.3222 31.3683C16.3041 31.3993 16.3041 31.4406 16.3093 31.4768C16.3144 31.5336 16.3558 31.6112 16.3945 31.6654C16.4669 31.7662 16.5729 31.8489 16.6814 31.9187C16.7899 31.9885 16.914 32.0427 17.0329 32.0918C17.1259 32.1306 17.2577 32.172 17.3352 32.1926C17.3611 32.2004 17.3817 32.2314 17.3792 32.2598C17.3766 32.2857 17.3378 32.3141 17.312 32.3167C17.2189 32.3322 17.1285 32.327 17.0354 32.3141C16.8881 32.2934 16.7434 32.2624 16.6065 32.2081C16.4462 32.1487 16.2912 32.0738 16.1516 31.9756C15.9992 31.867 15.8596 31.743 15.7562 31.5879C15.6503 31.4277 15.5753 31.2416 15.5728 31.053C15.5728 30.9005 15.6348 30.717 15.7226 30.5775C15.8441 30.3785 16.0147 30.2208 16.2111 30.0942C16.3635 29.996 16.5367 29.9133 16.6969 29.8642C16.8184 29.8254 16.9372 29.8022 17.0613 29.7815C17.1388 29.7686 17.2163 29.7634 17.2913 29.7815C17.3145 29.7867 17.3533 29.8151 17.3533 29.841C17.3533 29.8694 17.3352 29.903 17.3042 29.9107C17.069 29.9753 16.8907 30.0632 16.6943 30.1717C16.5496 30.2519 16.2731 30.5025 16.2963 30.6886C16.3041 30.7454 16.3506 30.8307 16.516 30.8462C16.8442 30.8772 17.2008 30.8695 17.5342 30.8669C17.56 30.8669 17.5859 30.8669 17.6117 30.8669H17.6066Z" fill="#D3D5D5"/>
<path d="M23.5606 2.85791L37.6164 16.9111L36.7093 17.8182L22.6561 3.76498L23.5606 2.85791Z" fill="#999999"/>
<path d="M23.6227 2.91739L22.8216 1.73897L21.4209 0.94043L21.0798 1.28155L20.7386 1.62009L21.5346 3.02334L22.713 3.82446C22.713 3.82446 24.3489 4.99255 24.5685 4.77288C24.7882 4.55322 23.6201 2.91739 23.6201 2.91739H23.6227Z" fill="#5E9EA7"/>
<path d="M21.4209 0.94043L21.0798 1.28155L20.7386 1.62009L21.5372 3.02334L22.8216 1.73897L21.4209 0.94043Z" fill="#1A1A1A"/>
<path d="M46.39 22.6479C45.7439 22.0019 43.6248 19.8828 42.6376 18.8956C41.6504 17.911 40.6348 17.9058 38.7612 16.4586C36.9031 15.0244 36.2726 13.541 36.2726 13.541L34.8073 15.0063L33.342 16.4716C33.342 16.4716 34.8254 17.1047 36.2597 18.9628C37.7069 20.8364 37.7094 21.852 38.6966 22.8392C39.6838 23.8264 41.8029 25.9455 42.449 26.5915C43.095 27.2376 44.6482 28.2687 46.3589 26.5579C48.0697 24.8471 47.0386 23.294 46.3925 22.6479H46.39Z" fill="#1A1A1A"/>
<path d="M45.9481 23.6766C45.3512 22.8419 39.2187 17.6217 38.3194 18.5185C37.4201 19.4178 42.6429 25.5502 43.475 26.1472C44.3226 26.7519 45.1341 26.1188 45.5269 25.726C45.9197 25.3331 46.5503 24.5191 45.9455 23.6741L45.9481 23.6766Z" fill="#CCCCCC"/>
<path d="M36.2726 13.541L35.9547 13.2231L34.6238 13.0112L34.169 13.4661L33.1999 12.4944L32.2928 13.4015L33.2645 14.3731L32.8097 14.8254L33.0216 16.1563L33.3395 16.4741C33.3395 16.4741 33.7349 16.6447 34.3137 17.0634L36.8592 14.5179C36.4406 13.939 36.27 13.5436 36.27 13.5436L36.2726 13.541Z" fill="#CCCCCC"/>
<path d="M22.4856 22.7339C23.403 21.8165 24.889 21.8165 25.8038 22.7339C26.7212 23.6513 26.7212 25.1347 25.8038 26.0521C24.8864 26.9695 23.4004 26.9695 22.4856 26.0521C21.5682 25.1347 21.5682 23.6488 22.4856 22.7339ZM21.9662 26.5715C23.1704 27.7758 25.119 27.7758 26.3232 26.5715C27.7032 25.1916 27.4577 22.9484 29.8146 20.5942L39.1334 11.2753C41.4902 8.91849 43.599 8.88231 45.3899 8.0631C46.881 6.95187 47.3772 3.8611 46.483 2.89975L44.7309 5.99311C43.3018 5.913 42.3947 5.3212 41.4877 4.1893L43.201 1.00291C42.2733 0.850438 40.7925 1.33628 39.5185 3.42694C38.8104 5.4039 39.6192 7.04749 37.2624 9.40433L27.9436 18.7232C25.5867 21.08 23.3462 20.8319 21.9662 22.2145C20.7619 23.4188 20.7619 25.3673 21.9662 26.5715Z" fill="#999999"/>
<path d="M28.0288 19.7768C27.8789 19.6269 27.8789 19.384 28.0288 19.2341L37.774 9.48888C37.9239 9.33899 38.1668 9.33899 38.3167 9.48888L39.0481 10.2202C39.198 10.3701 39.198 10.613 39.0481 10.7629L29.3028 20.5082C29.1529 20.658 28.91 20.658 28.7601 20.5082L28.0288 19.7768Z" fill="#CCCCCC"/>
<path d="M22.036 24.4754C22.0334 24.4211 22.0334 24.3668 22.036 24.3125L22.4495 23.9404L22.2763 23.4081C22.3022 23.3615 22.3306 23.315 22.359 23.2711L22.9043 23.1548L23.0206 22.6095C23.0671 22.5811 23.1111 22.5527 23.1576 22.5268L23.6899 22.7L24.0621 22.2865C24.1163 22.2839 24.1706 22.2839 24.2249 22.2865L24.597 22.7L25.1294 22.5268C25.1759 22.5527 25.2224 22.5811 25.2663 22.6095L25.3826 23.1548L25.9279 23.2711C25.9563 23.315 25.9847 23.3615 26.0106 23.4081L25.8374 23.9404L26.2509 24.3125C26.2535 24.3668 26.2535 24.4211 26.2509 24.4754L25.8374 24.8475L26.0106 25.3798C25.9847 25.4264 25.9563 25.4729 25.9279 25.5168L25.3826 25.6331L25.2663 26.1784C25.2198 26.2068 25.1759 26.2352 25.1294 26.2585L24.597 26.0853L24.2249 26.4988C24.1706 26.5014 24.1163 26.5014 24.0621 26.4988L23.6899 26.0853L23.1576 26.2585C23.1111 26.2327 23.0645 26.2068 23.0206 26.1784L22.9043 25.6331L22.359 25.5168C22.3306 25.4703 22.3022 25.4264 22.2763 25.3798L22.4495 24.8475L22.036 24.4754ZM25.8039 26.0543C26.7213 25.1369 26.7213 23.651 25.8039 22.7362C24.8864 21.8187 23.4005 21.8187 22.4857 22.7362C21.5683 23.6536 21.5683 25.1369 22.4857 26.0543C23.4031 26.9717 24.889 26.9717 25.8039 26.0543Z" fill="#353F48"/>
</svg>
