<svg width="30" height="29" viewBox="0 0 30 29" fill="none" xmlns="http://www.w3.org/2000/svg">
<path d="M15.4433 28.5107C23.3163 28.5107 29.6986 22.1283 29.6986 14.2553C29.6986 6.38233 23.3163 0 15.4433 0C7.57026 0 1.18793 6.38233 1.18793 14.2553C1.18793 22.1283 7.57026 28.5107 15.4433 28.5107Z" fill="#940A0A"/>
<path fill-rule="evenodd" clip-rule="evenodd" d="M1.35426 1.18799H15.1047C15.8531 1.18799 16.459 1.79978 16.459 2.54224V15.7463C16.459 16.4947 15.8472 17.1005 15.1047 17.1005H1.35426C0.605851 17.1005 0 16.4887 0 15.7463V2.54224C0 1.79978 0.605851 1.18799 1.35426 1.18799Z" fill="#E51314"/>
<path fill-rule="evenodd" clip-rule="evenodd" d="M8.76701 8.05425C8.29184 7.11578 7.092 7.2227 6.24856 7.50186C5.64865 7.70381 5.51203 7.69193 5.42887 7.98298C5.41106 8.04832 5.36948 8.25026 5.33978 8.30966C5.45264 8.29778 6.3733 7.98892 6.66435 8.3156C7.12765 8.84424 6.10006 11.3448 6.04067 12.117C5.99315 12.705 5.99316 13.0258 6.31391 13.3584C7.12171 14.1959 9.38473 13.6732 9.47382 13.1743C9.49758 13.0496 9.52135 12.9723 9.52135 12.8417C9.40256 12.8535 9.26594 12.907 9.1412 12.9367C8.98677 12.9723 8.89173 12.9723 8.69572 12.9723C8.39874 12.9664 8.16709 12.8951 8.1077 12.6397C7.84635 11.5409 9.25407 9.15904 8.76701 8.05425Z" fill="white"/>
<path fill-rule="evenodd" clip-rule="evenodd" d="M8.32746 6.65242C8.99865 6.65242 9.55104 6.08815 9.55104 5.39915C9.55104 4.71014 9.00459 4.14587 8.32746 4.14587C7.65627 4.14587 7.10388 4.71014 7.10388 5.39915C7.10388 6.08815 7.65033 6.65242 8.32746 6.65242Z" fill="white"/>
<path d="M29.0246 14.9152H13.4541V26.5943H29.0246V14.9152Z" fill="#1A1A1A"/>
<path fill-rule="evenodd" clip-rule="evenodd" d="M16.37 24.6438H13.4489C12.9116 24.6438 12.4734 25.082 12.4734 25.6192V26.5947H17.3402V25.6192C17.3454 25.082 16.9072 24.6438 16.37 24.6438Z" fill="white"/>
<path fill-rule="evenodd" clip-rule="evenodd" d="M22.6973 24.6438H19.7762C19.2389 24.6438 18.8008 25.082 18.8008 25.6192V26.5947H23.6675V25.6192C23.6675 25.082 23.2346 24.6438 22.6973 24.6438Z" fill="white"/>
<path fill-rule="evenodd" clip-rule="evenodd" d="M29.0194 24.6438H26.0983C25.561 24.6438 25.1229 25.082 25.1229 25.6192V26.5947H29.9896V25.6192C29.9948 25.082 29.5567 24.6438 29.0194 24.6438Z" fill="white"/>
<path fill-rule="evenodd" clip-rule="evenodd" d="M29.9948 26.5894H12.4787V27.5648C12.4787 28.1021 12.9169 28.5402 13.4541 28.5402H29.0246C29.5619 28.5402 30.0001 28.1021 30.0001 27.5648V26.5894H29.9948Z" fill="#6D6E6E"/>
<path d="M16.3752 16.8607H13.4541V24.6434H16.3752V16.8607Z" fill="#6D6E6E"/>
<path d="M22.6973 16.8607H19.7762V24.6434H22.6973V16.8607Z" fill="#6D6E6E"/>
<path d="M29.0246 16.8607H26.1035V24.6434H29.0246V16.8607Z" fill="#6D6E6E"/>
<path fill-rule="evenodd" clip-rule="evenodd" d="M21.2368 7.12744C20.6056 7.12744 19.9901 7.33088 19.4841 7.71167L12.8699 12.6723C12.6248 12.8549 12.4787 13.147 12.4787 13.4495V14.9101H29.9948V13.4495C29.9948 13.1418 29.8488 12.8549 29.6036 12.6723L22.9842 7.71167C22.4834 7.3361 21.8679 7.12744 21.2368 7.12744Z" fill="white"/>
<path fill-rule="evenodd" clip-rule="evenodd" d="M20.3604 8.88012L15.6918 12.3854C15.6083 12.448 15.5614 12.5419 15.5614 12.6463C15.5614 12.8236 15.7075 12.9697 15.8848 12.9697H26.5886C26.7659 12.9697 26.912 12.8236 26.912 12.6463C26.912 12.5419 26.865 12.448 26.7816 12.3854L22.113 8.88012C21.8626 8.69234 21.5549 8.58801 21.2367 8.58801C20.9237 8.58801 20.616 8.69234 20.3604 8.88012Z" fill="#6D6E6E"/>
<path fill-rule="evenodd" clip-rule="evenodd" d="M16.37 16.8609H13.4489C12.9116 16.8609 12.4734 16.4228 12.4734 15.8855V14.91H17.3402V15.8855C17.3454 16.4228 16.9072 16.8609 16.37 16.8609Z" fill="#6D6E6E"/>
<path fill-rule="evenodd" clip-rule="evenodd" d="M22.6973 16.8609H19.7762C19.2389 16.8609 18.8008 16.4228 18.8008 15.8855V14.91H23.6675V15.8855C23.6675 16.4228 23.2346 16.8609 22.6973 16.8609Z" fill="#6D6E6E"/>
<path fill-rule="evenodd" clip-rule="evenodd" d="M29.0194 16.8609H26.0983C25.561 16.8609 25.1229 16.4228 25.1229 15.8855V14.91H29.9896V15.8855C29.9948 16.4228 29.5567 16.8609 29.0194 16.8609Z" fill="#6D6E6E"/>
<path fill-rule="evenodd" clip-rule="evenodd" d="M14.9146 24.6436H13.4541V17.8312H13.9392C14.4765 17.8312 14.9146 18.2693 14.9146 18.8066V24.6436Z" fill="white"/>
<path fill-rule="evenodd" clip-rule="evenodd" d="M21.2368 24.6436H19.7762V17.8312H20.2614C20.7986 17.8312 21.2368 18.2693 21.2368 18.8066V24.6436Z" fill="white"/>
<path fill-rule="evenodd" clip-rule="evenodd" d="M27.5641 24.6436H26.1035V17.8312H26.5886C27.1259 17.8312 27.5641 18.2693 27.5641 18.8066V24.6436Z" fill="white"/>
</svg>
