<svg width="48" height="48" viewBox="0 0 48 48" fill="none" xmlns="http://www.w3.org/2000/svg">
<path d="M23.9999 47.9998C37.2547 47.9998 47.9998 37.2547 47.9998 23.9999C47.9998 10.7451 37.2547 0 23.9999 0C10.7451 0 0 10.7451 0 23.9999C0 37.2547 10.7451 47.9998 23.9999 47.9998Z" fill="#99B8D1"/>
<path fill-rule="evenodd" clip-rule="evenodd" d="M6.021 8.10197V34.0139V39.8976C10.4153 44.8624 16.8379 47.9997 23.9998 47.9997C31.1512 47.9997 37.5737 44.8624 41.9786 39.8976V34.0139V8.10197V2.7041H6.03156V8.10197H6.021Z" fill="#E6E6E6"/>
<path fill-rule="evenodd" clip-rule="evenodd" d="M33.8768 7.71094H24.2113H23.7888H14.1233V21.7391H23.7888H24.2113H33.8768V7.71094Z" fill="#FB0000"/>
<path fill-rule="evenodd" clip-rule="evenodd" d="M15.0528 15.9084C15.0105 15.2007 15.1056 13.8063 15.3274 11.7253C15.5175 11.7253 15.6126 11.7253 15.6126 11.7253C15.4119 14.7042 15.3168 16.1936 15.3168 16.1936L15.0528 15.9084Z" fill="#404040"/>
<path fill-rule="evenodd" clip-rule="evenodd" d="M30.6338 32.3552V28.0242V27.6967C30.6655 27.6967 30.6866 27.6967 30.7183 27.6967C31.3627 27.6967 31.9965 27.6862 32.6408 27.6756C33.0845 27.3376 33.3591 26.7777 33.4859 25.9855H33.5493C33.5915 26.0489 33.6338 26.0911 33.6866 26.1228V32.3446H30.6338V32.3552ZM17.3557 27.6967V28.0242V32.3552H14.3029V26.1334C14.3557 26.1017 14.3979 26.0594 14.4402 25.996H14.5036C14.6198 26.7777 14.905 27.3376 15.3486 27.6862C15.993 27.6967 16.6268 27.7073 17.2712 27.7073C17.3028 27.7073 17.324 27.7073 17.3557 27.7073V27.6967Z" fill="#404040"/>
<path fill-rule="evenodd" clip-rule="evenodd" d="M23.9472 29.5984C22.2254 29.5984 20.493 29.5562 18.7711 29.4611C18.1056 29.2182 17.588 28.69 17.3662 28.0245V27.697C19.574 27.7182 21.7923 27.7076 24 27.6759C26.2077 27.7076 28.426 27.7182 30.6338 27.697V28.0245C30.4119 28.69 29.8943 29.2182 29.2289 29.4611C27.4753 29.5456 25.7113 29.5984 23.9577 29.5984H23.9472Z" fill="#292827"/>
<path fill-rule="evenodd" clip-rule="evenodd" d="M28.5211 25.605C25.5105 25.5733 22.4788 25.5733 19.4788 25.605C19.3626 25.5945 19.0774 26.0909 18.6232 27.0945C19.0457 26.6191 19.3838 26.3762 19.6479 26.3867C22.5422 26.3656 25.4577 26.3656 28.352 26.3867C28.6056 26.3762 28.9436 26.6191 29.3767 27.0945C28.933 26.0909 28.6478 25.5945 28.5211 25.605ZM33.4225 24.2741C33.507 24.4748 33.5492 24.7917 33.5492 25.2248C33.5387 25.4677 33.5281 25.6895 33.4964 25.9008C33.4964 25.9325 33.4858 25.9642 33.4858 25.9959C33.3696 26.7776 33.0844 27.3374 32.6408 27.686C31.9964 27.6966 31.3626 27.7071 30.7182 27.7071C30.6865 27.7071 30.6654 27.7071 30.6337 27.7071C28.426 27.7283 26.2077 27.7177 23.9999 27.686C21.7922 27.7177 19.5739 27.7283 17.3662 27.7071C17.3345 27.7071 17.3134 27.7071 17.2817 27.7071C16.6373 27.7071 16.0035 27.6966 15.3591 27.686C14.9155 27.348 14.6408 26.7881 14.5141 25.9959C14.5141 25.9642 14.5035 25.9325 14.5035 25.9008C14.4718 25.6895 14.4612 25.4677 14.4507 25.2248C14.4507 24.7917 14.4929 24.4748 14.5774 24.2741C14.6514 24.0945 14.7465 24.01 14.8838 24.0205C15.919 24.2107 16.8803 24.3586 17.7781 24.4642C18.9824 24.6121 20.0598 24.686 21.0316 24.6966C22.6795 24.6966 23.6514 24.6966 23.9471 24.6966C23.9471 24.6966 24.9507 24.6966 26.9683 24.6966C27.9401 24.686 29.0175 24.6121 30.2218 24.4642C31.1196 24.3586 32.0915 24.2107 33.1161 24.0205C33.2429 24.01 33.3485 24.0945 33.4225 24.2741ZM30.6337 26.3339C31.9119 26.26 32.5457 26.2283 32.5457 26.2283C32.6302 26.1755 32.7147 26.1015 32.7781 25.9959C32.8309 25.9114 32.8837 25.8057 32.926 25.6895C33.264 24.8656 33.1267 24.5064 32.4929 24.6121C31.2042 24.7388 30.4542 24.8867 30.2323 25.0452C30.0316 25.1508 29.8943 25.3621 29.8732 25.5839C30.2112 26.1015 30.3802 26.3656 30.3802 26.3656C30.4647 26.3656 30.5492 26.355 30.6337 26.355V26.3339ZM15.2112 25.9959C15.2852 26.1015 15.3591 26.1755 15.4436 26.2283C15.4436 26.2283 16.0774 26.26 17.3556 26.3339C17.4401 26.3339 17.5141 26.3445 17.6091 26.3445C17.6091 26.3445 17.7781 26.0804 18.1162 25.5628C18.095 25.3304 17.9577 25.1297 17.757 25.0241C17.5352 24.8656 16.7852 24.7283 15.4965 24.591C14.8627 24.4853 14.7148 24.8445 15.0634 25.6684C15.1056 25.7846 15.1584 25.8902 15.2112 25.9748V25.9959Z" fill="#404040"/>
<path fill-rule="evenodd" clip-rule="evenodd" d="M30.6337 26.3343C30.5492 26.3343 30.4753 26.3449 30.3802 26.3449C30.3802 26.3449 30.2112 26.0808 29.8732 25.5632C29.8943 25.3308 30.0316 25.1301 30.2323 25.0245C30.4542 24.866 31.2042 24.7287 32.4929 24.5914C33.1267 24.4857 33.2746 24.8449 32.926 25.6688C32.8837 25.785 32.8309 25.8907 32.7781 25.9752C32.7041 26.0808 32.6302 26.1547 32.5457 26.2076C32.5457 26.2076 31.9119 26.2393 30.6337 26.3132V26.3343Z" fill="#FEFEFE"/>
<path fill-rule="evenodd" clip-rule="evenodd" d="M15.2113 25.9957C15.1584 25.9112 15.1056 25.8055 15.0634 25.6893C14.7253 24.8654 14.8627 24.5062 15.4965 24.6119C16.7852 24.7386 17.5352 24.8865 17.757 25.045C17.9577 25.1506 18.0951 25.3619 18.1162 25.5837C17.7782 26.1013 17.6091 26.3654 17.6091 26.3654C17.5246 26.3654 17.4401 26.3548 17.3556 26.3548C16.0775 26.2809 15.4437 26.2492 15.4437 26.2492C15.3591 26.1964 15.2746 26.1224 15.2113 26.0168V25.9957Z" fill="#FEFEFE"/>
<path fill-rule="evenodd" clip-rule="evenodd" d="M18.6233 27.0944C19.067 26.0909 19.3522 25.5944 19.4789 25.6049C22.4895 25.5733 25.5212 25.5733 28.5211 25.6049C28.6373 25.5944 28.9226 26.0909 29.3768 27.0944C28.9542 26.619 28.6162 26.3761 28.3521 26.3866C25.4578 26.3655 22.5423 26.3655 19.6479 26.3866C19.3944 26.3761 19.0564 26.619 18.6233 27.0944Z" fill="#6D6E6E"/>
<path fill-rule="evenodd" clip-rule="evenodd" d="M22.8697 22.6577C22.5845 22.4465 22.3521 22.1613 22.2148 21.8338C19.9754 21.8127 18.8556 21.7915 18.8556 21.7915C18.8556 22.0556 18.8873 22.3303 18.9402 22.6155L22.8803 22.6577H22.8697ZM17.0599 21.7493C16.9648 21.3901 16.8592 20.9993 16.7535 20.5662C18.0106 20.7247 19.912 20.788 22.4472 20.7458C23.25 19.8268 24.7394 19.8268 25.5422 20.7458C28.0774 20.788 29.9789 20.7247 31.2359 20.5662C31.1197 20.9993 31.0246 21.3901 30.9296 21.7493C30.4542 23.5662 30.2112 24.4746 30.2112 24.4746C29.007 24.6225 27.9296 24.6965 26.9577 24.707C25.3099 24.707 24.338 24.707 24.0423 24.707C24.0423 24.707 23.0387 24.707 21.0211 24.707C20.0493 24.6965 18.9718 24.6225 17.7676 24.4746C17.7676 24.4746 17.5247 23.5662 17.0493 21.7493H17.0599ZM28.7852 23.4922C26.9577 23.5028 25.3627 23.5028 24 23.4922C22.6373 23.5028 21.0423 23.5028 19.2148 23.4922C19.162 23.6613 19.1937 23.8937 19.2887 24.2C20.8944 24.2528 22.4577 24.2634 24 24.2634C25.5422 24.2739 27.1162 24.2528 28.7113 24.2C28.8063 23.9042 28.838 23.6718 28.7852 23.4922ZM25.7852 21.8338C25.6479 22.1613 25.4155 22.4465 25.1303 22.6577L29.0704 22.6155C29.1232 22.3303 29.1443 22.0556 29.1549 21.7915C29.1549 21.7915 28.0352 21.8021 25.7958 21.8338H25.7852Z" fill="#6D6E6E"/>
<path fill-rule="evenodd" clip-rule="evenodd" d="M25.1302 22.6578C25.4154 22.4466 25.6478 22.1613 25.7851 21.8339C28.0245 21.8128 29.1443 21.7916 29.1443 21.7916C29.1443 22.0557 29.1126 22.3304 29.0598 22.6156L25.1196 22.6578H25.1302Z" fill="#404040"/>
<path fill-rule="evenodd" clip-rule="evenodd" d="M22.2147 21.8236C22.352 22.1511 22.5844 22.4363 22.8696 22.6476L18.9295 22.6053C18.8767 22.3201 18.8555 22.0455 18.845 21.7814C18.845 21.7814 19.9647 21.7919 22.2041 21.8236H22.2147Z" fill="#404040"/>
<path fill-rule="evenodd" clip-rule="evenodd" d="M19.2043 23.4821C21.0317 23.4926 22.6268 23.4926 23.9895 23.4821C25.3521 23.4926 26.9472 23.4926 28.7747 23.4821C28.8275 23.6511 28.7958 23.8835 28.7007 24.1898C27.0951 24.2426 25.5317 24.2532 23.9895 24.2532C22.4472 24.2637 20.8733 24.2426 19.2782 24.1898C19.1831 23.894 19.1515 23.6616 19.2043 23.4821Z" fill="#404040"/>
<path fill-rule="evenodd" clip-rule="evenodd" d="M16.2147 22.6367C16.595 23.0803 16.7851 23.4606 16.7745 23.7775C15.7922 23.7881 15.19 23.6613 14.9788 23.3972C14.852 22.9219 14.9471 22.5205 15.2429 22.193C15.8872 22.4888 16.2147 22.6472 16.2147 22.6472V22.6367Z" fill="#FEC900"/>
<path fill-rule="evenodd" clip-rule="evenodd" d="M31.2252 23.7778C31.2252 23.4609 31.4048 23.0806 31.7851 22.637C31.7851 22.637 32.1125 22.4891 32.7569 22.1827C33.0527 22.5102 33.1478 22.9116 33.021 23.387C32.8097 23.6616 32.2076 23.7884 31.2252 23.7672V23.7778Z" fill="#FEC900"/>
<path fill-rule="evenodd" clip-rule="evenodd" d="M30.9295 21.7388C31.0246 21.3797 31.1302 20.9888 31.2359 20.5557C29.9788 20.7142 28.0774 20.7776 25.5422 20.7353C24.7394 19.8163 23.25 19.8163 22.4471 20.7353C19.9119 20.7776 18.0105 20.7142 16.7535 20.5557C16.8697 20.9888 16.9648 21.3797 17.0598 21.7388C17.5352 23.5557 17.7781 24.4642 17.7781 24.4642C16.8803 24.3585 15.9084 24.2107 14.8838 24.0205C14.757 24.01 14.6514 24.0945 14.5775 24.274C14.4929 23.1649 14.4296 22.51 14.3873 22.3198C14.3768 22.3093 14.3556 22.3093 14.3451 22.2987C14.3239 22.0663 14.4507 21.8445 14.662 21.7494C14.6831 21.7388 14.7042 21.7388 14.7148 21.7283C14.6725 18.855 14.6831 16.9536 14.7359 16.0346C14.7887 15.2001 14.8415 14.4607 14.8838 13.8269H15.1056C15.0317 14.7776 15.0106 15.4748 15.0317 15.9079L15.2958 16.1931C15.2958 16.1931 15.3908 14.7036 15.5915 11.7248C15.5915 11.7248 15.4965 11.7248 15.3063 11.7248C15.2324 12.4537 15.169 13.098 15.1162 13.6473H14.8944C14.9789 12.4853 15.0528 11.672 15.1056 11.2283C15.2852 10.5839 15.6444 10.2248 16.1936 10.1297C21.2535 9.98183 26.7042 9.98183 31.764 10.1297C32.3133 10.2142 32.6725 10.5839 32.852 11.2283C32.9049 11.672 32.9788 12.4748 33.0633 13.6473H32.8415C32.7992 13.0875 32.7358 12.4431 32.6513 11.7248C32.4612 11.7248 32.3661 11.7248 32.3661 11.7248C32.5668 14.7036 32.6619 16.1931 32.6619 16.1931L32.926 15.9079C32.9471 15.4748 32.926 14.7776 32.852 13.8269H33.0739C33.1161 14.4607 33.1689 15.2001 33.2218 16.0346C33.2851 16.9536 33.2851 18.8445 33.2429 21.7283C33.264 21.7388 33.2851 21.7388 33.2957 21.7494C33.507 21.8445 33.6337 22.0663 33.6126 22.2987C33.602 22.3093 33.5809 22.3093 33.5704 22.3198C33.5387 22.51 33.4753 23.1649 33.3802 24.274C33.3063 24.0945 33.2112 24.01 33.0739 24.0205C32.0387 24.2107 31.0774 24.3585 30.1795 24.4642C30.1795 24.4642 30.4225 23.5557 30.8978 21.7388H30.9295ZM16.7641 23.7776C16.7641 23.4607 16.5845 23.0804 16.2042 22.6367C16.2042 22.6367 15.8767 22.4888 15.2324 22.1825C14.9366 22.51 14.8415 22.9114 14.9683 23.3867C15.1796 23.6614 15.7817 23.7881 16.7641 23.767V23.7776ZM31.7746 22.6367C31.3943 23.0804 31.2042 23.4607 31.2147 23.7776C32.1971 23.7881 32.7992 23.6614 33.0105 23.3973C33.1373 22.9219 33.0422 22.5205 32.7464 22.1931C32.102 22.4888 31.7746 22.6473 31.7746 22.6473V22.6367ZM15.7711 17.2917C15.7394 17.936 22.7007 17.8938 23.9894 17.936C25.2781 17.8938 32.2288 17.936 32.2077 17.2917C32.2077 17.2917 32.102 15.4536 31.8908 11.7882C31.9225 11.3339 31.7429 11.1121 31.3309 11.1332C26.8098 11.1015 24.3591 11.1015 23.9894 11.1227C23.6197 11.1015 21.169 11.1015 16.6479 11.1332C16.2465 11.1227 16.0563 11.3339 16.088 11.7882C15.8767 15.4536 15.7711 17.2917 15.7711 17.2917Z" fill="#ED595B"/>
<path fill-rule="evenodd" clip-rule="evenodd" d="M33.4225 24.2741C33.507 23.165 33.5704 22.5101 33.6126 22.3199C33.6232 22.3093 33.6443 22.3094 33.6549 22.2988C33.9823 22.1298 34.1619 22.3199 34.1725 22.8692C34.2147 24.9079 34.1619 25.996 33.9929 26.1544C33.8767 26.1861 33.7816 26.1861 33.6971 26.1333C33.6443 26.1016 33.6021 26.0593 33.5598 25.996C33.5387 25.9643 33.5281 25.9326 33.507 25.9009C33.5387 25.6896 33.5492 25.4678 33.5598 25.2248C33.5598 24.7917 33.5176 24.4748 33.433 24.2741H33.4225Z" fill="#292827"/>
<path fill-rule="evenodd" clip-rule="evenodd" d="M14.3874 22.3199C14.4191 22.5101 14.4824 23.165 14.5775 24.2741C14.493 24.4748 14.4508 24.7917 14.4508 25.2248C14.4613 25.4678 14.4719 25.6896 14.5036 25.9009C14.493 25.9326 14.4719 25.9643 14.4508 25.996C14.4085 26.0593 14.3662 26.1016 14.3134 26.1333C14.2289 26.1755 14.1339 26.1861 14.0177 26.1544C13.8592 25.996 13.7958 24.9079 13.8381 22.8692C13.8486 22.3199 14.0177 22.1298 14.3557 22.2988C14.3662 22.3094 14.3874 22.3093 14.3979 22.3199H14.3874Z" fill="#292827"/>
<path d="M34.1514 13.6472H32.7782V13.8162H34.1514V13.6472Z" fill="#292827"/>
<path fill-rule="evenodd" clip-rule="evenodd" d="M34.669 12.3803C34.1197 12.338 33.8239 12.3909 33.7922 12.5387L33.7183 14.6514C33.7922 14.9789 33.9612 15.1268 34.2464 15.0951C34.8274 15.1268 35.1232 14.9894 35.1232 14.6831C35.1549 13.3838 35.176 12.7289 35.176 12.7289C35.0492 12.4754 34.8802 12.3592 34.669 12.3803Z" fill="#292827"/>
<path fill-rule="evenodd" clip-rule="evenodd" d="M13.331 12.3803C13.8803 12.338 14.1761 12.3909 14.2078 12.5387L14.2817 14.6514C14.2078 14.9789 14.0388 15.1268 13.7536 15.0951C13.1726 15.1268 12.8768 14.9894 12.8768 14.6831C12.8451 13.3838 12.824 12.7289 12.824 12.7289C12.9507 12.4754 13.1197 12.3592 13.331 12.3803Z" fill="#6D7F99"/>
<path d="M15.2219 13.6472H13.8486V13.8162H15.2219V13.6472Z" fill="#292827"/>
<path fill-rule="evenodd" clip-rule="evenodd" d="M13.331 12.3803C13.8803 12.338 14.1761 12.3909 14.2078 12.5387L14.2817 14.6514C14.2078 14.9789 14.0388 15.1268 13.7536 15.0951C13.1726 15.1268 12.8768 14.9894 12.8768 14.6831C12.8451 13.3838 12.824 12.7289 12.824 12.7289C12.9507 12.4754 13.1197 12.3592 13.331 12.3803Z" fill="#292827"/>
<path fill-rule="evenodd" clip-rule="evenodd" d="M32.6936 16.1936C32.6936 16.1936 32.5985 14.7042 32.3978 11.7253C32.3978 11.7253 32.4929 11.7253 32.683 11.7253C32.757 12.4542 32.8204 13.0986 32.8732 13.6479H32.7887V13.8169H32.8837C32.9577 14.7676 32.9788 15.4648 32.9577 15.8979L32.6936 16.1831V16.1936Z" fill="#353043"/>
<path fill-rule="evenodd" clip-rule="evenodd" d="M33.8768 12.4435V10.2041H34.3627V12.3696C34.1304 12.3696 33.9613 12.3907 33.8768 12.4435Z" fill="#940A0A"/>
<path fill-rule="evenodd" clip-rule="evenodd" d="M33.8768 14.9788C33.9719 15.0738 34.0881 15.1161 34.2465 15.095C34.2888 15.095 34.3205 15.095 34.3627 15.095V21.7393H33.8768V14.9788Z" fill="#940A0A"/>
<path fill-rule="evenodd" clip-rule="evenodd" d="M34.3627 10.2037H33.8768V9.31641H34.5318V10.2037H34.3627Z" fill="#940A0A"/>
<path fill-rule="evenodd" clip-rule="evenodd" d="M14.1232 9.31641V10.2037H13.6373H13.4683V9.31641H14.1232Z" fill="#940A0A"/>
<path fill-rule="evenodd" clip-rule="evenodd" d="M13.743 15.095C13.9015 15.1161 14.0282 15.0738 14.1127 14.9788V21.7393H13.6268V15.095C13.6585 15.095 13.7008 15.095 13.743 15.095Z" fill="#940A0A"/>
<path fill-rule="evenodd" clip-rule="evenodd" d="M14.1232 12.4435C14.0387 12.3907 13.8697 12.3696 13.6373 12.3696V10.2041H14.1232V12.4435Z" fill="#940A0A"/>
<path fill-rule="evenodd" clip-rule="evenodd" d="M15.7817 17.2916C15.7817 17.2916 15.8873 15.4536 16.0986 11.7881C16.0669 11.3339 16.2465 11.1121 16.6584 11.1332C21.1795 11.1015 23.6302 11.1015 23.9999 11.1226C24.3697 11.1015 26.8204 11.1015 31.3415 11.1332C31.7429 11.1226 31.933 11.3339 31.9013 11.7881C32.1126 15.4536 32.2182 17.2916 32.2182 17.2916C32.2499 17.936 25.2887 17.8937 23.9999 17.936C22.7112 17.8937 15.7605 17.936 15.7817 17.2916Z" fill="#353043"/>
<path fill-rule="evenodd" clip-rule="evenodd" d="M23.9154 21.4222C23.7464 21.4222 23.5773 21.4222 23.4189 21.4222C23.3555 21.4222 23.2921 21.4222 23.2287 21.4222C23.1654 21.4222 23.1126 21.4222 23.0492 21.4222C22.9647 21.4222 22.8696 21.4222 22.7957 21.4539C22.7534 21.475 22.7428 21.4961 22.7428 21.5384V21.5489C22.7428 21.6123 22.7851 21.6757 22.8062 21.7285C22.8485 21.813 22.9118 21.8764 22.9752 21.9398C23.0914 22.056 23.3133 22.1827 23.5562 22.2461C23.5879 22.2567 23.6302 22.2672 23.6618 22.2778C23.6935 22.2884 23.683 22.2989 23.6618 22.2989C23.6196 22.2989 23.5773 22.2884 23.5457 22.2778C23.271 22.2039 23.0809 22.0982 22.9541 21.9926C22.8802 21.9292 22.7957 21.8341 22.7428 21.7496C22.7111 21.6863 22.6689 21.5806 22.6689 21.5489C22.6583 21.4961 22.6583 21.475 22.6583 21.3905C22.6689 21.2532 22.7111 21.1475 22.7851 21.0313C22.7957 21.0208 22.7957 21.0102 22.8062 21.0102C22.8062 21.0102 22.8168 20.9996 22.8062 20.9891C22.7957 20.9891 22.7851 20.9996 22.7851 20.9996C22.7217 21.0736 22.6795 21.1264 22.6478 21.2003C22.6055 21.2954 22.5949 21.3694 22.5844 21.4539C22.5844 21.4644 22.5633 21.475 22.5633 21.4539C22.5633 21.3588 22.5844 21.2637 22.6161 21.1792C22.6583 21.0841 22.7111 21.0313 22.764 20.9574C22.8379 20.8834 22.9224 20.8095 23.0069 20.7567C23.1442 20.6722 23.2816 20.6194 23.4295 20.5771C23.4928 20.556 23.5562 20.5454 23.6196 20.5454C23.6407 20.5454 23.6618 20.5454 23.683 20.5454C23.6935 20.5454 23.7147 20.556 23.683 20.5665C23.6407 20.5771 23.609 20.5877 23.5668 20.5982C23.4189 20.6405 23.271 20.6933 23.1442 20.7778C23.0386 20.8412 22.9858 20.8834 22.859 21.0419C22.8485 21.063 22.8062 21.1158 22.7851 21.1581C22.7745 21.1898 22.7534 21.232 22.7534 21.2743C22.7534 21.306 22.764 21.3377 22.7957 21.3482C22.8485 21.3799 22.9013 21.3799 22.9858 21.3905C23.0386 21.3905 23.0914 21.3905 23.1548 21.3905C23.2393 21.3905 23.3133 21.3905 23.3978 21.3905C23.5773 21.3905 23.7569 21.3905 23.9259 21.401C23.9471 21.401 23.9682 21.401 23.9787 21.401C24.1583 21.401 24.3379 21.401 24.5175 21.401C24.602 21.401 24.6759 21.401 24.7604 21.401C24.8133 21.401 24.8661 21.401 24.9294 21.401C25.014 21.401 25.0562 21.401 25.1196 21.3588C25.1513 21.3482 25.1513 21.3165 25.1618 21.2849C25.1618 21.2532 25.1407 21.2003 25.1302 21.1687C25.109 21.1264 25.0773 21.0736 25.0668 21.0525C24.94 20.894 24.8872 20.8518 24.7816 20.7884C24.6548 20.7039 24.5069 20.6405 24.3696 20.5982C24.3273 20.5877 24.2956 20.5771 24.2534 20.5665C24.2217 20.556 24.2428 20.5454 24.2534 20.5454C24.2745 20.5454 24.2956 20.5454 24.3168 20.5454C24.3802 20.556 24.4435 20.5665 24.5069 20.5877C24.6548 20.6299 24.7921 20.6933 24.9294 20.7778C25.014 20.8306 25.0985 20.9046 25.1724 20.9785C25.2358 21.0525 25.278 21.1053 25.3203 21.2109C25.352 21.2954 25.3731 21.3905 25.3731 21.4856C25.3731 21.5172 25.352 21.5067 25.352 21.4856C25.3414 21.401 25.3309 21.3271 25.2886 21.232C25.2569 21.1581 25.2252 21.0947 25.1618 21.0313C25.1513 21.0208 25.1407 21.0208 25.1407 21.0208C25.1407 21.0313 25.1407 21.0313 25.1407 21.0419C25.1407 21.0525 25.1513 21.063 25.1618 21.063C25.2358 21.1898 25.278 21.2954 25.278 21.4222C25.278 21.4961 25.2675 21.5278 25.2675 21.5806C25.2569 21.6229 25.2252 21.7179 25.183 21.7813C25.1302 21.8764 25.0456 21.9609 24.9611 22.0243C24.8238 22.1299 24.6337 22.2356 24.359 22.2989C24.3273 22.3095 24.2851 22.3201 24.2428 22.3201C24.2217 22.3201 24.2111 22.3095 24.2428 22.2989C24.2745 22.2884 24.3168 22.2778 24.3485 22.2672C24.5914 22.2039 24.8133 22.0771 24.9294 21.9715C24.9928 21.9081 25.0668 21.8341 25.109 21.7602C25.1407 21.7074 25.1724 21.6334 25.1724 21.5806C25.1724 21.5806 25.1724 21.5806 25.1724 21.5701C25.1618 21.5278 25.1513 21.5067 25.1196 21.4856C25.0562 21.4539 24.9506 21.4539 24.8661 21.4539C24.8027 21.4539 24.7499 21.4539 24.6865 21.4539C24.6231 21.4539 24.5597 21.4539 24.4964 21.4539C24.3273 21.4539 24.1583 21.4539 23.9893 21.4539C23.9682 21.4539 23.9471 21.4539 23.9365 21.4539L23.9154 21.4222ZM23.9154 21.3588C23.7992 21.3588 23.683 21.3588 23.5668 21.3588C23.4823 21.3588 23.3978 21.3588 23.3133 21.3482C23.2393 21.3482 23.1654 21.3377 23.0809 21.3377C23.0069 21.3271 22.9118 21.3165 22.8907 21.306C22.8802 21.2954 22.8802 21.2848 22.8907 21.2743C22.9013 21.2637 22.9224 21.2532 22.9435 21.2426C22.9541 21.2426 22.9647 21.2426 22.9752 21.2426C22.9858 21.2532 22.9964 21.2532 23.0175 21.2637C23.0914 21.2848 23.1337 21.2954 23.2287 21.2954C23.3027 21.306 23.3661 21.306 23.44 21.306C23.5985 21.3165 23.6935 21.3165 23.9154 21.3165C23.9365 21.3165 23.9576 21.3165 23.9787 21.3165C24.2006 21.3165 24.3062 21.3165 24.4647 21.3165C24.5386 21.3165 24.602 21.3165 24.6759 21.306C24.771 21.2954 24.8238 21.2954 24.8872 21.2743C24.9083 21.2743 24.9083 21.2637 24.9294 21.2532C24.94 21.2426 24.9506 21.2426 24.9611 21.2532C24.9823 21.2637 25.0034 21.2743 25.014 21.2849C25.0245 21.2954 25.0245 21.306 25.014 21.3165C24.9928 21.3271 24.8978 21.3377 24.8238 21.3377C24.7499 21.3377 24.6759 21.3482 24.5914 21.3482C24.5069 21.3482 24.4224 21.3482 24.3379 21.3482C24.2217 21.3482 24.0949 21.3482 23.9787 21.3482C23.9576 21.3482 23.9365 21.3482 23.9154 21.3482V21.3588ZM23.9154 21.2954C23.6724 21.2954 23.4189 21.2954 23.1759 21.2637C23.0597 21.2532 23.0175 21.1898 23.0175 21.1475C23.0069 21.0102 23.2076 20.8306 23.3133 20.7778C23.4611 20.7039 23.5879 20.6405 23.7675 20.5982C23.7886 20.5877 23.7992 20.5665 23.8097 20.5454C23.8097 20.5243 23.778 20.5032 23.7675 20.5032C23.7147 20.4926 23.6618 20.4926 23.5985 20.5032C23.5034 20.5137 23.4189 20.5349 23.3344 20.556C23.2182 20.5877 23.0914 20.651 22.9752 20.7144C22.8273 20.7989 22.7006 20.9151 22.6161 21.063C22.5527 21.1687 22.4999 21.2954 22.4999 21.4116C22.4999 21.5489 22.5527 21.6863 22.6266 21.8025C22.7006 21.9187 22.7957 22.0137 22.9118 22.0877C23.0069 22.1616 23.1231 22.2144 23.2393 22.2672C23.3449 22.3095 23.4506 22.3306 23.5562 22.3517C23.6196 22.3623 23.6935 22.3729 23.7569 22.3623C23.778 22.3623 23.7992 22.3412 23.8097 22.3201C23.8097 22.2989 23.7992 22.2778 23.778 22.2672C23.7252 22.2461 23.6302 22.2144 23.5562 22.1933C23.4717 22.151 23.3766 22.1194 23.3027 22.0665C23.2287 22.0137 23.1442 21.9503 23.0914 21.8764C23.0597 21.8341 23.0386 21.7813 23.028 21.7391C23.028 21.7179 23.028 21.6863 23.0386 21.6546C23.0914 21.5701 23.2393 21.5701 23.3449 21.5701C23.44 21.5701 23.5351 21.5701 23.6407 21.5595C23.7358 21.5595 23.852 21.5595 23.9576 21.5595C24.0633 21.5595 24.1795 21.5595 24.2745 21.5701C24.3696 21.5701 24.4647 21.5806 24.5703 21.5806C24.6759 21.5912 24.8238 21.5806 24.8766 21.6651C24.8872 21.6863 24.8872 21.7179 24.8872 21.7496C24.8872 21.7919 24.8555 21.8447 24.8238 21.887C24.771 21.9609 24.6971 22.0243 24.6125 22.0665C24.528 22.1194 24.4435 22.151 24.359 22.1933C24.2851 22.225 24.2006 22.2461 24.1372 22.2672C24.1161 22.2778 24.1055 22.2989 24.1055 22.3201C24.1055 22.3412 24.1372 22.3623 24.1583 22.3623C24.2217 22.3729 24.2956 22.3729 24.359 22.3623C24.4647 22.3517 24.5703 22.3201 24.6759 22.2884C24.7921 22.2461 24.9083 22.1933 25.0034 22.1194C25.1196 22.0348 25.2147 21.9503 25.2886 21.8341C25.3625 21.7179 25.4259 21.5806 25.4259 21.4433C25.4259 21.3271 25.3837 21.2003 25.3203 21.0947C25.2358 20.9468 25.109 20.8306 24.9611 20.7461C24.8449 20.6722 24.7182 20.6088 24.602 20.5771C24.5175 20.5454 24.4224 20.5349 24.3379 20.5137C24.2851 20.5032 24.2217 20.5032 24.1689 20.5137C24.1478 20.5137 24.1266 20.5349 24.1266 20.556C24.1266 20.5771 24.1372 20.5982 24.1583 20.6088C24.3273 20.6616 24.4647 20.725 24.602 20.7989C24.7076 20.8623 24.9083 21.0419 24.8978 21.1792C24.8872 21.2215 24.8555 21.2849 24.7393 21.2954C24.4964 21.3165 24.2428 21.3165 23.9999 21.306C23.9787 21.306 23.9576 21.306 23.9471 21.306L23.9154 21.2954Z" fill="#D3D5D5"/>
<path d="M38.6513 34.7745H9.39087V36.5703H38.6513V34.7745Z" fill="#B3B3B3"/>
<path d="M38.6513 38.2184H9.39087V40.0142H38.6513V38.2184Z" fill="#B3B3B3"/>
</svg>
