<svg width="48" height="48" viewBox="0 0 48 48" fill="none" xmlns="http://www.w3.org/2000/svg">
<path d="M24 48C37.2548 48 48 37.2548 48 24C48 10.7452 37.2548 0 24 0C10.7452 0 0 10.7452 0 24C0 37.2548 10.7452 48 24 48Z" fill="#99B8D1"/>
<path d="M33.8619 12.3743C32.3429 12.3743 31.1043 13.607 31.1043 15.1376V41.5271C31.1043 43.0461 29.8716 44.2788 28.3468 44.2788H5.46851V15.1318C5.46851 13.607 6.70707 12.3684 8.22605 12.3684H33.8619V12.3743Z" fill="white"/>
<path d="M28.1715 44.2726V44.2784H5.29905C4.53371 44.2784 3.85601 43.9746 3.34774 43.4722C2.8453 42.9698 2.5415 42.2862 2.5415 41.5209V40.2297H25.5892V41.5209C25.5892 42.2862 25.893 42.9698 26.3954 43.4722C26.857 43.9396 27.4821 44.2317 28.1715 44.2726Z" fill="#B3B3B3"/>
<path d="M9.03223 21.0144H27.301V19.9395H9.03223V21.0144Z" fill="#B3B3B3"/>
<path d="M9.03223 24.169H27.301V23.094H9.03223V24.169Z" fill="#B3B3B3"/>
<path d="M9.03223 27.3244H14.1331V26.2493H9.03223V27.3244Z" fill="#B3B3B3"/>
<path d="M9.03223 28.4054H14.1331V27.3245H9.03223V28.4054Z" fill="#E6E6E6"/>
<path d="M37.8287 23.1765C43.443 23.1765 47.9943 18.6253 47.9943 13.011C47.9943 7.39672 43.443 2.84546 37.8287 2.84546C32.2145 2.84546 27.6632 7.39672 27.6632 13.011C27.6632 18.6253 32.2145 23.1765 37.8287 23.1765Z" fill="black"/>
<path d="M15.6165 27.3244H20.7174V26.2493H15.6165V27.3244Z" fill="#B3B3B3"/>
<path d="M15.6165 28.4054H20.7174V27.3245H15.6165V28.4054Z" fill="#E6E6E6"/>
<path d="M22.2065 27.3244H27.3016V26.2493H22.2065V27.3244Z" fill="#B3B3B3"/>
<path d="M22.2065 28.4054H27.3016V27.3245H22.2065V28.4054Z" fill="#E6E6E6"/>
<path d="M9.03223 30.4738H14.1331V29.3987H9.03223V30.4738Z" fill="#E6E6E6"/>
<path d="M15.6165 30.4738H20.7174V29.3987H15.6165V30.4738Z" fill="#E6E6E6"/>
<path d="M22.2065 30.4738H27.3016V29.3987H22.2065V30.4738Z" fill="#E6E6E6"/>
<path d="M9.03223 32.5473H14.1331V31.4663H9.03223V32.5473Z" fill="#E6E6E6"/>
<path d="M15.6165 32.5473H20.7174V31.4663H15.6165V32.5473Z" fill="#E6E6E6"/>
<path d="M22.2065 32.5473H27.3016V31.4663H22.2065V32.5473Z" fill="#E6E6E6"/>
<path d="M9.03223 34.6156H14.1331V33.5347H9.03223V34.6156Z" fill="#E6E6E6"/>
<path d="M15.6165 34.6156H20.7174V33.5347H15.6165V34.6156Z" fill="#E6E6E6"/>
<path d="M22.2065 34.6156H27.3016V33.5347H22.2065V34.6156Z" fill="#E6E6E6"/>
<path d="M9.03223 36.6833H14.1331V35.6082H9.03223V36.6833Z" fill="#E6E6E6"/>
<path d="M15.6165 36.6833H20.7174V35.6082H15.6165V36.6833Z" fill="#E6E6E6"/>
<path d="M22.2065 36.6833H27.3016V35.6082H22.2065V36.6833Z" fill="#E6E6E6"/>
<path d="M9.85029 15.5288V18.0939H9.17834V15.5288H9.85029Z" fill="#292827"/>
<path d="M12.7248 15.5288V18.0939H11.9828L11.1881 16.7032L10.9953 16.3235H10.9895L11.007 16.7967V18.0939H10.4169V15.5288H11.1589L11.9536 16.9136L12.1464 17.2934H12.1522L12.1347 16.8201V15.5288H12.7248Z" fill="#292827"/>
<path d="M15.6401 15.5288L14.7345 18.0939H13.9457L13.0342 15.5288H13.7353L14.2086 17.0772L14.3488 17.5855L14.4832 17.0889L14.9624 15.5288H15.6401Z" fill="#292827"/>
<path d="M17.0304 15.4878C17.2875 15.4878 17.5154 15.5404 17.7024 15.6456C17.8893 15.7507 18.0354 15.9026 18.1347 16.0955C18.2341 16.2941 18.2866 16.5278 18.2866 16.8083C18.2866 17.0829 18.2341 17.3225 18.1347 17.5211C18.0354 17.7198 17.8893 17.8717 17.7024 17.9711C17.5154 18.0762 17.2933 18.1288 17.0304 18.1288C16.7733 18.1288 16.5454 18.0762 16.3585 17.9711C16.1715 17.8659 16.0254 17.714 15.9261 17.5211C15.8268 17.3225 15.7742 17.0888 15.7742 16.8083C15.7742 16.5337 15.8268 16.2941 15.9261 16.0955C16.0254 15.8968 16.1715 15.7449 16.3585 15.6456C16.5454 15.5404 16.7733 15.4878 17.0304 15.4878ZM17.0304 16.0137C16.9077 16.0137 16.8025 16.0429 16.7149 16.1013C16.6272 16.1597 16.563 16.2474 16.5221 16.3701C16.4753 16.4869 16.4578 16.633 16.4578 16.8083C16.4578 16.9836 16.4812 17.1297 16.5221 17.2465C16.5688 17.3634 16.6331 17.4569 16.7149 17.5153C16.8025 17.5737 16.9077 17.6029 17.0304 17.6029C17.1531 17.6029 17.2583 17.5737 17.3459 17.5153C17.4277 17.4569 17.492 17.3692 17.5387 17.2465C17.5855 17.1297 17.603 16.9836 17.603 16.8083C17.603 16.633 17.5796 16.4869 17.5387 16.3701C17.492 16.2532 17.4277 16.1656 17.3459 16.1013C17.2641 16.0429 17.159 16.0137 17.0304 16.0137Z" fill="#292827"/>
<path d="M19.4083 15.5288V18.0939H18.7422V15.5288H19.4083Z" fill="#292827"/>
<path d="M22.2477 17.3575C22.201 17.5387 22.1192 17.6847 22.0081 17.7958C21.8971 17.9126 21.7686 17.9944 21.6167 18.047C21.4647 18.0996 21.3011 18.1288 21.12 18.1288C20.8629 18.1288 20.635 18.0762 20.4481 17.9711C20.2611 17.8659 20.115 17.714 20.0157 17.5211C19.9164 17.3225 19.8638 17.0888 19.8638 16.8083C19.8638 16.5337 19.9164 16.2941 20.0157 16.0955C20.115 15.8968 20.2611 15.7449 20.4481 15.6456C20.635 15.5404 20.8571 15.4878 21.1142 15.4878C21.2953 15.4878 21.4589 15.5112 21.605 15.5638C21.7569 15.6163 21.8796 15.6923 21.9848 15.7975C22.0899 15.9026 22.1601 16.037 22.2068 16.1948L21.6225 16.4344C21.5874 16.2766 21.529 16.1656 21.4472 16.1013C21.3654 16.0429 21.2602 16.0137 21.1375 16.0137C21.0148 16.0137 20.9097 16.0429 20.822 16.1013C20.7344 16.1597 20.6643 16.2474 20.6175 16.3701C20.5708 16.4869 20.5474 16.633 20.5474 16.8083C20.5474 16.9836 20.5708 17.1297 20.6117 17.2465C20.6584 17.3634 20.7227 17.4569 20.8103 17.5153C20.898 17.5737 21.009 17.6029 21.1434 17.6029C21.2661 17.6029 21.3713 17.5679 21.4589 17.4978C21.5465 17.4277 21.605 17.3225 21.6342 17.1823L22.2419 17.3517L22.2477 17.3575Z" fill="#292827"/>
<path d="M22.6212 18.0939V15.5288H24.6195V16.043H23.2932V16.563H24.3449V17.0538H23.2932V17.5738H24.6721V18.0939H22.6212Z" fill="#292827"/>
<path d="M40.2065 17.7077V12.3679H42.7012L37.8287 6.43213L32.9504 12.3679H35.4509V17.7077H40.2065Z" fill="white"/>
</svg>
