<svg width="49" height="48" viewBox="0 0 49 48" fill="none" xmlns="http://www.w3.org/2000/svg">
<path d="M24.2941 47.998C37.5484 47.998 48.2931 37.2532 48.2931 23.999C48.2931 10.7447 37.5484 0 24.2941 0C11.0399 0 0.295166 10.7447 0.295166 23.999C0.295166 37.2532 11.0399 47.998 24.2941 47.998Z" fill="#99B8D1"/>
<path fill-rule="evenodd" clip-rule="evenodd" d="M41.6072 38.3337C43.6435 38.3588 44.8176 38.3854 45.1278 38.4155C45.1612 40.1349 45.1779 40.9955 45.1779 40.9955C42.8647 41.1105 41.7706 41.1673 41.894 41.1639C41.4938 39.6029 41.3987 38.6606 41.6072 38.3337Z" fill="#E8E9E9"/>
<path fill-rule="evenodd" clip-rule="evenodd" d="M28.6003 38.3337C26.564 38.3588 25.3899 38.3854 25.0797 38.4155C25.0463 40.1349 25.0297 40.9955 25.0297 40.9955C27.3428 41.1105 28.4369 41.1673 28.3135 41.1639C28.7137 39.6029 28.8105 38.6606 28.6003 38.3337Z" fill="#E8E9E9"/>
<path fill-rule="evenodd" clip-rule="evenodd" d="M45.136 38.9992C45.0793 35.3768 45.0526 33.5573 45.0543 33.5389C45.0443 32.9185 45.041 32.6083 45.041 32.6083C45.0393 32.4616 45.0376 32.3882 45.0376 32.3882C45.0893 32.1697 45.1193 31.9329 45.1294 31.6777C45.1677 30.9856 45.1077 30.597 44.9509 30.512C44.7508 26.8662 44.4623 24.6131 44.0837 23.7525C43.2315 23.3239 42.6844 23.1088 42.4459 23.1088C42.1074 22.8603 41.8239 22.7336 41.592 22.7302C37.2676 22.6268 35.1045 22.5768 35.1045 22.5768C35.1045 22.5768 32.9364 22.6285 28.6119 22.7302C28.3801 22.7336 28.0966 22.8586 27.758 23.1088C27.5195 23.1088 26.9742 23.3239 26.1203 23.7525C25.7417 24.6131 25.4515 26.8662 25.2531 30.512C25.0946 30.597 25.0363 30.9839 25.0746 31.6777C25.0846 31.9329 25.1146 32.1697 25.1663 32.3882C25.1663 32.3882 25.1647 32.4616 25.163 32.6083C25.163 32.6083 25.158 32.9185 25.1497 33.5389C25.1513 33.5573 25.1246 35.3785 25.0679 38.9992H45.1377H45.136Z" fill="#E8E9E9"/>
<path d="M27.8548 44.3911H25.3799V48.0001H27.8548V44.3911Z" fill="#404040"/>
<path fill-rule="evenodd" clip-rule="evenodd" d="M25.1279 44.1892C25.1363 44.6028 25.1396 45.0181 25.1396 45.4317C27.0842 45.4434 28.0565 45.4484 28.0565 45.4484C28.0565 44.7162 28.0565 44.351 28.0565 44.351L25.1296 44.1892H25.1279Z" fill="#292827"/>
<path d="M44.8226 44.3911H42.3477V48.0001H44.8226V44.3911Z" fill="#404040"/>
<path fill-rule="evenodd" clip-rule="evenodd" d="M45.0743 44.1892C45.066 44.6028 45.0626 45.0181 45.0626 45.4317C43.1181 45.4434 42.1458 45.4484 42.1458 45.4484C42.1458 44.7162 42.1458 44.351 42.1458 44.351L45.0743 44.1892Z" fill="#292827"/>
<path fill-rule="evenodd" clip-rule="evenodd" d="M25.0666 38.9993H45.1364C45.133 38.8192 45.1313 38.6458 45.128 38.474C44.9245 38.4773 44.7311 38.4823 44.5476 38.4857C44.0206 38.4957 43.5803 38.504 43.2251 38.5107C42.5046 38.524 42.1427 38.5307 42.1427 38.5307C42.1611 36.2309 42.1711 35.0801 42.1711 35.0801C42.1661 34.6582 42.0093 34.4414 41.7024 34.4297C40.0347 34.4697 38.3353 34.4947 36.6275 34.5047C36.7359 34.6682 36.8293 34.8433 36.9077 35.0317C38.0484 35.0134 39.7295 34.985 41.9493 34.95C41.9626 35.7839 41.7642 36.1925 41.3505 36.1758C40.6151 36.2058 40.2482 36.2209 40.2482 36.2209C40.2348 35.9807 40.0731 35.864 39.7612 35.874C38.5037 35.8973 37.5014 35.914 36.7526 35.9273C36.6308 36.1225 36.474 36.2992 36.2839 36.4593C35.8903 36.4844 35.4967 36.4994 35.1031 36.501C34.7096 36.4977 34.311 36.4844 33.9174 36.4593C33.7273 36.2992 33.5705 36.1225 33.4487 35.9273C32.6999 35.914 31.6959 35.8956 30.4401 35.874C30.1282 35.864 29.9665 35.9807 29.9531 36.2209C29.9531 36.2209 29.5862 36.2058 28.8507 36.1758C28.4371 36.1925 28.2387 35.7839 28.252 34.95C30.4718 34.9867 32.1529 35.0134 33.2936 35.0317C33.372 34.8433 33.4654 34.6682 33.5738 34.5047C31.866 34.4947 30.1649 34.4697 28.4988 34.4297C28.192 34.4414 28.0352 34.6598 28.0302 35.0801C28.0302 35.0801 28.0402 36.2309 28.0586 38.5307C28.0586 38.5307 27.6983 38.524 26.9762 38.5107C26.6226 38.504 26.1823 38.4957 25.6537 38.4857C25.4702 38.4823 25.2767 38.479 25.0733 38.474C25.0699 38.6441 25.0683 38.8192 25.0649 38.9993H25.0666Z" fill="#6D6E6E"/>
<path fill-rule="evenodd" clip-rule="evenodd" d="M42.2195 40.0724C42.2195 40.0724 42.2211 39.8256 42.2245 39.3336C43.4169 39.2919 44.3875 39.1802 45.1347 38.9984H25.0649C25.8121 39.1802 26.7827 39.2919 27.9752 39.3336C27.9785 39.8256 27.9802 40.0724 27.9802 40.0724C28.1053 40.2843 28.1536 40.5628 28.1236 40.9113C29.3194 40.9564 30.4485 40.968 31.5075 40.9464C33.8707 41.0181 36.3273 41.0181 38.6905 40.9464C39.7495 40.968 40.8786 40.9564 42.0744 40.9113C42.0443 40.5644 42.091 40.2843 42.2178 40.0724H42.2195Z" fill="#6D6E6E"/>
<path fill-rule="evenodd" clip-rule="evenodd" d="M41.2669 44.5912C43.2299 44.6963 44.4991 44.5612 45.0744 44.1876C45.1328 43.9808 45.1478 43.779 45.1195 43.5822C45.6648 43.3387 45.4547 41.2257 45.4547 40.7103C42.9564 40.9071 40.7016 40.9855 38.6919 40.9455C36.3287 41.0172 33.8721 41.0172 31.5089 40.9455C29.4993 40.9855 27.2461 40.9071 24.7462 40.7103C24.7462 41.2257 24.5377 43.3387 25.0814 43.5822C25.0514 43.7773 25.0664 43.9791 25.1264 44.1876C25.7001 44.5612 26.9693 44.6946 28.9322 44.5912C32.9082 44.743 37.2894 44.743 41.2653 44.5912H41.2669Z" fill="#7C8785"/>
<path fill-rule="evenodd" clip-rule="evenodd" d="M35.1031 31.0161C32.9884 31.0311 30.0831 30.961 26.3991 30.8059C26.1689 30.7909 26.0372 30.6275 26.0072 30.3156C25.7153 28.1976 25.9004 26.0412 26.5525 24.0048C26.6743 23.8881 26.8577 23.8247 27.0979 23.8164C32.4313 23.7563 35.1014 23.7263 35.1014 23.7263C35.1014 23.7263 37.7682 23.7563 43.1 23.8164C43.3418 23.8247 43.5236 23.8881 43.6453 24.0048C44.2974 26.0412 44.4842 28.1976 44.1907 30.3156C44.1607 30.6275 44.0289 30.7893 43.7987 30.8059C40.1147 30.961 37.2145 31.0311 35.0997 31.0161H35.1031Z" fill="#353043"/>
<path fill-rule="evenodd" clip-rule="evenodd" d="M26.9758 38.5104C26.9674 38.0768 26.4054 37.1029 25.2897 35.5852C25.1746 36.9061 25.2213 37.8083 25.4298 38.2936C25.5415 38.392 25.6149 38.4571 25.6532 38.4871L26.9758 38.5121V38.5104Z" fill="#FEC900"/>
<path fill-rule="evenodd" clip-rule="evenodd" d="M29.0991 44.5981C29.4243 45.4587 30.44 45.8373 32.1477 45.7306C34.0606 45.7306 35.0496 45.7306 35.103 45.7306C35.158 45.7306 36.1403 45.7306 38.0532 45.7306C39.761 45.8356 40.7784 45.4587 41.1019 44.5981H29.0974H29.0991Z" fill="#404040"/>
<path fill-rule="evenodd" clip-rule="evenodd" d="M32.016 44.6511H34.9412H35.098H38.3484V45.8986H35.098H34.9412H32.016V44.6511Z" fill="#292827"/>
<path fill-rule="evenodd" clip-rule="evenodd" d="M27.663 35.4936C27.663 35.4936 27.6697 36.4059 27.6847 38.2304C27.6847 38.2304 27.5679 38.1153 27.3344 37.8869C27.3344 37.8869 27.2994 36.7061 27.2294 34.3462C27.2294 33.3873 26.4455 33.1371 25.7384 32.6885C26.3555 32.8769 26.9208 33.1054 27.4312 33.3739C27.6213 33.6674 27.713 34.0143 27.6897 34.3646L27.6613 35.4953L27.663 35.4936Z" fill="#D3D5D5"/>
<path d="M24.1608 25.0343H22.7682V28.4916H24.1608V25.0343Z" fill="black"/>
<path d="M24.1608 28.7092H22.7682V29.8566H24.1608V28.7092Z" fill="black"/>
<path d="M25.7335 24.86C25.6485 24.7249 25.5134 24.6132 25.3266 24.5248C25.1331 24.4331 24.8863 24.368 24.5861 24.3297C24.4193 24.323 24.2542 24.3213 24.0908 24.3213C23.9357 24.323 23.7772 24.3263 23.6171 24.3347C23.5654 24.3697 23.5404 24.4264 23.5438 24.5064L23.412 30.1118C23.4337 30.1635 23.4787 30.2068 23.5471 30.2418C23.6338 30.2885 23.7539 30.3202 23.909 30.3386L25.6985 30.3252L25.7002 30.5354L23.8923 30.5504H23.889C23.7072 30.5287 23.5604 30.4887 23.4487 30.4303C23.3253 30.3653 23.2436 30.2752 23.2069 30.1651L23.2002 30.1485L23.3336 24.5148C23.3269 24.338 23.3937 24.2129 23.5371 24.1395L23.5571 24.1295L23.5804 24.1279C23.7472 24.1195 23.9173 24.1145 24.0891 24.1129C24.2592 24.1112 24.4293 24.1145 24.5978 24.1212L24.6061 24.1229C24.9313 24.1646 25.2015 24.2363 25.415 24.338C25.6384 24.4431 25.8036 24.5815 25.9103 24.7516L25.7318 24.8633L25.7335 24.86Z" fill="black"/>
<path fill-rule="evenodd" clip-rule="evenodd" d="M35.1028 42.5032C35.1028 42.5032 37.1842 42.4765 41.3452 42.4248C42.9813 42.4465 43.7118 42.0579 43.54 41.2607C40.5547 41.3992 37.7379 41.4659 35.0978 41.4625C32.4578 41.4659 29.6459 41.3992 26.6607 41.2607C26.4872 42.0579 27.2194 42.4465 28.8554 42.4248C33.0165 42.4765 35.1028 42.5032 35.1028 42.5032Z" fill="#353043"/>
<path fill-rule="evenodd" clip-rule="evenodd" d="M35.1028 35.9573C35.1028 35.9573 36.6555 35.9289 39.7609 35.8739C40.0727 35.8639 40.2345 35.9806 40.2478 36.2208C40.2478 36.2208 40.6147 36.2058 41.3502 36.1757C41.7638 36.1924 41.9623 35.7838 41.9489 34.95C37.3843 35.025 35.1028 35.0617 35.1028 35.0617C35.1028 35.0617 32.8147 35.025 28.25 34.95C28.2367 35.7838 28.4351 36.1924 28.8487 36.1757C29.5842 36.2058 29.9511 36.2208 29.9511 36.2208C29.9645 35.9806 30.1262 35.8639 30.4381 35.8739C33.5435 35.9289 35.1012 35.9573 35.1012 35.9573H35.1028Z" fill="#E8E9E9"/>
<path fill-rule="evenodd" clip-rule="evenodd" d="M43.2266 38.5104C43.2349 38.0768 43.7969 37.1029 44.9127 35.5852C45.0277 36.9061 44.981 37.8083 44.7726 38.2936C44.6608 38.392 44.5874 38.4571 44.5491 38.4871L43.2266 38.5121V38.5104Z" fill="#FEC900"/>
<path fill-rule="evenodd" clip-rule="evenodd" d="M42.5394 35.4936C42.5394 35.4936 42.5327 36.4059 42.5177 38.2304C42.5177 38.2304 42.6344 38.1153 42.8679 37.8869C42.8679 37.8869 42.9029 36.7061 42.973 34.3462C42.973 33.3873 43.7568 33.1371 44.464 32.6885C43.8469 32.8769 43.2815 33.1054 42.7712 33.3739C42.5811 33.6674 42.491 34.0143 42.5127 34.3646L42.541 35.4953L42.5394 35.4936Z" fill="#D3D5D5"/>
<path d="M47.4343 25.0343H46.0417V28.4916H47.4343V25.0343Z" fill="black"/>
<path d="M47.4343 28.7092H46.0417V29.8566H47.4343V28.7092Z" fill="black"/>
<path d="M44.469 24.86C44.554 24.7249 44.6891 24.6132 44.8759 24.5248C45.0694 24.4331 45.3162 24.368 45.6164 24.3297C45.7832 24.323 45.9483 24.3213 46.1117 24.3213C46.2668 24.323 46.4253 24.3263 46.5854 24.3347C46.6371 24.3697 46.6621 24.4264 46.6587 24.5064L46.7905 30.1118C46.7688 30.1635 46.7238 30.2068 46.6554 30.2418C46.5687 30.2885 46.4486 30.3202 46.2935 30.3386L44.504 30.3252L44.5023 30.5354L46.3102 30.5504H46.3135C46.4953 30.5287 46.6421 30.4887 46.7538 30.4303C46.8772 30.3653 46.9589 30.2752 46.9956 30.1651L47.0006 30.1485L46.8672 24.5148C46.8739 24.338 46.8072 24.2129 46.6637 24.1395L46.6437 24.1295L46.6204 24.1279C46.4536 24.1195 46.2835 24.1145 46.1117 24.1129C45.9416 24.1112 45.7715 24.1145 45.603 24.1212L45.5947 24.1229C45.2695 24.1646 44.9993 24.2363 44.7858 24.338C44.5624 24.4431 44.3973 24.5815 44.2905 24.7516L44.469 24.8633V24.86Z" fill="black"/>
<path fill-rule="evenodd" clip-rule="evenodd" d="M35.1028 38.1738C35.1028 38.1738 36.6555 38.1455 39.7609 38.0904C40.0727 38.0804 40.2345 38.1972 40.2478 38.4373C40.2478 38.4373 40.6147 38.4223 41.3502 38.3923C41.7638 38.409 41.9623 38.0004 41.9489 37.1665C37.3843 37.2416 35.1028 37.2782 35.1028 37.2782C35.1028 37.2782 32.8147 37.2416 28.25 37.1665C28.2367 38.0004 28.4351 38.409 28.8487 38.3923C29.5842 38.4223 29.9511 38.4373 29.9511 38.4373C29.9645 38.1972 30.1262 38.0804 30.4381 38.0904C33.5435 38.1471 35.1012 38.1738 35.1012 38.1738H35.1028Z" fill="#E8E9E9"/>
<path fill-rule="evenodd" clip-rule="evenodd" d="M35.1028 40.2814C35.1028 40.2814 36.6555 40.253 39.7609 40.198C40.0727 40.1896 40.2345 40.3047 40.2478 40.5449C40.2478 40.5449 40.6147 40.5299 41.3502 40.4998C41.7638 40.5165 41.9623 40.1079 41.9489 39.274C37.3843 39.3491 35.1028 39.3858 35.1028 39.3858C35.1028 39.3858 32.8147 39.3491 28.25 39.274C28.2367 40.1079 28.4351 40.5165 28.8487 40.4998C29.5842 40.5299 29.9511 40.5449 29.9511 40.5449C29.9645 40.3047 30.1262 40.188 30.4381 40.198C33.5435 40.2547 35.1012 40.2814 35.1012 40.2814H35.1028Z" fill="#E8E9E9"/>
<path fill-rule="evenodd" clip-rule="evenodd" d="M35.1029 36.5007C34.7093 36.4974 34.3107 36.484 33.9171 36.459C33.5418 36.1438 33.2983 35.7602 33.1899 35.3116C33.3751 34.7362 33.6836 34.2642 34.1139 33.894C34.1139 33.894 34.4474 33.8923 35.1029 33.8873C35.7583 33.8923 36.0868 33.894 36.0868 33.894C36.5171 34.2626 36.8256 34.7362 37.0108 35.3116C36.9007 35.7602 36.6589 36.1438 36.2836 36.459C35.89 36.484 35.4964 36.499 35.1029 36.5007Z" fill="#353043"/>
<path fill-rule="evenodd" clip-rule="evenodd" d="M28 42.8563C26.2438 42.9947 24.7729 43.1631 25.0831 41.0868C25.4216 41.1268 25.7602 41.1768 26.0954 41.2319C28.6421 41.5938 28.4236 42.9013 27.9983 42.8546L28 42.8563Z" fill="#FEFEFE"/>
<path fill-rule="evenodd" clip-rule="evenodd" d="M42.2027 42.8563C43.9588 42.9947 45.4298 43.1631 45.1196 41.0868C44.781 41.1268 44.4425 41.1768 44.1073 41.2319C41.5606 41.5938 41.7791 42.9013 42.2043 42.8546L42.2027 42.8563Z" fill="#FEFEFE"/>
<path fill-rule="evenodd" clip-rule="evenodd" d="M35.1511 35.1997C35.3229 35.1981 35.4964 35.1964 35.6682 35.1947C35.7315 35.1947 35.7966 35.1931 35.8599 35.1931C35.9217 35.1931 35.9817 35.1931 36.0451 35.1931C36.1318 35.1964 36.2319 35.1881 36.3036 35.2231C36.3419 35.2414 36.3553 35.2698 36.3636 35.3131C36.3636 35.3165 36.3636 35.3198 36.3653 35.3215C36.3636 35.3815 36.3252 35.4532 36.2986 35.5116C36.2585 35.5933 36.1918 35.6684 36.1218 35.7351C36.0034 35.8502 35.7716 35.9836 35.5264 36.0503C35.493 36.0586 35.453 36.0736 35.4163 36.082C35.388 36.0886 35.398 36.102 35.4163 36.1003C35.4564 36.097 35.4997 36.087 35.5347 36.0786C35.8199 36.0069 36.015 35.8935 36.1501 35.7834C36.2319 35.7184 36.3152 35.625 36.3703 35.5266C36.407 35.4599 36.4453 35.3532 36.4503 35.3148C36.457 35.2631 36.4637 35.2364 36.4603 35.1547C36.4537 35.0163 36.4103 34.9062 36.3286 34.7811C36.3236 34.7728 36.3152 34.7644 36.3086 34.7561C36.3069 34.7528 36.3036 34.7444 36.3069 34.7378L36.3086 34.7361C36.3152 34.7328 36.3269 34.7428 36.3319 34.7494C36.3986 34.8228 36.4353 34.8829 36.472 34.9596C36.5187 35.0596 36.5321 35.1313 36.5387 35.2197C36.5404 35.2364 36.5587 35.2448 36.5587 35.2164C36.5637 35.1213 36.5421 35.0229 36.5037 34.9346C36.4587 34.8328 36.4103 34.7761 36.3486 34.7011C36.3486 34.7011 36.3486 34.6994 36.3469 34.6994C36.2719 34.6227 36.1835 34.551 36.0934 34.4926C35.9533 34.4042 35.8116 34.3458 35.6581 34.3041C35.5948 34.2875 35.5297 34.2741 35.4647 34.2658C35.4447 34.2641 35.4213 34.2641 35.4013 34.2641C35.3863 34.2641 35.3713 34.2791 35.4013 34.2858C35.4413 34.2941 35.4814 34.3041 35.5214 34.3158C35.6732 34.3592 35.8216 34.4176 35.955 34.5026C36.0667 34.5727 36.1201 34.6093 36.2535 34.7744C36.2685 34.7978 36.3052 34.8528 36.3252 34.8979C36.3386 34.9296 36.3569 34.9779 36.3586 35.0146V35.0163C36.3553 35.053 36.3469 35.0763 36.3186 35.0947C36.2602 35.1297 36.2068 35.133 36.1251 35.1364C36.0684 35.1397 36.01 35.1397 35.9533 35.1414C35.8683 35.143 35.7849 35.1447 35.6998 35.1464C35.5181 35.1497 35.3329 35.1514 35.1511 35.153C35.1311 35.153 35.1128 35.153 35.0928 35.153C34.906 35.1547 34.7192 35.1547 34.5324 35.1564C34.4457 35.1564 34.364 35.1564 34.2789 35.1564C34.2222 35.1564 34.1638 35.1564 34.1071 35.1547C34.0254 35.153 33.972 35.1497 33.9137 35.1163C33.8853 35.0997 33.877 35.0763 33.872 35.0396V35.038C33.872 35.0013 33.8903 34.9512 33.9037 34.9212C33.922 34.8762 33.957 34.8195 33.972 34.7961C34.1005 34.6294 34.1555 34.5927 34.2639 34.5193C34.3957 34.4326 34.5441 34.3709 34.6942 34.3258C34.7342 34.3142 34.7742 34.3025 34.8143 34.2925C34.8443 34.2858 34.8293 34.2691 34.8143 34.2708C34.7943 34.2725 34.7726 34.2708 34.7526 34.2741C34.6858 34.2825 34.6208 34.2975 34.5591 34.3158C34.4057 34.3608 34.2639 34.4209 34.1271 34.5126C34.0371 34.571 33.9504 34.646 33.877 34.7227C33.877 34.7227 33.877 34.7244 33.8753 34.7244C33.8136 34.8011 33.7669 34.8578 33.7236 34.9612C33.6869 35.0496 33.6668 35.1497 33.6735 35.2448C33.6752 35.2731 33.6935 35.2631 33.6952 35.2481C33.7019 35.1597 33.7119 35.088 33.7586 34.9863C33.7936 34.9095 33.8286 34.8495 33.8937 34.7744C33.8987 34.7678 33.9103 34.7594 33.917 34.7611L33.9187 34.7628C33.922 34.7694 33.9187 34.7761 33.917 34.7811C33.912 34.7895 33.9037 34.7978 33.8987 34.8078C33.8203 34.9346 33.7786 35.0446 33.7736 35.1831C33.7719 35.2648 33.7803 35.2915 33.7869 35.3415C33.7919 35.3798 33.832 35.4866 33.872 35.5516C33.9287 35.6484 34.0154 35.7384 34.0971 35.8035C34.2339 35.9119 34.4323 36.0219 34.7192 36.087C34.7542 36.0953 34.7976 36.1053 34.8376 36.107C34.856 36.1087 34.866 36.0936 34.8376 36.0886C34.8009 36.0803 34.7609 36.067 34.7275 36.0586C34.4807 35.9969 34.2472 35.8668 34.1255 35.7534C34.0554 35.6867 33.9854 35.615 33.9454 35.5333C33.917 35.4766 33.8787 35.4049 33.8753 35.3448C33.8753 35.3432 33.8753 35.3398 33.8753 35.3365C33.882 35.2931 33.8953 35.2664 33.9337 35.2464C34.0037 35.2097 34.1055 35.2164 34.1922 35.2114C34.2539 35.2114 34.3139 35.2097 34.3773 35.2081C34.4407 35.2081 34.5057 35.2081 34.5691 35.2064C34.7459 35.2047 34.9227 35.2031 35.0994 35.2014C35.1195 35.2014 35.1395 35.2014 35.1578 35.2014L35.1511 35.1997ZM35.1495 35.1364C35.2712 35.1347 35.3946 35.1347 35.5147 35.1313C35.6014 35.1297 35.6898 35.128 35.7782 35.1247C35.8566 35.1213 35.935 35.118 36.0134 35.113C36.0884 35.108 36.1902 35.0947 36.2068 35.0813C36.2185 35.073 36.2152 35.0613 36.2035 35.053C36.1868 35.0396 36.1668 35.0296 36.1468 35.0213C36.1385 35.0179 36.1268 35.0196 36.1201 35.0263C36.1051 35.038 36.0968 35.0413 36.0784 35.048C36.005 35.068 35.9533 35.0763 35.8566 35.0847C35.7849 35.0913 35.7115 35.0963 35.6398 35.098C35.4764 35.1047 35.3763 35.1063 35.1495 35.1097C35.1295 35.1097 35.1095 35.1097 35.0878 35.1097C34.8543 35.1113 34.7542 35.1113 34.5891 35.108C34.5174 35.1063 34.444 35.103 34.3723 35.098C34.2756 35.0913 34.2222 35.0847 34.1505 35.0646C34.1322 35.0596 34.1238 35.0563 34.1088 35.0446C34.1021 35.0396 34.0888 35.038 34.0805 35.0396C34.0604 35.048 34.0404 35.058 34.0237 35.0713C34.0137 35.0796 34.0087 35.0913 34.0221 35.0997C34.0388 35.1113 34.1405 35.123 34.2155 35.1263C34.2956 35.1313 34.3723 35.133 34.4524 35.1347C34.5391 35.1364 34.6275 35.1364 34.7159 35.1364C34.8393 35.1364 34.9644 35.1347 35.0894 35.1347C35.1095 35.1347 35.1295 35.1347 35.1495 35.1347V35.1364ZM35.1461 35.0713C35.3963 35.068 35.6632 35.0696 35.9083 35.043C36.0317 35.0296 36.0667 34.9629 36.0718 34.9195C36.0868 34.7778 35.875 34.5927 35.7632 34.5343C35.6131 34.4542 35.4764 34.3909 35.2979 34.3442C35.2746 34.3375 35.2596 34.3125 35.2596 34.2908C35.2596 34.2725 35.2879 34.2491 35.3063 34.2458C35.3613 34.2324 35.4213 34.2341 35.4797 34.2424C35.5731 34.2558 35.6648 34.2725 35.7565 34.2991C35.8783 34.3342 36.0117 34.3959 36.1268 34.4676C36.2786 34.561 36.4086 34.6777 36.5037 34.8262C36.5704 34.9312 36.6221 35.068 36.6221 35.1831C36.6238 35.3265 36.5687 35.4666 36.4904 35.59C36.4153 35.7084 36.3119 35.8035 36.1968 35.8885C36.0934 35.9652 35.9767 36.0236 35.8566 36.072C35.7532 36.1137 35.6431 36.1387 35.5331 36.157C35.463 36.1687 35.3946 36.1737 35.3246 36.1637C35.3063 36.1604 35.2762 36.1403 35.2746 36.122C35.2729 36.102 35.2879 36.077 35.3063 36.0703C35.3646 36.052 35.463 36.0203 35.5331 35.9902C35.6231 35.9502 35.7149 35.9085 35.7966 35.8552C35.8783 35.8001 35.9567 35.7367 36.01 35.66C36.0401 35.6183 36.0701 35.56 36.0734 35.5166C36.0751 35.4899 36.0751 35.4566 36.0617 35.4349C36.0084 35.3482 35.8583 35.3532 35.7465 35.3482C35.6448 35.3432 35.5447 35.3448 35.443 35.3415C35.3396 35.3398 35.2195 35.3398 35.1161 35.3398C35.0127 35.3415 34.891 35.3432 34.7892 35.3482C34.6875 35.3515 34.5875 35.3532 34.4857 35.3598C34.374 35.3665 34.2239 35.3632 34.1722 35.4516C34.1588 35.4749 34.1588 35.5066 34.1605 35.5349C34.1638 35.5783 34.1955 35.635 34.2255 35.6767C34.2806 35.7534 34.3606 35.8151 34.4424 35.8685C34.5241 35.9219 34.6175 35.9619 34.7075 36.0003C34.7792 36.0303 34.8776 36.0603 34.936 36.077C34.956 36.082 34.971 36.107 34.9694 36.127C34.9677 36.1453 34.9377 36.167 34.9193 36.1704C34.8493 36.182 34.7809 36.1787 34.7109 36.1687C34.6008 36.152 34.4907 36.1287 34.3857 36.0886C34.2656 36.0436 34.1472 35.9869 34.0421 35.9119C33.927 35.8301 33.822 35.7351 33.7436 35.6183C33.6635 35.4966 33.6068 35.3565 33.6051 35.2131C33.6035 35.0963 33.6518 34.9596 33.7186 34.8528C33.8119 34.7027 33.9387 34.5827 34.0888 34.4876C34.2039 34.4142 34.3356 34.3508 34.4574 34.3125C34.5491 34.2841 34.6392 34.2658 34.7325 34.2508C34.7909 34.2424 34.8493 34.2374 34.906 34.2508C34.9243 34.2558 34.9527 34.2775 34.9527 34.2958C34.9527 34.3175 34.9377 34.3425 34.916 34.3492C34.7375 34.3992 34.6041 34.4642 34.454 34.5476C34.344 34.6093 34.1338 34.7978 34.1522 34.9396C34.1572 34.9829 34.1939 35.048 34.3173 35.0596C34.5658 35.083 34.8343 35.0763 35.0878 35.0746C35.1078 35.0746 35.1261 35.0746 35.1461 35.0746V35.0713Z" fill="#D3D5D5"/>
<path d="M13.5688 6.80147L13.6873 6.42957L13.7773 6.60301L13.5688 6.80147Z" fill="white"/>
<path d="M27.7014 8.15367C28.6036 9.89647 28.2917 11.9478 27.0659 13.3354C26.7891 13.6606 26.4572 13.9508 26.0803 14.1793C25.9636 14.261 25.8451 14.3294 25.7184 14.3944C25.4599 14.5278 25.2014 14.6346 24.9345 14.7113C23.7121 15.0849 22.4179 14.9264 21.3389 14.326C20.5684 13.9041 19.9079 13.247 19.476 12.4114C19.044 11.5759 18.8889 10.6586 18.9873 9.78473C19.1191 8.55894 19.7378 7.40985 20.7485 6.62768C20.9636 6.45423 21.2004 6.30247 21.459 6.16905C21.5857 6.104 21.7091 6.0473 21.8442 5.99727C22.2495 5.82215 22.6781 5.71875 23.1034 5.68039C24.9446 5.48026 26.7991 6.4092 27.7014 8.152V8.15367Z" fill="#999999"/>
<path d="M9.75803 23.8349L22.7732 17.0972L17.5531 7.01392L4.53796 13.7516L9.75803 23.8349Z" fill="white"/>
<path d="M4.53789 13.7521L9.75796 23.8353L8.29534 24.5925C5.50686 26.0368 2.08129 24.951 0.637018 22.1642C-0.0851198 20.7683 -0.171843 19.2156 0.268444 17.8297C0.708731 16.4455 1.6777 15.2314 3.07361 14.5092L4.53623 13.7521H4.53789Z" fill="black"/>
<path d="M19.3909 1.25867L28.5335 18.9185L27.2444 19.1737L13.5588 21.8688L8.33704 11.7855L18.437 2.16259L19.3909 1.25867Z" fill="white"/>
<path d="M20.5117 0.678624L29.6543 18.3385C29.9729 18.9539 29.7327 19.7144 29.1106 20.0362C28.4886 20.3581 27.7314 20.1163 27.4129 19.5009L18.2703 1.84105C17.9517 1.22398 18.1919 0.46682 18.8139 0.144943C19.436 -0.176933 20.1948 0.064891 20.5134 0.680292L20.5117 0.678624Z" fill="#1A1A1A"/>
<path d="M13.5588 21.8696L17.4613 29.4079C18.0017 30.4519 17.5897 31.7461 16.5457 32.2864L16.5407 32.2898C15.4867 32.8284 14.2025 32.4198 13.6622 31.3758L9.75964 23.8376L13.5588 21.8713V21.8696Z" fill="#B3B3B3"/>
<path d="M27.0643 13.3355L25.083 9.50802L27.6997 8.15381C28.602 9.89661 28.2901 11.9479 27.0643 13.3355Z" fill="#999999"/>
<path d="M9.75786 23.8359L13.5587 21.8696L10.947 16.8263L7.14783 18.7942L9.75786 23.8359Z" fill="#B3B3B3"/>
<path d="M9.75803 23.8354L8.29541 24.5926C5.50693 26.0369 2.08136 24.9512 0.637085 22.1644L7.14633 18.7938L9.75636 23.8354H9.75803Z" fill="black"/>
<path d="M27.2444 19.1736L13.5588 21.8687L10.9471 16.8254L22.8416 10.6681L27.2444 19.1736Z" fill="#B3B3B3"/>
<path d="M29.1106 20.0359C28.4886 20.3578 27.7314 20.1159 27.4129 19.5005L22.8416 10.6698L25.0847 9.50903L29.656 18.3398C29.9745 18.9552 29.7344 19.7157 29.1123 20.0376L29.1106 20.0359Z" fill="#1A1A1A"/>
<path d="M16.5456 32.2862L16.5406 32.2895L11.6558 22.8551L13.557 21.8711L17.4595 29.4093C17.9999 30.4534 17.588 31.7475 16.5439 32.2879L16.5456 32.2862Z" fill="#999999"/>
</svg>
