<svg width="30" height="30" viewBox="0 0 30 30" fill="none" xmlns="http://www.w3.org/2000/svg">
<path d="M15 30C23.2843 30 30 23.2843 30 15C30 6.71573 23.2843 0 15 0C6.71574 0 0 6.71573 0 15C0 23.2843 6.71574 30 15 30Z" fill="#940A0A"/>
<path fill-rule="evenodd" clip-rule="evenodd" d="M10.2465 6.3453L10.315 6.125L10.3688 6.2278L10.2465 6.3453Z" fill="white"/>
<path fill-rule="evenodd" clip-rule="evenodd" d="M18.5983 7.14324C19.1319 8.17621 18.9459 9.38541 18.2213 10.2079C18.0598 10.3988 17.859 10.5701 17.6387 10.7072C17.5702 10.7562 17.5017 10.7953 17.4233 10.8345C17.2716 10.9128 17.1149 10.9765 16.9583 11.0205C16.2337 11.2408 15.47 11.1478 14.8336 10.7953C14.3783 10.5457 13.9867 10.1589 13.7321 9.66445C13.4775 9.17 13.3845 8.6266 13.4433 8.11256C13.5216 7.38802 13.8887 6.70754 14.486 6.24736C14.6133 6.14455 14.7553 6.05643 14.907 5.9781C14.9805 5.93893 15.0539 5.90466 15.1322 5.87529C15.3721 5.77248 15.6267 5.70884 15.8763 5.68926C16.968 5.56687 18.0647 6.11518 18.5983 7.14324Z" fill="#999999"/>
<path d="M12.5919 6.46138L4.90161 10.4434L7.98771 16.4035L15.678 12.4215L12.5919 6.46138Z" fill="white"/>
<path fill-rule="evenodd" clip-rule="evenodd" d="M4.90542 10.4526L7.98962 16.4105L7.12311 16.856C5.4733 17.7079 3.45144 17.0665 2.59471 15.4216C2.1688 14.5943 2.11495 13.6788 2.37931 12.8613C2.63877 12.0437 3.21155 11.324 4.0389 10.8981L4.90542 10.4526Z" fill="black"/>
<path fill-rule="evenodd" clip-rule="evenodd" d="M13.6831 3.07031L19.0878 13.5077L18.329 13.6594L10.2367 15.2505L7.15247 9.29257L13.1202 3.60393L13.6831 3.07031Z" fill="white"/>
<path fill-rule="evenodd" clip-rule="evenodd" d="M14.349 2.72729L19.7537 13.1646C19.9397 13.5269 19.7977 13.9773 19.4306 14.1682C19.0634 14.3591 18.613 14.2172 18.427 13.85L13.0223 3.41267C12.8314 3.05039 12.9782 2.60001 13.3454 2.40908C13.7126 2.21815 14.158 2.36012 14.349 2.72729Z" fill="#1A1A1A"/>
<path fill-rule="evenodd" clip-rule="evenodd" d="M10.2367 15.25L12.5425 19.705C12.8607 20.3218 12.6208 21.0855 12.004 21.4086H11.9991C11.3774 21.7268 10.6185 21.4869 10.2954 20.8701L7.98962 16.4151L10.2367 15.25Z" fill="#B3B3B3"/>
<path fill-rule="evenodd" clip-rule="evenodd" d="M18.2213 10.2077L17.0513 7.94594L18.5983 7.14307C19.1319 8.17603 18.9458 9.38523 18.2213 10.2077Z" fill="#999999"/>
<path d="M8.70151 12.2813L6.45374 13.4448L7.99532 16.423L10.2431 15.2595L8.70151 12.2813Z" fill="#B3B3B3"/>
<path fill-rule="evenodd" clip-rule="evenodd" d="M7.99453 16.415L7.128 16.8605C5.4782 17.7123 3.45633 17.071 2.59961 15.4261L6.44753 13.4336L7.99453 16.415Z" fill="black"/>
<path fill-rule="evenodd" clip-rule="evenodd" d="M18.329 13.6591L10.2367 15.2501L8.69458 12.2736L15.7246 8.63135L18.329 13.6591Z" fill="#B3B3B3"/>
<path fill-rule="evenodd" clip-rule="evenodd" d="M19.4306 14.1681C19.0634 14.359 18.613 14.217 18.427 13.8498L15.7246 8.63118L17.0513 7.9458L19.7537 13.1645C19.9397 13.5267 19.7977 13.9771 19.4306 14.1681Z" fill="#1A1A1A"/>
<path fill-rule="evenodd" clip-rule="evenodd" d="M12.004 21.4086L9.1156 15.8326L10.2416 15.25L12.5474 19.705C12.8656 20.3267 12.6208 21.0904 12.004 21.4086Z" fill="#999999"/>
<path fill-rule="evenodd" clip-rule="evenodd" d="M21.5258 29.2167C25.0261 29.2167 27.8803 26.3626 27.8803 22.8623C27.8803 19.3619 25.0261 16.5078 21.5258 16.5078C18.0255 16.5078 15.1714 19.3619 15.1714 22.8623C15.1714 26.3626 18.0255 29.2167 21.5258 29.2167Z" fill="black"/>
<path d="M25.6625 20.3511H17.5848V21.1491H25.6625V20.3511Z" fill="white"/>
<path d="M25.6625 21.8193H17.5848V22.6173H25.6625V21.8193Z" fill="white"/>
<path d="M25.6625 23.293H17.5848V24.0909H25.6625V23.293Z" fill="white"/>
<path d="M21.6237 24.7617H17.5848V25.5597H21.6237V24.7617Z" fill="white"/>
</svg>
