<svg width="48" height="48" viewBox="0 0 48 48" fill="none" xmlns="http://www.w3.org/2000/svg">
<path d="M23.9888 47.9775C37.2374 47.9775 47.9775 37.2374 47.9775 23.9888C47.9775 10.7401 37.2374 0 23.9888 0C10.7401 0 0 10.7401 0 23.9888C0 37.2374 10.7401 47.9775 23.9888 47.9775Z" fill="#99B8D1"/>
<path fill-rule="evenodd" clip-rule="evenodd" d="M6.01685 8.10111V34.0058V39.8882C10.409 44.8517 16.8292 47.989 23.9888 47.989C31.1372 47.989 37.5686 44.8517 41.9608 39.8882V34.0058V8.10111V2.70056H6.01685V8.10111Z" fill="#E6E6E6"/>
<path fill-rule="evenodd" clip-rule="evenodd" d="M33.8601 7.70923H24.2018H23.776H14.1178V21.7372H23.776H24.2018H33.8601V7.70923Z" fill="#FB0000"/>
<path fill-rule="evenodd" clip-rule="evenodd" d="M15.0478 15.8997C15.003 15.1826 15.0926 13.7933 15.3167 11.7205C15.5072 11.7205 15.5968 11.7205 15.5968 11.7205C15.3952 14.7008 15.3055 16.191 15.3055 16.191L15.0478 15.8997Z" fill="#404040"/>
<path fill-rule="evenodd" clip-rule="evenodd" d="M30.6219 32.3481V28.0232V27.6983C30.6555 27.6983 30.6779 27.6983 30.7116 27.6983C31.3502 27.6983 31.9889 27.6871 32.6387 27.6759C33.0757 27.3397 33.3558 26.7683 33.4791 25.984H33.5463C33.5911 26.0512 33.6359 26.0961 33.6807 26.1185V32.3369H30.6331L30.6219 32.3481ZM17.3558 27.6983V28.0232V32.3481H14.3082V26.1297C14.3642 26.0961 14.4091 26.0512 14.4427 25.9952H14.5099C14.6332 26.7795 14.9133 27.3397 15.3502 27.6871C15.9889 27.6983 16.6276 27.6983 17.2774 27.7095C17.311 27.7095 17.3334 27.7095 17.367 27.7095L17.3558 27.6983Z" fill="#404040"/>
<path fill-rule="evenodd" clip-rule="evenodd" d="M23.9441 29.5805C22.2186 29.5805 20.4931 29.5357 18.7676 29.4461C18.0953 29.1996 17.5799 28.673 17.3558 28.0119V27.687C19.5631 27.6982 21.7816 27.6982 23.9889 27.6646C26.1962 27.6982 28.4146 27.6982 30.6219 27.687V28.0119C30.3978 28.673 29.8824 29.1996 29.2102 29.4461C27.4511 29.5357 25.692 29.5805 23.9329 29.5805H23.9441Z" fill="#292827"/>
<path fill-rule="evenodd" clip-rule="evenodd" d="M28.5156 25.6026C25.5128 25.569 22.4763 25.569 19.4736 25.6026C19.3503 25.5914 19.0702 26.0844 18.622 27.0928C19.0478 26.611 19.3839 26.3757 19.6416 26.3869C22.5436 26.3645 25.4455 26.3645 28.3475 26.3869C28.6052 26.3757 28.9413 26.6222 29.3671 27.0928C28.9189 26.0956 28.6388 25.5914 28.5156 25.6026ZM33.4119 24.2693C33.4903 24.4709 33.5352 24.7847 33.5352 25.2216C33.5352 25.4569 33.5127 25.681 33.4903 25.8939C33.4903 25.9275 33.4791 25.9611 33.4791 25.9947C33.3559 26.7791 33.0758 27.3393 32.6388 27.6866C32.0001 27.6978 31.3615 27.6978 30.7116 27.709C30.678 27.709 30.6556 27.709 30.622 27.709C28.4147 27.7202 26.1962 27.7202 23.989 27.6866C21.7817 27.7202 19.5632 27.7202 17.3559 27.709C17.3223 27.709 17.2999 27.709 17.2663 27.709C16.6276 27.709 15.989 27.6978 15.3391 27.6866C14.9021 27.3505 14.622 26.7791 14.4988 25.9947C14.4988 25.9611 14.4876 25.9275 14.4876 25.8939C14.4652 25.681 14.4427 25.4569 14.4427 25.2216C14.4427 24.7847 14.4876 24.4709 14.566 24.2693C14.6332 24.09 14.7341 24.0116 14.8685 24.0116C15.8993 24.202 16.8629 24.3477 17.7593 24.4597C18.9581 24.6054 20.045 24.6838 21.0086 24.6838C22.6556 24.6838 23.6304 24.6838 23.9329 24.6838C23.9329 24.6838 24.9413 24.6838 26.9469 24.6838C27.9105 24.6726 28.9973 24.6054 30.1962 24.4597C31.0926 24.3477 32.0562 24.202 33.087 24.0116C33.2214 24.0004 33.3223 24.09 33.3895 24.2693H33.4119ZM30.6332 26.3309C31.9105 26.2637 32.5492 26.23 32.5492 26.23C32.6388 26.174 32.7172 26.0956 32.7845 25.9947C32.8405 25.9051 32.8965 25.8043 32.9301 25.681C33.2662 24.8519 33.1206 24.4933 32.4931 24.6054C31.2046 24.7398 30.4539 24.8743 30.241 25.0312C30.0394 25.1432 29.9049 25.3449 29.8825 25.569C30.2186 26.0844 30.3979 26.3421 30.3979 26.3421C30.4875 26.3421 30.566 26.3309 30.6444 26.3309H30.6332ZM15.2159 25.9947C15.2831 26.0956 15.3615 26.174 15.4512 26.23C15.4512 26.23 16.0898 26.2637 17.3671 26.3309C17.4455 26.3309 17.5352 26.3421 17.6136 26.3421C17.6136 26.3421 17.7817 26.0844 18.129 25.569C18.1066 25.3449 17.9722 25.1432 17.7705 25.0312C17.5464 24.8743 16.7957 24.7286 15.5184 24.6054C14.8909 24.5046 14.7453 24.8631 15.0814 25.681C15.1262 25.8043 15.171 25.9051 15.2271 25.9947H15.2159Z" fill="#404040"/>
<path fill-rule="evenodd" clip-rule="evenodd" d="M30.622 26.3311C30.5436 26.3311 30.4539 26.3423 30.3755 26.3423C30.3755 26.3423 30.2074 26.0846 29.8601 25.5692C29.8825 25.3451 30.017 25.1434 30.2186 25.0314C30.4427 24.8745 31.1934 24.7288 32.4707 24.6056C33.0982 24.5048 33.2439 24.8633 32.9077 25.6812C32.8629 25.8045 32.8181 25.9053 32.7621 25.9949C32.6948 26.0958 32.6164 26.1742 32.5268 26.2302C32.5268 26.2302 31.8881 26.2639 30.6108 26.3311H30.622Z" fill="#FEFEFE"/>
<path fill-rule="evenodd" clip-rule="evenodd" d="M15.216 25.9838C15.1599 25.8942 15.1151 25.7933 15.0703 25.6701C14.7342 24.841 14.8798 24.4824 15.5073 24.5945C16.7958 24.7289 17.5465 24.8634 17.7594 25.0202C17.961 25.1323 18.0955 25.334 18.1179 25.5581C17.7818 26.0735 17.6025 26.3312 17.6025 26.3312C17.5129 26.3312 17.4344 26.32 17.356 26.32C16.0787 26.2527 15.44 26.2191 15.44 26.2191C15.3504 26.1631 15.272 26.0847 15.2047 25.9838H15.216Z" fill="#FEFEFE"/>
<path fill-rule="evenodd" clip-rule="evenodd" d="M18.6219 27.093C19.0701 26.0958 19.3502 25.5916 19.4735 25.6028C22.4763 25.5692 25.5127 25.5692 28.5155 25.6028C28.6387 25.5916 28.9188 26.0846 29.367 27.093C28.9413 26.6112 28.6051 26.376 28.3474 26.3872C25.4455 26.3647 22.5435 26.3647 19.6416 26.3872C19.3839 26.376 19.0477 26.6225 18.6219 27.093Z" fill="#6D6E6E"/>
<path fill-rule="evenodd" clip-rule="evenodd" d="M22.8685 22.6446C22.5772 22.4317 22.3531 22.1404 22.2074 21.8155C19.9665 21.793 18.8461 21.7818 18.8461 21.7818C18.8461 22.0395 18.8797 22.3197 18.9245 22.5998L22.8573 22.6446H22.8685ZM17.0646 21.737C16.9749 21.3785 16.8629 20.9863 16.7509 20.5494C18.0058 20.7062 19.9105 20.7734 22.4427 20.7286C23.2494 19.8099 24.7396 19.8099 25.5464 20.7286C28.0786 20.7734 29.9833 20.7174 31.2382 20.5494C31.1262 20.9751 31.0253 21.3785 30.9245 21.737C30.4539 23.5522 30.2074 24.4597 30.2074 24.4597C29.0085 24.6054 27.9217 24.6838 26.9581 24.6838C25.3111 24.6838 24.3363 24.6838 24.0338 24.6838C24.0338 24.6838 23.0254 24.6838 21.0198 24.6838C20.0562 24.6726 18.9693 24.6054 17.7705 24.4597C17.7705 24.4597 17.5352 23.5522 17.0534 21.737H17.0646ZM28.7844 23.4737C26.9581 23.4849 25.3559 23.4849 24.0001 23.4737C22.6332 23.4849 21.0422 23.4849 19.2158 23.4737C19.171 23.6418 19.1934 23.8771 19.2943 24.1796C20.8965 24.2244 22.4651 24.2468 24.0113 24.2356C25.5576 24.2468 27.1262 24.2244 28.7284 24.1796C28.8293 23.8771 28.8517 23.6418 28.8069 23.4737H28.7844ZM25.7817 21.8155C25.636 22.1404 25.4119 22.4317 25.1206 22.6446L29.0534 22.5998C29.1094 22.3197 29.1318 22.0395 29.1318 21.7818C29.1318 21.7818 28.0113 21.793 25.7704 21.8155H25.7817Z" fill="#6D6E6E"/>
<path fill-rule="evenodd" clip-rule="evenodd" d="M25.1206 22.6451C25.4119 22.4322 25.636 22.1409 25.7817 21.816C28.0226 21.7936 29.143 21.7823 29.143 21.7823C29.143 22.0401 29.1094 22.3202 29.0646 22.6003L25.1318 22.6451H25.1206Z" fill="#404040"/>
<path fill-rule="evenodd" clip-rule="evenodd" d="M22.2074 21.816C22.3531 22.1409 22.5772 22.4322 22.8685 22.6451L18.9357 22.6003C18.8797 22.3202 18.8573 22.0401 18.8573 21.7823C18.8573 21.7823 19.9777 21.7936 22.2186 21.816H22.2074Z" fill="#404040"/>
<path fill-rule="evenodd" clip-rule="evenodd" d="M19.2047 23.4739C21.031 23.4851 22.6333 23.4851 23.989 23.4739C25.3559 23.4851 26.947 23.4851 28.7733 23.4739C28.8181 23.6419 28.7957 23.8772 28.6949 24.1798C27.0926 24.2246 25.524 24.247 23.9778 24.2358C22.4316 24.247 20.863 24.2246 19.2607 24.1798C19.1599 23.8772 19.1375 23.6419 19.1823 23.4739H19.2047Z" fill="#404040"/>
<path fill-rule="evenodd" clip-rule="evenodd" d="M16.2018 22.634C16.5827 23.0821 16.762 23.4631 16.762 23.7768C15.776 23.788 15.1822 23.6648 14.9693 23.3959C14.846 22.9253 14.9357 22.5219 15.2382 22.1858C15.8881 22.4883 16.2018 22.634 16.2018 22.634Z" fill="#FEC900"/>
<path fill-rule="evenodd" clip-rule="evenodd" d="M31.2159 23.7768C31.2159 23.4631 31.3952 23.0822 31.7762 22.634C31.7762 22.634 32.1011 22.4883 32.7397 22.1858C33.0423 22.5107 33.1319 22.9141 33.0087 23.3959C32.7958 23.6648 32.2019 23.7992 31.2159 23.7768Z" fill="#FEC900"/>
<path fill-rule="evenodd" clip-rule="evenodd" d="M30.9245 21.7373C31.0142 21.3788 31.1262 20.9866 31.2383 20.5497C29.9834 20.7065 28.0786 20.7737 25.5464 20.7289C24.7397 19.8102 23.2495 19.8102 22.4428 20.7289C19.9106 20.7737 18.0058 20.7177 16.7509 20.5497C16.8629 20.9754 16.9638 21.3788 17.0646 21.7373C17.5352 23.5525 17.7817 24.46 17.7817 24.46C16.8853 24.348 15.9218 24.2023 14.891 24.0118C14.7565 24.0006 14.6557 24.0903 14.5884 24.2695C14.4988 23.1603 14.4428 22.4992 14.398 22.3088C14.3868 22.2976 14.3755 22.2976 14.3531 22.2863C14.3307 22.0511 14.4652 21.827 14.6781 21.7373C14.7005 21.7261 14.7117 21.7261 14.7341 21.7149C14.6893 18.8354 14.7005 16.9418 14.7565 16.0231C14.8125 15.1827 14.8573 14.4544 14.9022 13.8158H15.1262C15.0478 14.7682 15.0254 15.4628 15.059 15.8998L15.3167 16.1911C15.3167 16.1911 15.4176 14.7009 15.608 11.7205C15.608 11.7205 15.5184 11.7205 15.3279 11.7205C15.2495 12.4488 15.1823 13.0875 15.1375 13.6477H14.9134C15.003 12.4824 15.0702 11.6757 15.1262 11.2275C15.3055 10.5889 15.6641 10.2191 16.2131 10.1295C21.2775 9.98385 26.7229 9.98385 31.7761 10.1295C32.3251 10.2191 32.6836 10.5777 32.8629 11.2275C32.9189 11.6757 32.9862 12.4712 33.0758 13.6477H32.8517C32.8069 13.0875 32.7397 12.4488 32.6612 11.7205C32.4708 11.7205 32.3811 11.7205 32.3811 11.7205C32.5828 14.7009 32.6724 16.1911 32.6724 16.1911L32.9301 15.8998C32.9525 15.4628 32.9301 14.7682 32.8629 13.8158H33.087C33.1318 14.4544 33.1766 15.1827 33.2327 16.0231C33.2887 16.9418 33.2999 18.8354 33.2551 21.7149C33.2775 21.7261 33.2887 21.7261 33.3111 21.7373C33.524 21.827 33.6584 22.0511 33.636 22.2863C33.6248 22.2976 33.6136 22.2976 33.5912 22.3088C33.5576 22.4992 33.4904 23.1491 33.4007 24.2695C33.3335 24.0903 33.2327 24.0118 33.0982 24.0118C32.0674 24.2023 31.1038 24.348 30.2075 24.46C30.2075 24.46 30.4427 23.5525 30.9245 21.7373ZM16.7733 23.7765C16.7733 23.4628 16.594 23.0819 16.2131 22.6337C16.2131 22.6337 15.8881 22.488 15.2495 22.1855C14.947 22.5104 14.8573 22.9138 14.9806 23.3956C15.1935 23.6645 15.7873 23.799 16.7733 23.7765ZM31.7761 22.6337C31.3951 23.0819 31.2159 23.4628 31.2159 23.7765C32.2018 23.7877 32.7957 23.6645 33.0086 23.3956C33.1318 22.925 33.0422 22.5216 32.7397 22.1855C32.0898 22.488 31.7761 22.6337 31.7761 22.6337ZM15.7761 17.2892C15.7537 17.9278 22.7005 17.8942 23.989 17.939C25.2775 17.8942 32.2243 17.939 32.2018 17.2892C32.2018 17.2892 32.101 15.4516 31.8881 11.7878C31.9217 11.3396 31.7313 11.1155 31.3279 11.1267C26.8013 11.1043 24.3587 11.0931 23.989 11.1155C23.6192 11.0931 21.1655 11.0931 16.6501 11.1267C16.2467 11.1155 16.0674 11.3284 16.0898 11.7878C15.8769 15.4516 15.7761 17.2892 15.7761 17.2892Z" fill="#ED595B"/>
<path fill-rule="evenodd" clip-rule="evenodd" d="M33.4119 24.2693C33.5015 23.1601 33.5575 22.499 33.6023 22.3085C33.6135 22.2973 33.6248 22.2973 33.6472 22.2861C33.9833 22.1069 34.1514 22.2973 34.1626 22.8576C34.2074 24.8968 34.1514 25.9836 33.9833 26.1405C33.8713 26.1741 33.7704 26.1741 33.692 26.1181C33.636 26.0845 33.5911 26.0396 33.5575 25.9836C33.5351 25.95 33.5239 25.9276 33.5127 25.8828C33.5351 25.6699 33.5575 25.4458 33.5575 25.2105C33.5575 24.7735 33.5127 24.4598 33.4343 24.2581L33.4119 24.2693Z" fill="#292827"/>
<path fill-rule="evenodd" clip-rule="evenodd" d="M14.3866 22.3088C14.4203 22.4993 14.4875 23.1492 14.5771 24.2696C14.4987 24.4713 14.4539 24.785 14.4539 25.222C14.4539 25.4573 14.4763 25.6814 14.4987 25.8942C14.4875 25.9279 14.4651 25.9615 14.4539 25.9951C14.4091 26.0623 14.3642 26.1071 14.3194 26.1295C14.241 26.1744 14.1402 26.1856 14.0281 26.1519C13.8712 25.9951 13.804 24.9083 13.8488 22.869C13.86 22.32 14.0281 22.1295 14.3642 22.2976C14.3754 22.3088 14.3866 22.3088 14.4091 22.32L14.3866 22.3088Z" fill="#292827"/>
<path d="M34.1404 13.6478H32.7734V13.8159H34.1404V13.6478Z" fill="#292827"/>
<path fill-rule="evenodd" clip-rule="evenodd" d="M34.6555 12.3814C34.1065 12.3366 33.8152 12.3926 33.7816 12.5383L33.7031 14.6559C33.7704 14.9808 33.9496 15.1377 34.2297 15.1041C34.8124 15.1377 35.1037 14.992 35.1037 14.6895C35.1373 13.3898 35.1597 12.7399 35.1597 12.7399C35.0365 12.4822 34.8684 12.3702 34.6555 12.3926V12.3814Z" fill="#292827"/>
<path fill-rule="evenodd" clip-rule="evenodd" d="M13.3223 12.3814C13.8713 12.3366 14.1627 12.3926 14.1963 12.5383L14.2747 14.6559C14.2075 14.9808 14.0282 15.1377 13.7481 15.1041C13.1655 15.1377 12.8741 14.992 12.8741 14.6895C12.8405 13.3898 12.8181 12.7399 12.8181 12.7399C12.9414 12.4822 13.1094 12.3702 13.3223 12.3926V12.3814Z" fill="#6D7F99"/>
<path d="M15.2047 13.6478H13.8378V13.8159H15.2047V13.6478Z" fill="#292827"/>
<path fill-rule="evenodd" clip-rule="evenodd" d="M13.3223 12.3814C13.8713 12.3366 14.1627 12.3926 14.1963 12.5383L14.2747 14.6559C14.2075 14.9808 14.0282 15.1377 13.7481 15.1041C13.1655 15.1377 12.8741 14.992 12.8741 14.6895C12.8405 13.3898 12.8181 12.7399 12.8181 12.7399C12.9414 12.4822 13.1094 12.3702 13.3223 12.3926V12.3814Z" fill="#292827"/>
<path fill-rule="evenodd" clip-rule="evenodd" d="M32.6835 16.191C32.6835 16.191 32.5827 14.7008 32.3922 11.7205C32.3922 11.7205 32.4818 11.7205 32.6723 11.7205C32.7508 12.4487 32.818 13.0874 32.8628 13.6476H32.7844V13.8157H32.874C32.9524 14.7681 32.9748 15.4627 32.9412 15.8997L32.6835 16.191Z" fill="#353043"/>
<path fill-rule="evenodd" clip-rule="evenodd" d="M33.86 12.4375V10.1967H34.353V12.3591C34.1177 12.3591 33.9496 12.3815 33.86 12.4375Z" fill="#940A0A"/>
<path fill-rule="evenodd" clip-rule="evenodd" d="M33.8601 14.9807C33.9497 15.0815 34.073 15.1151 34.2298 15.0927C34.2746 15.0927 34.3083 15.0927 34.3419 15.0927V21.7258H33.8489V14.9695L33.8601 14.9807Z" fill="#940A0A"/>
<path fill-rule="evenodd" clip-rule="evenodd" d="M34.353 10.1966H33.86V9.3114H34.521V10.1966H34.353Z" fill="#940A0A"/>
<path fill-rule="evenodd" clip-rule="evenodd" d="M14.1179 9.3114V10.1966H13.6249H13.468V9.3114H14.1179Z" fill="#940A0A"/>
<path fill-rule="evenodd" clip-rule="evenodd" d="M13.7481 15.0932C13.905 15.1157 14.0282 15.0708 14.1179 14.9812V21.7375H13.6249V15.1044C13.6585 15.1044 13.7033 15.1044 13.7369 15.1044L13.7481 15.0932Z" fill="#940A0A"/>
<path fill-rule="evenodd" clip-rule="evenodd" d="M14.1179 12.4375C14.0282 12.3815 13.8714 12.3591 13.6249 12.3591V10.1967H14.1179V12.4375Z" fill="#940A0A"/>
<path fill-rule="evenodd" clip-rule="evenodd" d="M15.7761 17.2888C15.7761 17.2888 15.8769 15.4512 16.0898 11.7874C16.0562 11.3392 16.2466 11.1151 16.65 11.1263C21.1766 11.1039 23.6192 11.0927 23.9889 11.1151C24.3587 11.0927 26.8124 11.0927 31.3278 11.1263C31.7312 11.1151 31.9105 11.328 31.8881 11.7874C32.101 15.4512 32.2018 17.2888 32.2018 17.2888C32.2242 17.9274 25.2774 17.8938 23.9889 17.9386C22.7004 17.8938 15.7536 17.9386 15.7761 17.2888Z" fill="#353043"/>
<path fill-rule="evenodd" clip-rule="evenodd" d="M23.9104 21.4121C23.7423 21.4121 23.5743 21.4121 23.4062 21.4121C23.339 21.4121 23.2829 21.4121 23.2157 21.4121C23.1597 21.4121 23.0925 21.4121 23.0364 21.4121C22.958 21.4121 22.8572 21.4121 22.7899 21.4457C22.7563 21.4681 22.7339 21.4906 22.7339 21.5354V21.5466C22.7339 21.6026 22.7675 21.6698 22.8012 21.7259C22.8348 21.8043 22.902 21.8715 22.9692 21.9387C23.0813 22.0508 23.3054 22.174 23.5406 22.2413C23.5743 22.2525 23.6079 22.2637 23.6415 22.2749C23.6639 22.2861 23.6639 22.2973 23.6415 22.2973C23.6079 22.2973 23.5631 22.2861 23.5294 22.2749C23.2493 22.2076 23.0701 22.0956 22.9356 21.9948C22.8572 21.9275 22.7787 21.8379 22.7227 21.7483C22.6891 21.681 22.6555 21.5802 22.6443 21.5466C22.6331 21.5018 22.6331 21.4682 22.6331 21.3897C22.6443 21.2553 22.6779 21.1544 22.7563 21.0312C22.7563 21.02 22.7675 21.02 22.7787 21.0088C22.7787 21.0088 22.7787 20.9976 22.7787 20.9864C22.7675 20.9864 22.7563 20.9976 22.7563 20.9976C22.6891 21.0648 22.6555 21.132 22.6219 21.1992C22.5771 21.3001 22.5659 21.3673 22.5547 21.4457C22.5547 21.4569 22.5322 21.4681 22.5322 21.4457C22.5322 21.3561 22.5434 21.2553 22.5883 21.1768C22.6331 21.076 22.6779 21.02 22.7339 20.9527C22.8012 20.8743 22.8908 20.8071 22.9804 20.7511C23.1149 20.6614 23.2493 20.6054 23.4062 20.5718C23.4622 20.5606 23.5294 20.5382 23.5967 20.5382C23.6191 20.5382 23.6415 20.5382 23.6527 20.5382C23.6639 20.5382 23.6863 20.5494 23.6527 20.5606C23.6191 20.5718 23.5743 20.583 23.5406 20.5942C23.395 20.639 23.2493 20.695 23.1261 20.7735C23.014 20.8407 22.9692 20.8743 22.8348 21.0312C22.8236 21.0536 22.7899 21.1096 22.7675 21.1544C22.7563 21.188 22.7339 21.2329 22.7339 21.2665C22.7339 21.3001 22.7451 21.3225 22.7675 21.3449C22.8236 21.3785 22.8796 21.3785 22.958 21.3897C23.014 21.3897 23.0701 21.3897 23.1261 21.3897C23.2045 21.3897 23.2829 21.3897 23.3726 21.3897C23.5519 21.3897 23.7311 21.3897 23.8992 21.4009C23.9216 21.4009 23.9328 21.4009 23.9552 21.4009C24.1345 21.4009 24.3138 21.4009 24.493 21.4009C24.5715 21.4009 24.6611 21.4009 24.7395 21.4009C24.7955 21.4009 24.8516 21.4009 24.9076 21.4009C24.986 21.4009 25.042 21.4009 25.0981 21.3673C25.1205 21.3561 25.1317 21.3225 25.1429 21.2889C25.1429 21.2553 25.1205 21.2104 25.1093 21.1768C25.0869 21.132 25.0532 21.076 25.042 21.0536C24.9188 20.8967 24.8628 20.8519 24.7619 20.7847C24.6387 20.695 24.493 20.639 24.3474 20.5942C24.3138 20.583 24.2689 20.5718 24.2353 20.5606C24.2017 20.5494 24.2241 20.5382 24.2353 20.5382C24.2577 20.5382 24.2801 20.5382 24.2913 20.5382C24.3586 20.5494 24.4146 20.5606 24.4818 20.583C24.6275 20.6278 24.7619 20.6838 24.8964 20.7735C24.986 20.8295 25.0645 20.8967 25.1429 20.9752C25.1989 21.0536 25.2437 21.1096 25.2885 21.1992C25.3222 21.2889 25.3446 21.3785 25.3334 21.4682C25.3334 21.4906 25.3109 21.4906 25.3109 21.4682C25.2997 21.3785 25.2997 21.3113 25.2549 21.2104C25.2213 21.132 25.1877 21.076 25.1205 21.0088C25.1205 20.9976 25.1093 20.9976 25.0981 20.9976C25.0981 21.0088 25.0981 21.0088 25.0981 21.02C25.0981 21.0312 25.1093 21.0312 25.1205 21.0424C25.1989 21.1656 25.2325 21.2665 25.2437 21.4009C25.2437 21.4794 25.2325 21.5018 25.2325 21.5578C25.2325 21.5914 25.1877 21.7034 25.1541 21.7595C25.0981 21.8491 25.0196 21.9387 24.9412 22.006C24.8067 22.1068 24.6163 22.2188 24.3362 22.2861C24.3025 22.2973 24.2577 22.3085 24.2241 22.3085C24.2017 22.3085 24.2017 22.2973 24.2241 22.2861C24.2577 22.2749 24.3025 22.2637 24.3362 22.2525C24.5715 22.1964 24.7955 22.062 24.9188 21.9611C24.986 21.8939 25.0532 21.8267 25.0981 21.7483C25.1205 21.6922 25.1653 21.625 25.1653 21.569C25.1653 21.569 25.1653 21.569 25.1653 21.5578C25.1541 21.513 25.1429 21.4906 25.1093 21.4682C25.042 21.4345 24.9412 21.4345 24.8628 21.4345C24.8067 21.4345 24.7395 21.4345 24.6835 21.4345C24.6163 21.4345 24.5603 21.4345 24.493 21.4345C24.325 21.4345 24.1569 21.4345 23.9776 21.4345C23.9552 21.4345 23.944 21.4345 23.9216 21.4345L23.9104 21.4121ZM23.9104 21.3561C23.7871 21.3561 23.6751 21.3561 23.5631 21.3561C23.4734 21.3561 23.395 21.3561 23.3054 21.3449C23.2269 21.3449 23.1485 21.3337 23.0813 21.3337C23.014 21.3337 22.9132 21.3113 22.8908 21.3001C22.8796 21.2889 22.8796 21.2777 22.8908 21.2777C22.902 21.2665 22.9244 21.2553 22.9468 21.2441C22.958 21.2441 22.9692 21.2441 22.9692 21.2441C22.9804 21.2553 22.9916 21.2553 23.014 21.2665C23.0813 21.2889 23.1373 21.2889 23.2269 21.3001C23.2941 21.3113 23.3614 21.3113 23.4398 21.3113C23.5967 21.3225 23.6975 21.3225 23.9104 21.3225C23.9328 21.3225 23.9552 21.3225 23.9664 21.3225C24.1905 21.3225 24.2913 21.3225 24.4482 21.3225C24.5154 21.3225 24.5827 21.3225 24.6611 21.3113C24.7507 21.3001 24.8068 21.3001 24.874 21.2777C24.8964 21.2777 24.8964 21.2665 24.9188 21.2553C24.93 21.2553 24.9412 21.2441 24.9412 21.2553C24.9636 21.2665 24.9748 21.2777 24.9972 21.2889C25.0084 21.3001 25.0084 21.3113 24.9972 21.3113C24.986 21.3225 24.8852 21.3337 24.8067 21.3337C24.7283 21.3337 24.6499 21.3449 24.5827 21.3449C24.493 21.3449 24.4146 21.3449 24.325 21.3449C24.2017 21.3449 24.0897 21.3449 23.9664 21.3449C23.944 21.3449 23.9328 21.3449 23.9104 21.3449V21.3561ZM23.9104 21.2889C23.6639 21.2889 23.4062 21.2889 23.1709 21.2553C23.0477 21.2441 23.014 21.1768 23.014 21.132C23.0028 20.9976 23.2045 20.8183 23.3166 20.7623C23.4622 20.6838 23.5967 20.6278 23.7647 20.583C23.7871 20.5718 23.7983 20.5494 23.7983 20.527C23.7983 20.5046 23.7759 20.4822 23.7535 20.4822C23.6975 20.471 23.6415 20.471 23.5855 20.4822C23.4958 20.4934 23.4062 20.5158 23.3166 20.5382C23.2045 20.5718 23.0701 20.6278 22.958 20.7062C22.8124 20.7959 22.6891 20.9079 22.5995 21.0536C22.5322 21.1544 22.4874 21.2889 22.4874 21.4009C22.4874 21.5354 22.5434 21.681 22.6107 21.7931C22.6779 21.9051 22.7787 21.9948 22.8908 22.0844C22.9916 22.1628 23.1037 22.2189 23.2157 22.2637C23.3166 22.3085 23.4174 22.3309 23.5294 22.3421C23.5967 22.3533 23.6639 22.3533 23.7311 22.3533C23.7535 22.3533 23.7759 22.3309 23.7759 22.3085C23.7759 22.2861 23.7647 22.2637 23.7423 22.2637C23.6863 22.2413 23.5855 22.2188 23.5182 22.1852C23.4286 22.1516 23.339 22.1068 23.2605 22.0508C23.1821 21.9948 23.1037 21.9387 23.0589 21.8603C23.0252 21.8155 23.0028 21.7595 23.0028 21.7259C23.0028 21.7034 23.0028 21.6698 23.014 21.6474C23.0701 21.5578 23.2157 21.569 23.3166 21.569C23.4174 21.569 23.507 21.569 23.6079 21.5578C23.7087 21.5578 23.8208 21.5578 23.9216 21.5578C24.0224 21.5578 24.1345 21.5578 24.2353 21.569C24.3362 21.569 24.4258 21.569 24.5266 21.5802C24.6387 21.5914 24.7843 21.5802 24.8292 21.6698C24.8404 21.6922 24.8404 21.7259 24.8404 21.7483C24.8404 21.7931 24.8068 21.8491 24.7731 21.8827C24.7171 21.9611 24.6387 22.0172 24.5603 22.062C24.4818 22.118 24.3922 22.1516 24.3025 22.1852C24.2353 22.2188 24.1345 22.2413 24.0785 22.2637C24.0561 22.2637 24.0448 22.2973 24.0448 22.3085C24.0448 22.3309 24.0785 22.3421 24.0897 22.3533C24.1569 22.3645 24.2241 22.3645 24.2913 22.3533C24.4034 22.3421 24.5042 22.3197 24.6051 22.2749C24.7171 22.2301 24.8404 22.174 24.9412 22.1068C25.0532 22.0284 25.1541 21.9387 25.2325 21.8267C25.311 21.7146 25.367 21.569 25.367 21.4345C25.367 21.3225 25.3222 21.188 25.2549 21.0872C25.1653 20.9415 25.042 20.8295 24.8964 20.7287C24.7843 20.6614 24.6611 20.5942 24.5378 20.5606C24.4482 20.5382 24.3586 20.5158 24.2689 20.5046C24.2129 20.4934 24.1569 20.4934 24.1009 20.5046C24.0785 20.5046 24.0561 20.527 24.0561 20.5494C24.0561 20.5718 24.0673 20.5942 24.0897 20.6054C24.2577 20.6502 24.3922 20.7175 24.5378 20.7959C24.6499 20.8519 24.8516 21.0424 24.8292 21.1768C24.8292 21.2217 24.7843 21.2777 24.6723 21.2889C24.437 21.3113 24.1681 21.3001 23.9328 21.3001C23.9104 21.3001 23.8992 21.3001 23.8768 21.3001L23.9104 21.2889Z" fill="#D3D5D5"/>
<path d="M38.6441 34.7672H9.38928V36.5599H38.6441V34.7672Z" fill="#B3B3B3"/>
<path d="M38.6441 38.2073H9.38928V40H38.6441V38.2073Z" fill="#B3B3B3"/>
<path d="M37.8263 48.0003C43.4388 48.0003 47.9887 43.4504 47.9887 37.8379C47.9887 32.2253 43.4388 27.6754 37.8263 27.6754C32.2137 27.6754 27.6638 32.2253 27.6638 37.8379C27.6638 43.4504 32.2137 48.0003 37.8263 48.0003Z" fill="black"/>
<path d="M42.8235 38.8911L41.591 39.1151C41.535 39.2832 41.4677 39.4401 41.3893 39.5969L42.1064 40.6277C42.2184 40.7846 42.196 41.0087 42.0504 41.1544L41.1316 42.0731C40.9972 42.2188 40.7619 42.23 40.605 42.1179L39.563 41.4009C39.4061 41.4793 39.2493 41.5465 39.0812 41.6025L38.8571 42.835C38.8235 43.0255 38.6554 43.1712 38.4537 43.1712H37.154C36.9523 43.1712 36.7843 43.0255 36.7507 42.835L36.5266 41.6025C36.3585 41.5465 36.2016 41.4793 36.0336 41.4009L35.0028 42.1179C34.8459 42.23 34.6218 42.2076 34.4762 42.0731L33.5686 41.1544C33.4229 41.0087 33.4005 40.7846 33.5126 40.6277L34.2297 39.5969C34.1512 39.4401 34.084 39.2832 34.028 39.1151L32.7955 38.8911C32.5938 38.8574 32.4594 38.6782 32.4594 38.4765V37.188C32.4594 36.9863 32.5938 36.8182 32.7955 36.7846L34.028 36.5605C34.084 36.3925 34.1512 36.2356 34.2297 36.0787L33.5126 35.0479C33.4005 34.8911 33.4229 34.667 33.5686 34.5213L34.4762 33.6026C34.6218 33.4569 34.8571 33.4457 35.0028 33.5577L36.0336 34.2748C36.2016 34.1964 36.3473 34.1292 36.5266 34.0731L36.7507 32.8406C36.7843 32.6502 36.9523 32.5045 37.154 32.5045H38.4537C38.6554 32.5045 38.8235 32.6502 38.8571 32.8406L39.0812 34.0731C39.2493 34.1292 39.4061 34.1964 39.563 34.2748L40.605 33.5577C40.7619 33.4457 40.9859 33.4681 41.1316 33.6026L42.0504 34.5213C42.1848 34.667 42.2184 34.8911 42.1064 35.0479L41.3893 36.0787C41.4677 36.2356 41.535 36.3925 41.591 36.5605L42.8235 36.7846C43.014 36.8182 43.1596 36.9863 43.1596 37.188V38.4765C43.1596 38.6782 43.014 38.8462 42.8235 38.8911Z" fill="white"/>
<path d="M40.4369 37.8378C40.4369 36.3924 39.2604 35.2272 37.8262 35.2272C36.3808 35.2272 35.2156 36.3924 35.2156 37.8378C35.2156 39.2832 36.3808 40.4485 37.8262 40.4485C39.2716 40.4485 40.4369 39.272 40.4369 37.8378Z" fill="black"/>
</svg>
