<svg width="30" height="30" viewBox="0 0 30 30" fill="none" xmlns="http://www.w3.org/2000/svg">
<g opacity="0.8">
<path d="M15 30C23.2843 30 30 23.2843 30 15C30 6.71573 23.2843 0 15 0C6.71572 0 0 6.71573 0 15C0 23.2843 6.71572 30 15 30Z" fill="#940A0A"/>
<path fill-rule="evenodd" clip-rule="evenodd" d="M10.2466 6.3453L10.3151 6.125L10.369 6.2278L10.2466 6.3453Z" fill="white"/>
<path fill-rule="evenodd" clip-rule="evenodd" d="M18.5983 7.14276C19.1319 8.17572 18.9459 9.38492 18.2213 10.2074C18.0598 10.3983 17.8591 10.5696 17.6388 10.7067C17.5702 10.7557 17.5017 10.7948 17.4233 10.834C17.2716 10.9123 17.1149 10.976 16.9583 11.02C16.2337 11.2403 15.47 11.1473 14.8336 10.7948C14.3783 10.5452 13.9867 10.1584 13.7321 9.66397C13.4775 9.16951 13.3845 8.62611 13.4433 8.11207C13.5216 7.38753 13.8888 6.70705 14.486 6.24687C14.6133 6.14406 14.7553 6.05594 14.907 5.97761C14.9805 5.93845 15.0539 5.90417 15.1322 5.8748C15.3721 5.77199 15.6267 5.70836 15.8763 5.68877C16.9681 5.56638 18.0647 6.11469 18.5983 7.14276Z" fill="#999999"/>
<path d="M12.5903 6.45942L4.90002 10.4414L7.98612 16.4015L15.6764 12.4195L12.5903 6.45942Z" fill="white"/>
<path fill-rule="evenodd" clip-rule="evenodd" d="M4.90542 10.4521L7.98962 16.41L7.12311 16.8555C5.4733 17.7074 3.45144 17.066 2.59471 15.4211C2.1688 14.5938 2.11495 13.6783 2.37931 12.8608C2.63877 12.0432 3.21156 11.3236 4.03891 10.8976L4.90542 10.4521Z" fill="black"/>
<path fill-rule="evenodd" clip-rule="evenodd" d="M13.6831 3.07031L19.0878 13.5077L18.329 13.6594L10.2367 15.2505L7.15247 9.29257L13.1202 3.60393L13.6831 3.07031Z" fill="white"/>
<path fill-rule="evenodd" clip-rule="evenodd" d="M14.349 2.72729L19.7537 13.1646C19.9397 13.5269 19.7977 13.9773 19.4306 14.1682C19.0634 14.3591 18.613 14.2172 18.427 13.85L13.0223 3.41267C12.8314 3.05039 12.9782 2.60001 13.3454 2.40908C13.7125 2.21815 14.1581 2.36012 14.349 2.72729Z" fill="#1A1A1A"/>
<path fill-rule="evenodd" clip-rule="evenodd" d="M10.2367 15.25L12.5425 19.705C12.8607 20.3218 12.6208 21.0855 12.004 21.4086H11.9991C11.3774 21.7268 10.6186 21.4869 10.2954 20.8701L7.98962 16.4151L10.2367 15.25Z" fill="#B3B3B3"/>
<path fill-rule="evenodd" clip-rule="evenodd" d="M18.2213 10.2072L17.0513 7.94545L18.5983 7.14258C19.1319 8.17554 18.9459 9.38474 18.2213 10.2072Z" fill="#999999"/>
<path d="M8.70324 12.2828L6.45544 13.4463L7.99703 16.4245L10.2448 15.261L8.70324 12.2828Z" fill="#B3B3B3"/>
<path fill-rule="evenodd" clip-rule="evenodd" d="M7.99451 16.415L7.128 16.8605C5.4782 17.7123 3.45633 17.071 2.59961 15.4261L6.44751 13.4336L7.99451 16.415Z" fill="black"/>
<path fill-rule="evenodd" clip-rule="evenodd" d="M18.3291 13.6596L10.2367 15.2506L8.69458 12.2741L15.7246 8.63184L18.3291 13.6596Z" fill="#B3B3B3"/>
<path fill-rule="evenodd" clip-rule="evenodd" d="M19.4306 14.1685C19.0634 14.3595 18.613 14.2175 18.427 13.8503L15.7246 8.63166L17.0513 7.94629L19.7537 13.165C19.9397 13.5272 19.7977 13.9776 19.4306 14.1685Z" fill="#1A1A1A"/>
<path fill-rule="evenodd" clip-rule="evenodd" d="M12.004 21.4086L9.1156 15.8326L10.2416 15.25L12.5474 19.705C12.8656 20.3267 12.6208 21.0904 12.004 21.4086Z" fill="#999999"/>
<path fill-rule="evenodd" clip-rule="evenodd" d="M21.5258 29.2167C25.0262 29.2167 27.8803 26.3626 27.8803 22.8623C27.8803 19.3619 25.0262 16.5078 21.5258 16.5078C18.0255 16.5078 15.1714 19.3619 15.1714 22.8623C15.1714 26.3626 18.0255 29.2167 21.5258 29.2167Z" fill="black"/>
<path fill-rule="evenodd" clip-rule="evenodd" d="M21.5551 25.7504C23.4448 25.7504 24.9869 24.4531 24.9869 22.862C24.9869 21.271 23.4448 19.9736 21.5551 19.9736C19.6654 19.9736 18.1233 21.271 18.1233 22.862C18.1233 24.4531 19.6654 25.7504 21.5551 25.7504Z" fill="white"/>
<path fill-rule="evenodd" clip-rule="evenodd" d="M18.0646 25.7508L18.7989 24.4779L19.5332 23.2051L20.2676 24.4779L21.0019 25.7508H19.5332H18.0646Z" fill="white"/>
</g>
</svg>
