<svg width="48" height="48" viewBox="0 0 48 48" fill="none" xmlns="http://www.w3.org/2000/svg">
<path d="M24 48C37.2548 48 48 37.2548 48 24C48 10.7452 37.2548 0 24 0C10.7452 0 0 10.7452 0 24C0 37.2548 10.7452 48 24 48Z" fill="#99B8D1"/>
<path d="M11.9521 41.8122H39.1668V4.75269H11.9521V41.8122Z" fill="black"/>
<path d="M36.6575 7.26123V37.6863L30.0281 44.3207H9.44287V7.26123H36.6575Z" fill="white"/>
<path d="M30.0281 44.3212V37.6868H36.6575L30.0281 44.3212Z" fill="#B3B3B3"/>
<path d="M33.2426 15.9128H12.9448C12.5045 15.9128 12.144 15.5532 12.144 15.1063V11.2736C12.144 10.8334 12.5045 10.4729 12.9448 10.4729H33.2426C33.6837 10.4729 34.0442 10.8326 34.0442 11.2736V15.1063C34.0442 15.5532 33.6845 15.9128 33.2426 15.9128Z" fill="#FF0000"/>
<path d="M12.1448 23.6319H25.8298V21.9814H12.1448V23.6319Z" fill="black"/>
<path d="M15.4236 35.5758H17.0791V15.9126H15.4236V35.5758Z" fill="#B3B3B3"/>
<path d="M29.1094 30.1408H30.7649V15.9126H29.1094V30.1408Z" fill="#B3B3B3"/>
<path d="M12.1448 25.5237H20.3583V20.0896H12.1448V25.5237Z" fill="#B3B3B3"/>
<path d="M19.2942 35.5769H13.2088C12.6224 35.5769 12.1448 35.1035 12.1448 34.5129V31.2069C12.1448 30.6213 12.6232 30.1428 13.2088 30.1428H19.2942C19.8798 30.1428 20.3583 30.6221 20.3583 31.2069V34.5129C20.3583 35.1035 19.879 35.5769 19.2942 35.5769Z" fill="#B3B3B3"/>
<path d="M32.9794 35.5769H26.894C26.3026 35.5769 25.83 35.1035 25.83 34.5129V31.2069C25.83 30.6213 26.3026 30.1428 26.894 30.1428H32.9794C33.565 30.1428 34.0434 30.6221 34.0434 31.2069V34.5129C34.0434 35.1035 33.565 35.5769 32.9794 35.5769Z" fill="black"/>
<path d="M32.9794 25.5236H26.894C26.3026 25.5236 25.83 25.0452 25.83 24.4604V21.1544C25.83 20.568 26.3026 20.0903 26.894 20.0903H32.9794C33.565 20.0903 34.0434 20.5688 34.0434 21.1544V24.4604C34.0434 25.046 33.565 25.5236 32.9794 25.5236Z" fill="#B3B3B3"/>
<path d="M13.9076 12.3276H28.1524V11.6074H13.9076V12.3276Z" fill="#EDF3F3"/>
<path d="M13.9076 13.6115H28.1524V12.8914H13.9076V13.6115Z" fill="#EDF3F3"/>
<path d="M13.3054 21.8842H19.1964V21.1641H13.3054V21.8842Z" fill="#243239"/>
<path d="M13.3054 23.1647H19.1964V22.4495H13.3054V23.1647Z" fill="#243239"/>
<path d="M13.3054 24.4484H19.1964V23.7283H13.3054V24.4484Z" fill="#243239"/>
<path d="M27.1797 21.8842H33.0765V21.1641H27.1797V21.8842Z" fill="#243239"/>
<path d="M27.1797 23.1647H33.0765V22.4495H27.1797V23.1647Z" fill="#243239"/>
<path d="M27.1797 24.4484H33.0765V23.7283H27.1797V24.4484Z" fill="#243239"/>
<path d="M13.3054 31.9367H19.1964V31.2166H13.3054V31.9367Z" fill="#243239"/>
<path d="M13.3054 33.2214H19.1964V32.5012H13.3054V33.2214Z" fill="#243239"/>
<path d="M13.3054 34.501H19.1964V33.7866H13.3054V34.501Z" fill="#243239"/>
<path d="M27.1797 31.9367H33.0765V31.2166H27.1797V31.9367Z" fill="#EDF3F3"/>
<path d="M27.1797 33.2214H33.0765V32.5012H27.1797V33.2214Z" fill="#EDF3F3"/>
<path d="M27.1797 34.501H33.0765V33.7866H27.1797V34.501Z" fill="#EDF3F3"/>
</svg>
