<svg width="49" height="48" viewBox="0 0 49 48" fill="none" xmlns="http://www.w3.org/2000/svg">
<path d="M24 48C37.2548 48 48 37.2548 48 24C48 10.7452 37.2548 0 24 0C10.7452 0 0 10.7452 0 24C0 37.2548 10.7452 48 24 48Z" fill="#99B8D1"/>
<path d="M33.8752 12.3746C32.3554 12.3746 31.1165 13.6063 31.1165 15.1405V41.5391C31.1165 43.0589 29.8848 44.2906 28.3578 44.2906H5.47424V15.1405C5.47424 13.6135 6.71314 12.3746 8.23295 12.3746H33.8752Z" fill="white"/>
<path d="M28.1778 44.2833V44.2905H5.29423C4.53072 44.2905 3.84645 43.9879 3.34225 43.4837C2.83804 42.9867 2.53552 42.2953 2.53552 41.5317V40.2424H25.5919V41.5317C25.5919 42.2953 25.8945 42.9795 26.3987 43.4837C26.8597 43.9519 27.4863 44.2472 28.1778 44.2833Z" fill="#B3B3B3"/>
<path d="M37.8368 23.1861C43.4538 23.1861 48.0073 18.6327 48.0073 13.0157C48.0073 7.39869 43.4538 2.84521 37.8368 2.84521C32.2199 2.84521 27.6664 7.39869 27.6664 13.0157C27.6664 18.6327 32.2199 23.1861 37.8368 23.1861Z" fill="black"/>
<path d="M9.85358 15.5297V18.0939H9.18372V15.5297H9.85358Z" fill="#292827"/>
<path d="M12.7277 15.5297V18.0939H11.9858L11.1934 16.7109L10.999 16.3292H10.9918L11.0062 16.8046V18.0939H10.4155V15.5297H11.1574L11.9569 16.9198L12.1514 17.3016L12.137 16.8262V15.5297H12.7277Z" fill="#292827"/>
<path d="M15.6447 15.5297L14.7371 18.0939H13.952L13.0372 15.5297H13.7431L14.2113 17.0855L14.3482 17.5897L14.485 17.0927L14.9676 15.5297H15.6447Z" fill="#292827"/>
<path d="M17.035 15.493C17.2943 15.493 17.5176 15.5435 17.7049 15.6515C17.8922 15.7595 18.0362 15.9108 18.1371 16.1053C18.2379 16.2998 18.2883 16.5375 18.2883 16.8184C18.2883 17.0993 18.2379 17.3298 18.1371 17.5315C18.0362 17.7259 17.8922 17.8772 17.7049 17.9852C17.5176 18.0933 17.2943 18.1437 17.035 18.1437C16.7757 18.1437 16.5524 18.0933 16.3652 17.9852C16.1779 17.8772 16.0338 17.7259 15.933 17.5315C15.8322 17.337 15.7817 17.0993 15.7817 16.8184C15.7817 16.5447 15.8322 16.307 15.933 16.1053C16.0338 15.9108 16.1779 15.7595 16.3652 15.6515C16.5524 15.5435 16.7757 15.493 17.035 15.493ZM17.035 16.0189C16.9126 16.0189 16.8045 16.0477 16.7181 16.1053C16.6317 16.1629 16.5669 16.2565 16.5236 16.3718C16.4804 16.487 16.4588 16.6383 16.4588 16.8112C16.4588 16.984 16.4804 17.1281 16.5236 17.2505C16.5669 17.373 16.6317 17.4594 16.7181 17.517C16.8045 17.5747 16.9054 17.6035 17.035 17.6035C17.1575 17.6035 17.2655 17.5747 17.3448 17.517C17.4312 17.4594 17.496 17.3658 17.5392 17.2505C17.5825 17.1281 17.6041 16.984 17.6041 16.8112C17.6041 16.6383 17.5825 16.487 17.5392 16.3718C17.496 16.2565 17.4312 16.1629 17.3448 16.1053C17.2583 16.0477 17.1575 16.0189 17.035 16.0189Z" fill="#292827"/>
<path d="M19.4119 15.5297V18.0939H18.7421V15.5297H19.4119Z" fill="#292827"/>
<path d="M22.257 17.3591C22.2065 17.5392 22.1273 17.6832 22.0193 17.7985C21.9112 17.9137 21.7816 18.0001 21.6303 18.0506C21.479 18.101 21.3134 18.1298 21.1333 18.1298C20.874 18.1298 20.6507 18.0794 20.4634 17.9713C20.2762 17.8633 20.1321 17.712 20.0313 17.5175C19.9304 17.3231 19.88 17.0854 19.88 16.8045C19.88 16.5307 19.9304 16.2931 20.0313 16.0914C20.1321 15.8969 20.2762 15.7456 20.4634 15.6376C20.6507 15.5295 20.874 15.4791 21.1333 15.4791C21.3134 15.4791 21.479 15.5007 21.6303 15.5584C21.7816 15.6088 21.904 15.688 22.0121 15.7889C22.1129 15.8897 22.1921 16.0265 22.2353 16.1922L21.6519 16.4299C21.6159 16.2714 21.5583 16.1562 21.4718 16.0986C21.3926 16.041 21.2846 16.0121 21.1621 16.0121C21.0397 16.0121 20.9316 16.041 20.8452 16.0986C20.7588 16.1562 20.6867 16.2498 20.6363 16.3651C20.5859 16.4803 20.5643 16.6316 20.5643 16.8045C20.5643 16.9773 20.5859 17.1214 20.6291 17.2438C20.6723 17.3663 20.7371 17.4527 20.8308 17.5103C20.9172 17.568 21.0325 17.5968 21.1621 17.5968C21.2846 17.5968 21.3926 17.5608 21.479 17.4959C21.5655 17.4239 21.6231 17.3231 21.6591 17.179L22.2642 17.3519L22.257 17.3591Z" fill="#292827"/>
<path d="M22.6243 18.0939V15.5297H24.6267V16.0483H23.2941V16.5669H24.353V17.0567H23.2941V17.5825H24.6771V18.0939H22.6243Z" fill="#292827"/>
<path d="M40.2139 17.7121V12.3675H42.7133L37.8369 6.43237L32.9606 12.3675H35.46V17.7121H40.2139Z" fill="white"/>
<path d="M23.8921 23.971H9.96173C9.6592 23.971 9.41431 23.7261 9.41431 23.4163V20.7873C9.41431 20.4848 9.6592 20.2399 9.96173 20.2399H23.8921C24.1946 20.2399 24.4395 20.4848 24.4395 20.7873V23.4163C24.4395 23.7261 24.1946 23.971 23.8921 23.971Z" fill="#FF0000"/>
<path d="M9.41418 29.2654H18.8067V28.1345H9.41418V29.2654Z" fill="black"/>
<path d="M11.6616 37.4618H12.7997V23.9708H11.6616V37.4618Z" fill="#B3B3B3"/>
<path d="M21.054 33.7307H22.192V23.9708H21.054V33.7307Z" fill="#B3B3B3"/>
<path d="M9.41418 30.5618H15.054V26.8379H9.41418V30.5618Z" fill="#B3B3B3"/>
<path d="M14.3193 37.4616H10.1417C9.73831 37.4616 9.41418 37.1374 9.41418 36.7341V34.4652C9.41418 34.0618 9.74552 33.7377 10.1417 33.7377H14.3193C14.7227 33.7377 15.0468 34.069 15.0468 34.4652V36.7341C15.0468 37.1374 14.7155 37.4616 14.3193 37.4616Z" fill="#B3B3B3"/>
<path d="M23.7118 37.4616H19.5341C19.1308 37.4616 18.8066 37.1374 18.8066 36.7341V34.4652C18.8066 34.0618 19.1308 33.7377 19.5341 33.7377H23.7118C24.1152 33.7377 24.4393 34.069 24.4393 34.4652V36.7341C24.4393 37.1374 24.108 37.4616 23.7118 37.4616Z" fill="black"/>
<path d="M23.7118 30.5618H19.5341C19.1308 30.5618 18.8066 30.2304 18.8066 29.8343V27.5654C18.8066 27.162 19.1308 26.8379 19.5341 26.8379H23.7118C24.1152 26.8379 24.4393 27.1692 24.4393 27.5654V29.8343C24.4393 30.2377 24.108 30.5618 23.7118 30.5618Z" fill="#B3B3B3"/>
<path d="M10.6243 21.5076H20.3986V21.0106H10.6243V21.5076Z" fill="#EDF3F3"/>
<path d="M10.6243 22.3868H20.3986V21.897H10.6243V22.3868Z" fill="#EDF3F3"/>
<path d="M10.2137 28.0689H14.2546V27.5719H10.2137V28.0689Z" fill="#243239"/>
<path d="M10.2137 28.9408H14.2546V28.451H10.2137V28.9408Z" fill="#243239"/>
<path d="M10.2137 29.8271H14.2546V29.3301H10.2137V29.8271Z" fill="#243239"/>
<path d="M19.7286 28.0689H23.7767V27.5719H19.7286V28.0689Z" fill="#243239"/>
<path d="M19.7286 28.9408H23.7767V28.451H19.7286V28.9408Z" fill="#243239"/>
<path d="M19.7286 29.8271H23.7767V29.3301H19.7286V29.8271Z" fill="#243239"/>
<path d="M10.2137 34.9622H14.2546V34.4724H10.2137V34.9622Z" fill="#243239"/>
<path d="M10.2137 35.8484H14.2546V35.3514H10.2137V35.8484Z" fill="#243239"/>
<path d="M10.2137 36.7269H14.2546V36.2371H10.2137V36.7269Z" fill="#243239"/>
<path d="M19.7286 34.9622H23.7767V34.4724H19.7286V34.9622Z" fill="#EDF3F3"/>
<path d="M19.7286 35.8484H23.7767V35.3514H19.7286V35.8484Z" fill="#EDF3F3"/>
<path d="M19.7286 36.7269H23.7767V36.2371H19.7286V36.7269Z" fill="#EDF3F3"/>
</svg>
