<svg width="200" height="48" viewBox="0 0 200 48" fill="none" xmlns="http://www.w3.org/2000/svg">
<path d="M88.3528 15.6587V31.3669H84.2592V15.6587H88.3528ZM78.2617 15.6587V31.3669H74.168V15.6587H78.2617ZM86.449 21.8706V25.0359H76.1672V21.8706H86.449Z" fill="white"/>
<path d="M98.6348 31.3666V15.6587H110.868V18.824H102.728V22.0132H109.202V24.9882H102.728V28.2012H111.178V31.3666H98.6348Z" fill="white"/>
<path d="M118.294 31.3669L123.815 15.6587H128.718L134.216 31.3669H130.003L126.933 21.2757L126.243 18.8005H126.195L125.553 21.2518L122.411 31.3669H118.293H118.294ZM121.888 27.8207V25.0363H130.622V27.8207H121.888Z" fill="white"/>
<path d="M149.829 15.6587C151.701 15.6587 153.157 16.0989 154.196 16.9795C155.236 17.8602 155.755 19.0302 155.755 20.4902C155.755 22.0927 155.239 23.3144 154.208 24.1553C153.176 24.9962 151.725 25.4168 149.852 25.4168L149.471 25.6309H146.353V31.3669H142.331V15.6587H149.828H149.829ZM149.258 22.7274C150.051 22.7274 150.646 22.5687 151.042 22.2515C151.439 21.9343 151.637 21.4265 151.637 20.7281C151.637 20.046 151.439 19.5459 151.042 19.2287C150.646 18.9115 150.051 18.7527 149.258 18.7527H146.354V22.7274H149.258ZM151.662 23.5842L156.683 31.3669H152.161L148.139 24.4887L151.662 23.5842H151.662Z" fill="white"/>
<path d="M178.341 15.6587V18.824H173.224V31.3666H169.131V18.824H163.99V15.6587H178.341Z" fill="white"/>
<path d="M193.217 15.4203C194.676 15.4203 195.966 15.6463 197.084 16.0984C198.203 16.5505 199.175 17.213 200 18.0857L198.024 20.7277C197.342 20.0138 196.608 19.4781 195.823 19.1212C195.037 18.7642 194.145 18.5856 193.145 18.5856C192.558 18.5856 192.082 18.6489 191.717 18.7758C191.352 18.9027 191.09 19.0771 190.932 19.2995C190.773 19.5216 190.694 19.7754 190.694 20.0612C190.694 20.3943 190.849 20.676 191.158 20.906C191.467 21.136 191.971 21.3306 192.669 21.489L195.311 22.084C196.882 22.4489 198.032 22.9805 198.762 23.6785C199.492 24.3766 199.857 25.3049 199.857 26.4634C199.857 27.574 199.571 28.514 199 29.2836C198.429 30.0532 197.643 30.6323 196.644 31.0211C195.644 31.4098 194.502 31.6041 193.217 31.6041C192.169 31.6041 191.17 31.4891 190.218 31.259C189.266 31.029 188.409 30.6999 187.647 30.2713C186.886 29.8428 186.243 29.3509 185.72 28.7957L187.695 26.0587C188.092 26.5187 188.58 26.9274 189.159 27.2843C189.738 27.6413 190.373 27.923 191.063 28.1292C191.753 28.3354 192.455 28.4388 193.169 28.4388C193.725 28.4388 194.189 28.3831 194.562 28.272C194.935 28.161 195.208 27.9943 195.383 27.7722C195.557 27.5502 195.645 27.2883 195.645 26.9867C195.645 26.6536 195.526 26.3719 195.288 26.1418C195.05 25.9118 194.597 25.7173 193.931 25.5588L191.027 24.9162C190.139 24.71 189.349 24.4362 188.659 24.0952C187.969 23.7541 187.426 23.2937 187.029 22.7147C186.632 22.1357 186.434 21.4098 186.434 20.5371C186.434 19.5534 186.704 18.6767 187.243 17.9071C187.783 17.1375 188.56 16.5306 189.575 16.0865C190.591 15.6423 191.805 15.4199 193.217 15.4199L193.217 15.4203Z" fill="white"/>
<path fill-rule="evenodd" clip-rule="evenodd" d="M6.02115 33.701C-0.66377 26.043 -1.98292 16.2557 3.07493 11.8405C6.1534 9.15318 10.8215 8.90924 15.5602 10.9864C18.6075 12.3221 21.7658 14.6761 24.3375 17.7118C30.8199 25.3642 32.1265 35.1514 27.2837 39.5723C22.441 43.9934 14.0614 41.7018 7.51531 35.2833C7.55674 35.2476 7.5985 35.2128 7.6396 35.1766C8.19676 34.6904 8.73072 34.1909 9.24115 33.6808C13.6434 36.4311 18.7059 37.3284 22.6322 33.9009C26.5582 30.4737 26.5065 23.7212 21.7532 18.2762C17 12.8312 9.53613 9.96688 5.11697 13.8246C0.697808 17.6823 0.968598 25.2236 5.72186 30.6686C6.30388 31.3352 6.92633 31.9394 7.57828 32.4796L6.02115 33.701ZM5.83853 36.3867C5.78019 36.3291 5.72219 36.2707 5.66419 36.2124C5.72219 36.2707 5.78019 36.3291 5.83853 36.3867ZM7.01781 34.4614C6.97704 34.4329 6.93661 34.4044 6.89617 34.3755C6.93661 34.4044 6.97704 34.4332 7.01781 34.4614ZM6.75265 34.2714C6.71189 34.2416 6.67145 34.2115 6.63101 34.1813C6.67145 34.2115 6.71222 34.2416 6.75265 34.2714ZM6.50805 34.0885C6.45932 34.0514 6.41126 34.0139 6.36287 33.9761C6.41126 34.0139 6.45966 34.0514 6.50805 34.0885ZM6.26443 33.8986C6.2114 33.8565 6.1587 33.814 6.106 33.771C6.1587 33.814 6.2114 33.8565 6.26443 33.8986Z" fill="#D3D5D5"/>
<path fill-rule="evenodd" clip-rule="evenodd" d="M24.6865 30.4666C28.1902 22.8802 21.7854 15.364 15.8541 11.1182C18.9048 12.5192 21.9431 14.833 24.5188 17.9247C31.0257 25.7346 32.1192 35.5497 26.9605 39.8475C22.1755 43.8345 13.6928 41.6721 7.29688 35.1052C6.79541 34.6591 6.34729 34.1652 5.95188 33.6233C2.52805 29.812 0.64643 25.1519 0.239746 21.1729C1.34744 26.3786 4.1044 30.0377 7.40063 32.2829C7.40825 32.2896 7.4162 32.2965 7.42449 32.3038C7.94618 32.747 8.49075 33.1599 9.05852 33.5424C14.1953 36.3193 22.203 36.6786 24.6868 30.467L24.6865 30.4666ZM7.29688 35.1049C7.28362 35.1161 7.25711 35.1383 7.29721 35.1049H7.29688Z" fill="#E8E9E9"/>
<path fill-rule="evenodd" clip-rule="evenodd" d="M51.0737 35.4466C41.0949 46.6329 27.0164 50.358 19.6279 43.7672C18.8334 43.0582 18.1489 42.2588 17.5722 41.3828C19.8135 41.9456 21.8273 41.997 23.6142 41.5372C30.1688 45.8855 40.1059 43.8239 46.692 36.4409C47.5611 35.4668 48.3307 34.4456 49.0012 33.3923L51.0737 35.4466ZM15.3844 35.2961C14.4218 28.1959 17.5659 19.1494 24.3185 11.5795C34.2973 0.393263 48.3761 -3.33185 55.7644 3.25894C62.618 9.37278 61.3058 22.215 53.1151 32.9707C53.0555 32.9167 52.9965 32.862 52.9361 32.8083C52.1224 32.0824 51.2938 31.3927 50.4539 30.7391C53.671 23.7933 54.0544 16.2211 48.3198 11.1052C42.5848 5.98939 31.7919 8.33768 25.6191 15.2576C19.4462 22.1772 17.5119 29.2018 18.9693 35.1924C17.8371 35.4628 16.6104 35.4947 15.4029 35.4138L15.3847 35.2958L15.3844 35.2961ZM52.9646 33.1669C52.8907 33.2627 52.8162 33.3585 52.7412 33.454C52.8162 33.3585 52.8907 33.2627 52.9646 33.1669ZM49.9309 31.7947C49.8968 31.8594 49.862 31.924 49.8272 31.9886C49.862 31.924 49.8968 31.8594 49.9309 31.7947ZM49.7016 32.2177C49.6654 32.2826 49.629 32.3476 49.5922 32.4122C49.629 32.3476 49.6654 32.2826 49.7016 32.2177ZM49.4788 32.6094C49.4334 32.6873 49.3877 32.7649 49.3413 32.8424C49.3877 32.7649 49.4334 32.6873 49.4788 32.6094ZM49.2458 33.0009C49.1941 33.086 49.1414 33.1709 49.0881 33.2561C49.1414 33.1712 49.1941 33.086 49.2458 33.0009Z" fill="#D3D5D5"/>
<path fill-rule="evenodd" clip-rule="evenodd" d="M42.5753 8.61129C30.7494 5.14735 21.1769 16.1212 16.2715 25.6943C17.6526 20.9404 20.3682 16.0068 24.3183 11.5787C34.2971 0.392433 48.3756 -3.33301 55.7639 3.25811C62.6175 9.37195 61.3053 22.2141 53.1156 32.9689C52.5737 33.7968 51.9506 34.5582 51.2459 35.2525C46.43 41.0737 40.0414 44.83 34.3263 46.2867C41.6788 43.541 46.4174 38.7258 48.9765 33.4303C48.9848 33.4173 48.9928 33.4047 49.0017 33.3911C49.535 32.534 50.0189 31.6501 50.4535 30.7389C53.3887 22.6437 52.174 10.886 42.5747 8.61162L42.5753 8.61129ZM53.1156 32.9682C53.1352 32.9855 53.173 33.0189 53.1156 32.9679V32.9682Z" fill="#E8E9E9"/>
</svg>
