<svg width="161" height="177" viewBox="0 0 161 177" fill="none" xmlns="http://www.w3.org/2000/svg">
<path fill-rule="evenodd" clip-rule="evenodd" d="M16.02 89.6519C-1.76488 69.2836 -5.27597 43.2397 8.17988 31.4994C16.3691 24.3476 28.7876 23.6992 41.3956 29.2252C50.4117 33.3816 58.3885 39.4945 64.7463 47.1198C81.9926 67.4781 85.4637 93.5121 72.5864 105.272C59.7091 117.032 37.4057 110.938 19.95 93.8612L20.2792 93.5819C21.7654 92.2852 23.1818 90.9585 24.5483 89.592C36.2586 96.9134 49.7244 99.2974 60.1679 90.1805C70.6114 81.0637 70.5117 63.1092 57.8538 48.616C45.1959 34.1228 25.3663 26.5121 13.6161 36.7761C1.86591 47.04 2.57411 67.0991 15.222 81.5923C16.7526 83.3294 18.4204 84.9405 20.2094 86.4101L16.02 89.6519ZM19.6707 93.552L19.2119 93.0832L19.6707 93.552ZM22.8127 88.425L22.4936 88.1956L22.8127 88.425ZM22.1045 87.9263L21.7854 87.6869L22.1045 87.9263ZM21.4562 87.4375L21.0672 87.1382L21.4562 87.4375ZM20.8078 86.9288L20.3889 86.5896L20.8078 86.9288Z" fill="url(#paint0_linear)"/>
<path fill-rule="evenodd" clip-rule="evenodd" d="M65.6741 81.0536C75.0004 60.8449 57.9537 40.8955 42.1738 29.5742C51.1006 33.8365 58.9729 40.0226 65.2253 47.6882C82.5413 68.4655 85.4439 94.5693 71.7288 106.01C58.9911 116.613 36.4283 110.858 19.4115 93.3923C18.0806 92.1922 16.8803 90.8548 15.8306 89.4024C6.72372 79.308 1.71643 66.9095 0.63916 56.3263C3.58169 70.1712 10.9729 79.9065 19.6908 85.8813L19.7507 85.9412C21.139 87.1171 22.5909 88.216 24.0996 89.2328C37.7649 96.6241 59.0709 97.5717 65.6741 81.0536Z" fill="url(#paint1_linear)"/>
<path fill-rule="evenodd" clip-rule="evenodd" d="M135.876 94.3001C109.323 124.055 71.8682 133.969 52.218 116.434C50.1265 114.567 48.2888 112.435 46.7519 110.09C52.7367 111.586 58.0931 111.723 62.8211 110.499C80.2569 122.07 106.71 116.584 124.215 96.9434C126.478 94.4102 128.533 91.6982 130.36 88.834L135.876 94.3001ZM42.5027 101.063L42.4129 100.754L42.5027 101.063ZM42.2234 100.125C42.2234 99.9259 42.1137 99.7264 42.0638 99.5269C42.0638 99.7264 42.1735 99.9259 42.2234 100.125ZM41.8942 98.9184C41.8344 98.699 41.7845 98.4795 41.7247 98.2601C41.7845 98.4795 41.8344 98.699 41.8942 98.9184ZM41.615 97.7514C41.5551 97.522 41.5052 97.2826 41.4554 97.0432C41.4554 97.2826 41.5551 97.522 41.615 97.7514ZM41.3556 96.5245L41.206 95.7166L41.3556 96.5245ZM41.1262 95.2477C41.1262 94.9784 41.0364 94.6991 40.9965 94.4298C40.9965 94.6991 41.0763 94.9784 41.1262 95.2477ZM40.8968 93.8912V94.2104C44.0705 94.4835 47.2671 94.2852 50.3827 93.6219C46.5125 77.6624 51.6595 58.9997 68.0778 40.5865C84.4961 22.1732 113.293 15.959 128.544 29.5445C143.796 43.13 142.778 63.2988 134.22 81.7919C136.454 83.5275 138.655 85.3628 140.823 87.2979L141.302 87.7268C163.097 59.0995 166.578 24.9362 148.354 8.66746C128.674 -8.86804 91.239 1.0468 64.6964 30.8013C46.732 50.9402 38.3632 75.0091 40.8968 93.8912ZM51.8689 97.7514C51.9288 97.911 51.9986 98.0606 52.0684 98.2202C51.9986 98.0606 51.9288 97.911 51.8689 97.7514ZM52.2779 98.6591C52.3577 98.8386 52.4375 99.0082 52.5273 99.1778C52.4375 99.0082 52.3577 98.8386 52.2779 98.6591ZM52.7068 99.5568L52.9961 100.105L52.7068 99.5568ZM53.1756 100.415L53.3651 100.764L53.1756 100.415ZM140.863 88.2854L140.265 89.0435L140.863 88.2854ZM132.794 84.6347C132.704 84.8042 132.614 84.9738 132.514 85.1434C132.614 84.9738 132.704 84.8042 132.794 84.6347ZM132.185 85.7518L131.896 86.2705L132.185 85.7518ZM131.587 86.7493L131.228 87.3677L131.666 86.7792L131.587 86.7493ZM130.968 87.7468L130.549 88.4251L130.968 87.7468Z" fill="url(#paint2_linear)"/>
<path fill-rule="evenodd" clip-rule="evenodd" d="M113.263 22.9412C81.7933 13.6947 56.3379 42.8906 43.291 68.356C46.9617 55.7081 54.1834 42.5814 64.6967 30.8013C91.2393 1.0468 128.674 -8.86804 148.354 8.66746C166.578 24.9362 163.097 59.0995 141.302 87.7069C139.865 89.9063 138.192 91.9431 136.315 93.7815C123.497 109.272 106.501 119.257 91.2992 123.137C110.86 115.835 123.468 103.018 130.27 88.9338C130.299 88.9011 130.323 88.8641 130.34 88.824C131.767 86.5562 133.063 84.2083 134.22 81.7919C142.03 60.2565 138.799 28.9759 113.273 22.9412H113.263Z" fill="url(#paint3_linear)"/>
<path d="M10.9309 171.076V152.374H14.8006V159.505H22.1086V152.374H25.991V171.076H22.1086V162.727H14.8006V171.076H10.9309ZM50.7951 155.686H40.8989V159.657H49.9831V162.905H40.8989V167.713H51.2519V171.076H37.0799V152.374H50.7951V155.686ZM65.6776 164.009H70.4227L68.0882 156.65L65.6776 164.009ZM65.9187 152.374H70.3339L76.9568 171.076H72.7192L71.5139 167.231H64.6245L63.3304 171.076H59.245L65.9187 152.374ZM89.5175 155.622V160.647H93.9454C94.8251 160.647 95.4848 160.545 95.9247 160.342C96.7028 159.987 97.0919 159.285 97.0919 158.236C97.0919 157.102 96.7155 156.341 95.9627 155.952C95.5398 155.732 94.9054 155.622 94.0596 155.622H89.5175ZM94.8716 152.374C96.1826 152.4 97.1892 152.56 97.8912 152.856C98.6017 153.152 99.2023 153.588 99.6929 154.163C100.099 154.637 100.42 155.161 100.657 155.736C100.894 156.312 101.012 156.967 101.012 157.703C101.012 158.591 100.788 159.467 100.34 160.329C99.8916 161.184 99.1515 161.788 98.1196 162.144C98.9824 162.49 99.5914 162.985 99.9466 163.628C100.31 164.262 100.492 165.235 100.492 166.546V167.802C100.492 168.657 100.526 169.236 100.594 169.54C100.695 170.023 100.932 170.378 101.304 170.606V171.076H97.0031C96.8847 170.661 96.8001 170.327 96.7494 170.073C96.6479 169.549 96.5929 169.012 96.5844 168.462L96.559 166.724C96.5421 165.531 96.3222 164.736 95.8993 164.339C95.4848 163.941 94.7024 163.742 93.5521 163.742H89.5175V171.076H85.6985V152.374H94.8716ZM125.207 152.374V155.686H119.612V171.076H115.679V155.686H110.059V152.374H125.207ZM137.565 165.303C137.684 166.157 137.916 166.796 138.263 167.219C138.897 167.988 139.984 168.373 141.524 168.373C142.446 168.373 143.194 168.272 143.769 168.069C144.86 167.68 145.406 166.956 145.406 165.899C145.406 165.282 145.135 164.804 144.594 164.465C144.053 164.136 143.203 163.844 142.044 163.59L140.065 163.146C138.119 162.706 136.774 162.228 136.03 161.712C134.77 160.85 134.14 159.5 134.14 157.665C134.14 155.99 134.749 154.599 135.967 153.491C137.185 152.383 138.973 151.829 141.333 151.829C143.304 151.829 144.983 152.353 146.37 153.402C147.766 154.442 148.498 155.956 148.565 157.944H144.81C144.742 156.819 144.251 156.02 143.338 155.546C142.729 155.233 141.972 155.077 141.067 155.077C140.06 155.077 139.257 155.28 138.656 155.686C138.056 156.092 137.755 156.658 137.755 157.386C137.755 158.054 138.051 158.553 138.644 158.883C139.024 159.103 139.836 159.361 141.08 159.657L144.302 160.431C145.715 160.769 146.781 161.222 147.499 161.788C148.616 162.668 149.174 163.941 149.174 165.607C149.174 167.316 148.519 168.737 147.208 169.87C145.905 170.995 144.061 171.558 141.676 171.558C139.24 171.558 137.324 171.004 135.928 169.896C134.533 168.779 133.835 167.248 133.835 165.303H137.565Z" fill="#1C1B1A"/>
<defs>
<linearGradient id="paint0_linear" x1="43.4005" y1="30.6117" x2="36.9768" y2="106.17" gradientUnits="userSpaceOnUse">
<stop stop-color="#E51314"/>
<stop offset="1" stop-color="#921E17"/>
</linearGradient>
<linearGradient id="paint1_linear" x1="2.03562" y1="66.2412" x2="79.4891" y2="73.2933" gradientUnits="userSpaceOnUse">
<stop stop-color="#921E17"/>
<stop offset="0.33" stop-color="#5B1811"/>
<stop offset="0.71" stop-color="#E51314"/>
<stop offset="0.85" stop-color="#ED5758"/>
<stop offset="1" stop-color="#E51314"/>
</linearGradient>
<linearGradient id="paint2_linear" x1="12458" y1="14964.6" x2="11608" y2="727.405" gradientUnits="userSpaceOnUse">
<stop stop-color="#E51314"/>
<stop offset="1" stop-color="#921E17"/>
</linearGradient>
<linearGradient id="paint3_linear" x1="12394.1" y1="14648.4" x2="11554.5" y2="688.455" gradientUnits="userSpaceOnUse">
<stop stop-color="#921E17"/>
<stop offset="0.33" stop-color="#5B1811"/>
<stop offset="0.71" stop-color="#E51314"/>
<stop offset="0.85" stop-color="#ED5758"/>
<stop offset="1" stop-color="#E51314"/>
</linearGradient>
</defs>
</svg>
