<svg width="48" height="48" viewBox="0 0 48 48" fill="none" xmlns="http://www.w3.org/2000/svg">
<path d="M24 48C37.2548 48 48 37.2548 48 24C48 10.7452 37.2548 0 24 0C10.7452 0 0 10.7452 0 24C0 37.2548 10.7452 48 24 48Z" fill="#99B8D1"/>
<path fill-rule="evenodd" clip-rule="evenodd" d="M26.1396 35.1775C28.8298 35.2111 30.3803 35.2473 30.7912 35.286C30.8352 37.5576 30.8584 38.6947 30.8584 38.6947C27.8038 38.8471 26.3566 38.9221 26.5194 38.9169C25.9897 36.8547 25.863 35.6091 26.1396 35.1775Z" fill="#E8E9E9"/>
<path fill-rule="evenodd" clip-rule="evenodd" d="M8.95689 35.1775C6.26668 35.2111 4.71612 35.2473 4.30523 35.286C4.2613 37.5576 4.23804 38.6947 4.23804 38.6947C7.29263 38.8471 8.73981 38.9221 8.577 38.9169C9.10678 36.8547 9.23341 35.6091 8.95689 35.1775Z" fill="#E8E9E9"/>
<path fill-rule="evenodd" clip-rule="evenodd" d="M30.8042 36.0584C30.7292 31.2724 30.6957 28.8664 30.6982 28.8432C30.6853 28.0239 30.6801 27.6131 30.6801 27.6131C30.6776 27.4192 30.675 27.321 30.675 27.321C30.7422 27.0342 30.7835 26.7215 30.7939 26.3829C30.8455 25.4681 30.7654 24.9539 30.5587 24.8427C30.2951 20.0257 29.9126 17.0486 29.4113 15.9115C28.2845 15.3456 27.5635 15.0613 27.2483 15.0613C26.8012 14.7331 26.4265 14.5677 26.1215 14.5626C20.4077 14.4282 17.5495 14.3584 17.5495 14.3584C17.5495 14.3584 14.6862 14.4256 8.9698 14.5626C8.66486 14.5677 8.28756 14.7331 7.84307 15.0613C7.52779 15.0613 6.80678 15.3456 5.68004 15.9115C5.1787 17.0486 4.79623 20.0257 4.53264 24.8427C4.32331 24.9539 4.24578 25.4681 4.29747 26.3829C4.31039 26.7215 4.34915 27.0342 4.41634 27.321C4.41634 27.321 4.41376 27.4192 4.41117 27.6131C4.41117 27.6131 4.40601 28.0239 4.39309 28.8432C4.39567 28.869 4.35949 31.2724 4.28713 36.0584H30.8042Z" fill="#E8E9E9"/>
<path d="M7.96953 43.1807H4.70044V47.9486H7.96953V43.1807Z" fill="#404040"/>
<path fill-rule="evenodd" clip-rule="evenodd" d="M4.36719 42.9148C4.37752 43.4627 4.38269 44.0105 4.38269 44.5558C6.95144 44.5713 8.23582 44.5791 8.23582 44.5791C8.23582 43.6125 8.23582 43.1293 8.23582 43.1293L4.36719 42.9148Z" fill="#292827"/>
<path d="M30.3881 43.1807H27.119V47.9486H30.3881V43.1807Z" fill="#404040"/>
<path fill-rule="evenodd" clip-rule="evenodd" d="M30.7217 42.9148C30.7113 43.4627 30.7062 44.0105 30.7062 44.5558C28.1374 44.5713 26.853 44.5791 26.853 44.5791C26.853 43.6125 26.853 43.1293 26.853 43.1293L30.7217 42.9148Z" fill="#292827"/>
<path fill-rule="evenodd" clip-rule="evenodd" d="M4.28447 36.0588H30.8015C30.7989 35.821 30.7938 35.591 30.7912 35.3662C30.5224 35.3714 30.2666 35.3766 30.0237 35.3817C29.3259 35.3946 28.7445 35.405 28.2767 35.4153C27.3231 35.4334 26.8476 35.4412 26.8476 35.4412C26.8735 32.4021 26.8838 30.8825 26.8838 30.8825C26.876 30.3269 26.6693 30.0401 26.2636 30.022C24.0618 30.0762 21.8135 30.1098 19.5574 30.1202C19.6996 30.3347 19.8236 30.5673 19.927 30.8153C21.4336 30.7895 23.6535 30.7533 26.5892 30.7068C26.6073 31.8077 26.3437 32.3478 25.7984 32.3271C24.8267 32.3659 24.3409 32.3866 24.3409 32.3866C24.3228 32.0687 24.1083 31.9162 23.6974 31.9292C22.0357 31.9602 20.71 31.9834 19.7228 32.0015C19.5626 32.2599 19.3559 32.4925 19.1026 32.7044C18.5832 32.738 18.0637 32.7561 17.5443 32.7587C17.0249 32.7561 16.4977 32.7354 15.9782 32.7044C15.725 32.4925 15.5182 32.2574 15.358 32.0015C14.3682 31.9834 13.0425 31.9602 11.3834 31.9292C10.9725 31.9162 10.758 32.0687 10.7399 32.3866C10.7399 32.3866 10.2541 32.3659 9.28242 32.3271C8.73714 32.3504 8.47355 31.8103 8.49164 30.7068C11.4248 30.7559 13.6446 30.7921 15.1539 30.8153C15.2572 30.5673 15.3813 30.3347 15.5234 30.1202C13.2673 30.1073 11.019 30.0737 8.81725 30.022C8.41152 30.0375 8.20478 30.3243 8.19703 30.8825C8.19703 30.8825 8.20995 32.4021 8.23321 35.4412C8.23321 35.4412 7.75771 35.4334 6.80412 35.4153C6.33637 35.4076 5.75491 35.3946 5.05716 35.3817C4.81682 35.3766 4.56098 35.3714 4.28963 35.3662C4.28705 35.591 4.28188 35.8236 4.2793 36.0588H4.28447Z" fill="#6D6E6E"/>
<path fill-rule="evenodd" clip-rule="evenodd" d="M26.951 37.477C26.951 37.477 26.9536 37.1514 26.9588 36.5002C28.5352 36.4459 29.817 36.296 30.8042 36.0557H4.28711C5.2743 36.296 6.55609 36.4433 8.13248 36.5002C8.13765 37.1514 8.14024 37.477 8.14024 37.477C8.30563 37.7561 8.37024 38.1257 8.32889 38.5831C9.90787 38.6425 11.399 38.658 12.7997 38.6296C15.924 38.7252 19.1673 38.7252 22.2916 38.6296C23.6923 38.658 25.1834 38.6425 26.7624 38.5831C26.721 38.1231 26.7857 37.7561 26.951 37.477Z" fill="#6D6E6E"/>
<path fill-rule="evenodd" clip-rule="evenodd" d="M25.6927 43.4471C28.2873 43.5866 29.9645 43.4083 30.7217 42.9147C30.7992 42.6408 30.8199 42.3746 30.7811 42.1162C31.4995 41.7957 31.2256 39.0022 31.2256 38.3225C27.9255 38.5835 24.9459 38.6869 22.2918 38.6326C19.1675 38.7282 15.9242 38.7282 12.7998 38.6326C10.1458 38.6869 7.16616 38.5809 3.86607 38.3225C3.86607 39.0048 3.58955 41.7957 4.31056 42.1162C4.2718 42.3746 4.29247 42.6408 4.37 42.9147C5.12977 43.4083 6.80437 43.5866 9.39896 43.4471C14.6528 43.6487 20.4389 43.6487 25.6953 43.4471H25.6927Z" fill="#7C8785"/>
<path fill-rule="evenodd" clip-rule="evenodd" d="M17.5469 25.5094C14.7533 25.53 10.9157 25.437 6.04696 25.2328C5.74202 25.2122 5.56888 24.9951 5.53011 24.5868C5.14247 21.788 5.39056 18.9376 6.25112 16.2474C6.41393 16.0923 6.65426 16.0096 6.97213 15.9967C14.0194 15.9166 17.5469 15.8752 17.5469 15.8752C17.5469 15.8752 21.0693 15.9166 28.1165 15.9967C28.4344 16.007 28.6747 16.0923 28.8375 16.2474C29.6981 18.9376 29.9462 21.788 29.5585 24.5868C29.5172 24.9977 29.3466 25.2122 29.0417 25.2328C24.1729 25.437 20.3431 25.53 17.5495 25.5094H17.5469Z" fill="#353043"/>
<path fill-rule="evenodd" clip-rule="evenodd" d="M6.80941 35.4129C6.79907 34.8418 6.0548 33.5523 4.58178 31.5469C4.4293 33.2912 4.49133 34.4852 4.76784 35.1261C4.91514 35.2579 5.01335 35.3431 5.06503 35.3819L6.81199 35.4155L6.80941 35.4129Z" fill="#FEC900"/>
<path fill-rule="evenodd" clip-rule="evenodd" d="M9.61328 43.4546C10.0423 44.5917 11.3835 45.0904 13.6421 44.9509C16.1695 44.9509 17.4772 44.9509 17.547 44.9509C17.6193 44.9509 18.9192 44.9509 21.4466 44.9509C23.7027 45.0904 25.0465 44.5917 25.4755 43.4546H9.61587H9.61328Z" fill="#404040"/>
<path fill-rule="evenodd" clip-rule="evenodd" d="M13.469 43.5249H17.3325H17.5418H21.8368V45.1737H17.5418H17.3325H13.469V43.5249Z" fill="#292827"/>
<path fill-rule="evenodd" clip-rule="evenodd" d="M7.71637 31.428C7.71637 31.428 7.72671 32.6323 7.7448 35.0434C7.7448 35.0434 7.58974 34.8909 7.28222 34.5911C7.28222 34.5911 7.2357 33.0328 7.14267 29.9136C7.14267 28.6473 6.10638 28.3165 5.17346 27.7222C5.99009 27.9703 6.73435 28.2726 7.41143 28.6292C7.6621 29.0169 7.78356 29.4769 7.75255 29.9369L7.71637 31.4306V31.428Z" fill="#D3D5D5"/>
<path d="M3.08804 17.6096H1.24805V22.176H3.08804V17.6096Z" fill="black"/>
<path d="M3.08804 22.4626H1.24805V23.9796H3.08804V22.4626Z" fill="black"/>
<path d="M5.16585 17.3769C5.05472 17.1986 4.87383 17.0513 4.62832 16.935C4.37248 16.8135 4.04686 16.7283 3.64889 16.6766C3.42923 16.6688 3.21215 16.6637 2.99507 16.6662C2.78833 16.6688 2.58159 16.674 2.36968 16.6843C2.29991 16.7309 2.2689 16.8058 2.27406 16.9118L2.09833 24.3182C2.12676 24.3854 2.1862 24.4449 2.27665 24.4914C2.39036 24.5508 2.55058 24.5947 2.75474 24.618L5.11933 24.5999V24.879L2.73148 24.8971H2.72631C2.48597 24.8687 2.29215 24.8144 2.14485 24.7369C1.98204 24.649 1.8735 24.5327 1.8244 24.3854L1.81665 24.3622L1.99238 16.9195C1.98204 16.6869 2.07249 16.5215 2.26114 16.4233L2.28699 16.4104L2.318 16.4078C2.54024 16.3949 2.76249 16.3897 2.9899 16.3871C3.21473 16.3846 3.43956 16.3897 3.66181 16.3975H3.67473C4.10372 16.4518 4.46035 16.5474 4.74461 16.6818C5.03922 16.8213 5.2563 17.0022 5.39843 17.2296L5.16326 17.3769H5.16585Z" fill="black"/>
<path fill-rule="evenodd" clip-rule="evenodd" d="M17.547 40.6893C17.547 40.6893 20.2966 40.6557 25.7959 40.586C27.9564 40.6144 28.9229 40.1001 28.6955 39.0483C24.7519 39.2292 21.028 39.3197 17.5418 39.3145C14.0531 39.3197 10.3395 39.2292 6.39333 39.0483C6.16591 40.1027 7.13243 40.6144 9.29286 40.586C14.7922 40.6557 17.547 40.6893 17.547 40.6893Z" fill="#353043"/>
<path fill-rule="evenodd" clip-rule="evenodd" d="M17.5469 32.0373C17.5469 32.0373 19.5988 32.0012 23.7026 31.9262C24.1135 31.9133 24.328 32.0658 24.3461 32.3836C24.3461 32.3836 24.832 32.3629 25.8036 32.3242C26.3489 32.3474 26.6125 31.8073 26.5944 30.7039C20.5628 30.8021 17.5469 30.8512 17.5469 30.8512C17.5469 30.8512 14.5234 30.8021 8.49428 30.7039C8.47619 31.8047 8.73978 32.3449 9.28506 32.3242C10.2567 32.3629 10.7426 32.3836 10.7426 32.3836C10.7607 32.0658 10.9752 31.9133 11.3861 31.9262C15.4899 32.0012 17.5469 32.0373 17.5469 32.0373Z" fill="#E8E9E9"/>
<path fill-rule="evenodd" clip-rule="evenodd" d="M28.2793 35.4129C28.2896 34.8418 29.0313 33.5523 30.5069 31.5469C30.6594 33.2912 30.5974 34.4852 30.3234 35.1261C30.1761 35.2579 30.0779 35.3431 30.0263 35.3819L28.2793 35.4155V35.4129Z" fill="#FEC900"/>
<path fill-rule="evenodd" clip-rule="evenodd" d="M27.3724 31.428C27.3724 31.428 27.362 32.6323 27.3439 35.0434C27.3439 35.0434 27.499 34.8909 27.8065 34.5911C27.8065 34.5911 27.853 33.0328 27.9461 29.9136C27.9461 28.6473 28.9823 28.3165 29.9153 27.7222C29.0986 27.9703 28.3544 28.2726 27.6773 28.6292C27.4266 29.0169 27.3052 29.4769 27.3362 29.9369L27.3724 31.4306V31.428Z" fill="#D3D5D5"/>
<path d="M33.8407 17.6096H32.0007V22.176H33.8407V17.6096Z" fill="black"/>
<path d="M33.8407 22.4626H32.0007V23.9796H33.8407V22.4626Z" fill="black"/>
<path d="M29.923 17.3769C30.0341 17.1986 30.215 17.0513 30.4605 16.935C30.7164 16.8135 31.042 16.7283 31.44 16.6766C31.6596 16.6688 31.8767 16.6637 32.0938 16.6662C32.3005 16.6688 32.5073 16.674 32.7192 16.6843C32.789 16.7309 32.82 16.8058 32.8148 16.9118L32.9905 24.3182C32.9621 24.3854 32.9027 24.4449 32.8122 24.4914C32.6985 24.5508 32.5383 24.5947 32.3341 24.618L29.9695 24.5999V24.879L32.3574 24.8971H32.3626C32.6029 24.8687 32.7967 24.8144 32.944 24.7369C33.1068 24.649 33.2154 24.5327 33.2645 24.3854L33.2722 24.3622L33.0965 16.9195C33.1068 16.6869 33.0164 16.5215 32.8277 16.4233L32.8019 16.4104L32.7709 16.4078C32.5512 16.3949 32.3264 16.3897 32.099 16.3871C31.8741 16.3846 31.6493 16.3897 31.4271 16.3975H31.4141C30.9851 16.4518 30.6285 16.5474 30.3442 16.6818C30.0496 16.8213 29.8326 17.0022 29.6904 17.2296L29.9256 17.3769H29.923Z" fill="black"/>
<path fill-rule="evenodd" clip-rule="evenodd" d="M17.5469 34.9656C17.5469 34.9656 19.5988 34.9294 23.7026 34.8544C24.1135 34.8415 24.328 34.994 24.3461 35.3118C24.3461 35.3118 24.832 35.2912 25.8036 35.2524C26.3489 35.2757 26.6125 34.7356 26.5944 33.6321C20.5628 33.7303 17.5469 33.7794 17.5469 33.7794C17.5469 33.7794 14.5234 33.7303 8.49428 33.6321C8.47619 34.733 8.73978 35.2731 9.28506 35.2524C10.2567 35.2912 10.7426 35.3118 10.7426 35.3118C10.7607 34.994 10.9752 34.8415 11.3861 34.8544C15.4899 34.9294 17.5469 34.9656 17.5469 34.9656Z" fill="#E8E9E9"/>
<path fill-rule="evenodd" clip-rule="evenodd" d="M17.5469 37.7542C17.5469 37.7542 19.5988 37.7181 23.7026 37.6431C24.1135 37.6302 24.328 37.7827 24.3461 38.1031C24.3461 38.1031 24.832 38.0824 25.8036 38.0437C26.3489 38.0669 26.6125 37.5268 26.5944 36.4233C20.5628 36.5215 17.5469 36.5706 17.5469 36.5706C17.5469 36.5706 14.5234 36.5215 8.49428 36.4233C8.47619 37.5242 8.73978 38.0643 9.28506 38.0437C10.2567 38.0824 10.7426 38.1031 10.7426 38.1031C10.7607 37.7852 10.9752 37.6328 11.3861 37.6431C15.4899 37.7181 17.5469 37.7542 17.5469 37.7542Z" fill="#E8E9E9"/>
<path fill-rule="evenodd" clip-rule="evenodd" d="M17.5469 32.7582C17.0275 32.7556 16.5003 32.735 15.9809 32.704C15.4847 32.2879 15.1642 31.7814 15.0195 31.187C15.265 30.4272 15.6708 29.8018 16.2393 29.316C16.2393 29.316 16.6786 29.3134 17.5469 29.3057C18.4127 29.3108 18.8468 29.316 18.8468 29.316C19.4154 29.8044 19.8211 30.4272 20.0666 31.187C19.9219 31.7814 19.6014 32.2853 19.1052 32.704C18.5858 32.7376 18.0664 32.7556 17.5469 32.7582Z" fill="#353043"/>
<path fill-rule="evenodd" clip-rule="evenodd" d="M8.16343 41.1545C5.84277 41.338 3.89941 41.5603 4.31031 38.8184C4.75738 38.8726 5.20446 38.9372 5.64895 39.0096C9.01365 39.4877 8.7268 41.2166 8.16343 41.1545Z" fill="#FEFEFE"/>
<path fill-rule="evenodd" clip-rule="evenodd" d="M26.9277 41.1545C29.2484 41.338 31.1918 41.5603 30.7809 38.8184C30.3338 38.8726 29.8867 38.9372 29.4422 39.0096C26.0775 39.4877 26.3644 41.2166 26.9277 41.1545Z" fill="#FEFEFE"/>
<path fill-rule="evenodd" clip-rule="evenodd" d="M17.6115 31.0375C17.8389 31.0349 18.0663 31.0349 18.2937 31.0323C18.379 31.0323 18.4643 31.0297 18.547 31.0297C18.6297 31.0297 18.7098 31.0297 18.7899 31.0297C18.9036 31.0349 19.038 31.0245 19.131 31.0711C19.1827 31.0969 19.2008 31.1331 19.2111 31.1899C19.2111 31.1951 19.2111 31.1977 19.2137 31.2003C19.2111 31.2804 19.162 31.376 19.1259 31.4509C19.0742 31.5595 18.9837 31.6577 18.8933 31.7456C18.7356 31.898 18.4307 32.0738 18.1051 32.1616C18.0611 32.1745 18.0069 32.1926 17.9604 32.203C17.9242 32.2133 17.9371 32.2288 17.9604 32.2288C18.012 32.2236 18.0715 32.2107 18.1154 32.2004C18.4901 32.1048 18.7511 31.9549 18.9295 31.8102C19.0354 31.7223 19.1491 31.6008 19.2215 31.4716C19.2706 31.3838 19.3223 31.2442 19.3274 31.1899C19.3352 31.1227 19.3455 31.0866 19.3404 30.978C19.33 30.7945 19.2732 30.6498 19.1672 30.4844C19.1595 30.4715 19.1491 30.4612 19.1414 30.4508C19.1388 30.4457 19.1336 30.4353 19.1388 30.4276L19.1414 30.425C19.1517 30.4224 19.1646 30.4328 19.1724 30.4431C19.2602 30.5413 19.3093 30.6214 19.3559 30.7196C19.4179 30.8514 19.4334 30.947 19.4437 31.0633C19.4463 31.084 19.4696 31.0969 19.4722 31.0581C19.4773 30.9341 19.4489 30.8023 19.3972 30.686C19.3378 30.5516 19.2732 30.4767 19.1905 30.3759C19.1905 30.3759 19.1905 30.3759 19.1879 30.3733C19.0897 30.2725 18.9708 30.1769 18.8519 30.102C18.6684 29.9857 18.4798 29.9081 18.2756 29.8539C18.1929 29.8306 18.1051 29.8125 18.0198 29.8048C17.994 29.8022 17.9629 29.8022 17.9371 29.8022C17.919 29.8022 17.8983 29.8229 17.9371 29.8306C17.9914 29.8435 18.0431 29.8565 18.0973 29.872C18.2963 29.9288 18.4953 30.0063 18.671 30.1175C18.8183 30.2105 18.8907 30.2596 19.0638 30.4767C19.0845 30.5077 19.131 30.5801 19.1569 30.6395C19.175 30.6808 19.2008 30.7454 19.2008 30.7945V30.7971C19.1956 30.8436 19.1853 30.8772 19.1465 30.9005C19.069 30.947 18.9992 30.9496 18.8907 30.9548C18.8158 30.9574 18.7382 30.9599 18.6633 30.9625C18.5522 30.9651 18.441 30.9677 18.3273 30.9703C18.087 30.9754 17.8441 30.978 17.6012 30.9806C17.5753 30.9806 17.5495 30.9806 17.5236 30.9806C17.2781 30.9832 17.03 30.9832 16.7819 30.9832C16.6682 30.9832 16.5597 30.9832 16.446 30.9832C16.371 30.9832 16.2935 30.9832 16.2186 30.9806C16.11 30.978 16.0403 30.9754 15.9627 30.9289C15.924 30.9083 15.9136 30.8747 15.9085 30.8281V30.8256C15.9085 30.7765 15.9317 30.7119 15.9498 30.6705C15.9757 30.6111 16.0222 30.5361 16.0403 30.5051C16.2108 30.2854 16.2832 30.2363 16.4279 30.1381C16.601 30.0219 16.7974 29.9417 16.9964 29.8823C17.0507 29.8668 17.1024 29.8513 17.1541 29.8384C17.1928 29.828 17.1722 29.8074 17.1541 29.8099C17.1282 29.8099 17.0972 29.8099 17.0714 29.8151C16.9835 29.8255 16.8982 29.8461 16.8155 29.8694C16.614 29.9288 16.4253 30.0089 16.2444 30.1278C16.1255 30.2053 16.0093 30.3035 15.9136 30.4069C15.9136 30.4069 15.9136 30.4069 15.911 30.4095C15.8309 30.5103 15.7689 30.5852 15.7121 30.7222C15.663 30.8385 15.6371 30.9729 15.6449 31.0969C15.6475 31.1331 15.6707 31.1227 15.6733 31.0995C15.681 30.9832 15.6966 30.8876 15.756 30.7532C15.8025 30.6524 15.849 30.5723 15.9343 30.4741C15.9421 30.4663 15.9576 30.4534 15.9653 30.456L15.9679 30.4586C15.9731 30.4689 15.9679 30.4767 15.9653 30.4819C15.9576 30.4948 15.9472 30.5051 15.9395 30.5154C15.8361 30.6834 15.7793 30.8281 15.7741 31.0116C15.7715 31.1202 15.7818 31.1538 15.7922 31.2209C15.7999 31.2726 15.8516 31.4122 15.9033 31.5C15.9782 31.6267 16.0919 31.7481 16.2005 31.8334C16.3814 31.9756 16.645 32.1203 17.0223 32.2081C17.0688 32.2185 17.1256 32.2314 17.1799 32.234C17.2032 32.2366 17.2161 32.2185 17.1799 32.2081C17.1308 32.1978 17.0791 32.1797 17.0352 32.1694C16.7096 32.0867 16.3995 31.9161 16.2392 31.7662C16.1462 31.6784 16.0558 31.5827 16.0015 31.4742C15.9627 31.3993 15.9136 31.3062 15.9085 31.2261C15.9085 31.2235 15.9085 31.2209 15.9085 31.2158C15.9162 31.1589 15.9343 31.1227 15.986 31.0969C16.079 31.0478 16.2108 31.0556 16.3271 31.0504C16.4098 31.0504 16.4899 31.0478 16.57 31.0478C16.6553 31.0478 16.7406 31.0478 16.8233 31.0452C17.0559 31.0426 17.291 31.0401 17.5236 31.0375C17.5495 31.0375 17.5753 31.0375 17.6012 31.0375H17.6115ZM17.6089 30.9548C17.7717 30.9522 17.9319 30.9522 18.0922 30.9496C18.2085 30.947 18.3247 30.9444 18.4385 30.9393C18.5418 30.9367 18.6452 30.9315 18.7511 30.9238C18.8493 30.916 18.9837 30.8979 19.007 30.8824C19.0225 30.8721 19.0173 30.8566 19.0044 30.8436C18.9837 30.8256 18.9553 30.8126 18.9295 30.8023C18.9191 30.7971 18.901 30.7997 18.8933 30.8075C18.8726 30.823 18.8623 30.8281 18.839 30.8359C18.7434 30.8617 18.6736 30.8747 18.5444 30.885C18.4488 30.8927 18.3532 30.9005 18.2576 30.9031C18.0431 30.9108 17.9113 30.9134 17.6089 30.9186C17.5831 30.9186 17.5546 30.9186 17.5288 30.9186C17.2213 30.9212 17.0869 30.9212 16.8698 30.916C16.7742 30.9134 16.6786 30.9083 16.583 30.9031C16.4563 30.8953 16.3866 30.885 16.2883 30.8592C16.2651 30.854 16.2522 30.8488 16.2341 30.8333C16.2237 30.8256 16.2082 30.823 16.1979 30.8281C16.1721 30.8385 16.1436 30.854 16.123 30.8695C16.11 30.8798 16.1023 30.8953 16.1204 30.9083C16.1436 30.9238 16.278 30.9393 16.3762 30.9444C16.4822 30.9496 16.583 30.9548 16.6889 30.9548C16.8052 30.9574 16.9215 30.9574 17.0378 30.9574C17.2006 30.9574 17.366 30.9548 17.5314 30.9548C17.5572 30.9548 17.5856 30.9548 17.6115 30.9548H17.6089ZM17.6063 30.8669C17.9371 30.8643 18.2886 30.8643 18.6142 30.8281C18.777 30.8101 18.8235 30.7222 18.8313 30.6653C18.8519 30.4767 18.5702 30.2338 18.4229 30.1562C18.224 30.0503 18.0456 29.9676 17.8079 29.9056C17.7769 29.8978 17.7588 29.8642 17.7562 29.8358C17.7562 29.8099 17.7924 29.7815 17.8156 29.7763C17.8906 29.7583 17.9681 29.7608 18.0456 29.7738C18.1697 29.7919 18.2886 29.8125 18.41 29.8487C18.5702 29.8952 18.746 29.9753 18.901 30.071C19.1 30.1924 19.2732 30.3475 19.3998 30.5439C19.4877 30.6808 19.5549 30.8617 19.5574 31.0168C19.56 31.2054 19.4877 31.3915 19.3843 31.5543C19.2861 31.7094 19.1465 31.8386 18.9967 31.9497C18.8597 32.0505 18.7046 32.128 18.547 32.19C18.41 32.2443 18.2653 32.2779 18.1206 32.3038C18.0276 32.3193 17.9371 32.327 17.8441 32.3115C17.8208 32.3089 17.7795 32.2805 17.7769 32.2547C17.7743 32.2262 17.795 32.1952 17.8208 32.1875C17.8983 32.1642 18.0276 32.1229 18.1206 32.0815C18.2395 32.0298 18.3609 31.9756 18.4695 31.9032C18.5754 31.8308 18.6814 31.7481 18.7511 31.6448C18.7899 31.5879 18.8313 31.513 18.8338 31.4535C18.8364 31.4174 18.8364 31.3734 18.8183 31.345C18.746 31.2287 18.5496 31.2365 18.4023 31.2313C18.2679 31.2261 18.1361 31.2261 18.0017 31.2235C17.8673 31.2209 17.7071 31.2209 17.5701 31.2209C17.4332 31.2235 17.273 31.2261 17.1386 31.2313C17.0042 31.2365 16.8724 31.239 16.738 31.2468C16.5907 31.2545 16.3917 31.252 16.3219 31.3683C16.3039 31.3993 16.3039 31.4406 16.309 31.4768C16.3142 31.5336 16.3555 31.6112 16.3943 31.6654C16.4667 31.7662 16.5726 31.8489 16.6812 31.9187C16.7897 31.9885 16.9137 32.0427 17.0326 32.0918C17.1256 32.1306 17.2574 32.172 17.335 32.1926C17.3608 32.2004 17.3815 32.2314 17.3789 32.2598C17.3763 32.2857 17.3376 32.3141 17.3117 32.3167C17.2187 32.3322 17.1282 32.327 17.0352 32.3141C16.8879 32.2934 16.7432 32.2624 16.6062 32.2081C16.446 32.1487 16.2909 32.0738 16.1514 31.9756C15.9989 31.867 15.8594 31.743 15.756 31.5879C15.65 31.4277 15.5751 31.2416 15.5725 31.053C15.5725 30.9005 15.6345 30.717 15.7224 30.5775C15.8439 30.3785 16.0144 30.2208 16.2108 30.0942C16.3633 29.996 16.5364 29.9133 16.6967 29.8642C16.8181 29.8254 16.937 29.8022 17.061 29.7815C17.1386 29.7686 17.2161 29.7634 17.291 29.7815C17.3143 29.7867 17.3531 29.8151 17.3531 29.841C17.3531 29.8694 17.335 29.903 17.304 29.9107C17.0688 29.9753 16.8905 30.0632 16.6941 30.1717C16.5494 30.2519 16.2728 30.5025 16.2961 30.6886C16.3039 30.7454 16.3504 30.8307 16.5158 30.8462C16.844 30.8772 17.2006 30.8695 17.534 30.8669C17.5598 30.8669 17.5856 30.8669 17.6115 30.8669H17.6063Z" fill="#D3D5D5"/>
<path d="M23.5607 2.85791L37.6165 16.9111L36.7094 17.8182L22.6562 3.76498L23.5607 2.85791Z" fill="#999999"/>
<path d="M23.6228 2.91739L22.8217 1.73897L21.421 0.94043L21.0799 1.28155L20.7388 1.62009L21.5347 3.02334L22.7131 3.82446C22.7131 3.82446 24.349 4.99255 24.5686 4.77288C24.7883 4.55322 23.6202 2.91739 23.6202 2.91739H23.6228Z" fill="#5E9EA7"/>
<path d="M21.421 0.94043L21.0799 1.28155L20.7388 1.62009L21.5373 3.02334L22.8217 1.73897L21.421 0.94043Z" fill="#1A1A1A"/>
<path d="M46.39 22.6479C45.7439 22.0019 43.6248 19.8828 42.6376 18.8956C41.6504 17.911 40.6348 17.9058 38.7612 16.4586C36.9031 15.0244 36.2726 13.541 36.2726 13.541L34.8073 15.0063L33.342 16.4716C33.342 16.4716 34.8254 17.1047 36.2597 18.9628C37.7069 20.8364 37.7094 21.852 38.6966 22.8392C39.6838 23.8264 41.8029 25.9454 42.449 26.5915C43.095 27.2376 44.6482 28.2687 46.3589 26.5579C48.0697 24.8471 47.0386 23.294 46.3925 22.6479H46.39Z" fill="#1A1A1A"/>
<path d="M45.9482 23.6766C45.3513 22.8419 39.2188 17.6217 38.3195 18.5185C37.4202 19.4178 42.643 25.5502 43.4751 26.1472C44.3227 26.7519 45.1342 26.1188 45.527 25.726C45.9198 25.3331 46.5504 24.5191 45.9457 23.6741L45.9482 23.6766Z" fill="#CCCCCC"/>
<path d="M36.2726 13.541L35.9547 13.2231L34.6238 13.0112L34.169 13.4661L33.1999 12.4944L32.2928 13.4015L33.2645 14.3731L32.8097 14.8254L33.0216 16.1563L33.3395 16.4741C33.3395 16.4741 33.7349 16.6447 34.3137 17.0634L36.8592 14.5179C36.4406 13.939 36.27 13.5436 36.27 13.5436L36.2726 13.541Z" fill="#CCCCCC"/>
<path d="M22.4856 22.7332C23.403 21.8158 24.889 21.8158 25.8038 22.7332C26.7212 23.6506 26.7212 25.134 25.8038 26.0514C24.8864 26.9688 23.4004 26.9688 22.4856 26.0514C21.5682 25.134 21.5682 23.648 22.4856 22.7332ZM21.9662 26.5708C23.1704 27.7751 25.119 27.7751 26.3232 26.5708C27.7032 25.1908 27.4577 22.9477 29.8146 20.5934L39.1334 11.2746C41.4902 8.91776 43.599 8.88158 45.3899 8.06237C46.881 6.95114 47.3772 3.86037 46.483 2.89902L44.7309 5.99238C43.3018 5.91227 42.3947 5.32047 41.4877 4.18857L43.201 1.00218C42.2733 0.849706 40.7925 1.33555 39.5185 3.42621C38.8104 5.40317 39.6192 7.04675 37.2624 9.4036L27.9436 18.7224C25.5867 21.0793 23.3462 20.8312 21.9662 22.2138C20.7619 23.418 20.7619 25.3666 21.9662 26.5708Z" fill="#999999"/>
<path d="M28.0289 19.7768C27.879 19.6269 27.879 19.384 28.0289 19.2341L37.7741 9.48888C37.924 9.33899 38.167 9.33899 38.3168 9.48888L39.0482 10.2202C39.1981 10.3701 39.1981 10.613 39.0482 10.7629L29.303 20.5082C29.1531 20.658 28.9102 20.658 28.7603 20.5082L28.0289 19.7768Z" fill="#CCCCCC"/>
<path d="M22.036 24.4754C22.0334 24.4211 22.0334 24.3668 22.036 24.3126L22.4495 23.9404L22.2763 23.4081C22.3022 23.3615 22.3306 23.315 22.359 23.2711L22.9043 23.1548L23.0206 22.6095C23.0671 22.5811 23.1111 22.5527 23.1576 22.5268L23.6899 22.7L24.0621 22.2865C24.1163 22.2839 24.1706 22.2839 24.2249 22.2865L24.597 22.7L25.1294 22.5268C25.1759 22.5527 25.2224 22.5811 25.2663 22.6095L25.3826 23.1548L25.9279 23.2711C25.9563 23.315 25.9847 23.3615 26.0106 23.4081L25.8374 23.9404L26.2509 24.3126C26.2535 24.3668 26.2535 24.4211 26.2509 24.4754L25.8374 24.8475L26.0106 25.3798C25.9847 25.4264 25.9563 25.4729 25.9279 25.5168L25.3826 25.6331L25.2663 26.1784C25.2198 26.2068 25.1759 26.2352 25.1294 26.2585L24.597 26.0854L24.2249 26.4988C24.1706 26.5014 24.1163 26.5014 24.0621 26.4988L23.6899 26.0854L23.1576 26.2585C23.1111 26.2327 23.0645 26.2068 23.0206 26.1784L22.9043 25.6331L22.359 25.5168C22.3306 25.4703 22.3022 25.4264 22.2763 25.3798L22.4495 24.8475L22.036 24.4754ZM25.8039 26.0543C26.7213 25.1369 26.7213 23.651 25.8039 22.7362C24.8864 21.8187 23.4005 21.8187 22.4857 22.7362C21.5683 23.6536 21.5683 25.1369 22.4857 26.0543C23.4031 26.9717 24.889 26.9717 25.8039 26.0543Z" fill="#353F48"/>
</svg>
