<svg width="48" height="51" viewBox="0 0 48 51" fill="none" xmlns="http://www.w3.org/2000/svg">
<path d="M24 51C37.2548 51 48 40.2548 48 27C48 13.7452 37.2548 3 24 3C10.7452 3 0 13.7452 0 27C0 40.2548 10.7452 51 24 51Z" fill="#940A0A"/>
<path fill-rule="evenodd" clip-rule="evenodd" d="M42.0404 48H5.39645C4.00695 48 2.88672 46.8151 2.88672 45.3502V17.2048C2.88672 15.7399 4.00695 14.5551 5.39645 14.5551H42.0404C43.4299 14.5551 44.5501 15.7399 44.5501 17.2048V45.3502C44.5501 46.8151 43.4299 48 42.0404 48Z" fill="#E50B14"/>
<path fill-rule="evenodd" clip-rule="evenodd" d="M30.6336 7.49987C29.4057 7.87686 28.1131 8.08154 26.8421 8.29697C26.0774 8.42622 25.291 8.43699 24.5155 8.49084C24.4401 8.50161 24.3755 8.44774 24.3647 8.37234C24.3647 8.36157 24.3647 8.36158 24.3647 8.35081C25.0433 6.25041 25.905 4.23617 27.3376 2.52353C28.2208 1.46795 29.341 1.02631 30.7198 1.16634C32.1093 1.31714 33.2295 2.50201 33.2726 3.89151C33.3372 5.55029 32.3678 6.97208 30.6336 7.49987ZM22.9321 8.49084C22.1566 8.43699 21.3703 8.42622 20.6055 8.29697C19.3345 8.08154 18.0419 7.87686 16.814 7.49987C15.0798 6.97208 14.1212 5.56106 14.1643 3.89151C14.2074 2.50201 15.3383 1.31714 16.7171 1.16634C18.085 1.02631 19.216 1.46795 20.0885 2.52353C21.5211 4.23617 22.3828 6.25041 23.0614 8.35081C23.0614 8.36158 23.0614 8.36157 23.0614 8.37234C23.0722 8.43697 23.0075 8.49084 22.9321 8.49084ZM34.1127 2.49122C33.2187 0.358504 30.6875 -0.5786 28.4039 0.369274C27.1868 0.875525 26.3466 1.80188 25.6896 2.87901C24.9894 4.04231 24.3862 5.27023 23.7292 6.47662C23.0721 5.25946 22.4689 4.04231 21.7688 2.87901C21.1118 1.7911 20.2716 0.864754 19.0545 0.369274C16.7709 -0.5786 14.2397 0.358504 13.3456 2.49122C12.4839 4.54854 13.4749 7.09057 15.5538 8.17847C16.8248 8.84629 18.2143 9.10478 19.6146 9.30944C20.487 9.43869 21.3595 9.51413 22.2858 9.61107L23.7292 9.66491L25.1725 9.61107C26.0989 9.51413 26.9714 9.43869 27.8438 9.30944C29.2441 9.10478 30.6336 8.84629 31.9046 8.17847C33.9835 7.09057 34.9637 4.54854 34.1127 2.49122Z" fill="#E50B14"/>
<path fill-rule="evenodd" clip-rule="evenodd" d="M30.989 37.1964C33.2617 37.2287 34.5759 37.2503 34.9206 37.2826C34.9636 39.1999 34.9744 40.1693 34.9744 40.1693C32.3893 40.2986 31.1721 40.3632 31.3014 40.3632C30.8705 38.6182 30.7628 37.5626 30.989 37.1964Z" fill="#E9EAEA"/>
<path fill-rule="evenodd" clip-rule="evenodd" d="M16.4585 37.1964C14.1858 37.2287 12.8717 37.2503 12.527 37.2826C12.4839 39.1999 12.4731 40.1693 12.4731 40.1693C15.0583 40.2986 16.2754 40.3632 16.1462 40.3632C16.5878 38.6182 16.6955 37.5626 16.4585 37.1964Z" fill="#E9EAEA"/>
<path fill-rule="evenodd" clip-rule="evenodd" d="M34.9313 37.9396C34.8666 33.8896 34.8343 31.8646 34.8451 31.8431C34.8343 31.1537 34.8343 30.7982 34.8343 30.7982C34.8343 30.6367 34.8343 30.5505 34.8343 30.5505C34.8882 30.3028 34.9205 30.0443 34.9313 29.7534C34.9744 28.9779 34.9097 28.547 34.7266 28.4501C34.5004 24.3785 34.1773 21.858 33.7572 20.8994C32.8093 20.4147 32.1954 20.1777 31.9261 20.1777C31.5491 19.8977 31.226 19.7576 30.9674 19.7576C26.1311 19.6392 23.7183 19.5853 23.7183 19.5853C23.7183 19.5853 21.2948 19.6392 16.4693 19.7576C16.2108 19.7576 15.8876 19.8977 15.5106 20.1777C15.2413 20.1777 14.6382 20.4147 13.6795 20.8994C13.2594 21.858 12.9363 24.3785 12.7101 28.4501C12.5377 28.547 12.4623 28.9779 12.5054 29.7534C12.5162 30.0443 12.5485 30.3028 12.6024 30.5505C12.6024 30.5505 12.6024 30.6367 12.6024 30.7982C12.6024 30.7982 12.6024 31.1429 12.5916 31.8431C12.5916 31.8646 12.5593 33.9004 12.5054 37.9396H34.9313Z" fill="#E9EAEA"/>
<path d="M15.6292 43.9714H12.861V48H15.6292V43.9714Z" fill="#393A39"/>
<path fill-rule="evenodd" clip-rule="evenodd" d="M12.5808 43.7452C12.5916 44.2084 12.5916 44.6715 12.5916 45.1347C14.7674 45.1455 15.8553 45.1563 15.8553 45.1563C15.8553 44.3377 15.8553 43.9283 15.8553 43.9283L12.5808 43.7452Z" fill="black"/>
<path d="M34.5866 43.9714H31.8184V48H34.5866V43.9714Z" fill="#393A39"/>
<path fill-rule="evenodd" clip-rule="evenodd" d="M34.8666 43.7452C34.8559 44.2084 34.8559 44.6715 34.8559 45.1347C32.6801 45.1455 31.5922 45.1563 31.5922 45.1563C31.5922 44.3377 31.5922 43.9283 31.5922 43.9283L34.8666 43.7452Z" fill="black"/>
<path fill-rule="evenodd" clip-rule="evenodd" d="M12.5162 37.9397H34.9421C34.9421 37.735 34.9313 37.5412 34.9313 37.3581C34.7051 37.3581 34.4897 37.3688 34.285 37.3688C33.6926 37.3796 33.2079 37.3904 32.8094 37.4011C32.0015 37.4119 31.603 37.4227 31.603 37.4227C31.6245 34.8483 31.6353 33.5665 31.6353 33.5665C31.6245 33.0926 31.4522 32.8556 31.1075 32.8341C29.2441 32.8772 27.3483 32.9095 25.4418 32.9203C25.5603 33.1034 25.668 33.2973 25.7542 33.5127C27.0252 33.4912 28.9101 33.4588 31.3875 33.4157C31.3983 34.3528 31.1829 34.8053 30.7197 34.7837C29.9011 34.816 29.4918 34.8376 29.4918 34.8376C29.481 34.5683 29.2979 34.439 28.9425 34.4498C27.5422 34.4713 26.422 34.4929 25.5818 34.5144C25.4418 34.7299 25.2695 34.9345 25.054 35.1068C24.6124 35.1391 24.1708 35.1499 23.7399 35.1499C23.2983 35.1499 22.8567 35.1284 22.4151 35.1068C22.1996 34.9237 22.0273 34.7299 21.8873 34.5144C21.0471 34.5037 19.9269 34.4821 18.5266 34.4498C18.182 34.439 17.9988 34.5683 17.9773 34.8376C17.9773 34.8376 17.568 34.816 16.7493 34.7837C16.2862 34.8053 16.06 34.3421 16.0815 33.4157C18.5589 33.4588 20.4439 33.4912 21.7149 33.5127C21.8011 33.308 21.9088 33.1034 22.0273 32.9203C20.1208 32.9095 18.2143 32.8772 16.3616 32.8341C16.0169 32.8449 15.8446 33.0926 15.8338 33.5665C15.8338 33.5665 15.8446 34.8483 15.8661 37.4227C15.8661 37.4227 15.4676 37.4119 14.6597 37.4011C14.2612 37.3904 13.7765 37.3796 13.1841 37.3688C12.9794 37.3688 12.764 37.3581 12.5378 37.3581C12.5162 37.5519 12.5162 37.7458 12.5162 37.9397Z" fill="#6A6C6C"/>
<path fill-rule="evenodd" clip-rule="evenodd" d="M31.6784 39.1461C31.6784 39.1461 31.6784 38.866 31.6892 38.3167C33.0248 38.2736 34.1019 38.1444 34.9421 37.9397H12.5162C13.3564 38.1444 14.4335 38.2736 15.7692 38.3167C15.7692 38.866 15.7799 39.1461 15.7799 39.1461C15.92 39.383 15.9738 39.6954 15.9415 40.0832C17.2771 40.137 18.5374 40.1478 19.7222 40.1263C22.3612 40.2017 25.1079 40.2017 27.7469 40.1263C28.9317 40.1478 30.1919 40.137 31.5276 40.0832C31.4845 39.6954 31.5384 39.383 31.6784 39.1461Z" fill="#6A6C6C"/>
<path fill-rule="evenodd" clip-rule="evenodd" d="M30.6121 44.187C32.8094 44.3055 34.2204 44.1547 34.8667 43.7346C34.9313 43.4976 34.9529 43.2822 34.9206 43.056C35.5238 42.7867 35.2975 40.4278 35.2975 39.8462C32.5078 40.0616 29.9873 40.1585 27.7469 40.1047C25.1079 40.1801 22.3612 40.1801 19.7222 40.1047C17.4818 40.1478 14.9613 40.0616 12.1716 39.8462C12.1716 40.4278 11.9346 42.7867 12.5486 43.056C12.5162 43.2714 12.527 43.4976 12.6024 43.7346C13.2487 44.1547 14.6597 44.3055 16.8571 44.187C21.2733 44.3593 26.1743 44.3593 30.6121 44.187Z" fill="#788482"/>
<path fill-rule="evenodd" clip-rule="evenodd" d="M23.7291 29.0209C21.3702 29.0424 18.1172 28.9563 14.0026 28.7839C13.7441 28.7624 13.5933 28.5793 13.561 28.2346C13.2378 25.8649 13.4425 23.4629 14.1749 21.1794C14.315 21.0502 14.5196 20.9747 14.7889 20.964C20.7454 20.8993 23.7291 20.8671 23.7291 20.8671C23.7291 20.8671 26.7127 20.8993 32.6693 20.964C32.9385 20.9747 33.1432 21.0394 33.2832 21.1794C34.0157 23.4522 34.2203 25.8649 33.8972 28.2346C33.8649 28.5793 33.7141 28.7624 33.4556 28.7839C29.3302 28.9671 26.088 29.0424 23.7291 29.0209Z" fill="#2B253B"/>
<path fill-rule="evenodd" clip-rule="evenodd" d="M14.649 37.4011C14.6382 36.9164 14.0135 35.8284 12.764 34.1373C12.6347 35.613 12.6886 36.6256 12.9256 37.1641C13.0548 37.2718 13.1302 37.3472 13.1733 37.3795L14.649 37.4011Z" fill="#FEC900"/>
<path fill-rule="evenodd" clip-rule="evenodd" d="M17.0186 44.1978C17.3848 45.1564 18.5158 45.5765 20.4223 45.4688C22.555 45.4688 23.6645 45.4688 23.7291 45.4688C23.7937 45.4688 24.8924 45.4688 27.0251 45.4688C28.9316 45.5872 30.0734 45.1672 30.4288 44.1978H17.0186Z" fill="#393A39"/>
<path fill-rule="evenodd" clip-rule="evenodd" d="M20.2823 44.2622H23.5461H23.7184H27.3591V45.6517H23.7184H23.5461H20.2823V44.2622Z" fill="black"/>
<path fill-rule="evenodd" clip-rule="evenodd" d="M15.4137 34.0296C15.4137 34.0296 15.4244 35.0529 15.4352 37.0886C15.4352 37.0886 15.306 36.9593 15.0474 36.7008C15.0474 36.7008 15.0043 35.3867 14.9289 32.7478C14.9289 31.6814 14.0565 31.4014 13.2594 30.8951C13.9488 31.1106 14.5843 31.3583 15.1552 31.6599C15.3706 31.983 15.4675 32.3708 15.446 32.7693L15.4137 34.0296Z" fill="#D4D5D5"/>
<path d="M11.493 22.3428H9.94189V26.2096H11.493V22.3428Z" fill="#010101"/>
<path d="M11.493 26.4467H9.94189V27.7284H11.493V26.4467Z" fill="#010101"/>
<path fill-rule="evenodd" clip-rule="evenodd" d="M13.2595 22.1488C13.1625 21.998 13.0117 21.8687 12.807 21.7718C12.5916 21.6641 12.3116 21.5994 11.9777 21.5564C11.7946 21.5456 11.6114 21.5456 11.4283 21.5456C11.256 21.5456 11.0729 21.5564 10.9005 21.5564C10.8467 21.5994 10.8144 21.6533 10.8144 21.7502L10.6636 28.0084C10.6851 28.0623 10.739 28.1161 10.8144 28.1592C10.9113 28.213 11.0514 28.2454 11.2237 28.2669L13.2271 28.2561V28.4931L11.2129 28.5039C11.0083 28.4823 10.8467 28.4392 10.7174 28.3638C10.5774 28.2884 10.4912 28.1915 10.4482 28.0623L10.4374 28.0407L10.5882 21.7502C10.5774 21.5563 10.6528 21.4164 10.8144 21.3302L10.8359 21.3194H10.8574C11.0406 21.3086 11.2344 21.3086 11.4283 21.2979C11.6222 21.2979 11.8053 21.2979 11.9992 21.3086H12.01C12.3762 21.3517 12.6778 21.4379 12.9148 21.5456C13.1625 21.6641 13.3456 21.8149 13.4641 22.0088L13.2595 22.1488Z" fill="#010101"/>
<path fill-rule="evenodd" clip-rule="evenodd" d="M23.7291 41.8602C23.7291 41.8602 26.0557 41.8279 30.6982 41.7741C32.5293 41.7956 33.3479 41.3647 33.154 40.4707C29.8149 40.6215 26.6697 40.6969 23.7184 40.6969C20.767 40.6969 17.6218 40.6215 14.2935 40.4707C14.0996 41.3647 14.9182 41.7956 16.7493 41.7741C21.4025 41.8279 23.7291 41.8602 23.7291 41.8602Z" fill="#2B253B"/>
<path fill-rule="evenodd" clip-rule="evenodd" d="M23.7291 34.5466C23.7291 34.5466 25.4632 34.5143 28.9316 34.4497C29.2763 34.4389 29.4594 34.5682 29.4809 34.8375C29.4809 34.8375 29.8903 34.8159 30.7089 34.7836C31.1721 34.8052 31.3982 34.342 31.3767 33.4156C26.2819 33.5018 23.7291 33.5449 23.7291 33.5449C23.7291 33.5449 21.1763 33.5018 16.0707 33.4156C16.0599 34.3528 16.2753 34.8052 16.7385 34.7836C17.5571 34.8159 17.9664 34.8375 17.9664 34.8375C17.9772 34.5682 18.1603 34.4389 18.5158 34.4497C21.9841 34.5143 23.7291 34.5466 23.7291 34.5466Z" fill="#E9EAEA"/>
<path fill-rule="evenodd" clip-rule="evenodd" d="M32.7986 37.4011C32.8094 36.9164 33.4341 35.8284 34.6836 34.1373C34.8128 35.613 34.7589 36.6256 34.522 37.1641C34.3927 37.2718 34.3173 37.3472 34.2742 37.3795L32.7986 37.4011Z" fill="#FEC900"/>
<path fill-rule="evenodd" clip-rule="evenodd" d="M32.0338 34.0296C32.0338 34.0296 32.023 35.0529 32.0123 37.0886C32.0123 37.0886 32.1415 36.9593 32.4 36.7008C32.4 36.7008 32.4431 35.3867 32.5185 32.7478C32.5185 31.6814 33.391 31.4014 34.188 30.8951C33.4987 31.1106 32.8632 31.3583 32.2923 31.6599C32.0769 31.983 31.9799 32.3708 32.0015 32.7693L32.0338 34.0296Z" fill="#D4D5D5"/>
<path d="M37.4949 22.3428H35.9438V26.2096H37.4949V22.3428Z" fill="#010101"/>
<path d="M37.4949 26.4467H35.9438V27.7284H37.4949V26.4467Z" fill="#010101"/>
<path fill-rule="evenodd" clip-rule="evenodd" d="M34.1881 22.1488C34.285 21.998 34.4358 21.8687 34.6405 21.7718C34.8559 21.6641 35.1359 21.5994 35.4698 21.5564C35.653 21.5456 35.8361 21.5456 36.0192 21.5456C36.1915 21.5456 36.3746 21.5564 36.547 21.5564C36.6008 21.5994 36.6332 21.6533 36.6332 21.7502L36.7839 28.0084C36.7624 28.0623 36.7086 28.1161 36.6332 28.1592C36.5362 28.213 36.3962 28.2454 36.2238 28.2669L34.2204 28.2561V28.4931L36.2346 28.5039C36.4393 28.4823 36.6008 28.4392 36.7301 28.3638C36.8701 28.2884 36.9563 28.1915 36.9994 28.0623L37.0101 28.0407L36.8593 21.7502C36.8701 21.5563 36.7947 21.4164 36.6332 21.3302L36.6116 21.3194H36.5901C36.407 21.3086 36.2131 21.3086 36.0192 21.2979C35.8253 21.2979 35.6422 21.2979 35.4483 21.3086H35.4375C35.0713 21.3517 34.7697 21.4379 34.5327 21.5456C34.285 21.6641 34.1019 21.8149 33.9834 22.0088L34.1881 22.1488Z" fill="#010101"/>
<path fill-rule="evenodd" clip-rule="evenodd" d="M23.7291 37.024C23.7291 37.024 25.4632 36.9916 28.9316 36.927C29.2763 36.9162 29.4594 37.0455 29.4809 37.3148C29.4809 37.3148 29.8903 37.2932 30.7089 37.2609C31.1721 37.2825 31.3982 36.8193 31.3767 35.8929C26.2819 35.9791 23.7291 36.0222 23.7291 36.0222C23.7291 36.0222 21.1763 35.9791 16.0707 35.8929C16.0599 36.8193 16.2753 37.2825 16.7385 37.2609C17.5571 37.2932 17.9664 37.3148 17.9664 37.3148C17.9772 37.0455 18.1603 36.9162 18.5158 36.927C21.9841 36.9916 23.7291 37.024 23.7291 37.024Z" fill="#E9EAEA"/>
<path fill-rule="evenodd" clip-rule="evenodd" d="M23.7291 39.383C23.7291 39.383 25.4632 39.3506 28.9316 39.286C29.2763 39.2753 29.4594 39.4045 29.4809 39.6738C29.4809 39.6738 29.8903 39.6522 30.7089 39.6199C31.1721 39.6415 31.3982 39.1783 31.3767 38.252C26.2819 38.3381 23.7291 38.3812 23.7291 38.3812C23.7291 38.3812 21.1763 38.3381 16.0707 38.252C16.0599 39.1891 16.2753 39.6415 16.7385 39.6199C17.5571 39.6522 17.9664 39.6738 17.9664 39.6738C17.9772 39.4045 18.1603 39.2753 18.5158 39.286C21.9841 39.3506 23.7291 39.383 23.7291 39.383Z" fill="#E9EAEA"/>
<path fill-rule="evenodd" clip-rule="evenodd" d="M23.7292 35.1498C23.2875 35.1498 22.8459 35.1283 22.4043 35.1068C21.9842 34.7513 21.7149 34.3312 21.5964 33.825C21.8011 33.1787 22.1458 32.6509 22.6305 32.2416C22.6305 32.2416 23.0075 32.2416 23.7399 32.2308C24.4724 32.2308 24.8386 32.2416 24.8386 32.2416C25.3233 32.6509 25.668 33.1787 25.8726 33.825C25.7542 34.3312 25.4741 34.7513 25.0648 35.1068C24.6124 35.1391 24.1708 35.1498 23.7292 35.1498Z" fill="#2B253B"/>
<path fill-rule="evenodd" clip-rule="evenodd" d="M15.7908 42.2589C13.8304 42.4097 12.1824 42.6035 12.5271 40.2877C12.9041 40.3308 13.281 40.3847 13.658 40.4493C16.5124 40.8479 16.2647 42.302 15.7908 42.2589Z" fill="white"/>
<path fill-rule="evenodd" clip-rule="evenodd" d="M31.6568 42.2589C33.6171 42.4097 35.2652 42.6035 34.9205 40.2877C34.5435 40.3308 34.1665 40.3847 33.7895 40.4493C30.9351 40.8479 31.1828 42.302 31.6568 42.2589Z" fill="white"/>
<path fill-rule="evenodd" clip-rule="evenodd" d="M23.783 33.6958C23.9769 33.6958 24.1708 33.6958 24.3647 33.6958C24.4401 33.6958 24.5047 33.6958 24.5801 33.6958C24.6448 33.6958 24.7202 33.6958 24.7848 33.6958C24.8817 33.6958 24.9894 33.6958 25.0756 33.7281C25.1187 33.7497 25.1295 33.7819 25.1402 33.825V33.8358C25.1402 33.9004 25.0971 33.9866 25.0648 34.0512C25.0217 34.1482 24.9463 34.2236 24.8709 34.299C24.7417 34.4282 24.4832 34.579 24.2031 34.6544C24.1708 34.6652 24.1169 34.6759 24.0846 34.6867C24.0523 34.6975 24.0631 34.7083 24.0846 34.7083C24.1277 34.7083 24.1816 34.6975 24.2139 34.6867C24.5263 34.6113 24.7525 34.4821 24.9033 34.3528C24.9894 34.2774 25.0864 34.1805 25.151 34.062C25.1941 33.9866 25.2372 33.8681 25.2372 33.825C25.2479 33.7712 25.248 33.7389 25.248 33.6419C25.2372 33.4911 25.1941 33.3619 25.0971 33.2218C25.0864 33.2111 25.0864 33.2003 25.0756 33.1895C25.0756 33.1895 25.0648 33.1788 25.0756 33.168C25.0864 33.168 25.0971 33.1788 25.0971 33.1788C25.1725 33.2649 25.2156 33.3295 25.248 33.4157C25.3018 33.5234 25.3126 33.6096 25.3234 33.7065C25.3234 33.7281 25.3449 33.7389 25.3449 33.7065C25.3449 33.5988 25.3233 33.4911 25.2803 33.3942C25.2264 33.2757 25.1725 33.2218 25.1079 33.1356C25.0217 33.0495 24.9248 32.9741 24.8279 32.9095C24.6771 32.8125 24.5155 32.7479 24.3432 32.694C24.2785 32.6725 24.2031 32.6618 24.1277 32.651C24.1062 32.651 24.0846 32.651 24.0523 32.651C24.0415 32.651 24.02 32.6725 24.0523 32.6725C24.0954 32.6832 24.1385 32.6941 24.1816 32.7048C24.3539 32.7479 24.5155 32.8233 24.6663 32.9095C24.7955 32.9849 24.8494 33.0279 25.0002 33.211C25.0217 33.2326 25.0541 33.2972 25.0756 33.3511C25.0864 33.3834 25.1079 33.4372 25.1079 33.4803C25.1079 33.5234 25.0971 33.545 25.0648 33.5665C25.0002 33.6096 24.9356 33.6096 24.8494 33.6096C24.7848 33.6096 24.7201 33.6096 24.6555 33.6204C24.5586 33.6204 24.4724 33.6204 24.3755 33.6311C24.1708 33.6311 23.9662 33.6419 23.7615 33.6419C23.74 33.6419 23.7184 33.6419 23.6969 33.6419C23.4922 33.6419 23.2768 33.6419 23.0722 33.6419C22.9752 33.6419 22.8783 33.6419 22.7921 33.6419C22.7275 33.6419 22.6628 33.6419 22.5982 33.6419C22.5013 33.6419 22.4474 33.6419 22.3828 33.5988C22.3505 33.5773 22.3397 33.5558 22.3397 33.5127C22.3397 33.4696 22.3612 33.4157 22.372 33.3834C22.3935 33.3296 22.4366 33.2649 22.4474 33.2434C22.5874 33.0603 22.652 33.0171 22.7705 32.931C22.9213 32.834 23.0829 32.7695 23.2553 32.7156C23.2983 32.7048 23.3414 32.694 23.3845 32.6833C23.4168 32.6725 23.406 32.6617 23.3845 32.6617C23.363 32.6617 23.3414 32.6617 23.3199 32.6617C23.2445 32.6725 23.1691 32.6833 23.1045 32.7048C22.9321 32.7587 22.7706 32.8233 22.6198 32.9203C22.5228 32.9849 22.4259 33.071 22.3397 33.1572C22.2751 33.2434 22.2212 33.308 22.1673 33.4265C22.1243 33.5234 22.1027 33.6419 22.1135 33.7388C22.1135 33.7711 22.135 33.7604 22.135 33.7388C22.1458 33.6419 22.1566 33.5558 22.1997 33.448C22.2427 33.3619 22.2751 33.2972 22.3505 33.211C22.3612 33.2003 22.372 33.1895 22.372 33.2003C22.372 33.211 22.372 33.2111 22.372 33.2218C22.3612 33.2326 22.3612 33.2434 22.3505 33.2542C22.2643 33.3942 22.2104 33.5234 22.2104 33.6742C22.2104 33.7604 22.2212 33.7927 22.2212 33.8466C22.232 33.8897 22.2751 34.0081 22.3182 34.0835C22.3828 34.1912 22.4797 34.2882 22.5659 34.3636C22.7167 34.4821 22.9429 34.6113 23.2553 34.6759C23.2983 34.6867 23.3414 34.6975 23.3845 34.6975C23.406 34.6975 23.4168 34.6867 23.3845 34.6759C23.3414 34.6652 23.2984 34.6544 23.266 34.6436C22.986 34.579 22.7275 34.4282 22.5982 34.299C22.5228 34.2236 22.4474 34.1482 22.3936 34.0512C22.3613 33.9866 22.3182 33.9112 22.3182 33.8358C22.3182 33.8358 22.3182 33.8358 22.3182 33.825C22.3289 33.7819 22.3397 33.7497 22.3828 33.7281C22.4582 33.685 22.5767 33.6958 22.6736 33.685C22.7382 33.685 22.8136 33.685 22.8783 33.685C22.9537 33.685 23.0183 33.685 23.0937 33.685C23.2876 33.685 23.4922 33.685 23.6861 33.6742C23.74 33.6957 23.7615 33.6958 23.783 33.6958ZM23.783 33.6311C23.7615 33.6311 23.74 33.6311 23.7184 33.6311C23.5784 33.6311 23.4384 33.6311 23.2983 33.6311C23.2014 33.6311 23.1044 33.6311 23.0075 33.6311C22.9213 33.6311 22.8352 33.6311 22.749 33.6204C22.6628 33.6204 22.5551 33.5988 22.5336 33.5881C22.5228 33.5773 22.5228 33.5665 22.5336 33.5557C22.5551 33.545 22.5767 33.5235 22.5982 33.5235C22.609 33.5235 22.6198 33.5235 22.6305 33.5235C22.6521 33.5342 22.6521 33.545 22.6736 33.545C22.7598 33.5665 22.8136 33.5773 22.9213 33.5773C22.9967 33.5881 23.0829 33.5881 23.1583 33.5881C23.3414 33.5881 23.4599 33.5881 23.7184 33.5881C23.74 33.5881 23.7615 33.5881 23.783 33.5881C24.0415 33.5881 24.1493 33.5881 24.3324 33.5773C24.4078 33.5773 24.494 33.5665 24.5694 33.5665C24.6771 33.5557 24.7309 33.545 24.8171 33.5235C24.8386 33.5127 24.8494 33.5127 24.8602 33.5019C24.8709 33.4911 24.8817 33.4911 24.8925 33.5019C24.914 33.5127 24.9356 33.5234 24.9571 33.5342C24.9679 33.5449 24.9787 33.5557 24.9571 33.5665C24.9356 33.5773 24.8279 33.5988 24.7417 33.5988C24.6555 33.6096 24.5694 33.6096 24.4832 33.6096C24.3863 33.6096 24.2893 33.6204 24.1924 33.6204C24.0523 33.6311 23.9123 33.6311 23.783 33.6311ZM23.7723 33.5557C24.0523 33.5557 24.3539 33.5558 24.6232 33.5235C24.7632 33.5127 24.7956 33.4373 24.8063 33.3834C24.8279 33.2219 24.5909 33.0172 24.4616 32.9525C24.2893 32.8664 24.1385 32.791 23.9446 32.7371C23.9231 32.7263 23.9015 32.7048 23.9015 32.6833C23.9015 32.6617 23.9338 32.6402 23.9554 32.6294C24.02 32.6186 24.0847 32.6186 24.1493 32.6294C24.257 32.6402 24.3539 32.6617 24.4616 32.694C24.6017 32.7371 24.7417 32.8017 24.8709 32.8771C25.0433 32.9848 25.1833 33.1141 25.291 33.2757C25.3664 33.3942 25.4203 33.5449 25.4203 33.6742C25.4203 33.8358 25.3664 33.9866 25.2695 34.1266C25.1833 34.2559 25.0648 34.3636 24.9464 34.4606C24.8279 34.5467 24.6986 34.6114 24.5694 34.6652C24.4509 34.7083 24.3324 34.7406 24.2031 34.7621C24.1277 34.7729 24.0523 34.7837 23.9662 34.7729C23.9446 34.7729 23.9123 34.7514 23.9123 34.7298C23.9123 34.7083 23.9231 34.6759 23.9446 34.6759C24.0093 34.6544 24.117 34.6221 24.2031 34.5898C24.3001 34.5467 24.4078 34.5036 24.4939 34.439C24.5801 34.3744 24.6771 34.3097 24.7309 34.2235C24.7632 34.1805 24.7955 34.1159 24.7955 34.062C24.7955 34.0297 24.7956 33.9974 24.7848 33.9758C24.7202 33.8789 24.5586 33.8789 24.4293 33.8789C24.3108 33.8789 24.2031 33.8788 24.0846 33.8681C23.9661 33.8681 23.8369 33.8681 23.7184 33.8681C23.5999 33.8681 23.4707 33.8681 23.3522 33.8789C23.2337 33.8789 23.126 33.8896 23.0075 33.8896C22.8782 33.9004 22.7167 33.8897 22.6521 33.9974C22.6413 34.0189 22.6413 34.062 22.6413 34.0943C22.6413 34.1374 22.6844 34.202 22.7167 34.2559C22.7813 34.3421 22.8675 34.4067 22.9644 34.4713C23.0614 34.536 23.1583 34.579 23.266 34.6221C23.3414 34.6544 23.4599 34.6867 23.5245 34.7083C23.5461 34.719 23.5676 34.7406 23.5568 34.7621C23.5568 34.7837 23.5245 34.8052 23.503 34.816C23.4276 34.8267 23.3522 34.8267 23.266 34.816C23.1476 34.7944 23.0183 34.7729 22.8998 34.7298C22.7706 34.676 22.6305 34.6114 22.512 34.536C22.3828 34.439 22.2643 34.342 22.1781 34.2128C22.092 34.0727 22.0273 33.922 22.0273 33.7604C22.0273 33.6311 22.0812 33.4803 22.1566 33.3619C22.2643 33.1895 22.4043 33.0603 22.5659 32.9525C22.6952 32.8664 22.8459 32.8018 22.9752 32.7587C23.0829 32.7264 23.1799 32.7048 23.2876 32.694C23.3522 32.6833 23.4168 32.6833 23.4814 32.694C23.503 32.694 23.5353 32.7263 23.5353 32.7479C23.5353 32.7694 23.5245 32.8017 23.4922 32.8125C23.2983 32.8664 23.1475 32.9418 22.9752 33.0387C22.8567 33.1034 22.6197 33.3188 22.6413 33.4803C22.6521 33.5234 22.6844 33.5988 22.8244 33.6096C23.1045 33.6311 23.406 33.6311 23.6861 33.6311C23.7292 33.5557 23.7507 33.5557 23.7723 33.5557Z" fill="#D4D5D5"/>
<path d="M47.4583 9.4281H0V17.5604H47.4583V9.4281Z" fill="#ED5758"/>
<path d="M31.3013 9.4281H16.1461V17.5389H31.3013V9.4281Z" fill="white"/>
</svg>
