<svg width="30" height="32" viewBox="0 0 30 32" fill="none" xmlns="http://www.w3.org/2000/svg">
<path d="M15 31.875C23.2843 31.875 30 25.1593 30 16.875C30 8.59073 23.2843 1.875 15 1.875C6.71573 1.875 0 8.59073 0 16.875C0 25.1593 6.71573 31.875 15 31.875Z" fill="#940A0A"/>
<path fill-rule="evenodd" clip-rule="evenodd" d="M26.2752 30.0003H3.37278C2.50435 30.0003 1.8042 29.2597 1.8042 28.3442V10.7533C1.8042 9.83771 2.50435 9.09717 3.37278 9.09717H26.2752C27.1437 9.09717 27.8438 9.83771 27.8438 10.7533V28.3442C27.8438 29.2597 27.1437 30.0003 26.2752 30.0003Z" fill="#E50B14"/>
<path fill-rule="evenodd" clip-rule="evenodd" d="M19.1459 4.68742C18.3785 4.92304 17.5706 5.05096 16.7763 5.18561C16.2983 5.26639 15.8068 5.27312 15.3221 5.30678C15.275 5.31351 15.2346 5.27984 15.2279 5.23271C15.2279 5.22598 15.2279 5.22599 15.2279 5.21926C15.652 3.90651 16.1906 2.64761 17.0859 1.57721C17.638 0.917467 18.3381 0.641446 19.1998 0.728963C20.0682 0.823211 20.7684 1.56376 20.7953 2.43219C20.8357 3.46893 20.2298 4.35755 19.1459 4.68742ZM14.3325 5.30678C13.8478 5.27312 13.3564 5.26639 12.8784 5.18561C12.084 5.05096 11.2761 4.92304 10.5087 4.68742C9.42483 4.35755 8.82568 3.47566 8.85261 2.43219C8.87954 1.56376 9.5864 0.823211 10.4481 0.728963C11.3031 0.641446 12.0099 0.917467 12.5552 1.57721C13.4506 2.64761 13.9892 3.90651 14.4133 5.21926C14.4133 5.22599 14.4133 5.22598 14.4133 5.23271C14.42 5.27311 14.3796 5.30678 14.3325 5.30678ZM21.3204 1.55701C20.7616 0.224065 19.1796 -0.361625 17.7524 0.230797C16.9917 0.547203 16.4666 1.12617 16.0559 1.79938C15.6183 2.52644 15.2413 3.29389 14.8307 4.04788C14.42 3.28716 14.043 2.52644 13.6054 1.79938C13.1948 1.11944 12.6697 0.540471 11.909 0.230797C10.4818 -0.361625 8.89973 0.224065 8.34097 1.55701C7.8024 2.84284 8.42176 4.4316 9.72105 5.11154C10.5154 5.52893 11.3839 5.69049 12.259 5.8184C12.8043 5.89919 13.3496 5.94633 13.9286 6.00692L14.8307 6.04057L15.7328 6.00692C16.3117 5.94633 16.857 5.89919 17.4023 5.8184C18.2775 5.69049 19.1459 5.52893 19.9403 5.11154C21.2396 4.4316 21.8522 2.84284 21.3204 1.55701Z" fill="#E50B14"/>
<path fill-rule="evenodd" clip-rule="evenodd" d="M19.3681 23.2476C20.7886 23.2678 21.6099 23.2812 21.8253 23.3014C21.8523 24.4997 21.859 25.1056 21.859 25.1056C20.2433 25.1864 19.4826 25.2268 19.5633 25.2268C19.2941 24.1362 19.2267 23.4764 19.3681 23.2476Z" fill="#E9EAEA"/>
<path fill-rule="evenodd" clip-rule="evenodd" d="M10.2865 23.2476C8.86606 23.2678 8.04475 23.2812 7.82933 23.3014C7.8024 24.4997 7.79565 25.1056 7.79565 25.1056C9.41135 25.1864 10.1721 25.2268 10.0913 25.2268C10.3673 24.1362 10.4346 23.4764 10.2865 23.2476Z" fill="#E9EAEA"/>
<path fill-rule="evenodd" clip-rule="evenodd" d="M21.8321 23.7121C21.7917 21.1809 21.7715 19.9153 21.7782 19.9018C21.7715 19.471 21.7715 19.2488 21.7715 19.2488C21.7715 19.1478 21.7715 19.094 21.7715 19.094C21.8051 18.9391 21.8253 18.7776 21.8321 18.5958C21.859 18.1111 21.8186 17.8418 21.7041 17.7812C21.5628 15.2365 21.3608 13.6612 21.0983 13.062C20.5058 12.7591 20.1221 12.611 19.9538 12.611C19.7182 12.4359 19.5162 12.3484 19.3547 12.3484C16.332 12.2744 14.824 12.2407 14.824 12.2407C14.824 12.2407 13.3093 12.2744 10.2933 12.3484C10.1317 12.3484 9.92977 12.4359 9.69415 12.611C9.52585 12.611 9.14887 12.7591 8.54971 13.062C8.28716 13.6612 8.08518 15.2365 7.94381 17.7812C7.8361 17.8418 7.78897 18.1111 7.8159 18.5958C7.82263 18.7776 7.84284 18.9391 7.87651 19.094C7.87651 19.094 7.87651 19.1478 7.87651 19.2488C7.87651 19.2488 7.8765 19.4642 7.86977 19.9018C7.86977 19.9153 7.84956 21.1876 7.8159 23.7121H21.8321Z" fill="#E9EAEA"/>
<path d="M9.76823 27.4819H8.03809V29.9998H9.76823V27.4819Z" fill="#393A39"/>
<path fill-rule="evenodd" clip-rule="evenodd" d="M7.86292 27.3408C7.86965 27.6303 7.86965 27.9198 7.86965 28.2092C9.22953 28.216 9.90947 28.2227 9.90947 28.2227C9.90947 27.7111 9.90947 27.4553 9.90947 27.4553L7.86292 27.3408Z" fill="black"/>
<path d="M21.6165 27.4819H19.8864V29.9998H21.6165V27.4819Z" fill="#393A39"/>
<path fill-rule="evenodd" clip-rule="evenodd" d="M21.7915 27.3408C21.7848 27.6303 21.7848 27.9198 21.7848 28.2092C20.4249 28.216 19.745 28.2227 19.745 28.2227C19.745 27.7111 19.745 27.4553 19.745 27.4553L21.7915 27.3408Z" fill="black"/>
<path fill-rule="evenodd" clip-rule="evenodd" d="M7.82263 23.712H21.8388C21.8388 23.5841 21.8321 23.4629 21.8321 23.3485C21.6907 23.3485 21.556 23.3552 21.4281 23.3552C21.0579 23.3619 20.7549 23.3687 20.5058 23.3754C20.0009 23.3821 19.7518 23.3889 19.7518 23.3889C19.7653 21.7799 19.772 20.9788 19.772 20.9788C19.7653 20.6826 19.6576 20.5345 19.4422 20.521C18.2775 20.5479 17.0927 20.5681 15.9011 20.5749C15.9752 20.6893 16.0425 20.8105 16.0963 20.9451C16.8907 20.9317 18.0688 20.9114 19.6172 20.8845C19.6239 21.4702 19.4893 21.753 19.1998 21.7395C18.6882 21.7597 18.4324 21.7731 18.4324 21.7731C18.4256 21.6048 18.3112 21.5241 18.089 21.5308C17.2139 21.5443 16.5137 21.5577 15.9886 21.5712C15.9011 21.7058 15.7934 21.8337 15.6588 21.9415C15.3827 21.9616 15.1067 21.9684 14.8374 21.9684C14.5614 21.9684 14.2854 21.9549 14.0094 21.9415C13.8748 21.827 13.7671 21.7058 13.6795 21.5712C13.1544 21.5645 12.4543 21.551 11.5791 21.5308C11.3637 21.5241 11.2493 21.6048 11.2358 21.7731C11.2358 21.7731 10.98 21.7597 10.4683 21.7395C10.1788 21.753 10.0375 21.4635 10.0509 20.8845C11.5993 20.9114 12.7774 20.9317 13.5718 20.9451C13.6257 20.8172 13.693 20.6893 13.7671 20.5749C12.5755 20.5681 11.3839 20.5479 10.226 20.521C10.0106 20.5277 9.90285 20.6826 9.89612 20.9788C9.89612 20.9788 9.90285 21.7799 9.91631 23.3889C9.91631 23.3889 9.66721 23.3821 9.16231 23.3754C8.91322 23.3687 8.61028 23.3619 8.24002 23.3552C8.11211 23.3552 7.97746 23.3485 7.83609 23.3485C7.82262 23.4696 7.82263 23.5908 7.82263 23.712Z" fill="#6A6C6C"/>
<path fill-rule="evenodd" clip-rule="evenodd" d="M19.799 24.4659C19.799 24.4659 19.799 24.2909 19.8057 23.9475C20.6405 23.9206 21.3137 23.8398 21.8388 23.7119H7.82263C8.34773 23.8398 9.02093 23.9206 9.85571 23.9475C9.85571 24.2909 9.86245 24.4659 9.86245 24.4659C9.94996 24.614 9.98362 24.8092 9.96342 25.0516C10.7982 25.0852 11.5859 25.092 12.3264 25.0785C13.9757 25.1257 15.6924 25.1257 17.3418 25.0785C18.0823 25.092 18.8699 25.0852 19.7047 25.0516C19.6778 24.8092 19.7115 24.614 19.799 24.4659Z" fill="#6A6C6C"/>
<path fill-rule="evenodd" clip-rule="evenodd" d="M19.1325 27.6168C20.5059 27.6909 21.3877 27.5966 21.7917 27.3341C21.8321 27.186 21.8455 27.0513 21.8253 26.91C22.2023 26.7416 22.0609 25.2673 22.0609 24.9038C20.3173 25.0384 18.7421 25.099 17.3418 25.0654C15.6924 25.1125 13.9757 25.1125 12.3264 25.0654C10.9261 25.0923 9.35081 25.0384 7.60721 24.9038C7.60721 25.2673 7.45911 26.7416 7.84283 26.91C7.82264 27.0446 7.82938 27.186 7.87651 27.3341C8.28043 27.5966 9.16232 27.6909 10.5357 27.6168C13.2958 27.7245 16.3589 27.7245 19.1325 27.6168Z" fill="#788482"/>
<path fill-rule="evenodd" clip-rule="evenodd" d="M14.8307 18.1376C13.3564 18.1511 11.3233 18.0973 8.75169 17.9896C8.59012 17.9761 8.49587 17.8616 8.47567 17.6462C8.27371 16.1652 8.40162 14.6639 8.8594 13.2367C8.94692 13.1559 9.07483 13.1088 9.24314 13.1021C12.966 13.0617 14.8307 13.0415 14.8307 13.0415C14.8307 13.0415 16.6955 13.0617 20.4183 13.1021C20.5866 13.1088 20.7146 13.1492 20.8021 13.2367C21.2599 14.6572 21.3878 16.1652 21.1858 17.6462C21.1656 17.8616 21.0714 17.9761 20.9098 17.9896C18.3314 18.104 16.3051 18.1511 14.8307 18.1376Z" fill="#2B253B"/>
<path fill-rule="evenodd" clip-rule="evenodd" d="M9.15557 23.3753C9.14884 23.0723 8.75838 22.3924 7.97746 21.3354C7.89668 22.2577 7.93033 22.8906 8.07844 23.2272C8.15922 23.2945 8.20636 23.3416 8.23328 23.3618L9.15557 23.3753Z" fill="#FEC900"/>
<path fill-rule="evenodd" clip-rule="evenodd" d="M10.6366 27.623C10.8655 28.2222 11.5724 28.4847 12.7639 28.4174C14.0969 28.4174 14.7903 28.4174 14.8307 28.4174C14.8711 28.4174 15.5577 28.4174 16.8907 28.4174C18.0823 28.4915 18.7959 28.2289 19.018 27.623H10.6366Z" fill="#393A39"/>
<path fill-rule="evenodd" clip-rule="evenodd" d="M12.6764 27.6636H14.7162H14.8239H17.0994V28.532H14.8239H14.7162H12.6764V27.6636Z" fill="black"/>
<path fill-rule="evenodd" clip-rule="evenodd" d="M9.63352 21.2686C9.63352 21.2686 9.64025 21.9081 9.64698 23.1805C9.64698 23.1805 9.5662 23.0997 9.40463 22.9381C9.40463 22.9381 9.3777 22.1168 9.33057 20.4675C9.33057 19.801 8.78528 19.626 8.28711 19.3096C8.71796 19.4442 9.11516 19.599 9.47196 19.7875C9.6066 19.9895 9.66718 20.2319 9.65372 20.4809L9.63352 21.2686Z" fill="#D4D5D5"/>
<path d="M7.18304 13.9644H6.21362V16.3811H7.18304V13.9644Z" fill="#010101"/>
<path d="M7.18304 16.5288H6.21362V17.3299H7.18304V16.5288Z" fill="#010101"/>
<path fill-rule="evenodd" clip-rule="evenodd" d="M8.28711 13.8429C8.22652 13.7486 8.13227 13.6678 8.00436 13.6072C7.86972 13.5399 7.69469 13.4995 7.486 13.4726C7.37155 13.4659 7.2571 13.4659 7.14265 13.4659C7.03494 13.4659 6.9205 13.4726 6.81279 13.4726C6.77913 13.4995 6.75894 13.5332 6.75894 13.5938L6.66468 17.5051C6.67815 17.5388 6.71182 17.5724 6.75894 17.5994C6.81953 17.633 6.90705 17.6532 7.01476 17.6667L8.26692 17.66V17.808L7.00802 17.8148C6.88012 17.8013 6.77914 17.7744 6.69836 17.7273C6.61084 17.6801 6.55698 17.6196 6.53005 17.5388L6.52332 17.5253L6.61755 13.5938C6.61082 13.4726 6.65796 13.3851 6.75894 13.3313L6.7724 13.3245H6.78586C6.9003 13.3178 7.02148 13.3178 7.14265 13.311C7.26383 13.311 7.37828 13.311 7.49945 13.3178H7.50619C7.73508 13.3447 7.92358 13.3986 8.07168 13.4659C8.22652 13.54 8.34097 13.6342 8.41502 13.7554L8.28711 13.8429Z" fill="#010101"/>
<path fill-rule="evenodd" clip-rule="evenodd" d="M14.8307 26.1624C14.8307 26.1624 16.2848 26.1422 19.1864 26.1085C20.3308 26.122 20.8424 25.8527 20.7213 25.2939C18.6343 25.3882 16.6686 25.4353 14.824 25.4353C12.9794 25.4353 11.0136 25.3882 8.93342 25.2939C8.81224 25.8527 9.32388 26.122 10.4683 26.1085C13.3766 26.1422 14.8307 26.1624 14.8307 26.1624Z" fill="#2B253B"/>
<path fill-rule="evenodd" clip-rule="evenodd" d="M14.8307 21.5911C14.8307 21.5911 15.9145 21.571 18.0822 21.5306C18.2977 21.5238 18.4121 21.6046 18.4256 21.7729C18.4256 21.7729 18.6814 21.7595 19.1931 21.7393C19.4825 21.7527 19.6239 21.4632 19.6104 20.8843C16.4262 20.9381 14.8307 20.9651 14.8307 20.9651C14.8307 20.9651 13.2352 20.9381 10.0442 20.8843C10.0375 21.47 10.1721 21.7527 10.4616 21.7393C10.9732 21.7595 11.229 21.7729 11.229 21.7729C11.2357 21.6046 11.3502 21.5238 11.5724 21.5306C13.7401 21.571 14.8307 21.5911 14.8307 21.5911Z" fill="#E9EAEA"/>
<path fill-rule="evenodd" clip-rule="evenodd" d="M20.4991 23.3753C20.5059 23.0723 20.8963 22.3924 21.6773 21.3354C21.758 22.2577 21.7244 22.8906 21.5763 23.2272C21.4955 23.2945 21.4484 23.3416 21.4214 23.3618L20.4991 23.3753Z" fill="#FEC900"/>
<path fill-rule="evenodd" clip-rule="evenodd" d="M20.0212 21.2686C20.0212 21.2686 20.0145 21.9081 20.0077 23.1805C20.0077 23.1805 20.0885 23.0997 20.2501 22.9381C20.2501 22.9381 20.277 22.1168 20.3241 20.4675C20.3241 19.801 20.8694 19.626 21.3676 19.3096C20.9367 19.4442 20.5396 19.599 20.1828 19.7875C20.0481 19.9895 19.9875 20.2319 20.001 20.4809L20.0212 21.2686Z" fill="#D4D5D5"/>
<path d="M23.4343 13.9644H22.4648V16.3811H23.4343V13.9644Z" fill="#010101"/>
<path d="M23.4343 16.5288H22.4648V17.3299H23.4343V16.5288Z" fill="#010101"/>
<path fill-rule="evenodd" clip-rule="evenodd" d="M21.3675 13.8429C21.4281 13.7486 21.5224 13.6678 21.6503 13.6072C21.7849 13.5399 21.96 13.4995 22.1687 13.4726C22.2831 13.4659 22.3975 13.4659 22.512 13.4659C22.6197 13.4659 22.7341 13.4726 22.8419 13.4726C22.8755 13.4995 22.8957 13.5332 22.8957 13.5938L22.99 17.5051C22.9765 17.5388 22.9429 17.5724 22.8957 17.5994C22.8351 17.633 22.7476 17.6532 22.6399 17.6667L21.3877 17.66V17.808L22.6466 17.8148C22.7745 17.8013 22.8755 17.7744 22.9563 17.7273C23.0438 17.6801 23.0977 17.6196 23.1246 17.5388L23.1313 17.5253L23.0371 13.5938C23.0438 13.4726 22.9967 13.3851 22.8957 13.3313L22.8822 13.3245H22.8688C22.7543 13.3178 22.6332 13.3178 22.512 13.311C22.3908 13.311 22.2764 13.311 22.1552 13.3178H22.1485C21.9196 13.3447 21.7311 13.3986 21.583 13.4659C21.4281 13.54 21.3137 13.6342 21.2396 13.7554L21.3675 13.8429Z" fill="#010101"/>
<path fill-rule="evenodd" clip-rule="evenodd" d="M14.8307 23.14C14.8307 23.14 15.9145 23.1198 18.0822 23.0794C18.2977 23.0727 18.4121 23.1534 18.4256 23.3217C18.4256 23.3217 18.6814 23.3083 19.1931 23.2881C19.4825 23.3016 19.6239 23.0121 19.6104 22.4331C16.4262 22.487 14.8307 22.5139 14.8307 22.5139C14.8307 22.5139 13.2352 22.487 10.0442 22.4331C10.0375 23.0121 10.1721 23.3016 10.4616 23.2881C10.9732 23.3083 11.229 23.3217 11.229 23.3217C11.2357 23.1534 11.3502 23.0727 11.5724 23.0794C13.7401 23.1198 14.8307 23.14 14.8307 23.14Z" fill="#E9EAEA"/>
<path fill-rule="evenodd" clip-rule="evenodd" d="M14.8307 24.6141C14.8307 24.6141 15.9145 24.5939 18.0822 24.5535C18.2977 24.5468 18.4121 24.6276 18.4256 24.7959C18.4256 24.7959 18.6814 24.7824 19.1931 24.7622C19.4825 24.7757 19.6239 24.4862 19.6104 23.9072C16.4262 23.9611 14.8307 23.988 14.8307 23.988C14.8307 23.988 13.2352 23.9611 10.0442 23.9072C10.0375 24.4929 10.1721 24.7757 10.4616 24.7622C10.9732 24.7824 11.229 24.7959 11.229 24.7959C11.2357 24.6276 11.3502 24.5468 11.5724 24.5535C13.7401 24.5939 14.8307 24.6141 14.8307 24.6141Z" fill="#E9EAEA"/>
<path fill-rule="evenodd" clip-rule="evenodd" d="M14.8306 21.9684C14.5546 21.9684 14.2786 21.955 14.0026 21.9415C13.74 21.7193 13.5717 21.4568 13.4977 21.1404C13.6256 20.7365 13.841 20.4066 14.144 20.1508C14.144 20.1508 14.3796 20.1508 14.8374 20.144C15.2952 20.144 15.524 20.1508 15.524 20.1508C15.827 20.4066 16.0424 20.7365 16.1703 21.1404C16.0963 21.4568 15.9212 21.7193 15.6654 21.9415C15.3827 21.9617 15.1067 21.9684 14.8306 21.9684Z" fill="#2B253B"/>
<path fill-rule="evenodd" clip-rule="evenodd" d="M9.86914 26.4112C8.6439 26.5054 7.6139 26.6266 7.82933 25.1792C8.06495 25.2061 8.30056 25.2398 8.53618 25.2802C10.3202 25.5293 10.1654 26.4381 9.86914 26.4112Z" fill="white"/>
<path fill-rule="evenodd" clip-rule="evenodd" d="M19.7854 26.4112C21.0107 26.5054 22.0407 26.6266 21.8253 25.1792C21.5896 25.2061 21.354 25.2398 21.1184 25.2802C19.3344 25.5293 19.4892 26.4381 19.7854 26.4112Z" fill="white"/>
<path fill-rule="evenodd" clip-rule="evenodd" d="M14.8643 21.0597C14.9855 21.0597 15.1066 21.0597 15.2278 21.0597C15.2749 21.0597 15.3153 21.0597 15.3625 21.0597C15.4029 21.0597 15.45 21.0597 15.4904 21.0597C15.551 21.0597 15.6183 21.0597 15.6721 21.0799C15.6991 21.0934 15.7058 21.1136 15.7125 21.1405V21.1472C15.7125 21.1876 15.6856 21.2415 15.6654 21.2819C15.6385 21.3425 15.5913 21.3896 15.5442 21.4367C15.4634 21.5175 15.3019 21.6117 15.1268 21.6589C15.1066 21.6656 15.073 21.6723 15.0528 21.679C15.0326 21.6858 15.0393 21.6925 15.0528 21.6925C15.0797 21.6925 15.1134 21.6858 15.1336 21.679C15.3288 21.6319 15.4702 21.5511 15.5644 21.4703C15.6183 21.4232 15.6789 21.3627 15.7193 21.2886C15.7462 21.2415 15.7731 21.1674 15.7731 21.1405C15.7798 21.1068 15.7798 21.0866 15.7798 21.026C15.7731 20.9318 15.7462 20.851 15.6856 20.7635C15.6789 20.7568 15.6789 20.75 15.6721 20.7433C15.6721 20.7433 15.6654 20.7366 15.6721 20.7298C15.6789 20.7298 15.6856 20.7366 15.6856 20.7366C15.7327 20.7904 15.7597 20.8308 15.7798 20.8847C15.8135 20.952 15.8202 21.0059 15.827 21.0664C15.827 21.0799 15.8404 21.0866 15.8404 21.0664C15.8404 20.9991 15.827 20.9318 15.8 20.8712C15.7664 20.7972 15.7327 20.7635 15.6923 20.7096C15.6385 20.6558 15.5779 20.6087 15.5173 20.5683C15.423 20.5077 15.3221 20.4673 15.2144 20.4336C15.174 20.4202 15.1268 20.4134 15.0797 20.4067C15.0662 20.4067 15.0528 20.4067 15.0326 20.4067C15.0258 20.4067 15.0124 20.4201 15.0326 20.4201C15.0595 20.4269 15.0865 20.4336 15.1134 20.4404C15.2211 20.4673 15.3221 20.5144 15.4163 20.5683C15.4971 20.6154 15.5308 20.6423 15.625 20.7567C15.6385 20.7702 15.6587 20.8106 15.6721 20.8443C15.6789 20.8645 15.6923 20.8981 15.6923 20.9251C15.6923 20.952 15.6856 20.9655 15.6654 20.9789C15.625 21.0058 15.5846 21.0058 15.5308 21.0058C15.4904 21.0058 15.45 21.0058 15.4096 21.0126C15.349 21.0126 15.2951 21.0126 15.2346 21.0193C15.1066 21.0193 14.9787 21.026 14.8508 21.026C14.8374 21.026 14.8239 21.026 14.8104 21.026C14.6825 21.026 14.5479 21.026 14.42 21.026C14.3594 21.026 14.2988 21.026 14.2449 21.026C14.2045 21.026 14.1642 21.026 14.1238 21.026C14.0632 21.026 14.0295 21.026 13.9891 20.9991C13.9689 20.9856 13.9622 20.9722 13.9622 20.9453C13.9622 20.9183 13.9756 20.8847 13.9824 20.8645C13.9958 20.8308 14.0228 20.7904 14.0295 20.777C14.117 20.6625 14.1574 20.6356 14.2315 20.5817C14.3257 20.5211 14.4267 20.4808 14.5344 20.4471C14.5613 20.4404 14.5883 20.4336 14.6152 20.4269C14.6354 20.4202 14.6287 20.4134 14.6152 20.4134C14.6017 20.4134 14.5883 20.4134 14.5748 20.4134C14.5277 20.4201 14.4806 20.4269 14.4402 20.4404C14.3325 20.474 14.2315 20.5144 14.1372 20.575C14.0766 20.6154 14.016 20.6692 13.9622 20.7231C13.9218 20.777 13.8881 20.8173 13.8545 20.8914C13.8275 20.952 13.8141 21.026 13.8208 21.0866C13.8208 21.1068 13.8343 21.1001 13.8343 21.0866C13.841 21.026 13.8477 20.9722 13.8747 20.9049C13.9016 20.851 13.9218 20.8106 13.9689 20.7567C13.9757 20.75 13.9824 20.7433 13.9824 20.75C13.9824 20.7567 13.9824 20.7568 13.9824 20.7635C13.9756 20.7702 13.9757 20.777 13.9689 20.7837C13.9151 20.8712 13.8814 20.952 13.8814 21.0462C13.8814 21.1001 13.8881 21.1203 13.8881 21.154C13.8949 21.1809 13.9218 21.2549 13.9487 21.302C13.9891 21.3694 14.0497 21.43 14.1036 21.4771C14.1978 21.5511 14.3392 21.6319 14.5344 21.6723C14.5613 21.679 14.5883 21.6858 14.6152 21.6858C14.6287 21.6858 14.6354 21.679 14.6152 21.6723C14.5883 21.6656 14.5613 21.6589 14.5412 21.6521C14.3661 21.6117 14.2046 21.5175 14.1238 21.4367C14.0766 21.3896 14.0295 21.3425 13.9959 21.2819C13.9757 21.2415 13.9487 21.1943 13.9487 21.1472C13.9487 21.1472 13.9487 21.1472 13.9487 21.1405C13.9555 21.1136 13.9622 21.0934 13.9891 21.0799C14.0362 21.053 14.1103 21.0597 14.1709 21.053C14.2113 21.053 14.2584 21.053 14.2988 21.053C14.3459 21.053 14.3863 21.053 14.4334 21.053C14.5546 21.053 14.6825 21.053 14.8037 21.0462C14.8374 21.0597 14.8508 21.0597 14.8643 21.0597ZM14.8643 21.0193C14.8508 21.0193 14.8374 21.0193 14.8239 21.0193C14.7364 21.0193 14.6489 21.0193 14.5613 21.0193C14.5008 21.0193 14.4402 21.0193 14.3796 21.0193C14.3257 21.0193 14.2719 21.0193 14.218 21.0126C14.1641 21.0126 14.0968 20.9991 14.0834 20.9924C14.0766 20.9857 14.0766 20.9789 14.0834 20.9722C14.0968 20.9654 14.1103 20.952 14.1238 20.952C14.1305 20.952 14.1372 20.952 14.144 20.952C14.1574 20.9587 14.1574 20.9654 14.1709 20.9654C14.2247 20.9789 14.2584 20.9857 14.3257 20.9857C14.3728 20.9924 14.4267 20.9924 14.4738 20.9924C14.5883 20.9924 14.6623 20.9924 14.8239 20.9924C14.8374 20.9924 14.8508 20.9924 14.8643 20.9924C15.0258 20.9924 15.0932 20.9924 15.2076 20.9857C15.2547 20.9857 15.3086 20.9789 15.3557 20.9789C15.423 20.9722 15.4567 20.9655 15.5106 20.952C15.524 20.9453 15.5308 20.9453 15.5375 20.9385C15.5442 20.9318 15.5509 20.9318 15.5577 20.9385C15.5711 20.9453 15.5846 20.952 15.5981 20.9587C15.6048 20.9654 15.6116 20.9722 15.5981 20.9789C15.5846 20.9857 15.5173 20.9991 15.4634 20.9991C15.4096 21.0058 15.3557 21.0058 15.3019 21.0058C15.2413 21.0058 15.1807 21.0126 15.1201 21.0126C15.0326 21.0193 14.9451 21.0193 14.8643 21.0193ZM14.8576 20.9722C15.0326 20.9722 15.2211 20.9722 15.3894 20.952C15.4769 20.9453 15.4971 20.8981 15.5038 20.8645C15.5173 20.7635 15.3692 20.6356 15.2884 20.5952C15.1807 20.5413 15.0865 20.4942 14.9653 20.4605C14.9518 20.4538 14.9383 20.4403 14.9383 20.4269C14.9383 20.4134 14.9585 20.4 14.972 20.3932C15.0124 20.3865 15.0528 20.3865 15.0932 20.3932C15.1605 20.4 15.2211 20.4134 15.2884 20.4336C15.3759 20.4606 15.4634 20.5009 15.5442 20.5481C15.6519 20.6154 15.7395 20.6962 15.8068 20.7971C15.8539 20.8712 15.8876 20.9654 15.8876 21.0462C15.8876 21.1472 15.8539 21.2415 15.7933 21.329C15.7394 21.4098 15.6654 21.4771 15.5914 21.5377C15.5173 21.5915 15.4365 21.6319 15.3557 21.6656C15.2817 21.6925 15.2076 21.7127 15.1268 21.7262C15.0797 21.7329 15.0326 21.7396 14.9787 21.7329C14.9653 21.7329 14.9451 21.7195 14.9451 21.706C14.9451 21.6925 14.9518 21.6723 14.9653 21.6723C15.0057 21.6588 15.073 21.6387 15.1268 21.6185C15.1874 21.5915 15.2547 21.5646 15.3086 21.5242C15.3625 21.4838 15.423 21.4434 15.4567 21.3896C15.4769 21.3626 15.4971 21.3223 15.4971 21.2886C15.4971 21.2684 15.4971 21.2482 15.4904 21.2347C15.45 21.1742 15.349 21.1741 15.2682 21.1741C15.1942 21.1741 15.1268 21.1741 15.0528 21.1674C14.9787 21.1674 14.8979 21.1674 14.8239 21.1674C14.7498 21.1674 14.6691 21.1674 14.595 21.1741C14.5209 21.1741 14.4536 21.1809 14.3796 21.1809C14.2988 21.1876 14.1978 21.1809 14.1574 21.2482C14.1507 21.2617 14.1507 21.2886 14.1507 21.3088C14.1507 21.3357 14.1776 21.3761 14.1978 21.4098C14.2382 21.4636 14.2921 21.504 14.3527 21.5444C14.4132 21.5848 14.4738 21.6117 14.5412 21.6386C14.5883 21.6588 14.6623 21.6791 14.7027 21.6925C14.7162 21.6992 14.7296 21.7127 14.7229 21.7262C14.7229 21.7396 14.7027 21.7531 14.6893 21.7598C14.6421 21.7666 14.595 21.7666 14.5412 21.7598C14.4671 21.7464 14.3863 21.7329 14.3123 21.706C14.2315 21.6723 14.144 21.6319 14.0699 21.5848C13.9891 21.5242 13.9151 21.4636 13.8612 21.3828C13.8073 21.2953 13.767 21.2011 13.767 21.1001C13.767 21.0193 13.8006 20.9251 13.8477 20.851C13.9151 20.7433 14.0026 20.6625 14.1036 20.5952C14.1844 20.5413 14.2786 20.5009 14.3594 20.474C14.4267 20.4538 14.4873 20.4404 14.5546 20.4336C14.595 20.4269 14.6354 20.4269 14.6758 20.4336C14.6892 20.4336 14.7095 20.4538 14.7095 20.4673C14.7095 20.4807 14.7027 20.5009 14.6825 20.5077C14.5613 20.5413 14.4671 20.5885 14.3594 20.6491C14.2853 20.6894 14.1372 20.8241 14.1507 20.9251C14.1574 20.952 14.1776 20.9991 14.2651 21.0058C14.4402 21.0193 14.6287 21.0193 14.8037 21.0193C14.8306 20.9722 14.8441 20.9722 14.8576 20.9722Z" fill="#D4D5D5"/>
<path d="M29.6615 5.89258H0V10.9753H29.6615V5.89258Z" fill="#ED5758"/>
<path d="M19.5633 5.89258H10.0913V10.9618H19.5633V5.89258Z" fill="white"/>
</svg>
