<svg width="48" height="48" viewBox="0 0 48 48" fill="none" xmlns="http://www.w3.org/2000/svg">
<path d="M24 48C37.2548 48 48 37.2548 48 24C48 10.7452 37.2548 0 24 0C10.7452 0 0 10.7452 0 24C0 37.2548 10.7452 48 24 48Z" fill="#99B8D1"/>
<path d="M2.79907 22.3578V25.6318C2.79907 25.9273 3.01169 26.1832 3.3081 26.2292L6.94427 26.8085C7.14158 27.9454 7.42988 29.0428 7.83259 30.0879L4.96312 32.415C4.73518 32.5925 4.67482 32.9213 4.81897 33.1781L6.45867 36.0169C6.61093 36.2737 6.91454 36.3854 7.18753 36.28L10.6417 34.952C11.3634 35.8322 12.1679 36.634 13.0409 37.3575L11.7201 40.8027C11.6138 41.0784 11.7273 41.3874 11.9859 41.5387L14.8256 43.1757C15.0761 43.3208 15.4022 43.2676 15.5851 43.0307L17.9077 40.172C18.9555 40.5657 20.0565 40.863 21.1872 41.0468L21.7719 44.6875C21.8097 44.9839 22.0683 45.201 22.3638 45.201H25.6441C25.9405 45.201 26.1909 44.9839 26.2288 44.6875L26.8135 41.0468C27.9451 40.863 29.0379 40.5657 30.0929 40.172L32.4083 43.0307C32.6056 43.2676 32.9245 43.3208 33.175 43.1757L36.0219 41.5387C36.2724 41.3874 36.3787 41.0784 36.2805 40.8027L34.9597 37.3575C35.8327 36.6349 36.6373 35.8331 37.3589 34.952L40.8059 36.28C41.087 36.3845 41.3906 36.2728 41.5348 36.0169L43.1817 33.1781C43.3258 32.9213 43.2655 32.5925 43.0375 32.415L40.168 30.0879C40.5627 29.0428 40.8591 27.9454 41.0483 26.8085L44.6997 26.2292C44.988 26.1832 45.2007 25.9273 45.2007 25.6318V22.3578C45.2007 22.0614 44.988 21.8119 44.6997 21.7659L41.0483 21.1875C40.8582 20.0578 40.5627 18.9595 40.168 17.9072L43.0375 15.5882C43.2655 15.3972 43.3258 15.0693 43.1817 14.8125L41.5348 11.98C41.3906 11.7295 41.087 11.6106 40.8059 11.7232L37.3589 13.0377C36.6382 12.1629 35.8327 11.3547 34.9597 10.6376L36.2805 7.19421C36.3787 6.91762 36.2733 6.60229 36.0219 6.45815L33.175 4.82115C32.9245 4.66979 32.6056 4.73556 32.4083 4.95989L30.0929 7.83207C29.0379 7.43115 27.9442 7.14195 26.8135 6.95186L26.2288 3.30397C26.1909 3.01477 25.9405 2.80396 25.6441 2.80396H22.3638C22.0674 2.80396 21.8097 3.01387 21.7719 3.30397L21.1872 6.95186C20.0565 7.14195 18.9555 7.43206 17.9077 7.83207L15.5851 4.95989C15.4032 4.73556 15.0761 4.67069 14.8256 4.82115L11.9859 6.45815C11.7273 6.60229 11.6138 6.91852 11.7201 7.19421L13.0409 10.6376C12.1679 11.3547 11.3634 12.1629 10.6417 13.0377L7.18753 11.7232C6.91454 11.6106 6.61003 11.7295 6.45867 11.98L4.81897 14.8125C4.67482 15.0693 4.73518 15.3972 4.96312 15.5882L7.83259 17.9072C7.42988 18.9595 7.14158 20.0578 6.94427 21.1875L3.3081 21.7659C3.01169 21.8119 2.79907 22.0623 2.79907 22.3578Z" fill="black"/>
<path d="M9.29761 23.9974C9.29761 32.1157 15.8798 38.698 24.0027 38.698C32.1183 38.698 38.6933 32.1166 38.6933 23.9974C38.6933 15.8791 32.1183 9.29688 24.0027 9.29688C15.8789 9.29688 9.29761 15.8782 9.29761 23.9974Z" fill="white"/>
<path d="M24.0035 45.1971H22.3638C22.0674 45.1971 21.8097 44.98 21.7719 44.6836L21.1871 41.0429C20.0565 40.8591 18.9555 40.5618 17.9077 40.1681L15.5851 43.0268C15.4716 43.1754 15.304 43.252 15.1221 43.252C15.023 43.252 14.9175 43.225 14.8256 43.1718L11.9859 41.5348C11.7886 41.4213 11.6823 41.2186 11.6823 41.0087C11.6823 40.9393 11.6976 40.8672 11.7201 40.7988L13.0409 37.3536C12.1679 36.631 11.3634 35.8292 10.6417 34.9481L7.18752 36.2761C7.11905 36.3031 7.05058 36.3148 6.98301 36.3148C6.7785 36.3148 6.57309 36.2049 6.45867 36.013L4.81897 33.1742C4.76581 33.0796 4.73518 32.976 4.73518 32.8723C4.74239 32.6967 4.81897 32.5237 4.96312 32.4111L7.83259 30.084C7.42988 29.0389 7.14158 27.9415 6.94427 26.8045L3.3081 26.2252C3.01169 26.1793 2.79907 25.9234 2.79907 25.6279V22.3539C2.79907 22.0575 3.01169 21.808 3.3081 21.762L6.94427 21.1836C7.14158 20.0538 7.42988 18.9556 7.83259 17.9033L4.96312 15.5843C4.81897 15.4627 4.74329 15.2879 4.73518 15.1104C4.73518 15.0068 4.76581 14.9032 4.81897 14.8086L6.45867 11.9761C6.57309 11.7896 6.77039 11.677 6.9749 11.677C7.05148 11.677 7.11905 11.6905 7.18752 11.7193L10.6417 13.0338C11.3634 12.159 12.1679 11.3508 13.0409 10.6337L11.7201 7.1903C11.6976 7.12093 11.6823 7.04976 11.6823 6.97858C11.6823 6.76686 11.7886 6.56235 11.9859 6.45424L14.8256 4.81724C14.9166 4.76228 15.023 4.73616 15.1221 4.73616C15.2968 4.73616 15.4716 4.81454 15.5851 4.95598L17.9077 7.82816C18.9555 7.42725 20.0565 7.13805 21.1871 6.94795L21.7719 3.30007C21.8097 3.01087 22.0683 2.80005 22.3638 2.80005H24.0035V9.29579C15.8797 9.29579 9.29841 15.8771 9.29841 23.9963C9.29841 32.1147 15.8806 38.6969 24.0035 38.6969V45.1962V45.1971Z" fill="black"/>
<path d="M24.0035 38.698C15.8798 38.698 9.29846 32.1166 9.29846 23.9974C9.29846 15.8791 15.8807 9.29688 24.0035 9.29688V10.2789C16.4194 10.2789 10.2769 16.4206 10.2769 23.9965C10.2769 31.5734 16.4185 37.7142 24.0035 37.7142V38.6962V38.698Z" fill="white"/>
<path d="M23.9999 13.7531C18.3403 13.7531 13.7527 18.3406 13.7527 24.0003C13.7527 29.66 18.3403 34.2475 23.9999 34.2475C29.6596 34.2475 34.2472 29.66 34.2472 24.0003C34.2472 18.3406 29.6596 13.7531 23.9999 13.7531ZM36.1445 24.0003C36.1445 30.7078 30.7074 36.1449 23.9999 36.1449C17.2925 36.1449 11.8553 30.7078 11.8553 24.0003C11.8553 17.2929 17.2925 11.8557 23.9999 11.8557C30.7074 11.8557 36.1445 17.2929 36.1445 24.0003Z" fill="#292827"/>
<path d="M24.0001 30.8668C24.9947 30.8668 25.9362 30.6272 26.7767 30.1992C26.129 31.8641 25.9713 33.6048 25.9407 34.0606C25.3118 34.1813 24.6641 34.2462 24.0001 34.2462C23.3361 34.2462 22.6883 34.1804 22.0595 34.0606C22.0279 33.6048 21.8712 31.8641 21.2234 30.1992C22.064 30.6263 23.0063 30.8668 24.0001 30.8668Z" fill="#B3B3B3"/>
<path d="M29.8002 20.992C28.165 20.6559 26.1731 20.3848 24 20.3848C21.827 20.3848 19.835 20.6559 18.1998 20.992C17.7836 21.9001 17.5493 22.9209 17.5493 23.9993C17.5493 25.0372 17.7664 26.0219 18.1538 26.9048C18.28 26.949 18.4079 26.9958 18.5385 27.049C19.8719 27.5841 20.7044 28.8671 21.2224 30.1995C22.063 30.6266 23.0054 30.8671 23.9991 30.8671C24.9937 30.8671 25.9352 30.6275 26.7758 30.1995C27.2938 28.8671 28.1263 27.5841 29.4597 27.049C29.5912 26.9958 29.7191 26.949 29.8453 26.9048C30.2327 26.0219 30.4498 25.0381 30.4498 23.9993C30.4498 22.9209 30.2156 21.9001 29.7993 20.992H29.8002ZM26.3145 23.948C26.3145 25.2264 25.2784 26.2625 24 26.2625C22.7216 26.2625 21.6855 25.2264 21.6855 23.948C21.6855 22.6695 22.7216 21.6335 24 21.6335C25.2784 21.6335 26.3145 22.6695 26.3145 23.948Z" fill="black"/>
<path d="M29.8453 26.9048C30.2327 26.0219 30.4498 25.038 30.4498 23.9993C30.4498 22.9208 30.2155 21.9001 29.7993 20.9919C31.9012 21.4244 33.4094 21.9623 33.9598 22.1731C34.0679 22.7659 34.1256 23.3758 34.1256 24.0002C34.1256 24.9236 34.0004 25.8182 33.767 26.6696C33.3778 26.5291 31.9895 26.148 29.8453 26.9048Z" fill="#B3B3B3"/>
<path d="M14.2321 26.6696C13.9988 25.8182 13.8735 24.9236 13.8735 24.0002C13.8735 23.3767 13.9312 22.7668 14.0402 22.1731C14.5898 21.9623 16.0979 21.4244 18.2007 20.9919C17.7845 21.9001 17.5502 22.9208 17.5502 23.9993C17.5502 25.0371 17.7674 26.0219 18.1548 26.9048C16.0106 26.148 14.6213 26.5282 14.2321 26.6696Z" fill="#B3B3B3"/>
</svg>
