<svg width="48" height="48" viewBox="0 0 48 48" fill="none" xmlns="http://www.w3.org/2000/svg">
<path d="M24 48C37.2548 48 48 37.2548 48 24C48 10.7452 37.2548 0 24 0C10.7452 0 0 10.7452 0 24C0 37.2548 10.7452 48 24 48Z" fill="#99B8D1"/>
<path d="M39.3503 21.3412L27.7459 28.8442L23.8114 31.3901L19.8769 28.8442L8.27246 21.3412C8.36934 20.0709 9.43505 19.0752 10.7322 19.0752H36.8852C38.1877 19.0752 39.2534 20.0709 39.3503 21.3412Z" fill="#CDD1D1"/>
<path fill-rule="evenodd" clip-rule="evenodd" d="M11.0715 19.0753V21.7234V23.1498L11.5829 23.4781L12.5463 24.1024L19.4734 28.5806L19.8771 28.8443L23.8116 31.3902L23.9516 31.2987L27.7461 28.8443L28.3167 28.4729L35.0769 24.1024L36.3203 23.3059L37.2137 22.7246V21.7234V19.0968V10.1675H11.0715V19.0753Z" fill="white"/>
<path d="M19.1128 12.4285H12.9446V21.121H19.1128V12.4285Z" fill="#CCCCCC"/>
<path d="M35.8519 12.4285H20.8728V13.9248H35.8519V12.4285Z" fill="#CCCCCC"/>
<path d="M35.8519 15.1897H20.8728V16.686H35.8519V15.1897Z" fill="#CCCCCC"/>
<path d="M35.8519 17.9502H20.8728V19.4465H35.8519V17.9502Z" fill="#CCCCCC"/>
<path d="M35.8519 20.7114H20.8728V22.2077H35.8519V20.7114Z" fill="#CCCCCC"/>
<path d="M35.8519 23.4727H20.8728V24.969H35.8519V23.4727Z" fill="#CCCCCC"/>
<path d="M35.8519 26.2339H20.8728V27.7302H35.8519V26.2339Z" fill="#CCCCCC"/>
<path d="M35.8519 28.9951H20.8728V30.4914H35.8519V28.9951Z" fill="#CCCCCC"/>
<path d="M39.3666 21.5566V36.1105C39.3666 36.1913 39.3666 36.2666 39.3504 36.3366C39.2428 37.5961 38.1771 38.5918 36.8853 38.5918H10.7324C9.4406 38.5918 8.37489 37.5961 8.27263 36.3366C8.2511 36.2666 8.2511 36.1913 8.2511 36.1105V21.5566C8.2511 21.4812 8.2511 21.4113 8.27263 21.3413L19.877 28.8443L23.8115 31.3902L27.7461 28.8443L39.3504 21.3413C39.3666 21.4113 39.3666 21.4812 39.3666 21.5566Z" fill="#292827"/>
<path d="M35.9705 40.4383C38.7439 40.4383 40.9922 38.19 40.9922 35.4165C40.9922 32.6431 38.7439 30.3948 35.9705 30.3948C33.197 30.3948 30.9487 32.6431 30.9487 35.4165C30.9487 38.19 33.197 40.4383 35.9705 40.4383Z" fill="white"/>
<path d="M35.4159 31.8478C35.4159 31.541 35.6635 31.2935 35.9703 31.2935C36.2771 31.2935 36.5247 31.541 36.5247 31.8478V36.256C36.5247 36.5628 36.2771 36.8104 35.9703 36.8104C35.6635 36.8104 35.4159 36.5628 35.4159 36.256V31.8478Z" fill="#292827"/>
<path d="M35.4159 38.0859C35.4159 37.7791 35.6635 37.5315 35.9703 37.5315C36.2771 37.5315 36.5247 37.7791 36.5247 38.0859V38.7318C36.5247 39.0386 36.2771 39.2861 35.9703 39.2861C35.6635 39.2861 35.4159 39.0386 35.4159 38.7318V38.0859Z" fill="#292827"/>
</svg>
