<svg width="48" height="48" viewBox="0 0 48 48" fill="none" xmlns="http://www.w3.org/2000/svg">
<g clip-path="url(#clip0)">
<path d="M24.002 48.004C37.2579 48.004 48.004 37.2579 48.004 24.002C48.004 10.7461 37.2579 0 24.002 0C10.7461 0 0 10.7461 0 24.002C0 37.2579 10.7461 48.004 24.002 48.004Z" fill="#C80000"/>
<path d="M37.423 13.1885H10.5771V37.8242H37.423V13.1885Z" fill="white"/>
<path d="M17.5083 22.9513H13.6296V26.83H17.5083V22.9513Z" fill="black"/>
<path d="M34.7797 22.9513H19.2731V26.83H34.7797V22.9513Z" fill="#B3B3B3"/>
<path d="M17.5083 29.6417H13.6296V33.5204H17.5083V29.6417Z" fill="black"/>
<path d="M34.7797 29.6417H19.2731V33.5204H34.7797V29.6417Z" fill="#B3B3B3"/>
<path d="M32.5336 7.53284H15.4706C14.9301 7.53284 14.4919 8.04284 14.4919 8.67197V18.2904C14.4919 18.9195 14.9301 19.4296 15.4706 19.4296H32.5336C33.0741 19.4296 33.5123 18.9195 33.5123 18.2904V8.67197C33.5123 8.04284 33.0741 7.53284 32.5336 7.53284Z" fill="#243239"/>
</g>
<defs>
<clipPath id="clip0">
<rect width="48" height="48" fill="white"/>
</clipPath>
</defs>
</svg>
