<svg width="48" height="48" viewBox="0 0 48 48" fill="none" xmlns="http://www.w3.org/2000/svg">
<path d="M24 48C37.2548 48 48 37.2548 48 24C48 10.7452 37.2548 0 24 0C10.7452 0 0 10.7452 0 24C0 37.2548 10.7452 48 24 48Z" fill="#C9CACA"/>
<path d="M41.5063 22.4781V42.8886C41.5063 43.574 40.9487 44.1316 40.2633 44.1316H8.35236C7.67859 44.1316 7.10938 43.574 7.10938 42.8886V17.9825C7.10938 17.2971 7.66697 16.7395 8.35236 16.7395H20.7822C21.4559 16.7395 22.0252 17.2971 22.0252 17.9825V20.3174C22.0252 20.8286 22.4434 21.2468 22.9545 21.2468H40.2749C40.9603 21.2468 41.5179 21.8044 41.5179 22.4897L41.5063 22.4781Z" fill="black"/>
<path d="M32.4801 38.5327V38.5444H12.6389C11.9767 38.5444 11.3843 38.2772 10.9428 37.8474C10.5014 37.4175 10.2458 36.8135 10.2458 36.1513V35.0361H30.2381V36.1513C30.2381 36.8135 30.5053 37.4059 30.9351 37.8474C31.3417 38.2539 31.8761 38.5095 32.4801 38.5444V38.5327Z" fill="#B3B3B3"/>
<path d="M39.6244 3.86865V33.1775C39.6244 34.8619 38.2536 36.2326 36.5576 36.2326H11.152V3.86865H39.6244Z" fill="#4D4D4D"/>
<path d="M38.1375 5.40161V34.7104C38.1375 36.3948 36.7667 37.7656 35.0707 37.7656H9.66504V5.40161H38.1375Z" fill="white"/>
<path fill-rule="evenodd" clip-rule="evenodd" d="M31.3185 8.15576H23.9651H23.6282H16.2749V18.8315H23.6282H23.9651H31.3185V8.15576Z" fill="#FB0000"/>
<path fill-rule="evenodd" clip-rule="evenodd" d="M16.9834 14.3937C16.9486 13.8477 17.0183 12.7906 17.1925 11.2107C17.3319 11.2107 17.4016 11.2107 17.4016 11.2107C17.2506 13.4759 17.1809 14.6144 17.1809 14.6144L16.9834 14.3937Z" fill="#404040"/>
<path fill-rule="evenodd" clip-rule="evenodd" d="M28.8441 26.9167V23.6175V23.3736C28.8674 23.3736 28.8906 23.3736 28.9138 23.3736C29.4017 23.3736 29.8896 23.362 30.3775 23.362C30.7144 23.1064 30.9235 22.6766 31.0164 22.0725H31.0629C31.0978 22.119 31.1326 22.1538 31.1675 22.1771V26.9167H28.8441ZM18.7376 23.3736V23.6175V26.9167H16.4143V22.1771C16.4492 22.1538 16.4956 22.119 16.5189 22.0725H16.5653C16.6583 22.665 16.8674 23.0948 17.2042 23.362C17.6921 23.3736 18.18 23.3736 18.6679 23.3736C18.6912 23.3736 18.7144 23.3736 18.7376 23.3736Z" fill="#404040"/>
<path fill-rule="evenodd" clip-rule="evenodd" d="M23.7559 24.8027C22.4432 24.8027 21.1306 24.7678 19.8179 24.6981C19.3067 24.5123 18.9118 24.1057 18.7491 23.6062V23.3622C20.4336 23.3738 22.118 23.3738 23.8024 23.3506C25.4868 23.3738 27.1712 23.3738 28.8556 23.3622V23.6062C28.6814 24.1057 28.2864 24.5123 27.7869 24.6981C26.451 24.7678 25.1151 24.8027 23.7675 24.8027H23.7559Z" fill="#292827"/>
<path fill-rule="evenodd" clip-rule="evenodd" d="M27.241 21.7704C24.9525 21.7472 22.6408 21.7472 20.3523 21.7704C20.2594 21.7588 20.0503 22.1421 19.7018 22.8972C20.027 22.5371 20.2826 22.3512 20.4801 22.3512C22.6872 22.3396 24.906 22.3396 27.1016 22.3512C27.2991 22.3512 27.5546 22.5255 27.8799 22.8972C27.543 22.1305 27.3223 21.7588 27.2294 21.7704H27.241ZM30.9699 20.7597C31.028 20.9108 31.0628 21.1547 31.0628 21.48C31.0628 21.6658 31.0512 21.8285 31.028 21.9911C31.028 22.0143 31.0164 22.0376 31.0164 22.0608C30.9234 22.6533 30.7143 23.0831 30.3775 23.3503C29.8896 23.3619 29.4017 23.3619 28.9138 23.3619C28.8905 23.3619 28.8673 23.3619 28.8441 23.3619C27.1597 23.3735 25.4752 23.3735 23.7908 23.3503C22.1064 23.3735 20.422 23.3735 18.7376 23.3619C18.7143 23.3619 18.6911 23.3619 18.6679 23.3619C18.18 23.3619 17.6921 23.3503 17.2042 23.3503C16.8673 23.0947 16.6582 22.6649 16.5653 22.0608C16.5653 22.0376 16.5536 22.0143 16.5536 21.9911C16.5304 21.8285 16.5188 21.6658 16.5188 21.48C16.5188 21.1547 16.5536 20.9108 16.6117 20.7597C16.6698 20.6203 16.7395 20.5623 16.8441 20.5623C17.634 20.7017 18.3658 20.8178 19.0512 20.8991C19.9689 21.0153 20.7937 21.0734 21.5256 21.0734C22.7802 21.0734 23.5236 21.0734 23.7444 21.0734C23.7444 21.0734 24.5111 21.0734 26.0445 21.0734C26.7763 21.0734 27.6011 21.0153 28.5188 20.8991C29.2042 20.8178 29.936 20.7017 30.726 20.5623C30.8305 20.5623 30.9002 20.6203 30.9583 20.7597H30.9699ZM28.8557 22.328C29.8199 22.2699 30.3078 22.2467 30.3078 22.2467C30.3775 22.2118 30.4355 22.1421 30.482 22.0608C30.5285 21.9911 30.5633 21.9214 30.5982 21.8285C30.8537 21.2012 30.7492 20.9224 30.2613 21.0037C29.2855 21.1082 28.7163 21.2128 28.542 21.329C28.391 21.4103 28.2865 21.5613 28.2632 21.7355C28.5188 22.1305 28.6466 22.328 28.6466 22.328C28.7163 22.328 28.7744 22.3164 28.8324 22.3164L28.8557 22.328ZM17.1229 22.0724C17.1809 22.1537 17.239 22.2118 17.2971 22.2583C17.2971 22.2583 17.785 22.2815 18.7492 22.3396C18.8073 22.3396 18.877 22.3512 18.9351 22.3512C18.9351 22.3512 19.0628 22.1537 19.3184 21.7588C19.2952 21.5845 19.1906 21.4335 19.0396 21.3522C18.877 21.236 18.2961 21.1199 17.3203 21.0269C16.8441 20.9456 16.7279 21.2244 16.9835 21.8517C17.0183 21.9446 17.0532 22.026 17.0996 22.084L17.1229 22.0724Z" fill="#404040"/>
<path fill-rule="evenodd" clip-rule="evenodd" d="M28.8441 22.3282C28.786 22.3282 28.7163 22.3398 28.6583 22.3398C28.6583 22.3398 28.5305 22.1423 28.2749 21.7473C28.2981 21.5731 28.4027 21.4221 28.5537 21.3408C28.7163 21.2246 29.2972 21.1084 30.273 21.0155C30.7493 20.9342 30.8654 21.213 30.6099 21.8403C30.575 21.9332 30.5402 22.0145 30.4937 22.0726C30.4356 22.1539 30.3775 22.212 30.3194 22.2585C30.3194 22.2585 29.8315 22.2817 28.8674 22.3398L28.8441 22.3282Z" fill="#FEFEFE"/>
<path fill-rule="evenodd" clip-rule="evenodd" d="M17.1113 22.0726C17.0648 22.0029 17.03 21.9332 16.9951 21.8403C16.7395 21.213 16.8441 20.9342 17.332 21.0155C18.3078 21.12 18.877 21.2246 19.0513 21.3408C19.2023 21.4221 19.3068 21.5731 19.3301 21.7473C19.0745 22.1423 18.9467 22.3398 18.9467 22.3398C18.877 22.3398 18.8189 22.3282 18.7608 22.3282C17.7967 22.2701 17.3088 22.2469 17.3088 22.2469C17.2391 22.212 17.181 22.1423 17.1345 22.061L17.1113 22.0726Z" fill="#FEFEFE"/>
<path fill-rule="evenodd" clip-rule="evenodd" d="M19.7018 22.9091C20.0387 22.1424 20.2594 21.7707 20.3523 21.7823C22.6408 21.7591 24.9525 21.7591 27.241 21.7823C27.3339 21.7707 27.543 22.154 27.8915 22.9091C27.5663 22.549 27.3107 22.3632 27.1132 22.3632C24.906 22.3515 22.6873 22.3515 20.4917 22.3632C20.2942 22.3632 20.0387 22.5374 19.7134 22.9091H19.7018Z" fill="#6D6E6E"/>
<path fill-rule="evenodd" clip-rule="evenodd" d="M22.9428 19.5282C22.7221 19.3656 22.5478 19.1448 22.4433 18.9009C20.7356 18.8777 19.8876 18.8777 19.8876 18.8777C19.8876 19.0751 19.9109 19.2842 19.9457 19.505L22.9428 19.5398V19.5282ZM18.5285 18.8312C18.4588 18.5524 18.3775 18.262 18.2961 17.9251C19.2603 18.0529 20.7008 18.0877 22.6292 18.0645C23.2448 17.3675 24.3717 17.3675 24.9873 18.0645C26.9157 18.0993 28.3678 18.0529 29.3203 17.9251C29.239 18.2504 29.1577 18.5524 29.088 18.8312C28.7279 20.2136 28.542 20.899 28.542 20.899C27.6243 21.0151 26.7995 21.0732 26.0677 21.0732C24.8131 21.0732 24.0696 21.0732 23.8489 21.0732C23.8489 21.0732 23.0822 21.0732 21.5488 21.0732C20.817 21.0732 19.9922 21.0151 19.0745 20.899C19.0745 20.899 18.8886 20.2136 18.5285 18.8312ZM27.4501 20.1555C26.0561 20.1671 24.8479 20.1671 23.8024 20.1555C22.7686 20.1671 21.5488 20.1671 20.1548 20.1555C20.12 20.2833 20.1316 20.4575 20.2129 20.6899C21.4326 20.7247 22.6292 20.7363 23.8024 20.7363C24.9757 20.7479 26.1722 20.7247 27.392 20.6899C27.4617 20.4575 27.4849 20.2833 27.4501 20.1555ZM25.1616 18.8893C25.057 19.1448 24.8828 19.3539 24.6621 19.5166L27.6592 19.4817C27.694 19.261 27.7172 19.0519 27.7172 18.8544C27.7172 18.8544 26.8692 18.866 25.1616 18.8777V18.8893Z" fill="#6D6E6E"/>
<path fill-rule="evenodd" clip-rule="evenodd" d="M24.6504 19.5282C24.8711 19.3656 25.0454 19.1449 25.1499 18.9009C26.8576 18.8777 27.7056 18.8777 27.7056 18.8777C27.7056 19.0752 27.6823 19.2843 27.6475 19.505L24.6504 19.5398V19.5282Z" fill="#404040"/>
<path fill-rule="evenodd" clip-rule="evenodd" d="M22.4316 18.9008C22.5362 19.1564 22.7104 19.3655 22.9312 19.5281L19.9341 19.4933C19.8992 19.2726 19.876 19.0635 19.876 18.866C19.876 18.866 20.724 18.8776 22.4316 18.8892V18.9008Z" fill="#404040"/>
<path fill-rule="evenodd" clip-rule="evenodd" d="M20.1548 20.1558C21.5488 20.1674 22.7569 20.1674 23.8024 20.1558C24.8363 20.1674 26.0561 20.1674 27.4501 20.1558C27.4849 20.2835 27.4733 20.4578 27.392 20.6901C26.1722 20.725 24.9757 20.7366 23.8024 20.7366C22.6292 20.7482 21.4326 20.725 20.2129 20.6901C20.1432 20.4578 20.12 20.2835 20.1548 20.1558Z" fill="#404040"/>
<path fill-rule="evenodd" clip-rule="evenodd" d="M17.8663 19.5171C18.1567 19.8539 18.2961 20.1444 18.2961 20.3883C17.541 20.3999 17.088 20.307 16.9254 20.0979C16.8324 19.7378 16.9021 19.4357 17.1228 19.1802C17.6107 19.4125 17.8547 19.5287 17.8547 19.5287L17.8663 19.5171Z" fill="#FEC900"/>
<path fill-rule="evenodd" clip-rule="evenodd" d="M29.2971 20.3882C29.2971 20.1443 29.4365 19.8655 29.7269 19.517C29.7269 19.517 29.9709 19.4008 30.4704 19.1685C30.7027 19.424 30.7724 19.7261 30.6679 20.0862C30.5053 20.2953 30.0522 20.3882 29.2971 20.3766V20.3882Z" fill="#FEC900"/>
<path fill-rule="evenodd" clip-rule="evenodd" d="M29.0764 18.8316C29.1461 18.5528 29.2274 18.2623 29.3087 17.9255C28.3445 18.0532 26.9041 18.0881 24.9757 18.0649C24.36 17.3679 23.2332 17.3679 22.6175 18.0649C20.6892 18.0997 19.2371 18.0532 18.2845 17.9255C18.3658 18.2507 18.4472 18.5528 18.5169 18.8316C18.877 20.2139 19.0628 20.8993 19.0628 20.8993C18.3775 20.818 17.6456 20.7018 16.8557 20.5624C16.7511 20.5624 16.6814 20.6205 16.6233 20.7599C16.5536 19.9119 16.5072 19.4124 16.4839 19.273C16.4723 19.2614 16.4607 19.2614 16.4491 19.2614C16.4375 19.0871 16.5304 18.9129 16.693 18.8432C16.7047 18.8316 16.7163 18.8316 16.7395 18.8316C16.7047 16.6476 16.7163 15.1955 16.7627 14.4985C16.7976 13.8596 16.8441 13.302 16.8789 12.8141H17.0415C16.9835 13.5344 16.9718 14.0687 16.9835 14.394L17.1809 14.6147C17.1809 14.6147 17.2506 13.4763 17.4017 11.211C17.4017 11.211 17.332 11.211 17.1926 11.211C17.1345 11.7686 17.088 12.2565 17.0532 12.6747H16.8789C16.9486 11.7919 16.9951 11.1762 17.0415 10.8393C17.1809 10.3514 17.4481 10.0726 17.8663 10.0029C21.7231 9.88673 25.8586 9.88673 29.7153 10.0029C30.1335 10.0726 30.4007 10.3514 30.5401 10.8393C30.5866 11.1762 30.633 11.7919 30.7027 12.6747H30.5285C30.4936 12.2449 30.4472 11.757 30.3891 11.211C30.2497 11.211 30.18 11.211 30.18 11.211C30.331 13.4763 30.4007 14.6147 30.4007 14.6147L30.5982 14.394C30.6214 14.0571 30.5982 13.5344 30.5401 12.8141H30.7027C30.7376 13.302 30.7724 13.8596 30.8189 14.4985C30.8654 15.1955 30.8654 16.636 30.8421 18.8316C30.8537 18.8316 30.877 18.8432 30.8886 18.8432C31.0512 18.9129 31.1442 19.0871 31.1325 19.2614C31.1209 19.2614 31.1093 19.273 31.0977 19.273C31.0745 19.424 31.028 19.9119 30.9583 20.7599C30.9002 20.6205 30.8305 20.5624 30.726 20.5624C29.936 20.7018 29.2042 20.818 28.5188 20.8993C28.5188 20.8993 28.7047 20.2139 29.0648 18.8316H29.0764ZM18.2961 20.3766C18.2961 20.1326 18.1567 19.8538 17.8663 19.5053C17.8663 19.5053 17.6224 19.3892 17.1345 19.1568C16.9021 19.4124 16.8324 19.7144 16.937 20.0745C17.0996 20.2836 17.5527 20.3766 18.3078 20.365L18.2961 20.3766ZM29.7153 19.5053C29.4249 19.8422 29.2855 20.1326 29.2855 20.3766C30.0406 20.3882 30.4936 20.2953 30.6563 20.0862C30.7492 19.726 30.6795 19.424 30.4588 19.1684C29.9709 19.4008 29.7153 19.5169 29.7153 19.5169V19.5053ZM17.5411 15.4395C17.5178 15.9274 22.815 15.9042 23.7908 15.939C24.7782 15.9042 30.0638 15.939 30.0406 15.4395C30.0406 15.4395 29.9593 14.0455 29.7966 11.2459C29.8199 10.8974 29.6805 10.7347 29.3784 10.7464C25.9399 10.7231 24.0696 10.7231 23.7908 10.7464C23.512 10.7347 21.6417 10.7347 18.2032 10.7464C17.9012 10.7347 17.7502 10.8974 17.785 11.2459C17.6224 14.0339 17.5411 15.4395 17.5411 15.4395Z" fill="#ED595B"/>
<path fill-rule="evenodd" clip-rule="evenodd" d="M30.9698 20.7603C31.0395 19.9123 31.086 19.4128 31.1092 19.2734C31.1209 19.2617 31.1325 19.2617 31.1441 19.2617C31.3997 19.134 31.5274 19.2734 31.5391 19.6916C31.5739 21.2366 31.5274 22.073 31.3997 22.1891C31.3067 22.2124 31.237 22.2124 31.1789 22.1775C31.1441 22.1543 31.0976 22.1194 31.0744 22.073C31.0628 22.0497 31.0512 22.0265 31.0395 22.0033C31.0628 21.8406 31.0744 21.678 31.0744 21.4921C31.0744 21.1669 31.0395 20.9229 30.9815 20.7719L30.9698 20.7603Z" fill="#292827"/>
<path fill-rule="evenodd" clip-rule="evenodd" d="M16.484 19.273C16.5072 19.424 16.5537 19.9119 16.6234 20.7599C16.5653 20.9109 16.5304 21.1549 16.5304 21.4801C16.5304 21.666 16.5421 21.8286 16.5653 21.9913C16.5537 22.0145 16.542 22.0377 16.5304 22.061C16.4956 22.1074 16.4607 22.1423 16.4259 22.1655C16.3678 22.2004 16.2865 22.2004 16.2052 22.1771C16.0774 22.061 16.0309 21.2246 16.0658 19.6795C16.0774 19.2613 16.2052 19.1103 16.4607 19.2497C16.4724 19.2497 16.484 19.2613 16.4956 19.2613L16.484 19.273Z" fill="#292827"/>
<path d="M31.5274 12.6748H30.4819V12.8026H31.5274V12.6748Z" fill="#292827"/>
<path fill-rule="evenodd" clip-rule="evenodd" d="M31.9225 11.7107C31.5043 11.6758 31.2836 11.7223 31.2604 11.8268L31.2023 13.4415C31.2604 13.6971 31.3881 13.8017 31.5972 13.7784C32.0387 13.8017 32.2594 13.6971 32.2594 13.4648C32.2826 12.4774 32.2942 11.9778 32.2942 11.9778C32.2013 11.7804 32.0735 11.6874 31.9109 11.7107H31.9225Z" fill="#292827"/>
<path fill-rule="evenodd" clip-rule="evenodd" d="M15.6708 11.7107C16.089 11.6758 16.3097 11.7223 16.333 11.8268L16.391 13.4415C16.333 13.6971 16.2052 13.8017 15.9961 13.7784C15.5546 13.8017 15.3339 13.6971 15.3339 13.4648C15.3107 12.4774 15.2991 11.9778 15.2991 11.9778C15.392 11.7804 15.5198 11.6874 15.6824 11.7107H15.6708Z" fill="#6D7F99"/>
<path d="M17.1112 12.6748H16.0657V12.8026H17.1112V12.6748Z" fill="#292827"/>
<path fill-rule="evenodd" clip-rule="evenodd" d="M15.6708 11.7107C16.089 11.6758 16.3097 11.7223 16.333 11.8268L16.391 13.4415C16.333 13.6971 16.2052 13.8017 15.9961 13.7784C15.5546 13.8017 15.3339 13.6971 15.3339 13.4648C15.3107 12.4774 15.2991 11.9778 15.2991 11.9778C15.392 11.7804 15.5198 11.6874 15.6824 11.7107H15.6708Z" fill="#292827"/>
<path fill-rule="evenodd" clip-rule="evenodd" d="M30.4124 14.6144C30.4124 14.6144 30.3427 13.4759 30.1917 11.2107C30.1917 11.2107 30.2614 11.2107 30.4008 11.2107C30.4588 11.7683 30.5053 12.2562 30.5402 12.6744H30.4821V12.8022H30.5518C30.6099 13.5224 30.6215 14.0568 30.6099 14.382L30.4124 14.6028V14.6144Z" fill="#353043"/>
<path fill-rule="evenodd" clip-rule="evenodd" d="M31.3184 11.7567V10.0491H31.6901V11.6986C31.5158 11.6986 31.3881 11.7103 31.3184 11.7567Z" fill="#940A0A"/>
<path fill-rule="evenodd" clip-rule="evenodd" d="M31.3184 13.6848C31.3881 13.7545 31.481 13.7894 31.5972 13.7777C31.632 13.7777 31.6552 13.7777 31.6901 13.7777V18.831H31.3184V13.6848Z" fill="#940A0A"/>
<path fill-rule="evenodd" clip-rule="evenodd" d="M31.6901 10.049H31.3184V9.37524H31.8063V10.049H31.6901Z" fill="#940A0A"/>
<path fill-rule="evenodd" clip-rule="evenodd" d="M16.2749 9.37524V10.049H15.9032H15.787V9.37524H16.2749Z" fill="#940A0A"/>
<path fill-rule="evenodd" clip-rule="evenodd" d="M15.996 13.7777C16.1122 13.7894 16.2051 13.7661 16.2748 13.6848V18.831H15.9031V13.7777C15.9263 13.7777 15.9612 13.7777 15.996 13.7777Z" fill="#940A0A"/>
<path fill-rule="evenodd" clip-rule="evenodd" d="M16.2748 11.7567C16.2051 11.7219 16.0889 11.6986 15.9031 11.6986V10.0491H16.2748V11.7567Z" fill="#940A0A"/>
<path fill-rule="evenodd" clip-rule="evenodd" d="M17.5411 15.451C17.5411 15.451 17.6224 14.057 17.785 11.2574C17.7618 10.9089 17.9012 10.7463 18.2032 10.7579C21.6418 10.7347 23.512 10.7347 23.7908 10.7579C24.0696 10.7463 25.9399 10.7463 29.3785 10.7579C29.6805 10.7463 29.8315 10.9089 29.7967 11.2574C29.9593 14.0454 30.0406 15.451 30.0406 15.451C30.0638 15.9389 24.7666 15.9157 23.7908 15.9505C22.8034 15.9157 17.5179 15.9505 17.5411 15.451Z" fill="#353043"/>
<path fill-rule="evenodd" clip-rule="evenodd" d="M23.7327 18.5873C23.6049 18.5873 23.4771 18.5873 23.3494 18.5873C23.3029 18.5873 23.2564 18.5873 23.21 18.5873C23.1635 18.5873 23.117 18.5873 23.0706 18.5873C23.0009 18.5873 22.9312 18.5873 22.8847 18.6105C22.8615 18.6222 22.8498 18.6454 22.8382 18.6802C22.8382 18.6802 22.8382 18.6802 22.8382 18.6919C22.8382 18.7383 22.8615 18.7848 22.8847 18.8313C22.9079 18.8893 22.966 18.9474 23.0125 18.9939C23.0938 19.0752 23.268 19.1798 23.4539 19.2262C23.4771 19.2378 23.512 19.2378 23.5352 19.2495C23.5585 19.2495 23.5468 19.2611 23.5352 19.2611C23.512 19.2611 23.4771 19.2495 23.4539 19.2495C23.2448 19.1914 23.1054 19.1101 23.0009 19.0287C22.9428 18.9823 22.8847 18.9126 22.8382 18.8429C22.815 18.7964 22.7801 18.7151 22.7801 18.6919C22.7801 18.657 22.7685 18.6338 22.7685 18.5757C22.7685 18.4711 22.8034 18.3898 22.8615 18.2969C22.8615 18.2853 22.8731 18.2853 22.8731 18.2737V18.262C22.8731 18.262 22.8615 18.262 22.8498 18.2737C22.8034 18.3317 22.7685 18.3666 22.7453 18.4247C22.7104 18.4944 22.6988 18.5525 22.6988 18.6105C22.6988 18.6222 22.6872 18.6338 22.6872 18.6105C22.6872 18.5408 22.6988 18.4711 22.7337 18.4014C22.7685 18.3317 22.8034 18.2853 22.8498 18.2272C22.9079 18.1691 22.966 18.1226 23.0357 18.0762C23.1403 18.0065 23.2448 17.9716 23.361 17.9368C23.4074 17.9252 23.4539 17.9135 23.5004 17.9135C23.512 17.9135 23.5352 17.9135 23.5468 17.9135C23.5585 17.9135 23.5701 17.9252 23.5468 17.9252C23.512 17.9368 23.4888 17.9368 23.4539 17.9484C23.3377 17.9832 23.2332 18.0181 23.1286 18.0878C23.0473 18.1343 23.0125 18.1691 22.9079 18.2853C22.8963 18.2969 22.8731 18.3434 22.8498 18.3782C22.8382 18.4014 22.8266 18.4363 22.8266 18.4595C22.8266 18.4828 22.8382 18.506 22.8615 18.5176C22.9079 18.5408 22.9428 18.5408 23.0009 18.5525C23.0473 18.5525 23.0822 18.5525 23.1286 18.5525C23.1867 18.5525 23.2564 18.5525 23.3145 18.5525C23.4539 18.5525 23.5817 18.5525 23.7211 18.5525C23.7327 18.5525 23.7443 18.5525 23.7676 18.5525C23.907 18.5525 24.0464 18.5525 24.1858 18.5525C24.2438 18.5525 24.3135 18.5525 24.3716 18.5525C24.4181 18.5525 24.4529 18.5525 24.4994 18.5525C24.5575 18.5525 24.604 18.5525 24.6388 18.5292C24.662 18.5176 24.662 18.4944 24.6737 18.4711C24.6737 18.4479 24.662 18.4131 24.6504 18.3898C24.6388 18.355 24.6156 18.3201 24.604 18.2969C24.511 18.1691 24.4646 18.1459 24.3832 18.0878C24.2903 18.0181 24.1741 17.9832 24.0696 17.9484C24.0347 17.9368 24.0115 17.9368 23.9767 17.9252C23.9534 17.9252 23.965 17.9135 23.9767 17.9135C23.9883 17.9135 24.0115 17.9135 24.0231 17.9135C24.0696 17.9252 24.1161 17.9252 24.1625 17.9484C24.2787 17.9832 24.3832 18.0297 24.4762 18.0878C24.5459 18.1343 24.604 18.1807 24.662 18.2388C24.7085 18.2969 24.7434 18.3317 24.7782 18.4131C24.8014 18.4828 24.8247 18.5525 24.8131 18.6222C24.8131 18.6454 24.8014 18.6338 24.8014 18.6222C24.8014 18.5525 24.7898 18.506 24.755 18.4247C24.7317 18.3666 24.7085 18.3201 24.6504 18.2737C24.6504 18.2737 24.6388 18.262 24.6272 18.262V18.2737C24.6272 18.2853 24.6388 18.2853 24.6388 18.2969C24.6969 18.3898 24.7317 18.4711 24.7317 18.5757C24.7317 18.6338 24.7317 18.657 24.7201 18.6919C24.7201 18.7151 24.6853 18.7964 24.662 18.8429C24.6156 18.9126 24.5575 18.9823 24.4994 19.0287C24.3949 19.1101 24.2555 19.1914 24.0464 19.2378C24.0231 19.2495 23.9883 19.2495 23.9534 19.2495C23.9418 19.2495 23.9302 19.2378 23.9534 19.2378C23.9767 19.2262 24.0115 19.2262 24.0347 19.2146C24.2206 19.1681 24.3832 19.0752 24.4762 18.9939C24.5226 18.9474 24.5807 18.8893 24.604 18.8313C24.6272 18.7848 24.6504 18.7383 24.6504 18.6919C24.6504 18.657 24.6388 18.6454 24.604 18.6222C24.5575 18.5989 24.4762 18.5989 24.4181 18.5989C24.3716 18.5989 24.3252 18.5989 24.2787 18.5989C24.2322 18.5989 24.1858 18.5989 24.1393 18.5989C24.0115 18.5989 23.8837 18.5989 23.7443 18.5989C23.7327 18.5989 23.7095 18.5989 23.6979 18.5989L23.7327 18.5873ZM23.7327 18.5408C23.6398 18.5408 23.5585 18.5408 23.4655 18.5408C23.3958 18.5408 23.3377 18.5408 23.268 18.5408C23.21 18.5408 23.1519 18.5408 23.0938 18.5292C23.0357 18.5292 22.966 18.5176 22.9544 18.506C22.9428 18.4944 22.9544 18.4944 22.9544 18.4828C22.966 18.4711 22.9776 18.4595 23.0009 18.4595C23.0125 18.4595 23.0125 18.4595 23.0241 18.4595C23.0357 18.4711 23.0357 18.4711 23.0589 18.4711C23.117 18.4828 23.1519 18.4944 23.2216 18.4944C23.2797 18.4944 23.3261 18.506 23.3842 18.506C23.5004 18.506 23.5817 18.5176 23.7443 18.5176C23.7559 18.5176 23.7792 18.5176 23.7908 18.5176C23.965 18.5176 24.0347 18.5176 24.1625 18.5176C24.2206 18.5176 24.2671 18.5176 24.3252 18.506C24.3949 18.506 24.4297 18.4944 24.4878 18.4828C24.4994 18.4828 24.511 18.4711 24.5226 18.4711C24.5226 18.4711 24.5343 18.4711 24.5459 18.4711C24.5575 18.4711 24.5807 18.4828 24.5923 18.4944C24.604 18.506 24.604 18.506 24.5923 18.5176C24.5807 18.5292 24.4994 18.5292 24.4529 18.5408C24.3949 18.5408 24.3368 18.5408 24.2787 18.5525C24.209 18.5525 24.1509 18.5525 24.0812 18.5525C23.9883 18.5525 23.8953 18.5525 23.8024 18.5525C23.7908 18.5525 23.7676 18.5525 23.7559 18.5525L23.7327 18.5408ZM23.7327 18.4944C23.5468 18.4944 23.3494 18.4944 23.1751 18.4711C23.0822 18.4595 23.0589 18.4131 23.0589 18.3782C23.0473 18.2737 23.1983 18.1343 23.2913 18.0994C23.4074 18.0413 23.5004 17.9949 23.6282 17.96C23.6398 17.96 23.6514 17.9368 23.6514 17.9252C23.6514 17.9135 23.6282 17.8903 23.6165 17.8903C23.5701 17.8787 23.5352 17.8787 23.4888 17.8903C23.4191 17.9019 23.3494 17.9135 23.2797 17.9368C23.1867 17.96 23.0938 18.0065 23.0125 18.0646C22.8963 18.1343 22.8034 18.2156 22.7337 18.3317C22.6872 18.4131 22.6524 18.506 22.6407 18.5989C22.6407 18.7035 22.6756 18.808 22.7337 18.901C22.7918 18.9823 22.8615 19.0636 22.9544 19.1217C23.0357 19.1798 23.117 19.2262 23.21 19.2611C23.2913 19.2959 23.3726 19.3075 23.4423 19.3192C23.4888 19.3308 23.5468 19.3308 23.5933 19.3192C23.6049 19.3192 23.6282 19.2959 23.6282 19.2843C23.6282 19.2727 23.6165 19.2495 23.6049 19.2495C23.5585 19.2378 23.4888 19.2146 23.4423 19.1914C23.3726 19.1565 23.3029 19.1333 23.2448 19.0868C23.1867 19.052 23.1286 19.0055 23.0822 18.9474C23.0589 18.9126 23.0357 18.8777 23.0357 18.8429C23.0357 18.8196 23.0357 18.7964 23.0473 18.7848C23.0822 18.7151 23.1983 18.7267 23.2797 18.7267C23.3494 18.7267 23.4307 18.7267 23.5004 18.7267C23.5701 18.7267 23.663 18.7267 23.7443 18.7267C23.8256 18.7267 23.907 18.7267 23.9883 18.7383C24.058 18.7383 24.1393 18.7383 24.209 18.7499C24.2903 18.7499 24.4065 18.7499 24.4413 18.8196C24.4529 18.8313 24.4529 18.8661 24.4529 18.8777C24.4529 18.9126 24.4297 18.9474 24.4065 18.9823C24.3716 19.0404 24.3019 19.0868 24.2438 19.1217C24.1858 19.1565 24.1161 19.1914 24.0464 19.2146C23.9883 19.2378 23.9186 19.2611 23.8837 19.2727C23.8721 19.2727 23.8605 19.2959 23.8605 19.3075C23.8605 19.3192 23.8837 19.3424 23.8953 19.3424C23.9418 19.354 23.9999 19.354 24.0464 19.3424C24.1277 19.3308 24.209 19.3075 24.2903 19.2843C24.3832 19.2495 24.4646 19.2146 24.5459 19.1565C24.6272 19.0984 24.7085 19.0287 24.7666 18.9358C24.8247 18.8429 24.8711 18.7383 24.8711 18.6338C24.8711 18.5525 24.8363 18.4479 24.7898 18.3666C24.7201 18.262 24.6272 18.1691 24.5226 18.0994C24.4413 18.0413 24.3368 17.9949 24.2555 17.9716C24.1858 17.9484 24.1277 17.9368 24.058 17.9252C24.0115 17.9135 23.9767 17.9135 23.9302 17.9252C23.9186 17.9252 23.8953 17.9484 23.8953 17.96C23.8953 17.9716 23.907 17.9949 23.9186 17.9949C24.0464 18.0297 24.1509 18.0762 24.2555 18.1459C24.3368 18.1923 24.4878 18.3317 24.4762 18.4363C24.4762 18.4711 24.4413 18.5176 24.36 18.5292C24.1741 18.5525 23.9767 18.5408 23.7908 18.5408C23.7792 18.5408 23.7676 18.5408 23.7443 18.5408L23.7327 18.4944Z" fill="#D3D5D5"/>
<path d="M7.80638 25.3594H40.8093C41.8432 25.3594 42.6679 26.1842 42.6679 27.2064V41.8434C42.6679 43.1096 41.6457 44.1319 40.3911 44.1319H8.24781C6.99321 44.1319 5.97095 43.1096 5.97095 41.8434V27.2064C5.97095 26.1842 6.79573 25.3594 7.81799 25.3594H7.80638Z" fill="#E6E6E6"/>
<path d="M38.9506 29.8323H9.68823V31.6212H38.9506V29.8323Z" fill="#B3B3B3"/>
<path d="M38.9506 33.282H9.68823V35.0709H38.9506V33.282Z" fill="#B3B3B3"/>
</svg>
