<svg width="30" height="30" viewBox="0 0 30 30" fill="none" xmlns="http://www.w3.org/2000/svg">
<path d="M15 30C23.2843 30 30 23.2843 30 15C30 6.71573 23.2843 0 15 0C6.71573 0 0 6.71573 0 15C0 23.2843 6.71573 30 15 30Z" fill="#940A0A"/>
<path fill-rule="evenodd" clip-rule="evenodd" d="M1.80652 9.375H28.1935C29.1871 9.375 30 10.1879 30 11.1815V20.203C30 21.1966 29.1871 22.0096 28.1935 22.0096H1.80652C0.81292 22.0096 0 21.1966 0 20.203V11.1815C0 10.1879 0.81292 9.375 1.80652 9.375Z" fill="#1C1C1C"/>
<path d="M9.71063 14.4178C9.61094 13.9878 9.36741 13.6873 8.98004 13.5164C8.76357 13.4224 8.52289 13.3754 8.258 13.3754C7.751 13.3754 7.33372 13.5676 7.00616 13.9521C6.68146 14.3338 6.5191 14.9092 6.5191 15.6782C6.5191 16.453 6.6957 17.0013 7.04889 17.3231C7.40208 17.645 7.80369 17.8059 8.25372 17.8059C8.69521 17.8059 9.05695 17.6792 9.33893 17.4257C9.62091 17.1693 9.79466 16.8346 9.86017 16.4216H8.40326V15.3706H11.0266V18.7501H10.155L10.0225 17.964C9.76902 18.2631 9.54116 18.4738 9.33893 18.5963C8.99143 18.8099 8.56419 18.9167 8.05719 18.9167C7.22264 18.9167 6.53904 18.6276 6.00641 18.0494C5.45099 17.4684 5.17328 16.6737 5.17328 15.6654C5.17328 14.6457 5.45384 13.8282 6.01495 13.213C6.57607 12.5978 7.31805 12.2902 8.24091 12.2902C9.04128 12.2902 9.68357 12.4938 10.1678 12.9011C10.6548 13.3056 10.934 13.8112 11.0052 14.4178H9.71063Z" fill="white"/>
<path d="M13.2397 16.8062C13.2796 17.0938 13.3579 17.3089 13.4747 17.4513C13.6883 17.7105 14.0543 17.8401 14.5727 17.8401C14.8832 17.8401 15.1352 17.8059 15.3289 17.7375C15.6964 17.6065 15.8801 17.363 15.8801 17.007C15.8801 16.799 15.7889 16.6381 15.6066 16.5242C15.4243 16.4131 15.1381 16.3148 14.7479 16.2294L14.0814 16.0798C13.4262 15.9317 12.9734 15.7708 12.7227 15.597C12.2983 15.3065 12.0861 14.8522 12.0861 14.2341C12.0861 13.6702 12.2912 13.2016 12.7014 12.8285C13.1115 12.4554 13.7139 12.2688 14.5086 12.2688C15.1723 12.2688 15.7377 12.4454 16.2048 12.7986C16.6747 13.1489 16.9211 13.6588 16.9439 14.3281H15.6793C15.6565 13.9493 15.4913 13.6801 15.1837 13.5206C14.9786 13.4152 14.7237 13.3625 14.4189 13.3625C14.0799 13.3625 13.8093 13.4309 13.6071 13.5676C13.4049 13.7043 13.3038 13.8952 13.3038 14.1401C13.3038 14.3652 13.4035 14.5332 13.6028 14.6443C13.731 14.7183 14.0045 14.8052 14.4232 14.9049L15.5084 15.1655C15.984 15.2795 16.3429 15.4318 16.585 15.6227C16.961 15.9189 17.149 16.3476 17.149 16.9087C17.149 17.484 16.9282 17.9626 16.4868 18.3442C16.0481 18.7231 15.4272 18.9125 14.624 18.9125C13.8036 18.9125 13.1585 18.7259 12.6885 18.3528C12.2186 17.9768 11.9836 17.4613 11.9836 16.8062H13.2397Z" fill="white"/>
<path d="M20.9088 17.8102C21.43 17.8102 21.843 17.6179 22.1478 17.2334C22.4554 16.8489 22.6092 16.302 22.6092 15.5928C22.6092 14.8864 22.4554 14.3409 22.1478 13.9564C21.843 13.5691 21.43 13.3754 20.9088 13.3754C20.3875 13.3754 19.9717 13.5676 19.6612 13.9521C19.3507 14.3367 19.1955 14.8835 19.1955 15.5928C19.1955 16.302 19.3507 16.8489 19.6612 17.2334C19.9717 17.6179 20.3875 17.8102 20.9088 17.8102ZM23.9251 15.5928C23.9251 16.7236 23.6075 17.5894 22.9724 18.1904C22.4967 18.6803 21.8088 18.9253 20.9088 18.9253C20.0087 18.9253 19.3208 18.6803 18.8452 18.1904C18.2071 17.5894 17.8881 16.7236 17.8881 15.5928C17.8881 14.4392 18.2071 13.5733 18.8452 12.9951C19.3208 12.5052 20.0087 12.2603 20.9088 12.2603C21.8088 12.2603 22.4967 12.5052 22.9724 12.9951C23.6075 13.5733 23.9251 14.4392 23.9251 15.5928Z" fill="white"/>
<path fill-rule="evenodd" clip-rule="evenodd" d="M1.688 10.4419H28.312C28.4814 10.4419 28.6338 10.5096 28.7467 10.6225C28.8596 10.7355 28.9274 10.8879 28.9274 11.0572V20.3215C28.9274 20.4908 28.8596 20.6433 28.7467 20.7562C28.6338 20.8691 28.4814 20.9368 28.312 20.9368H1.688C1.51864 20.9368 1.3662 20.8691 1.25329 20.7562C1.14038 20.6433 1.07263 20.4908 1.07263 20.3215V11.0572C1.07263 10.8879 1.14038 10.7355 1.25329 10.6225C1.3662 10.5096 1.51864 10.4419 1.688 10.4419ZM28.312 10.5661H1.688C1.55251 10.5661 1.42831 10.6225 1.33799 10.7129C1.24766 10.8032 1.1912 10.9274 1.1912 11.0629V20.3271C1.1912 20.4626 1.24766 20.5868 1.33799 20.6771C1.42831 20.7675 1.55251 20.8239 1.688 20.8239H28.312C28.4475 20.8239 28.5717 20.7675 28.662 20.6771C28.7524 20.5868 28.8088 20.4626 28.8088 20.3271V11.0629C28.8088 10.9274 28.7524 10.8032 28.662 10.7129C28.5717 10.6225 28.4475 10.5661 28.312 10.5661Z" fill="white"/>
</svg>
