<svg width="49" height="49" viewBox="0 0 49 49" fill="none" xmlns="http://www.w3.org/2000/svg">
<path d="M24.0017 48.0033C37.2574 48.0033 48.0033 37.2574 48.0033 24.0017C48.0033 10.7459 37.2574 0 24.0017 0C10.7459 0 0 10.7459 0 24.0017C0 37.2574 10.7459 48.0033 24.0017 48.0033Z" fill="#322C2B"/>
<path fill-rule="evenodd" clip-rule="evenodd" d="M13.4198 14.3924H22.1031L23.0291 17.5955L22.1031 20.7986H13.4198C11.654 20.7986 10.2167 22.2358 10.2167 24.0017C10.2167 25.7675 11.654 27.2048 13.4198 27.2048H22.1031L22.8864 30.4079L22.1031 33.611H13.4198C8.12228 33.611 3.81055 29.2992 3.81055 24.0017C3.81055 23.9187 3.81055 23.8357 3.81387 23.7527C3.81719 23.6697 3.8205 23.5868 3.82382 23.5071C3.82714 23.4241 3.83378 23.3445 3.84042 23.2615C3.84706 23.1818 3.8537 23.0988 3.86366 23.0192C3.87029 22.9395 3.88025 22.8598 3.89021 22.7769C3.90017 22.6972 3.91013 22.6175 3.9234 22.5379C3.93668 22.4582 3.94996 22.3786 3.96323 22.2989C3.97651 22.2192 3.99311 22.1429 4.0097 22.0632C4.0263 21.9836 4.0429 21.9072 4.05949 21.8309C4.07609 21.7545 4.096 21.6782 4.11592 21.5985C4.13584 21.5222 4.15575 21.4458 4.17899 21.3695C4.1989 21.2931 4.22214 21.2168 4.24537 21.1438C4.26861 21.0674 4.29184 20.9944 4.3184 20.9181C4.34495 20.845 4.36818 20.7687 4.39806 20.6957C4.42461 20.6227 4.45449 20.5496 4.48104 20.4766C4.51091 20.4036 4.54079 20.3306 4.57066 20.2609C4.60053 20.1878 4.63373 20.1181 4.6636 20.0451C4.69679 19.9754 4.72999 19.9024 4.76318 19.8327C4.79637 19.763 4.83288 19.6933 4.86608 19.6236C4.90259 19.5538 4.9391 19.4875 4.97561 19.4178C5.01212 19.3514 5.05195 19.2817 5.08847 19.2153C5.1283 19.1489 5.16481 19.0825 5.20796 19.0161C5.24779 18.9497 5.28762 18.8834 5.33077 18.8203C5.37392 18.7539 5.41376 18.6908 5.45691 18.6278C5.50006 18.5647 5.54321 18.5016 5.58968 18.4386C5.63283 18.3755 5.6793 18.3124 5.72577 18.2527C5.77224 18.1896 5.81871 18.1299 5.86518 18.0701C5.91165 18.0104 5.96144 17.9506 6.01122 17.8909C6.06101 17.8311 6.1108 17.7714 6.16059 17.715C6.21038 17.6552 6.26349 17.5988 6.31328 17.5424C6.36639 17.4859 6.41618 17.4295 6.46928 17.3731C6.52239 17.3167 6.5755 17.2636 6.63193 17.2071C6.68504 17.154 6.74146 17.0976 6.79789 17.0445C6.85432 16.9914 6.91075 16.9383 6.96718 16.8885C7.0236 16.8354 7.08003 16.7856 7.13978 16.7358C7.19952 16.686 7.25595 16.6362 7.3157 16.5864C7.37545 16.5366 7.43519 16.4902 7.49494 16.4404C7.55469 16.3939 7.61775 16.3474 7.6775 16.301C7.74057 16.2545 7.80031 16.208 7.86338 16.1649C7.92645 16.1217 7.98951 16.0753 8.05258 16.0321C8.11564 15.989 8.18203 15.9458 8.2451 15.906C8.31148 15.8628 8.37455 15.823 8.44093 15.7832C8.50732 15.7433 8.5737 15.7035 8.64009 15.6637C8.70647 15.6238 8.77618 15.5873 8.84256 15.5508C8.91227 15.5143 8.97865 15.4778 9.04836 15.4413C9.11806 15.4048 9.18777 15.3716 9.25747 15.3384C9.32718 15.3052 9.39688 15.272 9.46991 15.2388C9.53961 15.2056 9.61264 15.1757 9.68566 15.1459C9.75868 15.116 9.82839 15.0861 9.90141 15.0562C9.97444 15.0264 10.0475 14.9998 10.1205 14.9733C10.1935 14.9467 10.2665 14.9201 10.3429 14.8936C10.4159 14.867 10.4922 14.8438 10.5686 14.8206C10.6449 14.7973 10.718 14.7741 10.7943 14.7542C10.8706 14.7309 10.947 14.711 11.0233 14.6911C11.0997 14.6712 11.176 14.6513 11.2557 14.6347C11.332 14.6181 11.4117 14.5982 11.488 14.5849C11.5677 14.5683 11.644 14.555 11.7237 14.5384C11.8034 14.5252 11.883 14.5119 11.9627 14.4986C12.0423 14.4853 12.122 14.4754 12.2017 14.4654C12.2813 14.4554 12.361 14.4455 12.444 14.4389C12.5236 14.4322 12.6066 14.4223 12.6863 14.4156C12.7659 14.409 12.8489 14.4057 12.9319 14.399C13.0149 14.3957 13.0946 14.3924 13.1775 14.3891C13.2605 14.3857 13.3435 14.3857 13.4265 14.3857L13.4198 14.3924Z" fill="black"/>
<path fill-rule="evenodd" clip-rule="evenodd" d="M17.6918 33.611V27.2048H23.0292V33.611H17.6918Z" fill="#F2F2FC"/>
<path fill-rule="evenodd" clip-rule="evenodd" d="M17.6918 20.7985V14.3923H23.0292V20.7985H17.6918Z" fill="#DFE7F4"/>
<path d="M44.1895 24.0015C44.1895 29.3057 39.8877 33.6075 34.5869 33.6075C29.2661 33.6075 24.9742 29.3057 24.9742 24.0015C24.9742 18.6973 29.2661 14.3889 34.5869 14.3889C39.8877 14.3889 44.1895 18.6973 44.1895 24.0015Z" fill="#B3B3B3"/>
<path d="M29.3756 32.074C29.8901 29.6675 32.031 27.8618 34.5902 27.8618C36.054 27.8618 37.385 28.4626 38.3509 29.4219C39.0679 30.1355 39.5757 31.0516 39.7948 32.074C38.2945 33.0432 36.5087 33.6075 34.5902 33.6075C32.6683 33.6075 30.8792 33.0432 29.3756 32.074Z" fill="white"/>
<path d="M38.6098 21.0574V23.3078C38.6098 25.5318 36.8008 27.3275 34.5902 27.3275C32.3663 27.3275 30.5706 25.5318 30.5706 23.3078V20.9678C30.6137 18.787 32.3995 17.0344 34.5902 17.0344C35.6922 17.0344 36.6979 17.4825 37.4282 18.2094C38.1551 18.9397 38.6132 19.9421 38.6132 21.0541L38.6098 21.0574Z" fill="white"/>
<path d="M38.6099 21.0574V21.1603C34.9819 21.3926 32.6883 19.0824 32.6883 19.0824C31.7954 20.5761 31.2245 20.7653 30.5673 20.9678C30.6104 18.787 32.3962 17.0344 34.5869 17.0344C35.6889 17.0344 36.6946 17.4825 37.4249 18.2094C38.1518 18.9397 38.6099 19.9421 38.6099 21.0541V21.0574Z" fill="black"/>
</svg>
