<svg width="49" height="49" viewBox="0 0 49 49" fill="none" xmlns="http://www.w3.org/2000/svg">
<g filter="url(#filter0_d)">
<circle cx="24.5" cy="20.5" r="20.5" fill="white"/>
<path fill-rule="evenodd" clip-rule="evenodd" d="M12.8107 25.2119C9.72301 21.6757 9.11344 17.1541 11.4496 15.1158C12.8713 13.8742 15.0273 13.7616 17.2163 14.721C18.7816 15.4426 20.1665 16.5039 21.2703 17.8277C24.2645 21.3622 24.8671 25.8821 22.6314 27.9238C20.3957 29.9655 16.5236 28.9074 13.493 25.9427L13.5502 25.8942C13.8082 25.6691 14.0541 25.4387 14.2914 25.2015C16.3244 26.4726 18.6623 26.8865 20.4754 25.3037C22.2885 23.7209 22.2712 20.6037 20.0736 18.0875C17.8761 15.5713 14.4334 14.2499 12.3934 16.0319C10.3534 17.8139 10.4763 21.2964 12.6722 23.8126C12.9379 24.1142 13.2275 24.3939 13.538 24.6491L12.8107 25.2119ZM13.4445 25.889L13.3649 25.8076L13.4445 25.889ZM13.99 24.9989L13.9346 24.9591L13.99 24.9989ZM13.8671 24.9123L13.8117 24.8707L13.8671 24.9123ZM13.7545 24.8274L13.687 24.7755L13.7545 24.8274ZM13.6419 24.7391L13.5692 24.6802L13.6419 24.7391Z" fill="url(#paint0_linear)"/>
<path fill-rule="evenodd" clip-rule="evenodd" d="M21.4313 23.7188C23.0505 20.2103 20.091 16.7468 17.3514 14.7812C18.9012 15.5212 20.2679 16.5952 21.3534 17.9261C24.3597 21.5333 24.8637 26.0653 22.4825 28.0516C20.2711 29.8924 16.3539 28.8932 13.3995 25.8609C13.1685 25.6526 12.9601 25.4204 12.7778 25.1682C11.1967 23.4157 10.3274 21.2632 10.1404 19.4258C10.6512 21.8294 11.9345 23.5196 13.448 24.5569L13.4584 24.5673C13.6994 24.7715 13.9515 24.9623 14.2134 25.1388C16.5859 26.422 20.2849 26.5865 21.4313 23.7188Z" fill="url(#paint1_linear)"/>
<path fill-rule="evenodd" clip-rule="evenodd" d="M33.6193 26.0188C29.0094 31.1846 22.5067 32.9059 19.0952 29.8615C18.732 29.5375 18.413 29.1672 18.1462 28.7601C19.1852 29.0199 20.1152 29.0436 20.936 28.8311C23.9631 30.84 28.5557 29.8875 31.5949 26.4777C31.9878 26.0379 32.3445 25.567 32.6616 25.0698L33.6193 26.0188ZM17.4084 27.1929L17.3929 27.1392L17.4084 27.1929ZM17.36 27.0301C17.36 26.9955 17.3409 26.9609 17.3322 26.9262C17.3322 26.9609 17.3513 26.9955 17.36 27.0301ZM17.3028 26.8206C17.2924 26.7825 17.2838 26.7444 17.2734 26.7063C17.2838 26.7444 17.2924 26.7825 17.3028 26.8206ZM17.2543 26.618C17.2439 26.5781 17.2353 26.5366 17.2266 26.495C17.2266 26.5366 17.2439 26.5781 17.2543 26.618ZM17.2093 26.405L17.1833 26.2647L17.2093 26.405ZM17.1695 26.1833C17.1695 26.1365 17.1539 26.0881 17.147 26.0413C17.147 26.0881 17.1608 26.1365 17.1695 26.1833ZM17.1296 25.9478V26.0032C17.6806 26.0506 18.2356 26.0162 18.7765 25.901C18.1046 23.1302 18.9982 19.8901 21.8486 16.6933C24.6991 13.4965 29.6986 12.4177 32.3465 14.7763C34.9943 17.1349 34.8177 20.6365 33.3318 23.8472C33.7197 24.1485 34.1019 24.4671 34.4782 24.8031L34.5614 24.8776C38.3452 19.9075 38.9496 13.9762 35.7857 11.1518C32.369 8.10736 25.8697 9.82871 21.2616 14.9945C18.1427 18.4909 16.6898 22.6696 17.1296 25.9478ZM19.0346 26.618C19.0449 26.6457 19.0571 26.6717 19.0692 26.6994C19.0571 26.6717 19.0449 26.6457 19.0346 26.618ZM19.1056 26.7756C19.1194 26.8067 19.1333 26.8362 19.1488 26.8656C19.1333 26.8362 19.1194 26.8067 19.1056 26.7756ZM19.18 26.9314L19.2302 27.0267L19.18 26.9314ZM19.2614 27.0803L19.2943 27.141L19.2614 27.0803ZM34.4852 24.9745L34.3813 25.1062L34.4852 24.9745ZM33.0842 24.3407C33.0686 24.3702 33.053 24.3996 33.0357 24.429C33.053 24.3996 33.0686 24.3702 33.0842 24.3407ZM32.9786 24.5347L32.9283 24.6247L32.9786 24.5347ZM32.8746 24.7079L32.8123 24.8152L32.8885 24.713L32.8746 24.7079ZM32.7673 24.881L32.6945 24.9988L32.7673 24.881Z" fill="url(#paint2_linear)"/>
<path fill-rule="evenodd" clip-rule="evenodd" d="M29.6935 13.6299C24.2298 12.0246 19.8104 17.0934 17.5453 21.5145C18.1826 19.3187 19.4364 17.0397 21.2616 14.9945C25.8698 9.82871 32.369 8.10736 35.7857 11.1518C38.9496 13.9762 38.3453 19.9075 34.5614 24.8741C34.3118 25.2559 34.0215 25.6096 33.6955 25.9287C31.4702 28.6181 28.5193 30.3516 25.8802 31.0253C29.2761 29.7576 31.465 27.5323 32.6461 25.0871C32.6511 25.0814 32.6552 25.075 32.6582 25.0681C32.9059 24.6743 33.1309 24.2667 33.3319 23.8472C34.6878 20.1083 34.1267 14.6776 29.6952 13.6299H29.6935Z" fill="url(#paint3_linear)"/>
</g>
<defs>
<filter id="filter0_d" x="0" y="0" width="49" height="49" filterUnits="userSpaceOnUse" color-interpolation-filters="sRGB">
<feFlood flood-opacity="0" result="BackgroundImageFix"/>
<feColorMatrix in="SourceAlpha" type="matrix" values="0 0 0 0 0 0 0 0 0 0 0 0 0 0 0 0 0 0 127 0"/>
<feOffset dy="4"/>
<feGaussianBlur stdDeviation="2"/>
<feColorMatrix type="matrix" values="0 0 0 0 0 0 0 0 0 0 0 0 0 0 0 0 0 0 0.25 0"/>
<feBlend mode="normal" in2="BackgroundImageFix" result="effect1_dropShadow"/>
<feBlend mode="normal" in="SourceGraphic" in2="effect1_dropShadow" result="shape"/>
</filter>
<linearGradient id="paint0_linear" x1="17.5643" y1="14.9617" x2="16.4491" y2="28.0797" gradientUnits="userSpaceOnUse">
<stop stop-color="#E51314"/>
<stop offset="1" stop-color="#921E17"/>
</linearGradient>
<linearGradient id="paint1_linear" x1="10.3828" y1="21.1471" x2="23.8298" y2="22.3715" gradientUnits="userSpaceOnUse">
<stop stop-color="#921E17"/>
<stop offset="0.33" stop-color="#5B1811"/>
<stop offset="0.71" stop-color="#E51314"/>
<stop offset="0.85" stop-color="#ED5758"/>
<stop offset="1" stop-color="#E51314"/>
</linearGradient>
<linearGradient id="paint2_linear" x1="2172.9" y1="2607.71" x2="2025.33" y2="135.935" gradientUnits="userSpaceOnUse">
<stop stop-color="#E51314"/>
<stop offset="1" stop-color="#921E17"/>
</linearGradient>
<linearGradient id="paint3_linear" x1="2161.81" y1="2552.81" x2="2016.04" y2="129.172" gradientUnits="userSpaceOnUse">
<stop stop-color="#921E17"/>
<stop offset="0.33" stop-color="#5B1811"/>
<stop offset="0.71" stop-color="#E51314"/>
<stop offset="0.85" stop-color="#ED5758"/>
<stop offset="1" stop-color="#E51314"/>
</linearGradient>
</defs>
</svg>
