<svg width="49" height="49" viewBox="0 0 49 49" fill="none" xmlns="http://www.w3.org/2000/svg">
<path d="M24.002 48.004C37.2579 48.004 48.004 37.2579 48.004 24.002C48.004 10.7461 37.2579 0 24.002 0C10.7461 0 0 10.7461 0 24.002C0 37.2579 10.7461 48.004 24.002 48.004Z" fill="#322C2B"/>
<path d="M37.423 13.1882H10.5771V37.824H37.423V13.1882Z" fill="white"/>
<path d="M17.5083 22.9512H13.6296V26.8298H17.5083V22.9512Z" fill="black"/>
<path d="M34.7797 22.9512H19.2731V26.8298H34.7797V22.9512Z" fill="#B3B3B3"/>
<path d="M17.5083 29.6416H13.6296V33.5203H17.5083V29.6416Z" fill="black"/>
<path d="M34.7797 29.6416H19.2731V33.5203H34.7797V29.6416Z" fill="#B3B3B3"/>
<path d="M32.5336 7.53271H15.4706C14.9301 7.53271 14.4919 8.04272 14.4919 8.67185V18.2903C14.4919 18.9194 14.9301 19.4294 15.4706 19.4294H32.5336C33.0741 19.4294 33.5123 18.9194 33.5123 18.2903V8.67185C33.5123 8.04272 33.0741 7.53271 32.5336 7.53271Z" fill="#243239"/>
</svg>
