<svg width="48" height="48" viewBox="0 0 48 48" fill="none" xmlns="http://www.w3.org/2000/svg">
<path d="M24 48C37.2548 48 48 37.2548 48 24C48 10.7452 37.2548 0 24 0C10.7452 0 0 10.7452 0 24C0 37.2548 10.7452 48 24 48Z" fill="#940A0A"/>
<path fill-rule="evenodd" clip-rule="evenodd" d="M0.381968 15.2333C0.420161 15.2524 1.19361 15.3288 1.12677 15.1187C0.888061 14.7654 -0.362808 14.9086 0.381968 15.2333Z" fill="#69AEB4"/>
<path fill-rule="evenodd" clip-rule="evenodd" d="M2.57814 14.9277C2.75001 14.9563 2.92191 14.9468 3.08423 14.899C3.17971 15.0327 3.30381 15.0996 3.46613 15.0996C3.47568 14.3166 4.86023 15.0423 4.81249 14.4694C4.44965 14.1161 3.74308 13.8964 3.3325 13.9824C3.11288 14.0301 2.28216 13.8965 2.24397 14.1829C2.24397 14.1829 2.80732 14.6603 2.77867 14.6508C2.49222 14.8131 2.17714 14.5457 1.90024 14.7081C1.87159 15.1855 2.36807 14.9181 2.57814 14.9277Z" fill="#69AEB4"/>
<path fill-rule="evenodd" clip-rule="evenodd" d="M26.6305 12.9799V37.7294C26.6305 38.5887 25.9335 39.2762 25.0837 39.2762H1.55639C1.19356 39.2762 0.849852 39.1521 0.582497 38.9325C0.229206 38.646 0 38.2164 0 37.7294V12.9799C0 12.1206 0.697029 11.4331 1.54684 11.4331H25.0741C25.9335 11.4235 26.6305 12.1206 26.6305 12.9799Z" fill="#E2E9F5"/>
<path fill-rule="evenodd" clip-rule="evenodd" d="M41.8602 6L41.2873 6.98348L40.7144 6L40.1415 6.98348L39.5685 6L38.9957 6.98348L38.4228 6L37.8498 6.98348L37.277 6L36.704 6.98348L36.1311 6L35.5583 6.98348L34.9853 6L34.4124 6.98348L33.8395 6L33.2666 6.98348L32.6937 6L32.1208 6.98348L31.5479 6L30.975 6.98348L30.4021 6L29.8292 6.98348L29.2563 6L28.6834 6.98348L28.1105 6L27.5376 6.98348L26.9647 6L26.3918 6.98348L25.8189 6L25.2459 6.98348L24.6731 6L24.1002 6.98348L23.5272 6L22.9544 6.98348L22.3814 6L21.8085 6.98348L21.2357 6L20.6627 6.98348L20.0898 6L19.5169 6.98348L18.944 6L18.3711 6.98348L17.7982 6L17.2253 6.98348L16.6524 6L16.0795 6.98348L15.5066 6L14.9337 6.98348L14.3608 6L13.7879 6.98348L13.215 6L12.6421 6.98348L12.0692 6L11.4963 6.98348L10.9233 6L10.3505 6.98348L9.77757 6L9.20463 6.98348L8.63175 6L8.05881 6.98348L7.48593 6L6.91305 6.98348L6.34011 6L5.76723 6.98348L5.19429 6L4.62141 6.98348L4.04853 6L3.47559 6.98348L2.95044 6.08593V36.6504C2.95044 37.8821 2.10062 38.9038 0.964355 39.1903C1.19352 39.238 1.43222 39.2666 1.67093 39.2666H38.3177C40.1701 39.2666 41.6692 37.7675 41.6692 35.9151V6.10502L41.8602 6Z" fill="#D4D5D5"/>
<path d="M40.6475 33.6904H6.93213V35.8102H40.6475V33.6904Z" fill="#3F4B5A"/>
<path d="M32.2641 30.3293H24.7495V30.9595H32.2641V30.3293Z" fill="#E2E9F5"/>
<path d="M40.5616 16.7229H6.93213V17.8878H40.5616V16.7229Z" fill="#C6D2E3"/>
<path fill-rule="evenodd" clip-rule="evenodd" d="M23.5941 32.2771C23.5941 32.5063 23.4317 32.6973 23.2312 32.6973H7.30449C7.10398 32.6973 6.94165 32.5063 6.94165 32.2771V19.0431C6.94165 18.8139 7.10398 18.6229 7.30449 18.6229H23.2312C23.4317 18.6229 23.5941 18.8139 23.5941 19.0431V32.2771Z" fill="#E2E9F5"/>
<path d="M40.323 18.7758H24.7495V20.0362H40.323V18.7758Z" fill="#E2E9F5"/>
<path d="M40.323 20.7141H24.7495V21.9745H40.323V20.7141Z" fill="#E2E9F5"/>
<path d="M32.0349 22.6523H24.7495V23.9127H32.0349V22.6523Z" fill="#E2E9F5"/>
<path d="M32.0349 28.4579H24.7495V29.7183H32.0349V28.4579Z" fill="#E2E9F5"/>
<path d="M36.7519 24.6863H24.7495V25.9466H36.7519V24.6863Z" fill="#E2E9F5"/>
<path d="M36.7519 26.6245H24.7495V27.8849H36.7519V26.6245Z" fill="#E2E9F5"/>
<path d="M40.5616 9.06494H6.93213V16.1021H40.5616V9.06494Z" fill="#E2E9F5"/>
<path d="M32.2641 31.6375H24.7495V32.2676H32.2641V31.6375Z" fill="#E2E9F5"/>
<path d="M15.5257 31.7903C18.2573 31.7903 20.4717 31.7091 20.4717 31.6089C20.4717 31.5087 18.2573 31.4275 15.5257 31.4275C12.794 31.4275 10.5796 31.5087 10.5796 31.6089C10.5796 31.7091 12.794 31.7903 15.5257 31.7903Z" fill="black" stroke="black" stroke-width="0.5669" stroke-miterlimit="22.9256"/>
<path fill-rule="evenodd" clip-rule="evenodd" d="M10.8279 19.6543H15.5257H15.7358H20.4336V26.4623H15.7358H15.5257H10.8279V19.6543Z" fill="#E50B14"/>
<path fill-rule="evenodd" clip-rule="evenodd" d="M19.9753 23.6265C19.9944 23.2827 19.9562 22.6048 19.8416 21.5927C19.7461 21.5927 19.7079 21.5927 19.7079 21.5927C19.8034 23.044 19.8511 23.7602 19.8511 23.7602L19.9753 23.6265Z" fill="#393A39"/>
<path fill-rule="evenodd" clip-rule="evenodd" d="M12.4034 31.628V29.5274V29.3746C12.3938 29.3746 12.3747 29.3746 12.3652 29.3746C12.0501 29.3746 11.7445 29.365 11.4294 29.365C11.2194 29.2027 11.0761 28.9258 11.0189 28.5439H10.9902C10.9711 28.5725 10.952 28.6012 10.9233 28.6107V31.6376H12.4034V31.628ZM18.8581 29.365V29.5178V31.6185H20.3381V28.5916C20.3095 28.5821 20.2904 28.5534 20.2713 28.5248H20.2426C20.1853 28.9067 20.0516 29.1836 19.832 29.346C19.5169 29.346 19.2114 29.3555 18.8963 29.3555C18.8867 29.365 18.8676 29.365 18.8581 29.365Z" fill="#393A39"/>
<path fill-rule="evenodd" clip-rule="evenodd" d="M15.6499 30.2817C16.4902 30.2817 17.3304 30.2626 18.1611 30.2148C18.4858 30.1002 18.7341 29.8425 18.8487 29.5178V29.365C17.7697 29.3746 16.7003 29.3746 15.6213 29.3555C14.5423 29.3746 13.4729 29.3746 12.3939 29.365V29.5178C12.499 29.8425 12.7567 30.1002 13.0814 30.2148C13.9407 30.2626 14.8001 30.2817 15.6499 30.2817Z" fill="black"/>
<path fill-rule="evenodd" clip-rule="evenodd" d="M13.4346 28.3434C14.8955 28.3243 16.366 28.3243 17.8269 28.3434C17.8842 28.3338 18.0178 28.5821 18.2375 29.0691C18.0274 28.8399 17.8651 28.7253 17.7409 28.7253C16.3373 28.7157 14.9146 28.7157 13.511 28.7253C13.3869 28.7253 13.2245 28.8399 13.0145 29.0691C13.2341 28.5821 13.3773 28.3434 13.4346 28.3434ZM11.057 27.6941C11.0189 27.7896 10.9998 27.9423 10.9998 28.1524C10.9998 28.267 11.0093 28.3816 11.0189 28.4771C11.0189 28.4962 11.0189 28.5057 11.0284 28.5248C11.0857 28.9067 11.2194 29.1836 11.439 29.346C11.7541 29.346 12.0596 29.3555 12.3747 29.3555C12.3843 29.3555 12.4034 29.3555 12.4129 29.3555C13.4919 29.365 14.5613 29.3651 15.6403 29.346C16.7192 29.3651 17.7887 29.365 18.8676 29.3555C18.8772 29.3555 18.8963 29.3555 18.9059 29.3555C19.221 29.3555 19.5265 29.346 19.8416 29.346C20.0612 29.1836 20.1949 28.9067 20.2522 28.5248C20.2522 28.5057 20.2522 28.4962 20.2617 28.4771C20.2713 28.372 20.2808 28.267 20.2808 28.1524C20.2808 27.9423 20.2617 27.7896 20.2235 27.6941C20.1854 27.6081 20.1376 27.5699 20.0803 27.5699C19.5838 27.6654 19.1063 27.7323 18.6767 27.7896C18.0942 27.8564 17.5691 27.8946 17.1012 27.9041C16.2991 27.9041 15.8313 27.9041 15.6785 27.9041C15.6785 27.9041 15.1915 27.9041 14.208 27.9041C13.7401 27.9041 13.215 27.866 12.6326 27.7896C12.1933 27.7323 11.7254 27.6654 11.2289 27.5699C11.1334 27.5699 11.0857 27.6081 11.057 27.6941ZM12.4034 28.6967C11.7828 28.6585 11.4772 28.6489 11.4772 28.6489C11.439 28.6203 11.4008 28.5821 11.3626 28.5343C11.334 28.4962 11.3148 28.4389 11.2862 28.3816C11.1239 27.9805 11.1907 27.8086 11.4963 27.8564C12.1169 27.9232 12.4893 27.9901 12.5943 28.0665C12.6898 28.1237 12.7566 28.2192 12.7662 28.3338C12.6039 28.5821 12.518 28.7158 12.518 28.7158C12.4893 28.7062 12.4416 28.6967 12.4034 28.6967ZM19.8989 28.5343C19.8607 28.5821 19.832 28.6203 19.7843 28.6489C19.7843 28.6489 19.4787 28.668 18.8581 28.6967C18.8199 28.6967 18.7817 28.6967 18.7339 28.7062C18.7339 28.7062 18.6481 28.5821 18.4857 28.3243C18.4953 28.2097 18.5621 28.1142 18.6576 28.0569C18.7626 27.9805 19.1254 27.9137 19.7556 27.8469C20.0612 27.7991 20.1376 27.971 19.9657 28.372C19.9466 28.4388 19.9275 28.4866 19.8989 28.5343Z" fill="#393A39"/>
<path fill-rule="evenodd" clip-rule="evenodd" d="M12.4034 28.6967C12.4416 28.6967 12.4797 28.6967 12.5275 28.7062C12.5275 28.7062 12.6134 28.5821 12.7757 28.3243C12.7662 28.2097 12.6993 28.1142 12.6039 28.0569C12.4988 27.9806 12.136 27.9137 11.5058 27.8469C11.2003 27.7991 11.1239 27.971 11.2957 28.372C11.3148 28.4293 11.3435 28.4771 11.3721 28.5248C11.4103 28.5726 11.439 28.6107 11.4867 28.6394C11.4772 28.6489 11.7827 28.668 12.4034 28.6967Z" fill="white"/>
<path fill-rule="evenodd" clip-rule="evenodd" d="M19.8989 28.5342C19.9275 28.496 19.9466 28.4388 19.9753 28.3815C20.1376 27.9804 20.0707 27.8085 19.7652 27.8563C19.1445 27.9231 18.7722 27.99 18.6672 28.0663C18.5717 28.1236 18.5048 28.2191 18.4952 28.3337C18.6576 28.582 18.7435 28.7157 18.7435 28.7157C18.7817 28.7157 18.8294 28.7157 18.8676 28.7061C19.4883 28.6679 19.7939 28.6584 19.7939 28.6584C19.8225 28.6202 19.8607 28.582 19.8989 28.5342Z" fill="white"/>
<path fill-rule="evenodd" clip-rule="evenodd" d="M18.2375 29.069C18.0179 28.582 17.8842 28.3433 17.8269 28.3433C16.366 28.3242 14.8955 28.3242 13.4346 28.3433C13.3773 28.3338 13.2437 28.582 13.024 29.069C13.2341 28.8398 13.3965 28.7252 13.5206 28.7252C14.9242 28.7157 16.3469 28.7157 17.7505 28.7252C17.8746 28.7157 18.037 28.8303 18.2375 29.069Z" fill="#6A6C6C"/>
<path fill-rule="evenodd" clip-rule="evenodd" d="M16.175 26.911C16.3182 26.806 16.4233 26.6723 16.4997 26.51C17.5882 26.5004 18.1325 26.4909 18.1325 26.4909C18.1325 26.615 18.1133 26.7487 18.0942 26.8919L16.175 26.911ZM19.0013 26.4622C19.0491 26.2904 19.0968 26.0994 19.1541 25.8893C18.543 25.9657 17.6168 25.9943 16.3851 25.9753C15.9936 25.5265 15.2679 25.5265 14.8764 25.9753C13.6447 25.9943 12.7185 25.9657 12.1074 25.8893C12.1647 26.0994 12.2124 26.2904 12.2602 26.4622C12.4893 27.3407 12.6039 27.7799 12.6039 27.7799C13.1864 27.8468 13.7115 27.8849 14.1794 27.8945C14.9815 27.8945 15.4589 27.8945 15.6021 27.8945C15.6021 27.8945 16.0891 27.8945 17.0725 27.8945C17.5404 27.8945 18.0656 27.8563 18.6481 27.7799C18.6576 27.7895 18.7722 27.3502 19.0013 26.4622ZM13.301 27.3121C14.189 27.3216 14.9623 27.3216 15.6307 27.3121C16.2991 27.3121 17.0725 27.3121 17.9605 27.3121C17.9796 27.398 17.9701 27.5126 17.9224 27.6558C17.1489 27.6749 16.3851 27.6844 15.6307 27.6844C14.8764 27.6844 14.1126 27.6749 13.3391 27.6558C13.2914 27.503 13.2819 27.398 13.301 27.3121ZM14.7618 26.51C14.8287 26.6723 14.9433 26.806 15.0865 26.911L13.1768 26.8919C13.1482 26.7487 13.1386 26.6246 13.1386 26.4909C13.1291 26.4909 13.6733 26.4909 14.7618 26.51Z" fill="#6A6C6C"/>
<path fill-rule="evenodd" clip-rule="evenodd" d="M15.0865 26.9111C14.9433 26.8061 14.8382 26.6724 14.7618 26.5101C13.6733 26.5005 13.129 26.491 13.129 26.491C13.129 26.6151 13.1482 26.7488 13.1673 26.892L15.0865 26.9111Z" fill="#393A39"/>
<path fill-rule="evenodd" clip-rule="evenodd" d="M16.4997 26.5101C16.4329 26.6724 16.3183 26.8061 16.175 26.9111L18.0847 26.892C18.1134 26.7488 18.123 26.6246 18.123 26.491C18.1325 26.491 17.5882 26.491 16.4997 26.5101Z" fill="#393A39"/>
<path fill-rule="evenodd" clip-rule="evenodd" d="M17.9605 27.3121C17.0725 27.3217 16.2991 27.3217 15.6307 27.3121C14.9623 27.3121 14.189 27.3121 13.301 27.3121C13.2819 27.3981 13.2914 27.5126 13.3391 27.6559C14.1126 27.675 14.8764 27.6845 15.6307 27.6845C16.3851 27.6845 17.1489 27.675 17.9224 27.6559C17.9701 27.5031 17.9796 27.3981 17.9605 27.3121Z" fill="#393A39"/>
<path fill-rule="evenodd" clip-rule="evenodd" d="M19.4119 26.9015C19.2305 27.1211 19.135 27.3025 19.135 27.4553C19.6124 27.4649 19.9084 27.398 20.0134 27.2643C20.0707 27.0352 20.0325 26.8347 19.8798 26.6819C19.5742 26.8251 19.4119 26.9015 19.4119 26.9015Z" fill="#FEC900"/>
<path fill-rule="evenodd" clip-rule="evenodd" d="M12.1169 27.4553C12.1169 27.3025 12.031 27.1211 11.84 26.9015C11.84 26.9015 11.6873 26.8251 11.3722 26.6819C11.2289 26.8442 11.1812 27.0352 11.2385 27.2643C11.3531 27.398 11.6395 27.4649 12.1169 27.4553Z" fill="#FEC900"/>
<path fill-rule="evenodd" clip-rule="evenodd" d="M12.2602 26.4624C12.2125 26.2905 12.1647 26.0995 12.1075 25.8895C12.7186 25.9658 13.6447 25.9945 14.8765 25.9754C15.2679 25.5266 15.9936 25.5266 16.3851 25.9754C17.6169 25.9945 18.543 25.9658 19.1541 25.8895C19.0968 26.0995 19.0491 26.2905 19.0014 26.4624C18.7722 27.3408 18.6577 27.78 18.6577 27.78C19.0969 27.7228 19.5647 27.6559 20.0612 27.5604C20.1281 27.5604 20.1758 27.5986 20.2045 27.6846C20.2522 27.1403 20.2808 26.8252 20.2904 26.7297C20.2999 26.7297 20.3 26.7202 20.3095 26.7202C20.3191 26.6056 20.2522 26.5005 20.1568 26.4528C20.1472 26.4528 20.1376 26.4433 20.1281 26.4433C20.1472 25.0492 20.1472 24.123 20.1185 23.6742C20.0899 23.2637 20.0708 22.9103 20.0422 22.6048H19.9371C19.9753 23.0631 19.9849 23.4069 19.9753 23.617L19.8512 23.7602C19.8512 23.7602 19.8034 23.0345 19.708 21.5927C19.708 21.5927 19.7557 21.5927 19.8416 21.5927C19.8798 21.946 19.9085 22.2611 19.9371 22.5284H20.0422C20.004 21.9651 19.9657 21.5736 19.9371 21.354C19.8512 21.0389 19.6698 20.867 19.412 20.8193C16.9485 20.7429 14.3036 20.7429 11.8496 20.8193C11.5823 20.867 11.4104 21.0389 11.3245 21.354C11.2958 21.5736 11.2671 21.9651 11.2194 22.5284H11.3245C11.3436 22.2611 11.3722 21.946 11.4199 21.5927C11.5154 21.5927 11.5536 21.5927 11.5536 21.5927C11.4582 23.044 11.4104 23.7602 11.4104 23.7602L11.2863 23.617C11.2767 23.4069 11.2863 23.0631 11.3245 22.6048H11.2194C11.2003 22.9103 11.1717 23.2732 11.1431 23.6742C11.1144 24.123 11.1144 25.0397 11.1335 26.4433C11.124 26.4433 11.1144 26.4528 11.1048 26.4528C10.9998 26.5005 10.9425 26.6056 10.9521 26.7202C10.9616 26.7202 10.9616 26.7297 10.9712 26.7297C10.9903 26.8252 11.0189 27.1403 11.0571 27.6846C11.0953 27.5986 11.1431 27.5604 11.2003 27.5604C11.6969 27.6559 12.1743 27.7228 12.6039 27.78C12.6039 27.7896 12.4894 27.3504 12.2602 26.4624ZM19.1446 27.4554C19.1446 27.3026 19.2305 27.1212 19.4215 26.9016C19.4215 26.9016 19.5743 26.8252 19.8894 26.682C20.0326 26.8443 20.0804 27.0353 20.0231 27.2644C19.9085 27.3981 19.622 27.465 19.1446 27.4554ZM11.8496 26.9016C12.0311 27.1212 12.1265 27.3026 12.1265 27.4554C11.6491 27.465 11.3531 27.3981 11.2576 27.2644C11.2003 27.0353 11.2386 26.8348 11.3913 26.682C11.6873 26.8252 11.8496 26.9016 11.8496 26.9016ZM19.622 24.3044C19.6316 24.6195 16.261 24.6004 15.6308 24.6195C15.0006 24.6004 11.63 24.6195 11.6395 24.3044C11.6395 24.3044 11.6873 23.4164 11.7923 21.6309C11.7732 21.4113 11.8687 21.3062 12.0597 21.3062C14.2558 21.2967 15.4493 21.2967 15.6308 21.3062C15.8122 21.2967 16.9962 21.2967 19.2019 21.3062C19.4024 21.2967 19.4883 21.4017 19.4692 21.6309C19.5743 23.4164 19.622 24.3044 19.622 24.3044Z" fill="#ED5758"/>
<path fill-rule="evenodd" clip-rule="evenodd" d="M11.0571 27.694C11.0094 27.1498 10.9808 26.8347 10.9712 26.7392C10.9617 26.7392 10.9617 26.7296 10.9521 26.7296C10.7898 26.6437 10.7038 26.7392 10.7038 27.0065C10.6847 27.9996 10.7134 28.5247 10.7898 28.6011C10.8471 28.6202 10.8948 28.6107 10.933 28.5916C10.9616 28.582 10.9807 28.5534 10.9998 28.5247C11.0094 28.5152 11.019 28.4961 11.0285 28.477C11.019 28.372 11.0094 28.2669 11.0094 28.1524C10.9903 27.9518 11.0094 27.7895 11.0571 27.694Z" fill="black"/>
<path fill-rule="evenodd" clip-rule="evenodd" d="M20.2999 26.7488C20.2808 26.8443 20.2522 27.1594 20.214 27.7037C20.2522 27.7992 20.2713 27.9519 20.2713 28.162C20.2713 28.2766 20.2617 28.3911 20.2522 28.4866C20.2617 28.5057 20.2713 28.5153 20.2808 28.5344C20.2999 28.563 20.319 28.5916 20.3476 28.6012C20.3858 28.6203 20.4336 28.6299 20.4909 28.6108C20.5673 28.5344 20.5959 27.9997 20.5768 27.0162C20.5673 26.7488 20.4909 26.6533 20.3286 26.7393C20.3095 26.7393 20.3094 26.7393 20.2999 26.7488Z" fill="black"/>
<path d="M11.3626 22.5378H10.6942V22.6238H11.3626V22.5378Z" fill="black"/>
<path fill-rule="evenodd" clip-rule="evenodd" d="M10.446 21.9173C10.7133 21.8982 10.8565 21.9173 10.8661 21.9937L10.9043 23.0249C10.8661 23.1872 10.7802 23.2541 10.6465 23.2445C10.36 23.2541 10.2264 23.1872 10.2264 23.044C10.2073 22.4138 10.1978 22.0987 10.1978 22.0987C10.2646 21.965 10.3409 21.9077 10.446 21.9173Z" fill="black"/>
<path fill-rule="evenodd" clip-rule="evenodd" d="M20.8155 21.9173C20.5482 21.8982 20.405 21.9173 20.3954 21.9937L20.3572 23.0249C20.3954 23.1872 20.4813 23.2541 20.615 23.2445C20.9015 23.2541 21.0351 23.1872 21.0351 23.044C21.0542 22.4138 21.0638 22.0987 21.0638 22.0987C20.9969 21.965 20.9206 21.9077 20.8155 21.9173Z" fill="#6B7D97"/>
<path d="M20.5673 22.5378H19.8989V22.6238H20.5673V22.5378Z" fill="black"/>
<path fill-rule="evenodd" clip-rule="evenodd" d="M20.8155 21.9173C20.5482 21.8982 20.405 21.9173 20.3954 21.9937L20.3572 23.0249C20.3954 23.1872 20.4813 23.2541 20.615 23.2445C20.9015 23.2541 21.0351 23.1872 21.0351 23.044C21.0542 22.4138 21.0638 22.0987 21.0638 22.0987C20.9969 21.965 20.9206 21.9077 20.8155 21.9173Z" fill="black"/>
<path fill-rule="evenodd" clip-rule="evenodd" d="M11.4103 23.7697C11.4103 23.7697 11.4581 23.044 11.5536 21.6022C11.5536 21.6022 11.5058 21.6022 11.4199 21.6022C11.3817 21.9555 11.3531 22.2706 11.3244 22.5379H11.3626V22.6239H11.3149C11.2767 23.0822 11.2671 23.4259 11.2766 23.636L11.4103 23.7697Z" fill="#2B253B"/>
<path fill-rule="evenodd" clip-rule="evenodd" d="M10.8279 21.946V20.8574H10.5892V21.9078C10.7134 21.9078 10.7897 21.9269 10.8279 21.946Z" fill="#921E17"/>
<path fill-rule="evenodd" clip-rule="evenodd" d="M10.8279 23.1776C10.7802 23.2254 10.7229 23.2444 10.6465 23.2349C10.6274 23.2349 10.6083 23.2349 10.5892 23.2349V26.4623H10.8279V23.1776Z" fill="#921E17"/>
<path fill-rule="evenodd" clip-rule="evenodd" d="M10.5892 20.8574H10.8279V20.4277H10.5128V20.8574H10.5892Z" fill="#921E17"/>
<path fill-rule="evenodd" clip-rule="evenodd" d="M20.4336 20.4277V20.8574H20.6627H20.7487V20.4277H20.4336Z" fill="#921E17"/>
<path fill-rule="evenodd" clip-rule="evenodd" d="M20.615 23.2349C20.5386 23.2444 20.4813 23.2254 20.4336 23.1776V26.4623H20.6723V23.2349C20.6532 23.2444 20.6341 23.2349 20.615 23.2349Z" fill="#921E17"/>
<path fill-rule="evenodd" clip-rule="evenodd" d="M20.4336 21.946C20.4813 21.9173 20.5577 21.9078 20.6723 21.9078V20.8574H20.4336V21.946Z" fill="#921E17"/>
<path fill-rule="evenodd" clip-rule="evenodd" d="M19.6221 24.3043C19.6221 24.3043 19.5743 23.4163 19.4692 21.6308C19.4883 21.4111 19.3929 21.3061 19.2019 21.3061C17.0058 21.2966 15.8122 21.2966 15.6308 21.3061C15.4494 21.2966 14.2654 21.2966 12.0597 21.3061C11.8592 21.2966 11.7733 21.4016 11.7924 21.6308C11.6873 23.4163 11.6395 24.3043 11.6395 24.3043C11.63 24.6194 15.0006 24.6003 15.6308 24.6194C16.261 24.6003 19.6316 24.6194 19.6221 24.3043Z" fill="#2B253B"/>
<path fill-rule="evenodd" clip-rule="evenodd" d="M15.669 26.3094C15.7454 26.3094 15.8313 26.3094 15.9077 26.3094C15.9363 26.3094 15.9649 26.3094 15.9936 26.3094C16.0222 26.3094 16.0509 26.3094 16.0795 26.3094C16.1177 26.3094 16.1655 26.3094 16.2037 26.319C16.2228 26.3285 16.2323 26.3381 16.2323 26.3572C16.2323 26.3858 16.2132 26.424 16.2037 26.4431C16.1846 26.4813 16.1559 26.5195 16.1177 26.5481C16.0604 26.6054 15.9554 26.6627 15.8408 26.6913C15.8217 26.6913 15.8027 26.7009 15.7931 26.7105C15.7836 26.7105 15.7836 26.72 15.7931 26.72C15.8122 26.72 15.8313 26.7105 15.8504 26.7105C15.9841 26.6818 16.0795 26.6245 16.1368 26.5672C16.175 26.5386 16.2132 26.4908 16.2419 26.4431C16.261 26.4145 16.2801 26.3572 16.2801 26.3476C16.2801 26.319 16.2896 26.3094 16.2896 26.2712C16.2896 26.2044 16.2705 26.1566 16.2323 26.0993L16.2228 26.0898V26.0803C16.2228 26.0803 16.2323 26.0803 16.2323 26.0898C16.2609 26.128 16.28 26.1566 16.2991 26.1853C16.3182 26.233 16.3278 26.2617 16.3278 26.3094C16.3278 26.319 16.3374 26.319 16.3374 26.3094C16.3374 26.2617 16.3278 26.2139 16.3087 26.1758C16.2896 26.128 16.2609 26.0994 16.2323 26.0612C16.1941 26.023 16.1559 25.9943 16.1082 25.9657C16.0413 25.9275 15.9745 25.8989 15.9077 25.8798C15.879 25.8702 15.8504 25.8606 15.8122 25.8606C15.8026 25.8606 15.7931 25.8606 15.7836 25.8606C15.774 25.8606 15.774 25.8702 15.7836 25.8702C15.8026 25.8702 15.8217 25.8797 15.8408 25.8893C15.9077 25.9084 15.9841 25.937 16.0414 25.9752C16.0891 26.0039 16.1177 26.023 16.1846 26.0993C16.1941 26.1089 16.2133 26.1375 16.2228 26.1566C16.2323 26.1757 16.2419 26.1948 16.2419 26.2139C16.2419 26.233 16.2323 26.2426 16.2228 26.2521C16.1942 26.2712 16.175 26.2712 16.1273 26.2712C16.0986 26.2712 16.07 26.2712 16.0509 26.2712C16.0127 26.2712 15.9745 26.2712 15.9268 26.2712C15.8409 26.2712 15.7549 26.2712 15.669 26.2712C15.6594 26.2712 15.6499 26.2712 15.6403 26.2712C15.5544 26.2712 15.4685 26.2712 15.373 26.2712C15.3348 26.2712 15.2966 26.2712 15.2488 26.2712C15.2202 26.2712 15.1915 26.2712 15.1724 26.2712C15.1342 26.2712 15.1056 26.2712 15.077 26.2521C15.0674 26.2426 15.0579 26.233 15.0579 26.2139C15.0579 26.1948 15.0674 26.1757 15.077 26.1566C15.0865 26.1375 15.1056 26.1089 15.1056 26.0993C15.1629 26.023 15.1915 26.0039 15.2393 25.9657C15.2966 25.9275 15.373 25.8988 15.4398 25.8702C15.4589 25.8606 15.478 25.8607 15.4971 25.8511C15.5067 25.8511 15.5067 25.8416 15.4971 25.8416C15.4876 25.8416 15.478 25.8416 15.4684 25.8416C15.4398 25.8416 15.4112 25.8511 15.373 25.8606C15.2966 25.8797 15.2393 25.9084 15.1724 25.9561C15.1342 25.9848 15.0865 26.023 15.0579 26.0516C15.0292 26.0898 15.0101 26.1185 14.991 26.1662C14.9719 26.2044 14.9624 26.2521 14.9624 26.2999C14.9624 26.3094 14.972 26.3094 14.972 26.2999C14.972 26.2617 14.9815 26.2235 15.0006 26.1758C15.0197 26.1376 15.0292 26.1089 15.0674 26.0803L15.077 26.0707V26.0803L15.0674 26.0898C15.0292 26.1471 15.0101 26.2044 15.0101 26.2617C15.0101 26.2999 15.0101 26.3094 15.0197 26.3381C15.0197 26.3572 15.0388 26.4049 15.0579 26.4335C15.0865 26.4813 15.1247 26.5195 15.1629 26.5481C15.2297 26.5959 15.3252 26.6532 15.4589 26.6818C15.478 26.6818 15.4971 26.6913 15.5162 26.6913C15.5257 26.6913 15.5257 26.6818 15.5162 26.6818C15.4971 26.6818 15.478 26.6722 15.4684 26.6627C15.3539 26.6341 15.2393 26.5768 15.182 26.5195C15.1534 26.4908 15.1151 26.4527 15.096 26.4145C15.0865 26.3858 15.0674 26.3572 15.0674 26.3285C15.0674 26.3094 15.0769 26.2999 15.096 26.2903C15.1247 26.2712 15.1724 26.2808 15.2202 26.2712C15.2488 26.2712 15.2775 26.2712 15.3061 26.2712C15.3348 26.2712 15.3634 26.2712 15.392 26.2712C15.478 26.2712 15.5544 26.2712 15.6403 26.2712C15.6499 26.3094 15.6594 26.3094 15.669 26.3094ZM15.669 26.2808C15.6594 26.2808 15.6499 26.2808 15.6403 26.2808C15.583 26.2808 15.5257 26.2808 15.4684 26.2808C15.4302 26.2808 15.3825 26.2808 15.3443 26.2808C15.3061 26.2808 15.2679 26.2808 15.2297 26.2808C15.1915 26.2808 15.1438 26.2712 15.1343 26.2712C15.1247 26.2712 15.1343 26.2617 15.1343 26.2617C15.1438 26.2521 15.1533 26.2521 15.1629 26.2426H15.1724C15.182 26.2521 15.182 26.2521 15.1916 26.2521C15.2297 26.2617 15.2488 26.2617 15.2966 26.2712C15.3348 26.2712 15.3634 26.2712 15.4016 26.2808C15.478 26.2808 15.5257 26.2808 15.6403 26.2808C15.6499 26.2808 15.6594 26.2808 15.669 26.2808C15.774 26.2808 15.8217 26.2808 15.8981 26.2712C15.9363 26.2712 15.965 26.2712 16.0031 26.2617C16.0509 26.2617 16.07 26.2521 16.1082 26.2426C16.1177 26.2426 16.1177 26.2426 16.1273 26.233H16.1368C16.1464 26.233 16.156 26.2426 16.1655 26.2521C16.1751 26.2521 16.1751 26.2617 16.1655 26.2617C16.156 26.2712 16.1082 26.2712 16.0795 26.2808C16.0414 26.2808 16.0032 26.2808 15.965 26.2903C15.9268 26.2903 15.879 26.2903 15.8408 26.2903C15.7835 26.2808 15.7263 26.2808 15.669 26.2808ZM15.669 26.2521C15.7836 26.2521 15.9077 26.2521 16.0318 26.2426C16.0891 26.2331 16.1082 26.2044 16.1082 26.1853C16.1177 26.1184 16.0127 26.0325 15.965 26.0039C15.8981 25.9657 15.8313 25.937 15.7454 25.9179C15.7358 25.9179 15.7263 25.8988 15.7263 25.8893C15.7263 25.8797 15.7358 25.8702 15.7454 25.8702C15.774 25.8606 15.8026 25.8606 15.8313 25.8702C15.879 25.8797 15.9172 25.8893 15.965 25.8988C16.0223 25.9179 16.0891 25.9466 16.1368 25.9752C16.2037 26.023 16.2705 26.0707 16.3183 26.1471C16.3469 26.1949 16.3755 26.2617 16.3755 26.319C16.3755 26.3858 16.3469 26.4527 16.3183 26.51C16.2801 26.5672 16.2323 26.615 16.1846 26.6532C16.1368 26.6914 16.0796 26.72 16.0223 26.7391C15.9745 26.7582 15.9267 26.7678 15.8695 26.7773C15.8408 26.7869 15.8026 26.7869 15.774 26.7773C15.7644 26.7773 15.7549 26.7677 15.7454 26.7582C15.7454 26.7486 15.7549 26.7391 15.7644 26.7295C15.7931 26.72 15.8408 26.7104 15.8695 26.6913C15.9076 26.6722 15.9554 26.6532 15.9936 26.6245C16.0318 26.5959 16.07 26.5672 16.0987 26.529C16.1082 26.5099 16.1273 26.4813 16.1273 26.4622C16.1273 26.4526 16.1273 26.4335 16.1177 26.424C16.0891 26.3858 16.0223 26.3858 15.965 26.3858C15.9172 26.3858 15.8695 26.3858 15.8217 26.3858C15.774 26.3858 15.7167 26.3858 15.669 26.3858C15.6212 26.3858 15.5639 26.3858 15.5162 26.3858C15.4684 26.3858 15.4207 26.3858 15.373 26.3953C15.3252 26.3953 15.2488 26.3954 15.2297 26.4431C15.2202 26.4527 15.2202 26.4718 15.2202 26.4813C15.2202 26.5004 15.2393 26.529 15.2488 26.5481C15.2775 26.5863 15.3157 26.615 15.3539 26.6341C15.3921 26.6627 15.4398 26.6818 15.478 26.6913C15.5162 26.7009 15.5544 26.72 15.583 26.7295C15.5926 26.7295 15.6021 26.7391 15.6021 26.7487C15.6021 26.7582 15.583 26.7677 15.583 26.7677C15.5544 26.7773 15.5162 26.7677 15.4876 26.7677C15.4398 26.7582 15.3825 26.7486 15.3347 26.7295C15.2775 26.7105 15.2202 26.6818 15.1724 26.6436C15.1151 26.6054 15.0674 26.5577 15.0292 26.51C14.9911 26.4527 14.9624 26.3858 14.9624 26.319C14.9624 26.2617 14.9815 26.2044 15.0197 26.1471C15.0674 26.0803 15.1247 26.023 15.1916 25.9752C15.2488 25.937 15.3061 25.9084 15.3634 25.8893C15.4112 25.8797 15.4494 25.8702 15.4971 25.8606C15.5258 25.8606 15.5544 25.8511 15.583 25.8606C15.5926 25.8606 15.6021 25.8702 15.6021 25.8798C15.6021 25.8893 15.5926 25.8989 15.583 25.9084C15.4971 25.9275 15.4398 25.9657 15.3634 26.0039C15.3157 26.0325 15.2106 26.1184 15.2202 26.1853C15.2202 26.2044 15.2393 26.2331 15.2966 26.2426C15.4112 26.2521 15.5353 26.2521 15.6594 26.2521C15.6499 26.2521 15.6594 26.2521 15.669 26.2521Z" fill="#D4D5D5"/>
<path d="M13.2551 13.6604H14.1682L13.719 12.2444L13.2551 13.6604ZM13.3015 11.4216H14.1511L15.4255 15.0203H14.6101L14.3782 14.2805H13.0525L12.8035 15.0203H12.0173L13.3015 11.4216ZM16.6365 12.0466V13.0134H17.4885C17.6578 13.0134 17.7847 12.9939 17.8694 12.9548C18.0191 12.8865 18.094 12.7514 18.094 12.5496C18.094 12.3315 18.0216 12.185 17.8767 12.1101C17.7953 12.0678 17.6733 12.0466 17.5105 12.0466H16.6365ZM17.6667 11.4216C17.919 11.4265 18.1127 11.4574 18.2478 11.5144C18.3845 11.5714 18.5001 11.6552 18.5945 11.7659C18.6726 11.857 18.7345 11.9579 18.78 12.0686C18.8256 12.1793 18.8484 12.3054 18.8484 12.447C18.8484 12.6179 18.8053 12.7864 18.719 12.9524C18.6327 13.1168 18.4903 13.2332 18.2917 13.3015C18.4578 13.3682 18.575 13.4635 18.6433 13.5872C18.7133 13.7092 18.7483 13.8964 18.7483 14.1487V14.3904C18.7483 14.5548 18.7548 14.6663 18.7678 14.7249C18.7874 14.8176 18.8329 14.886 18.9045 14.9299V15.0203H18.0769C18.0541 14.9405 18.0378 14.8762 18.0281 14.8274C18.0085 14.7265 17.998 14.6231 17.9963 14.5173L17.9915 14.1829C17.9882 13.9534 17.9459 13.8004 17.8645 13.7239C17.7847 13.6474 17.6342 13.6091 17.4128 13.6091H16.6365V15.0203H15.9016V11.4216H17.6667ZM22.1125 11.4216V12.0588H21.0359V15.0203H20.2791V12.0588H19.1975V11.4216H22.1125ZM23.2429 15.0203H22.4958V11.4216H23.2429V15.0203ZM23.7898 13.2502C23.7898 12.622 23.9583 12.1378 24.2952 11.7976C24.5881 11.5014 24.9609 11.3533 25.4133 11.3533C26.0188 11.3533 26.4615 11.5518 26.7415 11.949C26.8961 12.172 26.9791 12.3958 26.9905 12.6204H26.2385C26.1897 12.4478 26.127 12.3176 26.0505 12.2297C25.9138 12.0735 25.7112 11.9954 25.4426 11.9954C25.1692 11.9954 24.9535 12.106 24.7957 12.3274C24.6378 12.5471 24.5588 12.8588 24.5588 13.2625C24.5588 13.6661 24.6418 13.9688 24.8079 14.1707C24.9755 14.3708 25.1879 14.4709 25.4451 14.4709C25.7087 14.4709 25.9097 14.3847 26.0481 14.2122C26.1246 14.1194 26.1881 13.9802 26.2385 13.7947H26.9832C26.9181 14.1869 26.7512 14.5059 26.4827 14.7517C26.2157 14.9975 25.8731 15.1204 25.4548 15.1204C24.9373 15.1204 24.5304 14.9543 24.2341 14.6223C23.9379 14.2887 23.7898 13.8313 23.7898 13.2502ZM27.5593 11.4216H28.3113V14.3733H30.0935V15.0203H27.5593V11.4216ZM33.2771 12.0588H31.3728V12.823H33.1208V13.448H31.3728V14.3733H33.365V15.0203H30.6379V11.4216H33.2771V12.0588Z" fill="#921E17"/>
<path fill-rule="evenodd" clip-rule="evenodd" d="M21.3216 42.5131C30.679 42.5131 38.3081 42.2171 38.3081 41.8543C38.3081 41.4914 30.679 41.1954 21.3216 41.1954C11.9641 41.1954 4.33496 41.4914 4.33496 41.8543C4.33496 42.2171 11.9641 42.5131 21.3216 42.5131Z" fill="black"/>
<path fill-rule="evenodd" clip-rule="evenodd" d="M28.3587 28.3529C30.0393 28.3529 31.4047 26.9874 31.4047 25.3069C31.4047 23.6264 30.0393 22.261 28.3587 22.261C26.6782 22.261 25.3128 23.6264 25.3128 25.3069C25.3032 26.9874 26.6782 28.3529 28.3587 28.3529Z" fill="#921E17"/>
<path fill-rule="evenodd" clip-rule="evenodd" d="M42.6623 36.3734C41.9748 37.3092 40.0747 40.2501 39.5304 45.0052C39.5113 45.158 39.3585 45.263 39.2058 45.2248L35.5392 44.2795C35.3578 44.2318 35.2814 44.0312 35.3864 43.8785C36.0452 42.9332 37.9167 39.8395 37.8403 35.3231C37.8403 35.1608 37.9931 35.0271 38.1555 35.0653L42.5 35.9724C42.6909 36.001 42.7769 36.2206 42.6623 36.3734Z" fill="#921E17"/>
<path fill-rule="evenodd" clip-rule="evenodd" d="M34.5462 17.7827C35.1191 20.5422 36.7805 22.9675 39.1389 24.5048C40.0174 25.0777 40.8099 25.5074 41.3159 25.7652L36.3317 35.5236C35.8256 35.2658 35.014 34.8744 34.0305 34.502C31.3951 33.4898 28.4733 33.5758 25.9048 34.7311C25.4465 34.9316 25.0455 35.2085 24.5012 35.4377L34.3169 16.2263C34.3551 16.7706 34.4507 17.2957 34.5462 17.7827Z" fill="white"/>
<path d="M33.0269 15.599L23.2147 34.807L24.4561 35.4412L34.2683 16.2332L33.0269 15.599Z" fill="#E50B14"/>
<path fill-rule="evenodd" clip-rule="evenodd" d="M36.1885 35.5141L39.9601 37.4428C42.6719 38.8274 46.0138 37.7389 47.3983 35.0367C48.7828 32.3249 47.6943 28.983 44.9921 27.5984L41.2205 25.6697L36.1885 35.5141Z" fill="#E50B14"/>
</svg>
