<svg width="48" height="48" viewBox="0 0 48 48" fill="none" xmlns="http://www.w3.org/2000/svg">
<path d="M24 48C37.2548 48 48 37.2548 48 24C48 10.7452 37.2548 0 24 0C10.7452 0 0 10.7452 0 24C0 37.2548 10.7452 48 24 48Z" fill="#C9CACA"/>
<path d="M26.6538 4.19092V21.3462L13.1238 34.8761H4.11841V4.19092H26.6538Z" fill="white"/>
<path d="M43.7656 13.8201V39.0092L38.284 44.5053H21.2448V26.7554L34.1801 13.8201H43.7656Z" fill="#E6E6E6"/>
<path d="M38.2839 44.5056V39.0095H43.7655L38.2839 44.5056Z" fill="#B3B3B3"/>
<path d="M6.25012 8.46896H24.522V7.38135H6.25012V8.46896Z" fill="#B3B3B3"/>
<path d="M6.25012 11.6156H24.522V10.5425H6.25012V11.6156Z" fill="#B3B3B3"/>
<path d="M6.25012 14.7773H11.3547V13.6897H6.25012V14.7773Z" fill="#B3B3B3"/>
<path d="M6.25012 15.8505H11.3547V14.7773H6.25012V15.8505Z" fill="#E6E6E6"/>
<path d="M12.8337 14.7773H17.9383V13.6897H12.8337V14.7773Z" fill="#B3B3B3"/>
<path d="M12.8337 15.8505H17.9383V14.7773H12.8337V15.8505Z" fill="#E6E6E6"/>
<path d="M19.432 14.7773H24.522V13.6897H19.432V14.7773Z" fill="#B3B3B3"/>
<path d="M19.432 15.8505H24.522V14.7773H19.432V15.8505Z" fill="#E6E6E6"/>
<path d="M6.25012 17.9239H11.3547V16.8508H6.25012V17.9239Z" fill="#E6E6E6"/>
<path d="M12.8337 17.9239H17.9383V16.8508H12.8337V17.9239Z" fill="#E6E6E6"/>
<path d="M19.432 17.9239H24.522V16.8508H19.432V17.9239Z" fill="#E6E6E6"/>
<path d="M6.25012 19.998H11.3547V18.9104H6.25012V19.998Z" fill="#E6E6E6"/>
<path d="M12.8337 19.998H17.9383V18.9104H12.8337V19.998Z" fill="#E6E6E6"/>
<path d="M19.432 19.998H24.522V18.9104H19.432V19.998Z" fill="#E6E6E6"/>
<path d="M6.25012 22.057H11.3547V20.9839H6.25012V22.057Z" fill="#E6E6E6"/>
<path d="M12.8337 22.057H17.9383V20.9839H12.8337V22.057Z" fill="#E6E6E6"/>
<path d="M19.432 22.057H24.522V20.9839H19.432V22.057Z" fill="#E6E6E6"/>
<path d="M6.25012 24.1305H11.3547V23.0574H6.25012V24.1305Z" fill="#E6E6E6"/>
<path d="M12.8337 24.1305H17.9383V23.0574H12.8337V24.1305Z" fill="#E6E6E6"/>
<path d="M19.432 24.1305H24.522V23.0574H19.432V24.1305Z" fill="#E6E6E6"/>
<path d="M27.7124 20.8822H41.8804V19.8091H27.7124V20.8822Z" fill="#B3B3B3"/>
<path d="M23.6084 24.0439H41.8803V22.9563H23.6084V24.0439Z" fill="#B3B3B3"/>
<path d="M23.6084 27.1905H28.7129V26.1174H23.6084V27.1905Z" fill="#B3B3B3"/>
<path d="M23.6084 28.278H28.7129V27.1904H23.6084V28.278Z" fill="white"/>
<path d="M30.1921 27.1905H35.2967V26.1174H30.1921V27.1905Z" fill="#B3B3B3"/>
<path d="M30.1921 28.278H35.2967V27.1904H30.1921V28.278Z" fill="white"/>
<path d="M36.7903 27.1905H41.8803V26.1174H36.7903V27.1905Z" fill="#B3B3B3"/>
<path d="M36.7903 28.278H41.8803V27.1904H36.7903V28.278Z" fill="white"/>
<path d="M23.6084 30.3515H28.7129V29.2639H23.6084V30.3515Z" fill="white"/>
<path d="M30.1921 30.3515H35.2967V29.2639H30.1921V30.3515Z" fill="white"/>
<path d="M36.7903 30.3515H41.8803V29.2639H36.7903V30.3515Z" fill="white"/>
<path d="M23.6084 32.4112H28.7129V31.3381H23.6084V32.4112Z" fill="white"/>
<path d="M30.1921 32.4112H35.2967V31.3381H30.1921V32.4112Z" fill="white"/>
<path d="M36.7903 32.4112H41.8803V31.3381H36.7903V32.4112Z" fill="white"/>
<path d="M23.6084 34.4847H28.7129V33.4116H23.6084V34.4847Z" fill="white"/>
<path d="M30.1921 34.4847H35.2967V33.4116H30.1921V34.4847Z" fill="white"/>
<path d="M36.7903 34.4847H41.8803V33.4116H36.7903V34.4847Z" fill="white"/>
<path d="M23.6084 36.5582H28.7129V35.4851H23.6084V36.5582Z" fill="white"/>
<path d="M30.1921 36.5582H35.2967V35.4851H30.1921V36.5582Z" fill="white"/>
<path d="M36.7903 36.5582H41.8803V35.4851H36.7903V36.5582Z" fill="white"/>
<path d="M43.809 2.62462C44.2441 2.18958 44.9402 2.18958 45.3752 2.62462C45.8102 3.05967 45.8102 3.75574 45.3752 4.19079L4.19091 45.3751C3.75586 45.8101 3.05979 45.8101 2.62475 45.3751C2.1897 44.94 2.1897 44.244 2.62475 43.8089L43.809 2.62462Z" fill="#292827"/>
</svg>
