<svg width="48" height="48" viewBox="0 0 48 48" fill="none" xmlns="http://www.w3.org/2000/svg">
<path d="M24 48C37.2548 48 48 37.2548 48 24C48 10.7452 37.2548 0 24 0C10.7452 0 0 10.7452 0 24C0 37.2548 10.7452 48 24 48Z" fill="#C80000"/>
<path d="M4.77661 32.1924H43.2233V15.8086H4.77661V32.1924Z" fill="#B3B3B3"/>
<path d="M37.7331 27.1799V30.1308C37.7331 31.2667 36.7024 32.1876 35.4307 32.1876H25.0127L25.0425 33.7194C25.0425 34.6316 25.7796 36.5002 26.2884 37.3225C26.891 38.2974 27.2751 40.0271 27.3874 40.4412H36.9067C37.1314 40.0353 37.0603 38.3838 38.1568 37.6171C39.7366 36.5127 40.7471 33.7254 40.7471 31.6658V27.18C40.7471 26.4366 40.0721 25.834 39.2399 25.834C38.4076 25.834 37.7331 26.4366 37.7331 27.18L37.7331 27.1799Z" fill="white"/>
<path d="M25.7444 48.0003H38.7157V40.4414H25.7444V48.0003Z" fill="black"/>
<path d="M10.3753 20.82V17.8693C10.3753 16.7331 11.406 15.8125 12.6776 15.8125H23.0957L23.0659 14.2806C23.0659 13.3685 22.3285 11.4996 21.8202 10.6774C21.2174 9.70283 20.8333 7.97311 20.7209 7.55859H11.2017C10.9772 7.96426 11.0478 9.61644 9.95139 10.3827C8.37182 11.4871 7.36133 14.2744 7.36133 16.3344V20.8198C7.36133 21.5637 8.03586 22.1661 8.8683 22.1661C9.70074 22.1661 10.3753 21.5637 10.3753 20.8198L10.3753 20.82Z" fill="white"/>
<path d="M9.39233 7.5589H22.3639V0H9.39233V7.5589Z" fill="black"/>
<path d="M29.9316 24.0002C29.9316 20.7244 27.2756 18.0688 24 18.0688C20.7243 18.0688 18.0682 20.7244 18.0682 24.0002C18.0682 27.2762 20.7243 29.9315 24 29.9315C27.2756 29.9315 29.9316 27.2762 29.9316 24.0002Z" fill="black"/>
<path d="M28.0756 24.0003C28.0756 21.7495 26.2506 19.9248 24.0001 19.9248C21.749 19.9248 19.9241 21.7495 19.9241 24.0003C19.9241 26.2514 21.749 28.0761 24.0001 28.0761C26.2506 28.0761 28.0756 26.2514 28.0756 24.0003Z" fill="white"/>
<path d="M11.4399 45.715C14.4412 45.715 16.8742 43.282 16.8742 40.2807C16.8742 37.2795 14.4412 34.8464 11.4399 34.8464C8.43863 34.8464 6.00562 37.2795 6.00562 40.2807C6.00562 43.282 8.43863 45.715 11.4399 45.715Z" fill="black"/>
<path d="M5.4358 37.4271C5.03149 37.0228 5.03149 36.3668 5.4358 35.9625C5.84011 35.5582 6.49603 35.5582 6.90034 35.9625L10.9914 40.0534L18.0145 33.03C18.4188 32.6257 19.0748 32.6257 19.4791 33.03C19.8834 33.4343 19.8834 34.0903 19.4791 34.4946L11.7235 42.2502C11.3192 42.6545 10.6635 42.6545 10.2591 42.2502L5.43574 37.4271H5.4358Z" fill="white"/>
</svg>
