<svg width="48" height="49" viewBox="0 0 48 49" fill="none" xmlns="http://www.w3.org/2000/svg">
<path d="M24 48C37.2548 48 48 37.2548 48 24C48 10.7452 37.2548 0 24 0C10.7452 0 0 10.7452 0 24C0 37.2548 10.7452 48 24 48Z" fill="#C80000"/>
<path fill-rule="evenodd" clip-rule="evenodd" d="M41.9782 8.1011V34.0182V39.8999C37.5804 44.8678 31.1572 48.0013 24.0017 48.0013C16.8445 48.0013 10.4214 44.8678 6.02515 39.8999V34.0198V8.10269V2.70337H41.9798V8.10269L41.9782 8.1011Z" fill="#E6E6E6"/>
<path fill-rule="evenodd" clip-rule="evenodd" d="M9.79871 7.75928H16.5371H16.8365H23.5749V17.5405H16.8365H16.5371H9.79871V7.75928Z" fill="#FB0000"/>
<path fill-rule="evenodd" clip-rule="evenodd" d="M22.9268 13.4703C22.9571 12.9736 22.8934 12.0023 22.7358 10.5549C22.6052 10.5549 22.5399 10.5549 22.5399 10.5549C22.6769 12.6328 22.7469 13.671 22.7469 13.671L22.9268 13.4703Z" fill="#404040"/>
<path fill-rule="evenodd" clip-rule="evenodd" d="M12.0596 24.9425V21.922V21.6959C12.0405 21.6959 12.0198 21.6959 12.0007 21.6959C11.5533 21.6927 11.1075 21.6879 10.66 21.6816C10.3511 21.4443 10.1569 21.0526 10.0741 20.5049H10.0295C10.0024 20.5479 9.96899 20.5813 9.93237 20.602V24.9425H12.0596ZM21.3154 21.6975V21.9236V24.9441H23.4426V20.6036C23.406 20.5829 23.3726 20.5511 23.3455 20.5065H23.3009C23.2181 21.0526 23.0239 21.4459 22.715 21.6831C22.2675 21.6895 21.8217 21.6943 21.3743 21.6975C21.3552 21.6975 21.3345 21.6975 21.3154 21.6975Z" fill="#404040"/>
<path fill-rule="evenodd" clip-rule="evenodd" d="M16.7218 23.0146C17.9255 23.013 19.1293 22.9828 20.333 22.9223C20.7996 22.7535 21.1594 22.3841 21.3155 21.9223V21.6962C19.7726 21.7074 18.2297 21.7026 16.6868 21.6819C15.1439 21.7042 13.601 21.709 12.0581 21.6962V21.9223C12.2157 22.3841 12.5756 22.7551 13.0405 22.9223C14.2666 22.9843 15.4926 23.0146 16.7202 23.0146H16.7218Z" fill="#292827"/>
<path fill-rule="evenodd" clip-rule="evenodd" d="M13.5325 20.2379C15.6279 20.2156 17.7456 20.2156 19.841 20.2379C19.9238 20.2299 20.1212 20.5754 20.4349 21.2744C20.1387 20.9401 19.9015 20.7745 19.7232 20.7792C17.7026 20.7649 15.6725 20.7649 13.6519 20.7792C13.4736 20.7745 13.2363 20.9401 12.9402 21.2744C13.2523 20.5754 13.4497 20.2299 13.5341 20.2379H13.5325ZM10.1171 19.308C10.0614 19.4465 10.0327 19.6678 10.0295 19.9704C10.0327 20.1376 10.0439 20.2936 10.063 20.4401C10.0662 20.4624 10.0693 20.4847 10.0725 20.507C10.1553 21.0531 10.3496 21.4464 10.6585 21.6836C11.1059 21.69 11.5517 21.6948 11.9992 21.698C12.0183 21.698 12.039 21.698 12.0581 21.698C13.601 21.7091 15.1439 21.7043 16.6867 21.6836C18.2296 21.7059 19.7725 21.7107 21.3154 21.698C21.3345 21.698 21.3552 21.698 21.3743 21.698C21.8218 21.6948 22.2676 21.69 22.715 21.6836C23.0239 21.4464 23.2182 21.0547 23.301 20.507C23.3041 20.4847 23.3073 20.4624 23.3105 20.4401C23.3296 20.2936 23.3408 20.1376 23.3439 19.9704C23.3408 19.6678 23.3121 19.4465 23.2564 19.308C23.207 19.1838 23.137 19.1249 23.0446 19.1297C22.3265 19.2602 21.653 19.3637 21.024 19.4402C20.1881 19.5421 19.4318 19.5946 18.7567 19.5994C17.6071 19.5994 16.9272 19.5994 16.7202 19.5994C16.7202 19.5994 16.018 19.5994 14.6152 19.5994C13.9401 19.5946 13.1838 19.5421 12.3479 19.4402C11.7205 19.3637 11.047 19.2602 10.3289 19.1297C10.2365 19.1249 10.1665 19.1838 10.1171 19.308ZM12.0597 20.7458C11.1712 20.6964 10.7269 20.6726 10.7269 20.6726C10.6664 20.6359 10.6123 20.5802 10.5629 20.507C10.5231 20.4465 10.4881 20.3748 10.4579 20.2904C10.2206 19.7156 10.3225 19.464 10.762 19.5373C11.6584 19.628 12.1823 19.7283 12.3351 19.8366C12.4752 19.9131 12.5708 20.0548 12.5883 20.214C12.351 20.5754 12.2316 20.7554 12.2316 20.7554C12.1711 20.7522 12.1138 20.749 12.0581 20.7458H12.0597ZM22.8121 20.507C22.7644 20.5802 22.7102 20.6359 22.6497 20.6726C22.6497 20.6726 22.2055 20.6964 21.317 20.7458C21.2613 20.749 21.2024 20.7522 21.1435 20.7554C21.1435 20.7554 21.024 20.5754 20.7868 20.214C20.8043 20.0548 20.8998 19.9146 21.04 19.8366C21.1928 19.7283 21.7183 19.628 22.6131 19.5373C23.0542 19.464 23.1561 19.7156 22.9172 20.2904C22.887 20.3748 22.8519 20.4465 22.8121 20.507Z" fill="#404040"/>
<path fill-rule="evenodd" clip-rule="evenodd" d="M12.0596 20.7443C12.1153 20.7475 12.1742 20.7507 12.2332 20.7539C12.2332 20.7539 12.351 20.574 12.5898 20.2125C12.5723 20.0533 12.4768 19.9132 12.3367 19.8352C12.1838 19.7269 11.6584 19.6266 10.7635 19.5358C10.3225 19.4626 10.2221 19.7142 10.4594 20.289C10.4896 20.3733 10.5247 20.445 10.5645 20.5055C10.6122 20.5788 10.6664 20.6345 10.7285 20.6711C10.7285 20.6711 11.1727 20.695 12.0612 20.7443H12.0596Z" fill="#FEFEFE"/>
<path fill-rule="evenodd" clip-rule="evenodd" d="M22.8122 20.5055C22.852 20.445 22.887 20.3733 22.9173 20.289C23.1545 19.7142 23.0542 19.4626 22.6132 19.5358C21.7167 19.6266 21.1929 19.7269 21.04 19.8352C20.8999 19.9116 20.8044 20.0533 20.7869 20.2125C21.0241 20.574 21.1435 20.7539 21.1435 20.7539C21.2024 20.7507 21.2614 20.7475 21.3171 20.7443C22.2056 20.695 22.6498 20.6711 22.6498 20.6711C22.7103 20.6345 22.7644 20.5788 22.8122 20.5055Z" fill="#FEFEFE"/>
<path fill-rule="evenodd" clip-rule="evenodd" d="M20.4349 21.274C20.1228 20.575 19.9254 20.2295 19.841 20.2374C17.7456 20.2151 15.6279 20.2151 13.5325 20.2374C13.4497 20.2295 13.2523 20.575 12.9386 21.274C13.2348 20.9396 13.472 20.774 13.6503 20.7788C15.6709 20.7645 17.701 20.7645 19.7216 20.7788C19.8999 20.774 20.1372 20.9396 20.4333 21.274H20.4349Z" fill="#6D6E6E"/>
<path fill-rule="evenodd" clip-rule="evenodd" d="M17.4733 18.1756C17.6739 18.0275 17.8332 17.8269 17.9319 17.5976C19.4939 17.5801 20.2741 17.5721 20.2741 17.5721C20.2709 17.7553 20.2518 17.9463 20.2168 18.1454L17.4717 18.1756H17.4733ZM21.524 17.5403C21.5893 17.2903 21.6625 17.0149 21.7405 16.7155C20.8616 16.8286 19.5369 16.87 17.7679 16.8397C17.2074 16.2012 16.1677 16.2012 15.6072 16.8397C13.8366 16.87 12.5134 16.8286 11.6345 16.7155C11.7141 17.0149 11.7858 17.2903 11.8511 17.5403C12.1823 18.8045 12.3494 19.4367 12.3494 19.4367C13.1854 19.5386 13.9417 19.5911 14.6168 19.5959C15.768 19.5959 16.4463 19.5959 16.6533 19.5959C16.6533 19.5959 17.3555 19.5959 18.7583 19.5959C19.4334 19.5911 20.1897 19.5386 21.0256 19.4367C21.0256 19.4367 21.1912 18.8045 21.524 17.5403ZM13.3462 18.7536C14.62 18.76 15.7346 18.76 16.6867 18.7536C17.6389 18.76 18.7519 18.76 20.0273 18.7536C20.0607 18.8714 20.0432 19.0354 19.9763 19.244C18.8602 19.2774 17.7631 19.2918 16.6867 19.2854C15.6104 19.2918 14.5133 19.2774 13.3971 19.244C13.3287 19.0354 13.3112 18.873 13.3462 18.7536ZM15.4416 17.5976C15.5403 17.8269 15.6995 18.0259 15.9002 18.1756L13.1551 18.1454C13.1201 17.9463 13.101 17.7553 13.0978 17.5721C13.0978 17.5721 13.878 17.5801 15.44 17.5976H15.4416Z" fill="#6D6E6E"/>
<path fill-rule="evenodd" clip-rule="evenodd" d="M15.9001 18.1757C15.6995 18.0276 15.5403 17.827 15.4416 17.5977C13.8796 17.5802 13.0994 17.5723 13.0994 17.5723C13.1025 17.7554 13.1217 17.9464 13.1567 18.1455L15.9017 18.1757H15.9001Z" fill="#404040"/>
<path fill-rule="evenodd" clip-rule="evenodd" d="M17.9334 17.5977C17.8347 17.827 17.6755 18.0261 17.4749 18.1757L20.2199 18.1455C20.2549 17.9464 20.274 17.7554 20.2772 17.5723C20.2772 17.5723 19.497 17.5802 17.935 17.5977H17.9334Z" fill="#404040"/>
<path fill-rule="evenodd" clip-rule="evenodd" d="M20.0273 18.7537C18.7535 18.76 17.6389 18.76 16.6868 18.7537C15.7346 18.76 14.62 18.76 13.3462 18.7537C13.3128 18.8715 13.3303 19.0355 13.3972 19.2441C14.5133 19.2775 15.6104 19.2918 16.6868 19.2855C17.7631 19.2918 18.8586 19.2775 19.9764 19.2441C20.0448 19.0355 20.0623 18.8731 20.0273 18.7537Z" fill="#404040"/>
<path fill-rule="evenodd" clip-rule="evenodd" d="M22.1179 18.1665C21.8536 18.4769 21.7231 18.7413 21.7263 18.961C22.4141 18.9721 22.8313 18.8814 22.9794 18.6935C23.0653 18.3623 23.0032 18.0821 22.7931 17.8528C22.3425 18.063 22.1179 18.168 22.1179 18.168V18.1665Z" fill="#FEC900"/>
<path fill-rule="evenodd" clip-rule="evenodd" d="M11.6488 18.9611C11.6504 18.7414 11.5198 18.4771 11.2571 18.1666C11.2571 18.1666 11.0326 18.0615 10.582 17.8513C10.3718 18.0806 10.3097 18.3608 10.3957 18.692C10.5438 18.8815 10.961 18.9707 11.6488 18.9595V18.9611Z" fill="#FEC900"/>
<path fill-rule="evenodd" clip-rule="evenodd" d="M11.851 17.5407C11.7858 17.2907 11.7125 17.0152 11.6345 16.7159C12.5134 16.8289 13.8382 16.8703 15.6072 16.8401C16.1676 16.2016 17.2074 16.2016 17.7678 16.8401C19.5384 16.8703 20.8616 16.8289 21.7405 16.7159C21.6625 17.0152 21.5892 17.2907 21.524 17.5407C21.1928 18.8049 21.0256 19.437 21.0256 19.437C21.6529 19.3606 22.3265 19.2571 23.0462 19.1265C23.1369 19.1218 23.2086 19.1807 23.2579 19.3049C23.32 18.5278 23.363 18.0725 23.3869 17.9403C23.3964 17.9355 23.406 17.9292 23.4156 17.9244C23.4315 17.7604 23.3407 17.6059 23.1926 17.5407C23.1799 17.5343 23.1672 17.5295 23.1528 17.5263C23.1815 15.5201 23.1767 14.1985 23.1353 13.5584C23.0987 12.9741 23.0637 12.4614 23.0318 12.0187H22.8774C22.9299 12.6827 22.9458 13.1667 22.9283 13.4709L22.7484 13.6715C22.7484 13.6715 22.6799 12.6333 22.5414 10.5554C22.5414 10.5554 22.6067 10.5554 22.7373 10.5554C22.793 11.0618 22.836 11.5092 22.8678 11.8993H23.0223C22.9634 11.0857 22.9156 10.5236 22.8758 10.2147C22.75 9.76728 22.4984 9.51252 22.1179 9.45042C18.5863 9.34693 14.7903 9.34693 11.2587 9.45042C10.8782 9.51252 10.625 9.76728 10.5008 10.2147C10.4626 10.5236 10.4132 11.0857 10.3543 11.8993H10.5088C10.5406 11.5092 10.5852 11.0618 10.6393 10.5554C10.7699 10.5554 10.8352 10.5554 10.8352 10.5554C10.6982 12.6333 10.6282 13.6715 10.6282 13.6715L10.4467 13.4709C10.4292 13.1651 10.4451 12.6811 10.4976 12.0187H10.3448C10.3129 12.4614 10.2779 12.9757 10.2413 13.5584C10.1999 14.1985 10.1935 15.5201 10.2238 17.5263C10.2094 17.5311 10.1967 17.5359 10.1839 17.5407C10.0359 17.6075 9.94511 17.7604 9.96103 17.9244C9.97059 17.9292 9.98014 17.9339 9.98969 17.9403C10.0136 18.0741 10.0566 18.5294 10.1187 19.3049C10.168 19.1807 10.2381 19.1218 10.3304 19.1265C11.0485 19.2571 11.7221 19.3606 12.3494 19.437C12.3494 19.437 12.1838 18.8049 11.851 17.5407ZM21.7262 18.9593C21.7246 18.7396 21.8551 18.4753 22.1179 18.1648C22.1179 18.1648 22.344 18.0597 22.793 17.8495C23.0032 18.0788 23.0653 18.3591 22.9793 18.6903C22.8312 18.8797 22.414 18.9689 21.7262 18.9578V18.9593ZM11.2587 18.1648C11.523 18.4753 11.6536 18.7396 11.6504 18.9593C10.9626 18.9705 10.5454 18.8797 10.3973 18.6918C10.3113 18.3607 10.3734 18.0804 10.5836 17.8511C11.0342 18.0613 11.2587 18.1664 11.2587 18.1664V18.1648ZM22.4188 14.4389C22.4379 14.888 17.5895 14.8625 16.6899 14.8911C15.7903 14.8609 10.9419 14.888 10.961 14.4389C10.961 14.4389 11.0342 13.1588 11.1823 10.6C11.1584 10.2848 11.289 10.1303 11.5692 10.1415C14.7235 10.1224 16.4303 10.1224 16.6899 10.1367C16.9494 10.1208 18.6563 10.1224 21.8106 10.1415C22.0908 10.1319 22.2198 10.2848 22.1975 10.6C22.3456 13.1588 22.4188 14.4389 22.4188 14.4389Z" fill="#ED595B"/>
<path fill-rule="evenodd" clip-rule="evenodd" d="M10.117 19.3067C10.0549 18.5296 10.0119 18.0743 9.98805 17.9421C9.9785 17.9373 9.96894 17.9309 9.95939 17.9262C9.72851 17.8052 9.60909 17.9373 9.60113 18.3242C9.57088 19.7445 9.61228 20.5072 9.72533 20.6155C9.80494 20.6394 9.875 20.6346 9.93232 20.6027C9.96894 20.582 10.0024 20.5502 10.0294 20.5056C10.0422 20.4849 10.0533 20.4626 10.0645 20.4387C10.0454 20.2923 10.0342 20.1362 10.031 19.969C10.0342 19.6665 10.0629 19.4452 10.1186 19.3067H10.117Z" fill="#292827"/>
<path fill-rule="evenodd" clip-rule="evenodd" d="M23.387 17.9421C23.3631 18.0758 23.3202 18.5312 23.2581 19.3067C23.3138 19.4452 23.3424 19.6665 23.3456 19.969C23.3424 20.1362 23.3313 20.2923 23.3122 20.4387C23.3233 20.4642 23.3345 20.4865 23.3472 20.5056C23.3743 20.5486 23.4077 20.582 23.4443 20.6027C23.5017 20.6346 23.5701 20.6378 23.6513 20.6155C23.7644 20.5088 23.8058 19.7445 23.7755 18.3242C23.7676 17.9373 23.6482 17.8052 23.4173 17.9262C23.4077 17.9309 23.3982 17.9357 23.3886 17.9421H23.387Z" fill="#292827"/>
<path d="M10.563 11.8989H9.60608V12.0183H10.563V11.8989Z" fill="#292827"/>
<path fill-rule="evenodd" clip-rule="evenodd" d="M9.24459 11.0142C9.62832 10.9839 9.83213 11.0206 9.85283 11.1225L9.90378 12.5985C9.85442 12.8278 9.73182 12.9313 9.53756 12.909C9.13154 12.9281 8.92773 12.8325 8.92932 12.6192C8.90544 11.7116 8.8927 11.2578 8.8927 11.2578C8.98027 11.0779 9.0981 10.9967 9.243 11.0158L9.24459 11.0142Z" fill="#292827"/>
<path fill-rule="evenodd" clip-rule="evenodd" d="M24.1289 11.0142C23.7452 10.9839 23.5414 11.0206 23.5207 11.1225L23.4697 12.5985C23.5191 12.8278 23.6417 12.9313 23.8359 12.909C24.242 12.9281 24.4458 12.8325 24.4442 12.6192C24.4681 11.7116 24.4808 11.2578 24.4808 11.2578C24.3932 11.0779 24.2754 10.9967 24.1305 11.0158L24.1289 11.0142Z" fill="#6D7F99"/>
<path d="M23.7692 11.8989H22.8123V12.0183H23.7692V11.8989Z" fill="#292827"/>
<path fill-rule="evenodd" clip-rule="evenodd" d="M24.1289 11.0142C23.7452 10.9839 23.5414 11.0206 23.5207 11.1225L23.4697 12.5985C23.5191 12.8278 23.6417 12.9313 23.8359 12.909C24.242 12.9281 24.4458 12.8325 24.4442 12.6192C24.4681 11.7116 24.4808 11.2578 24.4808 11.2578C24.3932 11.0779 24.2754 10.9967 24.1305 11.0158L24.1289 11.0142Z" fill="#292827"/>
<path fill-rule="evenodd" clip-rule="evenodd" d="M10.6282 13.671C10.6282 13.671 10.6966 12.6328 10.8351 10.5549C10.8351 10.5549 10.7699 10.5549 10.6393 10.5549C10.5852 11.0613 10.5406 11.5087 10.5087 11.8988H10.5645V12.0182H10.4992C10.4466 12.6822 10.4307 13.1662 10.4482 13.4703L10.6297 13.671H10.6282Z" fill="#353043"/>
<path fill-rule="evenodd" clip-rule="evenodd" d="M9.79875 11.055V9.49146H9.45801V11.0041C9.6236 11.0025 9.73665 11.02 9.79875 11.055Z" fill="#940A0A"/>
<path fill-rule="evenodd" clip-rule="evenodd" d="M9.79875 12.8256C9.73506 12.8924 9.64908 12.9195 9.53762 12.9068C9.51055 12.9084 9.48348 12.9084 9.45801 12.9084V17.5386H9.79875V12.824V12.8256Z" fill="#940A0A"/>
<path fill-rule="evenodd" clip-rule="evenodd" d="M9.45961 9.49182H9.79876V8.87402H9.34497V9.49182H9.45961Z" fill="#940A0A"/>
<path fill-rule="evenodd" clip-rule="evenodd" d="M23.5748 8.87402V9.49182H23.9156H24.0286V8.87402H23.5748Z" fill="#940A0A"/>
<path fill-rule="evenodd" clip-rule="evenodd" d="M23.836 12.9088C23.7261 12.9216 23.6385 12.8945 23.5748 12.8276V17.5423H23.9156V12.912C23.8901 12.912 23.863 12.9104 23.836 12.9104V12.9088Z" fill="#940A0A"/>
<path fill-rule="evenodd" clip-rule="evenodd" d="M23.5748 11.055C23.6369 11.0184 23.75 11.0025 23.9156 11.0041V9.49146H23.5748V11.055Z" fill="#940A0A"/>
<path fill-rule="evenodd" clip-rule="evenodd" d="M22.4174 14.4403C22.4174 14.4403 22.3441 13.1601 22.196 10.6014C22.2199 10.2861 22.0894 10.1317 21.8091 10.1428C18.6549 10.1237 16.948 10.1237 16.6884 10.1381C16.4289 10.1221 14.722 10.1237 11.5678 10.1428C11.2859 10.1333 11.157 10.2861 11.1809 10.6014C11.0328 13.1601 10.9595 14.4403 10.9595 14.4403C10.9404 14.8893 15.7888 14.8639 16.6884 14.8925C17.5881 14.8623 22.4365 14.8893 22.4174 14.4403Z" fill="#353043"/>
<path fill-rule="evenodd" clip-rule="evenodd" d="M16.7424 17.3145C16.8586 17.3129 16.9749 17.3129 17.0911 17.3113C17.1341 17.3113 17.1771 17.3097 17.2201 17.3097C17.2615 17.3097 17.3029 17.3097 17.3443 17.3097C17.4032 17.3113 17.4701 17.3065 17.5178 17.3304C17.5433 17.3431 17.5529 17.3622 17.5576 17.3909C17.5576 17.3925 17.5576 17.3957 17.5576 17.3957C17.556 17.4371 17.5306 17.4848 17.5131 17.5231C17.486 17.5788 17.4414 17.6282 17.3936 17.6743C17.314 17.7523 17.1564 17.8415 16.9924 17.8861C16.9701 17.8925 16.943 17.902 16.9176 17.9084C16.8984 17.9132 16.9048 17.9227 16.9176 17.9211C16.9446 17.9195 16.9733 17.9116 16.9972 17.9068C17.1882 17.859 17.3204 17.781 17.4127 17.7078C17.4669 17.6632 17.5242 17.6011 17.5608 17.5358C17.5863 17.4912 17.6118 17.4196 17.615 17.3925C17.6197 17.3575 17.6245 17.34 17.6229 17.2858C17.6181 17.1935 17.5895 17.1186 17.5338 17.0342C17.5306 17.0279 17.5242 17.0231 17.521 17.0167C17.5194 17.0135 17.5178 17.0088 17.5194 17.004L17.521 17.0024C17.5258 17.0008 17.5338 17.0072 17.5369 17.0104C17.5815 17.0597 17.607 17.1011 17.6309 17.1521C17.6627 17.2189 17.6707 17.2683 17.6771 17.3272C17.6786 17.3384 17.6898 17.3447 17.6914 17.3256C17.6946 17.2619 17.6802 17.1951 17.6532 17.1346C17.6229 17.0661 17.5911 17.0279 17.5481 16.9769C17.4987 16.926 17.4382 16.8766 17.3761 16.8384C17.2822 16.7795 17.185 16.7397 17.0816 16.711C17.0402 16.6999 16.9956 16.6903 16.951 16.6855C16.9367 16.6839 16.9223 16.6839 16.9096 16.6839C16.9 16.6839 16.8889 16.6951 16.9096 16.6983C16.9367 16.7046 16.9637 16.711 16.9908 16.719C17.0927 16.7476 17.193 16.7874 17.2838 16.8448C17.3586 16.8925 17.3952 16.9164 17.4844 17.0279C17.4939 17.0438 17.5194 17.0804 17.5322 17.1107C17.5417 17.1314 17.5545 17.1648 17.5545 17.1903V17.1919C17.5513 17.2158 17.5465 17.2333 17.5274 17.2444C17.4876 17.2683 17.4525 17.2699 17.3968 17.2731C17.3586 17.2747 17.3188 17.2763 17.2806 17.2763C17.2233 17.2779 17.1675 17.2779 17.1086 17.2794C16.986 17.281 16.8618 17.2826 16.7392 17.2842C16.7265 17.2842 16.7122 17.2842 16.6994 17.2842C16.5736 17.2842 16.4478 17.2858 16.322 17.2858C16.2647 17.2858 16.2074 17.2858 16.1501 17.2858C16.1119 17.2858 16.0737 17.2858 16.0339 17.2842C15.9781 17.2826 15.9431 17.281 15.9033 17.2587C15.8842 17.2476 15.8778 17.2317 15.8746 17.2062V17.2046C15.8746 17.1807 15.8874 17.1457 15.8953 17.125C15.9081 17.0947 15.9319 17.0565 15.9415 17.0406C16.0291 16.9276 16.0641 16.9037 16.1389 16.8543C16.2281 16.7954 16.3284 16.754 16.4287 16.7238C16.4558 16.7158 16.4829 16.7078 16.5099 16.7015C16.529 16.6967 16.5195 16.6855 16.5099 16.6871C16.4972 16.6871 16.4813 16.6871 16.4685 16.6887C16.424 16.6951 16.3794 16.7046 16.338 16.7174C16.2345 16.7476 16.1389 16.789 16.0466 16.8495C15.9861 16.8893 15.9272 16.9387 15.8778 16.9912C15.8364 17.0422 15.8046 17.0804 15.7759 17.1505C15.7504 17.211 15.7377 17.2779 15.7425 17.3415C15.7441 17.3607 15.7552 17.3543 15.7568 17.3431C15.7616 17.2826 15.7679 17.2349 15.7982 17.1664C15.8221 17.1154 15.846 17.074 15.889 17.0231C15.8921 17.0183 15.9001 17.0119 15.9049 17.0135H15.9065C15.9081 17.0183 15.9065 17.0231 15.9049 17.0263C15.9017 17.0326 15.8953 17.0374 15.8921 17.0438C15.8396 17.1298 15.8109 17.203 15.8078 17.297C15.8078 17.3511 15.8125 17.3702 15.8173 17.4036C15.8205 17.4307 15.8476 17.5024 15.8746 17.5454C15.9128 17.6106 15.9718 17.6711 16.0259 17.7157C16.1182 17.7874 16.252 17.8622 16.4447 17.9068C16.4685 17.9116 16.4972 17.9195 16.5243 17.9211C16.537 17.9211 16.5434 17.9132 16.5243 17.9084C16.5004 17.902 16.4717 17.8941 16.4494 17.8877C16.2838 17.8463 16.1246 17.7587 16.0434 17.6823C15.9956 17.6377 15.9495 17.5883 15.9224 17.5342C15.9033 17.496 15.8778 17.4482 15.8746 17.4068C15.8746 17.4052 15.8746 17.4036 15.8746 17.4021C15.8794 17.3734 15.8874 17.3543 15.9144 17.3415C15.9622 17.3177 16.0291 17.3208 16.088 17.3177C16.1294 17.3177 16.1708 17.3161 16.2122 17.3161C16.2552 17.3161 16.2982 17.3161 16.3427 17.3161C16.4622 17.3145 16.58 17.3129 16.6994 17.3129C16.7122 17.3129 16.7265 17.3129 16.7392 17.3129L16.7424 17.3145ZM16.7408 17.2715C16.8236 17.2699 16.9064 17.2699 16.9876 17.2683C17.0465 17.2667 17.1054 17.2651 17.1644 17.2635C17.2169 17.2619 17.2694 17.2587 17.3236 17.2556C17.3745 17.2524 17.443 17.2428 17.4541 17.2349C17.4621 17.2285 17.4589 17.2205 17.4525 17.2158C17.4414 17.2078 17.4271 17.1998 17.4143 17.1951C17.408 17.1935 17.4 17.1935 17.3952 17.1982C17.3857 17.2062 17.3793 17.2094 17.3666 17.2126C17.3172 17.2269 17.2822 17.2317 17.2169 17.238C17.1691 17.2428 17.1198 17.246 17.072 17.2476C16.9621 17.2524 16.8953 17.254 16.7408 17.2556C16.7265 17.2556 16.7137 17.2556 16.6994 17.2556C16.5418 17.2572 16.4749 17.2572 16.3634 17.254C16.3157 17.2524 16.2663 17.2508 16.217 17.2476C16.1517 17.2428 16.1166 17.238 16.0673 17.2253C16.0546 17.2221 16.0498 17.2205 16.0386 17.211C16.0339 17.2078 16.0259 17.2062 16.0195 17.2078C16.0068 17.2126 15.9925 17.2205 15.9813 17.2301C15.9749 17.2365 15.9718 17.2444 15.9797 17.2492C15.9909 17.2572 16.0593 17.2651 16.1103 17.2683C16.1644 17.2715 16.217 17.2731 16.2695 17.2731C16.3284 17.2747 16.3873 17.2747 16.4462 17.2747C16.529 17.2747 16.6134 17.2731 16.6978 17.2731C16.7122 17.2731 16.7249 17.2731 16.7392 17.2731L16.7408 17.2715ZM16.7392 17.2269C16.908 17.2253 17.0879 17.2253 17.2535 17.2078C17.3379 17.1982 17.3602 17.1537 17.3634 17.125C17.3745 17.0295 17.2312 16.9053 17.1548 16.8655C17.0529 16.8113 16.9621 16.7683 16.8411 16.7381C16.8252 16.7333 16.8156 16.7158 16.8156 16.7031C16.8156 16.6903 16.8348 16.676 16.8459 16.6728C16.8841 16.6632 16.9239 16.6648 16.9621 16.6712C17.0258 16.6792 17.0863 16.6919 17.1484 16.7094C17.2312 16.7333 17.3204 16.7747 17.3984 16.8225C17.5003 16.8846 17.5879 16.9642 17.6516 17.0645C17.6962 17.1346 17.7312 17.2269 17.7312 17.3049C17.7328 17.4021 17.6962 17.496 17.6436 17.5788C17.5927 17.6584 17.5226 17.7237 17.4462 17.7794C17.3761 17.8304 17.2965 17.8702 17.2169 17.902C17.1468 17.9307 17.0736 17.9466 16.9988 17.9593C16.951 17.9673 16.9048 17.9705 16.8586 17.9641C16.8459 17.9625 16.8252 17.9482 16.8252 17.9355C16.8236 17.9211 16.8332 17.9052 16.8475 17.9004C16.8873 17.8877 16.9526 17.867 17.0003 17.8463C17.0609 17.8192 17.123 17.7922 17.1771 17.7539C17.2312 17.7173 17.2854 17.6743 17.322 17.6218C17.3411 17.5931 17.3618 17.5533 17.3634 17.5247C17.365 17.5071 17.365 17.4848 17.3554 17.4689C17.3188 17.41 17.2185 17.4132 17.1421 17.41C17.0736 17.4068 17.0067 17.4068 16.9367 17.4052C16.8666 17.4036 16.7854 17.4036 16.7153 17.4036C16.6453 17.4052 16.5641 17.4068 16.494 17.4084C16.4255 17.4116 16.3587 17.4116 16.2886 17.4164C16.2138 17.4212 16.1119 17.4196 16.0768 17.4785C16.0673 17.4944 16.0673 17.5151 16.0689 17.5342C16.0705 17.5629 16.0928 17.6027 16.1119 17.6297C16.1485 17.6807 16.2026 17.7237 16.2584 17.7587C16.3141 17.7937 16.3762 17.8208 16.4367 17.8463C16.4845 17.867 16.5513 17.8861 16.5911 17.8972C16.6055 17.902 16.615 17.9179 16.6134 17.9307C16.6118 17.9434 16.5911 17.9577 16.58 17.9593C16.5322 17.9673 16.4861 17.9641 16.4399 17.9577C16.365 17.9466 16.2918 17.9307 16.2217 17.9036C16.1405 17.8734 16.0609 17.8351 15.9893 17.7842C15.9112 17.7285 15.8396 17.6648 15.7886 17.5868C15.7345 17.5055 15.6963 17.41 15.6947 17.3145C15.6947 17.2365 15.7265 17.1441 15.7711 17.0725C15.8332 16.9706 15.9208 16.8909 16.0211 16.8257C16.0991 16.7763 16.1867 16.7333 16.2695 16.7078C16.3316 16.6887 16.3921 16.676 16.4558 16.6664C16.4956 16.6601 16.5354 16.6569 16.572 16.6664C16.5848 16.6696 16.6039 16.6839 16.6039 16.6967C16.6039 16.711 16.5943 16.7285 16.5784 16.7333C16.459 16.7667 16.3682 16.8113 16.2679 16.8671C16.1931 16.9085 16.053 17.0358 16.0641 17.1314C16.0673 17.16 16.0928 17.2046 16.1756 17.2126C16.3427 17.2285 16.5243 17.2237 16.6946 17.2221C16.7074 17.2221 16.7201 17.2221 16.7344 17.2221L16.7392 17.2269Z" fill="#D3D5D5"/>
<path d="M38.6089 27.8994H9.34497V29.6923H38.6089V27.8994Z" fill="#B3B3B3"/>
<path d="M38.6089 31.3403H9.34497V33.1332H38.6089V31.3403Z" fill="#B3B3B3"/>
<path d="M38.6089 34.7812H9.34497V36.5741H38.6089V34.7812Z" fill="#B3B3B3"/>
<path d="M38.6089 38.2236H9.34497V40.0165H38.6089V38.2236Z" fill="#B3B3B3"/>
<path d="M44.349 7.54248H28.8181C28.2905 7.54248 27.8628 7.97021 27.8628 8.49783V24.0287C27.8628 24.5563 28.2905 24.984 28.8181 24.984H44.349C44.8766 24.984 45.3043 24.5563 45.3043 24.0287V8.49783C45.3043 7.97021 44.8766 7.54248 44.349 7.54248Z" fill="black"/>
<path d="M39.0946 19.8456H33.329C33.1411 19.8456 32.9883 19.6928 32.9883 19.5049C32.9883 19.317 33.1411 19.1641 33.329 19.1641H39.0946C39.4305 19.1641 39.7028 18.8919 39.7028 18.5559V18.5368C39.7028 18.2008 39.4289 17.9286 39.0946 17.9286H33.329C33.1411 17.9286 32.9883 17.7757 32.9883 17.5878C32.9883 17.3983 33.1411 17.2471 33.329 17.2471H39.0946C39.8063 17.2471 40.3859 17.8266 40.3859 18.5384V18.5575C40.3859 19.2692 39.8063 19.8488 39.0946 19.8488V19.8456Z" fill="white"/>
<path d="M39.6821 17.9192L39.6089 17.908C39.4735 17.8667 39.3971 17.7249 39.4385 17.5896L41.0021 12.4196H32.4708L33.4676 17.6167C33.4946 17.7552 33.4039 17.8889 33.2654 17.916C33.1252 17.9415 32.9931 17.8523 32.966 17.7138L31.853 11.9084H41.6915L39.9289 17.7393C39.8955 17.8491 39.7936 17.9208 39.6837 17.9208L39.6821 17.9192Z" fill="white"/>
<path d="M41.3445 12.4193C41.3158 12.4193 41.2872 12.4145 41.2585 12.405C41.1248 12.3572 41.0563 12.2107 41.1041 12.0786L41.7871 10.1631H43.4176C43.5593 10.1631 43.674 10.2777 43.674 10.4194C43.674 10.5611 43.5593 10.6758 43.4176 10.6758H42.1486L41.5865 12.2521C41.5499 12.3572 41.4512 12.4225 41.3461 12.4225L41.3445 12.4193Z" fill="white"/>
<path d="M38.0947 21.2082C38.0947 21.8467 38.6122 22.3642 39.2507 22.3642C39.8892 22.3642 40.4067 21.8467 40.4067 21.2082C40.4067 20.5697 39.8892 20.0522 39.2507 20.0522C38.6122 20.0522 38.0947 20.5697 38.0947 21.2082Z" fill="white"/>
<path d="M32.6587 21.2082C32.6587 21.8467 33.1762 22.3642 33.8147 22.3642C34.4532 22.3642 34.9706 21.8467 34.9706 21.2082C34.9706 20.5697 34.4532 20.0522 33.8147 20.0522C33.1762 20.0522 32.6587 20.5697 32.6587 21.2082Z" fill="white"/>
<path d="M38.5213 17.7802L38.4767 17.777C38.3366 17.7531 38.2443 17.621 38.2682 17.4808L39.1646 12.3251C39.1885 12.185 39.3222 12.0927 39.4608 12.1166C39.5993 12.1404 39.6932 12.2726 39.6694 12.4127L38.7729 17.5684C38.7506 17.6926 38.6423 17.7802 38.5213 17.7802Z" fill="white"/>
<path d="M37.2604 17.6688H37.2429C37.1028 17.6593 36.9961 17.5383 37.0041 17.3965L37.34 12.2966C37.3496 12.1549 37.4722 12.0482 37.6123 12.0577C37.7524 12.0673 37.8607 12.1883 37.8512 12.33L37.5152 17.43C37.5056 17.5653 37.3942 17.6688 37.2604 17.6688Z" fill="white"/>
<path d="M34.6268 17.7805C34.5026 17.7805 34.3943 17.6914 34.3736 17.564L33.5616 12.4083C33.5393 12.2681 33.6348 12.1376 33.7749 12.1153C33.9151 12.093 34.0456 12.1885 34.0679 12.3287L34.88 17.4844C34.9023 17.6229 34.8067 17.755 34.6666 17.7773L34.6268 17.7805Z" fill="white"/>
<path d="M35.9722 17.6692C35.8368 17.6692 35.7238 17.5626 35.7174 17.4272L35.4658 12.3272C35.4595 12.1855 35.5677 12.0661 35.7079 12.0597C35.8464 12.0518 35.969 12.1616 35.9754 12.3033L36.2269 17.4017C36.2333 17.5434 36.125 17.6629 35.9833 17.6692H35.9706H35.9722Z" fill="white"/>
<path d="M40.7902 14.1943H32.7207C32.579 14.1943 32.4644 14.0797 32.4644 13.938C32.4644 13.7963 32.579 13.6816 32.7207 13.6816H40.7902C40.9319 13.6816 41.0466 13.7963 41.0466 13.938C41.0466 14.0797 40.9319 14.1943 40.7902 14.1943Z" fill="white"/>
<path d="M40.1183 15.9873H33.0026C32.8609 15.9873 32.7462 15.8727 32.7462 15.731C32.7462 15.5893 32.8609 15.4746 33.0026 15.4746H40.1183C40.2601 15.4746 40.3747 15.5893 40.3747 15.731C40.3747 15.8727 40.2601 15.9873 40.1183 15.9873Z" fill="white"/>
</svg>
