<svg width="48" height="48" viewBox="0 0 48 48" fill="none" xmlns="http://www.w3.org/2000/svg">
<path d="M24 48C37.2548 48 48 37.2548 48 24C48 10.7452 37.2548 0 24 0C10.7452 0 0 10.7452 0 24C0 37.2548 10.7452 48 24 48Z" fill="#99B8D1"/>
<path d="M11.3173 18.3506H13.9245V18.2035H34.1403V18.3506H36.6003C38.154 18.3506 39.4134 19.6101 39.4134 21.1638V22.435L39.5017 21.6228C39.5017 17.7739 37.4242 16.4497 35.9588 16.4497H34.1403V17.3266H13.9245V16.4497H12.0883C10.6758 16.4497 8.69837 17.615 8.55713 20.6165C8.81019 19.3276 9.95193 18.3565 11.3173 18.3565V18.3506Z" fill="#666666"/>
<path d="M39.4076 22.4347V21.1635C39.4076 19.6098 38.1481 18.3503 36.5944 18.3503H34.1344V19.9629H13.9186V18.3503H11.3114C9.94606 18.3503 8.81021 19.3214 8.55126 20.6103C8.51595 20.7868 8.49829 20.9693 8.49829 21.1635V32.8221C8.49829 33.5166 8.75136 34.1228 9.16332 34.6171C9.0927 34.5289 9.02796 34.4641 8.96911 34.317H13.6773L13.283 35.6706L12.0942 39.7373H22.1638H25.8656H35.8882H35.9353L34.7465 35.6706L34.3521 34.317H38.9426C39.231 33.8756 39.4017 33.393 39.4017 32.8221V22.4347H39.4076ZM33.5694 31.6804H25.8715H22.1697H14.4718L13.9245 33.6932V25.5244H34.1403V33.6932L33.5753 31.6804H33.5694Z" fill="#B3B3B3"/>
<path d="M34.7525 35.6356H36.6831C37.6955 35.6356 38.5784 35.1941 39.0728 34.3171H38.9492H34.3582L34.7525 35.6356Z" fill="black"/>
<path d="M13.6839 34.3171H8.9751C9.03396 34.4643 9.0987 34.4996 9.16933 34.5879C9.6873 35.2295 10.476 35.6356 11.3648 35.6356H13.2954L13.6898 34.3171H13.6839Z" fill="#1A1A1A"/>
<path d="M34.1351 17.3267V16.4498V9.26978H13.9252V16.4498V17.3267H34.1351Z" fill="black"/>
<path d="M13.9244 18.2031V18.3503V19.9628H34.1343V18.3503V18.2031H13.9244Z" fill="black"/>
<path d="M34.1343 25.5303H13.9244V33.6931L14.4718 31.6803H22.1697H25.8715H33.5694L34.1343 33.6931V25.5303Z" fill="black"/>
<path d="M22.1696 39.7371H12.1H12.0176V40.4727H22.1696H25.8714H35.894V39.7371H25.8714H22.1696Z" fill="#7C8993"/>
<path d="M31.7685 31.6804C32.3923 34.6525 33.0103 37.6245 33.6341 40.5966C33.74 41.1027 32.769 41.5088 31.6449 41.5088C26.2187 41.5088 20.7866 41.5088 15.3604 41.5088C14.6424 41.1439 14.2893 40.9614 13.5948 40.5966C14.2481 37.6245 14.8955 34.6525 15.5487 31.6804H31.7685Z" fill="white"/>
<path d="M31.0632 6.5329L31.0455 6.4917H30.7807H17.2329H16.968L16.9563 6.53878C16.1147 6.67414 15.379 7.39803 15.379 8.25727V17.3382H32.664V8.25727C32.664 7.39803 31.9048 6.67414 31.0514 6.53878L31.0632 6.5329Z" fill="white"/>
<path d="M35.4468 22.1231C35.4468 22.3938 35.2291 22.6175 34.9524 22.6175C34.6817 22.6175 34.458 22.3938 34.458 22.1231C34.458 21.8523 34.6817 21.6287 34.9524 21.6287C35.2232 21.6287 35.4468 21.8523 35.4468 22.1231Z" fill="#E9E4E4"/>
<path d="M37.0771 22.1231C37.0771 22.3938 36.8534 22.6175 36.5827 22.6175C36.3119 22.6175 36.0883 22.3938 36.0883 22.1231C36.0883 21.8523 36.3119 21.6287 36.5827 21.6287C36.8534 21.6287 37.0771 21.8523 37.0771 22.1231Z" fill="#7C8993"/>
</svg>
