<svg width="20" height="20" viewBox="0 0 20 20" fill="none" xmlns="http://www.w3.org/2000/svg">
<path d="M6.25366 17.9C4.87667 17.2544 3.69195 16.2636 2.81574 15.0247C1.93954 13.7858 1.40196 12.3414 1.25576 10.8333H0C0.426957 15.9667 4.73838 20 10.0042 20L10.5567 19.975L7.3671 16.8L6.25366 17.9ZM6.99874 12.4667C6.83968 12.4667 6.68899 12.4417 6.56342 12.4C6.43837 12.3587 6.32403 12.2904 6.22855 12.2C6.13646 12.1167 6.06111 12.0167 6.01088 11.8917C5.96065 11.775 5.93554 11.6417 5.93554 11.5H4.84722C4.84722 11.8 4.90582 12.0667 5.02302 12.2917C5.14023 12.5167 5.29929 12.7083 5.49184 12.8667C5.69276 13.0167 5.91879 13.1333 6.17832 13.2083C6.42947 13.2917 6.69736 13.3333 6.982 13.3333C7.29175 13.3333 7.58476 13.2917 7.84429 13.2083C8.11218 13.125 8.34659 13 8.53914 12.8417C8.73169 12.6833 8.89075 12.4833 8.99958 12.2417C9.10841 12 9.16702 11.7333 9.16702 11.4333C9.16702 11.275 9.15027 11.1167 9.10841 10.9667C9.0687 10.8152 9.0036 10.6715 8.91586 10.5417C8.83215 10.4083 8.71494 10.2917 8.581 10.1833C8.43868 10.075 8.27124 9.99167 8.07032 9.925C8.37293 9.79078 8.63123 9.57411 8.8154 9.3C8.89912 9.175 8.95772 9.05 8.99958 8.91667C9.04144 8.78333 9.05818 8.65 9.05818 8.51667C9.05818 8.21667 9.00795 7.95 8.90749 7.71667C8.8144 7.49321 8.66783 7.29581 8.48054 7.14167C8.3131 6.98333 8.08706 6.86667 7.83591 6.78333C7.57639 6.70833 7.29175 6.66667 6.982 6.66667C6.68062 6.66667 6.40435 6.70833 6.14483 6.8C5.89368 6.89167 5.66764 7.01667 5.48347 7.175C5.30766 7.33333 5.16534 7.51667 5.05651 7.73333C4.95605 7.95 4.90582 8.18333 4.90582 8.44167H5.99414C5.99414 8.3 6.01925 8.175 6.06948 8.06667C6.11971 7.95833 6.18669 7.85833 6.27878 7.78333C6.37087 7.70833 6.47133 7.64167 6.5969 7.6C6.72248 7.55833 6.84805 7.53333 6.99874 7.53333C7.33361 7.53333 7.58476 7.61667 7.74383 7.79167C7.90289 7.95833 7.9866 8.2 7.9866 8.50833C7.9866 8.65833 7.96149 8.79167 7.91963 8.91667C7.878 9.03582 7.80586 9.1421 7.71034 9.225C7.61825 9.30833 7.50105 9.375 7.3671 9.425C7.23315 9.475 7.06572 9.5 6.88154 9.5H6.23692V10.3583H6.88154C7.06572 10.3583 7.23315 10.375 7.38384 10.4167C7.53453 10.4583 7.66011 10.525 7.76057 10.6083C7.86103 10.7 7.94475 10.8083 8.00335 10.9417C8.06195 11.075 8.08706 11.2333 8.08706 11.4167C8.08706 11.7583 7.9866 12.0167 7.79405 12.1917C7.60151 12.3833 7.33361 12.4667 6.99874 12.4667ZM14.1565 7.53333C13.8887 7.25833 13.5705 7.04167 13.2022 6.89167C12.8422 6.74167 12.432 6.66667 11.9799 6.66667H10.0042V13.3333H11.9297C12.3901 13.3333 12.8171 13.2583 13.1938 13.1083C13.5705 12.9583 13.897 12.75 14.1649 12.475C14.4328 12.2 14.6421 11.8667 14.7844 11.4833C14.9267 11.0917 15.0021 10.6583 15.0021 10.175V9.84167C15.0021 9.35833 14.9267 8.925 14.7844 8.53333C14.6337 8.14167 14.4244 7.80833 14.1565 7.53333ZM13.8301 10.1667C13.8301 10.5167 13.7882 10.825 13.7129 11.1083C13.6291 11.3833 13.5119 11.625 13.3529 11.8167C13.1938 12.0083 12.9929 12.1583 12.7585 12.2583C12.5157 12.3583 12.2394 12.4083 11.9297 12.4083H11.1679V7.6H11.9799C12.5827 7.6 13.0431 7.79167 13.3529 8.175C13.671 8.55833 13.8301 9.10833 13.8301 9.83333V10.1667ZM10.0042 0L9.45165 0.025L12.6413 3.2L13.7547 2.09167C16.4923 3.38333 18.4512 6.025 18.7442 9.15833H20C19.5814 4.03333 15.27 0 10.0042 0Z" fill="white"/>
</svg>
