<svg width="48" height="48" viewBox="0 0 48 48" fill="none" xmlns="http://www.w3.org/2000/svg">
<path d="M24 48C37.2548 48 48 37.2548 48 24C48 10.7452 37.2548 0 24 0C10.7452 0 0 10.7452 0 24C0 37.2548 10.7452 48 24 48Z" fill="#C80000"/>
<path d="M2.79932 22.3586V25.6326C2.79932 25.9281 3.01194 26.1839 3.30834 26.2299L6.94452 26.8092C7.14182 27.9462 7.43012 29.0435 7.83284 30.0886L4.96336 32.4157C4.73542 32.5932 4.67506 32.922 4.81921 33.1788L6.45891 36.0176C6.61117 36.2744 6.91479 36.3861 7.18777 36.2807L10.642 34.9527C11.3636 35.8329 12.1681 36.6348 13.0411 37.3582L11.7204 40.8034C11.6141 41.0791 11.7276 41.3881 11.9861 41.5395L14.8259 43.1765C15.0764 43.3215 15.4025 43.2684 15.5854 43.0314L17.908 40.1727C18.9558 40.5665 20.0567 40.8638 21.1874 41.0476L21.7721 44.6882C21.8099 44.9846 22.0685 45.2018 22.364 45.2018H25.6443C25.9407 45.2018 26.1912 44.9846 26.229 44.6882L26.8137 41.0476C27.9453 40.8638 29.0381 40.5665 30.0931 40.1727L32.4085 43.0314C32.6058 43.2684 32.9248 43.3215 33.1752 43.1765L36.0222 41.5395C36.2726 41.3881 36.379 41.0791 36.2808 40.8034L34.96 37.3582C35.833 36.6357 36.6375 35.8338 37.3592 34.9527L40.8061 36.2807C41.0872 36.3852 41.3909 36.2735 41.535 36.0176L43.1819 33.1788C43.3261 32.922 43.2657 32.5932 43.0378 32.4157L40.1683 30.0886C40.5629 29.0435 40.8593 27.9462 41.0485 26.8092L44.7 26.2299C44.9883 26.1839 45.2009 25.9281 45.2009 25.6326V22.3586C45.2009 22.0622 44.9883 21.8126 44.7 21.7667L41.0485 21.1883C40.8584 20.0585 40.5629 18.9602 40.1683 17.908L43.0378 15.5889C43.2657 15.3979 43.3261 15.07 43.1819 14.8132L41.535 11.9807C41.3909 11.7302 41.0872 11.6113 40.8061 11.7239L37.3592 13.0384C36.6384 12.1636 35.833 11.3555 34.96 10.6383L36.2808 7.19494C36.379 6.91835 36.2735 6.60303 36.0222 6.45888L33.1752 4.82188C32.9248 4.67052 32.6058 4.73629 32.4085 4.96062L30.0931 7.8328C29.0381 7.43189 27.9444 7.14269 26.8137 6.95259L26.229 3.30471C26.1912 3.01551 25.9407 2.80469 25.6443 2.80469H22.364C22.0676 2.80469 21.8099 3.01461 21.7721 3.30471L21.1874 6.95259C20.0567 7.14269 18.9558 7.43279 17.908 7.8328L15.5854 4.96062C15.4034 4.73629 15.0764 4.67142 14.8259 4.82188L11.9861 6.45888C11.7276 6.60303 11.6141 6.91925 11.7204 7.19494L13.0411 10.6383C12.1681 11.3555 11.3636 12.1636 10.642 13.0384L7.18777 11.7239C6.91479 11.6113 6.61027 11.7302 6.45891 11.9807L4.81921 14.8132C4.67506 15.07 4.73542 15.3979 4.96336 15.5889L7.83284 17.908C7.43012 18.9602 7.14182 20.0585 6.94452 21.1883L3.30834 21.7667C3.01194 21.8126 2.79932 22.0631 2.79932 22.3586Z" fill="black"/>
<path d="M9.29773 23.9973C9.29773 32.1156 15.88 38.6979 24.0028 38.6979C32.1184 38.6979 38.6934 32.1165 38.6934 23.9973C38.6934 15.879 32.1184 9.29675 24.0028 9.29675C15.8791 9.29675 9.29773 15.8781 9.29773 23.9973Z" fill="white"/>
<path d="M24.0037 45.1971H22.364C22.0676 45.1971 21.8099 44.98 21.7721 44.6836L21.1874 41.0429C20.0567 40.8591 18.9558 40.5618 17.908 40.1681L15.5854 43.0268C15.4719 43.1754 15.3043 43.252 15.1223 43.252C15.0232 43.252 14.9178 43.225 14.8259 43.1718L11.9861 41.5348C11.7888 41.4213 11.6825 41.2186 11.6825 41.0087C11.6825 40.9393 11.6978 40.8672 11.7204 40.7988L13.0411 37.3536C12.1681 36.631 11.3636 35.8292 10.642 34.9481L7.18777 36.2761C7.1193 36.3031 7.05083 36.3148 6.98326 36.3148C6.77874 36.3148 6.57333 36.2049 6.45891 36.013L4.81921 33.1742C4.76606 33.0796 4.73542 32.976 4.73542 32.8723C4.74263 32.6967 4.81921 32.5237 4.96336 32.4111L7.83284 30.084C7.43012 29.0389 7.14182 27.9415 6.94452 26.8045L3.30834 26.2252C3.01194 26.1793 2.79932 25.9234 2.79932 25.6279V22.3539C2.79932 22.0575 3.01194 21.808 3.30834 21.762L6.94452 21.1836C7.14182 20.0538 7.43012 18.9556 7.83284 17.9033L4.96336 15.5843C4.81921 15.4627 4.74353 15.2879 4.73542 15.1104C4.73542 15.0068 4.76606 14.9032 4.81921 14.8086L6.45891 11.9761C6.57333 11.7896 6.77064 11.677 6.97515 11.677C7.05173 11.677 7.1193 11.6905 7.18777 11.7193L10.642 13.0338C11.3636 12.159 12.1681 11.3508 13.0411 10.6337L11.7204 7.1903C11.6978 7.12093 11.6825 7.04976 11.6825 6.97858C11.6825 6.76686 11.7888 6.56235 11.9861 6.45424L14.8259 4.81724C14.9169 4.76228 15.0232 4.73616 15.1223 4.73616C15.2971 4.73616 15.4719 4.81454 15.5854 4.95598L17.908 7.82816C18.9558 7.42725 20.0567 7.13805 21.1874 6.94795L21.7721 3.30007C21.8099 3.01087 22.0685 2.80005 22.364 2.80005H24.0037V9.29579C15.88 9.29579 9.29866 15.8771 9.29866 23.9963C9.29866 32.1147 15.8809 38.6969 24.0037 38.6969V45.1962V45.1971Z" fill="black"/>
<path d="M24.0038 38.6979C15.88 38.6979 9.29871 32.1165 9.29871 23.9973C9.29871 15.879 15.8809 9.29675 24.0038 9.29675V10.2788C16.4197 10.2788 10.2771 16.4204 10.2771 23.9964C10.2771 31.5733 16.4188 37.714 24.0038 37.714V38.6961V38.6979Z" fill="white"/>
<path d="M24.0001 13.7528C18.3404 13.7528 13.7528 18.3404 13.7528 24.0001C13.7528 29.6597 18.3404 34.2473 24.0001 34.2473C29.6597 34.2473 34.2473 29.6597 34.2473 24.0001C34.2473 18.3404 29.6597 13.7528 24.0001 13.7528ZM36.1447 24.0001C36.1447 30.7075 30.7075 36.1447 24.0001 36.1447C17.2926 36.1447 11.8555 30.7075 11.8555 24.0001C11.8555 17.2926 17.2926 11.8555 24.0001 11.8555C30.7075 11.8555 36.1447 17.2926 36.1447 24.0001Z" fill="#292827"/>
<path d="M24.0001 30.8669C24.9947 30.8669 25.9362 30.6273 26.7767 30.1993C26.129 31.8643 25.9713 33.6049 25.9407 34.0607C25.3118 34.1815 24.6641 34.2463 24.0001 34.2463C23.3361 34.2463 22.6883 34.1806 22.0595 34.0607C22.0279 33.6049 21.8712 31.8643 21.2234 30.1993C22.064 30.6264 23.0063 30.8669 24.0001 30.8669Z" fill="#B3B3B3"/>
<path d="M29.8001 20.9916C28.1649 20.6556 26.1729 20.3844 23.9999 20.3844C21.8268 20.3844 19.8349 20.6556 18.1997 20.9916C17.7834 21.8998 17.5492 22.9205 17.5492 23.999C17.5492 25.0368 17.7663 26.0215 18.1537 26.9045C18.2799 26.9486 18.4078 26.9955 18.5384 27.0486C19.8718 27.5838 20.7043 28.8667 21.2223 30.1992C22.0629 30.6262 23.0053 30.8668 23.999 30.8668C24.9936 30.8668 25.9351 30.6271 26.7757 30.1992C27.2937 28.8667 28.1262 27.5838 29.4595 27.0486C29.5911 26.9955 29.719 26.9486 29.8451 26.9045C30.2325 26.0215 30.4497 25.0377 30.4497 23.999C30.4497 22.9205 30.2154 21.8998 29.7992 20.9916H29.8001ZM26.3144 23.9476C26.3144 25.226 25.2783 26.2621 23.9999 26.2621C22.7215 26.2621 21.6854 25.226 21.6854 23.9476C21.6854 22.6692 22.7215 21.6331 23.9999 21.6331C25.2783 21.6331 26.3144 22.6692 26.3144 23.9476Z" fill="black"/>
<path d="M29.8453 26.9044C30.2327 26.0215 30.4498 25.0377 30.4498 23.9989C30.4498 22.9205 30.2155 21.8997 29.7993 20.9916C31.9012 21.424 33.4094 21.9619 33.9598 22.1727C34.0679 22.7655 34.1256 23.3755 34.1256 23.9998C34.1256 24.9233 34.0004 25.8179 33.767 26.6693C33.3778 26.5287 31.9895 26.1476 29.8453 26.9044Z" fill="#B3B3B3"/>
<path d="M14.232 26.6693C13.9986 25.8179 13.8734 24.9233 13.8734 23.9998C13.8734 23.3764 13.9311 22.7664 14.0401 22.1727C14.5897 21.9619 16.0978 21.424 18.2006 20.9916C17.7844 21.8997 17.5501 22.9205 17.5501 23.9989C17.5501 25.0368 17.7673 26.0215 18.1547 26.9044C16.0104 26.1476 14.6212 26.5278 14.232 26.6693Z" fill="#B3B3B3"/>
</svg>
