<svg width="48" height="48" viewBox="0 0 48 48" fill="none" xmlns="http://www.w3.org/2000/svg">
<path d="M24 48C37.2548 48 48 37.2548 48 24C48 10.7452 37.2548 0 24 0C10.7452 0 0 10.7452 0 24C0 37.2548 10.7452 48 24 48Z" fill="#99B8D1"/>
<path d="M33.8694 12.3699C32.349 12.3699 31.1086 13.6036 31.1086 15.1306V41.5246C31.1086 43.0451 29.875 44.2787 28.3545 44.2787H5.47485V15.1306C5.47485 13.6036 6.7152 12.3699 8.23562 12.3699H33.8694Z" fill="white"/>
<path d="M28.1746 44.2725V44.2792H5.30154C4.53466 44.2792 3.85447 43.9724 3.34766 43.4723C2.84752 42.9722 2.54077 42.2853 2.54077 41.5184V40.2247H25.5938V41.5184C25.5938 42.2853 25.9006 42.9722 26.4007 43.4723C26.8675 43.9391 27.4877 44.2325 28.1812 44.2725H28.1746Z" fill="#B3B3B3"/>
<path d="M9.03589 21.019H27.3076V19.9387H9.03589V21.019Z" fill="#B3B3B3"/>
<path d="M9.03589 24.1736H27.3076V23.0933H9.03589V24.1736Z" fill="#B3B3B3"/>
<path d="M9.03589 27.3275H14.1306V26.2472H9.03589V27.3275Z" fill="#B3B3B3"/>
<path d="M9.03589 28.4078H14.1306V27.3275H9.03589V28.4078Z" fill="#E6E6E6"/>
<path d="M37.8306 23.18C43.4471 23.18 48.0001 18.627 48.0001 13.0106C48.0001 7.3941 43.4471 2.84106 37.8306 2.84106C32.2142 2.84106 27.6611 7.3941 27.6611 13.0106C27.6611 18.627 32.2142 23.18 37.8306 23.18Z" fill="black"/>
<path d="M15.6178 27.3275H20.7192V26.2472H15.6178V27.3275Z" fill="#B3B3B3"/>
<path d="M15.6178 28.4078H20.7192V27.3275H15.6178V28.4078Z" fill="#E6E6E6"/>
<path d="M22.2063 27.3275H27.3077V26.2472H22.2063V27.3275Z" fill="#B3B3B3"/>
<path d="M22.2063 28.4078H27.3077V27.3275H22.2063V28.4078Z" fill="#E6E6E6"/>
<path d="M9.03589 30.4754H14.1306V29.4017H9.03589V30.4754Z" fill="#E6E6E6"/>
<path d="M15.6178 30.4754H20.7192V29.4017H15.6178V30.4754Z" fill="#E6E6E6"/>
<path d="M22.2063 30.4754H27.3077V29.4017H22.2063V30.4754Z" fill="#E6E6E6"/>
<path d="M9.03589 32.5489H14.1306V31.4686H9.03589V32.5489Z" fill="#E6E6E6"/>
<path d="M15.6178 32.5489H20.7192V31.4686H15.6178V32.5489Z" fill="#E6E6E6"/>
<path d="M22.2063 32.5489H27.3077V31.4686H22.2063V32.5489Z" fill="#E6E6E6"/>
<path d="M9.03589 34.6157H14.1306V33.5421H9.03589V34.6157Z" fill="#E6E6E6"/>
<path d="M15.6178 34.6157H20.7192V33.5421H15.6178V34.6157Z" fill="#E6E6E6"/>
<path d="M22.2063 34.6157H27.3077V33.5421H22.2063V34.6157Z" fill="#E6E6E6"/>
<path d="M9.03589 36.69H14.1306V35.6097H9.03589V36.69Z" fill="#E6E6E6"/>
<path d="M15.6178 36.69H20.7192V35.6097H15.6178V36.69Z" fill="#E6E6E6"/>
<path d="M22.2063 36.69H27.3077V35.6097H22.2063V36.69Z" fill="#E6E6E6"/>
<path d="M9.84947 15.531V18.0917H9.18262V15.531H9.84947Z" fill="#292827"/>
<path d="M12.7304 15.531V18.0917H11.9835L11.1899 16.7047L10.9965 16.3246H10.9899L11.0032 16.798V18.0917H10.4164V15.531H11.1566L11.9568 16.9181L12.1502 17.2982L12.1369 16.8247V15.531H12.7304Z" fill="#292827"/>
<path d="M15.6445 15.531L14.7309 18.0917H13.9507L13.0371 15.531H13.7373L14.2108 17.0781L14.3508 17.5849L14.4842 17.0848L14.9643 15.531H15.6445Z" fill="#292827"/>
<path d="M17.0315 15.4915C17.2915 15.4915 17.5116 15.5448 17.705 15.6515C17.8917 15.7582 18.0384 15.9049 18.1384 16.105C18.2385 16.305 18.2918 16.5384 18.2918 16.8185C18.2918 17.0986 18.2385 17.332 18.1384 17.532C18.0384 17.7321 17.8917 17.8788 17.705 17.9855C17.5183 18.0922 17.2915 18.1455 17.0315 18.1455C16.7714 18.1455 16.5513 18.0922 16.3579 17.9855C16.1712 17.8788 16.0245 17.7321 15.9245 17.532C15.8245 17.332 15.7711 17.0986 15.7711 16.8185C15.7711 16.5384 15.8245 16.305 15.9245 16.105C16.0245 15.9049 16.1712 15.7582 16.3579 15.6515C16.5447 15.5448 16.7714 15.4915 17.0315 15.4915ZM17.0315 16.0183C16.9048 16.0183 16.8047 16.0449 16.718 16.105C16.6314 16.165 16.5647 16.2517 16.5247 16.3717C16.478 16.4917 16.458 16.6384 16.458 16.8118C16.458 16.9852 16.478 17.1319 16.5247 17.2519C16.5713 17.372 16.6314 17.4587 16.718 17.5187C16.8047 17.5787 16.9114 17.6054 17.0315 17.6054C17.1582 17.6054 17.2582 17.5787 17.3449 17.5187C17.4316 17.4587 17.4916 17.372 17.5383 17.2519C17.585 17.1319 17.605 16.9852 17.605 16.8118C17.605 16.6384 17.585 16.4917 17.5383 16.3717C17.4916 16.2517 17.4316 16.165 17.3449 16.105C17.2582 16.0449 17.1582 16.0183 17.0315 16.0183Z" fill="#292827"/>
<path d="M19.4121 15.531V18.0917H18.7452V15.531H19.4121Z" fill="#292827"/>
<path d="M22.2528 17.3581C22.2061 17.5381 22.1261 17.6848 22.0127 17.7982C21.906 17.9115 21.7727 17.9982 21.626 18.0516C21.4726 18.1049 21.3125 18.1316 21.1258 18.1316C20.8658 18.1316 20.6457 18.0783 20.4523 17.9716C20.2656 17.8649 20.1189 17.7182 20.0189 17.5181C19.9188 17.3181 19.8655 17.0847 19.8655 16.8046C19.8655 16.5245 19.9188 16.2911 20.0189 16.091C20.1189 15.891 20.2656 15.7443 20.4523 15.6376C20.639 15.5309 20.8658 15.4775 21.1192 15.4775C21.2992 15.4775 21.4593 15.5042 21.6126 15.5509C21.766 15.6042 21.8927 15.6776 21.9927 15.7843C22.0994 15.891 22.1728 16.0244 22.2128 16.1844L21.626 16.4245C21.5926 16.2644 21.5326 16.1511 21.4459 16.091C21.3659 16.031 21.2592 16.0044 21.1392 16.0044C21.0191 16.0044 20.9124 16.031 20.8191 16.091C20.7324 16.1511 20.659 16.2378 20.6124 16.3578C20.5657 16.4778 20.539 16.6245 20.539 16.7979C20.539 16.9713 20.559 17.118 20.6057 17.238C20.6524 17.3581 20.719 17.4448 20.8057 17.5048C20.8924 17.5648 21.0058 17.5915 21.1392 17.5915C21.2659 17.5915 21.3659 17.5581 21.4526 17.4914C21.5393 17.4247 21.5993 17.3181 21.6326 17.178L22.2395 17.3514L22.2528 17.3581Z" fill="#292827"/>
<path d="M22.6263 18.0917V15.531H24.6202V16.0445H23.2932V16.5646H24.3468V17.0514H23.2932V17.5782H24.6736V18.0917H22.6263Z" fill="#292827"/>
<path d="M35.45 7.37549V12.717H32.9559L37.8306 18.652L42.7053 12.717H40.2113V7.37549H35.45Z" fill="white"/>
</svg>
