<svg width="48" height="48" viewBox="0 0 48 48" fill="none" xmlns="http://www.w3.org/2000/svg">
<path d="M24 48C37.2548 48 48 37.2548 48 24C48 10.7452 37.2548 0 24 0C10.7452 0 0 10.7452 0 24C0 37.2548 10.7452 48 24 48Z" fill="#940A0A"/>
<path d="M32.4547 4.73038V19.1791H2V5.07646C2 3.77435 2.77435 3 3.73038 3H30.7243C31.6804 3 32.4547 3.77435 32.4547 4.73038Z" fill="#6D6E6E"/>
<path d="M32.4547 19.1791V40.6358C32.4547 41.5918 31.6804 42.3662 30.7243 42.3662H3.73038C2.77435 42.3662 2 41.5918 2 40.9819V19.1791H32.4547Z" fill="#6D6E6E"/>
<path d="M6.32593 14.5071V7.67208C6.32593 7.00312 6.86823 6.46082 7.5372 6.46082H28.6479C29.3168 6.46082 29.8591 7.00312 29.8591 7.67208V14.5071C29.8591 15.1761 29.3168 15.7184 28.6479 15.7184H7.5372C6.86823 15.7184 6.32593 15.1761 6.32593 14.5071Z" fill="#F5F5F5"/>
<path d="M9.26758 15.7184H7.5372C6.8684 15.7184 6.32593 15.1759 6.32593 14.5071V7.67208C6.32593 7.00329 6.8684 6.46082 7.5372 6.46082H9.26758C8.59879 6.46082 8.05631 7.00329 8.05631 7.67208V14.5071C8.05631 15.1759 8.59879 15.7184 9.26758 15.7184Z" fill="black"/>
<path d="M29.7727 23.8512V30.7727H18.0493V22.6399H28.5614C29.2302 22.6399 29.7727 23.1824 29.7727 23.8512Z" fill="#F5F5F5"/>
<path d="M18.0493 22.6399V30.7727H6.32593V24.0242C6.32593 23.1824 6.8684 22.6399 7.5372 22.6399H18.0493Z" fill="#F5F5F5"/>
<path d="M18.0493 30.7726V38.9054H7.5372C6.8684 38.9054 6.32593 38.3629 6.32593 37.8672V30.7726H18.0493Z" fill="#F5F5F5"/>
<path d="M29.7727 30.7726V37.6941C29.7727 38.3629 29.2302 38.9054 28.5614 38.9054H18.0493V30.7726H29.7727Z" fill="#F5F5F5"/>
<path d="M28.5614 21.991H18.0494H7.53728C6.47682 21.991 5.67712 22.8651 5.67712 24.0242V30.7727V37.8672C5.67712 38.766 6.54638 39.5543 7.53728 39.5543H18.0494H28.5614C29.5871 39.5543 30.4216 38.7199 30.4216 37.6942V30.7727V23.8511C30.4216 22.8254 29.5871 21.991 28.5614 21.991ZM29.1238 23.8511V30.1238H18.6982V23.2888H28.5614C28.8715 23.2888 29.1238 23.541 29.1238 23.8511ZM6.97491 24.0242C6.97491 23.5843 7.2009 23.2888 7.53728 23.2888H17.4005V30.1238H6.97491V24.0242ZM6.97491 37.8672V31.4215H17.4005V38.2566H7.53728C7.21241 38.2566 6.97491 37.9833 6.97491 37.8672ZM29.1238 37.6942C29.1238 38.0043 28.8715 38.2566 28.5614 38.2566H18.6982V31.4215H29.1238V37.6942Z" fill="#E6E6E6"/>
<path d="M14.9779 35.488H10.3059C9.94743 35.488 9.65698 35.1975 9.65698 34.8391C9.65698 34.4806 9.94743 34.1902 10.3059 34.1902H14.9779C15.3364 34.1902 15.6268 34.4806 15.6268 34.8391C15.6268 35.1975 15.3364 35.488 14.9779 35.488Z" fill="black"/>
<path d="M14.5453 26.0574H13.2908V24.8028C13.2908 24.4444 13.0004 24.1539 12.6419 24.1539C12.2835 24.1539 11.993 24.4444 11.993 24.8028V26.0574H10.7385C10.38 26.0574 10.0896 26.3478 10.0896 26.7062C10.0896 27.0647 10.38 27.3551 10.7385 27.3551H11.993V28.6097C11.993 28.9681 12.2835 29.2586 12.6419 29.2586C13.0004 29.2586 13.2908 28.9681 13.2908 28.6097V27.3551H14.5453C14.9038 27.3551 15.1942 27.0647 15.1942 26.7062C15.1942 26.3478 14.9038 26.0574 14.5453 26.0574Z" fill="black"/>
<path d="M24.4177 26.7062L25.3048 25.8191C25.5582 25.5656 25.5582 25.1548 25.3048 24.9014C25.0513 24.6481 24.6405 24.6481 24.3871 24.9014L23.5 25.7885L22.6129 24.9014C22.3594 24.6481 21.9486 24.6481 21.6952 24.9014C21.4418 25.1549 21.4418 25.5657 21.6952 25.8191L22.5823 26.7062L21.6952 27.5933C21.4418 27.8468 21.4418 28.2576 21.6952 28.511C21.8219 28.6377 21.9881 28.701 22.1541 28.701C22.3201 28.701 22.4862 28.6377 22.613 28.511L23.5001 27.6239L24.3871 28.511C24.5139 28.6377 24.68 28.701 24.846 28.701C25.0121 28.701 25.1782 28.6377 25.3049 28.511C25.5584 28.2575 25.5584 27.8467 25.3049 27.5933L24.4177 26.7062Z" fill="black"/>
<path d="M32.4547 19.1791V17.2324H5.02817C4.55032 17.2324 4.16298 16.845 4.16298 16.3672V5.07646C4.16298 3.77435 4.93732 3 5.89336 3H3.73038C2.77435 3 2 3.77435 2 5.07646V17.2324V19.1791V40.9819C2 41.5919 2.77435 42.3662 3.73038 42.3662H5.89336C4.93732 42.3662 4.16298 41.5919 4.16298 40.9819V20.0443C4.16298 19.5664 4.55032 19.1791 5.02817 19.1791H32.4547Z" fill="black"/>
<path d="M36.0885 29.6479C41.0101 29.6479 44.9999 28.7569 44.9999 27.6579C44.9999 26.5589 41.0101 25.668 36.0885 25.668C31.1668 25.668 27.177 26.5589 27.177 27.6579C27.177 28.7569 31.1668 29.6479 36.0885 29.6479Z" fill="#E51314"/>
<path d="M44.9999 39.922V44.01C44.9999 45.3078 41.0105 46 36.0885 46C31.1664 46 27.177 45.3078 27.177 44.01V39.922C27.177 41.2198 31.1664 41.9119 36.0885 41.9119C41.0105 41.9119 44.9999 41.2198 44.9999 39.922Z" fill="#E51314"/>
<path d="M44.9999 35.834V39.922C44.9999 41.2198 41.0105 41.912 36.0885 41.912C31.1664 41.912 27.177 41.2198 27.177 39.922V35.834C27.177 37.1318 31.1664 37.8239 36.0885 37.8239C41.0105 37.8239 44.9999 37.1318 44.9999 35.834Z" fill="black"/>
<path d="M44.9999 31.746V35.834C44.9999 37.1318 41.0105 37.8239 36.0885 37.8239C31.1664 37.8239 27.177 37.1318 27.177 35.834V31.746C27.177 33.0438 31.1664 33.7359 36.0885 33.7359C41.0105 33.7359 44.9999 33.0438 44.9999 31.746Z" fill="#E51314"/>
<path d="M44.9999 27.658V31.746C44.9999 33.0438 41.0105 33.7359 36.0885 33.7359C31.1664 33.7359 27.177 33.0438 27.177 31.746V27.658C27.177 28.9557 31.1664 29.6479 36.0885 29.6479C41.0105 29.6479 44.9999 28.9557 44.9999 27.658Z" fill="black"/>
<path d="M22.0418 36.9714C21.8757 36.9714 21.7096 36.9081 21.5829 36.7814C21.3295 36.5279 21.3295 36.1171 21.5829 35.8637L24.5245 32.9221C24.778 32.6687 25.1888 32.6687 25.4422 32.9221C25.6957 33.1756 25.6957 33.5863 25.4422 33.8398L22.5006 36.7814C22.3739 36.9081 22.2078 36.9714 22.0418 36.9714Z" fill="black"/>
<path d="M22.2455 33.844C22.6038 33.844 22.8943 33.5535 22.8943 33.1952C22.8943 32.8368 22.6038 32.5463 22.2455 32.5463C21.8871 32.5463 21.5966 32.8368 21.5966 33.1952C21.5966 33.5535 21.8871 33.844 22.2455 33.844Z" fill="black"/>
<path d="M24.841 37.1318C25.1994 37.1318 25.4899 36.8412 25.4899 36.4829C25.4899 36.1245 25.1994 35.834 24.841 35.834C24.4827 35.834 24.1921 36.1245 24.1921 36.4829C24.1921 36.8412 24.4827 37.1318 24.841 37.1318Z" fill="black"/>
</svg>
