<svg width="48" height="48" viewBox="0 0 48 48" fill="none" xmlns="http://www.w3.org/2000/svg">
<path d="M24 48C37.2548 48 48 37.2548 48 24C48 10.7452 37.2548 0 24 0C10.7452 0 0 10.7452 0 24C0 37.2548 10.7452 48 24 48Z" fill="#940A0A"/>
<path fill-rule="evenodd" clip-rule="evenodd" d="M16.3942 10.1514L16.5038 9.79895L16.59 9.96343L16.3942 10.1514Z" fill="white"/>
<path fill-rule="evenodd" clip-rule="evenodd" d="M29.7572 11.4282C30.6109 13.081 30.3133 15.0157 29.154 16.3316C28.8955 16.6371 28.5822 16.9113 28.2219 17.1306C28.1122 17.2089 28.0026 17.2716 27.8772 17.3342C27.6344 17.4596 27.3838 17.5614 27.1331 17.6319C25.9739 17.9844 24.7519 17.8355 23.7337 17.2716C23.0052 16.8721 22.3786 16.2533 21.9712 15.4622C21.5639 14.6711 21.4151 13.8016 21.5091 12.9791C21.6344 11.8199 22.2219 10.7311 23.1775 9.99482C23.3812 9.83033 23.6083 9.68933 23.8511 9.564C23.9686 9.50134 24.0861 9.44651 24.2114 9.39951C24.5953 9.23502 25.0026 9.1332 25.4021 9.10187C27.1488 8.90604 28.9034 9.78333 29.7572 11.4282Z" fill="#999999"/>
<path d="M20.1575 10.3389L7.85303 16.7101L12.7908 26.2462L25.0953 19.8751L20.1575 10.3389Z" fill="white"/>
<path fill-rule="evenodd" clip-rule="evenodd" d="M7.85633 16.7233L12.7911 26.2559L11.4046 26.9687C8.76494 28.3316 5.52997 27.3055 4.15921 24.6737C3.47775 23.3499 3.39158 21.8851 3.81456 20.5771C4.2297 19.269 5.14615 18.1175 6.46991 17.4361L7.85633 16.7233Z" fill="black"/>
<path fill-rule="evenodd" clip-rule="evenodd" d="M21.9008 4.91125L30.5483 21.611L29.3263 21.8538L16.3864 24.3995L11.4438 14.8669L21 5.76504L21.9008 4.91125Z" fill="white"/>
<path fill-rule="evenodd" clip-rule="evenodd" d="M22.9582 4.36293L31.6057 21.0627C31.9034 21.6423 31.6762 22.3629 31.0888 22.6684C30.5013 22.9739 29.7807 22.7467 29.483 22.1593L20.8355 5.45953C20.53 4.8799 20.765 4.15928 21.3525 3.8538C21.9399 3.54831 22.6606 3.77546 22.9582 4.36293Z" fill="#1A1A1A"/>
<path fill-rule="evenodd" clip-rule="evenodd" d="M16.3863 24.3995L20.0756 31.5275C20.5847 32.5144 20.2009 33.7364 19.214 34.2533H19.2062C18.2114 34.7625 16.9973 34.3786 16.4803 33.3917L12.791 26.2638L16.3863 24.3995Z" fill="#B3B3B3"/>
<path fill-rule="evenodd" clip-rule="evenodd" d="M29.1619 16.3316L27.2898 12.7128L29.765 11.4282C30.6109 13.081 30.3211 15.0157 29.1619 16.3316Z" fill="#999999"/>
<path d="M13.9267 19.6452L10.3302 21.5068L12.7967 26.272L16.3932 24.4104L13.9267 19.6452Z" fill="#B3B3B3"/>
<path fill-rule="evenodd" clip-rule="evenodd" d="M12.791 26.2638L11.4046 26.9766C8.76491 28.3395 5.52994 27.3134 4.15918 24.6815L10.3158 21.4935L12.791 26.2638Z" fill="black"/>
<path fill-rule="evenodd" clip-rule="evenodd" d="M29.3262 21.8538L16.3863 24.3995L13.9189 19.6371L25.167 13.8094L29.3262 21.8538Z" fill="#B3B3B3"/>
<path fill-rule="evenodd" clip-rule="evenodd" d="M31.0965 22.6684C30.509 22.9739 29.7884 22.7467 29.4907 22.1592L25.167 13.8094L27.2897 12.7128L31.6135 21.0626C31.9111 21.6423 31.684 22.3629 31.0965 22.6684Z" fill="#1A1A1A"/>
<path fill-rule="evenodd" clip-rule="evenodd" d="M19.2141 34.2533L14.5927 25.3317L16.3942 24.3995L20.0835 31.5275C20.5848 32.5222 20.201 33.7442 19.2141 34.2533Z" fill="#999999"/>
<path fill-rule="evenodd" clip-rule="evenodd" d="M34.4413 46.7468C40.0418 46.7468 44.6084 42.1802 44.6084 36.5797C44.6084 30.9792 40.0418 26.4126 34.4413 26.4126C28.8407 26.4126 24.2742 30.9792 24.2742 36.5797C24.2742 42.1802 28.8407 46.7468 34.4413 46.7468Z" fill="black"/>
<path fill-rule="evenodd" clip-rule="evenodd" d="M39.4543 37.6371L38.2167 37.8564C38.154 38.0209 38.0913 38.1854 38.013 38.342L38.7336 39.376C38.8433 39.5405 38.8198 39.7598 38.6788 39.9008L37.7624 40.8172C37.6214 40.9582 37.3942 40.9817 37.2376 40.8642L36.2036 40.1514C36.0469 40.2298 35.8825 40.2924 35.7258 40.3551L35.5065 41.5927C35.4752 41.7885 35.3028 41.9295 35.107 41.9295H33.8067C33.6109 41.9295 33.4386 41.7807 33.4073 41.5927L33.1879 40.3551C33.0156 40.3003 32.859 40.2298 32.7023 40.1514L31.6762 40.8642C31.5195 40.9739 31.2924 40.9582 31.1436 40.8172L30.2349 39.9008C30.0861 39.7598 30.0704 39.5326 30.1801 39.376L30.9007 38.342C30.8224 38.1854 30.7519 38.0287 30.6971 37.8564L29.4595 37.6371C29.2637 37.5979 29.1227 37.4334 29.1227 37.2298V35.9373C29.1227 35.7337 29.2637 35.5614 29.4595 35.53L30.6971 35.3029C30.7597 35.1384 30.8224 34.9739 30.9007 34.8172L30.1801 33.7833C30.0704 33.6188 30.0861 33.3995 30.2349 33.2507L31.1436 32.3342C31.2924 32.1932 31.5195 32.1697 31.6762 32.2872L32.7023 33C32.8668 32.9217 33.0156 32.8512 33.1879 32.7963L33.4073 31.5587C33.4386 31.3629 33.6109 31.2219 33.8067 31.2219H35.107C35.3028 31.2219 35.4752 31.3708 35.5065 31.5587L35.7258 32.7963C35.8903 32.8512 36.0548 32.9217 36.2036 33L37.2376 32.2872C37.3942 32.1775 37.6214 32.1932 37.7624 32.3342L38.6788 33.2507C38.8198 33.3916 38.8433 33.6188 38.7336 33.7833L38.013 34.8172C38.0913 34.9739 38.1618 35.1305 38.2167 35.3029L39.4543 35.53C39.6422 35.5614 39.7911 35.7337 39.7911 35.9373V37.2298C39.7833 37.4256 39.6422 37.5979 39.4543 37.6371Z" fill="white"/>
<path fill-rule="evenodd" clip-rule="evenodd" d="M37.0574 36.5797C37.0574 35.1384 35.8825 33.9635 34.4413 33.9635C32.9922 33.9635 31.8251 35.1384 31.8251 36.5797C31.8251 38.021 32.9922 39.1959 34.4413 39.1959C35.8825 39.1959 37.0574 38.0288 37.0574 36.5797Z" fill="black"/>
</svg>
