<svg width="49" height="48" viewBox="0 0 49 48" fill="none" xmlns="http://www.w3.org/2000/svg">
<path d="M24.2941 47.9979C37.5484 47.9979 48.2931 37.2532 48.2931 23.999C48.2931 10.7447 37.5484 0 24.2941 0C11.0399 0 0.295166 10.7447 0.295166 23.999C0.295166 37.2532 11.0399 47.9979 24.2941 47.9979Z" fill="#C9CACA"/>
<path fill-rule="evenodd" clip-rule="evenodd" d="M41.607 38.3337C43.6433 38.3588 44.8174 38.3854 45.1276 38.4155C45.1609 40.1349 45.1776 40.9955 45.1776 40.9955C42.8644 41.1105 41.7704 41.1673 41.8938 41.1639C41.4935 39.6029 41.3985 38.6606 41.607 38.3337Z" fill="#E8E9E9"/>
<path fill-rule="evenodd" clip-rule="evenodd" d="M28.6002 38.3337C26.5639 38.3588 25.3898 38.3854 25.0796 38.4155C25.0462 40.1349 25.0295 40.9955 25.0295 40.9955C27.3427 41.1105 28.4368 41.1673 28.3133 41.1639C28.7136 39.6029 28.8103 38.6606 28.6002 38.3337Z" fill="#E8E9E9"/>
<path fill-rule="evenodd" clip-rule="evenodd" d="M45.136 38.999C45.0793 35.3767 45.0526 33.5571 45.0543 33.5388C45.0443 32.9184 45.0409 32.6082 45.0409 32.6082C45.0393 32.4614 45.0376 32.388 45.0376 32.388C45.0893 32.1696 45.1193 31.9328 45.1293 31.6776C45.1677 30.9855 45.1077 30.5969 44.9509 30.5118C44.7508 26.8661 44.4622 24.613 44.0837 23.7524C43.2314 23.3238 42.6844 23.1087 42.4459 23.1087C42.1074 22.8602 41.8239 22.7334 41.592 22.7301C37.2676 22.6267 35.1045 22.5767 35.1045 22.5767C35.1045 22.5767 32.9364 22.6284 28.6119 22.7301C28.3801 22.7334 28.0966 22.8585 27.758 23.1087C27.5195 23.1087 26.9742 23.3238 26.1203 23.7524C25.7417 24.613 25.4515 26.8661 25.2531 30.5118C25.0946 30.5969 25.0363 30.9838 25.0746 31.6776C25.0846 31.9328 25.1146 32.1696 25.1663 32.388C25.1663 32.388 25.1647 32.4614 25.163 32.6082C25.163 32.6082 25.158 32.9184 25.1497 33.5388C25.1513 33.5571 25.1246 35.3783 25.0679 38.999H45.1377H45.136Z" fill="#E8E9E9"/>
<path d="M27.8547 44.3909H25.3798V47.9999H27.8547V44.3909Z" fill="#404040"/>
<path fill-rule="evenodd" clip-rule="evenodd" d="M25.1279 44.189C25.1363 44.6026 25.1396 45.0178 25.1396 45.4314C27.0842 45.4431 28.0565 45.4481 28.0565 45.4481C28.0565 44.716 28.0565 44.3507 28.0565 44.3507L25.1296 44.189H25.1279Z" fill="#292827"/>
<path d="M44.8224 44.3909H42.3474V47.9999H44.8224V44.3909Z" fill="#404040"/>
<path fill-rule="evenodd" clip-rule="evenodd" d="M45.0743 44.189C45.066 44.6026 45.0626 45.0178 45.0626 45.4314C43.1181 45.4431 42.1458 45.4481 42.1458 45.4481C42.1458 44.716 42.1458 44.3507 42.1458 44.3507L45.0743 44.189Z" fill="#292827"/>
<path fill-rule="evenodd" clip-rule="evenodd" d="M25.0661 38.9993H45.1358C45.1325 38.8192 45.1308 38.6458 45.1275 38.474C44.924 38.4773 44.7306 38.4823 44.5471 38.4857C44.0201 38.4957 43.5798 38.504 43.2246 38.5107C42.5041 38.524 42.1422 38.5307 42.1422 38.5307C42.1606 36.2309 42.1706 35.0801 42.1706 35.0801C42.1656 34.6582 42.0088 34.4414 41.7019 34.4297C40.0342 34.4697 38.3348 34.4947 36.627 34.5047C36.7354 34.6682 36.8288 34.8433 36.9072 35.0317C38.0479 35.0134 39.729 34.985 41.9488 34.95C41.9621 35.7839 41.7637 36.1925 41.35 36.1758C40.6146 36.2058 40.2477 36.2209 40.2477 36.2209C40.2343 35.9807 40.0726 35.864 39.7607 35.874C38.5032 35.8973 37.5009 35.914 36.7521 35.9273C36.6303 36.1225 36.4735 36.2992 36.2834 36.4593C35.8898 36.4844 35.4962 36.4994 35.1027 36.501C34.7091 36.4977 34.3105 36.4844 33.9169 36.4593C33.7268 36.2992 33.57 36.1225 33.4482 35.9273C32.6994 35.914 31.6954 35.8956 30.4396 35.874C30.1277 35.864 29.966 35.9807 29.9526 36.2209C29.9526 36.2209 29.5857 36.2058 28.8502 36.1758C28.4366 36.1925 28.2382 35.7839 28.2515 34.95C30.4713 34.9867 32.1524 35.0134 33.2931 35.0317C33.3715 34.8433 33.4649 34.6682 33.5733 34.5047C31.8655 34.4947 30.1644 34.4697 28.4984 34.4297C28.1915 34.4414 28.0347 34.6598 28.0297 35.0801C28.0297 35.0801 28.0397 36.2309 28.0581 38.5307C28.0581 38.5307 27.6978 38.524 26.9757 38.5107C26.6221 38.504 26.1818 38.4957 25.6532 38.4857C25.4697 38.4823 25.2763 38.479 25.0728 38.474C25.0695 38.6441 25.0678 38.8192 25.0645 38.9993H25.0661Z" fill="#6D6E6E"/>
<path fill-rule="evenodd" clip-rule="evenodd" d="M42.219 40.0723C42.219 40.0723 42.2206 39.8255 42.224 39.3335C43.4164 39.2918 44.387 39.1801 45.1342 38.9983H25.0645C25.8116 39.1801 26.7822 39.2918 27.9747 39.3335C27.978 39.8255 27.9797 40.0723 27.9797 40.0723C28.1048 40.2841 28.1531 40.5626 28.1231 40.9112C29.3189 40.9562 30.448 40.9679 31.507 40.9462C33.8702 41.0179 36.3268 41.0179 38.69 40.9462C39.749 40.9679 40.8781 40.9562 42.0739 40.9112C42.0438 40.5643 42.0905 40.2841 42.2173 40.0723H42.219Z" fill="#6D6E6E"/>
<path fill-rule="evenodd" clip-rule="evenodd" d="M41.2668 44.5911C43.2298 44.6961 44.4989 44.561 45.0743 44.1875C45.1327 43.9807 45.1477 43.7789 45.1193 43.5821C45.6647 43.3386 45.4545 41.2255 45.4545 40.7102C42.9562 40.907 40.7014 40.9854 38.6918 40.9454C36.3286 41.0171 33.872 41.0171 31.5088 40.9454C29.4992 40.9854 27.246 40.907 24.7461 40.7102C24.7461 41.2255 24.5376 43.3386 25.0813 43.5821C25.0513 43.7772 25.0663 43.979 25.1263 44.1875C25.7 44.561 26.9692 44.6945 28.9321 44.5911C32.908 44.7428 37.2892 44.7428 41.2651 44.5911H41.2668Z" fill="#7C8785"/>
<path fill-rule="evenodd" clip-rule="evenodd" d="M35.1027 31.0161C32.988 31.0311 30.0828 30.961 26.3987 30.8059C26.1686 30.7909 26.0368 30.6275 26.0068 30.3156C25.7149 28.1976 25.9 26.0412 26.5521 24.0048C26.6739 23.8881 26.8573 23.8247 27.0975 23.8164C32.431 23.7563 35.101 23.7263 35.101 23.7263C35.101 23.7263 37.7678 23.7563 43.0996 23.8164C43.3414 23.8247 43.5232 23.8881 43.6449 24.0048C44.297 26.0412 44.4838 28.1976 44.1903 30.3156C44.1603 30.6275 44.0285 30.7892 43.7984 30.8059C40.1143 30.961 37.2141 31.0311 35.0994 31.0161H35.1027Z" fill="#353043"/>
<path fill-rule="evenodd" clip-rule="evenodd" d="M26.9759 38.5102C26.9675 38.0766 26.4055 37.1026 25.2898 35.585C25.1747 36.9058 25.2214 37.8081 25.4299 38.2934C25.5416 38.3918 25.615 38.4568 25.6534 38.4868L26.9759 38.5119V38.5102Z" fill="#FEC900"/>
<path fill-rule="evenodd" clip-rule="evenodd" d="M29.0988 44.5979C29.424 45.4585 30.4397 45.837 32.1475 45.7303C34.0604 45.7303 35.0494 45.7303 35.1027 45.7303C35.1578 45.7303 36.1401 45.7303 38.053 45.7303C39.7608 45.8354 40.7781 45.4585 41.1016 44.5979H29.0972H29.0988Z" fill="#404040"/>
<path fill-rule="evenodd" clip-rule="evenodd" d="M32.0157 44.6511H34.941H35.0978H38.3482V45.8986H35.0978H34.941H32.0157V44.6511Z" fill="#292827"/>
<path fill-rule="evenodd" clip-rule="evenodd" d="M27.6629 35.4934C27.6629 35.4934 27.6695 36.4057 27.6845 38.2302C27.6845 38.2302 27.5678 38.1151 27.3343 37.8866C27.3343 37.8866 27.2993 36.7058 27.2292 34.346C27.2292 33.387 26.4454 33.1369 25.7383 32.6882C26.3553 32.8767 26.9207 33.1052 27.431 33.3737C27.6212 33.6672 27.7129 34.0141 27.6895 34.3643L27.6612 35.4951L27.6629 35.4934Z" fill="#D3D5D5"/>
<path d="M24.1606 25.0342H22.7681V28.4914H24.1606V25.0342Z" fill="black"/>
<path d="M24.1606 28.709H22.7681V29.8564H24.1606V28.709Z" fill="black"/>
<path d="M25.7334 24.8599C25.6483 24.7248 25.5132 24.6131 25.3265 24.5247C25.133 24.4329 24.8862 24.3679 24.586 24.3295C24.4192 24.3229 24.2541 24.3212 24.0907 24.3212C23.9356 24.3229 23.7771 24.3262 23.617 24.3345C23.5653 24.3696 23.5403 24.4263 23.5436 24.5063L23.4119 30.1116C23.4336 30.1633 23.4786 30.2067 23.547 30.2417C23.6337 30.2884 23.7538 30.3201 23.9089 30.3384L25.6984 30.3251L25.7 30.5352L23.8922 30.5503H23.8889C23.7071 30.5286 23.5603 30.4885 23.4486 30.4302C23.3252 30.3651 23.2434 30.2751 23.2067 30.165L23.2001 30.1483L23.3335 24.5147C23.3268 24.3379 23.3935 24.2128 23.537 24.1394L23.557 24.1294L23.5803 24.1277C23.7471 24.1194 23.9172 24.1144 24.089 24.1127C24.2591 24.1111 24.4292 24.1144 24.5976 24.1211L24.606 24.1227C24.9312 24.1644 25.2014 24.2361 25.4148 24.3379C25.6383 24.4429 25.8034 24.5814 25.9102 24.7515L25.7317 24.8632L25.7334 24.8599Z" fill="black"/>
<path fill-rule="evenodd" clip-rule="evenodd" d="M35.1027 42.503C35.1027 42.503 37.1841 42.4763 41.3451 42.4246C42.9812 42.4463 43.7116 42.0577 43.5399 41.2605C40.5546 41.3989 37.7377 41.4656 35.0977 41.4623C32.4576 41.4656 29.6458 41.3989 26.6605 41.2605C26.4871 42.0577 27.2192 42.4463 28.8553 42.4246C33.0163 42.4763 35.1027 42.503 35.1027 42.503Z" fill="#353043"/>
<path fill-rule="evenodd" clip-rule="evenodd" d="M35.1028 35.9573C35.1028 35.9573 36.6555 35.9289 39.7608 35.8739C40.0727 35.8639 40.2345 35.9806 40.2478 36.2208C40.2478 36.2208 40.6147 36.2058 41.3502 36.1757C41.7638 36.1924 41.9623 35.7838 41.9489 34.95C37.3843 35.025 35.1028 35.0617 35.1028 35.0617C35.1028 35.0617 32.8147 35.025 28.25 34.95C28.2367 35.7838 28.4351 36.1924 28.8487 36.1757C29.5842 36.2058 29.9511 36.2208 29.9511 36.2208C29.9645 35.9806 30.1262 35.8639 30.4381 35.8739C33.5435 35.9289 35.1011 35.9573 35.1011 35.9573H35.1028Z" fill="#E8E9E9"/>
<path fill-rule="evenodd" clip-rule="evenodd" d="M43.2263 38.5102C43.2347 38.0766 43.7967 37.1026 44.9124 35.585C45.0275 36.9058 44.9808 37.8081 44.7723 38.2934C44.6606 38.3918 44.5872 38.4568 44.5488 38.4868L43.2263 38.5119V38.5102Z" fill="#FEC900"/>
<path fill-rule="evenodd" clip-rule="evenodd" d="M42.5392 35.4934C42.5392 35.4934 42.5326 36.4057 42.5176 38.2302C42.5176 38.2302 42.6343 38.1151 42.8678 37.8866C42.8678 37.8866 42.9028 36.7058 42.9729 34.346C42.9729 33.387 43.7567 33.1369 44.4638 32.6882C43.8468 32.8767 43.2814 33.1052 42.7711 33.3737C42.5809 33.6672 42.4909 34.0141 42.5126 34.3643L42.5409 35.4951L42.5392 35.4934Z" fill="#D3D5D5"/>
<path d="M47.4341 25.0342H46.0415V28.4914H47.4341V25.0342Z" fill="black"/>
<path d="M47.4341 28.709H46.0415V29.8564H47.4341V28.709Z" fill="black"/>
<path d="M44.4689 24.8599C44.5539 24.7248 44.689 24.6131 44.8758 24.5247C45.0692 24.4329 45.3161 24.3679 45.6163 24.3295C45.783 24.3229 45.9482 24.3212 46.1116 24.3212C46.2667 24.3229 46.4251 24.3262 46.5852 24.3345C46.6369 24.3696 46.6619 24.4263 46.6586 24.5063L46.7904 30.1116C46.7687 30.1633 46.7237 30.2067 46.6553 30.2417C46.5686 30.2884 46.4485 30.3201 46.2934 30.3384L44.5039 30.3251L44.5022 30.5352L46.3101 30.5503H46.3134C46.4952 30.5286 46.6419 30.4885 46.7537 30.4302C46.8771 30.3651 46.9588 30.2751 46.9955 30.165L47.0005 30.1483L46.8671 24.5147C46.8738 24.3379 46.807 24.2128 46.6636 24.1394L46.6436 24.1294L46.6203 24.1277C46.4535 24.1194 46.2834 24.1144 46.1116 24.1127C45.9415 24.1111 45.7714 24.1144 45.6029 24.1211L45.5946 24.1227C45.2694 24.1644 44.9992 24.2361 44.7857 24.3379C44.5622 24.4429 44.3971 24.5814 44.2904 24.7515L44.4689 24.8632V24.8599Z" fill="black"/>
<path fill-rule="evenodd" clip-rule="evenodd" d="M35.1028 38.1738C35.1028 38.1738 36.6555 38.1455 39.7608 38.0904C40.0727 38.0804 40.2345 38.1972 40.2478 38.4373C40.2478 38.4373 40.6147 38.4223 41.3502 38.3923C41.7638 38.409 41.9623 38.0004 41.9489 37.1665C37.3843 37.2416 35.1028 37.2782 35.1028 37.2782C35.1028 37.2782 32.8147 37.2416 28.25 37.1665C28.2367 38.0004 28.4351 38.409 28.8487 38.3923C29.5842 38.4223 29.9511 38.4373 29.9511 38.4373C29.9645 38.1972 30.1262 38.0804 30.4381 38.0904C33.5435 38.1471 35.1011 38.1738 35.1011 38.1738H35.1028Z" fill="#E8E9E9"/>
<path fill-rule="evenodd" clip-rule="evenodd" d="M35.1028 40.2813C35.1028 40.2813 36.6555 40.2529 39.7608 40.1979C40.0727 40.1895 40.2345 40.3046 40.2478 40.5448C40.2478 40.5448 40.6147 40.5297 41.3502 40.4997C41.7638 40.5164 41.9623 40.1078 41.9489 39.2739C37.3843 39.349 35.1028 39.3857 35.1028 39.3857C35.1028 39.3857 32.8147 39.349 28.25 39.2739C28.2367 40.1078 28.4351 40.5164 28.8487 40.4997C29.5842 40.5297 29.9511 40.5448 29.9511 40.5448C29.9645 40.3046 30.1262 40.1879 30.4381 40.1979C33.5435 40.2546 35.1011 40.2813 35.1011 40.2813H35.1028Z" fill="#E8E9E9"/>
<path fill-rule="evenodd" clip-rule="evenodd" d="M35.1027 36.5006C34.7091 36.4972 34.3105 36.4839 33.917 36.4589C33.5417 36.1437 33.2982 35.7601 33.1898 35.3115C33.3749 34.7361 33.6835 34.2641 34.1138 33.8939C34.1138 33.8939 34.4473 33.8922 35.1027 33.8872C35.7582 33.8922 36.0867 33.8939 36.0867 33.8939C36.517 34.2624 36.8255 34.7361 37.0106 35.3115C36.9006 35.7601 36.6587 36.1437 36.2835 36.4589C35.8899 36.4839 35.4963 36.4989 35.1027 36.5006Z" fill="#353043"/>
<path fill-rule="evenodd" clip-rule="evenodd" d="M27.9997 42.8562C26.2436 42.9946 24.7726 43.163 25.0828 41.0867C25.4214 41.1267 25.7599 41.1767 26.0952 41.2318C28.6418 41.5937 28.4233 42.9012 27.9981 42.8545L27.9997 42.8562Z" fill="#FEFEFE"/>
<path fill-rule="evenodd" clip-rule="evenodd" d="M42.2023 42.8562C43.9585 42.9946 45.4294 43.163 45.1192 41.0867C44.7807 41.1267 44.4421 41.1767 44.1069 41.2318C41.5602 41.5937 41.7787 42.9012 42.204 42.8545L42.2023 42.8562Z" fill="#FEFEFE"/>
<path fill-rule="evenodd" clip-rule="evenodd" d="M35.1511 35.1996C35.3229 35.1979 35.4964 35.1963 35.6682 35.1946C35.7315 35.1946 35.7966 35.1929 35.8599 35.1929C35.9216 35.1929 35.9817 35.1929 36.0451 35.1929C36.1318 35.1963 36.2319 35.1879 36.3036 35.223C36.3419 35.2413 36.3553 35.2697 36.3636 35.313C36.3636 35.3163 36.3636 35.3197 36.3653 35.3213C36.3636 35.3814 36.3252 35.4531 36.2986 35.5115C36.2585 35.5932 36.1918 35.6682 36.1218 35.735C36.0034 35.85 35.7716 35.9834 35.5264 36.0502C35.493 36.0585 35.453 36.0735 35.4163 36.0818C35.388 36.0885 35.398 36.1019 35.4163 36.1002C35.4563 36.0969 35.4997 36.0868 35.5347 36.0785C35.8199 36.0068 36.015 35.8934 36.1501 35.7833C36.2319 35.7183 36.3152 35.6249 36.3703 35.5265C36.407 35.4598 36.4453 35.353 36.4503 35.3147C36.457 35.263 36.4637 35.2363 36.4603 35.1546C36.4537 35.0162 36.4103 34.9061 36.3286 34.781C36.3236 34.7727 36.3152 34.7643 36.3086 34.756C36.3069 34.7526 36.3036 34.7443 36.3069 34.7376L36.3086 34.736C36.3152 34.7326 36.3269 34.7426 36.3319 34.7493C36.3986 34.8227 36.4353 34.8827 36.472 34.9594C36.5187 35.0595 36.532 35.1312 36.5387 35.2196C36.5404 35.2363 36.5587 35.2446 36.5587 35.2163C36.5637 35.1212 36.5421 35.0228 36.5037 34.9344C36.4587 34.8327 36.4103 34.776 36.3486 34.7009C36.3486 34.7009 36.3486 34.6993 36.3469 34.6993C36.2719 34.6226 36.1835 34.5508 36.0934 34.4925C35.9533 34.4041 35.8116 34.3457 35.6581 34.304C35.5948 34.2873 35.5297 34.274 35.4647 34.2657C35.4447 34.264 35.4213 34.264 35.4013 34.264C35.3863 34.264 35.3713 34.279 35.4013 34.2857C35.4413 34.294 35.4814 34.304 35.5214 34.3157C35.6732 34.3591 35.8216 34.4174 35.955 34.5025C36.0667 34.5725 36.1201 34.6092 36.2535 34.7743C36.2685 34.7977 36.3052 34.8527 36.3252 34.8977C36.3386 34.9294 36.3569 34.9778 36.3586 35.0145V35.0162C36.3553 35.0528 36.3469 35.0762 36.3186 35.0945C36.2602 35.1296 36.2068 35.1329 36.1251 35.1362C36.0684 35.1396 36.01 35.1396 35.9533 35.1412C35.8683 35.1429 35.7849 35.1446 35.6998 35.1462C35.5181 35.1496 35.3329 35.1512 35.1511 35.1529C35.1311 35.1529 35.1128 35.1529 35.0928 35.1529C34.906 35.1546 34.7192 35.1546 34.5324 35.1562C34.4457 35.1562 34.364 35.1562 34.2789 35.1562C34.2222 35.1562 34.1638 35.1562 34.1071 35.1546C34.0254 35.1529 33.972 35.1496 33.9137 35.1162C33.8853 35.0995 33.877 35.0762 33.872 35.0395V35.0378C33.872 35.0011 33.8903 34.9511 33.9037 34.9211C33.922 34.8761 33.957 34.8194 33.972 34.796C34.1005 34.6292 34.1555 34.5925 34.2639 34.5192C34.3957 34.4324 34.5441 34.3707 34.6942 34.3257C34.7342 34.314 34.7742 34.3024 34.8143 34.2923C34.8443 34.2857 34.8293 34.269 34.8143 34.2707C34.7943 34.2723 34.7726 34.2707 34.7526 34.274C34.6858 34.2823 34.6208 34.2973 34.5591 34.3157C34.4057 34.3607 34.2639 34.4208 34.1271 34.5125C34.0371 34.5709 33.9504 34.6459 33.877 34.7226C33.877 34.7226 33.877 34.7243 33.8753 34.7243C33.8136 34.801 33.7669 34.8577 33.7236 34.9611C33.6869 35.0495 33.6668 35.1496 33.6735 35.2446C33.6752 35.273 33.6935 35.263 33.6952 35.248C33.7019 35.1596 33.7119 35.0879 33.7586 34.9861C33.7936 34.9094 33.8286 34.8494 33.8937 34.7743C33.8987 34.7677 33.9103 34.7593 33.917 34.761L33.9187 34.7627C33.922 34.7693 33.9187 34.776 33.917 34.781C33.912 34.7893 33.9037 34.7977 33.8987 34.8077C33.8203 34.9344 33.7786 35.0445 33.7736 35.1829C33.7719 35.2646 33.7803 35.2913 33.7869 35.3414C33.7919 35.3797 33.832 35.4865 33.872 35.5515C33.9287 35.6482 34.0154 35.7383 34.0971 35.8033C34.2339 35.9117 34.4323 36.0218 34.7192 36.0869C34.7542 36.0952 34.7976 36.1052 34.8376 36.1069C34.856 36.1085 34.866 36.0935 34.8376 36.0885C34.8009 36.0802 34.7609 36.0668 34.7275 36.0585C34.4807 35.9968 34.2472 35.8667 34.1255 35.7533C34.0554 35.6866 33.9854 35.6149 33.9454 35.5332C33.917 35.4765 33.8787 35.4047 33.8753 35.3447C33.8753 35.343 33.8753 35.3397 33.8753 35.3364C33.882 35.293 33.8953 35.2663 33.9337 35.2463C34.0037 35.2096 34.1055 35.2163 34.1922 35.2113C34.2539 35.2113 34.3139 35.2096 34.3773 35.2079C34.4407 35.2079 34.5057 35.2079 34.5691 35.2063C34.7459 35.2046 34.9227 35.2029 35.0994 35.2013C35.1195 35.2013 35.1395 35.2013 35.1578 35.2013L35.1511 35.1996ZM35.1495 35.1362C35.2712 35.1346 35.3946 35.1346 35.5147 35.1312C35.6014 35.1296 35.6898 35.1279 35.7782 35.1246C35.8566 35.1212 35.935 35.1179 36.0134 35.1129C36.0884 35.1079 36.1902 35.0945 36.2068 35.0812C36.2185 35.0729 36.2152 35.0612 36.2035 35.0528C36.1868 35.0395 36.1668 35.0295 36.1468 35.0212C36.1385 35.0178 36.1268 35.0195 36.1201 35.0262C36.1051 35.0378 36.0968 35.0412 36.0784 35.0478C36.005 35.0679 35.9533 35.0762 35.8566 35.0845C35.7849 35.0912 35.7115 35.0962 35.6398 35.0979C35.4764 35.1045 35.3763 35.1062 35.1495 35.1095C35.1295 35.1095 35.1095 35.1095 35.0878 35.1095C34.8543 35.1112 34.7542 35.1112 34.5891 35.1079C34.5174 35.1062 34.444 35.1029 34.3723 35.0979C34.2756 35.0912 34.2222 35.0845 34.1505 35.0645C34.1322 35.0595 34.1238 35.0562 34.1088 35.0445C34.1021 35.0395 34.0888 35.0378 34.0805 35.0395C34.0604 35.0478 34.0404 35.0578 34.0237 35.0712C34.0137 35.0795 34.0087 35.0912 34.0221 35.0995C34.0388 35.1112 34.1405 35.1229 34.2155 35.1262C34.2956 35.1312 34.3723 35.1329 34.4524 35.1346C34.5391 35.1362 34.6275 35.1362 34.7159 35.1362C34.8393 35.1362 34.9644 35.1346 35.0894 35.1346C35.1095 35.1346 35.1295 35.1346 35.1495 35.1346V35.1362ZM35.1461 35.0712C35.3963 35.0679 35.6631 35.0695 35.9083 35.0428C36.0317 35.0295 36.0667 34.9628 36.0717 34.9194C36.0868 34.7777 35.875 34.5925 35.7632 34.5342C35.6131 34.4541 35.4764 34.3907 35.2979 34.344C35.2746 34.3374 35.2596 34.3124 35.2596 34.2907C35.2596 34.2723 35.2879 34.249 35.3063 34.2456C35.3613 34.2323 35.4213 34.234 35.4797 34.2423C35.5731 34.2557 35.6648 34.2723 35.7565 34.299C35.8783 34.334 36.0117 34.3957 36.1268 34.4675C36.2785 34.5609 36.4086 34.6776 36.5037 34.826C36.5704 34.9311 36.6221 35.0679 36.6221 35.1829C36.6238 35.3264 36.5687 35.4664 36.4904 35.5899C36.4153 35.7083 36.3119 35.8033 36.1968 35.8884C36.0934 35.9651 35.9767 36.0235 35.8566 36.0718C35.7532 36.1135 35.6431 36.1386 35.5331 36.1569C35.463 36.1686 35.3946 36.1736 35.3246 36.1636C35.3063 36.1602 35.2762 36.1402 35.2746 36.1219C35.2729 36.1019 35.2879 36.0768 35.3063 36.0702C35.3646 36.0518 35.463 36.0201 35.5331 35.9901C35.6231 35.9501 35.7149 35.9084 35.7966 35.855C35.8783 35.8 35.9567 35.7366 36.01 35.6599C36.0401 35.6182 36.0701 35.5598 36.0734 35.5165C36.0751 35.4898 36.0751 35.4564 36.0617 35.4348C36.0084 35.348 35.8583 35.353 35.7465 35.348C35.6448 35.343 35.5447 35.3447 35.443 35.3414C35.3396 35.3397 35.2195 35.3397 35.1161 35.3397C35.0127 35.3414 34.891 35.343 34.7892 35.348C34.6875 35.3514 34.5874 35.353 34.4857 35.3597C34.374 35.3664 34.2239 35.363 34.1722 35.4514C34.1588 35.4748 34.1588 35.5065 34.1605 35.5348C34.1638 35.5782 34.1955 35.6349 34.2255 35.6766C34.2806 35.7533 34.3606 35.815 34.4424 35.8684C34.5241 35.9217 34.6175 35.9618 34.7075 36.0001C34.7792 36.0301 34.8776 36.0602 34.936 36.0768C34.956 36.0818 34.971 36.1069 34.9694 36.1269C34.9677 36.1452 34.9377 36.1669 34.9193 36.1702C34.8493 36.1819 34.7809 36.1786 34.7109 36.1686C34.6008 36.1519 34.4907 36.1285 34.3857 36.0885C34.2656 36.0435 34.1472 35.9868 34.0421 35.9117C33.927 35.83 33.822 35.735 33.7436 35.6182C33.6635 35.4965 33.6068 35.3564 33.6051 35.2129C33.6035 35.0962 33.6518 34.9594 33.7186 34.8527C33.8119 34.7026 33.9387 34.5825 34.0888 34.4875C34.2039 34.4141 34.3356 34.3507 34.4574 34.3124C34.5491 34.284 34.6391 34.2657 34.7325 34.2507C34.7909 34.2423 34.8493 34.2373 34.906 34.2507C34.9243 34.2557 34.9527 34.2773 34.9527 34.2957C34.9527 34.3174 34.9377 34.3424 34.916 34.3491C34.7375 34.3991 34.6041 34.4641 34.454 34.5475C34.344 34.6092 34.1338 34.7977 34.1522 34.9394C34.1572 34.9828 34.1939 35.0478 34.3173 35.0595C34.5658 35.0829 34.8343 35.0762 35.0878 35.0745C35.1078 35.0745 35.1261 35.0745 35.1461 35.0745V35.0712Z" fill="#D3D5D5"/>
<path d="M13.5688 6.80135L13.6873 6.42944L13.7773 6.60289L13.5688 6.80135Z" fill="white"/>
<path d="M27.7012 8.15343C28.6035 9.89623 28.2916 11.9476 27.0658 13.3351C26.789 13.6603 26.4571 13.9505 26.0802 14.179C25.9634 14.2607 25.845 14.3291 25.7183 14.3942C25.4598 14.5276 25.2013 14.6343 24.9344 14.711C23.712 15.0846 22.4178 14.9262 21.3387 14.3258C20.5682 13.9038 19.9078 13.2467 19.4759 12.4112C19.0439 11.5757 18.8888 10.6584 18.9872 9.78449C19.119 8.55869 19.7377 7.40961 20.7484 6.62743C20.9635 6.45399 21.2003 6.30222 21.4588 6.1688C21.5856 6.10376 21.709 6.04705 21.8441 5.99702C22.2493 5.82191 22.678 5.71851 23.1032 5.68015C24.9444 5.48002 26.799 6.40896 27.7012 8.15176V8.15343Z" fill="#999999"/>
<path d="M9.75791 23.8346L22.773 17.0969L17.553 7.01367L4.53784 13.7514L9.75791 23.8346Z" fill="white"/>
<path d="M4.53789 13.752L9.75795 23.8352L8.29534 24.5923C5.50685 26.0366 2.08129 24.9509 0.637017 22.1641C-0.0851197 20.7682 -0.171843 19.2155 0.268444 17.8296C0.70873 16.4454 1.67769 15.2312 3.0736 14.5091L4.53622 13.752H4.53789Z" fill="black"/>
<path d="M19.3909 1.25854L28.5335 18.9184L27.2443 19.1735L13.5588 21.8686L8.33704 11.7854L18.4369 2.16247L19.3909 1.25854Z" fill="white"/>
<path d="M20.5116 0.678502L29.6542 18.3383C29.9727 18.9537 29.7326 19.7142 29.1105 20.0361C28.4884 20.358 27.7313 20.1162 27.4127 19.5008L18.2701 1.84092C17.9516 1.22386 18.1917 0.466697 18.8138 0.144821C19.4359 -0.177055 20.1947 0.0647688 20.5133 0.680169L20.5116 0.678502Z" fill="#1A1A1A"/>
<path d="M13.5588 21.8696L17.4613 29.4079C18.0017 30.4519 17.5897 31.7461 16.5457 32.2864L16.5407 32.2897C15.4867 32.8284 14.2025 32.4198 13.6622 31.3758L9.75964 23.8376L13.5588 21.8713V21.8696Z" fill="#B3B3B3"/>
<path d="M27.0642 13.3355L25.0829 9.50802L27.6996 8.15381C28.6018 9.89661 28.29 11.9479 27.0642 13.3355Z" fill="#999999"/>
<path d="M9.75798 23.8357L13.5588 21.8695L10.9471 16.8262L7.14795 18.7941L9.75798 23.8357Z" fill="#B3B3B3"/>
<path d="M9.7579 23.8353L8.29528 24.5925C5.5068 26.0367 2.08124 24.951 0.636963 22.1642L7.1462 18.7937L9.75623 23.8353H9.7579Z" fill="black"/>
<path d="M27.2443 19.1735L13.5587 21.8686L10.947 16.8253L22.8414 10.668L27.2443 19.1735Z" fill="#B3B3B3"/>
<path d="M29.1105 20.0356C28.4884 20.3575 27.7313 20.1157 27.4127 19.5003L22.8414 10.6695L25.0846 9.50879L29.6559 18.3395C29.9744 18.9549 29.7343 19.7154 29.1122 20.0373L29.1105 20.0356Z" fill="#1A1A1A"/>
<path d="M16.5457 32.2862L16.5407 32.2895L11.6559 22.8551L13.5571 21.8711L17.4597 29.4093C18 30.4533 17.5881 31.7475 16.5441 32.2879L16.5457 32.2862Z" fill="#999999"/>
</svg>
