<svg width="48" height="48" viewBox="0 0 48 48" fill="none" xmlns="http://www.w3.org/2000/svg">
<path d="M24.0001 47.9136C37.2075 47.9136 47.9141 37.207 47.9141 23.9997C47.9141 10.7923 37.2075 0.0856934 24.0001 0.0856934C10.7928 0.0856934 0.0861816 10.7923 0.0861816 23.9997C0.0861816 37.207 10.7928 47.9136 24.0001 47.9136Z" fill="#C80000"/>
<path d="M34.2153 14.6184L38.3668 21.8057L42.5156 14.6184H34.2153Z" fill="#292827"/>
<path d="M22.978 11.489C22.978 17.8342 17.8342 22.978 11.489 22.978C5.14377 22.978 0 17.8342 0 11.489C0 5.14377 5.14377 0 11.489 0C17.8342 0 22.978 5.14377 22.978 11.489Z" fill="#292827"/>
<path d="M39.8687 16.8206H37.0072V13.0579C37.0072 11.2557 35.5403 9.78877 33.7381 9.78877H21.0396V6.92725H33.7381C37.1199 6.92725 39.8687 9.67881 39.8687 13.0579V16.8206Z" fill="#292827"/>
<path d="M29.439 40.7079H12.2189C8.83714 40.7079 6.08826 37.9564 6.08826 34.5772V30.5786H8.94978V34.5772C8.94978 36.3821 10.4167 37.8491 12.2189 37.8491H29.439V40.7106V40.7079Z" fill="white"/>
<path d="M19.8165 11.489C19.8165 16.0883 16.0887 19.8161 11.4893 19.8161C6.89267 19.8161 3.16223 16.0883 3.16223 11.489C3.16223 6.88962 6.88999 3.16187 11.4893 3.16187C16.0887 3.16187 19.8165 6.88962 19.8165 11.489Z" fill="#4D4D4D"/>
<path d="M11.6691 30.637L7.52026 23.447L3.36877 30.637H11.6691Z" fill="white"/>
<path d="M48.0001 36.5107C48.0001 42.856 42.8563 47.9997 36.5111 47.9997C30.1659 47.9997 25.0221 42.856 25.0221 36.5107C25.0221 30.1655 30.1659 25.0217 36.5111 25.0217C42.8563 25.0217 48.0001 30.1655 48.0001 36.5107Z" fill="#B3B3B3"/>
<path d="M44.8382 36.5107C44.8382 41.1101 41.1104 44.8378 36.5111 44.8378C31.9144 44.8378 28.184 41.1101 28.184 36.5107C28.184 31.9114 31.9117 28.1836 36.5111 28.1836C41.1104 28.1836 44.8382 31.9114 44.8382 36.5107Z" fill="white"/>
</svg>
