<svg width="64" height="51" viewBox="0 0 64 51" fill="none" xmlns="http://www.w3.org/2000/svg">
<path fill-rule="evenodd" clip-rule="evenodd" d="M6.40425 35.8397C-0.705513 27.6971 -2.10912 17.2857 3.27005 12.5924C6.54382 9.73331 11.5083 9.47412 16.5485 11.6832C20.1529 13.3448 23.3417 15.7885 25.8833 18.8368C32.7778 26.9754 34.1654 37.3828 29.0175 42.0841C23.8696 46.7854 14.9535 44.349 7.97534 37.5224L8.10693 37.4107C8.70107 36.8924 9.2673 36.362 9.81359 35.8157C14.4949 38.7426 19.8781 39.6956 24.0531 36.051C28.228 32.4064 28.1881 25.2288 23.128 19.435C18.0678 13.6411 10.1406 10.5986 5.44326 14.7018C0.745948 18.8049 1.02906 26.8239 6.08525 32.6177C6.69713 33.3121 7.36387 33.9562 8.07901 34.5437L6.40425 35.8397ZM7.86369 37.3988L7.68026 37.2114L7.86369 37.3988ZM9.11976 35.3492L8.99216 35.2575L9.11976 35.3492ZM8.83665 35.1498L8.70904 35.0541L8.83665 35.1498ZM8.57746 34.9544L8.42194 34.8348L8.57746 34.9544ZM8.31827 34.7511L8.15079 34.6155L8.31827 34.7511Z" fill="url(#paint0_linear)"/>
<path fill-rule="evenodd" clip-rule="evenodd" d="M26.2542 32.4025C29.9826 24.3237 23.1679 16.3487 16.8596 11.8228C20.4282 13.5267 23.5753 15.9997 26.0748 19.0642C32.9971 27.3702 34.1575 37.8056 28.6747 42.3793C23.5826 46.618 14.5628 44.3172 7.76007 37.335C7.22802 36.8553 6.74818 36.3207 6.32855 35.74C2.68793 31.7046 0.686192 26.7482 0.255539 22.5174C1.43186 28.0521 4.38662 31.9439 7.87172 34.3324L7.89565 34.3564C8.45066 34.8265 9.03106 35.2657 9.63421 35.6722C15.0971 38.627 23.6145 39.0058 26.2542 32.4025Z" fill="url(#paint1_linear)"/>
<path fill-rule="evenodd" clip-rule="evenodd" d="M54.3184 37.6979C43.7036 49.5927 28.7304 53.5563 20.875 46.5462C20.0389 45.8 19.3042 44.9474 18.6898 44.0102C21.0824 44.6083 23.2237 44.6628 25.1138 44.1736C32.084 48.7992 42.6589 46.606 49.657 38.7546C50.5617 37.7419 51.3832 36.6577 52.1133 35.5127L54.3184 37.6979ZM16.9912 40.4014L16.9553 40.2778L16.9912 40.4014ZM16.8795 40.0266C16.8795 39.9469 16.8356 39.8671 16.8157 39.7874C16.8157 39.8671 16.8596 39.9469 16.8795 40.0266ZM16.7479 39.5441C16.724 39.4564 16.7041 39.3687 16.6801 39.2809C16.7041 39.3687 16.724 39.4564 16.7479 39.5441ZM16.6363 39.0776C16.6123 38.9859 16.5924 38.8902 16.5725 38.7945C16.5725 38.8902 16.6123 38.9859 16.6363 39.0776ZM16.5326 38.5871L16.4728 38.2641L16.5326 38.5871ZM16.4409 38.0767C16.4409 37.969 16.405 37.8574 16.389 37.7497C16.389 37.8574 16.4209 37.969 16.4409 38.0767ZM16.3492 37.5344V37.662C17.6179 37.7712 18.8958 37.6919 20.1413 37.4267C18.5941 31.0467 20.6517 23.586 27.2152 16.225C33.7787 8.86406 45.2907 6.37983 51.3876 11.8108C57.4845 17.2419 57.0778 25.3046 53.6565 32.6975C54.5497 33.3914 55.4296 34.1251 56.2962 34.8986L56.4876 35.0701C65.2004 23.6259 66.592 9.96861 59.3068 3.46495C51.4394 -3.54513 36.4742 0.418474 25.8634 12.3133C18.6819 20.3641 15.3363 29.986 16.3492 37.5344ZM20.7355 39.0776C20.7594 39.1414 20.7873 39.2012 20.8152 39.265C20.7873 39.2012 20.7594 39.1414 20.7355 39.0776ZM20.8989 39.4404C20.9308 39.5122 20.9627 39.58 20.9986 39.6478C20.9627 39.58 20.9308 39.5122 20.8989 39.4404ZM21.0704 39.7993L21.186 40.0186L21.0704 39.7993ZM21.2578 40.1422L21.3336 40.2818L21.2578 40.1422ZM56.3122 35.2934L56.0729 35.5965L56.3122 35.2934ZM53.0863 33.834C53.0504 33.9018 53.0145 33.9695 52.9746 34.0373C53.0145 33.9695 53.0504 33.9018 53.0863 33.834ZM52.843 34.2806L52.7274 34.4879L52.843 34.2806ZM52.6038 34.6793L52.4602 34.9266L52.6357 34.6913L52.6038 34.6793ZM52.3566 35.0781L52.1891 35.3492L52.3566 35.0781Z" fill="url(#paint2_linear)"/>
<path fill-rule="evenodd" clip-rule="evenodd" d="M45.2787 9.1711C32.6981 5.47466 22.5219 17.1462 17.3062 27.3263C18.7736 22.2701 21.6606 17.0225 25.8634 12.3133C36.4743 0.418474 51.4395 -3.54513 59.3068 3.46495C66.5921 9.96861 65.2004 23.6259 56.4877 35.0621C55.9129 35.9414 55.2444 36.7556 54.4939 37.4905C49.3699 43.6832 42.5752 47.6747 36.4982 49.2258C44.3177 46.307 49.358 41.183 52.0775 35.5526C52.089 35.5396 52.0985 35.5247 52.1054 35.5087C52.6758 34.6021 53.1937 33.6635 53.6565 32.6975C56.7788 24.0884 55.4868 11.5836 45.2827 9.1711H45.2787Z" fill="url(#paint3_linear)"/>
<defs>
<linearGradient id="paint0_linear" x1="17.35" y1="12.2375" x2="14.7821" y2="42.443" gradientUnits="userSpaceOnUse">
<stop stop-color="#E51314"/>
<stop offset="1" stop-color="#921E17"/>
</linearGradient>
<linearGradient id="paint1_linear" x1="0.813793" y1="26.481" x2="31.777" y2="29.3002" gradientUnits="userSpaceOnUse">
<stop stop-color="#921E17"/>
<stop offset="0.33" stop-color="#5B1811"/>
<stop offset="0.71" stop-color="#E51314"/>
<stop offset="0.85" stop-color="#ED5758"/>
<stop offset="1" stop-color="#E51314"/>
</linearGradient>
<linearGradient id="paint2_linear" x1="4980.26" y1="5982.33" x2="4640.45" y2="290.791" gradientUnits="userSpaceOnUse">
<stop stop-color="#E51314"/>
<stop offset="1" stop-color="#921E17"/>
</linearGradient>
<linearGradient id="paint3_linear" x1="4954.71" y1="5855.91" x2="4619.07" y2="275.22" gradientUnits="userSpaceOnUse">
<stop stop-color="#921E17"/>
<stop offset="0.33" stop-color="#5B1811"/>
<stop offset="0.71" stop-color="#E51314"/>
<stop offset="0.85" stop-color="#ED5758"/>
<stop offset="1" stop-color="#E51314"/>
</linearGradient>
</defs>
</svg>
