<svg width="123" height="34" viewBox="0 0 123 34" fill="none" xmlns="http://www.w3.org/2000/svg">
<path fill-rule="evenodd" clip-rule="evenodd" d="M4.24904 24.5975C-0.468105 19.1951 -1.39936 12.2874 2.16958 9.17352C4.34164 7.27661 7.63544 7.10464 10.9795 8.57032C13.3709 9.67273 15.4866 11.2941 17.1729 13.3166C21.7472 18.7163 22.6679 25.6214 19.2524 28.7406C15.8369 31.8597 9.92126 30.2433 5.29142 25.714L5.37872 25.6399C5.77292 25.2959 6.1486 24.9441 6.51105 24.5816C9.61701 26.5235 13.1886 27.1558 15.9586 24.7377C18.7285 22.3196 18.7021 17.5575 15.3448 13.7134C11.9875 9.86932 6.72799 7.85071 3.61145 10.5731C0.494902 13.2954 0.682741 18.6158 4.03739 22.4598C4.44336 22.9206 4.88572 23.3479 5.3602 23.7377L4.24904 24.5975ZM5.21734 25.6319L5.09564 25.5076L5.21734 25.6319ZM6.05071 24.2721L5.96605 24.2112L6.05071 24.2721ZM5.86287 24.1398L5.77821 24.0763L5.86287 24.1398ZM5.69091 24.0102L5.58773 23.9308L5.69091 24.0102ZM5.51894 23.8753L5.40783 23.7853L5.51894 23.8753Z" fill="url(#paint0_linear)"/>
<path fill-rule="evenodd" clip-rule="evenodd" d="M17.419 22.3171C19.8927 16.9571 15.3713 11.6658 11.1859 8.66302C13.5536 9.79352 15.6416 11.4343 17.3 13.4675C21.8928 18.9783 22.6626 25.9019 19.0249 28.9364C15.6465 31.7487 9.66205 30.2222 5.14862 25.5897C4.79562 25.2714 4.47725 24.9167 4.19884 24.5315C1.78339 21.8541 0.455283 18.5656 0.169556 15.7586C0.950015 19.4307 2.91042 22.0128 5.2227 23.5976L5.23857 23.6134C5.60681 23.9253 5.99189 24.2168 6.39206 24.4865C10.0166 26.4469 15.6676 26.6982 17.419 22.3171Z" fill="url(#paint1_linear)"/>
<path fill-rule="evenodd" clip-rule="evenodd" d="M36.0389 25.8304C28.9963 33.7223 19.0619 36.3521 13.8501 31.7011C13.2953 31.206 12.8079 30.6403 12.4003 30.0185C13.9876 30.4153 15.4083 30.4515 16.6624 30.1269C21.2869 33.1958 28.3031 31.7408 32.9462 26.5315C33.5464 25.8596 34.0915 25.1403 34.5759 24.3806L36.0389 25.8304ZM11.2732 27.6242L11.2494 27.5422L11.2732 27.6242ZM11.1992 27.3755C11.1992 27.3226 11.1701 27.2696 11.1568 27.2167C11.1568 27.2696 11.1859 27.3226 11.1992 27.3755ZM11.1118 27.0554C11.096 26.9972 11.0827 26.9389 11.0669 26.8807C11.0827 26.9389 11.096 26.9972 11.1118 27.0554ZM11.0378 26.7458C11.0219 26.685 11.0087 26.6215 10.9954 26.558C10.9954 26.6215 11.0219 26.685 11.0378 26.7458ZM10.969 26.4204L10.9293 26.2061L10.969 26.4204ZM10.9081 26.0818C10.9081 26.0103 10.8843 25.9363 10.8737 25.8648C10.8737 25.9363 10.8949 26.0103 10.9081 26.0818ZM10.8473 25.722V25.8066C11.6891 25.8791 12.5369 25.8265 13.3633 25.6505C12.3368 21.4175 13.7019 16.4676 18.0566 11.5837C22.4113 6.69993 30.0492 5.0517 34.0944 8.65504C38.1395 12.2584 37.8697 17.6078 35.5997 22.5128C36.1924 22.9732 36.7762 23.46 37.3511 23.9732L37.4781 24.087C43.2588 16.494 44.1821 7.43276 39.3486 3.11775C34.1288 -1.53326 24.1997 1.09649 17.1597 8.98839C12.395 14.3299 10.1753 20.7138 10.8473 25.722ZM13.7575 26.7458C13.7733 26.7881 13.7919 26.8278 13.8104 26.8702C13.7919 26.8278 13.7733 26.7881 13.7575 26.7458ZM13.8659 26.9866C13.8871 27.0342 13.9083 27.0792 13.9321 27.1241C13.9083 27.0792 13.8871 27.0342 13.8659 26.9866ZM13.9797 27.2247L14.0564 27.3702L13.9797 27.2247ZM14.104 27.4522L14.1543 27.5448L14.104 27.4522ZM37.3617 24.2351L37.203 24.4362L37.3617 24.2351ZM35.2214 23.2668C35.1976 23.3118 35.1738 23.3568 35.1473 23.4017C35.1738 23.3568 35.1976 23.3118 35.2214 23.2668ZM35.06 23.5631L34.9833 23.7007L35.06 23.5631ZM34.9013 23.8277L34.8061 23.9917L34.9225 23.8356L34.9013 23.8277ZM34.7373 24.0923L34.6262 24.2722L34.7373 24.0923Z" fill="url(#paint2_linear)"/>
<path fill-rule="evenodd" clip-rule="evenodd" d="M30.0413 6.90364C21.6944 4.45114 14.9428 12.1949 11.4823 18.9492C12.4559 15.5945 14.3713 12.1129 17.1598 8.98839C24.1998 1.09649 34.1288 -1.53326 39.3486 3.11775C44.1822 7.43276 43.2589 16.494 37.4782 24.0817C37.0969 24.665 36.6533 25.2053 36.1554 25.6929C32.7558 29.8015 28.2476 32.4498 24.2157 33.4789C29.4038 31.5423 32.7478 28.1427 34.5521 24.4071C34.5598 24.3984 34.5661 24.3886 34.5707 24.378C34.9491 23.7765 35.2927 23.1537 35.5998 22.5128C37.6713 16.8009 36.8141 8.50424 30.044 6.90364H30.0413Z" fill="url(#paint3_linear)"/>
<path d="M51 21.7556V12.2765H53.0154V15.8907H56.8216V12.2765H58.8436V21.7556H56.8216V17.5241H53.0154V21.7556H51Z" fill="#1C1B1A"/>
<path d="M71.7621 13.955H66.6079V15.9678H71.3392V17.6141H66.6079V20.0514H72V21.7556H64.6189V12.2765H71.7621V13.955Z" fill="#1C1B1A"/>
<path d="M79.5132 18.1736H81.9846L80.7687 14.4437L79.5132 18.1736ZM79.6388 12.2765H81.9383L85.3877 21.7556H83.1806L82.5529 19.8071H78.9648L78.2907 21.7556H76.163L79.6388 12.2765Z" fill="#1C1B1A"/>
<path d="M91.9295 13.9228V16.4695H94.2357C94.6938 16.4695 95.0374 16.418 95.2665 16.3151C95.6718 16.135 95.8744 15.7792 95.8744 15.2476C95.8744 14.6731 95.6784 14.2872 95.2863 14.09C95.0661 13.9786 94.7357 13.9228 94.2952 13.9228H91.9295ZM94.7181 12.2765C95.4009 12.2894 95.9251 12.3708 96.2907 12.5209C96.6608 12.671 96.9736 12.8917 97.2291 13.1833C97.4405 13.4234 97.6079 13.6892 97.7313 13.9807C97.8546 14.2722 97.9163 14.6045 97.9163 14.9775C97.9163 15.4277 97.7996 15.8714 97.5661 16.3087C97.3326 16.7417 96.9471 17.0482 96.4097 17.2283C96.859 17.4041 97.1762 17.6549 97.3612 17.9807C97.5507 18.3023 97.6454 18.7953 97.6454 19.4598V20.0965C97.6454 20.5295 97.663 20.8232 97.6982 20.9775C97.7511 21.2219 97.8744 21.4019 98.0683 21.5177V21.7556H95.8282C95.7665 21.5456 95.7225 21.3762 95.696 21.2476C95.6432 20.9818 95.6145 20.7095 95.6101 20.4309L95.5969 19.5498C95.5881 18.9453 95.4736 18.5423 95.2533 18.3408C95.0374 18.1393 94.63 18.0386 94.0308 18.0386H91.9295V21.7556H89.9405V12.2765H94.7181Z" fill="#1C1B1A"/>
<path d="M110.518 12.2765V13.955H107.604V21.7556H105.555V13.955H102.628V12.2765H110.518Z" fill="#1C1B1A"/>
<path d="M116.954 18.8296C117.015 19.2626 117.137 19.5863 117.317 19.8006C117.648 20.1908 118.214 20.3859 119.015 20.3859C119.496 20.3859 119.885 20.3344 120.185 20.2315C120.753 20.0343 121.037 19.6677 121.037 19.1318C121.037 18.8189 120.896 18.5766 120.615 18.4051C120.333 18.2379 119.89 18.09 119.286 17.9614L118.256 17.7363C117.242 17.5134 116.542 17.2712 116.154 17.0096C115.498 16.5723 115.17 15.8885 115.17 14.9582C115.17 14.1093 115.487 13.4041 116.121 12.8424C116.756 12.2808 117.687 12 118.916 12C119.943 12 120.817 12.2658 121.54 12.7974C122.267 13.3248 122.648 14.0922 122.683 15.0997H120.727C120.692 14.5295 120.436 14.1243 119.96 13.8842C119.643 13.7256 119.249 13.6463 118.778 13.6463C118.253 13.6463 117.835 13.7492 117.522 13.955C117.209 14.1608 117.053 14.448 117.053 14.8167C117.053 15.1554 117.207 15.4084 117.515 15.5756C117.714 15.687 118.137 15.8178 118.784 15.9678L120.463 16.3601C121.198 16.5316 121.753 16.761 122.128 17.0482C122.709 17.4941 123 18.1393 123 18.9839C123 19.8499 122.659 20.5702 121.976 21.1447C121.297 21.7149 120.337 22 119.095 22C117.826 22 116.828 21.7192 116.101 21.1576C115.374 20.5916 115.011 19.8156 115.011 18.8296H116.954Z" fill="#1C1B1A"/>
<defs>
<linearGradient id="paint0_linear" x1="11.5113" y1="8.93806" x2="9.8075" y2="28.9787" gradientUnits="userSpaceOnUse">
<stop stop-color="#E51314"/>
<stop offset="1" stop-color="#921E17"/>
</linearGradient>
<linearGradient id="paint1_linear" x1="0.539943" y1="18.3883" x2="21.0832" y2="20.2588" gradientUnits="userSpaceOnUse">
<stop stop-color="#921E17"/>
<stop offset="0.33" stop-color="#5B1811"/>
<stop offset="0.71" stop-color="#E51314"/>
<stop offset="0.85" stop-color="#ED5758"/>
<stop offset="1" stop-color="#E51314"/>
</linearGradient>
<linearGradient id="paint2_linear" x1="3304.27" y1="3969.94" x2="3078.82" y2="193.751" gradientUnits="userSpaceOnUse">
<stop stop-color="#E51314"/>
<stop offset="1" stop-color="#921E17"/>
</linearGradient>
<linearGradient id="paint3_linear" x1="3287.32" y1="3886.06" x2="3064.63" y2="183.42" gradientUnits="userSpaceOnUse">
<stop stop-color="#921E17"/>
<stop offset="0.33" stop-color="#5B1811"/>
<stop offset="0.71" stop-color="#E51314"/>
<stop offset="0.85" stop-color="#ED5758"/>
<stop offset="1" stop-color="#E51314"/>
</linearGradient>
</defs>
</svg>
