<svg width="39" height="31" viewBox="0 0 39 31" fill="none" xmlns="http://www.w3.org/2000/svg">
<path fill-rule="evenodd" clip-rule="evenodd" d="M3.85354 21.5687C-0.424813 16.6676 -1.26907 10.4037 1.96796 7.57801C3.93818 5.85809 6.92575 5.70197 9.9585 7.03136C11.9088 7.88622 13.9301 9.39274 15.576 11.3356C19.7247 16.2331 20.5609 22.497 17.4616 25.3263C14.3622 28.1558 8.99927 26.6892 4.8098 22.5814C4.83632 22.5585 4.86304 22.5362 4.88935 22.5131C5.24593 22.2019 5.58766 21.8822 5.91434 21.5558C8.73178 23.316 11.9718 23.8902 14.4846 21.6966C16.9972 19.5033 16.9641 15.1816 13.9221 11.6968C10.88 8.21205 6.10313 6.37886 3.27486 8.84779C0.446597 11.3167 0.619903 16.1432 3.66199 19.628C4.03448 20.0546 4.43285 20.4413 4.8501 20.787L3.85354 21.5687ZM3.73666 23.2876C3.69932 23.2507 3.6622 23.2133 3.62508 23.176C3.6622 23.2133 3.69932 23.2507 3.73666 23.2876ZM4.4914 22.0553C4.46531 22.0371 4.43943 22.0189 4.41355 22.0004C4.43943 22.0189 4.46531 22.0373 4.4914 22.0553ZM4.3217 21.9338C4.29561 21.9147 4.26973 21.8954 4.24385 21.8761C4.26973 21.8954 4.29582 21.9147 4.3217 21.9338ZM4.16515 21.8167C4.13397 21.7929 4.10321 21.769 4.07224 21.7448C4.10321 21.769 4.13418 21.7929 4.16515 21.8167ZM4.00924 21.6951C3.9753 21.6682 3.94157 21.6411 3.90784 21.6135C3.94157 21.6411 3.9753 21.6682 4.00924 21.6951Z" fill="#D3D5D5"/>
<path fill-rule="evenodd" clip-rule="evenodd" d="M15.7995 19.4987C18.0419 14.6434 13.9428 9.83305 10.1468 7.11572C12.0992 8.01238 14.0437 9.49322 15.6922 11.4719C19.8566 16.4702 20.5564 22.7519 17.2549 25.5025C14.1924 28.0542 8.76351 26.6703 4.67013 22.4674C4.34919 22.1819 4.06239 21.8658 3.80933 21.519C1.61808 19.0798 0.413842 16.0973 0.153564 13.5508C0.862487 16.8824 2.62694 19.2243 4.73653 20.6612C4.74141 20.6654 4.7465 20.6699 4.7518 20.6746C5.08569 20.9582 5.43421 21.2225 5.79758 21.4673C9.08509 23.2444 14.21 23.4744 15.7997 19.499L15.7995 19.4987ZM4.67013 22.4672C4.66165 22.4744 4.64468 22.4886 4.67034 22.4672H4.67013Z" fill="#E8E9E9"/>
<path fill-rule="evenodd" clip-rule="evenodd" d="M32.6873 22.6857C26.3009 29.8449 17.2906 32.229 12.5619 28.0109C12.0535 27.5571 11.6154 27.0455 11.2463 26.4849C12.6807 26.845 13.9696 26.8779 15.1132 26.5837C19.3082 29.3666 25.6679 28.0472 29.883 23.3221C30.4392 22.6986 30.9318 22.0451 31.3609 21.3709L32.6873 22.6857ZM9.84611 22.5894C9.2301 18.0452 11.2423 12.2555 15.5639 7.41078C21.9504 0.251552 30.9608 -2.13252 35.6893 2.08559C40.0756 5.99845 39.2358 14.2174 33.9938 21.1011C33.9556 21.0665 33.9179 21.0315 33.8793 20.9972C33.3585 20.5326 32.8282 20.0912 32.2907 19.6729C34.3495 15.2276 34.595 10.3814 30.9248 7.10722C27.2544 3.83307 20.3469 5.33598 16.3963 9.76473C12.4457 14.1933 11.2077 18.689 12.1405 22.523C11.4158 22.6961 10.6308 22.7165 9.85799 22.6647L9.84632 22.5892L9.84611 22.5894ZM33.8975 21.2267C33.8502 21.288 33.8025 21.3493 33.7545 21.4104C33.8025 21.3493 33.8502 21.288 33.8975 21.2267ZM31.9559 20.3485C31.9341 20.3899 31.9118 20.4312 31.8895 20.4726C31.9118 20.4312 31.9341 20.3899 31.9559 20.3485ZM31.8091 20.6192C31.786 20.6607 31.7627 20.7023 31.7391 20.7437C31.7627 20.7023 31.786 20.6607 31.8091 20.6192ZM31.6666 20.8699C31.6375 20.9198 31.6082 20.9694 31.5785 21.019C31.6082 20.9694 31.6375 20.9198 31.6666 20.8699ZM31.5175 21.1204C31.4844 21.1749 31.4506 21.2292 31.4165 21.2838C31.4506 21.2295 31.4844 21.1749 31.5175 21.1204Z" fill="#D3D5D5"/>
<path fill-rule="evenodd" clip-rule="evenodd" d="M27.2483 5.51123C19.6797 3.29431 13.5533 10.3176 10.4138 16.4444C11.2977 13.4019 13.0357 10.2444 15.5638 7.41038C21.9502 0.251157 30.9605 -2.13313 35.689 2.08519C40.0753 5.99805 39.2355 14.2171 33.9941 21.1001C33.6473 21.63 33.2485 22.1172 32.7975 22.5616C29.7153 26.2872 25.6266 28.6912 21.9689 29.6235C26.6745 27.8662 29.7072 24.7845 31.3451 21.3954C31.3504 21.3871 31.3555 21.379 31.3612 21.3703C31.7025 20.8218 32.0122 20.256 32.2903 19.6729C34.1689 14.492 33.3914 6.96704 27.2479 5.51144L27.2483 5.51123ZM33.9941 21.0997C34.0066 21.1107 34.0308 21.1321 33.9941 21.0995V21.0997Z" fill="#E8E9E9"/>
</svg>
